{
    "header": {
        "keySignatures": [],
        "meta": [],
        "name": "Grand Piano",
        "ppq": 384,
        "tempos": [
            {
                "bpm": 120,
                "ticks": 0
            }
        ],
        "timeSignatures": [
            {
                "ticks": 0,
                "timeSignature": [4, 4],
                "measures": 0
            }
        ]
    },
    "tracks": [
        {
            "channel": 0,
            "controlChanges": {
                "7": [
                    {
                        "number": 7,
                        "ticks": 0,
                        "time": 0,
                        "value": 1
                    }
                ]
            },
            "pitchBends": [],
            "instrument": {
                "family": "piano",
                "number": 0,
                "name": "acoustic grand piano"
            },
            "name": "",
            "notes": [
                {
                    "duration": 0.75,
                    "durationTicks": 576,
                    "midi": 88,
                    "name": "E6",
                    "ticks": 0,
                    "time": 0,
                    "velocity": 0.25196850393700787
                },
                {
                    "duration": 2,
                    "durationTicks": 1536,
                    "midi": 72,
                    "name": "C5",
                    "ticks": 0,
                    "time": 0,
                    "velocity": 0.25196850393700787
                },
                {
                    "duration": 2,
                    "durationTicks": 1536,
                    "midi": 69,
                    "name": "A4",
                    "ticks": 0,
                    "time": 0,
                    "velocity": 0.25196850393700787
                },
                {
                    "duration": 0.75,
                    "durationTicks": 576,
                    "midi": 86,
                    "name": "D6",
                    "ticks": 576,
                    "time": 0.75,
                    "velocity": 0.25196850393700787
                },
                {
                    "duration": 0.75,
                    "durationTicks": 576,
                    "midi": 91,
                    "name": "G6",
                    "ticks": 1152,
                    "time": 1.5,
                    "velocity": 0.25196850393700787
                },
                {
                    "duration": 1.5,
                    "durationTicks": 1152,
                    "midi": 71,
                    "name": "B4",
                    "ticks": 1536,
                    "time": 2,
                    "velocity": 0.25196850393700787
                },
                {
                    "duration": 1.5,
                    "durationTicks": 1152,
                    "midi": 67,
                    "name": "G4",
                    "ticks": 1536,
                    "time": 2,
                    "velocity": 0.25196850393700787
                },
                {
                    "duration": 0.25,
                    "durationTicks": 192,
                    "midi": 88,
                    "name": "E6",
                    "ticks": 1728,
                    "time": 2.25,
                    "velocity": 0.25196850393700787
                },
                {
                    "duration": 0.5,
                    "durationTicks": 384,
                    "midi": 86,
                    "name": "D6",
                    "ticks": 1920,
                    "time": 2.5,
                    "velocity": 0.25196850393700787
                },
                {
                    "duration": 0.5,
                    "durationTicks": 384,
                    "midi": 79,
                    "name": "G5",
                    "ticks": 2304,
                    "time": 3,
                    "velocity": 0.25196850393700787
                },
                {
                    "duration": 0.75,
                    "durationTicks": 576,
                    "midi": 86,
                    "name": "D6",
                    "ticks": 2688,
                    "time": 3.5,
                    "velocity": 0.25196850393700787
                },
                {
                    "duration": 1.75,
                    "durationTicks": 1344,
                    "midi": 74,
                    "name": "D5",
                    "ticks": 2688,
                    "time": 3.5,
                    "velocity": 0.25196850393700787
                },
                {
                    "duration": 1.75,
                    "durationTicks": 1344,
                    "midi": 71,
                    "name": "B4",
                    "ticks": 2688,
                    "time": 3.5,
                    "velocity": 0.25196850393700787
                },
                {
                    "duration": 0.25,
                    "durationTicks": 192,
                    "midi": 84,
                    "name": "C6",
                    "ticks": 3264,
                    "time": 4.25,
                    "velocity": 0.25196850393700787
                },
                {
                    "duration": 0.375,
                    "durationTicks": 288,
                    "midi": 83,
                    "name": "B5",
                    "ticks": 3456,
                    "time": 4.5,
                    "velocity": 0.25196850393700787
                },
                {
                    "duration": 0.375,
                    "durationTicks": 288,
                    "midi": 84,
                    "name": "C6",
                    "ticks": 3744,
                    "time": 4.875,
                    "velocity": 0.25196850393700787
                },
                {
                    "duration": 0.75,
                    "durationTicks": 576,
                    "midi": 88,
                    "name": "E6",
                    "ticks": 4032,
                    "time": 5.25,
                    "velocity": 0.25196850393700787
                },
                {
                    "duration": 2,
                    "durationTicks": 1536,
                    "midi": 72,
                    "name": "C5",
                    "ticks": 4032,
                    "time": 5.25,
                    "velocity": 0.25196850393700787
                },
                {
                    "duration": 2,
                    "durationTicks": 1536,
                    "midi": 69,
                    "name": "A4",
                    "ticks": 4032,
                    "time": 5.25,
                    "velocity": 0.25196850393700787
                },
                {
                    "duration": 0.25,
                    "durationTicks": 192,
                    "midi": 84,
                    "name": "C6",
                    "ticks": 4608,
                    "time": 6,
                    "velocity": 0.25196850393700787
                },
                {
                    "duration": 0.5,
                    "durationTicks": 384,
                    "midi": 83,
                    "name": "B5",
                    "ticks": 4800,
                    "time": 6.25,
                    "velocity": 0.25196850393700787
                },
                {
                    "duration": 0.5,
                    "durationTicks": 384,
                    "midi": 81,
                    "name": "A5",
                    "ticks": 5184,
                    "time": 6.75,
                    "velocity": 0.25196850393700787
                },
                {
                    "duration": 0.75,
                    "durationTicks": 576,
                    "midi": 81,
                    "name": "A5",
                    "ticks": 5568,
                    "time": 7.25,
                    "velocity": 0.25196850393700787
                },
                {
                    "duration": 1.75,
                    "durationTicks": 1344,
                    "midi": 84,
                    "name": "C6",
                    "ticks": 5568,
                    "time": 7.25,
                    "velocity": 0.25196850393700787
                },
                {
                    "duration": 1,
                    "durationTicks": 768,
                    "midi": 81,
                    "name": "A5",
                    "ticks": 6144,
                    "time": 8,
                    "velocity": 0.25196850393700787
                },
                {
                    "duration": 0.25,
                    "durationTicks": 192,
                    "midi": 89,
                    "name": "F6",
                    "ticks": 6336,
                    "time": 8.25,
                    "velocity": 0.25196850393700787
                },
                {
                    "duration": 0.25,
                    "durationTicks": 192,
                    "midi": 88,
                    "name": "E6",
                    "ticks": 6528,
                    "time": 8.5,
                    "velocity": 0.25196850393700787
                },
                {
                    "duration": 0.25,
                    "durationTicks": 192,
                    "midi": 86,
                    "name": "D6",
                    "ticks": 6720,
                    "time": 8.75,
                    "velocity": 0.25196850393700787
                },
                {
                    "duration": 0.5,
                    "durationTicks": 384,
                    "midi": 79,
                    "name": "G5",
                    "ticks": 6912,
                    "time": 9,
                    "velocity": 0.25196850393700787
                },
                {
                    "duration": 0.5,
                    "durationTicks": 384,
                    "midi": 83,
                    "name": "B5",
                    "ticks": 6912,
                    "time": 9,
                    "velocity": 0.25196850393700787
                },
                {
                    "duration": 1.5,
                    "durationTicks": 1152,
                    "midi": 79,
                    "name": "G5",
                    "ticks": 7296,
                    "time": 9.5,
                    "velocity": 0.25196850393700787
                },
                {
                    "duration": 0.5,
                    "durationTicks": 384,
                    "midi": 83,
                    "name": "B5",
                    "ticks": 7680,
                    "time": 10,
                    "velocity": 0.25196850393700787
                },
                {
                    "duration": 0.5,
                    "durationTicks": 384,
                    "midi": 86,
                    "name": "D6",
                    "ticks": 8064,
                    "time": 10.5,
                    "velocity": 0.25196850393700787
                },
                {
                    "duration": 1,
                    "durationTicks": 768,
                    "midi": 88,
                    "name": "E6",
                    "ticks": 8448,
                    "time": 11,
                    "velocity": 0.25196850393700787
                },
                {
                    "duration": 1.75,
                    "durationTicks": 1344,
                    "midi": 84,
                    "name": "C6",
                    "ticks": 8448,
                    "time": 11,
                    "velocity": 0.25196850393700787
                },
                {
                    "duration": 0.25,
                    "durationTicks": 192,
                    "midi": 79,
                    "name": "G5",
                    "ticks": 9216,
                    "time": 12,
                    "velocity": 0.25196850393700787
                },
                {
                    "duration": 0.25,
                    "durationTicks": 192,
                    "midi": 88,
                    "name": "E6",
                    "ticks": 9408,
                    "time": 12.25,
                    "velocity": 0.25196850393700787
                },
                {
                    "duration": 0.25,
                    "durationTicks": 192,
                    "midi": 86,
                    "name": "D6",
                    "ticks": 9600,
                    "time": 12.5,
                    "velocity": 0.25196850393700787
                },
                {
                    "duration": 0.25,
                    "durationTicks": 192,
                    "midi": 84,
                    "name": "C6",
                    "ticks": 9792,
                    "time": 12.75,
                    "velocity": 0.25196850393700787
                },
                {
                    "duration": 0.5,
                    "durationTicks": 384,
                    "midi": 79,
                    "name": "G5",
                    "ticks": 9984,
                    "time": 13,
                    "velocity": 0.25196850393700787
                },
                {
                    "duration": 0.5,
                    "durationTicks": 384,
                    "midi": 83,
                    "name": "B5",
                    "ticks": 9984,
                    "time": 13,
                    "velocity": 0.25196850393700787
                },
                {
                    "duration": 1,
                    "durationTicks": 768,
                    "midi": 79,
                    "name": "G5",
                    "ticks": 10368,
                    "time": 13.5,
                    "velocity": 0.25196850393700787
                },
                {
                    "duration": 0.5,
                    "durationTicks": 384,
                    "midi": 81,
                    "name": "A5",
                    "ticks": 10752,
                    "time": 14,
                    "velocity": 0.25196850393700787
                },
                {
                    "duration": 0.5,
                    "durationTicks": 384,
                    "midi": 79,
                    "name": "G5",
                    "ticks": 11136,
                    "time": 14.5,
                    "velocity": 0.25196850393700787
                },
                {
                    "duration": 1,
                    "durationTicks": 768,
                    "midi": 77,
                    "name": "F5",
                    "ticks": 11520,
                    "time": 15,
                    "velocity": 0.25196850393700787
                },
                {
                    "duration": 1.75,
                    "durationTicks": 1344,
                    "midi": 84,
                    "name": "C6",
                    "ticks": 11712,
                    "time": 15.25,
                    "velocity": 0.25196850393700787
                },
                {
                    "duration": 1.75,
                    "durationTicks": 1344,
                    "midi": 81,
                    "name": "A5",
                    "ticks": 11712,
                    "time": 15.25,
                    "velocity": 0.25196850393700787
                },
                {
                    "duration": 0.25,
                    "durationTicks": 192,
                    "midi": 77,
                    "name": "F5",
                    "ticks": 12288,
                    "time": 16,
                    "velocity": 0.25196850393700787
                },
                {
                    "duration": 0.25,
                    "durationTicks": 192,
                    "midi": 89,
                    "name": "F6",
                    "ticks": 12480,
                    "time": 16.25,
                    "velocity": 0.25196850393700787
                },
                {
                    "duration": 0.25,
                    "durationTicks": 192,
                    "midi": 88,
                    "name": "E6",
                    "ticks": 12672,
                    "time": 16.5,
                    "velocity": 0.25196850393700787
                },
                {
                    "duration": 0.25,
                    "durationTicks": 192,
                    "midi": 86,
                    "name": "D6",
                    "ticks": 12864,
                    "time": 16.75,
                    "velocity": 0.25196850393700787
                },
                {
                    "duration": 0.5,
                    "durationTicks": 384,
                    "midi": 79,
                    "name": "G5",
                    "ticks": 13056,
                    "time": 17,
                    "velocity": 0.25196850393700787
                },
                {
                    "duration": 0.5,
                    "durationTicks": 384,
                    "midi": 83,
                    "name": "B5",
                    "ticks": 13056,
                    "time": 17,
                    "velocity": 0.25196850393700787
                },
                {
                    "duration": 1.5,
                    "durationTicks": 1152,
                    "midi": 79,
                    "name": "G5",
                    "ticks": 13440,
                    "time": 17.5,
                    "velocity": 0.25196850393700787
                },
                {
                    "duration": 0.5,
                    "durationTicks": 384,
                    "midi": 86,
                    "name": "D6",
                    "ticks": 13824,
                    "time": 18,
                    "velocity": 0.25196850393700787
                },
                {
                    "duration": 0.5,
                    "durationTicks": 384,
                    "midi": 91,
                    "name": "G6",
                    "ticks": 14208,
                    "time": 18.5,
                    "velocity": 0.25196850393700787
                },
                {
                    "duration": 1,
                    "durationTicks": 768,
                    "midi": 88,
                    "name": "E6",
                    "ticks": 14592,
                    "time": 19,
                    "velocity": 0.25196850393700787
                },
                {
                    "duration": 2,
                    "durationTicks": 1536,
                    "midi": 84,
                    "name": "C6",
                    "ticks": 14592,
                    "time": 19,
                    "velocity": 0.25196850393700787
                },
                {
                    "duration": 0.25,
                    "durationTicks": 192,
                    "midi": 79,
                    "name": "G5",
                    "ticks": 15360,
                    "time": 20,
                    "velocity": 0.25196850393700787
                },
                {
                    "duration": 0.25,
                    "durationTicks": 192,
                    "midi": 88,
                    "name": "E6",
                    "ticks": 15552,
                    "time": 20.25,
                    "velocity": 0.25196850393700787
                },
                {
                    "duration": 0.25,
                    "durationTicks": 192,
                    "midi": 79,
                    "name": "G5",
                    "ticks": 15744,
                    "time": 20.5,
                    "velocity": 0.25196850393700787
                },
                {
                    "duration": 0.75,
                    "durationTicks": 576,
                    "midi": 88,
                    "name": "E6",
                    "ticks": 15936,
                    "time": 20.75,
                    "velocity": 0.25196850393700787
                },
                {
                    "duration": 0.5,
                    "durationTicks": 384,
                    "midi": 79,
                    "name": "G5",
                    "ticks": 16128,
                    "time": 21,
                    "velocity": 0.25196850393700787
                },
                {
                    "duration": 2.25,
                    "durationTicks": 1728,
                    "midi": 84,
                    "name": "C6",
                    "ticks": 16128,
                    "time": 21,
                    "velocity": 0.25196850393700787
                },
                {
                    "duration": 0.5,
                    "durationTicks": 384,
                    "midi": 79,
                    "name": "G5",
                    "ticks": 16512,
                    "time": 21.5,
                    "velocity": 0.25196850393700787
                },
                {
                    "duration": 0.25,
                    "durationTicks": 192,
                    "midi": 88,
                    "name": "E6",
                    "ticks": 16704,
                    "time": 21.75,
                    "velocity": 0.25196850393700787
                },
                {
                    "duration": 1.25,
                    "durationTicks": 960,
                    "midi": 79,
                    "name": "G5",
                    "ticks": 16896,
                    "time": 22,
                    "velocity": 0.25196850393700787
                },
                {
                    "duration": 0.25,
                    "durationTicks": 192,
                    "midi": 88,
                    "name": "E6",
                    "ticks": 17088,
                    "time": 22.25,
                    "velocity": 0.25196850393700787
                },
                {
                    "duration": 0.25,
                    "durationTicks": 192,
                    "midi": 88,
                    "name": "E6",
                    "ticks": 17280,
                    "time": 22.5,
                    "velocity": 0.25196850393700787
                },
                {
                    "duration": 0.25,
                    "durationTicks": 192,
                    "midi": 88,
                    "name": "E6",
                    "ticks": 17472,
                    "time": 22.75,
                    "velocity": 0.25196850393700787
                },
                {
                    "duration": 0.25,
                    "durationTicks": 192,
                    "midi": 89,
                    "name": "F6",
                    "ticks": 17664,
                    "time": 23,
                    "velocity": 0.25196850393700787
                },
                {
                    "duration": 0.5,
                    "durationTicks": 384,
                    "midi": 91,
                    "name": "G6",
                    "ticks": 17856,
                    "time": 23.25,
                    "velocity": 0.25196850393700787
                },
                {
                    "duration": 1.75,
                    "durationTicks": 1344,
                    "midi": 77,
                    "name": "F5",
                    "ticks": 17856,
                    "time": 23.25,
                    "velocity": 0.25196850393700787
                },
                {
                    "duration": 1.75,
                    "durationTicks": 1344,
                    "midi": 74,
                    "name": "D5",
                    "ticks": 17856,
                    "time": 23.25,
                    "velocity": 0.25196850393700787
                },
                {
                    "duration": 0.25,
                    "durationTicks": 192,
                    "midi": 88,
                    "name": "E6",
                    "ticks": 18240,
                    "time": 23.75,
                    "velocity": 0.25196850393700787
                },
                {
                    "duration": 0.5,
                    "durationTicks": 384,
                    "midi": 91,
                    "name": "G6",
                    "ticks": 18432,
                    "time": 24,
                    "velocity": 0.25196850393700787
                },
                {
                    "duration": 0.25,
                    "durationTicks": 192,
                    "midi": 88,
                    "name": "E6",
                    "ticks": 18816,
                    "time": 24.5,
                    "velocity": 0.25196850393700787
                },
                {
                    "duration": 0.25,
                    "durationTicks": 192,
                    "midi": 88,
                    "name": "E6",
                    "ticks": 19008,
                    "time": 24.75,
                    "velocity": 0.25196850393700787
                },
                {
                    "duration": 0.25,
                    "durationTicks": 192,
                    "midi": 89,
                    "name": "F6",
                    "ticks": 19200,
                    "time": 25,
                    "velocity": 0.25196850393700787
                },
                {
                    "duration": 2.25,
                    "durationTicks": 1728,
                    "midi": 83,
                    "name": "B5",
                    "ticks": 19200,
                    "time": 25,
                    "velocity": 0.25196850393700787
                },
                {
                    "duration": 2.25,
                    "durationTicks": 1728,
                    "midi": 77,
                    "name": "F5",
                    "ticks": 19200,
                    "time": 25,
                    "velocity": 0.25196850393700787
                },
                {
                    "duration": 2.25,
                    "durationTicks": 1728,
                    "midi": 74,
                    "name": "D5",
                    "ticks": 19200,
                    "time": 25,
                    "velocity": 0.25196850393700787
                },
                {
                    "duration": 0.25,
                    "durationTicks": 192,
                    "midi": 91,
                    "name": "G6",
                    "ticks": 19392,
                    "time": 25.25,
                    "velocity": 0.25196850393700787
                },
                {
                    "duration": 0.25,
                    "durationTicks": 192,
                    "midi": 91,
                    "name": "G6",
                    "ticks": 19584,
                    "time": 25.5,
                    "velocity": 0.25196850393700787
                },
                {
                    "duration": 0.25,
                    "durationTicks": 192,
                    "midi": 89,
                    "name": "F6",
                    "ticks": 19776,
                    "time": 25.75,
                    "velocity": 0.25196850393700787
                },
                {
                    "duration": 0.25,
                    "durationTicks": 192,
                    "midi": 89,
                    "name": "F6",
                    "ticks": 19968,
                    "time": 26,
                    "velocity": 0.25196850393700787
                },
                {
                    "duration": 0.25,
                    "durationTicks": 192,
                    "midi": 88,
                    "name": "E6",
                    "ticks": 20160,
                    "time": 26.25,
                    "velocity": 0.25196850393700787
                },
                {
                    "duration": 0.25,
                    "durationTicks": 192,
                    "midi": 88,
                    "name": "E6",
                    "ticks": 20352,
                    "time": 26.5,
                    "velocity": 0.25196850393700787
                },
                {
                    "duration": 0.25,
                    "durationTicks": 192,
                    "midi": 88,
                    "name": "E6",
                    "ticks": 20544,
                    "time": 26.75,
                    "velocity": 0.25196850393700787
                },
                {
                    "duration": 0.25,
                    "durationTicks": 192,
                    "midi": 89,
                    "name": "F6",
                    "ticks": 20736,
                    "time": 27,
                    "velocity": 0.25196850393700787
                },
                {
                    "duration": 0.5,
                    "durationTicks": 384,
                    "midi": 91,
                    "name": "G6",
                    "ticks": 20928,
                    "time": 27.25,
                    "velocity": 0.25196850393700787
                },
                {
                    "duration": 1.75,
                    "durationTicks": 1344,
                    "midi": 79,
                    "name": "G5",
                    "ticks": 20928,
                    "time": 27.25,
                    "velocity": 0.25196850393700787
                },
                {
                    "duration": 1.75,
                    "durationTicks": 1344,
                    "midi": 76,
                    "name": "E5",
                    "ticks": 20928,
                    "time": 27.25,
                    "velocity": 0.25196850393700787
                },
                {
                    "duration": 1.75,
                    "durationTicks": 1344,
                    "midi": 72,
                    "name": "C5",
                    "ticks": 20928,
                    "time": 27.25,
                    "velocity": 0.25196850393700787
                },
                {
                    "duration": 0.25,
                    "durationTicks": 192,
                    "midi": 88,
                    "name": "E6",
                    "ticks": 21312,
                    "time": 27.75,
                    "velocity": 0.25196850393700787
                },
                {
                    "duration": 0.5,
                    "durationTicks": 384,
                    "midi": 91,
                    "name": "G6",
                    "ticks": 21504,
                    "time": 28,
                    "velocity": 0.25196850393700787
                },
                {
                    "duration": 0.25,
                    "durationTicks": 192,
                    "midi": 88,
                    "name": "E6",
                    "ticks": 21888,
                    "time": 28.5,
                    "velocity": 0.25196850393700787
                },
                {
                    "duration": 0.25,
                    "durationTicks": 192,
                    "midi": 88,
                    "name": "E6",
                    "ticks": 22080,
                    "time": 28.75,
                    "velocity": 0.25196850393700787
                },
                {
                    "duration": 0.25,
                    "durationTicks": 192,
                    "midi": 89,
                    "name": "F6",
                    "ticks": 22272,
                    "time": 29,
                    "velocity": 0.25196850393700787
                },
                {
                    "duration": 2,
                    "durationTicks": 1536,
                    "midi": 84,
                    "name": "C6",
                    "ticks": 22272,
                    "time": 29,
                    "velocity": 0.25196850393700787
                },
                {
                    "duration": 2,
                    "durationTicks": 1536,
                    "midi": 81,
                    "name": "A5",
                    "ticks": 22272,
                    "time": 29,
                    "velocity": 0.25196850393700787
                },
                {
                    "duration": 2,
                    "durationTicks": 1536,
                    "midi": 72,
                    "name": "C5",
                    "ticks": 22272,
                    "time": 29,
                    "velocity": 0.25196850393700787
                },
                {
                    "duration": 0.25,
                    "durationTicks": 192,
                    "midi": 91,
                    "name": "G6",
                    "ticks": 22464,
                    "time": 29.25,
                    "velocity": 0.25196850393700787
                },
                {
                    "duration": 0.25,
                    "durationTicks": 192,
                    "midi": 91,
                    "name": "G6",
                    "ticks": 22656,
                    "time": 29.5,
                    "velocity": 0.25196850393700787
                },
                {
                    "duration": 0.25,
                    "durationTicks": 192,
                    "midi": 88,
                    "name": "E6",
                    "ticks": 22848,
                    "time": 29.75,
                    "velocity": 0.25196850393700787
                },
                {
                    "duration": 0.25,
                    "durationTicks": 192,
                    "midi": 88,
                    "name": "E6",
                    "ticks": 23040,
                    "time": 30,
                    "velocity": 0.25196850393700787
                },
                {
                    "duration": 0.75,
                    "durationTicks": 576,
                    "midi": 86,
                    "name": "D6",
                    "ticks": 23232,
                    "time": 30.25,
                    "velocity": 0.25196850393700787
                },
                {
                    "duration": 0.5,
                    "durationTicks": 384,
                    "midi": 88,
                    "name": "E6",
                    "ticks": 23808,
                    "time": 31,
                    "velocity": 0.25196850393700787
                },
                {
                    "duration": 2,
                    "durationTicks": 1536,
                    "midi": 77,
                    "name": "F5",
                    "ticks": 23808,
                    "time": 31,
                    "velocity": 0.25196850393700787
                },
                {
                    "duration": 2,
                    "durationTicks": 1536,
                    "midi": 74,
                    "name": "D5",
                    "ticks": 23808,
                    "time": 31,
                    "velocity": 0.25196850393700787
                },
                {
                    "duration": 2,
                    "durationTicks": 1536,
                    "midi": 69,
                    "name": "A4",
                    "ticks": 23808,
                    "time": 31,
                    "velocity": 0.25196850393700787
                },
                {
                    "duration": 0.5,
                    "durationTicks": 384,
                    "midi": 86,
                    "name": "D6",
                    "ticks": 24192,
                    "time": 31.5,
                    "velocity": 0.25196850393700787
                },
                {
                    "duration": 0.25,
                    "durationTicks": 192,
                    "midi": 88,
                    "name": "E6",
                    "ticks": 24576,
                    "time": 32,
                    "velocity": 0.25196850393700787
                },
                {
                    "duration": 0.5,
                    "durationTicks": 384,
                    "midi": 88,
                    "name": "E6",
                    "ticks": 24768,
                    "time": 32.25,
                    "velocity": 0.25196850393700787
                },
                {
                    "duration": 0.5,
                    "durationTicks": 384,
                    "midi": 86,
                    "name": "D6",
                    "ticks": 25152,
                    "time": 32.75,
                    "velocity": 0.25196850393700787
                },
                {
                    "duration": 2.25,
                    "durationTicks": 1728,
                    "midi": 83,
                    "name": "B5",
                    "ticks": 25344,
                    "time": 33,
                    "velocity": 0.25196850393700787
                },
                {
                    "duration": 2.25,
                    "durationTicks": 1728,
                    "midi": 77,
                    "name": "F5",
                    "ticks": 25344,
                    "time": 33,
                    "velocity": 0.25196850393700787
                },
                {
                    "duration": 2.25,
                    "durationTicks": 1728,
                    "midi": 74,
                    "name": "D5",
                    "ticks": 25344,
                    "time": 33,
                    "velocity": 0.25196850393700787
                },
                {
                    "duration": 0.25,
                    "durationTicks": 192,
                    "midi": 95,
                    "name": "B6",
                    "ticks": 25536,
                    "time": 33.25,
                    "velocity": 0.25196850393700787
                },
                {
                    "duration": 0.125,
                    "durationTicks": 96,
                    "midi": 95,
                    "name": "B6",
                    "ticks": 25728,
                    "time": 33.5,
                    "velocity": 0.25196850393700787
                },
                {
                    "duration": 0.125,
                    "durationTicks": 96,
                    "midi": 95,
                    "name": "B6",
                    "ticks": 25824,
                    "time": 33.625,
                    "velocity": 0.25196850393700787
                },
                {
                    "duration": 0.25,
                    "durationTicks": 192,
                    "midi": 91,
                    "name": "G6",
                    "ticks": 25920,
                    "time": 33.75,
                    "velocity": 0.25196850393700787
                },
                {
                    "duration": 0.25,
                    "durationTicks": 192,
                    "midi": 79,
                    "name": "G5",
                    "ticks": 26112,
                    "time": 34,
                    "velocity": 0.25196850393700787
                },
                {
                    "duration": 0.25,
                    "durationTicks": 192,
                    "midi": 79,
                    "name": "G5",
                    "ticks": 26304,
                    "time": 34.25,
                    "velocity": 0.25196850393700787
                },
                {
                    "duration": 0.25,
                    "durationTicks": 192,
                    "midi": 81,
                    "name": "A5",
                    "ticks": 26496,
                    "time": 34.5,
                    "velocity": 0.25196850393700787
                },
                {
                    "duration": 0.25,
                    "durationTicks": 192,
                    "midi": 84,
                    "name": "C6",
                    "ticks": 26688,
                    "time": 34.75,
                    "velocity": 0.25196850393700787
                },
                {
                    "duration": 0.25,
                    "durationTicks": 192,
                    "midi": 86,
                    "name": "D6",
                    "ticks": 26880,
                    "time": 35,
                    "velocity": 0.25196850393700787
                },
                {
                    "duration": 0.75,
                    "durationTicks": 576,
                    "midi": 88,
                    "name": "E6",
                    "ticks": 27072,
                    "time": 35.25,
                    "velocity": 0.25196850393700787
                },
                {
                    "duration": 1.5,
                    "durationTicks": 1152,
                    "midi": 79,
                    "name": "G5",
                    "ticks": 27072,
                    "time": 35.25,
                    "velocity": 0.25196850393700787
                },
                {
                    "duration": 1.5,
                    "durationTicks": 1152,
                    "midi": 76,
                    "name": "E5",
                    "ticks": 27072,
                    "time": 35.25,
                    "velocity": 0.25196850393700787
                },
                {
                    "duration": 1.5,
                    "durationTicks": 1152,
                    "midi": 72,
                    "name": "C5",
                    "ticks": 27072,
                    "time": 35.25,
                    "velocity": 0.25196850393700787
                },
                {
                    "duration": 0.75,
                    "durationTicks": 576,
                    "midi": 86,
                    "name": "D6",
                    "ticks": 27648,
                    "time": 36,
                    "velocity": 0.25196850393700787
                },
                {
                    "duration": 0.5,
                    "durationTicks": 384,
                    "midi": 88,
                    "name": "E6",
                    "ticks": 28224,
                    "time": 36.75,
                    "velocity": 0.25196850393700787
                },
                {
                    "duration": 2.75,
                    "durationTicks": 2112,
                    "midi": 76,
                    "name": "E5",
                    "ticks": 28224,
                    "time": 36.75,
                    "velocity": 0.25196850393700787
                },
                {
                    "duration": 2.75,
                    "durationTicks": 2112,
                    "midi": 72,
                    "name": "C5",
                    "ticks": 28224,
                    "time": 36.75,
                    "velocity": 0.25196850393700787
                },
                {
                    "duration": 2.75,
                    "durationTicks": 2112,
                    "midi": 69,
                    "name": "A4",
                    "ticks": 28224,
                    "time": 36.75,
                    "velocity": 0.25196850393700787
                },
                {
                    "duration": 0.25,
                    "durationTicks": 192,
                    "midi": 91,
                    "name": "G6",
                    "ticks": 28608,
                    "time": 37.25,
                    "velocity": 0.25196850393700787
                },
                {
                    "duration": 0.25,
                    "durationTicks": 192,
                    "midi": 91,
                    "name": "G6",
                    "ticks": 28800,
                    "time": 37.5,
                    "velocity": 0.25196850393700787
                },
                {
                    "duration": 0.25,
                    "durationTicks": 192,
                    "midi": 91,
                    "name": "G6",
                    "ticks": 28992,
                    "time": 37.75,
                    "velocity": 0.25196850393700787
                },
                {
                    "duration": 0.25,
                    "durationTicks": 192,
                    "midi": 91,
                    "name": "G6",
                    "ticks": 29184,
                    "time": 38,
                    "velocity": 0.25196850393700787
                },
                {
                    "duration": 0.25,
                    "durationTicks": 192,
                    "midi": 91,
                    "name": "G6",
                    "ticks": 29376,
                    "time": 38.25,
                    "velocity": 0.25196850393700787
                },
                {
                    "duration": 0.25,
                    "durationTicks": 192,
                    "midi": 91,
                    "name": "G6",
                    "ticks": 29568,
                    "time": 38.5,
                    "velocity": 0.25196850393700787
                },
                {
                    "duration": 0.25,
                    "durationTicks": 192,
                    "midi": 91,
                    "name": "G6",
                    "ticks": 29760,
                    "time": 38.75,
                    "velocity": 0.25196850393700787
                },
                {
                    "duration": 0.5,
                    "durationTicks": 384,
                    "midi": 93,
                    "name": "A6",
                    "ticks": 29952,
                    "time": 39,
                    "velocity": 0.25196850393700787
                },
                {
                    "duration": 0.5,
                    "durationTicks": 384,
                    "midi": 84,
                    "name": "C6",
                    "ticks": 29952,
                    "time": 39,
                    "velocity": 0.25196850393700787
                },
                {
                    "duration": 0.5,
                    "durationTicks": 384,
                    "midi": 81,
                    "name": "A5",
                    "ticks": 29952,
                    "time": 39,
                    "velocity": 0.25196850393700787
                },
                {
                    "duration": 0.75,
                    "durationTicks": 576,
                    "midi": 88,
                    "name": "E6",
                    "ticks": 30336,
                    "time": 39.5,
                    "velocity": 0.25196850393700787
                },
                {
                    "duration": 0.75,
                    "durationTicks": 576,
                    "midi": 79,
                    "name": "G5",
                    "ticks": 30336,
                    "time": 39.5,
                    "velocity": 0.25196850393700787
                },
                {
                    "duration": 0.75,
                    "durationTicks": 576,
                    "midi": 76,
                    "name": "E5",
                    "ticks": 30336,
                    "time": 39.5,
                    "velocity": 0.25196850393700787
                },
                {
                    "duration": 1.25,
                    "durationTicks": 960,
                    "midi": 71,
                    "name": "B4",
                    "ticks": 30336,
                    "time": 39.5,
                    "velocity": 0.25196850393700787
                },
                {
                    "duration": 1.25,
                    "durationTicks": 960,
                    "midi": 67,
                    "name": "G4",
                    "ticks": 30336,
                    "time": 39.5,
                    "velocity": 0.25196850393700787
                },
                {
                    "duration": 1.25,
                    "durationTicks": 960,
                    "midi": 64,
                    "name": "E4",
                    "ticks": 30336,
                    "time": 39.5,
                    "velocity": 0.25196850393700787
                },
                {
                    "duration": 0.25,
                    "durationTicks": 192,
                    "midi": 93,
                    "name": "A6",
                    "ticks": 30912,
                    "time": 40.25,
                    "velocity": 0.25196850393700787
                },
                {
                    "duration": 0.25,
                    "durationTicks": 192,
                    "midi": 86,
                    "name": "D6",
                    "ticks": 31104,
                    "time": 40.5,
                    "velocity": 0.25196850393700787
                },
                {
                    "duration": 0.5,
                    "durationTicks": 384,
                    "midi": 88,
                    "name": "E6",
                    "ticks": 31296,
                    "time": 40.75,
                    "velocity": 0.25196850393700787
                },
                {
                    "duration": 2.25,
                    "durationTicks": 1728,
                    "midi": 83,
                    "name": "B5",
                    "ticks": 31296,
                    "time": 40.75,
                    "velocity": 0.25196850393700787
                },
                {
                    "duration": 2.25,
                    "durationTicks": 1728,
                    "midi": 79,
                    "name": "G5",
                    "ticks": 31296,
                    "time": 40.75,
                    "velocity": 0.25196850393700787
                },
                {
                    "duration": 2.25,
                    "durationTicks": 1728,
                    "midi": 76,
                    "name": "E5",
                    "ticks": 31296,
                    "time": 40.75,
                    "velocity": 0.25196850393700787
                },
                {
                    "duration": 0.25,
                    "durationTicks": 192,
                    "midi": 91,
                    "name": "G6",
                    "ticks": 31680,
                    "time": 41.25,
                    "velocity": 0.25196850393700787
                },
                {
                    "duration": 0.25,
                    "durationTicks": 192,
                    "midi": 91,
                    "name": "G6",
                    "ticks": 31872,
                    "time": 41.5,
                    "velocity": 0.25196850393700787
                },
                {
                    "duration": 0.25,
                    "durationTicks": 192,
                    "midi": 91,
                    "name": "G6",
                    "ticks": 32064,
                    "time": 41.75,
                    "velocity": 0.25196850393700787
                },
                {
                    "duration": 0.25,
                    "durationTicks": 192,
                    "midi": 91,
                    "name": "G6",
                    "ticks": 32256,
                    "time": 42,
                    "velocity": 0.25196850393700787
                },
                {
                    "duration": 0.25,
                    "durationTicks": 192,
                    "midi": 91,
                    "name": "G6",
                    "ticks": 32448,
                    "time": 42.25,
                    "velocity": 0.25196850393700787
                },
                {
                    "duration": 0.25,
                    "durationTicks": 192,
                    "midi": 88,
                    "name": "E6",
                    "ticks": 32640,
                    "time": 42.5,
                    "velocity": 0.25196850393700787
                },
                {
                    "duration": 0.25,
                    "durationTicks": 192,
                    "midi": 91,
                    "name": "G6",
                    "ticks": 32832,
                    "time": 42.75,
                    "velocity": 0.25196850393700787
                },
                {
                    "duration": 0.5,
                    "durationTicks": 384,
                    "midi": 93,
                    "name": "A6",
                    "ticks": 33024,
                    "time": 43,
                    "velocity": 0.25196850393700787
                },
                {
                    "duration": 0.5,
                    "durationTicks": 384,
                    "midi": 84,
                    "name": "C6",
                    "ticks": 33024,
                    "time": 43,
                    "velocity": 0.25196850393700787
                },
                {
                    "duration": 0.5,
                    "durationTicks": 384,
                    "midi": 81,
                    "name": "A5",
                    "ticks": 33024,
                    "time": 43,
                    "velocity": 0.25196850393700787
                },
                {
                    "duration": 1.75,
                    "durationTicks": 1344,
                    "midi": 76,
                    "name": "E5",
                    "ticks": 33024,
                    "time": 43,
                    "velocity": 0.25196850393700787
                },
                {
                    "duration": 1.75,
                    "durationTicks": 1344,
                    "midi": 72,
                    "name": "C5",
                    "ticks": 33024,
                    "time": 43,
                    "velocity": 0.25196850393700787
                },
                {
                    "duration": 1.75,
                    "durationTicks": 1344,
                    "midi": 69,
                    "name": "A4",
                    "ticks": 33024,
                    "time": 43,
                    "velocity": 0.25196850393700787
                },
                {
                    "duration": 0.5,
                    "durationTicks": 384,
                    "midi": 88,
                    "name": "E6",
                    "ticks": 33408,
                    "time": 43.5,
                    "velocity": 0.25196850393700787
                },
                {
                    "duration": 0.5,
                    "durationTicks": 384,
                    "midi": 83,
                    "name": "B5",
                    "ticks": 33408,
                    "time": 43.5,
                    "velocity": 0.25196850393700787
                },
                {
                    "duration": 0.5,
                    "durationTicks": 384,
                    "midi": 79,
                    "name": "G5",
                    "ticks": 33408,
                    "time": 43.5,
                    "velocity": 0.25196850393700787
                },
                {
                    "duration": 0.5,
                    "durationTicks": 384,
                    "midi": 86,
                    "name": "D6",
                    "ticks": 33792,
                    "time": 44,
                    "velocity": 0.25196850393700787
                },
                {
                    "duration": 0.25,
                    "durationTicks": 192,
                    "midi": 88,
                    "name": "E6",
                    "ticks": 34176,
                    "time": 44.5,
                    "velocity": 0.25196850393700787
                },
                {
                    "duration": 0.75,
                    "durationTicks": 576,
                    "midi": 88,
                    "name": "E6",
                    "ticks": 34368,
                    "time": 44.75,
                    "velocity": 0.25196850393700787
                },
                {
                    "duration": 0.75,
                    "durationTicks": 576,
                    "midi": 93,
                    "name": "A6",
                    "ticks": 34368,
                    "time": 44.75,
                    "velocity": 0.25196850393700787
                },
                {
                    "duration": 1,
                    "durationTicks": 768,
                    "midi": 84,
                    "name": "C6",
                    "ticks": 34368,
                    "time": 44.75,
                    "velocity": 0.25196850393700787
                },
                {
                    "duration": 2.25,
                    "durationTicks": 1728,
                    "midi": 79,
                    "name": "G5",
                    "ticks": 34368,
                    "time": 44.75,
                    "velocity": 0.25196850393700787
                },
                {
                    "duration": 0.5,
                    "durationTicks": 384,
                    "midi": 88,
                    "name": "E6",
                    "ticks": 34944,
                    "time": 45.5,
                    "velocity": 0.25196850393700787
                },
                {
                    "duration": 0.75,
                    "durationTicks": 576,
                    "midi": 84,
                    "name": "C6",
                    "ticks": 35136,
                    "time": 45.75,
                    "velocity": 0.25196850393700787
                },
                {
                    "duration": 1,
                    "durationTicks": 768,
                    "midi": 88,
                    "name": "E6",
                    "ticks": 35328,
                    "time": 46,
                    "velocity": 0.25196850393700787
                },
                {
                    "duration": 0.25,
                    "durationTicks": 192,
                    "midi": 86,
                    "name": "D6",
                    "ticks": 35520,
                    "time": 46.25,
                    "velocity": 0.25196850393700787
                },
                {
                    "duration": 0.5,
                    "durationTicks": 384,
                    "midi": 84,
                    "name": "C6",
                    "ticks": 35712,
                    "time": 46.5,
                    "velocity": 0.25196850393700787
                },
                {
                    "duration": 0.25,
                    "durationTicks": 192,
                    "midi": 83,
                    "name": "B5",
                    "ticks": 35904,
                    "time": 46.75,
                    "velocity": 0.25196850393700787
                },
                {
                    "duration": 0.5,
                    "durationTicks": 384,
                    "midi": 81,
                    "name": "A5",
                    "ticks": 36096,
                    "time": 47,
                    "velocity": 0.25196850393700787
                },
                {
                    "duration": 1.75,
                    "durationTicks": 1344,
                    "midi": 72,
                    "name": "C5",
                    "ticks": 36096,
                    "time": 47,
                    "velocity": 0.25196850393700787
                },
                {
                    "duration": 1.75,
                    "durationTicks": 1344,
                    "midi": 69,
                    "name": "A4",
                    "ticks": 36096,
                    "time": 47,
                    "velocity": 0.25196850393700787
                },
                {
                    "duration": 1.75,
                    "durationTicks": 1344,
                    "midi": 65,
                    "name": "F4",
                    "ticks": 36096,
                    "time": 47,
                    "velocity": 0.25196850393700787
                },
                {
                    "duration": 0.5,
                    "durationTicks": 384,
                    "midi": 84,
                    "name": "C6",
                    "ticks": 36480,
                    "time": 47.5,
                    "velocity": 0.25196850393700787
                },
                {
                    "duration": 0.5,
                    "durationTicks": 384,
                    "midi": 86,
                    "name": "D6",
                    "ticks": 36864,
                    "time": 48,
                    "velocity": 0.25196850393700787
                },
                {
                    "duration": 0.25,
                    "durationTicks": 192,
                    "midi": 88,
                    "name": "E6",
                    "ticks": 37248,
                    "time": 48.5,
                    "velocity": 0.25196850393700787
                },
                {
                    "duration": 0.5,
                    "durationTicks": 384,
                    "midi": 91,
                    "name": "G6",
                    "ticks": 37440,
                    "time": 48.75,
                    "velocity": 0.25196850393700787
                },
                {
                    "duration": 2.25,
                    "durationTicks": 1728,
                    "midi": 83,
                    "name": "B5",
                    "ticks": 37440,
                    "time": 48.75,
                    "velocity": 0.25196850393700787
                },
                {
                    "duration": 2.25,
                    "durationTicks": 1728,
                    "midi": 77,
                    "name": "F5",
                    "ticks": 37440,
                    "time": 48.75,
                    "velocity": 0.25196850393700787
                },
                {
                    "duration": 2.25,
                    "durationTicks": 1728,
                    "midi": 74,
                    "name": "D5",
                    "ticks": 37440,
                    "time": 48.75,
                    "velocity": 0.25196850393700787
                },
                {
                    "duration": 0.25,
                    "durationTicks": 192,
                    "midi": 88,
                    "name": "E6",
                    "ticks": 37824,
                    "time": 49.25,
                    "velocity": 0.25196850393700787
                },
                {
                    "duration": 0.5,
                    "durationTicks": 384,
                    "midi": 86,
                    "name": "D6",
                    "ticks": 38016,
                    "time": 49.5,
                    "velocity": 0.25196850393700787
                },
                {
                    "duration": 0.5,
                    "durationTicks": 384,
                    "midi": 86,
                    "name": "D6",
                    "ticks": 38400,
                    "time": 50,
                    "velocity": 0.25196850393700787
                },
                {
                    "duration": 0.5,
                    "durationTicks": 384,
                    "midi": 79,
                    "name": "G5",
                    "ticks": 38784,
                    "time": 50.5,
                    "velocity": 0.25196850393700787
                },
                {
                    "duration": 0.5,
                    "durationTicks": 384,
                    "midi": 95,
                    "name": "B6",
                    "ticks": 39168,
                    "time": 51,
                    "velocity": 0.25196850393700787
                },
                {
                    "duration": 0.5,
                    "durationTicks": 384,
                    "midi": 86,
                    "name": "D6",
                    "ticks": 39168,
                    "time": 51,
                    "velocity": 0.25196850393700787
                },
                {
                    "duration": 0.5,
                    "durationTicks": 384,
                    "midi": 83,
                    "name": "B5",
                    "ticks": 39168,
                    "time": 51,
                    "velocity": 0.25196850393700787
                },
                {
                    "duration": 0.75,
                    "durationTicks": 576,
                    "midi": 79,
                    "name": "G5",
                    "ticks": 39168,
                    "time": 51,
                    "velocity": 0.25196850393700787
                },
                {
                    "duration": 1.75,
                    "durationTicks": 1344,
                    "midi": 74,
                    "name": "D5",
                    "ticks": 39168,
                    "time": 51,
                    "velocity": 0.25196850393700787
                },
                {
                    "duration": 1.75,
                    "durationTicks": 1344,
                    "midi": 71,
                    "name": "B4",
                    "ticks": 39168,
                    "time": 51,
                    "velocity": 0.25196850393700787
                },
                {
                    "duration": 0.25,
                    "durationTicks": 192,
                    "midi": 96,
                    "name": "C7",
                    "ticks": 39552,
                    "time": 51.5,
                    "velocity": 0.25196850393700787
                },
                {
                    "duration": 0.25,
                    "durationTicks": 192,
                    "midi": 88,
                    "name": "E6",
                    "ticks": 39552,
                    "time": 51.5,
                    "velocity": 0.25196850393700787
                },
                {
                    "duration": 0.25,
                    "durationTicks": 192,
                    "midi": 84,
                    "name": "C6",
                    "ticks": 39552,
                    "time": 51.5,
                    "velocity": 0.25196850393700787
                },
                {
                    "duration": 0.75,
                    "durationTicks": 576,
                    "midi": 91,
                    "name": "G6",
                    "ticks": 39744,
                    "time": 51.75,
                    "velocity": 0.25196850393700787
                },
                {
                    "duration": 0.75,
                    "durationTicks": 576,
                    "midi": 83,
                    "name": "B5",
                    "ticks": 39744,
                    "time": 51.75,
                    "velocity": 0.25196850393700787
                },
                {
                    "duration": 1,
                    "durationTicks": 768,
                    "midi": 79,
                    "name": "G5",
                    "ticks": 39744,
                    "time": 51.75,
                    "velocity": 0.25196850393700787
                },
                {
                    "duration": 0.25,
                    "durationTicks": 192,
                    "midi": 93,
                    "name": "A6",
                    "ticks": 40320,
                    "time": 52.5,
                    "velocity": 0.25196850393700787
                },
                {
                    "duration": 0.25,
                    "durationTicks": 192,
                    "midi": 84,
                    "name": "C6",
                    "ticks": 40320,
                    "time": 52.5,
                    "velocity": 0.25196850393700787
                },
                {
                    "duration": 0.25,
                    "durationTicks": 192,
                    "midi": 81,
                    "name": "A5",
                    "ticks": 40320,
                    "time": 52.5,
                    "velocity": 0.25196850393700787
                },
                {
                    "duration": 0.5,
                    "durationTicks": 384,
                    "midi": 88,
                    "name": "E6",
                    "ticks": 40512,
                    "time": 52.75,
                    "velocity": 0.25196850393700787
                },
                {
                    "duration": 0.5,
                    "durationTicks": 384,
                    "midi": 79,
                    "name": "G5",
                    "ticks": 40512,
                    "time": 52.75,
                    "velocity": 0.25196850393700787
                },
                {
                    "duration": 0.5,
                    "durationTicks": 384,
                    "midi": 76,
                    "name": "E5",
                    "ticks": 40512,
                    "time": 52.75,
                    "velocity": 0.25196850393700787
                },
                {
                    "duration": 1.75,
                    "durationTicks": 1344,
                    "midi": 71,
                    "name": "B4",
                    "ticks": 40512,
                    "time": 52.75,
                    "velocity": 0.25196850393700787
                },
                {
                    "duration": 1.75,
                    "durationTicks": 1344,
                    "midi": 67,
                    "name": "G4",
                    "ticks": 40512,
                    "time": 52.75,
                    "velocity": 0.25196850393700787
                },
                {
                    "duration": 1.75,
                    "durationTicks": 1344,
                    "midi": 64,
                    "name": "E4",
                    "ticks": 40512,
                    "time": 52.75,
                    "velocity": 0.25196850393700787
                },
                {
                    "duration": 0.5,
                    "durationTicks": 384,
                    "midi": 86,
                    "name": "D6",
                    "ticks": 40896,
                    "time": 53.25,
                    "velocity": 0.25196850393700787
                },
                {
                    "duration": 0.5,
                    "durationTicks": 384,
                    "midi": 86,
                    "name": "D6",
                    "ticks": 41280,
                    "time": 53.75,
                    "velocity": 0.25196850393700787
                },
                {
                    "duration": 1.75,
                    "durationTicks": 1344,
                    "midi": 86,
                    "name": "D6",
                    "ticks": 41664,
                    "time": 54.25,
                    "velocity": 0.25196850393700787
                },
                {
                    "duration": 0.25,
                    "durationTicks": 192,
                    "midi": 84,
                    "name": "C6",
                    "ticks": 41856,
                    "time": 54.5,
                    "velocity": 0.25196850393700787
                },
                {
                    "duration": 0.25,
                    "durationTicks": 192,
                    "midi": 91,
                    "name": "G6",
                    "ticks": 42048,
                    "time": 54.75,
                    "velocity": 0.25196850393700787
                },
                {
                    "duration": 0.25,
                    "durationTicks": 192,
                    "midi": 84,
                    "name": "C6",
                    "ticks": 42240,
                    "time": 55,
                    "velocity": 0.25196850393700787
                },
                {
                    "duration": 0.75,
                    "durationTicks": 576,
                    "midi": 81,
                    "name": "A5",
                    "ticks": 42432,
                    "time": 55.25,
                    "velocity": 0.25196850393700787
                },
                {
                    "duration": 1.75,
                    "durationTicks": 1344,
                    "midi": 84,
                    "name": "C6",
                    "ticks": 42432,
                    "time": 55.25,
                    "velocity": 0.25196850393700787
                },
                {
                    "duration": 1,
                    "durationTicks": 768,
                    "midi": 81,
                    "name": "A5",
                    "ticks": 43008,
                    "time": 56,
                    "velocity": 0.25196850393700787
                },
                {
                    "duration": 0.25,
                    "durationTicks": 192,
                    "midi": 89,
                    "name": "F6",
                    "ticks": 43200,
                    "time": 56.25,
                    "velocity": 0.25196850393700787
                },
                {
                    "duration": 0.25,
                    "durationTicks": 192,
                    "midi": 88,
                    "name": "E6",
                    "ticks": 43392,
                    "time": 56.5,
                    "velocity": 0.25196850393700787
                },
                {
                    "duration": 0.25,
                    "durationTicks": 192,
                    "midi": 86,
                    "name": "D6",
                    "ticks": 43584,
                    "time": 56.75,
                    "velocity": 0.25196850393700787
                },
                {
                    "duration": 0.5,
                    "durationTicks": 384,
                    "midi": 79,
                    "name": "G5",
                    "ticks": 43776,
                    "time": 57,
                    "velocity": 0.25196850393700787
                },
                {
                    "duration": 0.5,
                    "durationTicks": 384,
                    "midi": 83,
                    "name": "B5",
                    "ticks": 43776,
                    "time": 57,
                    "velocity": 0.25196850393700787
                },
                {
                    "duration": 1.5,
                    "durationTicks": 1152,
                    "midi": 79,
                    "name": "G5",
                    "ticks": 44160,
                    "time": 57.5,
                    "velocity": 0.25196850393700787
                },
                {
                    "duration": 0.5,
                    "durationTicks": 384,
                    "midi": 83,
                    "name": "B5",
                    "ticks": 44544,
                    "time": 58,
                    "velocity": 0.25196850393700787
                },
                {
                    "duration": 0.5,
                    "durationTicks": 384,
                    "midi": 86,
                    "name": "D6",
                    "ticks": 44928,
                    "time": 58.5,
                    "velocity": 0.25196850393700787
                },
                {
                    "duration": 1,
                    "durationTicks": 768,
                    "midi": 88,
                    "name": "E6",
                    "ticks": 45312,
                    "time": 59,
                    "velocity": 0.25196850393700787
                },
                {
                    "duration": 1.75,
                    "durationTicks": 1344,
                    "midi": 84,
                    "name": "C6",
                    "ticks": 45312,
                    "time": 59,
                    "velocity": 0.25196850393700787
                },
                {
                    "duration": 0.25,
                    "durationTicks": 192,
                    "midi": 79,
                    "name": "G5",
                    "ticks": 46080,
                    "time": 60,
                    "velocity": 0.25196850393700787
                },
                {
                    "duration": 0.25,
                    "durationTicks": 192,
                    "midi": 88,
                    "name": "E6",
                    "ticks": 46272,
                    "time": 60.25,
                    "velocity": 0.25196850393700787
                },
                {
                    "duration": 0.25,
                    "durationTicks": 192,
                    "midi": 86,
                    "name": "D6",
                    "ticks": 46464,
                    "time": 60.5,
                    "velocity": 0.25196850393700787
                },
                {
                    "duration": 0.25,
                    "durationTicks": 192,
                    "midi": 84,
                    "name": "C6",
                    "ticks": 46656,
                    "time": 60.75,
                    "velocity": 0.25196850393700787
                },
                {
                    "duration": 0.5,
                    "durationTicks": 384,
                    "midi": 79,
                    "name": "G5",
                    "ticks": 46848,
                    "time": 61,
                    "velocity": 0.25196850393700787
                },
                {
                    "duration": 0.5,
                    "durationTicks": 384,
                    "midi": 83,
                    "name": "B5",
                    "ticks": 46848,
                    "time": 61,
                    "velocity": 0.25196850393700787
                },
                {
                    "duration": 1,
                    "durationTicks": 768,
                    "midi": 79,
                    "name": "G5",
                    "ticks": 47232,
                    "time": 61.5,
                    "velocity": 0.25196850393700787
                },
                {
                    "duration": 0.5,
                    "durationTicks": 384,
                    "midi": 81,
                    "name": "A5",
                    "ticks": 47616,
                    "time": 62,
                    "velocity": 0.25196850393700787
                },
                {
                    "duration": 0.75,
                    "durationTicks": 576,
                    "midi": 79,
                    "name": "G5",
                    "ticks": 48000,
                    "time": 62.5,
                    "velocity": 0.25196850393700787
                },
                {
                    "duration": 0.25,
                    "durationTicks": 192,
                    "midi": 77,
                    "name": "F5",
                    "ticks": 48384,
                    "time": 63,
                    "velocity": 0.25196850393700787
                },
                {
                    "duration": 0.125,
                    "durationTicks": 96,
                    "midi": 88,
                    "name": "E6",
                    "ticks": 48576,
                    "time": 63.25,
                    "velocity": 0.25196850393700787
                },
                {
                    "duration": 0.375,
                    "durationTicks": 288,
                    "midi": 84,
                    "name": "C6",
                    "ticks": 48576,
                    "time": 63.25,
                    "velocity": 0.25196850393700787
                },
                {
                    "duration": 1.75,
                    "durationTicks": 1344,
                    "midi": 81,
                    "name": "A5",
                    "ticks": 48576,
                    "time": 63.25,
                    "velocity": 0.25196850393700787
                },
                {
                    "duration": 0.125,
                    "durationTicks": 96,
                    "midi": 86,
                    "name": "D6",
                    "ticks": 48720,
                    "time": 63.4375,
                    "velocity": 0.25196850393700787
                },
                {
                    "duration": 0.625,
                    "durationTicks": 480,
                    "midi": 84,
                    "name": "C6",
                    "ticks": 48864,
                    "time": 63.625,
                    "velocity": 0.25196850393700787
                },
                {
                    "duration": 0.125,
                    "durationTicks": 96,
                    "midi": 88,
                    "name": "E6",
                    "ticks": 49008,
                    "time": 63.8125,
                    "velocity": 0.25196850393700787
                },
                {
                    "duration": 0.125,
                    "durationTicks": 96,
                    "midi": 86,
                    "name": "D6",
                    "ticks": 49152,
                    "time": 64,
                    "velocity": 0.25196850393700787
                },
                {
                    "duration": 0.75,
                    "durationTicks": 576,
                    "midi": 84,
                    "name": "C6",
                    "ticks": 49296,
                    "time": 64.1875,
                    "velocity": 0.25196850393700787
                },
                {
                    "duration": 0.625,
                    "durationTicks": 480,
                    "midi": 88,
                    "name": "E6",
                    "ticks": 49440,
                    "time": 64.375,
                    "velocity": 0.25196850393700787
                },
                {
                    "duration": 0.125,
                    "durationTicks": 96,
                    "midi": 88,
                    "name": "E6",
                    "ticks": 49920,
                    "time": 65,
                    "velocity": 0.25196850393700787
                },
                {
                    "duration": 1.625,
                    "durationTicks": 1248,
                    "midi": 79,
                    "name": "G5",
                    "ticks": 49920,
                    "time": 65,
                    "velocity": 0.25196850393700787
                },
                {
                    "duration": 2,
                    "durationTicks": 1536,
                    "midi": 83,
                    "name": "B5",
                    "ticks": 49920,
                    "time": 65,
                    "velocity": 0.25196850393700787
                },
                {
                    "duration": 0.125,
                    "durationTicks": 96,
                    "midi": 86,
                    "name": "D6",
                    "ticks": 50064,
                    "time": 65.1875,
                    "velocity": 0.25196850393700787
                },
                {
                    "duration": 0.125,
                    "durationTicks": 96,
                    "midi": 84,
                    "name": "C6",
                    "ticks": 50208,
                    "time": 65.375,
                    "velocity": 0.25196850393700787
                },
                {
                    "duration": 0.125,
                    "durationTicks": 96,
                    "midi": 88,
                    "name": "E6",
                    "ticks": 50352,
                    "time": 65.5625,
                    "velocity": 0.25196850393700787
                },
                {
                    "duration": 0.125,
                    "durationTicks": 96,
                    "midi": 86,
                    "name": "D6",
                    "ticks": 50496,
                    "time": 65.75,
                    "velocity": 0.25196850393700787
                },
                {
                    "duration": 0.125,
                    "durationTicks": 96,
                    "midi": 84,
                    "name": "C6",
                    "ticks": 50640,
                    "time": 65.9375,
                    "velocity": 0.25196850393700787
                },
                {
                    "duration": 0.5,
                    "durationTicks": 384,
                    "midi": 86,
                    "name": "D6",
                    "ticks": 50784,
                    "time": 66.125,
                    "velocity": 0.25196850393700787
                },
                {
                    "duration": 0.375,
                    "durationTicks": 288,
                    "midi": 79,
                    "name": "G5",
                    "ticks": 51168,
                    "time": 66.625,
                    "velocity": 0.25196850393700787
                },
                {
                    "duration": 0.125,
                    "durationTicks": 96,
                    "midi": 88,
                    "name": "E6",
                    "ticks": 51456,
                    "time": 67,
                    "velocity": 0.25196850393700787
                },
                {
                    "duration": 1.625,
                    "durationTicks": 1248,
                    "midi": 79,
                    "name": "G5",
                    "ticks": 51456,
                    "time": 67,
                    "velocity": 0.25196850393700787
                },
                {
                    "duration": 1.625,
                    "durationTicks": 1248,
                    "midi": 76,
                    "name": "E5",
                    "ticks": 51456,
                    "time": 67,
                    "velocity": 0.25196850393700787
                },
                {
                    "duration": 0.125,
                    "durationTicks": 96,
                    "midi": 86,
                    "name": "D6",
                    "ticks": 51600,
                    "time": 67.1875,
                    "velocity": 0.25196850393700787
                },
                {
                    "duration": 0.125,
                    "durationTicks": 96,
                    "midi": 84,
                    "name": "C6",
                    "ticks": 51744,
                    "time": 67.375,
                    "velocity": 0.25196850393700787
                },
                {
                    "duration": 0.125,
                    "durationTicks": 96,
                    "midi": 88,
                    "name": "E6",
                    "ticks": 51888,
                    "time": 67.5625,
                    "velocity": 0.25196850393700787
                },
                {
                    "duration": 0.125,
                    "durationTicks": 96,
                    "midi": 86,
                    "name": "D6",
                    "ticks": 52032,
                    "time": 67.75,
                    "velocity": 0.25196850393700787
                },
                {
                    "duration": 0.125,
                    "durationTicks": 96,
                    "midi": 84,
                    "name": "C6",
                    "ticks": 52176,
                    "time": 67.9375,
                    "velocity": 0.25196850393700787
                },
                {
                    "duration": 0.5,
                    "durationTicks": 384,
                    "midi": 91,
                    "name": "G6",
                    "ticks": 52320,
                    "time": 68.125,
                    "velocity": 0.25196850393700787
                },
                {
                    "duration": 1.375,
                    "durationTicks": 1056,
                    "midi": 79,
                    "name": "G5",
                    "ticks": 52704,
                    "time": 68.625,
                    "velocity": 0.25196850393700787
                },
                {
                    "duration": 1.375,
                    "durationTicks": 1056,
                    "midi": 88,
                    "name": "E6",
                    "ticks": 52704,
                    "time": 68.625,
                    "velocity": 0.25196850393700787
                },
                {
                    "duration": 2.625,
                    "durationTicks": 2016,
                    "midi": 84,
                    "name": "C6",
                    "ticks": 52704,
                    "time": 68.625,
                    "velocity": 0.25196850393700787
                },
                {
                    "duration": 1.25,
                    "durationTicks": 960,
                    "midi": 79,
                    "name": "G5",
                    "ticks": 53760,
                    "time": 70,
                    "velocity": 0.25196850393700787
                },
                {
                    "duration": 0.25,
                    "durationTicks": 192,
                    "midi": 88,
                    "name": "E6",
                    "ticks": 53952,
                    "time": 70.25,
                    "velocity": 0.25196850393700787
                },
                {
                    "duration": 0.25,
                    "durationTicks": 192,
                    "midi": 88,
                    "name": "E6",
                    "ticks": 54144,
                    "time": 70.5,
                    "velocity": 0.25196850393700787
                },
                {
                    "duration": 0.25,
                    "durationTicks": 192,
                    "midi": 88,
                    "name": "E6",
                    "ticks": 54336,
                    "time": 70.75,
                    "velocity": 0.25196850393700787
                },
                {
                    "duration": 0.25,
                    "durationTicks": 192,
                    "midi": 89,
                    "name": "F6",
                    "ticks": 54528,
                    "time": 71,
                    "velocity": 0.25196850393700787
                },
                {
                    "duration": 0.5,
                    "durationTicks": 384,
                    "midi": 91,
                    "name": "G6",
                    "ticks": 54720,
                    "time": 71.25,
                    "velocity": 0.25196850393700787
                },
                {
                    "duration": 1.75,
                    "durationTicks": 1344,
                    "midi": 77,
                    "name": "F5",
                    "ticks": 54720,
                    "time": 71.25,
                    "velocity": 0.25196850393700787
                },
                {
                    "duration": 1.75,
                    "durationTicks": 1344,
                    "midi": 74,
                    "name": "D5",
                    "ticks": 54720,
                    "time": 71.25,
                    "velocity": 0.25196850393700787
                },
                {
                    "duration": 0.25,
                    "durationTicks": 192,
                    "midi": 88,
                    "name": "E6",
                    "ticks": 55104,
                    "time": 71.75,
                    "velocity": 0.25196850393700787
                },
                {
                    "duration": 0.5,
                    "durationTicks": 384,
                    "midi": 91,
                    "name": "G6",
                    "ticks": 55296,
                    "time": 72,
                    "velocity": 0.25196850393700787
                },
                {
                    "duration": 0.25,
                    "durationTicks": 192,
                    "midi": 88,
                    "name": "E6",
                    "ticks": 55680,
                    "time": 72.5,
                    "velocity": 0.25196850393700787
                },
                {
                    "duration": 0.25,
                    "durationTicks": 192,
                    "midi": 88,
                    "name": "E6",
                    "ticks": 55872,
                    "time": 72.75,
                    "velocity": 0.25196850393700787
                },
                {
                    "duration": 0.25,
                    "durationTicks": 192,
                    "midi": 89,
                    "name": "F6",
                    "ticks": 56064,
                    "time": 73,
                    "velocity": 0.25196850393700787
                },
                {
                    "duration": 2.25,
                    "durationTicks": 1728,
                    "midi": 83,
                    "name": "B5",
                    "ticks": 56064,
                    "time": 73,
                    "velocity": 0.25196850393700787
                },
                {
                    "duration": 2.25,
                    "durationTicks": 1728,
                    "midi": 77,
                    "name": "F5",
                    "ticks": 56064,
                    "time": 73,
                    "velocity": 0.25196850393700787
                },
                {
                    "duration": 2.25,
                    "durationTicks": 1728,
                    "midi": 74,
                    "name": "D5",
                    "ticks": 56064,
                    "time": 73,
                    "velocity": 0.25196850393700787
                },
                {
                    "duration": 0.25,
                    "durationTicks": 192,
                    "midi": 91,
                    "name": "G6",
                    "ticks": 56256,
                    "time": 73.25,
                    "velocity": 0.25196850393700787
                },
                {
                    "duration": 0.25,
                    "durationTicks": 192,
                    "midi": 91,
                    "name": "G6",
                    "ticks": 56448,
                    "time": 73.5,
                    "velocity": 0.25196850393700787
                },
                {
                    "duration": 0.25,
                    "durationTicks": 192,
                    "midi": 89,
                    "name": "F6",
                    "ticks": 56640,
                    "time": 73.75,
                    "velocity": 0.25196850393700787
                },
                {
                    "duration": 0.25,
                    "durationTicks": 192,
                    "midi": 89,
                    "name": "F6",
                    "ticks": 56832,
                    "time": 74,
                    "velocity": 0.25196850393700787
                },
                {
                    "duration": 0.25,
                    "durationTicks": 192,
                    "midi": 88,
                    "name": "E6",
                    "ticks": 57024,
                    "time": 74.25,
                    "velocity": 0.25196850393700787
                },
                {
                    "duration": 0.25,
                    "durationTicks": 192,
                    "midi": 88,
                    "name": "E6",
                    "ticks": 57216,
                    "time": 74.5,
                    "velocity": 0.25196850393700787
                },
                {
                    "duration": 0.25,
                    "durationTicks": 192,
                    "midi": 88,
                    "name": "E6",
                    "ticks": 57408,
                    "time": 74.75,
                    "velocity": 0.25196850393700787
                },
                {
                    "duration": 0.25,
                    "durationTicks": 192,
                    "midi": 89,
                    "name": "F6",
                    "ticks": 57600,
                    "time": 75,
                    "velocity": 0.25196850393700787
                },
                {
                    "duration": 0.5,
                    "durationTicks": 384,
                    "midi": 91,
                    "name": "G6",
                    "ticks": 57792,
                    "time": 75.25,
                    "velocity": 0.25196850393700787
                },
                {
                    "duration": 1.75,
                    "durationTicks": 1344,
                    "midi": 79,
                    "name": "G5",
                    "ticks": 57792,
                    "time": 75.25,
                    "velocity": 0.25196850393700787
                },
                {
                    "duration": 1.75,
                    "durationTicks": 1344,
                    "midi": 76,
                    "name": "E5",
                    "ticks": 57792,
                    "time": 75.25,
                    "velocity": 0.25196850393700787
                },
                {
                    "duration": 1.75,
                    "durationTicks": 1344,
                    "midi": 72,
                    "name": "C5",
                    "ticks": 57792,
                    "time": 75.25,
                    "velocity": 0.25196850393700787
                },
                {
                    "duration": 0.25,
                    "durationTicks": 192,
                    "midi": 88,
                    "name": "E6",
                    "ticks": 58176,
                    "time": 75.75,
                    "velocity": 0.25196850393700787
                },
                {
                    "duration": 0.5,
                    "durationTicks": 384,
                    "midi": 91,
                    "name": "G6",
                    "ticks": 58368,
                    "time": 76,
                    "velocity": 0.25196850393700787
                },
                {
                    "duration": 0.25,
                    "durationTicks": 192,
                    "midi": 88,
                    "name": "E6",
                    "ticks": 58752,
                    "time": 76.5,
                    "velocity": 0.25196850393700787
                },
                {
                    "duration": 0.25,
                    "durationTicks": 192,
                    "midi": 88,
                    "name": "E6",
                    "ticks": 58944,
                    "time": 76.75,
                    "velocity": 0.25196850393700787
                },
                {
                    "duration": 0.25,
                    "durationTicks": 192,
                    "midi": 89,
                    "name": "F6",
                    "ticks": 59136,
                    "time": 77,
                    "velocity": 0.25196850393700787
                },
                {
                    "duration": 2,
                    "durationTicks": 1536,
                    "midi": 84,
                    "name": "C6",
                    "ticks": 59136,
                    "time": 77,
                    "velocity": 0.25196850393700787
                },
                {
                    "duration": 2,
                    "durationTicks": 1536,
                    "midi": 81,
                    "name": "A5",
                    "ticks": 59136,
                    "time": 77,
                    "velocity": 0.25196850393700787
                },
                {
                    "duration": 2,
                    "durationTicks": 1536,
                    "midi": 72,
                    "name": "C5",
                    "ticks": 59136,
                    "time": 77,
                    "velocity": 0.25196850393700787
                },
                {
                    "duration": 0.25,
                    "durationTicks": 192,
                    "midi": 91,
                    "name": "G6",
                    "ticks": 59328,
                    "time": 77.25,
                    "velocity": 0.25196850393700787
                },
                {
                    "duration": 0.25,
                    "durationTicks": 192,
                    "midi": 91,
                    "name": "G6",
                    "ticks": 59520,
                    "time": 77.5,
                    "velocity": 0.25196850393700787
                },
                {
                    "duration": 0.25,
                    "durationTicks": 192,
                    "midi": 88,
                    "name": "E6",
                    "ticks": 59712,
                    "time": 77.75,
                    "velocity": 0.25196850393700787
                },
                {
                    "duration": 0.25,
                    "durationTicks": 192,
                    "midi": 88,
                    "name": "E6",
                    "ticks": 59904,
                    "time": 78,
                    "velocity": 0.25196850393700787
                },
                {
                    "duration": 0.75,
                    "durationTicks": 576,
                    "midi": 86,
                    "name": "D6",
                    "ticks": 60096,
                    "time": 78.25,
                    "velocity": 0.25196850393700787
                },
                {
                    "duration": 0.5,
                    "durationTicks": 384,
                    "midi": 88,
                    "name": "E6",
                    "ticks": 60672,
                    "time": 79,
                    "velocity": 0.25196850393700787
                },
                {
                    "duration": 2,
                    "durationTicks": 1536,
                    "midi": 77,
                    "name": "F5",
                    "ticks": 60672,
                    "time": 79,
                    "velocity": 0.25196850393700787
                },
                {
                    "duration": 2,
                    "durationTicks": 1536,
                    "midi": 74,
                    "name": "D5",
                    "ticks": 60672,
                    "time": 79,
                    "velocity": 0.25196850393700787
                },
                {
                    "duration": 2,
                    "durationTicks": 1536,
                    "midi": 69,
                    "name": "A4",
                    "ticks": 60672,
                    "time": 79,
                    "velocity": 0.25196850393700787
                },
                {
                    "duration": 0.5,
                    "durationTicks": 384,
                    "midi": 86,
                    "name": "D6",
                    "ticks": 61056,
                    "time": 79.5,
                    "velocity": 0.25196850393700787
                },
                {
                    "duration": 0.25,
                    "durationTicks": 192,
                    "midi": 88,
                    "name": "E6",
                    "ticks": 61440,
                    "time": 80,
                    "velocity": 0.25196850393700787
                },
                {
                    "duration": 0.5,
                    "durationTicks": 384,
                    "midi": 88,
                    "name": "E6",
                    "ticks": 61632,
                    "time": 80.25,
                    "velocity": 0.25196850393700787
                },
                {
                    "duration": 0.5,
                    "durationTicks": 384,
                    "midi": 86,
                    "name": "D6",
                    "ticks": 62016,
                    "time": 80.75,
                    "velocity": 0.25196850393700787
                },
                {
                    "duration": 2.25,
                    "durationTicks": 1728,
                    "midi": 83,
                    "name": "B5",
                    "ticks": 62208,
                    "time": 81,
                    "velocity": 0.25196850393700787
                },
                {
                    "duration": 2.25,
                    "durationTicks": 1728,
                    "midi": 77,
                    "name": "F5",
                    "ticks": 62208,
                    "time": 81,
                    "velocity": 0.25196850393700787
                },
                {
                    "duration": 2.25,
                    "durationTicks": 1728,
                    "midi": 74,
                    "name": "D5",
                    "ticks": 62208,
                    "time": 81,
                    "velocity": 0.25196850393700787
                },
                {
                    "duration": 0.25,
                    "durationTicks": 192,
                    "midi": 95,
                    "name": "B6",
                    "ticks": 62400,
                    "time": 81.25,
                    "velocity": 0.25196850393700787
                },
                {
                    "duration": 0.125,
                    "durationTicks": 96,
                    "midi": 95,
                    "name": "B6",
                    "ticks": 62592,
                    "time": 81.5,
                    "velocity": 0.25196850393700787
                },
                {
                    "duration": 0.125,
                    "durationTicks": 96,
                    "midi": 95,
                    "name": "B6",
                    "ticks": 62688,
                    "time": 81.625,
                    "velocity": 0.25196850393700787
                },
                {
                    "duration": 0.25,
                    "durationTicks": 192,
                    "midi": 91,
                    "name": "G6",
                    "ticks": 62784,
                    "time": 81.75,
                    "velocity": 0.25196850393700787
                },
                {
                    "duration": 0.25,
                    "durationTicks": 192,
                    "midi": 79,
                    "name": "G5",
                    "ticks": 62976,
                    "time": 82,
                    "velocity": 0.25196850393700787
                },
                {
                    "duration": 0.25,
                    "durationTicks": 192,
                    "midi": 79,
                    "name": "G5",
                    "ticks": 63168,
                    "time": 82.25,
                    "velocity": 0.25196850393700787
                },
                {
                    "duration": 0.25,
                    "durationTicks": 192,
                    "midi": 81,
                    "name": "A5",
                    "ticks": 63360,
                    "time": 82.5,
                    "velocity": 0.25196850393700787
                },
                {
                    "duration": 0.25,
                    "durationTicks": 192,
                    "midi": 84,
                    "name": "C6",
                    "ticks": 63552,
                    "time": 82.75,
                    "velocity": 0.25196850393700787
                },
                {
                    "duration": 0.25,
                    "durationTicks": 192,
                    "midi": 86,
                    "name": "D6",
                    "ticks": 63744,
                    "time": 83,
                    "velocity": 0.25196850393700787
                },
                {
                    "duration": 0.75,
                    "durationTicks": 576,
                    "midi": 88,
                    "name": "E6",
                    "ticks": 63936,
                    "time": 83.25,
                    "velocity": 0.25196850393700787
                },
                {
                    "duration": 1.5,
                    "durationTicks": 1152,
                    "midi": 79,
                    "name": "G5",
                    "ticks": 63936,
                    "time": 83.25,
                    "velocity": 0.25196850393700787
                },
                {
                    "duration": 1.5,
                    "durationTicks": 1152,
                    "midi": 76,
                    "name": "E5",
                    "ticks": 63936,
                    "time": 83.25,
                    "velocity": 0.25196850393700787
                },
                {
                    "duration": 1.5,
                    "durationTicks": 1152,
                    "midi": 72,
                    "name": "C5",
                    "ticks": 63936,
                    "time": 83.25,
                    "velocity": 0.25196850393700787
                },
                {
                    "duration": 0.75,
                    "durationTicks": 576,
                    "midi": 86,
                    "name": "D6",
                    "ticks": 64512,
                    "time": 84,
                    "velocity": 0.25196850393700787
                },
                {
                    "duration": 0.5,
                    "durationTicks": 384,
                    "midi": 88,
                    "name": "E6",
                    "ticks": 65088,
                    "time": 84.75,
                    "velocity": 0.25196850393700787
                },
                {
                    "duration": 2.75,
                    "durationTicks": 2112,
                    "midi": 76,
                    "name": "E5",
                    "ticks": 65088,
                    "time": 84.75,
                    "velocity": 0.25196850393700787
                },
                {
                    "duration": 2.75,
                    "durationTicks": 2112,
                    "midi": 72,
                    "name": "C5",
                    "ticks": 65088,
                    "time": 84.75,
                    "velocity": 0.25196850393700787
                },
                {
                    "duration": 2.75,
                    "durationTicks": 2112,
                    "midi": 69,
                    "name": "A4",
                    "ticks": 65088,
                    "time": 84.75,
                    "velocity": 0.25196850393700787
                },
                {
                    "duration": 0.25,
                    "durationTicks": 192,
                    "midi": 91,
                    "name": "G6",
                    "ticks": 65472,
                    "time": 85.25,
                    "velocity": 0.25196850393700787
                },
                {
                    "duration": 0.25,
                    "durationTicks": 192,
                    "midi": 91,
                    "name": "G6",
                    "ticks": 65664,
                    "time": 85.5,
                    "velocity": 0.25196850393700787
                },
                {
                    "duration": 0.25,
                    "durationTicks": 192,
                    "midi": 91,
                    "name": "G6",
                    "ticks": 65856,
                    "time": 85.75,
                    "velocity": 0.25196850393700787
                },
                {
                    "duration": 0.25,
                    "durationTicks": 192,
                    "midi": 91,
                    "name": "G6",
                    "ticks": 66048,
                    "time": 86,
                    "velocity": 0.25196850393700787
                },
                {
                    "duration": 0.25,
                    "durationTicks": 192,
                    "midi": 91,
                    "name": "G6",
                    "ticks": 66240,
                    "time": 86.25,
                    "velocity": 0.25196850393700787
                },
                {
                    "duration": 0.25,
                    "durationTicks": 192,
                    "midi": 91,
                    "name": "G6",
                    "ticks": 66432,
                    "time": 86.5,
                    "velocity": 0.25196850393700787
                },
                {
                    "duration": 0.25,
                    "durationTicks": 192,
                    "midi": 91,
                    "name": "G6",
                    "ticks": 66624,
                    "time": 86.75,
                    "velocity": 0.25196850393700787
                },
                {
                    "duration": 0.5,
                    "durationTicks": 384,
                    "midi": 93,
                    "name": "A6",
                    "ticks": 66816,
                    "time": 87,
                    "velocity": 0.25196850393700787
                },
                {
                    "duration": 0.5,
                    "durationTicks": 384,
                    "midi": 84,
                    "name": "C6",
                    "ticks": 66816,
                    "time": 87,
                    "velocity": 0.25196850393700787
                },
                {
                    "duration": 0.5,
                    "durationTicks": 384,
                    "midi": 81,
                    "name": "A5",
                    "ticks": 66816,
                    "time": 87,
                    "velocity": 0.25196850393700787
                },
                {
                    "duration": 0.75,
                    "durationTicks": 576,
                    "midi": 88,
                    "name": "E6",
                    "ticks": 67200,
                    "time": 87.5,
                    "velocity": 0.25196850393700787
                },
                {
                    "duration": 0.75,
                    "durationTicks": 576,
                    "midi": 79,
                    "name": "G5",
                    "ticks": 67200,
                    "time": 87.5,
                    "velocity": 0.25196850393700787
                },
                {
                    "duration": 0.75,
                    "durationTicks": 576,
                    "midi": 76,
                    "name": "E5",
                    "ticks": 67200,
                    "time": 87.5,
                    "velocity": 0.25196850393700787
                },
                {
                    "duration": 1.25,
                    "durationTicks": 960,
                    "midi": 71,
                    "name": "B4",
                    "ticks": 67200,
                    "time": 87.5,
                    "velocity": 0.25196850393700787
                },
                {
                    "duration": 1.25,
                    "durationTicks": 960,
                    "midi": 67,
                    "name": "G4",
                    "ticks": 67200,
                    "time": 87.5,
                    "velocity": 0.25196850393700787
                },
                {
                    "duration": 1.25,
                    "durationTicks": 960,
                    "midi": 64,
                    "name": "E4",
                    "ticks": 67200,
                    "time": 87.5,
                    "velocity": 0.25196850393700787
                },
                {
                    "duration": 0.25,
                    "durationTicks": 192,
                    "midi": 93,
                    "name": "A6",
                    "ticks": 67776,
                    "time": 88.25,
                    "velocity": 0.25196850393700787
                },
                {
                    "duration": 0.25,
                    "durationTicks": 192,
                    "midi": 86,
                    "name": "D6",
                    "ticks": 67968,
                    "time": 88.5,
                    "velocity": 0.25196850393700787
                },
                {
                    "duration": 0.5,
                    "durationTicks": 384,
                    "midi": 88,
                    "name": "E6",
                    "ticks": 68160,
                    "time": 88.75,
                    "velocity": 0.25196850393700787
                },
                {
                    "duration": 2.25,
                    "durationTicks": 1728,
                    "midi": 83,
                    "name": "B5",
                    "ticks": 68160,
                    "time": 88.75,
                    "velocity": 0.25196850393700787
                },
                {
                    "duration": 2.25,
                    "durationTicks": 1728,
                    "midi": 79,
                    "name": "G5",
                    "ticks": 68160,
                    "time": 88.75,
                    "velocity": 0.25196850393700787
                },
                {
                    "duration": 2.25,
                    "durationTicks": 1728,
                    "midi": 76,
                    "name": "E5",
                    "ticks": 68160,
                    "time": 88.75,
                    "velocity": 0.25196850393700787
                },
                {
                    "duration": 0.25,
                    "durationTicks": 192,
                    "midi": 91,
                    "name": "G6",
                    "ticks": 68544,
                    "time": 89.25,
                    "velocity": 0.25196850393700787
                },
                {
                    "duration": 0.25,
                    "durationTicks": 192,
                    "midi": 91,
                    "name": "G6",
                    "ticks": 68736,
                    "time": 89.5,
                    "velocity": 0.25196850393700787
                },
                {
                    "duration": 0.25,
                    "durationTicks": 192,
                    "midi": 91,
                    "name": "G6",
                    "ticks": 68928,
                    "time": 89.75,
                    "velocity": 0.25196850393700787
                },
                {
                    "duration": 0.25,
                    "durationTicks": 192,
                    "midi": 91,
                    "name": "G6",
                    "ticks": 69120,
                    "time": 90,
                    "velocity": 0.25196850393700787
                },
                {
                    "duration": 0.25,
                    "durationTicks": 192,
                    "midi": 91,
                    "name": "G6",
                    "ticks": 69312,
                    "time": 90.25,
                    "velocity": 0.25196850393700787
                },
                {
                    "duration": 0.25,
                    "durationTicks": 192,
                    "midi": 88,
                    "name": "E6",
                    "ticks": 69504,
                    "time": 90.5,
                    "velocity": 0.25196850393700787
                },
                {
                    "duration": 0.25,
                    "durationTicks": 192,
                    "midi": 91,
                    "name": "G6",
                    "ticks": 69696,
                    "time": 90.75,
                    "velocity": 0.25196850393700787
                },
                {
                    "duration": 0.5,
                    "durationTicks": 384,
                    "midi": 93,
                    "name": "A6",
                    "ticks": 69888,
                    "time": 91,
                    "velocity": 0.25196850393700787
                },
                {
                    "duration": 0.5,
                    "durationTicks": 384,
                    "midi": 84,
                    "name": "C6",
                    "ticks": 69888,
                    "time": 91,
                    "velocity": 0.25196850393700787
                },
                {
                    "duration": 0.5,
                    "durationTicks": 384,
                    "midi": 81,
                    "name": "A5",
                    "ticks": 69888,
                    "time": 91,
                    "velocity": 0.25196850393700787
                },
                {
                    "duration": 1.75,
                    "durationTicks": 1344,
                    "midi": 76,
                    "name": "E5",
                    "ticks": 69888,
                    "time": 91,
                    "velocity": 0.25196850393700787
                },
                {
                    "duration": 1.75,
                    "durationTicks": 1344,
                    "midi": 72,
                    "name": "C5",
                    "ticks": 69888,
                    "time": 91,
                    "velocity": 0.25196850393700787
                },
                {
                    "duration": 1.75,
                    "durationTicks": 1344,
                    "midi": 69,
                    "name": "A4",
                    "ticks": 69888,
                    "time": 91,
                    "velocity": 0.25196850393700787
                },
                {
                    "duration": 0.5,
                    "durationTicks": 384,
                    "midi": 88,
                    "name": "E6",
                    "ticks": 70272,
                    "time": 91.5,
                    "velocity": 0.25196850393700787
                },
                {
                    "duration": 0.5,
                    "durationTicks": 384,
                    "midi": 83,
                    "name": "B5",
                    "ticks": 70272,
                    "time": 91.5,
                    "velocity": 0.25196850393700787
                },
                {
                    "duration": 0.5,
                    "durationTicks": 384,
                    "midi": 79,
                    "name": "G5",
                    "ticks": 70272,
                    "time": 91.5,
                    "velocity": 0.25196850393700787
                },
                {
                    "duration": 0.5,
                    "durationTicks": 384,
                    "midi": 86,
                    "name": "D6",
                    "ticks": 70656,
                    "time": 92,
                    "velocity": 0.25196850393700787
                },
                {
                    "duration": 0.25,
                    "durationTicks": 192,
                    "midi": 88,
                    "name": "E6",
                    "ticks": 71040,
                    "time": 92.5,
                    "velocity": 0.25196850393700787
                },
                {
                    "duration": 0.75,
                    "durationTicks": 576,
                    "midi": 88,
                    "name": "E6",
                    "ticks": 71232,
                    "time": 92.75,
                    "velocity": 0.25196850393700787
                },
                {
                    "duration": 0.75,
                    "durationTicks": 576,
                    "midi": 93,
                    "name": "A6",
                    "ticks": 71232,
                    "time": 92.75,
                    "velocity": 0.25196850393700787
                },
                {
                    "duration": 1,
                    "durationTicks": 768,
                    "midi": 84,
                    "name": "C6",
                    "ticks": 71232,
                    "time": 92.75,
                    "velocity": 0.25196850393700787
                },
                {
                    "duration": 2.25,
                    "durationTicks": 1728,
                    "midi": 79,
                    "name": "G5",
                    "ticks": 71232,
                    "time": 92.75,
                    "velocity": 0.25196850393700787
                },
                {
                    "duration": 0.5,
                    "durationTicks": 384,
                    "midi": 88,
                    "name": "E6",
                    "ticks": 71808,
                    "time": 93.5,
                    "velocity": 0.25196850393700787
                },
                {
                    "duration": 0.75,
                    "durationTicks": 576,
                    "midi": 84,
                    "name": "C6",
                    "ticks": 72000,
                    "time": 93.75,
                    "velocity": 0.25196850393700787
                },
                {
                    "duration": 1,
                    "durationTicks": 768,
                    "midi": 88,
                    "name": "E6",
                    "ticks": 72192,
                    "time": 94,
                    "velocity": 0.25196850393700787
                },
                {
                    "duration": 0.25,
                    "durationTicks": 192,
                    "midi": 86,
                    "name": "D6",
                    "ticks": 72384,
                    "time": 94.25,
                    "velocity": 0.25196850393700787
                },
                {
                    "duration": 0.5,
                    "durationTicks": 384,
                    "midi": 84,
                    "name": "C6",
                    "ticks": 72576,
                    "time": 94.5,
                    "velocity": 0.25196850393700787
                },
                {
                    "duration": 0.25,
                    "durationTicks": 192,
                    "midi": 83,
                    "name": "B5",
                    "ticks": 72768,
                    "time": 94.75,
                    "velocity": 0.25196850393700787
                },
                {
                    "duration": 0.5,
                    "durationTicks": 384,
                    "midi": 81,
                    "name": "A5",
                    "ticks": 72960,
                    "time": 95,
                    "velocity": 0.25196850393700787
                },
                {
                    "duration": 1.75,
                    "durationTicks": 1344,
                    "midi": 72,
                    "name": "C5",
                    "ticks": 72960,
                    "time": 95,
                    "velocity": 0.25196850393700787
                },
                {
                    "duration": 1.75,
                    "durationTicks": 1344,
                    "midi": 69,
                    "name": "A4",
                    "ticks": 72960,
                    "time": 95,
                    "velocity": 0.25196850393700787
                },
                {
                    "duration": 1.75,
                    "durationTicks": 1344,
                    "midi": 65,
                    "name": "F4",
                    "ticks": 72960,
                    "time": 95,
                    "velocity": 0.25196850393700787
                },
                {
                    "duration": 0.5,
                    "durationTicks": 384,
                    "midi": 84,
                    "name": "C6",
                    "ticks": 73344,
                    "time": 95.5,
                    "velocity": 0.25196850393700787
                },
                {
                    "duration": 0.5,
                    "durationTicks": 384,
                    "midi": 86,
                    "name": "D6",
                    "ticks": 73728,
                    "time": 96,
                    "velocity": 0.25196850393700787
                },
                {
                    "duration": 0.25,
                    "durationTicks": 192,
                    "midi": 88,
                    "name": "E6",
                    "ticks": 74112,
                    "time": 96.5,
                    "velocity": 0.25196850393700787
                },
                {
                    "duration": 0.5,
                    "durationTicks": 384,
                    "midi": 91,
                    "name": "G6",
                    "ticks": 74304,
                    "time": 96.75,
                    "velocity": 0.25196850393700787
                },
                {
                    "duration": 2.25,
                    "durationTicks": 1728,
                    "midi": 83,
                    "name": "B5",
                    "ticks": 74304,
                    "time": 96.75,
                    "velocity": 0.25196850393700787
                },
                {
                    "duration": 2.25,
                    "durationTicks": 1728,
                    "midi": 77,
                    "name": "F5",
                    "ticks": 74304,
                    "time": 96.75,
                    "velocity": 0.25196850393700787
                },
                {
                    "duration": 2.25,
                    "durationTicks": 1728,
                    "midi": 74,
                    "name": "D5",
                    "ticks": 74304,
                    "time": 96.75,
                    "velocity": 0.25196850393700787
                },
                {
                    "duration": 0.25,
                    "durationTicks": 192,
                    "midi": 88,
                    "name": "E6",
                    "ticks": 74688,
                    "time": 97.25,
                    "velocity": 0.25196850393700787
                },
                {
                    "duration": 0.5,
                    "durationTicks": 384,
                    "midi": 86,
                    "name": "D6",
                    "ticks": 74880,
                    "time": 97.5,
                    "velocity": 0.25196850393700787
                },
                {
                    "duration": 0.5,
                    "durationTicks": 384,
                    "midi": 86,
                    "name": "D6",
                    "ticks": 75264,
                    "time": 98,
                    "velocity": 0.25196850393700787
                },
                {
                    "duration": 0.5,
                    "durationTicks": 384,
                    "midi": 79,
                    "name": "G5",
                    "ticks": 75648,
                    "time": 98.5,
                    "velocity": 0.25196850393700787
                },
                {
                    "duration": 0.5,
                    "durationTicks": 384,
                    "midi": 95,
                    "name": "B6",
                    "ticks": 76032,
                    "time": 99,
                    "velocity": 0.25196850393700787
                },
                {
                    "duration": 0.5,
                    "durationTicks": 384,
                    "midi": 86,
                    "name": "D6",
                    "ticks": 76032,
                    "time": 99,
                    "velocity": 0.25196850393700787
                },
                {
                    "duration": 0.5,
                    "durationTicks": 384,
                    "midi": 83,
                    "name": "B5",
                    "ticks": 76032,
                    "time": 99,
                    "velocity": 0.25196850393700787
                },
                {
                    "duration": 0.75,
                    "durationTicks": 576,
                    "midi": 79,
                    "name": "G5",
                    "ticks": 76032,
                    "time": 99,
                    "velocity": 0.25196850393700787
                },
                {
                    "duration": 1.75,
                    "durationTicks": 1344,
                    "midi": 74,
                    "name": "D5",
                    "ticks": 76032,
                    "time": 99,
                    "velocity": 0.25196850393700787
                },
                {
                    "duration": 1.75,
                    "durationTicks": 1344,
                    "midi": 71,
                    "name": "B4",
                    "ticks": 76032,
                    "time": 99,
                    "velocity": 0.25196850393700787
                },
                {
                    "duration": 0.25,
                    "durationTicks": 192,
                    "midi": 96,
                    "name": "C7",
                    "ticks": 76416,
                    "time": 99.5,
                    "velocity": 0.25196850393700787
                },
                {
                    "duration": 0.25,
                    "durationTicks": 192,
                    "midi": 88,
                    "name": "E6",
                    "ticks": 76416,
                    "time": 99.5,
                    "velocity": 0.25196850393700787
                },
                {
                    "duration": 0.25,
                    "durationTicks": 192,
                    "midi": 84,
                    "name": "C6",
                    "ticks": 76416,
                    "time": 99.5,
                    "velocity": 0.25196850393700787
                },
                {
                    "duration": 0.75,
                    "durationTicks": 576,
                    "midi": 91,
                    "name": "G6",
                    "ticks": 76608,
                    "time": 99.75,
                    "velocity": 0.25196850393700787
                },
                {
                    "duration": 0.75,
                    "durationTicks": 576,
                    "midi": 83,
                    "name": "B5",
                    "ticks": 76608,
                    "time": 99.75,
                    "velocity": 0.25196850393700787
                },
                {
                    "duration": 1,
                    "durationTicks": 768,
                    "midi": 79,
                    "name": "G5",
                    "ticks": 76608,
                    "time": 99.75,
                    "velocity": 0.25196850393700787
                },
                {
                    "duration": 0.25,
                    "durationTicks": 192,
                    "midi": 93,
                    "name": "A6",
                    "ticks": 77184,
                    "time": 100.5,
                    "velocity": 0.25196850393700787
                },
                {
                    "duration": 0.25,
                    "durationTicks": 192,
                    "midi": 84,
                    "name": "C6",
                    "ticks": 77184,
                    "time": 100.5,
                    "velocity": 0.25196850393700787
                },
                {
                    "duration": 0.25,
                    "durationTicks": 192,
                    "midi": 81,
                    "name": "A5",
                    "ticks": 77184,
                    "time": 100.5,
                    "velocity": 0.25196850393700787
                },
                {
                    "duration": 0.5,
                    "durationTicks": 384,
                    "midi": 88,
                    "name": "E6",
                    "ticks": 77376,
                    "time": 100.75,
                    "velocity": 0.25196850393700787
                },
                {
                    "duration": 0.5,
                    "durationTicks": 384,
                    "midi": 79,
                    "name": "G5",
                    "ticks": 77376,
                    "time": 100.75,
                    "velocity": 0.25196850393700787
                },
                {
                    "duration": 0.5,
                    "durationTicks": 384,
                    "midi": 76,
                    "name": "E5",
                    "ticks": 77376,
                    "time": 100.75,
                    "velocity": 0.25196850393700787
                },
                {
                    "duration": 1.75,
                    "durationTicks": 1344,
                    "midi": 71,
                    "name": "B4",
                    "ticks": 77376,
                    "time": 100.75,
                    "velocity": 0.25196850393700787
                },
                {
                    "duration": 1.75,
                    "durationTicks": 1344,
                    "midi": 67,
                    "name": "G4",
                    "ticks": 77376,
                    "time": 100.75,
                    "velocity": 0.25196850393700787
                },
                {
                    "duration": 1.75,
                    "durationTicks": 1344,
                    "midi": 64,
                    "name": "E4",
                    "ticks": 77376,
                    "time": 100.75,
                    "velocity": 0.25196850393700787
                },
                {
                    "duration": 0.5,
                    "durationTicks": 384,
                    "midi": 86,
                    "name": "D6",
                    "ticks": 77760,
                    "time": 101.25,
                    "velocity": 0.25196850393700787
                },
                {
                    "duration": 0.5,
                    "durationTicks": 384,
                    "midi": 86,
                    "name": "D6",
                    "ticks": 78144,
                    "time": 101.75,
                    "velocity": 0.25196850393700787
                },
                {
                    "duration": 1,
                    "durationTicks": 768,
                    "midi": 86,
                    "name": "D6",
                    "ticks": 78528,
                    "time": 102.25,
                    "velocity": 0.25196850393700787
                },
                {
                    "duration": 0.25,
                    "durationTicks": 192,
                    "midi": 84,
                    "name": "C6",
                    "ticks": 78720,
                    "time": 102.5,
                    "velocity": 0.25196850393700787
                },
                {
                    "duration": 0.25,
                    "durationTicks": 192,
                    "midi": 91,
                    "name": "G6",
                    "ticks": 78912,
                    "time": 102.75,
                    "velocity": 0.25196850393700787
                },
                {
                    "duration": 0.25,
                    "durationTicks": 192,
                    "midi": 84,
                    "name": "C6",
                    "ticks": 79104,
                    "time": 103,
                    "velocity": 0.25196850393700787
                },
                {
                    "duration": 0.25,
                    "durationTicks": 192,
                    "midi": 81,
                    "name": "A5",
                    "ticks": 79296,
                    "time": 103.25,
                    "velocity": 0.25196850393700787
                },
                {
                    "duration": 2,
                    "durationTicks": 1536,
                    "midi": 76,
                    "name": "E5",
                    "ticks": 79296,
                    "time": 103.25,
                    "velocity": 0.25196850393700787
                },
                {
                    "duration": 2,
                    "durationTicks": 1536,
                    "midi": 72,
                    "name": "C5",
                    "ticks": 79296,
                    "time": 103.25,
                    "velocity": 0.25196850393700787
                },
                {
                    "duration": 2,
                    "durationTicks": 1536,
                    "midi": 69,
                    "name": "A4",
                    "ticks": 79296,
                    "time": 103.25,
                    "velocity": 0.25196850393700787
                },
                {
                    "duration": 0.25,
                    "durationTicks": 192,
                    "midi": 84,
                    "name": "C6",
                    "ticks": 79488,
                    "time": 103.5,
                    "velocity": 0.25196850393700787
                },
                {
                    "duration": 0.25,
                    "durationTicks": 192,
                    "midi": 86,
                    "name": "D6",
                    "ticks": 79680,
                    "time": 103.75,
                    "velocity": 0.25196850393700787
                },
                {
                    "duration": 0.25,
                    "durationTicks": 192,
                    "midi": 88,
                    "name": "E6",
                    "ticks": 79872,
                    "time": 104,
                    "velocity": 0.25196850393700787
                },
                {
                    "duration": 0.25,
                    "durationTicks": 192,
                    "midi": 81,
                    "name": "A5",
                    "ticks": 80064,
                    "time": 104.25,
                    "velocity": 0.25196850393700787
                },
                {
                    "duration": 0.25,
                    "durationTicks": 192,
                    "midi": 84,
                    "name": "C6",
                    "ticks": 80256,
                    "time": 104.5,
                    "velocity": 0.25196850393700787
                },
                {
                    "duration": 0.25,
                    "durationTicks": 192,
                    "midi": 86,
                    "name": "D6",
                    "ticks": 80448,
                    "time": 104.75,
                    "velocity": 0.25196850393700787
                },
                {
                    "duration": 0.25,
                    "durationTicks": 192,
                    "midi": 88,
                    "name": "E6",
                    "ticks": 80640,
                    "time": 105,
                    "velocity": 0.25196850393700787
                },
                {
                    "duration": 0.25,
                    "durationTicks": 192,
                    "midi": 79,
                    "name": "G5",
                    "ticks": 80832,
                    "time": 105.25,
                    "velocity": 0.25196850393700787
                },
                {
                    "duration": 2,
                    "durationTicks": 1536,
                    "midi": 71,
                    "name": "B4",
                    "ticks": 80832,
                    "time": 105.25,
                    "velocity": 0.25196850393700787
                },
                {
                    "duration": 2,
                    "durationTicks": 1536,
                    "midi": 67,
                    "name": "G4",
                    "ticks": 80832,
                    "time": 105.25,
                    "velocity": 0.25196850393700787
                },
                {
                    "duration": 2,
                    "durationTicks": 1536,
                    "midi": 64,
                    "name": "E4",
                    "ticks": 80832,
                    "time": 105.25,
                    "velocity": 0.25196850393700787
                },
                {
                    "duration": 0.25,
                    "durationTicks": 192,
                    "midi": 83,
                    "name": "B5",
                    "ticks": 81024,
                    "time": 105.5,
                    "velocity": 0.25196850393700787
                },
                {
                    "duration": 0.25,
                    "durationTicks": 192,
                    "midi": 84,
                    "name": "C6",
                    "ticks": 81216,
                    "time": 105.75,
                    "velocity": 0.25196850393700787
                },
                {
                    "duration": 0.25,
                    "durationTicks": 192,
                    "midi": 86,
                    "name": "D6",
                    "ticks": 81408,
                    "time": 106,
                    "velocity": 0.25196850393700787
                },
                {
                    "duration": 0.25,
                    "durationTicks": 192,
                    "midi": 79,
                    "name": "G5",
                    "ticks": 81600,
                    "time": 106.25,
                    "velocity": 0.25196850393700787
                },
                {
                    "duration": 0.25,
                    "durationTicks": 192,
                    "midi": 83,
                    "name": "B5",
                    "ticks": 81792,
                    "time": 106.5,
                    "velocity": 0.25196850393700787
                },
                {
                    "duration": 0.25,
                    "durationTicks": 192,
                    "midi": 84,
                    "name": "C6",
                    "ticks": 81984,
                    "time": 106.75,
                    "velocity": 0.25196850393700787
                },
                {
                    "duration": 0.25,
                    "durationTicks": 192,
                    "midi": 86,
                    "name": "D6",
                    "ticks": 82176,
                    "time": 107,
                    "velocity": 0.25196850393700787
                },
                {
                    "duration": 0.25,
                    "durationTicks": 192,
                    "midi": 81,
                    "name": "A5",
                    "ticks": 82368,
                    "time": 107.25,
                    "velocity": 0.25196850393700787
                },
                {
                    "duration": 2,
                    "durationTicks": 1536,
                    "midi": 76,
                    "name": "E5",
                    "ticks": 82368,
                    "time": 107.25,
                    "velocity": 0.25196850393700787
                },
                {
                    "duration": 2,
                    "durationTicks": 1536,
                    "midi": 72,
                    "name": "C5",
                    "ticks": 82368,
                    "time": 107.25,
                    "velocity": 0.25196850393700787
                },
                {
                    "duration": 2,
                    "durationTicks": 1536,
                    "midi": 69,
                    "name": "A4",
                    "ticks": 82368,
                    "time": 107.25,
                    "velocity": 0.25196850393700787
                },
                {
                    "duration": 0.25,
                    "durationTicks": 192,
                    "midi": 84,
                    "name": "C6",
                    "ticks": 82560,
                    "time": 107.5,
                    "velocity": 0.25196850393700787
                },
                {
                    "duration": 0.25,
                    "durationTicks": 192,
                    "midi": 86,
                    "name": "D6",
                    "ticks": 82752,
                    "time": 107.75,
                    "velocity": 0.25196850393700787
                },
                {
                    "duration": 0.25,
                    "durationTicks": 192,
                    "midi": 88,
                    "name": "E6",
                    "ticks": 82944,
                    "time": 108,
                    "velocity": 0.25196850393700787
                },
                {
                    "duration": 0.25,
                    "durationTicks": 192,
                    "midi": 81,
                    "name": "A5",
                    "ticks": 83136,
                    "time": 108.25,
                    "velocity": 0.25196850393700787
                },
                {
                    "duration": 0.25,
                    "durationTicks": 192,
                    "midi": 84,
                    "name": "C6",
                    "ticks": 83328,
                    "time": 108.5,
                    "velocity": 0.25196850393700787
                },
                {
                    "duration": 0.25,
                    "durationTicks": 192,
                    "midi": 86,
                    "name": "D6",
                    "ticks": 83520,
                    "time": 108.75,
                    "velocity": 0.25196850393700787
                },
                {
                    "duration": 0.25,
                    "durationTicks": 192,
                    "midi": 88,
                    "name": "E6",
                    "ticks": 83712,
                    "time": 109,
                    "velocity": 0.25196850393700787
                },
                {
                    "duration": 0.25,
                    "durationTicks": 192,
                    "midi": 79,
                    "name": "G5",
                    "ticks": 83904,
                    "time": 109.25,
                    "velocity": 0.25196850393700787
                },
                {
                    "duration": 2,
                    "durationTicks": 1536,
                    "midi": 71,
                    "name": "B4",
                    "ticks": 83904,
                    "time": 109.25,
                    "velocity": 0.25196850393700787
                },
                {
                    "duration": 2,
                    "durationTicks": 1536,
                    "midi": 67,
                    "name": "G4",
                    "ticks": 83904,
                    "time": 109.25,
                    "velocity": 0.25196850393700787
                },
                {
                    "duration": 2,
                    "durationTicks": 1536,
                    "midi": 64,
                    "name": "E4",
                    "ticks": 83904,
                    "time": 109.25,
                    "velocity": 0.25196850393700787
                },
                {
                    "duration": 0.25,
                    "durationTicks": 192,
                    "midi": 83,
                    "name": "B5",
                    "ticks": 84096,
                    "time": 109.5,
                    "velocity": 0.25196850393700787
                },
                {
                    "duration": 0.25,
                    "durationTicks": 192,
                    "midi": 84,
                    "name": "C6",
                    "ticks": 84288,
                    "time": 109.75,
                    "velocity": 0.25196850393700787
                },
                {
                    "duration": 0.25,
                    "durationTicks": 192,
                    "midi": 86,
                    "name": "D6",
                    "ticks": 84480,
                    "time": 110,
                    "velocity": 0.25196850393700787
                },
                {
                    "duration": 0.25,
                    "durationTicks": 192,
                    "midi": 79,
                    "name": "G5",
                    "ticks": 84672,
                    "time": 110.25,
                    "velocity": 0.25196850393700787
                },
                {
                    "duration": 0.25,
                    "durationTicks": 192,
                    "midi": 83,
                    "name": "B5",
                    "ticks": 84864,
                    "time": 110.5,
                    "velocity": 0.25196850393700787
                },
                {
                    "duration": 0.25,
                    "durationTicks": 192,
                    "midi": 84,
                    "name": "C6",
                    "ticks": 85056,
                    "time": 110.75,
                    "velocity": 0.25196850393700787
                },
                {
                    "duration": 0.25,
                    "durationTicks": 192,
                    "midi": 79,
                    "name": "G5",
                    "ticks": 85248,
                    "time": 111,
                    "velocity": 0.25196850393700787
                },
                {
                    "duration": 0.25,
                    "durationTicks": 192,
                    "midi": 81,
                    "name": "A5",
                    "ticks": 85440,
                    "time": 111.25,
                    "velocity": 0.25196850393700787
                },
                {
                    "duration": 2,
                    "durationTicks": 1536,
                    "midi": 76,
                    "name": "E5",
                    "ticks": 85440,
                    "time": 111.25,
                    "velocity": 0.25196850393700787
                },
                {
                    "duration": 2,
                    "durationTicks": 1536,
                    "midi": 72,
                    "name": "C5",
                    "ticks": 85440,
                    "time": 111.25,
                    "velocity": 0.25196850393700787
                },
                {
                    "duration": 2,
                    "durationTicks": 1536,
                    "midi": 69,
                    "name": "A4",
                    "ticks": 85440,
                    "time": 111.25,
                    "velocity": 0.25196850393700787
                },
                {
                    "duration": 0.25,
                    "durationTicks": 192,
                    "midi": 84,
                    "name": "C6",
                    "ticks": 85632,
                    "time": 111.5,
                    "velocity": 0.25196850393700787
                },
                {
                    "duration": 0.25,
                    "durationTicks": 192,
                    "midi": 86,
                    "name": "D6",
                    "ticks": 85824,
                    "time": 111.75,
                    "velocity": 0.25196850393700787
                },
                {
                    "duration": 0.25,
                    "durationTicks": 192,
                    "midi": 88,
                    "name": "E6",
                    "ticks": 86016,
                    "time": 112,
                    "velocity": 0.25196850393700787
                },
                {
                    "duration": 0.25,
                    "durationTicks": 192,
                    "midi": 81,
                    "name": "A5",
                    "ticks": 86208,
                    "time": 112.25,
                    "velocity": 0.25196850393700787
                },
                {
                    "duration": 0.25,
                    "durationTicks": 192,
                    "midi": 84,
                    "name": "C6",
                    "ticks": 86400,
                    "time": 112.5,
                    "velocity": 0.25196850393700787
                },
                {
                    "duration": 0.25,
                    "durationTicks": 192,
                    "midi": 86,
                    "name": "D6",
                    "ticks": 86592,
                    "time": 112.75,
                    "velocity": 0.25196850393700787
                },
                {
                    "duration": 0.25,
                    "durationTicks": 192,
                    "midi": 88,
                    "name": "E6",
                    "ticks": 86784,
                    "time": 113,
                    "velocity": 0.25196850393700787
                },
                {
                    "duration": 0.25,
                    "durationTicks": 192,
                    "midi": 79,
                    "name": "G5",
                    "ticks": 86976,
                    "time": 113.25,
                    "velocity": 0.25196850393700787
                },
                {
                    "duration": 2,
                    "durationTicks": 1536,
                    "midi": 71,
                    "name": "B4",
                    "ticks": 86976,
                    "time": 113.25,
                    "velocity": 0.25196850393700787
                },
                {
                    "duration": 2,
                    "durationTicks": 1536,
                    "midi": 67,
                    "name": "G4",
                    "ticks": 86976,
                    "time": 113.25,
                    "velocity": 0.25196850393700787
                },
                {
                    "duration": 2,
                    "durationTicks": 1536,
                    "midi": 64,
                    "name": "E4",
                    "ticks": 86976,
                    "time": 113.25,
                    "velocity": 0.25196850393700787
                },
                {
                    "duration": 0.25,
                    "durationTicks": 192,
                    "midi": 83,
                    "name": "B5",
                    "ticks": 87168,
                    "time": 113.5,
                    "velocity": 0.25196850393700787
                },
                {
                    "duration": 0.25,
                    "durationTicks": 192,
                    "midi": 84,
                    "name": "C6",
                    "ticks": 87360,
                    "time": 113.75,
                    "velocity": 0.25196850393700787
                },
                {
                    "duration": 0.25,
                    "durationTicks": 192,
                    "midi": 86,
                    "name": "D6",
                    "ticks": 87552,
                    "time": 114,
                    "velocity": 0.25196850393700787
                },
                {
                    "duration": 0.25,
                    "durationTicks": 192,
                    "midi": 79,
                    "name": "G5",
                    "ticks": 87744,
                    "time": 114.25,
                    "velocity": 0.25196850393700787
                },
                {
                    "duration": 0.25,
                    "durationTicks": 192,
                    "midi": 83,
                    "name": "B5",
                    "ticks": 87936,
                    "time": 114.5,
                    "velocity": 0.25196850393700787
                },
                {
                    "duration": 0.25,
                    "durationTicks": 192,
                    "midi": 84,
                    "name": "C6",
                    "ticks": 88128,
                    "time": 114.75,
                    "velocity": 0.25196850393700787
                },
                {
                    "duration": 0.25,
                    "durationTicks": 192,
                    "midi": 86,
                    "name": "D6",
                    "ticks": 88320,
                    "time": 115,
                    "velocity": 0.25196850393700787
                },
                {
                    "duration": 0.25,
                    "durationTicks": 192,
                    "midi": 81,
                    "name": "A5",
                    "ticks": 88512,
                    "time": 115.25,
                    "velocity": 0.25196850393700787
                },
                {
                    "duration": 2,
                    "durationTicks": 1536,
                    "midi": 76,
                    "name": "E5",
                    "ticks": 88512,
                    "time": 115.25,
                    "velocity": 0.25196850393700787
                },
                {
                    "duration": 2,
                    "durationTicks": 1536,
                    "midi": 72,
                    "name": "C5",
                    "ticks": 88512,
                    "time": 115.25,
                    "velocity": 0.25196850393700787
                },
                {
                    "duration": 2,
                    "durationTicks": 1536,
                    "midi": 69,
                    "name": "A4",
                    "ticks": 88512,
                    "time": 115.25,
                    "velocity": 0.25196850393700787
                },
                {
                    "duration": 0.25,
                    "durationTicks": 192,
                    "midi": 84,
                    "name": "C6",
                    "ticks": 88704,
                    "time": 115.5,
                    "velocity": 0.25196850393700787
                },
                {
                    "duration": 0.25,
                    "durationTicks": 192,
                    "midi": 86,
                    "name": "D6",
                    "ticks": 88896,
                    "time": 115.75,
                    "velocity": 0.25196850393700787
                },
                {
                    "duration": 0.25,
                    "durationTicks": 192,
                    "midi": 88,
                    "name": "E6",
                    "ticks": 89088,
                    "time": 116,
                    "velocity": 0.25196850393700787
                },
                {
                    "duration": 0.25,
                    "durationTicks": 192,
                    "midi": 81,
                    "name": "A5",
                    "ticks": 89280,
                    "time": 116.25,
                    "velocity": 0.25196850393700787
                },
                {
                    "duration": 0.25,
                    "durationTicks": 192,
                    "midi": 84,
                    "name": "C6",
                    "ticks": 89472,
                    "time": 116.5,
                    "velocity": 0.25196850393700787
                },
                {
                    "duration": 0.25,
                    "durationTicks": 192,
                    "midi": 86,
                    "name": "D6",
                    "ticks": 89664,
                    "time": 116.75,
                    "velocity": 0.25196850393700787
                },
                {
                    "duration": 0.25,
                    "durationTicks": 192,
                    "midi": 88,
                    "name": "E6",
                    "ticks": 89856,
                    "time": 117,
                    "velocity": 0.25196850393700787
                },
                {
                    "duration": 0.25,
                    "durationTicks": 192,
                    "midi": 79,
                    "name": "G5",
                    "ticks": 90048,
                    "time": 117.25,
                    "velocity": 0.25196850393700787
                },
                {
                    "duration": 2,
                    "durationTicks": 1536,
                    "midi": 71,
                    "name": "B4",
                    "ticks": 90048,
                    "time": 117.25,
                    "velocity": 0.25196850393700787
                },
                {
                    "duration": 2,
                    "durationTicks": 1536,
                    "midi": 67,
                    "name": "G4",
                    "ticks": 90048,
                    "time": 117.25,
                    "velocity": 0.25196850393700787
                },
                {
                    "duration": 2,
                    "durationTicks": 1536,
                    "midi": 64,
                    "name": "E4",
                    "ticks": 90048,
                    "time": 117.25,
                    "velocity": 0.25196850393700787
                },
                {
                    "duration": 0.25,
                    "durationTicks": 192,
                    "midi": 83,
                    "name": "B5",
                    "ticks": 90240,
                    "time": 117.5,
                    "velocity": 0.25196850393700787
                },
                {
                    "duration": 0.25,
                    "durationTicks": 192,
                    "midi": 84,
                    "name": "C6",
                    "ticks": 90432,
                    "time": 117.75,
                    "velocity": 0.25196850393700787
                },
                {
                    "duration": 0.25,
                    "durationTicks": 192,
                    "midi": 86,
                    "name": "D6",
                    "ticks": 90624,
                    "time": 118,
                    "velocity": 0.25196850393700787
                },
                {
                    "duration": 0.25,
                    "durationTicks": 192,
                    "midi": 79,
                    "name": "G5",
                    "ticks": 90816,
                    "time": 118.25,
                    "velocity": 0.25196850393700787
                },
                {
                    "duration": 0.25,
                    "durationTicks": 192,
                    "midi": 84,
                    "name": "C6",
                    "ticks": 91008,
                    "time": 118.5,
                    "velocity": 0.25196850393700787
                },
                {
                    "duration": 0.25,
                    "durationTicks": 192,
                    "midi": 91,
                    "name": "G6",
                    "ticks": 91200,
                    "time": 118.75,
                    "velocity": 0.25196850393700787
                },
                {
                    "duration": 0.25,
                    "durationTicks": 192,
                    "midi": 84,
                    "name": "C6",
                    "ticks": 91392,
                    "time": 119,
                    "velocity": 0.25196850393700787
                },
                {
                    "duration": 0.75,
                    "durationTicks": 576,
                    "midi": 88,
                    "name": "E6",
                    "ticks": 91584,
                    "time": 119.25,
                    "velocity": 0.25196850393700787
                },
                {
                    "duration": 2,
                    "durationTicks": 1536,
                    "midi": 72,
                    "name": "C5",
                    "ticks": 91584,
                    "time": 119.25,
                    "velocity": 0.25196850393700787
                },
                {
                    "duration": 2,
                    "durationTicks": 1536,
                    "midi": 69,
                    "name": "A4",
                    "ticks": 91584,
                    "time": 119.25,
                    "velocity": 0.25196850393700787
                },
                {
                    "duration": 0.75,
                    "durationTicks": 576,
                    "midi": 86,
                    "name": "D6",
                    "ticks": 92160,
                    "time": 120,
                    "velocity": 0.25196850393700787
                },
                {
                    "duration": 0.75,
                    "durationTicks": 576,
                    "midi": 91,
                    "name": "G6",
                    "ticks": 92736,
                    "time": 120.75,
                    "velocity": 0.25196850393700787
                },
                {
                    "duration": 1.5,
                    "durationTicks": 1152,
                    "midi": 71,
                    "name": "B4",
                    "ticks": 93120,
                    "time": 121.25,
                    "velocity": 0.25196850393700787
                },
                {
                    "duration": 1.5,
                    "durationTicks": 1152,
                    "midi": 67,
                    "name": "G4",
                    "ticks": 93120,
                    "time": 121.25,
                    "velocity": 0.25196850393700787
                },
                {
                    "duration": 0.25,
                    "durationTicks": 192,
                    "midi": 88,
                    "name": "E6",
                    "ticks": 93312,
                    "time": 121.5,
                    "velocity": 0.25196850393700787
                },
                {
                    "duration": 0.5,
                    "durationTicks": 384,
                    "midi": 86,
                    "name": "D6",
                    "ticks": 93504,
                    "time": 121.75,
                    "velocity": 0.25196850393700787
                },
                {
                    "duration": 0.5,
                    "durationTicks": 384,
                    "midi": 79,
                    "name": "G5",
                    "ticks": 93888,
                    "time": 122.25,
                    "velocity": 0.25196850393700787
                },
                {
                    "duration": 0.75,
                    "durationTicks": 576,
                    "midi": 86,
                    "name": "D6",
                    "ticks": 94272,
                    "time": 122.75,
                    "velocity": 0.25196850393700787
                },
                {
                    "duration": 1.75,
                    "durationTicks": 1344,
                    "midi": 74,
                    "name": "D5",
                    "ticks": 94272,
                    "time": 122.75,
                    "velocity": 0.25196850393700787
                },
                {
                    "duration": 1.75,
                    "durationTicks": 1344,
                    "midi": 71,
                    "name": "B4",
                    "ticks": 94272,
                    "time": 122.75,
                    "velocity": 0.25196850393700787
                },
                {
                    "duration": 0.25,
                    "durationTicks": 192,
                    "midi": 84,
                    "name": "C6",
                    "ticks": 94848,
                    "time": 123.5,
                    "velocity": 0.25196850393700787
                },
                {
                    "duration": 0.375,
                    "durationTicks": 288,
                    "midi": 83,
                    "name": "B5",
                    "ticks": 95040,
                    "time": 123.75,
                    "velocity": 0.25196850393700787
                },
                {
                    "duration": 0.375,
                    "durationTicks": 288,
                    "midi": 84,
                    "name": "C6",
                    "ticks": 95328,
                    "time": 124.125,
                    "velocity": 0.25196850393700787
                },
                {
                    "duration": 0.75,
                    "durationTicks": 576,
                    "midi": 88,
                    "name": "E6",
                    "ticks": 95616,
                    "time": 124.5,
                    "velocity": 0.25196850393700787
                },
                {
                    "duration": 2,
                    "durationTicks": 1536,
                    "midi": 72,
                    "name": "C5",
                    "ticks": 95616,
                    "time": 124.5,
                    "velocity": 0.25196850393700787
                },
                {
                    "duration": 2,
                    "durationTicks": 1536,
                    "midi": 67,
                    "name": "G4",
                    "ticks": 95616,
                    "time": 124.5,
                    "velocity": 0.25196850393700787
                },
                {
                    "duration": 0.25,
                    "durationTicks": 192,
                    "midi": 84,
                    "name": "C6",
                    "ticks": 96192,
                    "time": 125.25,
                    "velocity": 0.25196850393700787
                },
                {
                    "duration": 0.5,
                    "durationTicks": 384,
                    "midi": 83,
                    "name": "B5",
                    "ticks": 96384,
                    "time": 125.5,
                    "velocity": 0.25196850393700787
                },
                {
                    "duration": 0.5,
                    "durationTicks": 384,
                    "midi": 81,
                    "name": "A5",
                    "ticks": 96768,
                    "time": 126,
                    "velocity": 0.25196850393700787
                },
                {
                    "duration": 0.75,
                    "durationTicks": 576,
                    "midi": 88,
                    "name": "E6",
                    "ticks": 97152,
                    "time": 126.5,
                    "velocity": 0.25196850393700787
                },
                {
                    "duration": 2,
                    "durationTicks": 1536,
                    "midi": 84,
                    "name": "C6",
                    "ticks": 97152,
                    "time": 126.5,
                    "velocity": 0.25196850393700787
                },
                {
                    "duration": 2,
                    "durationTicks": 1536,
                    "midi": 81,
                    "name": "A5",
                    "ticks": 97152,
                    "time": 126.5,
                    "velocity": 0.25196850393700787
                },
                {
                    "duration": 0.75,
                    "durationTicks": 576,
                    "midi": 86,
                    "name": "D6",
                    "ticks": 97728,
                    "time": 127.25,
                    "velocity": 0.25196850393700787
                },
                {
                    "duration": 0.75,
                    "durationTicks": 576,
                    "midi": 91,
                    "name": "G6",
                    "ticks": 98304,
                    "time": 128,
                    "velocity": 0.25196850393700787
                },
                {
                    "duration": 0.875,
                    "durationTicks": 672,
                    "midi": 79,
                    "name": "G5",
                    "ticks": 98688,
                    "time": 128.5,
                    "velocity": 0.25196850393700787
                },
                {
                    "duration": 1.5,
                    "durationTicks": 1152,
                    "midi": 83,
                    "name": "B5",
                    "ticks": 98688,
                    "time": 128.5,
                    "velocity": 0.25196850393700787
                },
                {
                    "duration": 0.25,
                    "durationTicks": 192,
                    "midi": 88,
                    "name": "E6",
                    "ticks": 98880,
                    "time": 128.75,
                    "velocity": 0.25196850393700787
                },
                {
                    "duration": 0.375,
                    "durationTicks": 288,
                    "midi": 86,
                    "name": "D6",
                    "ticks": 99072,
                    "time": 129,
                    "velocity": 0.25196850393700787
                },
                {
                    "duration": 0.625,
                    "durationTicks": 480,
                    "midi": 79,
                    "name": "G5",
                    "ticks": 99360,
                    "time": 129.375,
                    "velocity": 0.25196850393700787
                },
                {
                    "duration": 0.75,
                    "durationTicks": 576,
                    "midi": 84,
                    "name": "C6",
                    "ticks": 99648,
                    "time": 129.75,
                    "velocity": 0.25196850393700787
                },
                {
                    "duration": 1.5,
                    "durationTicks": 1152,
                    "midi": 81,
                    "name": "A5",
                    "ticks": 99840,
                    "time": 130,
                    "velocity": 0.25196850393700787
                },
                {
                    "duration": 1.5,
                    "durationTicks": 1152,
                    "midi": 77,
                    "name": "F5",
                    "ticks": 99840,
                    "time": 130,
                    "velocity": 0.25196850393700787
                },
                {
                    "duration": 0.25,
                    "durationTicks": 192,
                    "midi": 88,
                    "name": "E6",
                    "ticks": 100224,
                    "time": 130.5,
                    "velocity": 0.25196850393700787
                },
                {
                    "duration": 0.375,
                    "durationTicks": 288,
                    "midi": 86,
                    "name": "D6",
                    "ticks": 100416,
                    "time": 130.75,
                    "velocity": 0.25196850393700787
                },
                {
                    "duration": 0.375,
                    "durationTicks": 288,
                    "midi": 79,
                    "name": "G5",
                    "ticks": 100704,
                    "time": 131.125,
                    "velocity": 0.25196850393700787
                },
                {
                    "duration": 1,
                    "durationTicks": 768,
                    "midi": 84,
                    "name": "C6",
                    "ticks": 100992,
                    "time": 131.5,
                    "velocity": 0.25196850393700787
                },
                {
                    "duration": 1,
                    "durationTicks": 768,
                    "midi": 86,
                    "name": "D6",
                    "ticks": 100992,
                    "time": 131.5,
                    "velocity": 0.25196850393700787
                },
                {
                    "duration": 2.5,
                    "durationTicks": 1920,
                    "midi": 79,
                    "name": "G5",
                    "ticks": 100992,
                    "time": 131.5,
                    "velocity": 0.25196850393700787
                },
                {
                    "duration": 1.5,
                    "durationTicks": 1152,
                    "midi": 84,
                    "name": "C6",
                    "ticks": 101760,
                    "time": 132.5,
                    "velocity": 0.25196850393700787
                },
                {
                    "duration": 0.25,
                    "durationTicks": 192,
                    "midi": 92,
                    "name": "G#6",
                    "ticks": 102912,
                    "time": 134,
                    "velocity": 0.33858267716535434
                },
                {
                    "duration": 0.25,
                    "durationTicks": 192,
                    "midi": 92,
                    "name": "G#6",
                    "ticks": 103104,
                    "time": 134.25,
                    "velocity": 0.33858267716535434
                },
                {
                    "duration": 0.25,
                    "durationTicks": 192,
                    "midi": 92,
                    "name": "G#6",
                    "ticks": 103296,
                    "time": 134.5,
                    "velocity": 0.33858267716535434
                },
                {
                    "duration": 0.25,
                    "durationTicks": 192,
                    "midi": 92,
                    "name": "G#6",
                    "ticks": 103488,
                    "time": 134.75,
                    "velocity": 0.33858267716535434
                },
                {
                    "duration": 0.25,
                    "durationTicks": 192,
                    "midi": 92,
                    "name": "G#6",
                    "ticks": 103680,
                    "time": 135,
                    "velocity": 0.33858267716535434
                },
                {
                    "duration": 0.25,
                    "durationTicks": 192,
                    "midi": 92,
                    "name": "G#6",
                    "ticks": 103872,
                    "time": 135.25,
                    "velocity": 0.33858267716535434
                },
                {
                    "duration": 0.25,
                    "durationTicks": 192,
                    "midi": 92,
                    "name": "G#6",
                    "ticks": 104064,
                    "time": 135.5,
                    "velocity": 0.33858267716535434
                },
                {
                    "duration": 0.5,
                    "durationTicks": 384,
                    "midi": 94,
                    "name": "A#6",
                    "ticks": 104256,
                    "time": 135.75,
                    "velocity": 0.33858267716535434
                },
                {
                    "duration": 0.5,
                    "durationTicks": 384,
                    "midi": 89,
                    "name": "F6",
                    "ticks": 104256,
                    "time": 135.75,
                    "velocity": 0.33858267716535434
                },
                {
                    "duration": 0.5,
                    "durationTicks": 384,
                    "midi": 82,
                    "name": "A#5",
                    "ticks": 104256,
                    "time": 135.75,
                    "velocity": 0.33858267716535434
                },
                {
                    "duration": 0.75,
                    "durationTicks": 576,
                    "midi": 89,
                    "name": "F6",
                    "ticks": 104640,
                    "time": 136.25,
                    "velocity": 0.33858267716535434
                },
                {
                    "duration": 0.75,
                    "durationTicks": 576,
                    "midi": 82,
                    "name": "A#5",
                    "ticks": 104640,
                    "time": 136.25,
                    "velocity": 0.33858267716535434
                },
                {
                    "duration": 0.75,
                    "durationTicks": 576,
                    "midi": 77,
                    "name": "F5",
                    "ticks": 104640,
                    "time": 136.25,
                    "velocity": 0.33858267716535434
                },
                {
                    "duration": 1.25,
                    "durationTicks": 960,
                    "midi": 73,
                    "name": "C#5",
                    "ticks": 104640,
                    "time": 136.25,
                    "velocity": 0.33858267716535434
                },
                {
                    "duration": 1.25,
                    "durationTicks": 960,
                    "midi": 70,
                    "name": "A#4",
                    "ticks": 104640,
                    "time": 136.25,
                    "velocity": 0.33858267716535434
                },
                {
                    "duration": 1.25,
                    "durationTicks": 960,
                    "midi": 65,
                    "name": "F4",
                    "ticks": 104640,
                    "time": 136.25,
                    "velocity": 0.33858267716535434
                },
                {
                    "duration": 0.25,
                    "durationTicks": 192,
                    "midi": 94,
                    "name": "A#6",
                    "ticks": 105216,
                    "time": 137,
                    "velocity": 0.33858267716535434
                },
                {
                    "duration": 0.25,
                    "durationTicks": 192,
                    "midi": 87,
                    "name": "D#6",
                    "ticks": 105408,
                    "time": 137.25,
                    "velocity": 0.33858267716535434
                },
                {
                    "duration": 0.5,
                    "durationTicks": 384,
                    "midi": 89,
                    "name": "F6",
                    "ticks": 105600,
                    "time": 137.5,
                    "velocity": 0.33858267716535434
                },
                {
                    "duration": 2.25,
                    "durationTicks": 1728,
                    "midi": 77,
                    "name": "F5",
                    "ticks": 105600,
                    "time": 137.5,
                    "velocity": 0.33858267716535434
                },
                {
                    "duration": 2.25,
                    "durationTicks": 1728,
                    "midi": 73,
                    "name": "C#5",
                    "ticks": 105600,
                    "time": 137.5,
                    "velocity": 0.33858267716535434
                },
                {
                    "duration": 0.25,
                    "durationTicks": 192,
                    "midi": 92,
                    "name": "G#6",
                    "ticks": 105984,
                    "time": 138,
                    "velocity": 0.33858267716535434
                },
                {
                    "duration": 0.25,
                    "durationTicks": 192,
                    "midi": 92,
                    "name": "G#6",
                    "ticks": 106176,
                    "time": 138.25,
                    "velocity": 0.33858267716535434
                },
                {
                    "duration": 0.25,
                    "durationTicks": 192,
                    "midi": 92,
                    "name": "G#6",
                    "ticks": 106368,
                    "time": 138.5,
                    "velocity": 0.33858267716535434
                },
                {
                    "duration": 0.25,
                    "durationTicks": 192,
                    "midi": 92,
                    "name": "G#6",
                    "ticks": 106560,
                    "time": 138.75,
                    "velocity": 0.33858267716535434
                },
                {
                    "duration": 0.25,
                    "durationTicks": 192,
                    "midi": 92,
                    "name": "G#6",
                    "ticks": 106752,
                    "time": 139,
                    "velocity": 0.33858267716535434
                },
                {
                    "duration": 0.25,
                    "durationTicks": 192,
                    "midi": 89,
                    "name": "F6",
                    "ticks": 106944,
                    "time": 139.25,
                    "velocity": 0.33858267716535434
                },
                {
                    "duration": 0.25,
                    "durationTicks": 192,
                    "midi": 92,
                    "name": "G#6",
                    "ticks": 107136,
                    "time": 139.5,
                    "velocity": 0.33858267716535434
                },
                {
                    "duration": 0.5,
                    "durationTicks": 384,
                    "midi": 94,
                    "name": "A#6",
                    "ticks": 107328,
                    "time": 139.75,
                    "velocity": 0.33858267716535434
                },
                {
                    "duration": 0.5,
                    "durationTicks": 384,
                    "midi": 89,
                    "name": "F6",
                    "ticks": 107328,
                    "time": 139.75,
                    "velocity": 0.33858267716535434
                },
                {
                    "duration": 0.5,
                    "durationTicks": 384,
                    "midi": 82,
                    "name": "A#5",
                    "ticks": 107328,
                    "time": 139.75,
                    "velocity": 0.33858267716535434
                },
                {
                    "duration": 1.75,
                    "durationTicks": 1344,
                    "midi": 73,
                    "name": "C#5",
                    "ticks": 107328,
                    "time": 139.75,
                    "velocity": 0.33858267716535434
                },
                {
                    "duration": 1.75,
                    "durationTicks": 1344,
                    "midi": 70,
                    "name": "A#4",
                    "ticks": 107328,
                    "time": 139.75,
                    "velocity": 0.33858267716535434
                },
                {
                    "duration": 1.75,
                    "durationTicks": 1344,
                    "midi": 65,
                    "name": "F4",
                    "ticks": 107328,
                    "time": 139.75,
                    "velocity": 0.33858267716535434
                },
                {
                    "duration": 0.5,
                    "durationTicks": 384,
                    "midi": 89,
                    "name": "F6",
                    "ticks": 107712,
                    "time": 140.25,
                    "velocity": 0.33858267716535434
                },
                {
                    "duration": 0.5,
                    "durationTicks": 384,
                    "midi": 82,
                    "name": "A#5",
                    "ticks": 107712,
                    "time": 140.25,
                    "velocity": 0.33858267716535434
                },
                {
                    "duration": 0.5,
                    "durationTicks": 384,
                    "midi": 77,
                    "name": "F5",
                    "ticks": 107712,
                    "time": 140.25,
                    "velocity": 0.33858267716535434
                },
                {
                    "duration": 0.5,
                    "durationTicks": 384,
                    "midi": 87,
                    "name": "D#6",
                    "ticks": 108096,
                    "time": 140.75,
                    "velocity": 0.33858267716535434
                },
                {
                    "duration": 0.25,
                    "durationTicks": 192,
                    "midi": 89,
                    "name": "F6",
                    "ticks": 108480,
                    "time": 141.25,
                    "velocity": 0.33858267716535434
                },
                {
                    "duration": 0.75,
                    "durationTicks": 576,
                    "midi": 94,
                    "name": "A#6",
                    "ticks": 108672,
                    "time": 141.5,
                    "velocity": 0.33858267716535434
                },
                {
                    "duration": 2.25,
                    "durationTicks": 1728,
                    "midi": 82,
                    "name": "A#5",
                    "ticks": 108672,
                    "time": 141.5,
                    "velocity": 0.33858267716535434
                },
                {
                    "duration": 2.25,
                    "durationTicks": 1728,
                    "midi": 77,
                    "name": "F5",
                    "ticks": 108672,
                    "time": 141.5,
                    "velocity": 0.33858267716535434
                },
                {
                    "duration": 0.25,
                    "durationTicks": 192,
                    "midi": 89,
                    "name": "F6",
                    "ticks": 109248,
                    "time": 142.25,
                    "velocity": 0.33858267716535434
                },
                {
                    "duration": 0.25,
                    "durationTicks": 192,
                    "midi": 85,
                    "name": "C#6",
                    "ticks": 109440,
                    "time": 142.5,
                    "velocity": 0.33858267716535434
                },
                {
                    "duration": 0.25,
                    "durationTicks": 192,
                    "midi": 89,
                    "name": "F6",
                    "ticks": 109632,
                    "time": 142.75,
                    "velocity": 0.33858267716535434
                },
                {
                    "duration": 0.25,
                    "durationTicks": 192,
                    "midi": 87,
                    "name": "D#6",
                    "ticks": 109824,
                    "time": 143,
                    "velocity": 0.33858267716535434
                },
                {
                    "duration": 0.25,
                    "durationTicks": 192,
                    "midi": 85,
                    "name": "C#6",
                    "ticks": 110016,
                    "time": 143.25,
                    "velocity": 0.33858267716535434
                },
                {
                    "duration": 0.25,
                    "durationTicks": 192,
                    "midi": 84,
                    "name": "C6",
                    "ticks": 110208,
                    "time": 143.5,
                    "velocity": 0.33858267716535434
                },
                {
                    "duration": 0.5,
                    "durationTicks": 384,
                    "midi": 82,
                    "name": "A#5",
                    "ticks": 110400,
                    "time": 143.75,
                    "velocity": 0.33858267716535434
                },
                {
                    "duration": 1.75,
                    "durationTicks": 1344,
                    "midi": 77,
                    "name": "F5",
                    "ticks": 110400,
                    "time": 143.75,
                    "velocity": 0.33858267716535434
                },
                {
                    "duration": 1.75,
                    "durationTicks": 1344,
                    "midi": 70,
                    "name": "A#4",
                    "ticks": 110400,
                    "time": 143.75,
                    "velocity": 0.33858267716535434
                },
                {
                    "duration": 0.5,
                    "durationTicks": 384,
                    "midi": 85,
                    "name": "C#6",
                    "ticks": 110784,
                    "time": 144.25,
                    "velocity": 0.33858267716535434
                },
                {
                    "duration": 0.5,
                    "durationTicks": 384,
                    "midi": 87,
                    "name": "D#6",
                    "ticks": 111168,
                    "time": 144.75,
                    "velocity": 0.33858267716535434
                },
                {
                    "duration": 0.25,
                    "durationTicks": 192,
                    "midi": 89,
                    "name": "F6",
                    "ticks": 111552,
                    "time": 145.25,
                    "velocity": 0.33858267716535434
                },
                {
                    "duration": 0.5,
                    "durationTicks": 384,
                    "midi": 92,
                    "name": "G#6",
                    "ticks": 111744,
                    "time": 145.5,
                    "velocity": 0.33858267716535434
                },
                {
                    "duration": 2.25,
                    "durationTicks": 1728,
                    "midi": 77,
                    "name": "F5",
                    "ticks": 111744,
                    "time": 145.5,
                    "velocity": 0.33858267716535434
                },
                {
                    "duration": 2.25,
                    "durationTicks": 1728,
                    "midi": 73,
                    "name": "C#5",
                    "ticks": 111744,
                    "time": 145.5,
                    "velocity": 0.33858267716535434
                },
                {
                    "duration": 0.25,
                    "durationTicks": 192,
                    "midi": 89,
                    "name": "F6",
                    "ticks": 112128,
                    "time": 146,
                    "velocity": 0.33858267716535434
                },
                {
                    "duration": 0.5,
                    "durationTicks": 384,
                    "midi": 87,
                    "name": "D#6",
                    "ticks": 112320,
                    "time": 146.25,
                    "velocity": 0.33858267716535434
                },
                {
                    "duration": 0.5,
                    "durationTicks": 384,
                    "midi": 87,
                    "name": "D#6",
                    "ticks": 112704,
                    "time": 146.75,
                    "velocity": 0.33858267716535434
                },
                {
                    "duration": 0.5,
                    "durationTicks": 384,
                    "midi": 80,
                    "name": "G#5",
                    "ticks": 113088,
                    "time": 147.25,
                    "velocity": 0.33858267716535434
                },
                {
                    "duration": 0.5,
                    "durationTicks": 384,
                    "midi": 96,
                    "name": "C7",
                    "ticks": 113472,
                    "time": 147.75,
                    "velocity": 0.33858267716535434
                },
                {
                    "duration": 0.5,
                    "durationTicks": 384,
                    "midi": 89,
                    "name": "F6",
                    "ticks": 113472,
                    "time": 147.75,
                    "velocity": 0.33858267716535434
                },
                {
                    "duration": 0.5,
                    "durationTicks": 384,
                    "midi": 84,
                    "name": "C6",
                    "ticks": 113472,
                    "time": 147.75,
                    "velocity": 0.33858267716535434
                },
                {
                    "duration": 1.75,
                    "durationTicks": 1344,
                    "midi": 72,
                    "name": "C5",
                    "ticks": 113472,
                    "time": 147.75,
                    "velocity": 0.33858267716535434
                },
                {
                    "duration": 1.75,
                    "durationTicks": 1344,
                    "midi": 65,
                    "name": "F4",
                    "ticks": 113472,
                    "time": 147.75,
                    "velocity": 0.33858267716535434
                },
                {
                    "duration": 0.25,
                    "durationTicks": 192,
                    "midi": 97,
                    "name": "C#7",
                    "ticks": 113856,
                    "time": 148.25,
                    "velocity": 0.33858267716535434
                },
                {
                    "duration": 0.25,
                    "durationTicks": 192,
                    "midi": 92,
                    "name": "G#6",
                    "ticks": 113856,
                    "time": 148.25,
                    "velocity": 0.33858267716535434
                },
                {
                    "duration": 0.25,
                    "durationTicks": 192,
                    "midi": 85,
                    "name": "C#6",
                    "ticks": 113856,
                    "time": 148.25,
                    "velocity": 0.33858267716535434
                },
                {
                    "duration": 0.75,
                    "durationTicks": 576,
                    "midi": 92,
                    "name": "G#6",
                    "ticks": 114048,
                    "time": 148.5,
                    "velocity": 0.33858267716535434
                },
                {
                    "duration": 0.75,
                    "durationTicks": 576,
                    "midi": 84,
                    "name": "C6",
                    "ticks": 114048,
                    "time": 148.5,
                    "velocity": 0.33858267716535434
                },
                {
                    "duration": 0.75,
                    "durationTicks": 576,
                    "midi": 80,
                    "name": "G#5",
                    "ticks": 114048,
                    "time": 148.5,
                    "velocity": 0.33858267716535434
                },
                {
                    "duration": 0.25,
                    "durationTicks": 192,
                    "midi": 94,
                    "name": "A#6",
                    "ticks": 114624,
                    "time": 149.25,
                    "velocity": 0.33858267716535434
                },
                {
                    "duration": 0.25,
                    "durationTicks": 192,
                    "midi": 89,
                    "name": "F6",
                    "ticks": 114624,
                    "time": 149.25,
                    "velocity": 0.33858267716535434
                },
                {
                    "duration": 0.25,
                    "durationTicks": 192,
                    "midi": 82,
                    "name": "A#5",
                    "ticks": 114624,
                    "time": 149.25,
                    "velocity": 0.33858267716535434
                },
                {
                    "duration": 0.5,
                    "durationTicks": 384,
                    "midi": 77,
                    "name": "F5",
                    "ticks": 114816,
                    "time": 149.5,
                    "velocity": 0.33858267716535434
                },
                {
                    "duration": 0.5,
                    "durationTicks": 384,
                    "midi": 70,
                    "name": "A#4",
                    "ticks": 114816,
                    "time": 149.5,
                    "velocity": 0.33858267716535434
                },
                {
                    "duration": 0.5,
                    "durationTicks": 384,
                    "midi": 89,
                    "name": "F6",
                    "ticks": 114816,
                    "time": 149.5,
                    "velocity": 0.33858267716535434
                },
                {
                    "duration": 0.5,
                    "durationTicks": 384,
                    "midi": 84,
                    "name": "C6",
                    "ticks": 114816,
                    "time": 149.5,
                    "velocity": 0.33858267716535434
                },
                {
                    "duration": 3.5,
                    "durationTicks": 2688,
                    "midi": 77,
                    "name": "F5",
                    "ticks": 114816,
                    "time": 149.5,
                    "velocity": 0.33858267716535434
                },
                {
                    "duration": 0.25,
                    "durationTicks": 192,
                    "midi": 92,
                    "name": "G#6",
                    "ticks": 115200,
                    "time": 150,
                    "velocity": 0.33858267716535434
                },
                {
                    "duration": 0.25,
                    "durationTicks": 192,
                    "midi": 92,
                    "name": "G#6",
                    "ticks": 115392,
                    "time": 150.25,
                    "velocity": 0.33858267716535434
                },
                {
                    "duration": 0.25,
                    "durationTicks": 192,
                    "midi": 92,
                    "name": "G#6",
                    "ticks": 115584,
                    "time": 150.5,
                    "velocity": 0.33858267716535434
                },
                {
                    "duration": 0.25,
                    "durationTicks": 192,
                    "midi": 92,
                    "name": "G#6",
                    "ticks": 115776,
                    "time": 150.75,
                    "velocity": 0.33858267716535434
                },
                {
                    "duration": 0.25,
                    "durationTicks": 192,
                    "midi": 92,
                    "name": "G#6",
                    "ticks": 115968,
                    "time": 151,
                    "velocity": 0.33858267716535434
                },
                {
                    "duration": 0.25,
                    "durationTicks": 192,
                    "midi": 92,
                    "name": "G#6",
                    "ticks": 116160,
                    "time": 151.25,
                    "velocity": 0.33858267716535434
                },
                {
                    "duration": 0.25,
                    "durationTicks": 192,
                    "midi": 92,
                    "name": "G#6",
                    "ticks": 116352,
                    "time": 151.5,
                    "velocity": 0.33858267716535434
                },
                {
                    "duration": 0.5,
                    "durationTicks": 384,
                    "midi": 94,
                    "name": "A#6",
                    "ticks": 116544,
                    "time": 151.75,
                    "velocity": 0.33858267716535434
                },
                {
                    "duration": 0.5,
                    "durationTicks": 384,
                    "midi": 89,
                    "name": "F6",
                    "ticks": 116544,
                    "time": 151.75,
                    "velocity": 0.33858267716535434
                },
                {
                    "duration": 0.5,
                    "durationTicks": 384,
                    "midi": 82,
                    "name": "A#5",
                    "ticks": 116544,
                    "time": 151.75,
                    "velocity": 0.33858267716535434
                },
                {
                    "duration": 0.75,
                    "durationTicks": 576,
                    "midi": 89,
                    "name": "F6",
                    "ticks": 116928,
                    "time": 152.25,
                    "velocity": 0.33858267716535434
                },
                {
                    "duration": 0.75,
                    "durationTicks": 576,
                    "midi": 82,
                    "name": "A#5",
                    "ticks": 116928,
                    "time": 152.25,
                    "velocity": 0.33858267716535434
                },
                {
                    "duration": 1.25,
                    "durationTicks": 960,
                    "midi": 73,
                    "name": "C#5",
                    "ticks": 116928,
                    "time": 152.25,
                    "velocity": 0.33858267716535434
                },
                {
                    "duration": 1.25,
                    "durationTicks": 960,
                    "midi": 70,
                    "name": "A#4",
                    "ticks": 116928,
                    "time": 152.25,
                    "velocity": 0.33858267716535434
                },
                {
                    "duration": 1.25,
                    "durationTicks": 960,
                    "midi": 65,
                    "name": "F4",
                    "ticks": 116928,
                    "time": 152.25,
                    "velocity": 0.33858267716535434
                },
                {
                    "duration": 3.5,
                    "durationTicks": 2688,
                    "midi": 77,
                    "name": "F5",
                    "ticks": 116928,
                    "time": 152.25,
                    "velocity": 0.33858267716535434
                },
                {
                    "duration": 0.25,
                    "durationTicks": 192,
                    "midi": 94,
                    "name": "A#6",
                    "ticks": 117504,
                    "time": 153,
                    "velocity": 0.33858267716535434
                },
                {
                    "duration": 0.25,
                    "durationTicks": 192,
                    "midi": 87,
                    "name": "D#6",
                    "ticks": 117696,
                    "time": 153.25,
                    "velocity": 0.33858267716535434
                },
                {
                    "duration": 0.5,
                    "durationTicks": 384,
                    "midi": 89,
                    "name": "F6",
                    "ticks": 117888,
                    "time": 153.5,
                    "velocity": 0.33858267716535434
                },
                {
                    "duration": 2.25,
                    "durationTicks": 1728,
                    "midi": 73,
                    "name": "C#5",
                    "ticks": 117888,
                    "time": 153.5,
                    "velocity": 0.33858267716535434
                },
                {
                    "duration": 3.25,
                    "durationTicks": 2496,
                    "midi": 77,
                    "name": "F5",
                    "ticks": 117888,
                    "time": 153.5,
                    "velocity": 0.33858267716535434
                },
                {
                    "duration": 0.25,
                    "durationTicks": 192,
                    "midi": 92,
                    "name": "G#6",
                    "ticks": 118272,
                    "time": 154,
                    "velocity": 0.33858267716535434
                },
                {
                    "duration": 0.25,
                    "durationTicks": 192,
                    "midi": 92,
                    "name": "G#6",
                    "ticks": 118464,
                    "time": 154.25,
                    "velocity": 0.33858267716535434
                },
                {
                    "duration": 0.25,
                    "durationTicks": 192,
                    "midi": 92,
                    "name": "G#6",
                    "ticks": 118656,
                    "time": 154.5,
                    "velocity": 0.33858267716535434
                },
                {
                    "duration": 0.25,
                    "durationTicks": 192,
                    "midi": 92,
                    "name": "G#6",
                    "ticks": 118848,
                    "time": 154.75,
                    "velocity": 0.33858267716535434
                },
                {
                    "duration": 0.25,
                    "durationTicks": 192,
                    "midi": 92,
                    "name": "G#6",
                    "ticks": 119040,
                    "time": 155,
                    "velocity": 0.33858267716535434
                },
                {
                    "duration": 0.25,
                    "durationTicks": 192,
                    "midi": 89,
                    "name": "F6",
                    "ticks": 119232,
                    "time": 155.25,
                    "velocity": 0.33858267716535434
                },
                {
                    "duration": 0.25,
                    "durationTicks": 192,
                    "midi": 92,
                    "name": "G#6",
                    "ticks": 119424,
                    "time": 155.5,
                    "velocity": 0.33858267716535434
                },
                {
                    "duration": 0.5,
                    "durationTicks": 384,
                    "midi": 94,
                    "name": "A#6",
                    "ticks": 119616,
                    "time": 155.75,
                    "velocity": 0.33858267716535434
                },
                {
                    "duration": 0.5,
                    "durationTicks": 384,
                    "midi": 89,
                    "name": "F6",
                    "ticks": 119616,
                    "time": 155.75,
                    "velocity": 0.33858267716535434
                },
                {
                    "duration": 0.5,
                    "durationTicks": 384,
                    "midi": 82,
                    "name": "A#5",
                    "ticks": 119616,
                    "time": 155.75,
                    "velocity": 0.33858267716535434
                },
                {
                    "duration": 1.75,
                    "durationTicks": 1344,
                    "midi": 73,
                    "name": "C#5",
                    "ticks": 119616,
                    "time": 155.75,
                    "velocity": 0.33858267716535434
                },
                {
                    "duration": 1.75,
                    "durationTicks": 1344,
                    "midi": 70,
                    "name": "A#4",
                    "ticks": 119616,
                    "time": 155.75,
                    "velocity": 0.33858267716535434
                },
                {
                    "duration": 1.75,
                    "durationTicks": 1344,
                    "midi": 65,
                    "name": "F4",
                    "ticks": 119616,
                    "time": 155.75,
                    "velocity": 0.33858267716535434
                },
                {
                    "duration": 0.5,
                    "durationTicks": 384,
                    "midi": 89,
                    "name": "F6",
                    "ticks": 120000,
                    "time": 156.25,
                    "velocity": 0.33858267716535434
                },
                {
                    "duration": 0.5,
                    "durationTicks": 384,
                    "midi": 82,
                    "name": "A#5",
                    "ticks": 120000,
                    "time": 156.25,
                    "velocity": 0.33858267716535434
                },
                {
                    "duration": 3.5,
                    "durationTicks": 2688,
                    "midi": 77,
                    "name": "F5",
                    "ticks": 120000,
                    "time": 156.25,
                    "velocity": 0.33858267716535434
                },
                {
                    "duration": 0.5,
                    "durationTicks": 384,
                    "midi": 87,
                    "name": "D#6",
                    "ticks": 120384,
                    "time": 156.75,
                    "velocity": 0.33858267716535434
                },
                {
                    "duration": 0.25,
                    "durationTicks": 192,
                    "midi": 89,
                    "name": "F6",
                    "ticks": 120768,
                    "time": 157.25,
                    "velocity": 0.33858267716535434
                },
                {
                    "duration": 0.75,
                    "durationTicks": 576,
                    "midi": 94,
                    "name": "A#6",
                    "ticks": 120960,
                    "time": 157.5,
                    "velocity": 0.33858267716535434
                },
                {
                    "duration": 2.25,
                    "durationTicks": 1728,
                    "midi": 82,
                    "name": "A#5",
                    "ticks": 120960,
                    "time": 157.5,
                    "velocity": 0.33858267716535434
                },
                {
                    "duration": 4,
                    "durationTicks": 3072,
                    "midi": 77,
                    "name": "F5",
                    "ticks": 120960,
                    "time": 157.5,
                    "velocity": 0.33858267716535434
                },
                {
                    "duration": 0.25,
                    "durationTicks": 192,
                    "midi": 89,
                    "name": "F6",
                    "ticks": 121536,
                    "time": 158.25,
                    "velocity": 0.33858267716535434
                },
                {
                    "duration": 0.25,
                    "durationTicks": 192,
                    "midi": 85,
                    "name": "C#6",
                    "ticks": 121728,
                    "time": 158.5,
                    "velocity": 0.33858267716535434
                },
                {
                    "duration": 0.25,
                    "durationTicks": 192,
                    "midi": 89,
                    "name": "F6",
                    "ticks": 121920,
                    "time": 158.75,
                    "velocity": 0.33858267716535434
                },
                {
                    "duration": 0.25,
                    "durationTicks": 192,
                    "midi": 87,
                    "name": "D#6",
                    "ticks": 122112,
                    "time": 159,
                    "velocity": 0.33858267716535434
                },
                {
                    "duration": 0.25,
                    "durationTicks": 192,
                    "midi": 85,
                    "name": "C#6",
                    "ticks": 122304,
                    "time": 159.25,
                    "velocity": 0.33858267716535434
                },
                {
                    "duration": 0.25,
                    "durationTicks": 192,
                    "midi": 84,
                    "name": "C6",
                    "ticks": 122496,
                    "time": 159.5,
                    "velocity": 0.33858267716535434
                },
                {
                    "duration": 0.5,
                    "durationTicks": 384,
                    "midi": 82,
                    "name": "A#5",
                    "ticks": 122688,
                    "time": 159.75,
                    "velocity": 0.33858267716535434
                },
                {
                    "duration": 1.75,
                    "durationTicks": 1344,
                    "midi": 70,
                    "name": "A#4",
                    "ticks": 122688,
                    "time": 159.75,
                    "velocity": 0.33858267716535434
                },
                {
                    "duration": 4,
                    "durationTicks": 3072,
                    "midi": 77,
                    "name": "F5",
                    "ticks": 122688,
                    "time": 159.75,
                    "velocity": 0.33858267716535434
                },
                {
                    "duration": 0.5,
                    "durationTicks": 384,
                    "midi": 85,
                    "name": "C#6",
                    "ticks": 123072,
                    "time": 160.25,
                    "velocity": 0.33858267716535434
                },
                {
                    "duration": 0.5,
                    "durationTicks": 384,
                    "midi": 87,
                    "name": "D#6",
                    "ticks": 123456,
                    "time": 160.75,
                    "velocity": 0.33858267716535434
                },
                {
                    "duration": 0.25,
                    "durationTicks": 192,
                    "midi": 89,
                    "name": "F6",
                    "ticks": 123840,
                    "time": 161.25,
                    "velocity": 0.33858267716535434
                },
                {
                    "duration": 0.5,
                    "durationTicks": 384,
                    "midi": 92,
                    "name": "G#6",
                    "ticks": 124032,
                    "time": 161.5,
                    "velocity": 0.33858267716535434
                },
                {
                    "duration": 2.25,
                    "durationTicks": 1728,
                    "midi": 73,
                    "name": "C#5",
                    "ticks": 124032,
                    "time": 161.5,
                    "velocity": 0.33858267716535434
                },
                {
                    "duration": 4,
                    "durationTicks": 3072,
                    "midi": 77,
                    "name": "F5",
                    "ticks": 124032,
                    "time": 161.5,
                    "velocity": 0.33858267716535434
                },
                {
                    "duration": 0.25,
                    "durationTicks": 192,
                    "midi": 89,
                    "name": "F6",
                    "ticks": 124416,
                    "time": 162,
                    "velocity": 0.33858267716535434
                },
                {
                    "duration": 0.5,
                    "durationTicks": 384,
                    "midi": 87,
                    "name": "D#6",
                    "ticks": 124608,
                    "time": 162.25,
                    "velocity": 0.33858267716535434
                },
                {
                    "duration": 0.5,
                    "durationTicks": 384,
                    "midi": 87,
                    "name": "D#6",
                    "ticks": 124992,
                    "time": 162.75,
                    "velocity": 0.33858267716535434
                },
                {
                    "duration": 0.5,
                    "durationTicks": 384,
                    "midi": 80,
                    "name": "G#5",
                    "ticks": 125376,
                    "time": 163.25,
                    "velocity": 0.33858267716535434
                },
                {
                    "duration": 0.5,
                    "durationTicks": 384,
                    "midi": 96,
                    "name": "C7",
                    "ticks": 125760,
                    "time": 163.75,
                    "velocity": 0.33858267716535434
                },
                {
                    "duration": 0.5,
                    "durationTicks": 384,
                    "midi": 89,
                    "name": "F6",
                    "ticks": 125760,
                    "time": 163.75,
                    "velocity": 0.33858267716535434
                },
                {
                    "duration": 0.5,
                    "durationTicks": 384,
                    "midi": 84,
                    "name": "C6",
                    "ticks": 125760,
                    "time": 163.75,
                    "velocity": 0.33858267716535434
                },
                {
                    "duration": 1.75,
                    "durationTicks": 1344,
                    "midi": 72,
                    "name": "C5",
                    "ticks": 125760,
                    "time": 163.75,
                    "velocity": 0.33858267716535434
                },
                {
                    "duration": 1.75,
                    "durationTicks": 1344,
                    "midi": 65,
                    "name": "F4",
                    "ticks": 125760,
                    "time": 163.75,
                    "velocity": 0.33858267716535434
                },
                {
                    "duration": 0.25,
                    "durationTicks": 192,
                    "midi": 97,
                    "name": "C#7",
                    "ticks": 126144,
                    "time": 164.25,
                    "velocity": 0.33858267716535434
                },
                {
                    "duration": 0.25,
                    "durationTicks": 192,
                    "midi": 92,
                    "name": "G#6",
                    "ticks": 126144,
                    "time": 164.25,
                    "velocity": 0.33858267716535434
                },
                {
                    "duration": 0.25,
                    "durationTicks": 192,
                    "midi": 85,
                    "name": "C#6",
                    "ticks": 126144,
                    "time": 164.25,
                    "velocity": 0.33858267716535434
                },
                {
                    "duration": 0.75,
                    "durationTicks": 576,
                    "midi": 92,
                    "name": "G#6",
                    "ticks": 126336,
                    "time": 164.5,
                    "velocity": 0.33858267716535434
                },
                {
                    "duration": 0.75,
                    "durationTicks": 576,
                    "midi": 84,
                    "name": "C6",
                    "ticks": 126336,
                    "time": 164.5,
                    "velocity": 0.33858267716535434
                },
                {
                    "duration": 0.75,
                    "durationTicks": 576,
                    "midi": 80,
                    "name": "G#5",
                    "ticks": 126336,
                    "time": 164.5,
                    "velocity": 0.33858267716535434
                },
                {
                    "duration": 0.25,
                    "durationTicks": 192,
                    "midi": 94,
                    "name": "A#6",
                    "ticks": 126912,
                    "time": 165.25,
                    "velocity": 0.33858267716535434
                },
                {
                    "duration": 0.25,
                    "durationTicks": 192,
                    "midi": 89,
                    "name": "F6",
                    "ticks": 126912,
                    "time": 165.25,
                    "velocity": 0.33858267716535434
                },
                {
                    "duration": 0.25,
                    "durationTicks": 192,
                    "midi": 82,
                    "name": "A#5",
                    "ticks": 126912,
                    "time": 165.25,
                    "velocity": 0.33858267716535434
                },
                {
                    "duration": 0.5,
                    "durationTicks": 384,
                    "midi": 77,
                    "name": "F5",
                    "ticks": 127104,
                    "time": 165.5,
                    "velocity": 0.33858267716535434
                },
                {
                    "duration": 0.5,
                    "durationTicks": 384,
                    "midi": 70,
                    "name": "A#4",
                    "ticks": 127104,
                    "time": 165.5,
                    "velocity": 0.33858267716535434
                },
                {
                    "duration": 0.5,
                    "durationTicks": 384,
                    "midi": 89,
                    "name": "F6",
                    "ticks": 127104,
                    "time": 165.5,
                    "velocity": 0.33858267716535434
                },
                {
                    "duration": 0.5,
                    "durationTicks": 384,
                    "midi": 84,
                    "name": "C6",
                    "ticks": 127104,
                    "time": 165.5,
                    "velocity": 0.33858267716535434
                },
                {
                    "duration": 1.75,
                    "durationTicks": 1344,
                    "midi": 77,
                    "name": "F5",
                    "ticks": 127104,
                    "time": 165.5,
                    "velocity": 0.33858267716535434
                },
                {
                    "duration": 0.5,
                    "durationTicks": 384,
                    "midi": 87,
                    "name": "D#6",
                    "ticks": 127488,
                    "time": 166,
                    "velocity": 0.33858267716535434
                },
                {
                    "duration": 1.25,
                    "durationTicks": 960,
                    "midi": 70,
                    "name": "A#4",
                    "ticks": 127488,
                    "time": 166,
                    "velocity": 0.33858267716535434
                },
                {
                    "duration": 0.5,
                    "durationTicks": 384,
                    "midi": 87,
                    "name": "D#6",
                    "ticks": 127872,
                    "time": 166.5,
                    "velocity": 0.33858267716535434
                },
                {
                    "duration": 1,
                    "durationTicks": 768,
                    "midi": 87,
                    "name": "D#6",
                    "ticks": 128256,
                    "time": 167,
                    "velocity": 0.33858267716535434
                },
                {
                    "duration": 0.25,
                    "durationTicks": 192,
                    "midi": 85,
                    "name": "C#6",
                    "ticks": 128448,
                    "time": 167.25,
                    "velocity": 0.33858267716535434
                },
                {
                    "duration": 0.25,
                    "durationTicks": 192,
                    "midi": 92,
                    "name": "G#6",
                    "ticks": 128640,
                    "time": 167.5,
                    "velocity": 0.33858267716535434
                },
                {
                    "duration": 0.25,
                    "durationTicks": 192,
                    "midi": 85,
                    "name": "C#6",
                    "ticks": 128832,
                    "time": 167.75,
                    "velocity": 0.33858267716535434
                }
            ],
            "endOfTrackTicks": 129024
        }
    ]
}
