{
    "header": {
        "keySignatures": [],
        "meta": [],
        "name": "Elec. Piano (Classic)",
        "ppq": 384,
        "tempos": [
            {
                "bpm": 150,
                "ticks": 0
            }
        ],
        "timeSignatures": [
            {
                "ticks": 0,
                "timeSignature": [4, 4],
                "measures": 0
            }
        ]
    },
    "tracks": [
        {
            "channel": 0,
            "controlChanges": {},
            "pitchBends": [],
            "instrument": {
                "family": "piano",
                "number": 0,
                "name": "acoustic grand piano"
            },
            "name": "Elec. Piano (Classic)",
            "notes": [
                {
                    "duration": 0.2,
                    "durationTicks": 192,
                    "midi": 84,
                    "name": "C6",
                    "ticks": 0,
                    "time": 0,
                    "velocity": 0.1732283464566929
                },
                {
                    "duration": 0.4000000000000001,
                    "durationTicks": 384,
                    "midi": 86,
                    "name": "D6",
                    "ticks": 192,
                    "time": 0.2,
                    "velocity": 0.2125984251968504
                },
                {
                    "duration": 0.4000000000000001,
                    "durationTicks": 384,
                    "midi": 65,
                    "name": "F4",
                    "ticks": 192,
                    "time": 0.2,
                    "velocity": 0.2047244094488189
                },
                {
                    "duration": 0.3999999999999999,
                    "durationTicks": 384,
                    "midi": 84,
                    "name": "C6",
                    "ticks": 576,
                    "time": 0.6000000000000001,
                    "velocity": 0.18110236220472442
                },
                {
                    "duration": 0.3999999999999999,
                    "durationTicks": 384,
                    "midi": 72,
                    "name": "C5",
                    "ticks": 576,
                    "time": 0.6000000000000001,
                    "velocity": 0.11023622047244094
                },
                {
                    "duration": 0.20000000000000018,
                    "durationTicks": 192,
                    "midi": 83,
                    "name": "B5",
                    "ticks": 960,
                    "time": 1,
                    "velocity": 0.1889763779527559
                },
                {
                    "duration": 0.8,
                    "durationTicks": 768,
                    "midi": 77,
                    "name": "F5",
                    "ticks": 960,
                    "time": 1,
                    "velocity": 0.1732283464566929
                },
                {
                    "duration": 0.3999999999999999,
                    "durationTicks": 384,
                    "midi": 81,
                    "name": "A5",
                    "ticks": 1152,
                    "time": 1.2000000000000002,
                    "velocity": 0.1968503937007874
                },
                {
                    "duration": 0.3999999999999999,
                    "durationTicks": 384,
                    "midi": 86,
                    "name": "D6",
                    "ticks": 1536,
                    "time": 1.6,
                    "velocity": 0.1732283464566929
                },
                {
                    "duration": 0.40000000000000013,
                    "durationTicks": 384,
                    "midi": 67,
                    "name": "G4",
                    "ticks": 1728,
                    "time": 1.8,
                    "velocity": 0.14173228346456693
                },
                {
                    "duration": 0.40000000000000036,
                    "durationTicks": 384,
                    "midi": 84,
                    "name": "C6",
                    "ticks": 1920,
                    "time": 2,
                    "velocity": 0.18110236220472442
                },
                {
                    "duration": 0.3999999999999999,
                    "durationTicks": 384,
                    "midi": 74,
                    "name": "D5",
                    "ticks": 2112,
                    "time": 2.2,
                    "velocity": 0.12598425196850394
                },
                {
                    "duration": 0.3999999999999999,
                    "durationTicks": 384,
                    "midi": 83,
                    "name": "B5",
                    "ticks": 2304,
                    "time": 2.4000000000000004,
                    "velocity": 0.16535433070866143
                },
                {
                    "duration": 0.8000000000000003,
                    "durationTicks": 768,
                    "midi": 79,
                    "name": "G5",
                    "ticks": 2496,
                    "time": 2.6,
                    "velocity": 0.12598425196850394
                },
                {
                    "duration": 0.3999999999999999,
                    "durationTicks": 384,
                    "midi": 81,
                    "name": "A5",
                    "ticks": 2688,
                    "time": 2.8000000000000003,
                    "velocity": 0.1968503937007874
                },
                {
                    "duration": 0.20000000000000018,
                    "durationTicks": 192,
                    "midi": 81,
                    "name": "A5",
                    "ticks": 3072,
                    "time": 3.2,
                    "velocity": 0.2047244094488189
                },
                {
                    "duration": 0.3999999999999999,
                    "durationTicks": 384,
                    "midi": 64,
                    "name": "E4",
                    "ticks": 3264,
                    "time": 3.4000000000000004,
                    "velocity": 0.12598425196850394
                },
                {
                    "duration": 0.5999999999999996,
                    "durationTicks": 576,
                    "midi": 79,
                    "name": "G5",
                    "ticks": 3264,
                    "time": 3.4000000000000004,
                    "velocity": 0.2047244094488189
                },
                {
                    "duration": 0.3999999999999999,
                    "durationTicks": 384,
                    "midi": 72,
                    "name": "C5",
                    "ticks": 3648,
                    "time": 3.8000000000000003,
                    "velocity": 0.14960629921259844
                },
                {
                    "duration": 0.20000000000000018,
                    "durationTicks": 192,
                    "midi": 77,
                    "name": "F5",
                    "ticks": 3840,
                    "time": 4,
                    "velocity": 0.2047244094488189
                },
                {
                    "duration": 0.40000000000000036,
                    "durationTicks": 384,
                    "midi": 77,
                    "name": "F5",
                    "ticks": 4032,
                    "time": 4.2,
                    "velocity": 0.1968503937007874
                },
                {
                    "duration": 0.40000000000000036,
                    "durationTicks": 384,
                    "midi": 71,
                    "name": "B4",
                    "ticks": 4032,
                    "time": 4.2,
                    "velocity": 0.11811023622047244
                },
                {
                    "duration": 0.20000000000000018,
                    "durationTicks": 192,
                    "midi": 79,
                    "name": "G5",
                    "ticks": 4416,
                    "time": 4.6000000000000005,
                    "velocity": 0.2125984251968504
                },
                {
                    "duration": 0.39999999999999947,
                    "durationTicks": 384,
                    "midi": 67,
                    "name": "G4",
                    "ticks": 4416,
                    "time": 4.6000000000000005,
                    "velocity": 0.16535433070866143
                },
                {
                    "duration": 1.5,
                    "durationTicks": 1440,
                    "midi": 76,
                    "name": "E5",
                    "ticks": 4608,
                    "time": 4.800000000000001,
                    "velocity": 0.1889763779527559
                },
                {
                    "duration": 0.40000000000000036,
                    "durationTicks": 384,
                    "midi": 60,
                    "name": "C4",
                    "ticks": 4800,
                    "time": 5,
                    "velocity": 0.11811023622047244
                },
                {
                    "duration": 0.40000000000000036,
                    "durationTicks": 384,
                    "midi": 67,
                    "name": "G4",
                    "ticks": 5184,
                    "time": 5.4,
                    "velocity": 0.15748031496062992
                },
                {
                    "duration": 0.7999999999999998,
                    "durationTicks": 768,
                    "midi": 64,
                    "name": "E4",
                    "ticks": 5568,
                    "time": 5.800000000000001,
                    "velocity": 0.13385826771653545
                },
                {
                    "duration": 0.20000000000000018,
                    "durationTicks": 192,
                    "midi": 76,
                    "name": "E5",
                    "ticks": 6144,
                    "time": 6.4,
                    "velocity": 0.2283464566929134
                },
                {
                    "duration": 0.39999999999999947,
                    "durationTicks": 384,
                    "midi": 64,
                    "name": "E4",
                    "ticks": 6336,
                    "time": 6.6000000000000005,
                    "velocity": 0.2047244094488189
                },
                {
                    "duration": 0.39999999999999947,
                    "durationTicks": 384,
                    "midi": 72,
                    "name": "C5",
                    "ticks": 6336,
                    "time": 6.6000000000000005,
                    "velocity": 0.2125984251968504
                },
                {
                    "duration": 0.39999999999999947,
                    "durationTicks": 384,
                    "midi": 76,
                    "name": "E5",
                    "ticks": 6336,
                    "time": 6.6000000000000005,
                    "velocity": 0.25984251968503935
                },
                {
                    "duration": 0.39999999999999947,
                    "durationTicks": 384,
                    "midi": 41,
                    "name": "F2",
                    "ticks": 6336,
                    "time": 6.6000000000000005,
                    "velocity": 0.1968503937007874
                },
                {
                    "duration": 0.39999999999999947,
                    "durationTicks": 384,
                    "midi": 53,
                    "name": "F3",
                    "ticks": 6336,
                    "time": 6.6000000000000005,
                    "velocity": 0.23622047244094488
                },
                {
                    "duration": 0.20000000000000018,
                    "durationTicks": 192,
                    "midi": 76,
                    "name": "E5",
                    "ticks": 6720,
                    "time": 7,
                    "velocity": 0.2677165354330709
                },
                {
                    "duration": 0.20000000000000018,
                    "durationTicks": 192,
                    "midi": 53,
                    "name": "F3",
                    "ticks": 6720,
                    "time": 7,
                    "velocity": 0.2204724409448819
                },
                {
                    "duration": 0.40000000000000036,
                    "durationTicks": 384,
                    "midi": 72,
                    "name": "C5",
                    "ticks": 6912,
                    "time": 7.2,
                    "velocity": 0.2440944881889764
                },
                {
                    "duration": 0.40000000000000036,
                    "durationTicks": 384,
                    "midi": 76,
                    "name": "E5",
                    "ticks": 6912,
                    "time": 7.2,
                    "velocity": 0.2677165354330709
                },
                {
                    "duration": 0.6000000000000005,
                    "durationTicks": 576,
                    "midi": 57,
                    "name": "A3",
                    "ticks": 6912,
                    "time": 7.2,
                    "velocity": 0.2283464566929134
                },
                {
                    "duration": 0.6000000000000005,
                    "durationTicks": 576,
                    "midi": 64,
                    "name": "E4",
                    "ticks": 6912,
                    "time": 7.2,
                    "velocity": 0.2125984251968504
                },
                {
                    "duration": 0.6000000000000005,
                    "durationTicks": 576,
                    "midi": 65,
                    "name": "F4",
                    "ticks": 6912,
                    "time": 7.2,
                    "velocity": 0.1968503937007874
                },
                {
                    "duration": 0.20000000000000018,
                    "durationTicks": 192,
                    "midi": 88,
                    "name": "E6",
                    "ticks": 7296,
                    "time": 7.6000000000000005,
                    "velocity": 0.25984251968503935
                },
                {
                    "duration": 0.40000000000000036,
                    "durationTicks": 384,
                    "midi": 84,
                    "name": "C6",
                    "ticks": 7488,
                    "time": 7.800000000000001,
                    "velocity": 0.25984251968503935
                },
                {
                    "duration": 0.40000000000000036,
                    "durationTicks": 384,
                    "midi": 88,
                    "name": "E6",
                    "ticks": 7488,
                    "time": 7.800000000000001,
                    "velocity": 0.25984251968503935
                },
                {
                    "duration": 0.40000000000000036,
                    "durationTicks": 384,
                    "midi": 69,
                    "name": "A4",
                    "ticks": 7488,
                    "time": 7.800000000000001,
                    "velocity": 0.23622047244094488
                },
                {
                    "duration": 0.40000000000000036,
                    "durationTicks": 384,
                    "midi": 72,
                    "name": "C5",
                    "ticks": 7488,
                    "time": 7.800000000000001,
                    "velocity": 0.2125984251968504
                },
                {
                    "duration": 0.40000000000000036,
                    "durationTicks": 384,
                    "midi": 76,
                    "name": "E5",
                    "ticks": 7488,
                    "time": 7.800000000000001,
                    "velocity": 0.25196850393700787
                },
                {
                    "duration": 0.40000000000000036,
                    "durationTicks": 384,
                    "midi": 77,
                    "name": "F5",
                    "ticks": 7488,
                    "time": 7.800000000000001,
                    "velocity": 0.2283464566929134
                },
                {
                    "duration": 0.1999999999999993,
                    "durationTicks": 192,
                    "midi": 74,
                    "name": "D5",
                    "ticks": 7872,
                    "time": 8.200000000000001,
                    "velocity": 0.2283464566929134
                },
                {
                    "duration": 0.5999999999999996,
                    "durationTicks": 576,
                    "midi": 57,
                    "name": "A3",
                    "ticks": 7872,
                    "time": 8.200000000000001,
                    "velocity": 0.23622047244094488
                },
                {
                    "duration": 0.5999999999999996,
                    "durationTicks": 576,
                    "midi": 60,
                    "name": "C4",
                    "ticks": 7872,
                    "time": 8.200000000000001,
                    "velocity": 0.2440944881889764
                },
                {
                    "duration": 0.5999999999999996,
                    "durationTicks": 576,
                    "midi": 64,
                    "name": "E4",
                    "ticks": 7872,
                    "time": 8.200000000000001,
                    "velocity": 0.2440944881889764
                },
                {
                    "duration": 0.5999999999999996,
                    "durationTicks": 576,
                    "midi": 69,
                    "name": "A4",
                    "ticks": 7872,
                    "time": 8.200000000000001,
                    "velocity": 0.25196850393700787
                },
                {
                    "duration": 0.1999999999999993,
                    "durationTicks": 192,
                    "midi": 76,
                    "name": "E5",
                    "ticks": 8064,
                    "time": 8.4,
                    "velocity": 0.2283464566929134
                },
                {
                    "duration": 0.20000000000000107,
                    "durationTicks": 192,
                    "midi": 72,
                    "name": "C5",
                    "ticks": 8256,
                    "time": 8.6,
                    "velocity": 0.2283464566929134
                },
                {
                    "duration": 0.1999999999999993,
                    "durationTicks": 192,
                    "midi": 74,
                    "name": "D5",
                    "ticks": 8448,
                    "time": 8.8,
                    "velocity": 0.2047244094488189
                },
                {
                    "duration": 0.9000000000000004,
                    "durationTicks": 864,
                    "midi": 57,
                    "name": "A3",
                    "ticks": 8448,
                    "time": 8.8,
                    "velocity": 0.2125984251968504
                },
                {
                    "duration": 0.9000000000000004,
                    "durationTicks": 864,
                    "midi": 60,
                    "name": "C4",
                    "ticks": 8448,
                    "time": 8.8,
                    "velocity": 0.2283464566929134
                },
                {
                    "duration": 0.9000000000000004,
                    "durationTicks": 864,
                    "midi": 64,
                    "name": "E4",
                    "ticks": 8448,
                    "time": 8.8,
                    "velocity": 0.23622047244094488
                },
                {
                    "duration": 0.9000000000000004,
                    "durationTicks": 864,
                    "midi": 69,
                    "name": "A4",
                    "ticks": 8448,
                    "time": 8.8,
                    "velocity": 0.2125984251968504
                },
                {
                    "duration": 0.20000000000000107,
                    "durationTicks": 192,
                    "midi": 76,
                    "name": "E5",
                    "ticks": 8640,
                    "time": 9,
                    "velocity": 0.16535433070866143
                },
                {
                    "duration": 0.40000000000000036,
                    "durationTicks": 384,
                    "midi": 72,
                    "name": "C5",
                    "ticks": 8832,
                    "time": 9.200000000000001,
                    "velocity": 0.1968503937007874
                },
                {
                    "duration": 0.1999999999999993,
                    "durationTicks": 192,
                    "midi": 84,
                    "name": "C6",
                    "ticks": 9216,
                    "time": 9.600000000000001,
                    "velocity": 0.2440944881889764
                },
                {
                    "duration": 0.40000000000000036,
                    "durationTicks": 384,
                    "midi": 83,
                    "name": "B5",
                    "ticks": 9408,
                    "time": 9.8,
                    "velocity": 0.2047244094488189
                },
                {
                    "duration": 0.40000000000000036,
                    "durationTicks": 384,
                    "midi": 79,
                    "name": "G5",
                    "ticks": 9408,
                    "time": 9.8,
                    "velocity": 0.23622047244094488
                },
                {
                    "duration": 0.5999999999999996,
                    "durationTicks": 576,
                    "midi": 67,
                    "name": "G4",
                    "ticks": 9408,
                    "time": 9.8,
                    "velocity": 0.1968503937007874
                },
                {
                    "duration": 0.5999999999999996,
                    "durationTicks": 576,
                    "midi": 74,
                    "name": "D5",
                    "ticks": 9408,
                    "time": 9.8,
                    "velocity": 0.2125984251968504
                },
                {
                    "duration": 0.1999999999999993,
                    "durationTicks": 192,
                    "midi": 83,
                    "name": "B5",
                    "ticks": 9792,
                    "time": 10.200000000000001,
                    "velocity": 0.2047244094488189
                },
                {
                    "duration": 0.1999999999999993,
                    "durationTicks": 192,
                    "midi": 79,
                    "name": "G5",
                    "ticks": 9792,
                    "time": 10.200000000000001,
                    "velocity": 0.16535433070866143
                },
                {
                    "duration": 0.40000000000000036,
                    "durationTicks": 384,
                    "midi": 83,
                    "name": "B5",
                    "ticks": 9984,
                    "time": 10.4,
                    "velocity": 0.2125984251968504
                },
                {
                    "duration": 0.40000000000000036,
                    "durationTicks": 384,
                    "midi": 79,
                    "name": "G5",
                    "ticks": 9984,
                    "time": 10.4,
                    "velocity": 0.1968503937007874
                },
                {
                    "duration": 0.5999999999999996,
                    "durationTicks": 576,
                    "midi": 67,
                    "name": "G4",
                    "ticks": 9984,
                    "time": 10.4,
                    "velocity": 0.1889763779527559
                },
                {
                    "duration": 0.5999999999999996,
                    "durationTicks": 576,
                    "midi": 74,
                    "name": "D5",
                    "ticks": 9984,
                    "time": 10.4,
                    "velocity": 0.2047244094488189
                },
                {
                    "duration": 0.1999999999999993,
                    "durationTicks": 192,
                    "midi": 84,
                    "name": "C6",
                    "ticks": 10368,
                    "time": 10.8,
                    "velocity": 0.2125984251968504
                },
                {
                    "duration": 0.40000000000000036,
                    "durationTicks": 384,
                    "midi": 76,
                    "name": "E5",
                    "ticks": 10560,
                    "time": 11,
                    "velocity": 0.2283464566929134
                },
                {
                    "duration": 0.40000000000000036,
                    "durationTicks": 384,
                    "midi": 84,
                    "name": "C6",
                    "ticks": 10560,
                    "time": 11,
                    "velocity": 0.2125984251968504
                },
                {
                    "duration": 0.40000000000000036,
                    "durationTicks": 384,
                    "midi": 38,
                    "name": "D2",
                    "ticks": 10560,
                    "time": 11,
                    "velocity": 0.1968503937007874
                },
                {
                    "duration": 0.40000000000000036,
                    "durationTicks": 384,
                    "midi": 50,
                    "name": "D3",
                    "ticks": 10560,
                    "time": 11,
                    "velocity": 0.1968503937007874
                },
                {
                    "duration": 0.20000000000000107,
                    "durationTicks": 192,
                    "midi": 79,
                    "name": "G5",
                    "ticks": 10944,
                    "time": 11.4,
                    "velocity": 0.2283464566929134
                },
                {
                    "duration": 0.5999999999999996,
                    "durationTicks": 576,
                    "midi": 45,
                    "name": "A2",
                    "ticks": 10944,
                    "time": 11.4,
                    "velocity": 0.1968503937007874
                },
                {
                    "duration": 0.5999999999999996,
                    "durationTicks": 576,
                    "midi": 57,
                    "name": "A3",
                    "ticks": 10944,
                    "time": 11.4,
                    "velocity": 0.2125984251968504
                },
                {
                    "duration": 0.1999999999999993,
                    "durationTicks": 192,
                    "midi": 81,
                    "name": "A5",
                    "ticks": 11136,
                    "time": 11.600000000000001,
                    "velocity": 0.23622047244094488
                },
                {
                    "duration": 0.1999999999999993,
                    "durationTicks": 192,
                    "midi": 84,
                    "name": "C6",
                    "ticks": 11328,
                    "time": 11.8,
                    "velocity": 0.1968503937007874
                },
                {
                    "duration": 0.40000000000000036,
                    "durationTicks": 384,
                    "midi": 86,
                    "name": "D6",
                    "ticks": 11520,
                    "time": 12,
                    "velocity": 0.2283464566929134
                },
                {
                    "duration": 0.9000000000000004,
                    "durationTicks": 864,
                    "midi": 57,
                    "name": "A3",
                    "ticks": 11520,
                    "time": 12,
                    "velocity": 0.1968503937007874
                },
                {
                    "duration": 0.9000000000000004,
                    "durationTicks": 864,
                    "midi": 60,
                    "name": "C4",
                    "ticks": 11520,
                    "time": 12,
                    "velocity": 0.2283464566929134
                },
                {
                    "duration": 0.9000000000000004,
                    "durationTicks": 864,
                    "midi": 64,
                    "name": "E4",
                    "ticks": 11520,
                    "time": 12,
                    "velocity": 0.18110236220472442
                },
                {
                    "duration": 0.9000000000000004,
                    "durationTicks": 864,
                    "midi": 67,
                    "name": "G4",
                    "ticks": 11520,
                    "time": 12,
                    "velocity": 0.18110236220472442
                },
                {
                    "duration": 0.40000000000000036,
                    "durationTicks": 384,
                    "midi": 84,
                    "name": "C6",
                    "ticks": 11904,
                    "time": 12.4,
                    "velocity": 0.2125984251968504
                },
                {
                    "duration": 0.1999999999999993,
                    "durationTicks": 192,
                    "midi": 84,
                    "name": "C6",
                    "ticks": 12288,
                    "time": 12.8,
                    "velocity": 0.23622047244094488
                },
                {
                    "duration": 0.40000000000000036,
                    "durationTicks": 384,
                    "midi": 86,
                    "name": "D6",
                    "ticks": 12480,
                    "time": 13,
                    "velocity": 0.2283464566929134
                },
                {
                    "duration": 0.6000000000000014,
                    "durationTicks": 576,
                    "midi": 53,
                    "name": "F3",
                    "ticks": 12480,
                    "time": 13,
                    "velocity": 0.2047244094488189
                },
                {
                    "duration": 0.6000000000000014,
                    "durationTicks": 576,
                    "midi": 57,
                    "name": "A3",
                    "ticks": 12480,
                    "time": 13,
                    "velocity": 0.2125984251968504
                },
                {
                    "duration": 0.6000000000000014,
                    "durationTicks": 576,
                    "midi": 60,
                    "name": "C4",
                    "ticks": 12480,
                    "time": 13,
                    "velocity": 0.2283464566929134
                },
                {
                    "duration": 0.6000000000000014,
                    "durationTicks": 576,
                    "midi": 64,
                    "name": "E4",
                    "ticks": 12480,
                    "time": 13,
                    "velocity": 0.2283464566929134
                },
                {
                    "duration": 0.40000000000000036,
                    "durationTicks": 384,
                    "midi": 84,
                    "name": "C6",
                    "ticks": 12864,
                    "time": 13.4,
                    "velocity": 0.1968503937007874
                },
                {
                    "duration": 0.8999999999999986,
                    "durationTicks": 864,
                    "midi": 53,
                    "name": "F3",
                    "ticks": 13056,
                    "time": 13.600000000000001,
                    "velocity": 0.2125984251968504
                },
                {
                    "duration": 0.8999999999999986,
                    "durationTicks": 864,
                    "midi": 57,
                    "name": "A3",
                    "ticks": 13056,
                    "time": 13.600000000000001,
                    "velocity": 0.2125984251968504
                },
                {
                    "duration": 0.8999999999999986,
                    "durationTicks": 864,
                    "midi": 60,
                    "name": "C4",
                    "ticks": 13056,
                    "time": 13.600000000000001,
                    "velocity": 0.1968503937007874
                },
                {
                    "duration": 0.8999999999999986,
                    "durationTicks": 864,
                    "midi": 64,
                    "name": "E4",
                    "ticks": 13056,
                    "time": 13.600000000000001,
                    "velocity": 0.2283464566929134
                },
                {
                    "duration": 0.1999999999999993,
                    "durationTicks": 192,
                    "midi": 83,
                    "name": "B5",
                    "ticks": 13248,
                    "time": 13.8,
                    "velocity": 0.1889763779527559
                },
                {
                    "duration": 0.40000000000000036,
                    "durationTicks": 384,
                    "midi": 81,
                    "name": "A5",
                    "ticks": 13440,
                    "time": 14,
                    "velocity": 0.2125984251968504
                },
                {
                    "duration": 0.40000000000000036,
                    "durationTicks": 384,
                    "midi": 86,
                    "name": "D6",
                    "ticks": 13824,
                    "time": 14.4,
                    "velocity": 0.25196850393700787
                },
                {
                    "duration": 0.5999999999999996,
                    "durationTicks": 576,
                    "midi": 52,
                    "name": "E3",
                    "ticks": 14016,
                    "time": 14.600000000000001,
                    "velocity": 0.2283464566929134
                },
                {
                    "duration": 0.5999999999999996,
                    "durationTicks": 576,
                    "midi": 57,
                    "name": "A3",
                    "ticks": 14016,
                    "time": 14.600000000000001,
                    "velocity": 0.2283464566929134
                },
                {
                    "duration": 0.5999999999999996,
                    "durationTicks": 576,
                    "midi": 60,
                    "name": "C4",
                    "ticks": 14016,
                    "time": 14.600000000000001,
                    "velocity": 0.2125984251968504
                },
                {
                    "duration": 0.5999999999999996,
                    "durationTicks": 576,
                    "midi": 64,
                    "name": "E4",
                    "ticks": 14016,
                    "time": 14.600000000000001,
                    "velocity": 0.2283464566929134
                },
                {
                    "duration": 0.40000000000000036,
                    "durationTicks": 384,
                    "midi": 84,
                    "name": "C6",
                    "ticks": 14208,
                    "time": 14.8,
                    "velocity": 0.2283464566929134
                },
                {
                    "duration": 0.40000000000000036,
                    "durationTicks": 384,
                    "midi": 83,
                    "name": "B5",
                    "ticks": 14592,
                    "time": 15.200000000000001,
                    "velocity": 0.2125984251968504
                },
                {
                    "duration": 0.9000000000000004,
                    "durationTicks": 864,
                    "midi": 52,
                    "name": "E3",
                    "ticks": 14592,
                    "time": 15.200000000000001,
                    "velocity": 0.2204724409448819
                },
                {
                    "duration": 0.9000000000000004,
                    "durationTicks": 864,
                    "midi": 57,
                    "name": "A3",
                    "ticks": 14592,
                    "time": 15.200000000000001,
                    "velocity": 0.2440944881889764
                },
                {
                    "duration": 0.9000000000000004,
                    "durationTicks": 864,
                    "midi": 60,
                    "name": "C4",
                    "ticks": 14592,
                    "time": 15.200000000000001,
                    "velocity": 0.2047244094488189
                },
                {
                    "duration": 0.9000000000000004,
                    "durationTicks": 864,
                    "midi": 64,
                    "name": "E4",
                    "ticks": 14592,
                    "time": 15.200000000000001,
                    "velocity": 0.2204724409448819
                },
                {
                    "duration": 0.3999999999999986,
                    "durationTicks": 384,
                    "midi": 81,
                    "name": "A5",
                    "ticks": 14976,
                    "time": 15.600000000000001,
                    "velocity": 0.1968503937007874
                },
                {
                    "duration": 0.1999999999999993,
                    "durationTicks": 192,
                    "midi": 81,
                    "name": "A5",
                    "ticks": 15360,
                    "time": 16,
                    "velocity": 0.23622047244094488
                },
                {
                    "duration": 0.6000000000000014,
                    "durationTicks": 576,
                    "midi": 79,
                    "name": "G5",
                    "ticks": 15552,
                    "time": 16.2,
                    "velocity": 0.23622047244094488
                },
                {
                    "duration": 0.6000000000000014,
                    "durationTicks": 576,
                    "midi": 55,
                    "name": "G3",
                    "ticks": 15552,
                    "time": 16.2,
                    "velocity": 0.2125984251968504
                },
                {
                    "duration": 0.6000000000000014,
                    "durationTicks": 576,
                    "midi": 59,
                    "name": "B3",
                    "ticks": 15552,
                    "time": 16.2,
                    "velocity": 0.2125984251968504
                },
                {
                    "duration": 0.6000000000000014,
                    "durationTicks": 576,
                    "midi": 62,
                    "name": "D4",
                    "ticks": 15552,
                    "time": 16.2,
                    "velocity": 0.2440944881889764
                },
                {
                    "duration": 0.6000000000000014,
                    "durationTicks": 576,
                    "midi": 67,
                    "name": "G4",
                    "ticks": 15552,
                    "time": 16.2,
                    "velocity": 0.2047244094488189
                },
                {
                    "duration": 0.1999999999999993,
                    "durationTicks": 192,
                    "midi": 77,
                    "name": "F5",
                    "ticks": 16128,
                    "time": 16.8,
                    "velocity": 0.2283464566929134
                },
                {
                    "duration": 0.8999999999999986,
                    "durationTicks": 864,
                    "midi": 55,
                    "name": "G3",
                    "ticks": 16128,
                    "time": 16.8,
                    "velocity": 0.1968503937007874
                },
                {
                    "duration": 0.8999999999999986,
                    "durationTicks": 864,
                    "midi": 59,
                    "name": "B3",
                    "ticks": 16128,
                    "time": 16.8,
                    "velocity": 0.1968503937007874
                },
                {
                    "duration": 0.8999999999999986,
                    "durationTicks": 864,
                    "midi": 62,
                    "name": "D4",
                    "ticks": 16128,
                    "time": 16.8,
                    "velocity": 0.2125984251968504
                },
                {
                    "duration": 0.8999999999999986,
                    "durationTicks": 864,
                    "midi": 67,
                    "name": "G4",
                    "ticks": 16128,
                    "time": 16.8,
                    "velocity": 0.2125984251968504
                },
                {
                    "duration": 0.40000000000000213,
                    "durationTicks": 384,
                    "midi": 77,
                    "name": "F5",
                    "ticks": 16320,
                    "time": 17,
                    "velocity": 0.2204724409448819
                },
                {
                    "duration": 0.1999999999999993,
                    "durationTicks": 192,
                    "midi": 79,
                    "name": "G5",
                    "ticks": 16704,
                    "time": 17.400000000000002,
                    "velocity": 0.2204724409448819
                },
                {
                    "duration": 1.5,
                    "durationTicks": 1440,
                    "midi": 76,
                    "name": "E5",
                    "ticks": 16896,
                    "time": 17.6,
                    "velocity": 0.23622047244094488
                },
                {
                    "duration": 0.6000000000000014,
                    "durationTicks": 576,
                    "midi": 57,
                    "name": "A3",
                    "ticks": 17088,
                    "time": 17.8,
                    "velocity": 0.2283464566929134
                },
                {
                    "duration": 0.6000000000000014,
                    "durationTicks": 576,
                    "midi": 60,
                    "name": "C4",
                    "ticks": 17088,
                    "time": 17.8,
                    "velocity": 0.1889763779527559
                },
                {
                    "duration": 0.6000000000000014,
                    "durationTicks": 576,
                    "midi": 64,
                    "name": "E4",
                    "ticks": 17088,
                    "time": 17.8,
                    "velocity": 0.2283464566929134
                },
                {
                    "duration": 0.8999999999999986,
                    "durationTicks": 864,
                    "midi": 57,
                    "name": "A3",
                    "ticks": 17664,
                    "time": 18.400000000000002,
                    "velocity": 0.2125984251968504
                },
                {
                    "duration": 0.8999999999999986,
                    "durationTicks": 864,
                    "midi": 60,
                    "name": "C4",
                    "ticks": 17664,
                    "time": 18.400000000000002,
                    "velocity": 0.1968503937007874
                },
                {
                    "duration": 0.8999999999999986,
                    "durationTicks": 864,
                    "midi": 64,
                    "name": "E4",
                    "ticks": 17664,
                    "time": 18.400000000000002,
                    "velocity": 0.2125984251968504
                },
                {
                    "duration": 0.1999999999999993,
                    "durationTicks": 192,
                    "midi": 76,
                    "name": "E5",
                    "ticks": 18432,
                    "time": 19.200000000000003,
                    "velocity": 0.2283464566929134
                },
                {
                    "duration": 0.3999999999999986,
                    "durationTicks": 384,
                    "midi": 64,
                    "name": "E4",
                    "ticks": 18624,
                    "time": 19.400000000000002,
                    "velocity": 0.2047244094488189
                },
                {
                    "duration": 0.3999999999999986,
                    "durationTicks": 384,
                    "midi": 72,
                    "name": "C5",
                    "ticks": 18624,
                    "time": 19.400000000000002,
                    "velocity": 0.2125984251968504
                },
                {
                    "duration": 0.3999999999999986,
                    "durationTicks": 384,
                    "midi": 76,
                    "name": "E5",
                    "ticks": 18624,
                    "time": 19.400000000000002,
                    "velocity": 0.25984251968503935
                },
                {
                    "duration": 0.3999999999999986,
                    "durationTicks": 384,
                    "midi": 41,
                    "name": "F2",
                    "ticks": 18624,
                    "time": 19.400000000000002,
                    "velocity": 0.2125984251968504
                },
                {
                    "duration": 0.3999999999999986,
                    "durationTicks": 384,
                    "midi": 53,
                    "name": "F3",
                    "ticks": 18624,
                    "time": 19.400000000000002,
                    "velocity": 0.25984251968503935
                },
                {
                    "duration": 0.1999999999999993,
                    "durationTicks": 192,
                    "midi": 76,
                    "name": "E5",
                    "ticks": 19008,
                    "time": 19.8,
                    "velocity": 0.2677165354330709
                },
                {
                    "duration": 0.1999999999999993,
                    "durationTicks": 192,
                    "midi": 53,
                    "name": "F3",
                    "ticks": 19008,
                    "time": 19.8,
                    "velocity": 0.2440944881889764
                },
                {
                    "duration": 0.40000000000000213,
                    "durationTicks": 384,
                    "midi": 72,
                    "name": "C5",
                    "ticks": 19200,
                    "time": 20,
                    "velocity": 0.2440944881889764
                },
                {
                    "duration": 0.40000000000000213,
                    "durationTicks": 384,
                    "midi": 76,
                    "name": "E5",
                    "ticks": 19200,
                    "time": 20,
                    "velocity": 0.2677165354330709
                },
                {
                    "duration": 0.6000000000000014,
                    "durationTicks": 576,
                    "midi": 57,
                    "name": "A3",
                    "ticks": 19200,
                    "time": 20,
                    "velocity": 0.2440944881889764
                },
                {
                    "duration": 0.6000000000000014,
                    "durationTicks": 576,
                    "midi": 64,
                    "name": "E4",
                    "ticks": 19200,
                    "time": 20,
                    "velocity": 0.2283464566929134
                },
                {
                    "duration": 0.6000000000000014,
                    "durationTicks": 576,
                    "midi": 65,
                    "name": "F4",
                    "ticks": 19200,
                    "time": 20,
                    "velocity": 0.2125984251968504
                },
                {
                    "duration": 0.1999999999999993,
                    "durationTicks": 192,
                    "midi": 88,
                    "name": "E6",
                    "ticks": 19584,
                    "time": 20.400000000000002,
                    "velocity": 0.25984251968503935
                },
                {
                    "duration": 0.3999999999999986,
                    "durationTicks": 384,
                    "midi": 84,
                    "name": "C6",
                    "ticks": 19776,
                    "time": 20.6,
                    "velocity": 0.25984251968503935
                },
                {
                    "duration": 0.3999999999999986,
                    "durationTicks": 384,
                    "midi": 88,
                    "name": "E6",
                    "ticks": 19776,
                    "time": 20.6,
                    "velocity": 0.25984251968503935
                },
                {
                    "duration": 0.3999999999999986,
                    "durationTicks": 384,
                    "midi": 69,
                    "name": "A4",
                    "ticks": 19776,
                    "time": 20.6,
                    "velocity": 0.23622047244094488
                },
                {
                    "duration": 0.3999999999999986,
                    "durationTicks": 384,
                    "midi": 72,
                    "name": "C5",
                    "ticks": 19776,
                    "time": 20.6,
                    "velocity": 0.2125984251968504
                },
                {
                    "duration": 0.3999999999999986,
                    "durationTicks": 384,
                    "midi": 76,
                    "name": "E5",
                    "ticks": 19776,
                    "time": 20.6,
                    "velocity": 0.25984251968503935
                },
                {
                    "duration": 0.3999999999999986,
                    "durationTicks": 384,
                    "midi": 77,
                    "name": "F5",
                    "ticks": 19776,
                    "time": 20.6,
                    "velocity": 0.2283464566929134
                },
                {
                    "duration": 0.20000000000000284,
                    "durationTicks": 192,
                    "midi": 74,
                    "name": "D5",
                    "ticks": 20160,
                    "time": 21,
                    "velocity": 0.2047244094488189
                },
                {
                    "duration": 0.6000000000000014,
                    "durationTicks": 576,
                    "midi": 57,
                    "name": "A3",
                    "ticks": 20160,
                    "time": 21,
                    "velocity": 0.23622047244094488
                },
                {
                    "duration": 0.6000000000000014,
                    "durationTicks": 576,
                    "midi": 60,
                    "name": "C4",
                    "ticks": 20160,
                    "time": 21,
                    "velocity": 0.2440944881889764
                },
                {
                    "duration": 0.6000000000000014,
                    "durationTicks": 576,
                    "midi": 64,
                    "name": "E4",
                    "ticks": 20160,
                    "time": 21,
                    "velocity": 0.2440944881889764
                },
                {
                    "duration": 0.6000000000000014,
                    "durationTicks": 576,
                    "midi": 69,
                    "name": "A4",
                    "ticks": 20160,
                    "time": 21,
                    "velocity": 0.25196850393700787
                },
                {
                    "duration": 0.1999999999999993,
                    "durationTicks": 192,
                    "midi": 76,
                    "name": "E5",
                    "ticks": 20352,
                    "time": 21.200000000000003,
                    "velocity": 0.2125984251968504
                },
                {
                    "duration": 0.1999999999999993,
                    "durationTicks": 192,
                    "midi": 72,
                    "name": "C5",
                    "ticks": 20544,
                    "time": 21.400000000000002,
                    "velocity": 0.2047244094488189
                },
                {
                    "duration": 0.1999999999999993,
                    "durationTicks": 192,
                    "midi": 74,
                    "name": "D5",
                    "ticks": 20736,
                    "time": 21.6,
                    "velocity": 0.2440944881889764
                },
                {
                    "duration": 0.8999999999999986,
                    "durationTicks": 864,
                    "midi": 57,
                    "name": "A3",
                    "ticks": 20736,
                    "time": 21.6,
                    "velocity": 0.2125984251968504
                },
                {
                    "duration": 0.8999999999999986,
                    "durationTicks": 864,
                    "midi": 60,
                    "name": "C4",
                    "ticks": 20736,
                    "time": 21.6,
                    "velocity": 0.2283464566929134
                },
                {
                    "duration": 0.8999999999999986,
                    "durationTicks": 864,
                    "midi": 64,
                    "name": "E4",
                    "ticks": 20736,
                    "time": 21.6,
                    "velocity": 0.23622047244094488
                },
                {
                    "duration": 0.8999999999999986,
                    "durationTicks": 864,
                    "midi": 69,
                    "name": "A4",
                    "ticks": 20736,
                    "time": 21.6,
                    "velocity": 0.2125984251968504
                },
                {
                    "duration": 0.1999999999999993,
                    "durationTicks": 192,
                    "midi": 76,
                    "name": "E5",
                    "ticks": 20928,
                    "time": 21.8,
                    "velocity": 0.1968503937007874
                },
                {
                    "duration": 0.40000000000000213,
                    "durationTicks": 384,
                    "midi": 72,
                    "name": "C5",
                    "ticks": 21120,
                    "time": 22,
                    "velocity": 0.2125984251968504
                },
                {
                    "duration": 0.1999999999999993,
                    "durationTicks": 192,
                    "midi": 84,
                    "name": "C6",
                    "ticks": 21504,
                    "time": 22.400000000000002,
                    "velocity": 0.25984251968503935
                },
                {
                    "duration": 0.3999999999999986,
                    "durationTicks": 384,
                    "midi": 79,
                    "name": "G5",
                    "ticks": 21696,
                    "time": 22.6,
                    "velocity": 0.2283464566929134
                },
                {
                    "duration": 0.3999999999999986,
                    "durationTicks": 384,
                    "midi": 83,
                    "name": "B5",
                    "ticks": 21696,
                    "time": 22.6,
                    "velocity": 0.1732283464566929
                },
                {
                    "duration": 0.6000000000000014,
                    "durationTicks": 576,
                    "midi": 67,
                    "name": "G4",
                    "ticks": 21696,
                    "time": 22.6,
                    "velocity": 0.2125984251968504
                },
                {
                    "duration": 0.6000000000000014,
                    "durationTicks": 576,
                    "midi": 74,
                    "name": "D5",
                    "ticks": 21696,
                    "time": 22.6,
                    "velocity": 0.2283464566929134
                },
                {
                    "duration": 0.20000000000000284,
                    "durationTicks": 192,
                    "midi": 79,
                    "name": "G5",
                    "ticks": 22080,
                    "time": 23,
                    "velocity": 0.1968503937007874
                },
                {
                    "duration": 0.20000000000000284,
                    "durationTicks": 192,
                    "midi": 83,
                    "name": "B5",
                    "ticks": 22080,
                    "time": 23,
                    "velocity": 0.1968503937007874
                },
                {
                    "duration": 0.3999999999999986,
                    "durationTicks": 384,
                    "midi": 79,
                    "name": "G5",
                    "ticks": 22272,
                    "time": 23.200000000000003,
                    "velocity": 0.1732283464566929
                },
                {
                    "duration": 0.3999999999999986,
                    "durationTicks": 384,
                    "midi": 83,
                    "name": "B5",
                    "ticks": 22272,
                    "time": 23.200000000000003,
                    "velocity": 0.18110236220472442
                },
                {
                    "duration": 0.5999999999999979,
                    "durationTicks": 576,
                    "midi": 67,
                    "name": "G4",
                    "ticks": 22272,
                    "time": 23.200000000000003,
                    "velocity": 0.1968503937007874
                },
                {
                    "duration": 0.5999999999999979,
                    "durationTicks": 576,
                    "midi": 74,
                    "name": "D5",
                    "ticks": 22272,
                    "time": 23.200000000000003,
                    "velocity": 0.2204724409448819
                },
                {
                    "duration": 0.1999999999999993,
                    "durationTicks": 192,
                    "midi": 84,
                    "name": "C6",
                    "ticks": 22656,
                    "time": 23.6,
                    "velocity": 0.2204724409448819
                },
                {
                    "duration": 0.40000000000000213,
                    "durationTicks": 384,
                    "midi": 76,
                    "name": "E5",
                    "ticks": 22848,
                    "time": 23.8,
                    "velocity": 0.2125984251968504
                },
                {
                    "duration": 0.40000000000000213,
                    "durationTicks": 384,
                    "midi": 84,
                    "name": "C6",
                    "ticks": 22848,
                    "time": 23.8,
                    "velocity": 0.2204724409448819
                },
                {
                    "duration": 0.40000000000000213,
                    "durationTicks": 384,
                    "midi": 38,
                    "name": "D2",
                    "ticks": 22848,
                    "time": 23.8,
                    "velocity": 0.1968503937007874
                },
                {
                    "duration": 0.40000000000000213,
                    "durationTicks": 384,
                    "midi": 50,
                    "name": "D3",
                    "ticks": 22848,
                    "time": 23.8,
                    "velocity": 0.1968503937007874
                },
                {
                    "duration": 0.09999999999999787,
                    "durationTicks": 96,
                    "midi": 55,
                    "name": "G3",
                    "ticks": 23232,
                    "time": 24.200000000000003,
                    "velocity": 0.2677165354330709
                },
                {
                    "duration": 0.3999999999999986,
                    "durationTicks": 384,
                    "midi": 33,
                    "name": "A1",
                    "ticks": 23232,
                    "time": 24.200000000000003,
                    "velocity": 0.18110236220472442
                },
                {
                    "duration": 0.3999999999999986,
                    "durationTicks": 384,
                    "midi": 45,
                    "name": "A2",
                    "ticks": 23232,
                    "time": 24.200000000000003,
                    "velocity": 0.18110236220472442
                },
                {
                    "duration": 0.1999999999999993,
                    "durationTicks": 192,
                    "midi": 57,
                    "name": "A3",
                    "ticks": 23328,
                    "time": 24.3,
                    "velocity": 0.25984251968503935
                },
                {
                    "duration": 0.20000000000000284,
                    "durationTicks": 192,
                    "midi": 57,
                    "name": "A3",
                    "ticks": 23520,
                    "time": 24.5,
                    "velocity": 0.2677165354330709
                },
                {
                    "duration": 0.3999999999999986,
                    "durationTicks": 384,
                    "midi": 33,
                    "name": "A1",
                    "ticks": 23616,
                    "time": 24.6,
                    "velocity": 0.2204724409448819
                },
                {
                    "duration": 0.3999999999999986,
                    "durationTicks": 384,
                    "midi": 45,
                    "name": "A2",
                    "ticks": 23616,
                    "time": 24.6,
                    "velocity": 0.2283464566929134
                },
                {
                    "duration": 0.09999999999999787,
                    "durationTicks": 96,
                    "midi": 55,
                    "name": "G3",
                    "ticks": 23712,
                    "time": 24.700000000000003,
                    "velocity": 0.25984251968503935
                },
                {
                    "duration": 0.1999999999999993,
                    "durationTicks": 192,
                    "midi": 57,
                    "name": "A3",
                    "ticks": 23808,
                    "time": 24.8,
                    "velocity": 0.25984251968503935
                },
                {
                    "duration": 0.10000000000000142,
                    "durationTicks": 96,
                    "midi": 55,
                    "name": "G3",
                    "ticks": 24000,
                    "time": 25,
                    "velocity": 0.25984251968503935
                },
                {
                    "duration": 0.40000000000000213,
                    "durationTicks": 384,
                    "midi": 33,
                    "name": "A1",
                    "ticks": 24000,
                    "time": 25,
                    "velocity": 0.2283464566929134
                },
                {
                    "duration": 0.40000000000000213,
                    "durationTicks": 384,
                    "midi": 45,
                    "name": "A2",
                    "ticks": 24000,
                    "time": 25,
                    "velocity": 0.2440944881889764
                },
                {
                    "duration": 0.1999999999999993,
                    "durationTicks": 192,
                    "midi": 57,
                    "name": "A3",
                    "ticks": 24096,
                    "time": 25.1,
                    "velocity": 0.2440944881889764
                },
                {
                    "duration": 0.1999999999999993,
                    "durationTicks": 192,
                    "midi": 57,
                    "name": "A3",
                    "ticks": 24288,
                    "time": 25.3,
                    "velocity": 0.2283464566929134
                },
                {
                    "duration": 0.3999999999999986,
                    "durationTicks": 384,
                    "midi": 33,
                    "name": "A1",
                    "ticks": 24384,
                    "time": 25.400000000000002,
                    "velocity": 0.23622047244094488
                },
                {
                    "duration": 0.3999999999999986,
                    "durationTicks": 384,
                    "midi": 45,
                    "name": "A2",
                    "ticks": 24384,
                    "time": 25.400000000000002,
                    "velocity": 0.2440944881889764
                },
                {
                    "duration": 0.10000000000000142,
                    "durationTicks": 96,
                    "midi": 55,
                    "name": "G3",
                    "ticks": 24480,
                    "time": 25.5,
                    "velocity": 0.2677165354330709
                },
                {
                    "duration": 0.1999999999999993,
                    "durationTicks": 192,
                    "midi": 57,
                    "name": "A3",
                    "ticks": 24576,
                    "time": 25.6,
                    "velocity": 0.2677165354330709
                },
                {
                    "duration": 0.10000000000000142,
                    "durationTicks": 96,
                    "midi": 88,
                    "name": "E6",
                    "ticks": 24768,
                    "time": 25.8,
                    "velocity": 0.2125984251968504
                },
                {
                    "duration": 0.10000000000000142,
                    "durationTicks": 96,
                    "midi": 64,
                    "name": "E4",
                    "ticks": 24768,
                    "time": 25.8,
                    "velocity": 0.14960629921259844
                },
                {
                    "duration": 0.09999999999999787,
                    "durationTicks": 96,
                    "midi": 76,
                    "name": "E5",
                    "ticks": 24864,
                    "time": 25.900000000000002,
                    "velocity": 0.2283464566929134
                },
                {
                    "duration": 0.09999999999999787,
                    "durationTicks": 96,
                    "midi": 60,
                    "name": "C4",
                    "ticks": 24864,
                    "time": 25.900000000000002,
                    "velocity": 0.1889763779527559
                },
                {
                    "duration": 0.10000000000000142,
                    "durationTicks": 96,
                    "midi": 81,
                    "name": "A5",
                    "ticks": 24960,
                    "time": 26,
                    "velocity": 0.2440944881889764
                },
                {
                    "duration": 0.10000000000000142,
                    "durationTicks": 96,
                    "midi": 62,
                    "name": "D4",
                    "ticks": 24960,
                    "time": 26,
                    "velocity": 0.1732283464566929
                },
                {
                    "duration": 0.10000000000000142,
                    "durationTicks": 96,
                    "midi": 86,
                    "name": "D6",
                    "ticks": 25056,
                    "time": 26.1,
                    "velocity": 0.23622047244094488
                },
                {
                    "duration": 0.10000000000000142,
                    "durationTicks": 96,
                    "midi": 64,
                    "name": "E4",
                    "ticks": 25056,
                    "time": 26.1,
                    "velocity": 0.1968503937007874
                },
                {
                    "duration": 0.09999999999999787,
                    "durationTicks": 96,
                    "midi": 76,
                    "name": "E5",
                    "ticks": 25152,
                    "time": 26.200000000000003,
                    "velocity": 0.2204724409448819
                },
                {
                    "duration": 0.09999999999999787,
                    "durationTicks": 96,
                    "midi": 60,
                    "name": "C4",
                    "ticks": 25152,
                    "time": 26.200000000000003,
                    "velocity": 0.1889763779527559
                },
                {
                    "duration": 0.10000000000000142,
                    "durationTicks": 96,
                    "midi": 81,
                    "name": "A5",
                    "ticks": 25248,
                    "time": 26.3,
                    "velocity": 0.2440944881889764
                },
                {
                    "duration": 0.10000000000000142,
                    "durationTicks": 96,
                    "midi": 62,
                    "name": "D4",
                    "ticks": 25248,
                    "time": 26.3,
                    "velocity": 0.1732283464566929
                },
                {
                    "duration": 0.09999999999999787,
                    "durationTicks": 96,
                    "midi": 84,
                    "name": "C6",
                    "ticks": 25344,
                    "time": 26.400000000000002,
                    "velocity": 0.2204724409448819
                },
                {
                    "duration": 0.09999999999999787,
                    "durationTicks": 96,
                    "midi": 64,
                    "name": "E4",
                    "ticks": 25344,
                    "time": 26.400000000000002,
                    "velocity": 0.1968503937007874
                },
                {
                    "duration": 0.10000000000000142,
                    "durationTicks": 96,
                    "midi": 76,
                    "name": "E5",
                    "ticks": 25440,
                    "time": 26.5,
                    "velocity": 0.2204724409448819
                },
                {
                    "duration": 0.10000000000000142,
                    "durationTicks": 96,
                    "midi": 60,
                    "name": "C4",
                    "ticks": 25440,
                    "time": 26.5,
                    "velocity": 0.1889763779527559
                },
                {
                    "duration": 0.10000000000000142,
                    "durationTicks": 96,
                    "midi": 88,
                    "name": "E6",
                    "ticks": 25536,
                    "time": 26.6,
                    "velocity": 0.23622047244094488
                },
                {
                    "duration": 0.10000000000000142,
                    "durationTicks": 96,
                    "midi": 64,
                    "name": "E4",
                    "ticks": 25536,
                    "time": 26.6,
                    "velocity": 0.14960629921259844
                },
                {
                    "duration": 0.09999999999999787,
                    "durationTicks": 96,
                    "midi": 76,
                    "name": "E5",
                    "ticks": 25632,
                    "time": 26.700000000000003,
                    "velocity": 0.2283464566929134
                },
                {
                    "duration": 0.09999999999999787,
                    "durationTicks": 96,
                    "midi": 60,
                    "name": "C4",
                    "ticks": 25632,
                    "time": 26.700000000000003,
                    "velocity": 0.1889763779527559
                },
                {
                    "duration": 0.10000000000000142,
                    "durationTicks": 96,
                    "midi": 81,
                    "name": "A5",
                    "ticks": 25728,
                    "time": 26.8,
                    "velocity": 0.2440944881889764
                },
                {
                    "duration": 0.10000000000000142,
                    "durationTicks": 96,
                    "midi": 62,
                    "name": "D4",
                    "ticks": 25728,
                    "time": 26.8,
                    "velocity": 0.1732283464566929
                },
                {
                    "duration": 0.09999999999999787,
                    "durationTicks": 96,
                    "midi": 86,
                    "name": "D6",
                    "ticks": 25824,
                    "time": 26.900000000000002,
                    "velocity": 0.23622047244094488
                },
                {
                    "duration": 0.09999999999999787,
                    "durationTicks": 96,
                    "midi": 64,
                    "name": "E4",
                    "ticks": 25824,
                    "time": 26.900000000000002,
                    "velocity": 0.25196850393700787
                },
                {
                    "duration": 0.10000000000000142,
                    "durationTicks": 96,
                    "midi": 76,
                    "name": "E5",
                    "ticks": 25920,
                    "time": 27,
                    "velocity": 0.2204724409448819
                },
                {
                    "duration": 0.10000000000000142,
                    "durationTicks": 96,
                    "midi": 60,
                    "name": "C4",
                    "ticks": 25920,
                    "time": 27,
                    "velocity": 0.1889763779527559
                },
                {
                    "duration": 0.10000000000000142,
                    "durationTicks": 96,
                    "midi": 81,
                    "name": "A5",
                    "ticks": 26016,
                    "time": 27.1,
                    "velocity": 0.2440944881889764
                },
                {
                    "duration": 0.10000000000000142,
                    "durationTicks": 96,
                    "midi": 62,
                    "name": "D4",
                    "ticks": 26016,
                    "time": 27.1,
                    "velocity": 0.1732283464566929
                },
                {
                    "duration": 0.1999999999999993,
                    "durationTicks": 192,
                    "midi": 84,
                    "name": "C6",
                    "ticks": 26112,
                    "time": 27.200000000000003,
                    "velocity": 0.2204724409448819
                },
                {
                    "duration": 0.1999999999999993,
                    "durationTicks": 192,
                    "midi": 64,
                    "name": "E4",
                    "ticks": 26112,
                    "time": 27.200000000000003,
                    "velocity": 0.25196850393700787
                },
                {
                    "duration": 0.1999999999999993,
                    "durationTicks": 192,
                    "midi": 88,
                    "name": "E6",
                    "ticks": 26304,
                    "time": 27.400000000000002,
                    "velocity": 0.2204724409448819
                },
                {
                    "duration": 0.3000000000000007,
                    "durationTicks": 288,
                    "midi": 57,
                    "name": "A3",
                    "ticks": 26304,
                    "time": 27.400000000000002,
                    "velocity": 0.2283464566929134
                },
                {
                    "duration": 0.3000000000000007,
                    "durationTicks": 288,
                    "midi": 69,
                    "name": "A4",
                    "ticks": 26304,
                    "time": 27.400000000000002,
                    "velocity": 0.1889763779527559
                },
                {
                    "duration": 0.3999999999999986,
                    "durationTicks": 384,
                    "midi": 86,
                    "name": "D6",
                    "ticks": 26496,
                    "time": 27.6,
                    "velocity": 0.1968503937007874
                },
                {
                    "duration": 0.29999999999999716,
                    "durationTicks": 288,
                    "midi": 57,
                    "name": "A3",
                    "ticks": 26592,
                    "time": 27.700000000000003,
                    "velocity": 0.23622047244094488
                },
                {
                    "duration": 0.29999999999999716,
                    "durationTicks": 288,
                    "midi": 69,
                    "name": "A4",
                    "ticks": 26592,
                    "time": 27.700000000000003,
                    "velocity": 0.2204724409448819
                },
                {
                    "duration": 0.20000000000000284,
                    "durationTicks": 192,
                    "midi": 84,
                    "name": "C6",
                    "ticks": 26880,
                    "time": 28,
                    "velocity": 0.18110236220472442
                },
                {
                    "duration": 0.20000000000000284,
                    "durationTicks": 192,
                    "midi": 57,
                    "name": "A3",
                    "ticks": 26880,
                    "time": 28,
                    "velocity": 0.23622047244094488
                },
                {
                    "duration": 0.20000000000000284,
                    "durationTicks": 192,
                    "midi": 69,
                    "name": "A4",
                    "ticks": 26880,
                    "time": 28,
                    "velocity": 0.2204724409448819
                },
                {
                    "duration": 0.29999999999999716,
                    "durationTicks": 288,
                    "midi": 88,
                    "name": "E6",
                    "ticks": 27072,
                    "time": 28.200000000000003,
                    "velocity": 0.1889763779527559
                },
                {
                    "duration": 0.29999999999999716,
                    "durationTicks": 288,
                    "midi": 57,
                    "name": "A3",
                    "ticks": 27072,
                    "time": 28.200000000000003,
                    "velocity": 0.2755905511811024
                },
                {
                    "duration": 0.29999999999999716,
                    "durationTicks": 288,
                    "midi": 69,
                    "name": "A4",
                    "ticks": 27072,
                    "time": 28.200000000000003,
                    "velocity": 0.2440944881889764
                },
                {
                    "duration": 0.10000000000000142,
                    "durationTicks": 96,
                    "midi": 86,
                    "name": "D6",
                    "ticks": 27360,
                    "time": 28.5,
                    "velocity": 0.2047244094488189
                },
                {
                    "duration": 0.3000000000000007,
                    "durationTicks": 288,
                    "midi": 57,
                    "name": "A3",
                    "ticks": 27360,
                    "time": 28.5,
                    "velocity": 0.2755905511811024
                },
                {
                    "duration": 0.3000000000000007,
                    "durationTicks": 288,
                    "midi": 69,
                    "name": "A4",
                    "ticks": 27360,
                    "time": 28.5,
                    "velocity": 0.25984251968503935
                },
                {
                    "duration": 0.3999999999999986,
                    "durationTicks": 384,
                    "midi": 84,
                    "name": "C6",
                    "ticks": 27456,
                    "time": 28.6,
                    "velocity": 0.2047244094488189
                },
                {
                    "duration": 0.1999999999999993,
                    "durationTicks": 192,
                    "midi": 57,
                    "name": "A3",
                    "ticks": 27648,
                    "time": 28.8,
                    "velocity": 0.25196850393700787
                },
                {
                    "duration": 0.1999999999999993,
                    "durationTicks": 192,
                    "midi": 69,
                    "name": "A4",
                    "ticks": 27648,
                    "time": 28.8,
                    "velocity": 0.23622047244094488
                },
                {
                    "duration": 0.10000000000000142,
                    "durationTicks": 96,
                    "midi": 76,
                    "name": "E5",
                    "ticks": 27840,
                    "time": 29,
                    "velocity": 0.2440944881889764
                },
                {
                    "duration": 0.3000000000000007,
                    "durationTicks": 288,
                    "midi": 45,
                    "name": "A2",
                    "ticks": 27840,
                    "time": 29,
                    "velocity": 0.2755905511811024
                },
                {
                    "duration": 0.3000000000000007,
                    "durationTicks": 288,
                    "midi": 57,
                    "name": "A3",
                    "ticks": 27840,
                    "time": 29,
                    "velocity": 0.2755905511811024
                },
                {
                    "duration": 0.1999999999999993,
                    "durationTicks": 192,
                    "midi": 84,
                    "name": "C6",
                    "ticks": 27936,
                    "time": 29.1,
                    "velocity": 0.2440944881889764
                },
                {
                    "duration": 0.10000000000000142,
                    "durationTicks": 96,
                    "midi": 79,
                    "name": "G5",
                    "ticks": 28128,
                    "time": 29.3,
                    "velocity": 0.23622047244094488
                },
                {
                    "duration": 0.3000000000000007,
                    "durationTicks": 288,
                    "midi": 45,
                    "name": "A2",
                    "ticks": 28128,
                    "time": 29.3,
                    "velocity": 0.2755905511811024
                },
                {
                    "duration": 0.3000000000000007,
                    "durationTicks": 288,
                    "midi": 57,
                    "name": "A3",
                    "ticks": 28128,
                    "time": 29.3,
                    "velocity": 0.23622047244094488
                },
                {
                    "duration": 0.3999999999999986,
                    "durationTicks": 384,
                    "midi": 81,
                    "name": "A5",
                    "ticks": 28224,
                    "time": 29.400000000000002,
                    "velocity": 0.25196850393700787
                },
                {
                    "duration": 0.1999999999999993,
                    "durationTicks": 192,
                    "midi": 45,
                    "name": "A2",
                    "ticks": 28416,
                    "time": 29.6,
                    "velocity": 0.25196850393700787
                },
                {
                    "duration": 0.1999999999999993,
                    "durationTicks": 192,
                    "midi": 57,
                    "name": "A3",
                    "ticks": 28416,
                    "time": 29.6,
                    "velocity": 0.23622047244094488
                },
                {
                    "duration": 0.3000000000000007,
                    "durationTicks": 288,
                    "midi": 43,
                    "name": "G2",
                    "ticks": 28608,
                    "time": 29.8,
                    "velocity": 0.2677165354330709
                },
                {
                    "duration": 0.3000000000000007,
                    "durationTicks": 288,
                    "midi": 55,
                    "name": "G3",
                    "ticks": 28608,
                    "time": 29.8,
                    "velocity": 0.25984251968503935
                },
                {
                    "duration": 0.3000000000000007,
                    "durationTicks": 288,
                    "midi": 43,
                    "name": "G2",
                    "ticks": 28896,
                    "time": 30.1,
                    "velocity": 0.2677165354330709
                },
                {
                    "duration": 0.3000000000000007,
                    "durationTicks": 288,
                    "midi": 55,
                    "name": "G3",
                    "ticks": 28896,
                    "time": 30.1,
                    "velocity": 0.2755905511811024
                },
                {
                    "duration": 0.1999999999999993,
                    "durationTicks": 192,
                    "midi": 43,
                    "name": "G2",
                    "ticks": 29184,
                    "time": 30.400000000000002,
                    "velocity": 0.25196850393700787
                },
                {
                    "duration": 0.1999999999999993,
                    "durationTicks": 192,
                    "midi": 55,
                    "name": "G3",
                    "ticks": 29184,
                    "time": 30.400000000000002,
                    "velocity": 0.2440944881889764
                },
                {
                    "duration": 0.10000000000000142,
                    "durationTicks": 96,
                    "midi": 76,
                    "name": "E5",
                    "ticks": 29376,
                    "time": 30.6,
                    "velocity": 0.23622047244094488
                },
                {
                    "duration": 0.3000000000000007,
                    "durationTicks": 288,
                    "midi": 41,
                    "name": "F2",
                    "ticks": 29376,
                    "time": 30.6,
                    "velocity": 0.2440944881889764
                },
                {
                    "duration": 0.3000000000000007,
                    "durationTicks": 288,
                    "midi": 53,
                    "name": "F3",
                    "ticks": 29376,
                    "time": 30.6,
                    "velocity": 0.25984251968503935
                },
                {
                    "duration": 0.1999999999999993,
                    "durationTicks": 192,
                    "midi": 84,
                    "name": "C6",
                    "ticks": 29472,
                    "time": 30.700000000000003,
                    "velocity": 0.25984251968503935
                },
                {
                    "duration": 0.09999999999999787,
                    "durationTicks": 96,
                    "midi": 79,
                    "name": "G5",
                    "ticks": 29664,
                    "time": 30.900000000000002,
                    "velocity": 0.25196850393700787
                },
                {
                    "duration": 0.3000000000000007,
                    "durationTicks": 288,
                    "midi": 41,
                    "name": "F2",
                    "ticks": 29664,
                    "time": 30.900000000000002,
                    "velocity": 0.2677165354330709
                },
                {
                    "duration": 0.3000000000000007,
                    "durationTicks": 288,
                    "midi": 53,
                    "name": "F3",
                    "ticks": 29664,
                    "time": 30.900000000000002,
                    "velocity": 0.2204724409448819
                },
                {
                    "duration": 0.40000000000000213,
                    "durationTicks": 384,
                    "midi": 81,
                    "name": "A5",
                    "ticks": 29760,
                    "time": 31,
                    "velocity": 0.25984251968503935
                },
                {
                    "duration": 0.1999999999999993,
                    "durationTicks": 192,
                    "midi": 41,
                    "name": "F2",
                    "ticks": 29952,
                    "time": 31.200000000000003,
                    "velocity": 0.2440944881889764
                },
                {
                    "duration": 0.1999999999999993,
                    "durationTicks": 192,
                    "midi": 53,
                    "name": "F3",
                    "ticks": 29952,
                    "time": 31.200000000000003,
                    "velocity": 0.2047244094488189
                },
                {
                    "duration": 0.3000000000000007,
                    "durationTicks": 288,
                    "midi": 40,
                    "name": "E2",
                    "ticks": 30144,
                    "time": 31.400000000000002,
                    "velocity": 0.23622047244094488
                },
                {
                    "duration": 0.3000000000000007,
                    "durationTicks": 288,
                    "midi": 52,
                    "name": "E3",
                    "ticks": 30144,
                    "time": 31.400000000000002,
                    "velocity": 0.2047244094488189
                },
                {
                    "duration": 0.3000000000000007,
                    "durationTicks": 288,
                    "midi": 84,
                    "name": "C6",
                    "ticks": 30336,
                    "time": 31.6,
                    "velocity": 0.2440944881889764
                },
                {
                    "duration": 0.29999999999999716,
                    "durationTicks": 288,
                    "midi": 40,
                    "name": "E2",
                    "ticks": 30432,
                    "time": 31.700000000000003,
                    "velocity": 0.2047244094488189
                },
                {
                    "duration": 0.29999999999999716,
                    "durationTicks": 288,
                    "midi": 52,
                    "name": "E3",
                    "ticks": 30432,
                    "time": 31.700000000000003,
                    "velocity": 0.2047244094488189
                },
                {
                    "duration": 0.3000000000000007,
                    "durationTicks": 288,
                    "midi": 83,
                    "name": "B5",
                    "ticks": 30624,
                    "time": 31.900000000000002,
                    "velocity": 0.23622047244094488
                },
                {
                    "duration": 0.20000000000000284,
                    "durationTicks": 192,
                    "midi": 40,
                    "name": "E2",
                    "ticks": 30720,
                    "time": 32,
                    "velocity": 0.25984251968503935
                },
                {
                    "duration": 0.20000000000000284,
                    "durationTicks": 192,
                    "midi": 52,
                    "name": "E3",
                    "ticks": 30720,
                    "time": 32,
                    "velocity": 0.2204724409448819
                },
                {
                    "duration": 0.10000000000000142,
                    "durationTicks": 96,
                    "midi": 76,
                    "name": "E5",
                    "ticks": 30912,
                    "time": 32.2,
                    "velocity": 0.25984251968503935
                },
                {
                    "duration": 0.29999999999999716,
                    "durationTicks": 288,
                    "midi": 45,
                    "name": "A2",
                    "ticks": 30912,
                    "time": 32.2,
                    "velocity": 0.2755905511811024
                },
                {
                    "duration": 0.29999999999999716,
                    "durationTicks": 288,
                    "midi": 57,
                    "name": "A3",
                    "ticks": 30912,
                    "time": 32.2,
                    "velocity": 0.2755905511811024
                },
                {
                    "duration": 0.19999999999999574,
                    "durationTicks": 192,
                    "midi": 84,
                    "name": "C6",
                    "ticks": 31008,
                    "time": 32.300000000000004,
                    "velocity": 0.25984251968503935
                },
                {
                    "duration": 0.10000000000000142,
                    "durationTicks": 96,
                    "midi": 79,
                    "name": "G5",
                    "ticks": 31200,
                    "time": 32.5,
                    "velocity": 0.2440944881889764
                },
                {
                    "duration": 0.30000000000000426,
                    "durationTicks": 288,
                    "midi": 45,
                    "name": "A2",
                    "ticks": 31200,
                    "time": 32.5,
                    "velocity": 0.2755905511811024
                },
                {
                    "duration": 0.30000000000000426,
                    "durationTicks": 288,
                    "midi": 57,
                    "name": "A3",
                    "ticks": 31200,
                    "time": 32.5,
                    "velocity": 0.23622047244094488
                },
                {
                    "duration": 0.3999999999999986,
                    "durationTicks": 384,
                    "midi": 81,
                    "name": "A5",
                    "ticks": 31296,
                    "time": 32.6,
                    "velocity": 0.25196850393700787
                },
                {
                    "duration": 0.19999999999999574,
                    "durationTicks": 192,
                    "midi": 45,
                    "name": "A2",
                    "ticks": 31488,
                    "time": 32.800000000000004,
                    "velocity": 0.25196850393700787
                },
                {
                    "duration": 0.19999999999999574,
                    "durationTicks": 192,
                    "midi": 57,
                    "name": "A3",
                    "ticks": 31488,
                    "time": 32.800000000000004,
                    "velocity": 0.23622047244094488
                },
                {
                    "duration": 0.30000000000000426,
                    "durationTicks": 288,
                    "midi": 43,
                    "name": "G2",
                    "ticks": 31680,
                    "time": 33,
                    "velocity": 0.2677165354330709
                },
                {
                    "duration": 0.30000000000000426,
                    "durationTicks": 288,
                    "midi": 55,
                    "name": "G3",
                    "ticks": 31680,
                    "time": 33,
                    "velocity": 0.25984251968503935
                },
                {
                    "duration": 0.29999999999999716,
                    "durationTicks": 288,
                    "midi": 43,
                    "name": "G2",
                    "ticks": 31968,
                    "time": 33.300000000000004,
                    "velocity": 0.2677165354330709
                },
                {
                    "duration": 0.29999999999999716,
                    "durationTicks": 288,
                    "midi": 55,
                    "name": "G3",
                    "ticks": 31968,
                    "time": 33.300000000000004,
                    "velocity": 0.2755905511811024
                },
                {
                    "duration": 0.20000000000000284,
                    "durationTicks": 192,
                    "midi": 43,
                    "name": "G2",
                    "ticks": 32256,
                    "time": 33.6,
                    "velocity": 0.25196850393700787
                },
                {
                    "duration": 0.20000000000000284,
                    "durationTicks": 192,
                    "midi": 55,
                    "name": "G3",
                    "ticks": 32256,
                    "time": 33.6,
                    "velocity": 0.2440944881889764
                },
                {
                    "duration": 0.09999999999999432,
                    "durationTicks": 96,
                    "midi": 76,
                    "name": "E5",
                    "ticks": 32448,
                    "time": 33.800000000000004,
                    "velocity": 0.25984251968503935
                },
                {
                    "duration": 0.29999999999999716,
                    "durationTicks": 288,
                    "midi": 41,
                    "name": "F2",
                    "ticks": 32448,
                    "time": 33.800000000000004,
                    "velocity": 0.2440944881889764
                },
                {
                    "duration": 0.29999999999999716,
                    "durationTicks": 288,
                    "midi": 53,
                    "name": "F3",
                    "ticks": 32448,
                    "time": 33.800000000000004,
                    "velocity": 0.25984251968503935
                },
                {
                    "duration": 0.20000000000000284,
                    "durationTicks": 192,
                    "midi": 84,
                    "name": "C6",
                    "ticks": 32544,
                    "time": 33.9,
                    "velocity": 0.25984251968503935
                },
                {
                    "duration": 0.10000000000000142,
                    "durationTicks": 96,
                    "midi": 79,
                    "name": "G5",
                    "ticks": 32736,
                    "time": 34.1,
                    "velocity": 0.25984251968503935
                },
                {
                    "duration": 0.29999999999999716,
                    "durationTicks": 288,
                    "midi": 41,
                    "name": "F2",
                    "ticks": 32736,
                    "time": 34.1,
                    "velocity": 0.2677165354330709
                },
                {
                    "duration": 0.29999999999999716,
                    "durationTicks": 288,
                    "midi": 53,
                    "name": "F3",
                    "ticks": 32736,
                    "time": 34.1,
                    "velocity": 0.2204724409448819
                },
                {
                    "duration": 0.3999999999999986,
                    "durationTicks": 384,
                    "midi": 81,
                    "name": "A5",
                    "ticks": 32832,
                    "time": 34.2,
                    "velocity": 0.2440944881889764
                },
                {
                    "duration": 0.20000000000000284,
                    "durationTicks": 192,
                    "midi": 41,
                    "name": "F2",
                    "ticks": 33024,
                    "time": 34.4,
                    "velocity": 0.2440944881889764
                },
                {
                    "duration": 0.20000000000000284,
                    "durationTicks": 192,
                    "midi": 53,
                    "name": "F3",
                    "ticks": 33024,
                    "time": 34.4,
                    "velocity": 0.2047244094488189
                },
                {
                    "duration": 0.29999999999999716,
                    "durationTicks": 288,
                    "midi": 40,
                    "name": "E2",
                    "ticks": 33216,
                    "time": 34.6,
                    "velocity": 0.23622047244094488
                },
                {
                    "duration": 0.29999999999999716,
                    "durationTicks": 288,
                    "midi": 52,
                    "name": "E3",
                    "ticks": 33216,
                    "time": 34.6,
                    "velocity": 0.2125984251968504
                },
                {
                    "duration": 0.29999999999999716,
                    "durationTicks": 288,
                    "midi": 84,
                    "name": "C6",
                    "ticks": 33408,
                    "time": 34.800000000000004,
                    "velocity": 0.2283464566929134
                },
                {
                    "duration": 0.30000000000000426,
                    "durationTicks": 288,
                    "midi": 40,
                    "name": "E2",
                    "ticks": 33504,
                    "time": 34.9,
                    "velocity": 0.2047244094488189
                },
                {
                    "duration": 0.30000000000000426,
                    "durationTicks": 288,
                    "midi": 52,
                    "name": "E3",
                    "ticks": 33504,
                    "time": 34.9,
                    "velocity": 0.2047244094488189
                },
                {
                    "duration": 0.29999999999999716,
                    "durationTicks": 288,
                    "midi": 83,
                    "name": "B5",
                    "ticks": 33696,
                    "time": 35.1,
                    "velocity": 0.2283464566929134
                },
                {
                    "duration": 0.19999999999999574,
                    "durationTicks": 192,
                    "midi": 40,
                    "name": "E2",
                    "ticks": 33792,
                    "time": 35.2,
                    "velocity": 0.25984251968503935
                },
                {
                    "duration": 0.19999999999999574,
                    "durationTicks": 192,
                    "midi": 52,
                    "name": "E3",
                    "ticks": 33792,
                    "time": 35.2,
                    "velocity": 0.2204724409448819
                },
                {
                    "duration": 0.30000000000000426,
                    "durationTicks": 288,
                    "midi": 84,
                    "name": "C6",
                    "ticks": 33984,
                    "time": 35.4,
                    "velocity": 0.25984251968503935
                },
                {
                    "duration": 0.30000000000000426,
                    "durationTicks": 288,
                    "midi": 69,
                    "name": "A4",
                    "ticks": 33984,
                    "time": 35.4,
                    "velocity": 0.1968503937007874
                },
                {
                    "duration": 0.10000000000000142,
                    "durationTicks": 96,
                    "midi": 69,
                    "name": "A4",
                    "ticks": 34272,
                    "time": 35.7,
                    "velocity": 0.2440944881889764
                },
                {
                    "duration": 0.29999999999999716,
                    "durationTicks": 288,
                    "midi": 81,
                    "name": "A5",
                    "ticks": 34272,
                    "time": 35.7,
                    "velocity": 0.2283464566929134
                },
                {
                    "duration": 0.19999999999999574,
                    "durationTicks": 192,
                    "midi": 64,
                    "name": "E4",
                    "ticks": 34368,
                    "time": 35.800000000000004,
                    "velocity": 0.1968503937007874
                },
                {
                    "duration": 0.20000000000000284,
                    "durationTicks": 192,
                    "midi": 86,
                    "name": "D6",
                    "ticks": 34560,
                    "time": 36,
                    "velocity": 0.2047244094488189
                },
                {
                    "duration": 0.20000000000000284,
                    "durationTicks": 192,
                    "midi": 69,
                    "name": "A4",
                    "ticks": 34560,
                    "time": 36,
                    "velocity": 0.2440944881889764
                },
                {
                    "duration": 0.29999999999999716,
                    "durationTicks": 288,
                    "midi": 84,
                    "name": "C6",
                    "ticks": 34752,
                    "time": 36.2,
                    "velocity": 0.1968503937007874
                },
                {
                    "duration": 0.29999999999999716,
                    "durationTicks": 288,
                    "midi": 69,
                    "name": "A4",
                    "ticks": 34752,
                    "time": 36.2,
                    "velocity": 0.2283464566929134
                },
                {
                    "duration": 0.10000000000000142,
                    "durationTicks": 96,
                    "midi": 69,
                    "name": "A4",
                    "ticks": 35040,
                    "time": 36.5,
                    "velocity": 0.25196850393700787
                },
                {
                    "duration": 0.30000000000000426,
                    "durationTicks": 288,
                    "midi": 81,
                    "name": "A5",
                    "ticks": 35040,
                    "time": 36.5,
                    "velocity": 0.1968503937007874
                },
                {
                    "duration": 0.20000000000000284,
                    "durationTicks": 192,
                    "midi": 64,
                    "name": "E4",
                    "ticks": 35136,
                    "time": 36.6,
                    "velocity": 0.2204724409448819
                },
                {
                    "duration": 0.19999999999999574,
                    "durationTicks": 192,
                    "midi": 81,
                    "name": "A5",
                    "ticks": 35328,
                    "time": 36.800000000000004,
                    "velocity": 0.1968503937007874
                },
                {
                    "duration": 0.19999999999999574,
                    "durationTicks": 192,
                    "midi": 86,
                    "name": "D6",
                    "ticks": 35328,
                    "time": 36.800000000000004,
                    "velocity": 0.1732283464566929
                },
                {
                    "duration": 0.19999999999999574,
                    "durationTicks": 192,
                    "midi": 69,
                    "name": "A4",
                    "ticks": 35328,
                    "time": 36.800000000000004,
                    "velocity": 0.2283464566929134
                },
                {
                    "duration": 0.30000000000000426,
                    "durationTicks": 288,
                    "midi": 84,
                    "name": "C6",
                    "ticks": 35520,
                    "time": 37,
                    "velocity": 0.15748031496062992
                },
                {
                    "duration": 0.6000000000000014,
                    "durationTicks": 576,
                    "midi": 69,
                    "name": "A4",
                    "ticks": 35520,
                    "time": 37,
                    "velocity": 0.1968503937007874
                },
                {
                    "duration": 0.6000000000000014,
                    "durationTicks": 576,
                    "midi": 72,
                    "name": "C5",
                    "ticks": 35520,
                    "time": 37,
                    "velocity": 0.1732283464566929
                },
                {
                    "duration": 0.6000000000000014,
                    "durationTicks": 576,
                    "midi": 76,
                    "name": "E5",
                    "ticks": 35520,
                    "time": 37,
                    "velocity": 0.18110236220472442
                },
                {
                    "duration": 0.29999999999999716,
                    "durationTicks": 288,
                    "midi": 84,
                    "name": "C6",
                    "ticks": 35808,
                    "time": 37.300000000000004,
                    "velocity": 0.2204724409448819
                },
                {
                    "duration": 0.6000000000000014,
                    "durationTicks": 576,
                    "midi": 84,
                    "name": "C6",
                    "ticks": 36096,
                    "time": 37.6,
                    "velocity": 0.2204724409448819
                },
                {
                    "duration": 0.8999999999999986,
                    "durationTicks": 864,
                    "midi": 69,
                    "name": "A4",
                    "ticks": 36096,
                    "time": 37.6,
                    "velocity": 0.14960629921259844
                },
                {
                    "duration": 0.8999999999999986,
                    "durationTicks": 864,
                    "midi": 72,
                    "name": "C5",
                    "ticks": 36096,
                    "time": 37.6,
                    "velocity": 0.1968503937007874
                },
                {
                    "duration": 0.8999999999999986,
                    "durationTicks": 864,
                    "midi": 74,
                    "name": "D5",
                    "ticks": 36096,
                    "time": 37.6,
                    "velocity": 0.12598425196850394
                },
                {
                    "duration": 0.20000000000000284,
                    "durationTicks": 192,
                    "midi": 84,
                    "name": "C6",
                    "ticks": 36672,
                    "time": 38.2,
                    "velocity": 0.1889763779527559
                },
                {
                    "duration": 0.19999999999999574,
                    "durationTicks": 192,
                    "midi": 88,
                    "name": "E6",
                    "ticks": 36864,
                    "time": 38.400000000000006,
                    "velocity": 0.1968503937007874
                },
                {
                    "duration": 0.30000000000000426,
                    "durationTicks": 288,
                    "midi": 88,
                    "name": "E6",
                    "ticks": 37056,
                    "time": 38.6,
                    "velocity": 0.2283464566929134
                },
                {
                    "duration": 1.3000000000000043,
                    "durationTicks": 1248,
                    "midi": 64,
                    "name": "E4",
                    "ticks": 37056,
                    "time": 38.6,
                    "velocity": 0.1889763779527559
                },
                {
                    "duration": 1.3000000000000043,
                    "durationTicks": 1248,
                    "midi": 65,
                    "name": "F4",
                    "ticks": 37056,
                    "time": 38.6,
                    "velocity": 0.14960629921259844
                },
                {
                    "duration": 1.3000000000000043,
                    "durationTicks": 1248,
                    "midi": 69,
                    "name": "A4",
                    "ticks": 37056,
                    "time": 38.6,
                    "velocity": 0.16535433070866143
                },
                {
                    "duration": 1.3000000000000043,
                    "durationTicks": 1248,
                    "midi": 72,
                    "name": "C5",
                    "ticks": 37056,
                    "time": 38.6,
                    "velocity": 0.14173228346456693
                },
                {
                    "duration": 0.29999999999999716,
                    "durationTicks": 288,
                    "midi": 86,
                    "name": "D6",
                    "ticks": 37344,
                    "time": 38.900000000000006,
                    "velocity": 0.2283464566929134
                },
                {
                    "duration": 0.7999999999999972,
                    "durationTicks": 768,
                    "midi": 86,
                    "name": "D6",
                    "ticks": 37632,
                    "time": 39.2,
                    "velocity": 0.2204724409448819
                },
                {
                    "duration": 0.10000000000000142,
                    "durationTicks": 96,
                    "midi": 71,
                    "name": "B4",
                    "ticks": 38400,
                    "time": 40,
                    "velocity": 0.1732283464566929
                },
                {
                    "duration": 0.20000000000000284,
                    "durationTicks": 192,
                    "midi": 84,
                    "name": "C6",
                    "ticks": 38400,
                    "time": 40,
                    "velocity": 0.14173228346456693
                },
                {
                    "duration": 0.10000000000000142,
                    "durationTicks": 96,
                    "midi": 72,
                    "name": "C5",
                    "ticks": 38496,
                    "time": 40.1,
                    "velocity": 0.15748031496062992
                },
                {
                    "duration": 0.29999999999999716,
                    "durationTicks": 288,
                    "midi": 86,
                    "name": "D6",
                    "ticks": 38592,
                    "time": 40.2,
                    "velocity": 0.1968503937007874
                },
                {
                    "duration": 0.6000000000000014,
                    "durationTicks": 576,
                    "midi": 62,
                    "name": "D4",
                    "ticks": 38592,
                    "time": 40.2,
                    "velocity": 0.1732283464566929
                },
                {
                    "duration": 0.30000000000000426,
                    "durationTicks": 288,
                    "midi": 84,
                    "name": "C6",
                    "ticks": 38880,
                    "time": 40.5,
                    "velocity": 0.18110236220472442
                },
                {
                    "duration": 0.3999999999999986,
                    "durationTicks": 384,
                    "midi": 83,
                    "name": "B5",
                    "ticks": 39168,
                    "time": 40.800000000000004,
                    "velocity": 0.18110236220472442
                },
                {
                    "duration": 0.7999999999999972,
                    "durationTicks": 768,
                    "midi": 74,
                    "name": "D5",
                    "ticks": 39168,
                    "time": 40.800000000000004,
                    "velocity": 0.18110236220472442
                },
                {
                    "duration": 0.3999999999999986,
                    "durationTicks": 384,
                    "midi": 79,
                    "name": "G5",
                    "ticks": 39552,
                    "time": 41.2,
                    "velocity": 0.2125984251968504
                },
                {
                    "duration": 0.10000000000000142,
                    "durationTicks": 96,
                    "midi": 72,
                    "name": "C5",
                    "ticks": 39936,
                    "time": 41.6,
                    "velocity": 0.11811023622047244
                },
                {
                    "duration": 0.20000000000000284,
                    "durationTicks": 192,
                    "midi": 76,
                    "name": "E5",
                    "ticks": 39936,
                    "time": 41.6,
                    "velocity": 0.2125984251968504
                },
                {
                    "duration": 0.10000000000000142,
                    "durationTicks": 96,
                    "midi": 74,
                    "name": "D5",
                    "ticks": 40032,
                    "time": 41.7,
                    "velocity": 0.2047244094488189
                },
                {
                    "duration": 0.6999999999999957,
                    "durationTicks": 672,
                    "midi": 76,
                    "name": "E5",
                    "ticks": 40128,
                    "time": 41.800000000000004,
                    "velocity": 0.13385826771653545
                },
                {
                    "duration": 1.5,
                    "durationTicks": 1440,
                    "midi": 64,
                    "name": "E4",
                    "ticks": 40128,
                    "time": 41.800000000000004,
                    "velocity": 0.1732283464566929
                },
                {
                    "duration": 1.5,
                    "durationTicks": 1440,
                    "midi": 67,
                    "name": "G4",
                    "ticks": 40128,
                    "time": 41.800000000000004,
                    "velocity": 0.16535433070866143
                },
                {
                    "duration": 1.5,
                    "durationTicks": 1440,
                    "midi": 72,
                    "name": "C5",
                    "ticks": 40128,
                    "time": 41.800000000000004,
                    "velocity": 0.12598425196850394
                },
                {
                    "duration": 0.9000000000000057,
                    "durationTicks": 864,
                    "midi": 74,
                    "name": "D5",
                    "ticks": 40800,
                    "time": 42.5,
                    "velocity": 0.1968503937007874
                },
                {
                    "duration": 0.20000000000000284,
                    "durationTicks": 192,
                    "midi": 81,
                    "name": "A5",
                    "ticks": 41472,
                    "time": 43.2,
                    "velocity": 0.2204724409448819
                },
                {
                    "duration": 0.19999999999999574,
                    "durationTicks": 192,
                    "midi": 84,
                    "name": "C6",
                    "ticks": 41664,
                    "time": 43.400000000000006,
                    "velocity": 0.2204724409448819
                },
                {
                    "duration": 0.5999999999999943,
                    "durationTicks": 576,
                    "midi": 57,
                    "name": "A3",
                    "ticks": 41664,
                    "time": 43.400000000000006,
                    "velocity": 0.16535433070866143
                },
                {
                    "duration": 0.5999999999999943,
                    "durationTicks": 576,
                    "midi": 60,
                    "name": "C4",
                    "ticks": 41664,
                    "time": 43.400000000000006,
                    "velocity": 0.1732283464566929
                },
                {
                    "duration": 0.5999999999999943,
                    "durationTicks": 576,
                    "midi": 64,
                    "name": "E4",
                    "ticks": 41664,
                    "time": 43.400000000000006,
                    "velocity": 0.18110236220472442
                },
                {
                    "duration": 0.5999999999999943,
                    "durationTicks": 576,
                    "midi": 69,
                    "name": "A4",
                    "ticks": 41664,
                    "time": 43.400000000000006,
                    "velocity": 0.18110236220472442
                },
                {
                    "duration": 0.10000000000000142,
                    "durationTicks": 96,
                    "midi": 84,
                    "name": "C6",
                    "ticks": 41856,
                    "time": 43.6,
                    "velocity": 0.2204724409448819
                },
                {
                    "duration": 0.7000000000000028,
                    "durationTicks": 672,
                    "midi": 84,
                    "name": "C6",
                    "ticks": 41952,
                    "time": 43.7,
                    "velocity": 0.2204724409448819
                },
                {
                    "duration": 0.9000000000000057,
                    "durationTicks": 864,
                    "midi": 74,
                    "name": "D5",
                    "ticks": 42240,
                    "time": 44,
                    "velocity": 0.18110236220472442
                },
                {
                    "duration": 0.9000000000000057,
                    "durationTicks": 864,
                    "midi": 76,
                    "name": "E5",
                    "ticks": 42240,
                    "time": 44,
                    "velocity": 0.16535433070866143
                },
                {
                    "duration": 0.3999999999999986,
                    "durationTicks": 384,
                    "midi": 84,
                    "name": "C6",
                    "ticks": 42624,
                    "time": 44.400000000000006,
                    "velocity": 0.18110236220472442
                },
                {
                    "duration": 0.19999999999999574,
                    "durationTicks": 192,
                    "midi": 88,
                    "name": "E6",
                    "ticks": 43008,
                    "time": 44.800000000000004,
                    "velocity": 0.2283464566929134
                },
                {
                    "duration": 0.4000000000000057,
                    "durationTicks": 384,
                    "midi": 74,
                    "name": "D5",
                    "ticks": 43200,
                    "time": 45,
                    "velocity": 0.2047244094488189
                },
                {
                    "duration": 0.4000000000000057,
                    "durationTicks": 384,
                    "midi": 88,
                    "name": "E6",
                    "ticks": 43200,
                    "time": 45,
                    "velocity": 0.23622047244094488
                },
                {
                    "duration": 1.5,
                    "durationTicks": 1440,
                    "midi": 53,
                    "name": "F3",
                    "ticks": 43200,
                    "time": 45,
                    "velocity": 0.12598425196850394
                },
                {
                    "duration": 1.5,
                    "durationTicks": 1440,
                    "midi": 57,
                    "name": "A3",
                    "ticks": 43200,
                    "time": 45,
                    "velocity": 0.2283464566929134
                },
                {
                    "duration": 1.5,
                    "durationTicks": 1440,
                    "midi": 60,
                    "name": "C4",
                    "ticks": 43200,
                    "time": 45,
                    "velocity": 0.1968503937007874
                },
                {
                    "duration": 1.5,
                    "durationTicks": 1440,
                    "midi": 65,
                    "name": "F4",
                    "ticks": 43200,
                    "time": 45,
                    "velocity": 0.2204724409448819
                },
                {
                    "duration": 0.19999999999999574,
                    "durationTicks": 192,
                    "midi": 86,
                    "name": "D6",
                    "ticks": 43584,
                    "time": 45.400000000000006,
                    "velocity": 0.2047244094488189
                },
                {
                    "duration": 0.3999999999999986,
                    "durationTicks": 384,
                    "midi": 86,
                    "name": "D6",
                    "ticks": 43776,
                    "time": 45.6,
                    "velocity": 0.2283464566929134
                },
                {
                    "duration": 0.4000000000000057,
                    "durationTicks": 384,
                    "midi": 84,
                    "name": "C6",
                    "ticks": 44160,
                    "time": 46,
                    "velocity": 0.2204724409448819
                },
                {
                    "duration": 0.19999999999999574,
                    "durationTicks": 192,
                    "midi": 84,
                    "name": "C6",
                    "ticks": 44544,
                    "time": 46.400000000000006,
                    "velocity": 0.2440944881889764
                },
                {
                    "duration": 0.30000000000000426,
                    "durationTicks": 288,
                    "midi": 88,
                    "name": "E6",
                    "ticks": 44736,
                    "time": 46.6,
                    "velocity": 0.1968503937007874
                },
                {
                    "duration": 0.6000000000000014,
                    "durationTicks": 576,
                    "midi": 55,
                    "name": "G3",
                    "ticks": 44736,
                    "time": 46.6,
                    "velocity": 0.1732283464566929
                },
                {
                    "duration": 0.6000000000000014,
                    "durationTicks": 576,
                    "midi": 59,
                    "name": "B3",
                    "ticks": 44736,
                    "time": 46.6,
                    "velocity": 0.2047244094488189
                },
                {
                    "duration": 0.6000000000000014,
                    "durationTicks": 576,
                    "midi": 62,
                    "name": "D4",
                    "ticks": 44736,
                    "time": 46.6,
                    "velocity": 0.2440944881889764
                },
                {
                    "duration": 0.29999999999999716,
                    "durationTicks": 288,
                    "midi": 86,
                    "name": "D6",
                    "ticks": 45024,
                    "time": 46.900000000000006,
                    "velocity": 0.2440944881889764
                },
                {
                    "duration": 0.6000000000000014,
                    "durationTicks": 576,
                    "midi": 86,
                    "name": "D6",
                    "ticks": 45312,
                    "time": 47.2,
                    "velocity": 0.2440944881889764
                },
                {
                    "duration": 0.8999999999999986,
                    "durationTicks": 864,
                    "midi": 74,
                    "name": "D5",
                    "ticks": 45312,
                    "time": 47.2,
                    "velocity": 0.1889763779527559
                },
                {
                    "duration": 0.19999999999999574,
                    "durationTicks": 192,
                    "midi": 83,
                    "name": "B5",
                    "ticks": 45888,
                    "time": 47.800000000000004,
                    "velocity": 0.2125984251968504
                },
                {
                    "duration": 0.20000000000000284,
                    "durationTicks": 192,
                    "midi": 84,
                    "name": "C6",
                    "ticks": 46080,
                    "time": 48,
                    "velocity": 0.23622047244094488
                },
                {
                    "duration": 0.20000000000000284,
                    "durationTicks": 192,
                    "midi": 67,
                    "name": "G4",
                    "ticks": 46272,
                    "time": 48.2,
                    "velocity": 0.23622047244094488
                },
                {
                    "duration": 0.20000000000000284,
                    "durationTicks": 192,
                    "midi": 79,
                    "name": "G5",
                    "ticks": 46272,
                    "time": 48.2,
                    "velocity": 0.1889763779527559
                },
                {
                    "duration": 0.6000000000000014,
                    "durationTicks": 576,
                    "midi": 48,
                    "name": "C3",
                    "ticks": 46272,
                    "time": 48.2,
                    "velocity": 0.16535433070866143
                },
                {
                    "duration": 0.6000000000000014,
                    "durationTicks": 576,
                    "midi": 55,
                    "name": "G3",
                    "ticks": 46272,
                    "time": 48.2,
                    "velocity": 0.2047244094488189
                },
                {
                    "duration": 0.6000000000000014,
                    "durationTicks": 576,
                    "midi": 60,
                    "name": "C4",
                    "ticks": 46272,
                    "time": 48.2,
                    "velocity": 0.1732283464566929
                },
                {
                    "duration": 0.3999999999999986,
                    "durationTicks": 384,
                    "midi": 74,
                    "name": "D5",
                    "ticks": 46464,
                    "time": 48.400000000000006,
                    "velocity": 0.2204724409448819
                },
                {
                    "duration": 0.19999999999999574,
                    "durationTicks": 192,
                    "midi": 88,
                    "name": "E6",
                    "ticks": 46848,
                    "time": 48.800000000000004,
                    "velocity": 0.2440944881889764
                },
                {
                    "duration": 0.3999999999999986,
                    "durationTicks": 384,
                    "midi": 72,
                    "name": "C5",
                    "ticks": 46848,
                    "time": 48.800000000000004,
                    "velocity": 0.13385826771653545
                },
                {
                    "duration": 0.6000000000000014,
                    "durationTicks": 576,
                    "midi": 86,
                    "name": "D6",
                    "ticks": 47040,
                    "time": 49,
                    "velocity": 0.2283464566929134
                },
                {
                    "duration": 0.6000000000000014,
                    "durationTicks": 576,
                    "midi": 69,
                    "name": "A4",
                    "ticks": 47232,
                    "time": 49.2,
                    "velocity": 0.2283464566929134
                },
                {
                    "duration": 0.20000000000000284,
                    "durationTicks": 192,
                    "midi": 79,
                    "name": "G5",
                    "ticks": 47616,
                    "time": 49.6,
                    "velocity": 0.25984251968503935
                },
                {
                    "duration": 0.19999999999999574,
                    "durationTicks": 192,
                    "midi": 69,
                    "name": "A4",
                    "ticks": 47808,
                    "time": 49.800000000000004,
                    "velocity": 0.2125984251968504
                },
                {
                    "duration": 0.19999999999999574,
                    "durationTicks": 192,
                    "midi": 72,
                    "name": "C5",
                    "ticks": 47808,
                    "time": 49.800000000000004,
                    "velocity": 0.2283464566929134
                },
                {
                    "duration": 0.19999999999999574,
                    "durationTicks": 192,
                    "midi": 77,
                    "name": "F5",
                    "ticks": 47808,
                    "time": 49.800000000000004,
                    "velocity": 0.2440944881889764
                },
                {
                    "duration": 0.19999999999999574,
                    "durationTicks": 192,
                    "midi": 45,
                    "name": "A2",
                    "ticks": 47808,
                    "time": 49.800000000000004,
                    "velocity": 0.2204724409448819
                },
                {
                    "duration": 0.19999999999999574,
                    "durationTicks": 192,
                    "midi": 57,
                    "name": "A3",
                    "ticks": 47808,
                    "time": 49.800000000000004,
                    "velocity": 0.2125984251968504
                },
                {
                    "duration": 0.4000000000000057,
                    "durationTicks": 384,
                    "midi": 69,
                    "name": "A4",
                    "ticks": 48000,
                    "time": 50,
                    "velocity": 0.2283464566929134
                },
                {
                    "duration": 0.4000000000000057,
                    "durationTicks": 384,
                    "midi": 72,
                    "name": "C5",
                    "ticks": 48000,
                    "time": 50,
                    "velocity": 0.1968503937007874
                },
                {
                    "duration": 0.4000000000000057,
                    "durationTicks": 384,
                    "midi": 76,
                    "name": "E5",
                    "ticks": 48000,
                    "time": 50,
                    "velocity": 0.2283464566929134
                },
                {
                    "duration": 0.4000000000000057,
                    "durationTicks": 384,
                    "midi": 45,
                    "name": "A2",
                    "ticks": 48000,
                    "time": 50,
                    "velocity": 0.2125984251968504
                },
                {
                    "duration": 0.4000000000000057,
                    "durationTicks": 384,
                    "midi": 57,
                    "name": "A3",
                    "ticks": 48000,
                    "time": 50,
                    "velocity": 0.2125984251968504
                },
                {
                    "duration": 0.19999999999999574,
                    "durationTicks": 192,
                    "midi": 69,
                    "name": "A4",
                    "ticks": 48384,
                    "time": 50.400000000000006,
                    "velocity": 0.2125984251968504
                },
                {
                    "duration": 0.19999999999999574,
                    "durationTicks": 192,
                    "midi": 72,
                    "name": "C5",
                    "ticks": 48384,
                    "time": 50.400000000000006,
                    "velocity": 0.2283464566929134
                },
                {
                    "duration": 0.19999999999999574,
                    "durationTicks": 192,
                    "midi": 45,
                    "name": "A2",
                    "ticks": 48384,
                    "time": 50.400000000000006,
                    "velocity": 0.1968503937007874
                },
                {
                    "duration": 0.19999999999999574,
                    "durationTicks": 192,
                    "midi": 57,
                    "name": "A3",
                    "ticks": 48384,
                    "time": 50.400000000000006,
                    "velocity": 0.1968503937007874
                },
                {
                    "duration": 0.20000000000000284,
                    "durationTicks": 192,
                    "midi": 69,
                    "name": "A4",
                    "ticks": 48576,
                    "time": 50.6,
                    "velocity": 0.2125984251968504
                },
                {
                    "duration": 0.20000000000000284,
                    "durationTicks": 192,
                    "midi": 72,
                    "name": "C5",
                    "ticks": 48576,
                    "time": 50.6,
                    "velocity": 0.2283464566929134
                },
                {
                    "duration": 0.20000000000000284,
                    "durationTicks": 192,
                    "midi": 74,
                    "name": "D5",
                    "ticks": 48576,
                    "time": 50.6,
                    "velocity": 0.2283464566929134
                },
                {
                    "duration": 0.20000000000000284,
                    "durationTicks": 192,
                    "midi": 45,
                    "name": "A2",
                    "ticks": 48576,
                    "time": 50.6,
                    "velocity": 0.2204724409448819
                },
                {
                    "duration": 0.20000000000000284,
                    "durationTicks": 192,
                    "midi": 57,
                    "name": "A3",
                    "ticks": 48576,
                    "time": 50.6,
                    "velocity": 0.2125984251968504
                },
                {
                    "duration": 0.10000000000000142,
                    "durationTicks": 96,
                    "midi": 69,
                    "name": "A4",
                    "ticks": 48768,
                    "time": 50.800000000000004,
                    "velocity": 0.2283464566929134
                },
                {
                    "duration": 0.10000000000000142,
                    "durationTicks": 96,
                    "midi": 72,
                    "name": "C5",
                    "ticks": 48768,
                    "time": 50.800000000000004,
                    "velocity": 0.1968503937007874
                },
                {
                    "duration": 0.10000000000000142,
                    "durationTicks": 96,
                    "midi": 76,
                    "name": "E5",
                    "ticks": 48768,
                    "time": 50.800000000000004,
                    "velocity": 0.1968503937007874
                },
                {
                    "duration": 0.3999999999999986,
                    "durationTicks": 384,
                    "midi": 45,
                    "name": "A2",
                    "ticks": 48768,
                    "time": 50.800000000000004,
                    "velocity": 0.2125984251968504
                },
                {
                    "duration": 0.3999999999999986,
                    "durationTicks": 384,
                    "midi": 57,
                    "name": "A3",
                    "ticks": 48768,
                    "time": 50.800000000000004,
                    "velocity": 0.2125984251968504
                },
                {
                    "duration": 0.29999999999999716,
                    "durationTicks": 288,
                    "midi": 72,
                    "name": "C5",
                    "ticks": 48864,
                    "time": 50.900000000000006,
                    "velocity": 0.1889763779527559
                },
                {
                    "duration": 0.29999999999999716,
                    "durationTicks": 288,
                    "midi": 76,
                    "name": "E5",
                    "ticks": 48864,
                    "time": 50.900000000000006,
                    "velocity": 0.23622047244094488
                },
                {
                    "duration": 0.20000000000000284,
                    "durationTicks": 192,
                    "midi": 69,
                    "name": "A4",
                    "ticks": 49152,
                    "time": 51.2,
                    "velocity": 0.2125984251968504
                },
                {
                    "duration": 0.20000000000000284,
                    "durationTicks": 192,
                    "midi": 72,
                    "name": "C5",
                    "ticks": 49152,
                    "time": 51.2,
                    "velocity": 0.2047244094488189
                },
                {
                    "duration": 0.20000000000000284,
                    "durationTicks": 192,
                    "midi": 79,
                    "name": "G5",
                    "ticks": 49152,
                    "time": 51.2,
                    "velocity": 0.25196850393700787
                },
                {
                    "duration": 0.20000000000000284,
                    "durationTicks": 192,
                    "midi": 45,
                    "name": "A2",
                    "ticks": 49152,
                    "time": 51.2,
                    "velocity": 0.2204724409448819
                },
                {
                    "duration": 0.20000000000000284,
                    "durationTicks": 192,
                    "midi": 57,
                    "name": "A3",
                    "ticks": 49152,
                    "time": 51.2,
                    "velocity": 0.1968503937007874
                },
                {
                    "duration": 0.19999999999999574,
                    "durationTicks": 192,
                    "midi": 69,
                    "name": "A4",
                    "ticks": 49344,
                    "time": 51.400000000000006,
                    "velocity": 0.23622047244094488
                },
                {
                    "duration": 0.19999999999999574,
                    "durationTicks": 192,
                    "midi": 72,
                    "name": "C5",
                    "ticks": 49344,
                    "time": 51.400000000000006,
                    "velocity": 0.2125984251968504
                },
                {
                    "duration": 0.19999999999999574,
                    "durationTicks": 192,
                    "midi": 77,
                    "name": "F5",
                    "ticks": 49344,
                    "time": 51.400000000000006,
                    "velocity": 0.25984251968503935
                },
                {
                    "duration": 0.19999999999999574,
                    "durationTicks": 192,
                    "midi": 45,
                    "name": "A2",
                    "ticks": 49344,
                    "time": 51.400000000000006,
                    "velocity": 0.2047244094488189
                },
                {
                    "duration": 0.19999999999999574,
                    "durationTicks": 192,
                    "midi": 57,
                    "name": "A3",
                    "ticks": 49344,
                    "time": 51.400000000000006,
                    "velocity": 0.2125984251968504
                },
                {
                    "duration": 0.3999999999999986,
                    "durationTicks": 384,
                    "midi": 69,
                    "name": "A4",
                    "ticks": 49536,
                    "time": 51.6,
                    "velocity": 0.2440944881889764
                },
                {
                    "duration": 0.3999999999999986,
                    "durationTicks": 384,
                    "midi": 72,
                    "name": "C5",
                    "ticks": 49536,
                    "time": 51.6,
                    "velocity": 0.2283464566929134
                },
                {
                    "duration": 0.3999999999999986,
                    "durationTicks": 384,
                    "midi": 76,
                    "name": "E5",
                    "ticks": 49536,
                    "time": 51.6,
                    "velocity": 0.23622047244094488
                },
                {
                    "duration": 0.3999999999999986,
                    "durationTicks": 384,
                    "midi": 45,
                    "name": "A2",
                    "ticks": 49536,
                    "time": 51.6,
                    "velocity": 0.2283464566929134
                },
                {
                    "duration": 0.3999999999999986,
                    "durationTicks": 384,
                    "midi": 57,
                    "name": "A3",
                    "ticks": 49536,
                    "time": 51.6,
                    "velocity": 0.2204724409448819
                },
                {
                    "duration": 0.20000000000000284,
                    "durationTicks": 192,
                    "midi": 69,
                    "name": "A4",
                    "ticks": 49920,
                    "time": 52,
                    "velocity": 0.2047244094488189
                },
                {
                    "duration": 0.20000000000000284,
                    "durationTicks": 192,
                    "midi": 72,
                    "name": "C5",
                    "ticks": 49920,
                    "time": 52,
                    "velocity": 0.2125984251968504
                },
                {
                    "duration": 0.20000000000000284,
                    "durationTicks": 192,
                    "midi": 45,
                    "name": "A2",
                    "ticks": 49920,
                    "time": 52,
                    "velocity": 0.2440944881889764
                },
                {
                    "duration": 0.20000000000000284,
                    "durationTicks": 192,
                    "midi": 57,
                    "name": "A3",
                    "ticks": 49920,
                    "time": 52,
                    "velocity": 0.23622047244094488
                },
                {
                    "duration": 0.20000000000000284,
                    "durationTicks": 192,
                    "midi": 69,
                    "name": "A4",
                    "ticks": 50112,
                    "time": 52.2,
                    "velocity": 0.2125984251968504
                },
                {
                    "duration": 0.20000000000000284,
                    "durationTicks": 192,
                    "midi": 72,
                    "name": "C5",
                    "ticks": 50112,
                    "time": 52.2,
                    "velocity": 0.2125984251968504
                },
                {
                    "duration": 0.20000000000000284,
                    "durationTicks": 192,
                    "midi": 74,
                    "name": "D5",
                    "ticks": 50112,
                    "time": 52.2,
                    "velocity": 0.2440944881889764
                },
                {
                    "duration": 0.20000000000000284,
                    "durationTicks": 192,
                    "midi": 45,
                    "name": "A2",
                    "ticks": 50112,
                    "time": 52.2,
                    "velocity": 0.2204724409448819
                },
                {
                    "duration": 0.20000000000000284,
                    "durationTicks": 192,
                    "midi": 57,
                    "name": "A3",
                    "ticks": 50112,
                    "time": 52.2,
                    "velocity": 0.2204724409448819
                },
                {
                    "duration": 0.09999999999999432,
                    "durationTicks": 96,
                    "midi": 69,
                    "name": "A4",
                    "ticks": 50304,
                    "time": 52.400000000000006,
                    "velocity": 0.2204724409448819
                },
                {
                    "duration": 0.09999999999999432,
                    "durationTicks": 96,
                    "midi": 72,
                    "name": "C5",
                    "ticks": 50304,
                    "time": 52.400000000000006,
                    "velocity": 0.2047244094488189
                },
                {
                    "duration": 0.09999999999999432,
                    "durationTicks": 96,
                    "midi": 76,
                    "name": "E5",
                    "ticks": 50304,
                    "time": 52.400000000000006,
                    "velocity": 0.25984251968503935
                },
                {
                    "duration": 0.3999999999999986,
                    "durationTicks": 384,
                    "midi": 45,
                    "name": "A2",
                    "ticks": 50304,
                    "time": 52.400000000000006,
                    "velocity": 0.2125984251968504
                },
                {
                    "duration": 0.3999999999999986,
                    "durationTicks": 384,
                    "midi": 57,
                    "name": "A3",
                    "ticks": 50304,
                    "time": 52.400000000000006,
                    "velocity": 0.2204724409448819
                },
                {
                    "duration": 0.30000000000000426,
                    "durationTicks": 288,
                    "midi": 69,
                    "name": "A4",
                    "ticks": 50400,
                    "time": 52.5,
                    "velocity": 0.2125984251968504
                },
                {
                    "duration": 0.30000000000000426,
                    "durationTicks": 288,
                    "midi": 72,
                    "name": "C5",
                    "ticks": 50400,
                    "time": 52.5,
                    "velocity": 0.2204724409448819
                },
                {
                    "duration": 0.30000000000000426,
                    "durationTicks": 288,
                    "midi": 76,
                    "name": "E5",
                    "ticks": 50400,
                    "time": 52.5,
                    "velocity": 0.25196850393700787
                },
                {
                    "duration": 0.19999999999999574,
                    "durationTicks": 192,
                    "midi": 69,
                    "name": "A4",
                    "ticks": 50688,
                    "time": 52.800000000000004,
                    "velocity": 0.2125984251968504
                },
                {
                    "duration": 0.19999999999999574,
                    "durationTicks": 192,
                    "midi": 72,
                    "name": "C5",
                    "ticks": 50688,
                    "time": 52.800000000000004,
                    "velocity": 0.1968503937007874
                },
                {
                    "duration": 0.19999999999999574,
                    "durationTicks": 192,
                    "midi": 79,
                    "name": "G5",
                    "ticks": 50688,
                    "time": 52.800000000000004,
                    "velocity": 0.2283464566929134
                },
                {
                    "duration": 0.19999999999999574,
                    "durationTicks": 192,
                    "midi": 45,
                    "name": "A2",
                    "ticks": 50688,
                    "time": 52.800000000000004,
                    "velocity": 0.1968503937007874
                },
                {
                    "duration": 0.19999999999999574,
                    "durationTicks": 192,
                    "midi": 57,
                    "name": "A3",
                    "ticks": 50688,
                    "time": 52.800000000000004,
                    "velocity": 0.1968503937007874
                },
                {
                    "duration": 0.20000000000000284,
                    "durationTicks": 192,
                    "midi": 69,
                    "name": "A4",
                    "ticks": 50880,
                    "time": 53,
                    "velocity": 0.2125984251968504
                },
                {
                    "duration": 0.20000000000000284,
                    "durationTicks": 192,
                    "midi": 72,
                    "name": "C5",
                    "ticks": 50880,
                    "time": 53,
                    "velocity": 0.2047244094488189
                },
                {
                    "duration": 0.20000000000000284,
                    "durationTicks": 192,
                    "midi": 77,
                    "name": "F5",
                    "ticks": 50880,
                    "time": 53,
                    "velocity": 0.2440944881889764
                },
                {
                    "duration": 0.20000000000000284,
                    "durationTicks": 192,
                    "midi": 45,
                    "name": "A2",
                    "ticks": 50880,
                    "time": 53,
                    "velocity": 0.1968503937007874
                },
                {
                    "duration": 0.20000000000000284,
                    "durationTicks": 192,
                    "midi": 57,
                    "name": "A3",
                    "ticks": 50880,
                    "time": 53,
                    "velocity": 0.23622047244094488
                },
                {
                    "duration": 0.3999999999999986,
                    "durationTicks": 384,
                    "midi": 69,
                    "name": "A4",
                    "ticks": 51072,
                    "time": 53.2,
                    "velocity": 0.2125984251968504
                },
                {
                    "duration": 0.3999999999999986,
                    "durationTicks": 384,
                    "midi": 72,
                    "name": "C5",
                    "ticks": 51072,
                    "time": 53.2,
                    "velocity": 0.2204724409448819
                },
                {
                    "duration": 0.3999999999999986,
                    "durationTicks": 384,
                    "midi": 76,
                    "name": "E5",
                    "ticks": 51072,
                    "time": 53.2,
                    "velocity": 0.2440944881889764
                },
                {
                    "duration": 0.3999999999999986,
                    "durationTicks": 384,
                    "midi": 45,
                    "name": "A2",
                    "ticks": 51072,
                    "time": 53.2,
                    "velocity": 0.2283464566929134
                },
                {
                    "duration": 0.3999999999999986,
                    "durationTicks": 384,
                    "midi": 57,
                    "name": "A3",
                    "ticks": 51072,
                    "time": 53.2,
                    "velocity": 0.2125984251968504
                },
                {
                    "duration": 0.20000000000000284,
                    "durationTicks": 192,
                    "midi": 69,
                    "name": "A4",
                    "ticks": 51456,
                    "time": 53.6,
                    "velocity": 0.2125984251968504
                },
                {
                    "duration": 0.20000000000000284,
                    "durationTicks": 192,
                    "midi": 72,
                    "name": "C5",
                    "ticks": 51456,
                    "time": 53.6,
                    "velocity": 0.2204724409448819
                },
                {
                    "duration": 0.20000000000000284,
                    "durationTicks": 192,
                    "midi": 45,
                    "name": "A2",
                    "ticks": 51456,
                    "time": 53.6,
                    "velocity": 0.2440944881889764
                },
                {
                    "duration": 0.20000000000000284,
                    "durationTicks": 192,
                    "midi": 57,
                    "name": "A3",
                    "ticks": 51456,
                    "time": 53.6,
                    "velocity": 0.2204724409448819
                },
                {
                    "duration": 0.29999999999999716,
                    "durationTicks": 288,
                    "midi": 69,
                    "name": "A4",
                    "ticks": 51648,
                    "time": 53.800000000000004,
                    "velocity": 0.2204724409448819
                },
                {
                    "duration": 0.29999999999999716,
                    "durationTicks": 288,
                    "midi": 72,
                    "name": "C5",
                    "ticks": 51648,
                    "time": 53.800000000000004,
                    "velocity": 0.23622047244094488
                },
                {
                    "duration": 0.29999999999999716,
                    "durationTicks": 288,
                    "midi": 74,
                    "name": "D5",
                    "ticks": 51648,
                    "time": 53.800000000000004,
                    "velocity": 0.2440944881889764
                },
                {
                    "duration": 0.29999999999999716,
                    "durationTicks": 288,
                    "midi": 45,
                    "name": "A2",
                    "ticks": 51648,
                    "time": 53.800000000000004,
                    "velocity": 0.2283464566929134
                },
                {
                    "duration": 0.29999999999999716,
                    "durationTicks": 288,
                    "midi": 57,
                    "name": "A3",
                    "ticks": 51648,
                    "time": 53.800000000000004,
                    "velocity": 0.2125984251968504
                },
                {
                    "duration": 0.10000000000000142,
                    "durationTicks": 96,
                    "midi": 69,
                    "name": "A4",
                    "ticks": 51936,
                    "time": 54.1,
                    "velocity": 0.2440944881889764
                },
                {
                    "duration": 0.10000000000000142,
                    "durationTicks": 96,
                    "midi": 72,
                    "name": "C5",
                    "ticks": 51936,
                    "time": 54.1,
                    "velocity": 0.23622047244094488
                },
                {
                    "duration": 0.30000000000000426,
                    "durationTicks": 288,
                    "midi": 45,
                    "name": "A2",
                    "ticks": 51936,
                    "time": 54.1,
                    "velocity": 0.2204724409448819
                },
                {
                    "duration": 0.30000000000000426,
                    "durationTicks": 288,
                    "midi": 57,
                    "name": "A3",
                    "ticks": 51936,
                    "time": 54.1,
                    "velocity": 0.2204724409448819
                },
                {
                    "duration": 0.20000000000000284,
                    "durationTicks": 192,
                    "midi": 76,
                    "name": "E5",
                    "ticks": 52032,
                    "time": 54.2,
                    "velocity": 0.2047244094488189
                },
                {
                    "duration": 0.8999999999999986,
                    "durationTicks": 864,
                    "midi": 69,
                    "name": "A4",
                    "ticks": 52224,
                    "time": 54.400000000000006,
                    "velocity": 0.1968503937007874
                },
                {
                    "duration": 0.8999999999999986,
                    "durationTicks": 864,
                    "midi": 72,
                    "name": "C5",
                    "ticks": 52224,
                    "time": 54.400000000000006,
                    "velocity": 0.2125984251968504
                },
                {
                    "duration": 0.8999999999999986,
                    "durationTicks": 864,
                    "midi": 76,
                    "name": "E5",
                    "ticks": 52224,
                    "time": 54.400000000000006,
                    "velocity": 0.25984251968503935
                },
                {
                    "duration": 0.8999999999999986,
                    "durationTicks": 864,
                    "midi": 45,
                    "name": "A2",
                    "ticks": 52224,
                    "time": 54.400000000000006,
                    "velocity": 0.2440944881889764
                },
                {
                    "duration": 0.8999999999999986,
                    "durationTicks": 864,
                    "midi": 57,
                    "name": "A3",
                    "ticks": 52224,
                    "time": 54.400000000000006,
                    "velocity": 0.25196850393700787
                },
                {
                    "duration": 0.3999999999999986,
                    "durationTicks": 384,
                    "midi": 76,
                    "name": "E5",
                    "ticks": 53184,
                    "time": 55.400000000000006,
                    "velocity": 0.2204724409448819
                },
                {
                    "duration": 0.3999999999999986,
                    "durationTicks": 384,
                    "midi": 79,
                    "name": "G5",
                    "ticks": 53184,
                    "time": 55.400000000000006,
                    "velocity": 0.23622047244094488
                },
                {
                    "duration": 0.3999999999999986,
                    "durationTicks": 384,
                    "midi": 84,
                    "name": "C6",
                    "ticks": 53184,
                    "time": 55.400000000000006,
                    "velocity": 0.25984251968503935
                },
                {
                    "duration": 0.3999999999999986,
                    "durationTicks": 384,
                    "midi": 88,
                    "name": "E6",
                    "ticks": 53184,
                    "time": 55.400000000000006,
                    "velocity": 0.2755905511811024
                },
                {
                    "duration": 0.3999999999999986,
                    "durationTicks": 384,
                    "midi": 48,
                    "name": "C3",
                    "ticks": 53184,
                    "time": 55.400000000000006,
                    "velocity": 0.2440944881889764
                },
                {
                    "duration": 0.3999999999999986,
                    "durationTicks": 384,
                    "midi": 60,
                    "name": "C4",
                    "ticks": 53184,
                    "time": 55.400000000000006,
                    "velocity": 0.2283464566929134
                },
                {
                    "duration": 0.3999999999999986,
                    "durationTicks": 384,
                    "midi": 74,
                    "name": "D5",
                    "ticks": 53568,
                    "time": 55.800000000000004,
                    "velocity": 0.25984251968503935
                },
                {
                    "duration": 0.3999999999999986,
                    "durationTicks": 384,
                    "midi": 79,
                    "name": "G5",
                    "ticks": 53568,
                    "time": 55.800000000000004,
                    "velocity": 0.2440944881889764
                },
                {
                    "duration": 0.3999999999999986,
                    "durationTicks": 384,
                    "midi": 83,
                    "name": "B5",
                    "ticks": 53568,
                    "time": 55.800000000000004,
                    "velocity": 0.25196850393700787
                },
                {
                    "duration": 0.3999999999999986,
                    "durationTicks": 384,
                    "midi": 86,
                    "name": "D6",
                    "ticks": 53568,
                    "time": 55.800000000000004,
                    "velocity": 0.2440944881889764
                },
                {
                    "duration": 0.3999999999999986,
                    "durationTicks": 384,
                    "midi": 43,
                    "name": "G2",
                    "ticks": 53568,
                    "time": 55.800000000000004,
                    "velocity": 0.25196850393700787
                },
                {
                    "duration": 0.3999999999999986,
                    "durationTicks": 384,
                    "midi": 55,
                    "name": "G3",
                    "ticks": 53568,
                    "time": 55.800000000000004,
                    "velocity": 0.25196850393700787
                },
                {
                    "duration": 0.29999999999999716,
                    "durationTicks": 288,
                    "midi": 64,
                    "name": "E4",
                    "ticks": 53952,
                    "time": 56.2,
                    "velocity": 0.25196850393700787
                },
                {
                    "duration": 0.29999999999999716,
                    "durationTicks": 288,
                    "midi": 69,
                    "name": "A4",
                    "ticks": 53952,
                    "time": 56.2,
                    "velocity": 0.2677165354330709
                },
                {
                    "duration": 0.29999999999999716,
                    "durationTicks": 288,
                    "midi": 72,
                    "name": "C5",
                    "ticks": 53952,
                    "time": 56.2,
                    "velocity": 0.29133858267716534
                },
                {
                    "duration": 0.29999999999999716,
                    "durationTicks": 288,
                    "midi": 76,
                    "name": "E5",
                    "ticks": 53952,
                    "time": 56.2,
                    "velocity": 0.2755905511811024
                },
                {
                    "duration": 0.29999999999999716,
                    "durationTicks": 288,
                    "midi": 41,
                    "name": "F2",
                    "ticks": 53952,
                    "time": 56.2,
                    "velocity": 0.25196850393700787
                },
                {
                    "duration": 0.29999999999999716,
                    "durationTicks": 288,
                    "midi": 53,
                    "name": "F3",
                    "ticks": 53952,
                    "time": 56.2,
                    "velocity": 0.25984251968503935
                },
                {
                    "duration": 0.30000000000000426,
                    "durationTicks": 288,
                    "midi": 64,
                    "name": "E4",
                    "ticks": 54240,
                    "time": 56.5,
                    "velocity": 0.23622047244094488
                },
                {
                    "duration": 0.30000000000000426,
                    "durationTicks": 288,
                    "midi": 69,
                    "name": "A4",
                    "ticks": 54240,
                    "time": 56.5,
                    "velocity": 0.23622047244094488
                },
                {
                    "duration": 0.30000000000000426,
                    "durationTicks": 288,
                    "midi": 72,
                    "name": "C5",
                    "ticks": 54240,
                    "time": 56.5,
                    "velocity": 0.2440944881889764
                },
                {
                    "duration": 0.30000000000000426,
                    "durationTicks": 288,
                    "midi": 74,
                    "name": "D5",
                    "ticks": 54240,
                    "time": 56.5,
                    "velocity": 0.2677165354330709
                },
                {
                    "duration": 0.30000000000000426,
                    "durationTicks": 288,
                    "midi": 41,
                    "name": "F2",
                    "ticks": 54240,
                    "time": 56.5,
                    "velocity": 0.2283464566929134
                },
                {
                    "duration": 0.30000000000000426,
                    "durationTicks": 288,
                    "midi": 53,
                    "name": "F3",
                    "ticks": 54240,
                    "time": 56.5,
                    "velocity": 0.2204724409448819
                },
                {
                    "duration": 0.19999999999999574,
                    "durationTicks": 192,
                    "midi": 64,
                    "name": "E4",
                    "ticks": 54528,
                    "time": 56.800000000000004,
                    "velocity": 0.2440944881889764
                },
                {
                    "duration": 0.19999999999999574,
                    "durationTicks": 192,
                    "midi": 69,
                    "name": "A4",
                    "ticks": 54528,
                    "time": 56.800000000000004,
                    "velocity": 0.25196850393700787
                },
                {
                    "duration": 0.19999999999999574,
                    "durationTicks": 192,
                    "midi": 72,
                    "name": "C5",
                    "ticks": 54528,
                    "time": 56.800000000000004,
                    "velocity": 0.2440944881889764
                },
                {
                    "duration": 0.19999999999999574,
                    "durationTicks": 192,
                    "midi": 74,
                    "name": "D5",
                    "ticks": 54528,
                    "time": 56.800000000000004,
                    "velocity": 0.28346456692913385
                },
                {
                    "duration": 0.19999999999999574,
                    "durationTicks": 192,
                    "midi": 41,
                    "name": "F2",
                    "ticks": 54528,
                    "time": 56.800000000000004,
                    "velocity": 0.2440944881889764
                },
                {
                    "duration": 0.19999999999999574,
                    "durationTicks": 192,
                    "midi": 53,
                    "name": "F3",
                    "ticks": 54528,
                    "time": 56.800000000000004,
                    "velocity": 0.23622047244094488
                },
                {
                    "duration": 0.30000000000000426,
                    "durationTicks": 288,
                    "midi": 64,
                    "name": "E4",
                    "ticks": 54720,
                    "time": 57,
                    "velocity": 0.25196850393700787
                },
                {
                    "duration": 0.30000000000000426,
                    "durationTicks": 288,
                    "midi": 69,
                    "name": "A4",
                    "ticks": 54720,
                    "time": 57,
                    "velocity": 0.2677165354330709
                },
                {
                    "duration": 0.30000000000000426,
                    "durationTicks": 288,
                    "midi": 72,
                    "name": "C5",
                    "ticks": 54720,
                    "time": 57,
                    "velocity": 0.25984251968503935
                },
                {
                    "duration": 0.30000000000000426,
                    "durationTicks": 288,
                    "midi": 74,
                    "name": "D5",
                    "ticks": 54720,
                    "time": 57,
                    "velocity": 0.2755905511811024
                },
                {
                    "duration": 0.30000000000000426,
                    "durationTicks": 288,
                    "midi": 41,
                    "name": "F2",
                    "ticks": 54720,
                    "time": 57,
                    "velocity": 0.25984251968503935
                },
                {
                    "duration": 0.30000000000000426,
                    "durationTicks": 288,
                    "midi": 53,
                    "name": "F3",
                    "ticks": 54720,
                    "time": 57,
                    "velocity": 0.25196850393700787
                },
                {
                    "duration": 0.29999999999999716,
                    "durationTicks": 288,
                    "midi": 64,
                    "name": "E4",
                    "ticks": 55008,
                    "time": 57.300000000000004,
                    "velocity": 0.2204724409448819
                },
                {
                    "duration": 0.29999999999999716,
                    "durationTicks": 288,
                    "midi": 69,
                    "name": "A4",
                    "ticks": 55008,
                    "time": 57.300000000000004,
                    "velocity": 0.25984251968503935
                },
                {
                    "duration": 0.29999999999999716,
                    "durationTicks": 288,
                    "midi": 72,
                    "name": "C5",
                    "ticks": 55008,
                    "time": 57.300000000000004,
                    "velocity": 0.28346456692913385
                },
                {
                    "duration": 0.29999999999999716,
                    "durationTicks": 288,
                    "midi": 41,
                    "name": "F2",
                    "ticks": 55008,
                    "time": 57.300000000000004,
                    "velocity": 0.2047244094488189
                },
                {
                    "duration": 0.29999999999999716,
                    "durationTicks": 288,
                    "midi": 53,
                    "name": "F3",
                    "ticks": 55008,
                    "time": 57.300000000000004,
                    "velocity": 0.1968503937007874
                },
                {
                    "duration": 0.20000000000000284,
                    "durationTicks": 192,
                    "midi": 64,
                    "name": "E4",
                    "ticks": 55296,
                    "time": 57.6,
                    "velocity": 0.2283464566929134
                },
                {
                    "duration": 0.20000000000000284,
                    "durationTicks": 192,
                    "midi": 69,
                    "name": "A4",
                    "ticks": 55296,
                    "time": 57.6,
                    "velocity": 0.25196850393700787
                },
                {
                    "duration": 0.20000000000000284,
                    "durationTicks": 192,
                    "midi": 71,
                    "name": "B4",
                    "ticks": 55296,
                    "time": 57.6,
                    "velocity": 0.2755905511811024
                },
                {
                    "duration": 0.20000000000000284,
                    "durationTicks": 192,
                    "midi": 41,
                    "name": "F2",
                    "ticks": 55296,
                    "time": 57.6,
                    "velocity": 0.2047244094488189
                },
                {
                    "duration": 0.20000000000000284,
                    "durationTicks": 192,
                    "midi": 53,
                    "name": "F3",
                    "ticks": 55296,
                    "time": 57.6,
                    "velocity": 0.2047244094488189
                },
                {
                    "duration": 0.19999999999999574,
                    "durationTicks": 192,
                    "midi": 64,
                    "name": "E4",
                    "ticks": 55488,
                    "time": 57.800000000000004,
                    "velocity": 0.25196850393700787
                },
                {
                    "duration": 0.19999999999999574,
                    "durationTicks": 192,
                    "midi": 69,
                    "name": "A4",
                    "ticks": 55488,
                    "time": 57.800000000000004,
                    "velocity": 0.2440944881889764
                },
                {
                    "duration": 0.19999999999999574,
                    "durationTicks": 192,
                    "midi": 72,
                    "name": "C5",
                    "ticks": 55488,
                    "time": 57.800000000000004,
                    "velocity": 0.25196850393700787
                },
                {
                    "duration": 0.29999999999999716,
                    "durationTicks": 288,
                    "midi": 43,
                    "name": "G2",
                    "ticks": 55488,
                    "time": 57.800000000000004,
                    "velocity": 0.2440944881889764
                },
                {
                    "duration": 0.29999999999999716,
                    "durationTicks": 288,
                    "midi": 55,
                    "name": "G3",
                    "ticks": 55488,
                    "time": 57.800000000000004,
                    "velocity": 0.2440944881889764
                },
                {
                    "duration": 0.10000000000000142,
                    "durationTicks": 96,
                    "midi": 72,
                    "name": "C5",
                    "ticks": 55680,
                    "time": 58,
                    "velocity": 0.2677165354330709
                },
                {
                    "duration": 0.30000000000000426,
                    "durationTicks": 288,
                    "midi": 64,
                    "name": "E4",
                    "ticks": 55776,
                    "time": 58.1,
                    "velocity": 0.2283464566929134
                },
                {
                    "duration": 0.30000000000000426,
                    "durationTicks": 288,
                    "midi": 69,
                    "name": "A4",
                    "ticks": 55776,
                    "time": 58.1,
                    "velocity": 0.2283464566929134
                },
                {
                    "duration": 0.30000000000000426,
                    "durationTicks": 288,
                    "midi": 43,
                    "name": "G2",
                    "ticks": 55776,
                    "time": 58.1,
                    "velocity": 0.2204724409448819
                },
                {
                    "duration": 0.30000000000000426,
                    "durationTicks": 288,
                    "midi": 55,
                    "name": "G3",
                    "ticks": 55776,
                    "time": 58.1,
                    "velocity": 0.2283464566929134
                },
                {
                    "duration": 0.19999999999999574,
                    "durationTicks": 192,
                    "midi": 64,
                    "name": "E4",
                    "ticks": 56064,
                    "time": 58.400000000000006,
                    "velocity": 0.2125984251968504
                },
                {
                    "duration": 0.19999999999999574,
                    "durationTicks": 192,
                    "midi": 69,
                    "name": "A4",
                    "ticks": 56064,
                    "time": 58.400000000000006,
                    "velocity": 0.1732283464566929
                },
                {
                    "duration": 0.19999999999999574,
                    "durationTicks": 192,
                    "midi": 71,
                    "name": "B4",
                    "ticks": 56064,
                    "time": 58.400000000000006,
                    "velocity": 0.2677165354330709
                },
                {
                    "duration": 0.19999999999999574,
                    "durationTicks": 192,
                    "midi": 43,
                    "name": "G2",
                    "ticks": 56064,
                    "time": 58.400000000000006,
                    "velocity": 0.2283464566929134
                },
                {
                    "duration": 0.19999999999999574,
                    "durationTicks": 192,
                    "midi": 55,
                    "name": "G3",
                    "ticks": 56064,
                    "time": 58.400000000000006,
                    "velocity": 0.2204724409448819
                },
                {
                    "duration": 0.20000000000000284,
                    "durationTicks": 192,
                    "midi": 64,
                    "name": "E4",
                    "ticks": 56256,
                    "time": 58.6,
                    "velocity": 0.2440944881889764
                },
                {
                    "duration": 0.20000000000000284,
                    "durationTicks": 192,
                    "midi": 69,
                    "name": "A4",
                    "ticks": 56256,
                    "time": 58.6,
                    "velocity": 0.25984251968503935
                },
                {
                    "duration": 0.20000000000000284,
                    "durationTicks": 192,
                    "midi": 72,
                    "name": "C5",
                    "ticks": 56256,
                    "time": 58.6,
                    "velocity": 0.2440944881889764
                },
                {
                    "duration": 0.30000000000000426,
                    "durationTicks": 288,
                    "midi": 43,
                    "name": "G2",
                    "ticks": 56256,
                    "time": 58.6,
                    "velocity": 0.2440944881889764
                },
                {
                    "duration": 0.30000000000000426,
                    "durationTicks": 288,
                    "midi": 55,
                    "name": "G3",
                    "ticks": 56256,
                    "time": 58.6,
                    "velocity": 0.23622047244094488
                },
                {
                    "duration": 0.10000000000000142,
                    "durationTicks": 96,
                    "midi": 67,
                    "name": "G4",
                    "ticks": 56448,
                    "time": 58.800000000000004,
                    "velocity": 0.28346456692913385
                },
                {
                    "duration": 0.29999999999999716,
                    "durationTicks": 288,
                    "midi": 64,
                    "name": "E4",
                    "ticks": 56544,
                    "time": 58.900000000000006,
                    "velocity": 0.2283464566929134
                },
                {
                    "duration": 0.29999999999999716,
                    "durationTicks": 288,
                    "midi": 69,
                    "name": "A4",
                    "ticks": 56544,
                    "time": 58.900000000000006,
                    "velocity": 0.25984251968503935
                },
                {
                    "duration": 0.29999999999999716,
                    "durationTicks": 288,
                    "midi": 72,
                    "name": "C5",
                    "ticks": 56544,
                    "time": 58.900000000000006,
                    "velocity": 0.2440944881889764
                },
                {
                    "duration": 0.29999999999999716,
                    "durationTicks": 288,
                    "midi": 43,
                    "name": "G2",
                    "ticks": 56544,
                    "time": 58.900000000000006,
                    "velocity": 0.2125984251968504
                },
                {
                    "duration": 0.29999999999999716,
                    "durationTicks": 288,
                    "midi": 55,
                    "name": "G3",
                    "ticks": 56544,
                    "time": 58.900000000000006,
                    "velocity": 0.2125984251968504
                },
                {
                    "duration": 0.20000000000000284,
                    "durationTicks": 192,
                    "midi": 64,
                    "name": "E4",
                    "ticks": 56832,
                    "time": 59.2,
                    "velocity": 0.2283464566929134
                },
                {
                    "duration": 0.20000000000000284,
                    "durationTicks": 192,
                    "midi": 69,
                    "name": "A4",
                    "ticks": 56832,
                    "time": 59.2,
                    "velocity": 0.25984251968503935
                },
                {
                    "duration": 0.20000000000000284,
                    "durationTicks": 192,
                    "midi": 72,
                    "name": "C5",
                    "ticks": 56832,
                    "time": 59.2,
                    "velocity": 0.23622047244094488
                },
                {
                    "duration": 0.20000000000000284,
                    "durationTicks": 192,
                    "midi": 43,
                    "name": "G2",
                    "ticks": 56832,
                    "time": 59.2,
                    "velocity": 0.2125984251968504
                },
                {
                    "duration": 0.20000000000000284,
                    "durationTicks": 192,
                    "midi": 55,
                    "name": "G3",
                    "ticks": 56832,
                    "time": 59.2,
                    "velocity": 0.2204724409448819
                },
                {
                    "duration": 0.29999999999999716,
                    "durationTicks": 288,
                    "midi": 64,
                    "name": "E4",
                    "ticks": 57024,
                    "time": 59.400000000000006,
                    "velocity": 0.2283464566929134
                },
                {
                    "duration": 0.29999999999999716,
                    "durationTicks": 288,
                    "midi": 69,
                    "name": "A4",
                    "ticks": 57024,
                    "time": 59.400000000000006,
                    "velocity": 0.2755905511811024
                },
                {
                    "duration": 0.29999999999999716,
                    "durationTicks": 288,
                    "midi": 72,
                    "name": "C5",
                    "ticks": 57024,
                    "time": 59.400000000000006,
                    "velocity": 0.2440944881889764
                },
                {
                    "duration": 0.29999999999999716,
                    "durationTicks": 288,
                    "midi": 76,
                    "name": "E5",
                    "ticks": 57024,
                    "time": 59.400000000000006,
                    "velocity": 0.2677165354330709
                },
                {
                    "duration": 0.29999999999999716,
                    "durationTicks": 288,
                    "midi": 45,
                    "name": "A2",
                    "ticks": 57024,
                    "time": 59.400000000000006,
                    "velocity": 0.2125984251968504
                },
                {
                    "duration": 0.29999999999999716,
                    "durationTicks": 288,
                    "midi": 57,
                    "name": "A3",
                    "ticks": 57024,
                    "time": 59.400000000000006,
                    "velocity": 0.25196850393700787
                },
                {
                    "duration": 0.29999999999999716,
                    "durationTicks": 288,
                    "midi": 64,
                    "name": "E4",
                    "ticks": 57312,
                    "time": 59.7,
                    "velocity": 0.2125984251968504
                },
                {
                    "duration": 0.29999999999999716,
                    "durationTicks": 288,
                    "midi": 69,
                    "name": "A4",
                    "ticks": 57312,
                    "time": 59.7,
                    "velocity": 0.2204724409448819
                },
                {
                    "duration": 0.29999999999999716,
                    "durationTicks": 288,
                    "midi": 72,
                    "name": "C5",
                    "ticks": 57312,
                    "time": 59.7,
                    "velocity": 0.2125984251968504
                },
                {
                    "duration": 0.29999999999999716,
                    "durationTicks": 288,
                    "midi": 74,
                    "name": "D5",
                    "ticks": 57312,
                    "time": 59.7,
                    "velocity": 0.28346456692913385
                },
                {
                    "duration": 0.29999999999999716,
                    "durationTicks": 288,
                    "midi": 45,
                    "name": "A2",
                    "ticks": 57312,
                    "time": 59.7,
                    "velocity": 0.2440944881889764
                },
                {
                    "duration": 0.29999999999999716,
                    "durationTicks": 288,
                    "midi": 57,
                    "name": "A3",
                    "ticks": 57312,
                    "time": 59.7,
                    "velocity": 0.23622047244094488
                },
                {
                    "duration": 0.20000000000000284,
                    "durationTicks": 192,
                    "midi": 64,
                    "name": "E4",
                    "ticks": 57600,
                    "time": 60,
                    "velocity": 0.2283464566929134
                },
                {
                    "duration": 0.20000000000000284,
                    "durationTicks": 192,
                    "midi": 69,
                    "name": "A4",
                    "ticks": 57600,
                    "time": 60,
                    "velocity": 0.25196850393700787
                },
                {
                    "duration": 0.20000000000000284,
                    "durationTicks": 192,
                    "midi": 72,
                    "name": "C5",
                    "ticks": 57600,
                    "time": 60,
                    "velocity": 0.2283464566929134
                },
                {
                    "duration": 0.20000000000000284,
                    "durationTicks": 192,
                    "midi": 74,
                    "name": "D5",
                    "ticks": 57600,
                    "time": 60,
                    "velocity": 0.28346456692913385
                },
                {
                    "duration": 0.20000000000000284,
                    "durationTicks": 192,
                    "midi": 45,
                    "name": "A2",
                    "ticks": 57600,
                    "time": 60,
                    "velocity": 0.2440944881889764
                },
                {
                    "duration": 0.20000000000000284,
                    "durationTicks": 192,
                    "midi": 57,
                    "name": "A3",
                    "ticks": 57600,
                    "time": 60,
                    "velocity": 0.2283464566929134
                },
                {
                    "duration": 0.20000000000000284,
                    "durationTicks": 192,
                    "midi": 64,
                    "name": "E4",
                    "ticks": 57792,
                    "time": 60.2,
                    "velocity": 0.2204724409448819
                },
                {
                    "duration": 0.20000000000000284,
                    "durationTicks": 192,
                    "midi": 69,
                    "name": "A4",
                    "ticks": 57792,
                    "time": 60.2,
                    "velocity": 0.23622047244094488
                },
                {
                    "duration": 0.20000000000000284,
                    "durationTicks": 192,
                    "midi": 72,
                    "name": "C5",
                    "ticks": 57792,
                    "time": 60.2,
                    "velocity": 0.2283464566929134
                },
                {
                    "duration": 0.29999999999999716,
                    "durationTicks": 288,
                    "midi": 45,
                    "name": "A2",
                    "ticks": 57792,
                    "time": 60.2,
                    "velocity": 0.25196850393700787
                },
                {
                    "duration": 0.29999999999999716,
                    "durationTicks": 288,
                    "midi": 57,
                    "name": "A3",
                    "ticks": 57792,
                    "time": 60.2,
                    "velocity": 0.25196850393700787
                },
                {
                    "duration": 0.3999999999999986,
                    "durationTicks": 384,
                    "midi": 72,
                    "name": "C5",
                    "ticks": 57984,
                    "time": 60.400000000000006,
                    "velocity": 0.28346456692913385
                },
                {
                    "duration": 0.30000000000000426,
                    "durationTicks": 288,
                    "midi": 64,
                    "name": "E4",
                    "ticks": 58080,
                    "time": 60.5,
                    "velocity": 0.2125984251968504
                },
                {
                    "duration": 0.30000000000000426,
                    "durationTicks": 288,
                    "midi": 69,
                    "name": "A4",
                    "ticks": 58080,
                    "time": 60.5,
                    "velocity": 0.1968503937007874
                },
                {
                    "duration": 0.30000000000000426,
                    "durationTicks": 288,
                    "midi": 45,
                    "name": "A2",
                    "ticks": 58080,
                    "time": 60.5,
                    "velocity": 0.1889763779527559
                },
                {
                    "duration": 0.30000000000000426,
                    "durationTicks": 288,
                    "midi": 57,
                    "name": "A3",
                    "ticks": 58080,
                    "time": 60.5,
                    "velocity": 0.1732283464566929
                },
                {
                    "duration": 0.19999999999999574,
                    "durationTicks": 192,
                    "midi": 64,
                    "name": "E4",
                    "ticks": 58368,
                    "time": 60.800000000000004,
                    "velocity": 0.1889763779527559
                },
                {
                    "duration": 0.19999999999999574,
                    "durationTicks": 192,
                    "midi": 69,
                    "name": "A4",
                    "ticks": 58368,
                    "time": 60.800000000000004,
                    "velocity": 0.1889763779527559
                },
                {
                    "duration": 0.19999999999999574,
                    "durationTicks": 192,
                    "midi": 72,
                    "name": "C5",
                    "ticks": 58368,
                    "time": 60.800000000000004,
                    "velocity": 0.2755905511811024
                },
                {
                    "duration": 0.19999999999999574,
                    "durationTicks": 192,
                    "midi": 45,
                    "name": "A2",
                    "ticks": 58368,
                    "time": 60.800000000000004,
                    "velocity": 0.2283464566929134
                },
                {
                    "duration": 0.19999999999999574,
                    "durationTicks": 192,
                    "midi": 57,
                    "name": "A3",
                    "ticks": 58368,
                    "time": 60.800000000000004,
                    "velocity": 0.2125984251968504
                },
                {
                    "duration": 0.20000000000000284,
                    "durationTicks": 192,
                    "midi": 64,
                    "name": "E4",
                    "ticks": 58560,
                    "time": 61,
                    "velocity": 0.2440944881889764
                },
                {
                    "duration": 0.20000000000000284,
                    "durationTicks": 192,
                    "midi": 67,
                    "name": "G4",
                    "ticks": 58560,
                    "time": 61,
                    "velocity": 0.25984251968503935
                },
                {
                    "duration": 0.20000000000000284,
                    "durationTicks": 192,
                    "midi": 71,
                    "name": "B4",
                    "ticks": 58560,
                    "time": 61,
                    "velocity": 0.2755905511811024
                },
                {
                    "duration": 0.30000000000000426,
                    "durationTicks": 288,
                    "midi": 40,
                    "name": "E2",
                    "ticks": 58560,
                    "time": 61,
                    "velocity": 0.2283464566929134
                },
                {
                    "duration": 0.30000000000000426,
                    "durationTicks": 288,
                    "midi": 52,
                    "name": "E3",
                    "ticks": 58560,
                    "time": 61,
                    "velocity": 0.2125984251968504
                },
                {
                    "duration": 0.10000000000000142,
                    "durationTicks": 96,
                    "midi": 72,
                    "name": "C5",
                    "ticks": 58752,
                    "time": 61.2,
                    "velocity": 0.2677165354330709
                },
                {
                    "duration": 0.29999999999999716,
                    "durationTicks": 288,
                    "midi": 64,
                    "name": "E4",
                    "ticks": 58848,
                    "time": 61.300000000000004,
                    "velocity": 0.1968503937007874
                },
                {
                    "duration": 0.29999999999999716,
                    "durationTicks": 288,
                    "midi": 67,
                    "name": "G4",
                    "ticks": 58848,
                    "time": 61.300000000000004,
                    "velocity": 0.2204724409448819
                },
                {
                    "duration": 0.29999999999999716,
                    "durationTicks": 288,
                    "midi": 40,
                    "name": "E2",
                    "ticks": 58848,
                    "time": 61.300000000000004,
                    "velocity": 0.1968503937007874
                },
                {
                    "duration": 0.29999999999999716,
                    "durationTicks": 288,
                    "midi": 52,
                    "name": "E3",
                    "ticks": 58848,
                    "time": 61.300000000000004,
                    "velocity": 0.2125984251968504
                },
                {
                    "duration": 0.20000000000000284,
                    "durationTicks": 192,
                    "midi": 64,
                    "name": "E4",
                    "ticks": 59136,
                    "time": 61.6,
                    "velocity": 0.2047244094488189
                },
                {
                    "duration": 0.20000000000000284,
                    "durationTicks": 192,
                    "midi": 67,
                    "name": "G4",
                    "ticks": 59136,
                    "time": 61.6,
                    "velocity": 0.2440944881889764
                },
                {
                    "duration": 0.20000000000000284,
                    "durationTicks": 192,
                    "midi": 71,
                    "name": "B4",
                    "ticks": 59136,
                    "time": 61.6,
                    "velocity": 0.2204724409448819
                },
                {
                    "duration": 0.20000000000000284,
                    "durationTicks": 192,
                    "midi": 79,
                    "name": "G5",
                    "ticks": 59136,
                    "time": 61.6,
                    "velocity": 0.2677165354330709
                },
                {
                    "duration": 0.20000000000000284,
                    "durationTicks": 192,
                    "midi": 40,
                    "name": "E2",
                    "ticks": 59136,
                    "time": 61.6,
                    "velocity": 0.23622047244094488
                },
                {
                    "duration": 0.20000000000000284,
                    "durationTicks": 192,
                    "midi": 52,
                    "name": "E3",
                    "ticks": 59136,
                    "time": 61.6,
                    "velocity": 0.2440944881889764
                },
                {
                    "duration": 0.19999999999999574,
                    "durationTicks": 192,
                    "midi": 64,
                    "name": "E4",
                    "ticks": 59328,
                    "time": 61.800000000000004,
                    "velocity": 0.23622047244094488
                },
                {
                    "duration": 0.19999999999999574,
                    "durationTicks": 192,
                    "midi": 67,
                    "name": "G4",
                    "ticks": 59328,
                    "time": 61.800000000000004,
                    "velocity": 0.25984251968503935
                },
                {
                    "duration": 0.19999999999999574,
                    "durationTicks": 192,
                    "midi": 71,
                    "name": "B4",
                    "ticks": 59328,
                    "time": 61.800000000000004,
                    "velocity": 0.2440944881889764
                },
                {
                    "duration": 0.29999999999999716,
                    "durationTicks": 288,
                    "midi": 40,
                    "name": "E2",
                    "ticks": 59328,
                    "time": 61.800000000000004,
                    "velocity": 0.2440944881889764
                },
                {
                    "duration": 0.29999999999999716,
                    "durationTicks": 288,
                    "midi": 52,
                    "name": "E3",
                    "ticks": 59328,
                    "time": 61.800000000000004,
                    "velocity": 0.25196850393700787
                },
                {
                    "duration": 0.10000000000000142,
                    "durationTicks": 96,
                    "midi": 71,
                    "name": "B4",
                    "ticks": 59520,
                    "time": 62,
                    "velocity": 0.28346456692913385
                },
                {
                    "duration": 0.30000000000000426,
                    "durationTicks": 288,
                    "midi": 64,
                    "name": "E4",
                    "ticks": 59616,
                    "time": 62.1,
                    "velocity": 0.1889763779527559
                },
                {
                    "duration": 0.30000000000000426,
                    "durationTicks": 288,
                    "midi": 67,
                    "name": "G4",
                    "ticks": 59616,
                    "time": 62.1,
                    "velocity": 0.1889763779527559
                },
                {
                    "duration": 0.30000000000000426,
                    "durationTicks": 288,
                    "midi": 48,
                    "name": "C3",
                    "ticks": 59616,
                    "time": 62.1,
                    "velocity": 0.2125984251968504
                },
                {
                    "duration": 0.30000000000000426,
                    "durationTicks": 288,
                    "midi": 60,
                    "name": "C4",
                    "ticks": 59616,
                    "time": 62.1,
                    "velocity": 0.25984251968503935
                },
                {
                    "duration": 0.19999999999999574,
                    "durationTicks": 192,
                    "midi": 64,
                    "name": "E4",
                    "ticks": 59904,
                    "time": 62.400000000000006,
                    "velocity": 0.2283464566929134
                },
                {
                    "duration": 0.19999999999999574,
                    "durationTicks": 192,
                    "midi": 67,
                    "name": "G4",
                    "ticks": 59904,
                    "time": 62.400000000000006,
                    "velocity": 0.23622047244094488
                },
                {
                    "duration": 0.19999999999999574,
                    "durationTicks": 192,
                    "midi": 71,
                    "name": "B4",
                    "ticks": 59904,
                    "time": 62.400000000000006,
                    "velocity": 0.2677165354330709
                },
                {
                    "duration": 0.19999999999999574,
                    "durationTicks": 192,
                    "midi": 47,
                    "name": "B2",
                    "ticks": 59904,
                    "time": 62.400000000000006,
                    "velocity": 0.2283464566929134
                },
                {
                    "duration": 0.19999999999999574,
                    "durationTicks": 192,
                    "midi": 59,
                    "name": "B3",
                    "ticks": 59904,
                    "time": 62.400000000000006,
                    "velocity": 0.1732283464566929
                },
                {
                    "duration": 0.30000000000000426,
                    "durationTicks": 288,
                    "midi": 64,
                    "name": "E4",
                    "ticks": 60096,
                    "time": 62.6,
                    "velocity": 0.25196850393700787
                },
                {
                    "duration": 0.30000000000000426,
                    "durationTicks": 288,
                    "midi": 69,
                    "name": "A4",
                    "ticks": 60096,
                    "time": 62.6,
                    "velocity": 0.2677165354330709
                },
                {
                    "duration": 0.30000000000000426,
                    "durationTicks": 288,
                    "midi": 72,
                    "name": "C5",
                    "ticks": 60096,
                    "time": 62.6,
                    "velocity": 0.29133858267716534
                },
                {
                    "duration": 0.30000000000000426,
                    "durationTicks": 288,
                    "midi": 81,
                    "name": "A5",
                    "ticks": 60096,
                    "time": 62.6,
                    "velocity": 0.2755905511811024
                },
                {
                    "duration": 0.30000000000000426,
                    "durationTicks": 288,
                    "midi": 41,
                    "name": "F2",
                    "ticks": 60096,
                    "time": 62.6,
                    "velocity": 0.25196850393700787
                },
                {
                    "duration": 0.30000000000000426,
                    "durationTicks": 288,
                    "midi": 53,
                    "name": "F3",
                    "ticks": 60096,
                    "time": 62.6,
                    "velocity": 0.25984251968503935
                },
                {
                    "duration": 0.29999999999999716,
                    "durationTicks": 288,
                    "midi": 64,
                    "name": "E4",
                    "ticks": 60384,
                    "time": 62.900000000000006,
                    "velocity": 0.23622047244094488
                },
                {
                    "duration": 0.29999999999999716,
                    "durationTicks": 288,
                    "midi": 69,
                    "name": "A4",
                    "ticks": 60384,
                    "time": 62.900000000000006,
                    "velocity": 0.23622047244094488
                },
                {
                    "duration": 0.29999999999999716,
                    "durationTicks": 288,
                    "midi": 72,
                    "name": "C5",
                    "ticks": 60384,
                    "time": 62.900000000000006,
                    "velocity": 0.2440944881889764
                },
                {
                    "duration": 0.29999999999999716,
                    "durationTicks": 288,
                    "midi": 79,
                    "name": "G5",
                    "ticks": 60384,
                    "time": 62.900000000000006,
                    "velocity": 0.29133858267716534
                },
                {
                    "duration": 0.29999999999999716,
                    "durationTicks": 288,
                    "midi": 41,
                    "name": "F2",
                    "ticks": 60384,
                    "time": 62.900000000000006,
                    "velocity": 0.2283464566929134
                },
                {
                    "duration": 0.29999999999999716,
                    "durationTicks": 288,
                    "midi": 53,
                    "name": "F3",
                    "ticks": 60384,
                    "time": 62.900000000000006,
                    "velocity": 0.2204724409448819
                },
                {
                    "duration": 0.20000000000000284,
                    "durationTicks": 192,
                    "midi": 64,
                    "name": "E4",
                    "ticks": 60672,
                    "time": 63.2,
                    "velocity": 0.2440944881889764
                },
                {
                    "duration": 0.20000000000000284,
                    "durationTicks": 192,
                    "midi": 69,
                    "name": "A4",
                    "ticks": 60672,
                    "time": 63.2,
                    "velocity": 0.25196850393700787
                },
                {
                    "duration": 0.20000000000000284,
                    "durationTicks": 192,
                    "midi": 72,
                    "name": "C5",
                    "ticks": 60672,
                    "time": 63.2,
                    "velocity": 0.2440944881889764
                },
                {
                    "duration": 0.20000000000000284,
                    "durationTicks": 192,
                    "midi": 76,
                    "name": "E5",
                    "ticks": 60672,
                    "time": 63.2,
                    "velocity": 0.28346456692913385
                },
                {
                    "duration": 0.20000000000000284,
                    "durationTicks": 192,
                    "midi": 41,
                    "name": "F2",
                    "ticks": 60672,
                    "time": 63.2,
                    "velocity": 0.2440944881889764
                },
                {
                    "duration": 0.20000000000000284,
                    "durationTicks": 192,
                    "midi": 53,
                    "name": "F3",
                    "ticks": 60672,
                    "time": 63.2,
                    "velocity": 0.23622047244094488
                },
                {
                    "duration": 0.19999999999999574,
                    "durationTicks": 192,
                    "midi": 64,
                    "name": "E4",
                    "ticks": 60864,
                    "time": 63.400000000000006,
                    "velocity": 0.25196850393700787
                },
                {
                    "duration": 0.19999999999999574,
                    "durationTicks": 192,
                    "midi": 69,
                    "name": "A4",
                    "ticks": 60864,
                    "time": 63.400000000000006,
                    "velocity": 0.2677165354330709
                },
                {
                    "duration": 0.19999999999999574,
                    "durationTicks": 192,
                    "midi": 72,
                    "name": "C5",
                    "ticks": 60864,
                    "time": 63.400000000000006,
                    "velocity": 0.25984251968503935
                },
                {
                    "duration": 0.29999999999999716,
                    "durationTicks": 288,
                    "midi": 41,
                    "name": "F2",
                    "ticks": 60864,
                    "time": 63.400000000000006,
                    "velocity": 0.25984251968503935
                },
                {
                    "duration": 0.29999999999999716,
                    "durationTicks": 288,
                    "midi": 53,
                    "name": "F3",
                    "ticks": 60864,
                    "time": 63.400000000000006,
                    "velocity": 0.25196850393700787
                },
                {
                    "duration": 0.10000000000000142,
                    "durationTicks": 96,
                    "midi": 72,
                    "name": "C5",
                    "ticks": 61056,
                    "time": 63.6,
                    "velocity": 0.2677165354330709
                },
                {
                    "duration": 0.29999999999999716,
                    "durationTicks": 288,
                    "midi": 64,
                    "name": "E4",
                    "ticks": 61152,
                    "time": 63.7,
                    "velocity": 0.2204724409448819
                },
                {
                    "duration": 0.29999999999999716,
                    "durationTicks": 288,
                    "midi": 69,
                    "name": "A4",
                    "ticks": 61152,
                    "time": 63.7,
                    "velocity": 0.25984251968503935
                },
                {
                    "duration": 0.29999999999999716,
                    "durationTicks": 288,
                    "midi": 41,
                    "name": "F2",
                    "ticks": 61152,
                    "time": 63.7,
                    "velocity": 0.2047244094488189
                },
                {
                    "duration": 0.29999999999999716,
                    "durationTicks": 288,
                    "midi": 53,
                    "name": "F3",
                    "ticks": 61152,
                    "time": 63.7,
                    "velocity": 0.1968503937007874
                },
                {
                    "duration": 0.20000000000000284,
                    "durationTicks": 192,
                    "midi": 64,
                    "name": "E4",
                    "ticks": 61440,
                    "time": 64,
                    "velocity": 0.2283464566929134
                },
                {
                    "duration": 0.20000000000000284,
                    "durationTicks": 192,
                    "midi": 69,
                    "name": "A4",
                    "ticks": 61440,
                    "time": 64,
                    "velocity": 0.25196850393700787
                },
                {
                    "duration": 0.20000000000000284,
                    "durationTicks": 192,
                    "midi": 71,
                    "name": "B4",
                    "ticks": 61440,
                    "time": 64,
                    "velocity": 0.2677165354330709
                },
                {
                    "duration": 0.20000000000000284,
                    "durationTicks": 192,
                    "midi": 41,
                    "name": "F2",
                    "ticks": 61440,
                    "time": 64,
                    "velocity": 0.2047244094488189
                },
                {
                    "duration": 0.20000000000000284,
                    "durationTicks": 192,
                    "midi": 53,
                    "name": "F3",
                    "ticks": 61440,
                    "time": 64,
                    "velocity": 0.2047244094488189
                },
                {
                    "duration": 0.29999999999999716,
                    "durationTicks": 288,
                    "midi": 64,
                    "name": "E4",
                    "ticks": 61632,
                    "time": 64.2,
                    "velocity": 0.25196850393700787
                },
                {
                    "duration": 0.29999999999999716,
                    "durationTicks": 288,
                    "midi": 69,
                    "name": "A4",
                    "ticks": 61632,
                    "time": 64.2,
                    "velocity": 0.2440944881889764
                },
                {
                    "duration": 0.29999999999999716,
                    "durationTicks": 288,
                    "midi": 72,
                    "name": "C5",
                    "ticks": 61632,
                    "time": 64.2,
                    "velocity": 0.2677165354330709
                },
                {
                    "duration": 0.29999999999999716,
                    "durationTicks": 288,
                    "midi": 43,
                    "name": "G2",
                    "ticks": 61632,
                    "time": 64.2,
                    "velocity": 0.2440944881889764
                },
                {
                    "duration": 0.29999999999999716,
                    "durationTicks": 288,
                    "midi": 55,
                    "name": "G3",
                    "ticks": 61632,
                    "time": 64.2,
                    "velocity": 0.2440944881889764
                },
                {
                    "duration": 0.10000000000000853,
                    "durationTicks": 96,
                    "midi": 64,
                    "name": "E4",
                    "ticks": 61920,
                    "time": 64.5,
                    "velocity": 0.2283464566929134
                },
                {
                    "duration": 0.10000000000000853,
                    "durationTicks": 96,
                    "midi": 69,
                    "name": "A4",
                    "ticks": 61920,
                    "time": 64.5,
                    "velocity": 0.2283464566929134
                },
                {
                    "duration": 0.29999999999999716,
                    "durationTicks": 288,
                    "midi": 43,
                    "name": "G2",
                    "ticks": 61920,
                    "time": 64.5,
                    "velocity": 0.2204724409448819
                },
                {
                    "duration": 0.29999999999999716,
                    "durationTicks": 288,
                    "midi": 55,
                    "name": "G3",
                    "ticks": 61920,
                    "time": 64.5,
                    "velocity": 0.2283464566929134
                },
                {
                    "duration": 0.19999999999998863,
                    "durationTicks": 192,
                    "midi": 71,
                    "name": "B4",
                    "ticks": 62016,
                    "time": 64.60000000000001,
                    "velocity": 0.28346456692913385
                },
                {
                    "duration": 0.20000000000000284,
                    "durationTicks": 192,
                    "midi": 64,
                    "name": "E4",
                    "ticks": 62208,
                    "time": 64.8,
                    "velocity": 0.2125984251968504
                },
                {
                    "duration": 0.20000000000000284,
                    "durationTicks": 192,
                    "midi": 69,
                    "name": "A4",
                    "ticks": 62208,
                    "time": 64.8,
                    "velocity": 0.29133858267716534
                },
                {
                    "duration": 0.20000000000000284,
                    "durationTicks": 192,
                    "midi": 43,
                    "name": "G2",
                    "ticks": 62208,
                    "time": 64.8,
                    "velocity": 0.2283464566929134
                },
                {
                    "duration": 0.20000000000000284,
                    "durationTicks": 192,
                    "midi": 55,
                    "name": "G3",
                    "ticks": 62208,
                    "time": 64.8,
                    "velocity": 0.2204724409448819
                },
                {
                    "duration": 0.20000000000000284,
                    "durationTicks": 192,
                    "midi": 64,
                    "name": "E4",
                    "ticks": 62400,
                    "time": 65,
                    "velocity": 0.2440944881889764
                },
                {
                    "duration": 0.29999999999999716,
                    "durationTicks": 288,
                    "midi": 43,
                    "name": "G2",
                    "ticks": 62400,
                    "time": 65,
                    "velocity": 0.2440944881889764
                },
                {
                    "duration": 0.29999999999999716,
                    "durationTicks": 288,
                    "midi": 55,
                    "name": "G3",
                    "ticks": 62400,
                    "time": 65,
                    "velocity": 0.23622047244094488
                },
                {
                    "duration": 0.09999999999999432,
                    "durationTicks": 96,
                    "midi": 71,
                    "name": "B4",
                    "ticks": 62592,
                    "time": 65.2,
                    "velocity": 0.29133858267716534
                },
                {
                    "duration": 0.30000000000001137,
                    "durationTicks": 288,
                    "midi": 64,
                    "name": "E4",
                    "ticks": 62688,
                    "time": 65.3,
                    "velocity": 0.2283464566929134
                },
                {
                    "duration": 0.30000000000001137,
                    "durationTicks": 288,
                    "midi": 43,
                    "name": "G2",
                    "ticks": 62688,
                    "time": 65.3,
                    "velocity": 0.2125984251968504
                },
                {
                    "duration": 0.30000000000001137,
                    "durationTicks": 288,
                    "midi": 55,
                    "name": "G3",
                    "ticks": 62688,
                    "time": 65.3,
                    "velocity": 0.2125984251968504
                },
                {
                    "duration": 0.19999999999998863,
                    "durationTicks": 192,
                    "midi": 64,
                    "name": "E4",
                    "ticks": 62976,
                    "time": 65.60000000000001,
                    "velocity": 0.2283464566929134
                },
                {
                    "duration": 0.19999999999998863,
                    "durationTicks": 192,
                    "midi": 69,
                    "name": "A4",
                    "ticks": 62976,
                    "time": 65.60000000000001,
                    "velocity": 0.25984251968503935
                },
                {
                    "duration": 0.19999999999998863,
                    "durationTicks": 192,
                    "midi": 72,
                    "name": "C5",
                    "ticks": 62976,
                    "time": 65.60000000000001,
                    "velocity": 0.2755905511811024
                },
                {
                    "duration": 0.19999999999998863,
                    "durationTicks": 192,
                    "midi": 43,
                    "name": "G2",
                    "ticks": 62976,
                    "time": 65.60000000000001,
                    "velocity": 0.2125984251968504
                },
                {
                    "duration": 0.19999999999998863,
                    "durationTicks": 192,
                    "midi": 55,
                    "name": "G3",
                    "ticks": 62976,
                    "time": 65.60000000000001,
                    "velocity": 0.2204724409448819
                },
                {
                    "duration": 0.30000000000001137,
                    "durationTicks": 288,
                    "midi": 64,
                    "name": "E4",
                    "ticks": 63168,
                    "time": 65.8,
                    "velocity": 0.2283464566929134
                },
                {
                    "duration": 0.30000000000001137,
                    "durationTicks": 288,
                    "midi": 69,
                    "name": "A4",
                    "ticks": 63168,
                    "time": 65.8,
                    "velocity": 0.2755905511811024
                },
                {
                    "duration": 0.30000000000001137,
                    "durationTicks": 288,
                    "midi": 72,
                    "name": "C5",
                    "ticks": 63168,
                    "time": 65.8,
                    "velocity": 0.2440944881889764
                },
                {
                    "duration": 0.30000000000001137,
                    "durationTicks": 288,
                    "midi": 45,
                    "name": "A2",
                    "ticks": 63168,
                    "time": 65.8,
                    "velocity": 0.2125984251968504
                },
                {
                    "duration": 0.30000000000001137,
                    "durationTicks": 288,
                    "midi": 57,
                    "name": "A3",
                    "ticks": 63168,
                    "time": 65.8,
                    "velocity": 0.25196850393700787
                },
                {
                    "duration": 0.29999999999999716,
                    "durationTicks": 288,
                    "midi": 64,
                    "name": "E4",
                    "ticks": 63456,
                    "time": 66.10000000000001,
                    "velocity": 0.2125984251968504
                },
                {
                    "duration": 0.29999999999999716,
                    "durationTicks": 288,
                    "midi": 69,
                    "name": "A4",
                    "ticks": 63456,
                    "time": 66.10000000000001,
                    "velocity": 0.2204724409448819
                },
                {
                    "duration": 0.29999999999999716,
                    "durationTicks": 288,
                    "midi": 72,
                    "name": "C5",
                    "ticks": 63456,
                    "time": 66.10000000000001,
                    "velocity": 0.2125984251968504
                },
                {
                    "duration": 0.29999999999999716,
                    "durationTicks": 288,
                    "midi": 45,
                    "name": "A2",
                    "ticks": 63456,
                    "time": 66.10000000000001,
                    "velocity": 0.2440944881889764
                },
                {
                    "duration": 0.29999999999999716,
                    "durationTicks": 288,
                    "midi": 57,
                    "name": "A3",
                    "ticks": 63456,
                    "time": 66.10000000000001,
                    "velocity": 0.23622047244094488
                },
                {
                    "duration": 0.20000000000000284,
                    "durationTicks": 192,
                    "midi": 64,
                    "name": "E4",
                    "ticks": 63744,
                    "time": 66.4,
                    "velocity": 0.2283464566929134
                },
                {
                    "duration": 0.20000000000000284,
                    "durationTicks": 192,
                    "midi": 69,
                    "name": "A4",
                    "ticks": 63744,
                    "time": 66.4,
                    "velocity": 0.25196850393700787
                },
                {
                    "duration": 0.20000000000000284,
                    "durationTicks": 192,
                    "midi": 72,
                    "name": "C5",
                    "ticks": 63744,
                    "time": 66.4,
                    "velocity": 0.2283464566929134
                },
                {
                    "duration": 0.20000000000000284,
                    "durationTicks": 192,
                    "midi": 45,
                    "name": "A2",
                    "ticks": 63744,
                    "time": 66.4,
                    "velocity": 0.2440944881889764
                },
                {
                    "duration": 0.20000000000000284,
                    "durationTicks": 192,
                    "midi": 57,
                    "name": "A3",
                    "ticks": 63744,
                    "time": 66.4,
                    "velocity": 0.2283464566929134
                },
                {
                    "duration": 0.29999999999999716,
                    "durationTicks": 288,
                    "midi": 64,
                    "name": "E4",
                    "ticks": 63936,
                    "time": 66.60000000000001,
                    "velocity": 0.2204724409448819
                },
                {
                    "duration": 0.29999999999999716,
                    "durationTicks": 288,
                    "midi": 69,
                    "name": "A4",
                    "ticks": 63936,
                    "time": 66.60000000000001,
                    "velocity": 0.23622047244094488
                },
                {
                    "duration": 0.29999999999999716,
                    "durationTicks": 288,
                    "midi": 72,
                    "name": "C5",
                    "ticks": 63936,
                    "time": 66.60000000000001,
                    "velocity": 0.2283464566929134
                },
                {
                    "duration": 0.29999999999999716,
                    "durationTicks": 288,
                    "midi": 45,
                    "name": "A2",
                    "ticks": 63936,
                    "time": 66.60000000000001,
                    "velocity": 0.25196850393700787
                },
                {
                    "duration": 0.29999999999999716,
                    "durationTicks": 288,
                    "midi": 57,
                    "name": "A3",
                    "ticks": 63936,
                    "time": 66.60000000000001,
                    "velocity": 0.25196850393700787
                },
                {
                    "duration": 0.29999999999999716,
                    "durationTicks": 288,
                    "midi": 64,
                    "name": "E4",
                    "ticks": 64224,
                    "time": 66.9,
                    "velocity": 0.2125984251968504
                },
                {
                    "duration": 0.29999999999999716,
                    "durationTicks": 288,
                    "midi": 69,
                    "name": "A4",
                    "ticks": 64224,
                    "time": 66.9,
                    "velocity": 0.1968503937007874
                },
                {
                    "duration": 0.29999999999999716,
                    "durationTicks": 288,
                    "midi": 72,
                    "name": "C5",
                    "ticks": 64224,
                    "time": 66.9,
                    "velocity": 0.1968503937007874
                },
                {
                    "duration": 0.29999999999999716,
                    "durationTicks": 288,
                    "midi": 45,
                    "name": "A2",
                    "ticks": 64224,
                    "time": 66.9,
                    "velocity": 0.1889763779527559
                },
                {
                    "duration": 0.29999999999999716,
                    "durationTicks": 288,
                    "midi": 57,
                    "name": "A3",
                    "ticks": 64224,
                    "time": 66.9,
                    "velocity": 0.1732283464566929
                },
                {
                    "duration": 0.20000000000000284,
                    "durationTicks": 192,
                    "midi": 64,
                    "name": "E4",
                    "ticks": 64512,
                    "time": 67.2,
                    "velocity": 0.1889763779527559
                },
                {
                    "duration": 0.20000000000000284,
                    "durationTicks": 192,
                    "midi": 69,
                    "name": "A4",
                    "ticks": 64512,
                    "time": 67.2,
                    "velocity": 0.1889763779527559
                },
                {
                    "duration": 0.20000000000000284,
                    "durationTicks": 192,
                    "midi": 71,
                    "name": "B4",
                    "ticks": 64512,
                    "time": 67.2,
                    "velocity": 0.29133858267716534
                },
                {
                    "duration": 0.20000000000000284,
                    "durationTicks": 192,
                    "midi": 45,
                    "name": "A2",
                    "ticks": 64512,
                    "time": 67.2,
                    "velocity": 0.2283464566929134
                },
                {
                    "duration": 0.20000000000000284,
                    "durationTicks": 192,
                    "midi": 57,
                    "name": "A3",
                    "ticks": 64512,
                    "time": 67.2,
                    "velocity": 0.2125984251968504
                },
                {
                    "duration": 0.20000000000000284,
                    "durationTicks": 192,
                    "midi": 64,
                    "name": "E4",
                    "ticks": 64704,
                    "time": 67.4,
                    "velocity": 0.2440944881889764
                },
                {
                    "duration": 0.20000000000000284,
                    "durationTicks": 192,
                    "midi": 67,
                    "name": "G4",
                    "ticks": 64704,
                    "time": 67.4,
                    "velocity": 0.25984251968503935
                },
                {
                    "duration": 0.20000000000000284,
                    "durationTicks": 192,
                    "midi": 71,
                    "name": "B4",
                    "ticks": 64704,
                    "time": 67.4,
                    "velocity": 0.2755905511811024
                },
                {
                    "duration": 0.29999999999999716,
                    "durationTicks": 288,
                    "midi": 40,
                    "name": "E2",
                    "ticks": 64704,
                    "time": 67.4,
                    "velocity": 0.2283464566929134
                },
                {
                    "duration": 0.29999999999999716,
                    "durationTicks": 288,
                    "midi": 52,
                    "name": "E3",
                    "ticks": 64704,
                    "time": 67.4,
                    "velocity": 0.2125984251968504
                },
                {
                    "duration": 0.09999999999999432,
                    "durationTicks": 96,
                    "midi": 72,
                    "name": "C5",
                    "ticks": 64896,
                    "time": 67.60000000000001,
                    "velocity": 0.2755905511811024
                },
                {
                    "duration": 0.29999999999999716,
                    "durationTicks": 288,
                    "midi": 64,
                    "name": "E4",
                    "ticks": 64992,
                    "time": 67.7,
                    "velocity": 0.1968503937007874
                },
                {
                    "duration": 0.29999999999999716,
                    "durationTicks": 288,
                    "midi": 67,
                    "name": "G4",
                    "ticks": 64992,
                    "time": 67.7,
                    "velocity": 0.2204724409448819
                },
                {
                    "duration": 0.29999999999999716,
                    "durationTicks": 288,
                    "midi": 40,
                    "name": "E2",
                    "ticks": 64992,
                    "time": 67.7,
                    "velocity": 0.1968503937007874
                },
                {
                    "duration": 0.29999999999999716,
                    "durationTicks": 288,
                    "midi": 52,
                    "name": "E3",
                    "ticks": 64992,
                    "time": 67.7,
                    "velocity": 0.2125984251968504
                },
                {
                    "duration": 0.20000000000000284,
                    "durationTicks": 192,
                    "midi": 64,
                    "name": "E4",
                    "ticks": 65280,
                    "time": 68,
                    "velocity": 0.2047244094488189
                },
                {
                    "duration": 0.20000000000000284,
                    "durationTicks": 192,
                    "midi": 67,
                    "name": "G4",
                    "ticks": 65280,
                    "time": 68,
                    "velocity": 0.2440944881889764
                },
                {
                    "duration": 0.20000000000000284,
                    "durationTicks": 192,
                    "midi": 71,
                    "name": "B4",
                    "ticks": 65280,
                    "time": 68,
                    "velocity": 0.28346456692913385
                },
                {
                    "duration": 0.20000000000000284,
                    "durationTicks": 192,
                    "midi": 40,
                    "name": "E2",
                    "ticks": 65280,
                    "time": 68,
                    "velocity": 0.23622047244094488
                },
                {
                    "duration": 0.20000000000000284,
                    "durationTicks": 192,
                    "midi": 52,
                    "name": "E3",
                    "ticks": 65280,
                    "time": 68,
                    "velocity": 0.2440944881889764
                },
                {
                    "duration": 0.20000000000000284,
                    "durationTicks": 192,
                    "midi": 64,
                    "name": "E4",
                    "ticks": 65472,
                    "time": 68.2,
                    "velocity": 0.23622047244094488
                },
                {
                    "duration": 0.20000000000000284,
                    "durationTicks": 192,
                    "midi": 67,
                    "name": "G4",
                    "ticks": 65472,
                    "time": 68.2,
                    "velocity": 0.25984251968503935
                },
                {
                    "duration": 0.29999999999999716,
                    "durationTicks": 288,
                    "midi": 40,
                    "name": "E2",
                    "ticks": 65472,
                    "time": 68.2,
                    "velocity": 0.2440944881889764
                },
                {
                    "duration": 0.29999999999999716,
                    "durationTicks": 288,
                    "midi": 52,
                    "name": "E3",
                    "ticks": 65472,
                    "time": 68.2,
                    "velocity": 0.25196850393700787
                },
                {
                    "duration": 0.09999999999999432,
                    "durationTicks": 96,
                    "midi": 67,
                    "name": "G4",
                    "ticks": 65664,
                    "time": 68.4,
                    "velocity": 0.28346456692913385
                },
                {
                    "duration": 0.29999999999999716,
                    "durationTicks": 288,
                    "midi": 64,
                    "name": "E4",
                    "ticks": 65760,
                    "time": 68.5,
                    "velocity": 0.1732283464566929
                },
                {
                    "duration": 0.29999999999999716,
                    "durationTicks": 288,
                    "midi": 71,
                    "name": "B4",
                    "ticks": 65760,
                    "time": 68.5,
                    "velocity": 0.14173228346456693
                },
                {
                    "duration": 0.29999999999999716,
                    "durationTicks": 288,
                    "midi": 48,
                    "name": "C3",
                    "ticks": 65760,
                    "time": 68.5,
                    "velocity": 0.2125984251968504
                },
                {
                    "duration": 0.29999999999999716,
                    "durationTicks": 288,
                    "midi": 60,
                    "name": "C4",
                    "ticks": 65760,
                    "time": 68.5,
                    "velocity": 0.25984251968503935
                },
                {
                    "duration": 0.20000000000000284,
                    "durationTicks": 192,
                    "midi": 64,
                    "name": "E4",
                    "ticks": 66048,
                    "time": 68.8,
                    "velocity": 0.2283464566929134
                },
                {
                    "duration": 0.20000000000000284,
                    "durationTicks": 192,
                    "midi": 67,
                    "name": "G4",
                    "ticks": 66048,
                    "time": 68.8,
                    "velocity": 0.2677165354330709
                },
                {
                    "duration": 0.20000000000000284,
                    "durationTicks": 192,
                    "midi": 71,
                    "name": "B4",
                    "ticks": 66048,
                    "time": 68.8,
                    "velocity": 0.2283464566929134
                },
                {
                    "duration": 0.20000000000000284,
                    "durationTicks": 192,
                    "midi": 47,
                    "name": "B2",
                    "ticks": 66048,
                    "time": 68.8,
                    "velocity": 0.2283464566929134
                },
                {
                    "duration": 0.20000000000000284,
                    "durationTicks": 192,
                    "midi": 59,
                    "name": "B3",
                    "ticks": 66048,
                    "time": 68.8,
                    "velocity": 0.1732283464566929
                },
                {
                    "duration": 0.29999999999999716,
                    "durationTicks": 288,
                    "midi": 64,
                    "name": "E4",
                    "ticks": 66240,
                    "time": 69,
                    "velocity": 0.25196850393700787
                },
                {
                    "duration": 0.29999999999999716,
                    "durationTicks": 288,
                    "midi": 69,
                    "name": "A4",
                    "ticks": 66240,
                    "time": 69,
                    "velocity": 0.2677165354330709
                },
                {
                    "duration": 0.29999999999999716,
                    "durationTicks": 288,
                    "midi": 72,
                    "name": "C5",
                    "ticks": 66240,
                    "time": 69,
                    "velocity": 0.29133858267716534
                },
                {
                    "duration": 0.29999999999999716,
                    "durationTicks": 288,
                    "midi": 76,
                    "name": "E5",
                    "ticks": 66240,
                    "time": 69,
                    "velocity": 0.2677165354330709
                },
                {
                    "duration": 0.29999999999999716,
                    "durationTicks": 288,
                    "midi": 41,
                    "name": "F2",
                    "ticks": 66240,
                    "time": 69,
                    "velocity": 0.25196850393700787
                },
                {
                    "duration": 0.29999999999999716,
                    "durationTicks": 288,
                    "midi": 53,
                    "name": "F3",
                    "ticks": 66240,
                    "time": 69,
                    "velocity": 0.25984251968503935
                },
                {
                    "duration": 0.30000000000001137,
                    "durationTicks": 288,
                    "midi": 64,
                    "name": "E4",
                    "ticks": 66528,
                    "time": 69.3,
                    "velocity": 0.23622047244094488
                },
                {
                    "duration": 0.30000000000001137,
                    "durationTicks": 288,
                    "midi": 69,
                    "name": "A4",
                    "ticks": 66528,
                    "time": 69.3,
                    "velocity": 0.23622047244094488
                },
                {
                    "duration": 0.30000000000001137,
                    "durationTicks": 288,
                    "midi": 72,
                    "name": "C5",
                    "ticks": 66528,
                    "time": 69.3,
                    "velocity": 0.2440944881889764
                },
                {
                    "duration": 0.30000000000001137,
                    "durationTicks": 288,
                    "midi": 74,
                    "name": "D5",
                    "ticks": 66528,
                    "time": 69.3,
                    "velocity": 0.2755905511811024
                },
                {
                    "duration": 0.30000000000001137,
                    "durationTicks": 288,
                    "midi": 41,
                    "name": "F2",
                    "ticks": 66528,
                    "time": 69.3,
                    "velocity": 0.2283464566929134
                },
                {
                    "duration": 0.30000000000001137,
                    "durationTicks": 288,
                    "midi": 53,
                    "name": "F3",
                    "ticks": 66528,
                    "time": 69.3,
                    "velocity": 0.2204724409448819
                },
                {
                    "duration": 0.19999999999998863,
                    "durationTicks": 192,
                    "midi": 64,
                    "name": "E4",
                    "ticks": 66816,
                    "time": 69.60000000000001,
                    "velocity": 0.2440944881889764
                },
                {
                    "duration": 0.19999999999998863,
                    "durationTicks": 192,
                    "midi": 69,
                    "name": "A4",
                    "ticks": 66816,
                    "time": 69.60000000000001,
                    "velocity": 0.25196850393700787
                },
                {
                    "duration": 0.19999999999998863,
                    "durationTicks": 192,
                    "midi": 72,
                    "name": "C5",
                    "ticks": 66816,
                    "time": 69.60000000000001,
                    "velocity": 0.2440944881889764
                },
                {
                    "duration": 0.19999999999998863,
                    "durationTicks": 192,
                    "midi": 74,
                    "name": "D5",
                    "ticks": 66816,
                    "time": 69.60000000000001,
                    "velocity": 0.2677165354330709
                },
                {
                    "duration": 0.19999999999998863,
                    "durationTicks": 192,
                    "midi": 41,
                    "name": "F2",
                    "ticks": 66816,
                    "time": 69.60000000000001,
                    "velocity": 0.2440944881889764
                },
                {
                    "duration": 0.19999999999998863,
                    "durationTicks": 192,
                    "midi": 53,
                    "name": "F3",
                    "ticks": 66816,
                    "time": 69.60000000000001,
                    "velocity": 0.23622047244094488
                },
                {
                    "duration": 0.30000000000001137,
                    "durationTicks": 288,
                    "midi": 64,
                    "name": "E4",
                    "ticks": 67008,
                    "time": 69.8,
                    "velocity": 0.25196850393700787
                },
                {
                    "duration": 0.30000000000001137,
                    "durationTicks": 288,
                    "midi": 69,
                    "name": "A4",
                    "ticks": 67008,
                    "time": 69.8,
                    "velocity": 0.2677165354330709
                },
                {
                    "duration": 0.30000000000001137,
                    "durationTicks": 288,
                    "midi": 72,
                    "name": "C5",
                    "ticks": 67008,
                    "time": 69.8,
                    "velocity": 0.25984251968503935
                },
                {
                    "duration": 0.30000000000001137,
                    "durationTicks": 288,
                    "midi": 74,
                    "name": "D5",
                    "ticks": 67008,
                    "time": 69.8,
                    "velocity": 0.28346456692913385
                },
                {
                    "duration": 0.30000000000001137,
                    "durationTicks": 288,
                    "midi": 41,
                    "name": "F2",
                    "ticks": 67008,
                    "time": 69.8,
                    "velocity": 0.25984251968503935
                },
                {
                    "duration": 0.30000000000001137,
                    "durationTicks": 288,
                    "midi": 53,
                    "name": "F3",
                    "ticks": 67008,
                    "time": 69.8,
                    "velocity": 0.25196850393700787
                },
                {
                    "duration": 0.29999999999999716,
                    "durationTicks": 288,
                    "midi": 64,
                    "name": "E4",
                    "ticks": 67296,
                    "time": 70.10000000000001,
                    "velocity": 0.2204724409448819
                },
                {
                    "duration": 0.29999999999999716,
                    "durationTicks": 288,
                    "midi": 69,
                    "name": "A4",
                    "ticks": 67296,
                    "time": 70.10000000000001,
                    "velocity": 0.25984251968503935
                },
                {
                    "duration": 0.29999999999999716,
                    "durationTicks": 288,
                    "midi": 72,
                    "name": "C5",
                    "ticks": 67296,
                    "time": 70.10000000000001,
                    "velocity": 0.28346456692913385
                },
                {
                    "duration": 0.29999999999999716,
                    "durationTicks": 288,
                    "midi": 41,
                    "name": "F2",
                    "ticks": 67296,
                    "time": 70.10000000000001,
                    "velocity": 0.2047244094488189
                },
                {
                    "duration": 0.29999999999999716,
                    "durationTicks": 288,
                    "midi": 53,
                    "name": "F3",
                    "ticks": 67296,
                    "time": 70.10000000000001,
                    "velocity": 0.1968503937007874
                },
                {
                    "duration": 0.20000000000000284,
                    "durationTicks": 192,
                    "midi": 64,
                    "name": "E4",
                    "ticks": 67584,
                    "time": 70.4,
                    "velocity": 0.2283464566929134
                },
                {
                    "duration": 0.20000000000000284,
                    "durationTicks": 192,
                    "midi": 69,
                    "name": "A4",
                    "ticks": 67584,
                    "time": 70.4,
                    "velocity": 0.25196850393700787
                },
                {
                    "duration": 0.20000000000000284,
                    "durationTicks": 192,
                    "midi": 72,
                    "name": "C5",
                    "ticks": 67584,
                    "time": 70.4,
                    "velocity": 0.28346456692913385
                },
                {
                    "duration": 0.20000000000000284,
                    "durationTicks": 192,
                    "midi": 41,
                    "name": "F2",
                    "ticks": 67584,
                    "time": 70.4,
                    "velocity": 0.2047244094488189
                },
                {
                    "duration": 0.20000000000000284,
                    "durationTicks": 192,
                    "midi": 53,
                    "name": "F3",
                    "ticks": 67584,
                    "time": 70.4,
                    "velocity": 0.2047244094488189
                },
                {
                    "duration": 0.29999999999999716,
                    "durationTicks": 288,
                    "midi": 64,
                    "name": "E4",
                    "ticks": 67776,
                    "time": 70.60000000000001,
                    "velocity": 0.25196850393700787
                },
                {
                    "duration": 0.29999999999999716,
                    "durationTicks": 288,
                    "midi": 69,
                    "name": "A4",
                    "ticks": 67776,
                    "time": 70.60000000000001,
                    "velocity": 0.2440944881889764
                },
                {
                    "duration": 0.29999999999999716,
                    "durationTicks": 288,
                    "midi": 71,
                    "name": "B4",
                    "ticks": 67776,
                    "time": 70.60000000000001,
                    "velocity": 0.2677165354330709
                },
                {
                    "duration": 0.29999999999999716,
                    "durationTicks": 288,
                    "midi": 43,
                    "name": "G2",
                    "ticks": 67776,
                    "time": 70.60000000000001,
                    "velocity": 0.2440944881889764
                },
                {
                    "duration": 0.29999999999999716,
                    "durationTicks": 288,
                    "midi": 55,
                    "name": "G3",
                    "ticks": 67776,
                    "time": 70.60000000000001,
                    "velocity": 0.2440944881889764
                },
                {
                    "duration": 0.29999999999999716,
                    "durationTicks": 288,
                    "midi": 64,
                    "name": "E4",
                    "ticks": 68064,
                    "time": 70.9,
                    "velocity": 0.2283464566929134
                },
                {
                    "duration": 0.29999999999999716,
                    "durationTicks": 288,
                    "midi": 69,
                    "name": "A4",
                    "ticks": 68064,
                    "time": 70.9,
                    "velocity": 0.2283464566929134
                },
                {
                    "duration": 0.29999999999999716,
                    "durationTicks": 288,
                    "midi": 72,
                    "name": "C5",
                    "ticks": 68064,
                    "time": 70.9,
                    "velocity": 0.28346456692913385
                },
                {
                    "duration": 0.29999999999999716,
                    "durationTicks": 288,
                    "midi": 43,
                    "name": "G2",
                    "ticks": 68064,
                    "time": 70.9,
                    "velocity": 0.2204724409448819
                },
                {
                    "duration": 0.29999999999999716,
                    "durationTicks": 288,
                    "midi": 55,
                    "name": "G3",
                    "ticks": 68064,
                    "time": 70.9,
                    "velocity": 0.2283464566929134
                },
                {
                    "duration": 0.20000000000000284,
                    "durationTicks": 192,
                    "midi": 64,
                    "name": "E4",
                    "ticks": 68352,
                    "time": 71.2,
                    "velocity": 0.2125984251968504
                },
                {
                    "duration": 0.20000000000000284,
                    "durationTicks": 192,
                    "midi": 69,
                    "name": "A4",
                    "ticks": 68352,
                    "time": 71.2,
                    "velocity": 0.1732283464566929
                },
                {
                    "duration": 0.20000000000000284,
                    "durationTicks": 192,
                    "midi": 71,
                    "name": "B4",
                    "ticks": 68352,
                    "time": 71.2,
                    "velocity": 0.2755905511811024
                },
                {
                    "duration": 0.20000000000000284,
                    "durationTicks": 192,
                    "midi": 43,
                    "name": "G2",
                    "ticks": 68352,
                    "time": 71.2,
                    "velocity": 0.2283464566929134
                },
                {
                    "duration": 0.20000000000000284,
                    "durationTicks": 192,
                    "midi": 55,
                    "name": "G3",
                    "ticks": 68352,
                    "time": 71.2,
                    "velocity": 0.2204724409448819
                },
                {
                    "duration": 0.20000000000000284,
                    "durationTicks": 192,
                    "midi": 64,
                    "name": "E4",
                    "ticks": 68544,
                    "time": 71.4,
                    "velocity": 0.2440944881889764
                },
                {
                    "duration": 0.20000000000000284,
                    "durationTicks": 192,
                    "midi": 69,
                    "name": "A4",
                    "ticks": 68544,
                    "time": 71.4,
                    "velocity": 0.25984251968503935
                },
                {
                    "duration": 0.29999999999999716,
                    "durationTicks": 288,
                    "midi": 43,
                    "name": "G2",
                    "ticks": 68544,
                    "time": 71.4,
                    "velocity": 0.2440944881889764
                },
                {
                    "duration": 0.29999999999999716,
                    "durationTicks": 288,
                    "midi": 55,
                    "name": "G3",
                    "ticks": 68544,
                    "time": 71.4,
                    "velocity": 0.23622047244094488
                },
                {
                    "duration": 0.09999999999999432,
                    "durationTicks": 96,
                    "midi": 67,
                    "name": "G4",
                    "ticks": 68736,
                    "time": 71.60000000000001,
                    "velocity": 0.2677165354330709
                },
                {
                    "duration": 0.29999999999999716,
                    "durationTicks": 288,
                    "midi": 64,
                    "name": "E4",
                    "ticks": 68832,
                    "time": 71.7,
                    "velocity": 0.2283464566929134
                },
                {
                    "duration": 0.29999999999999716,
                    "durationTicks": 288,
                    "midi": 69,
                    "name": "A4",
                    "ticks": 68832,
                    "time": 71.7,
                    "velocity": 0.25984251968503935
                },
                {
                    "duration": 0.29999999999999716,
                    "durationTicks": 288,
                    "midi": 72,
                    "name": "C5",
                    "ticks": 68832,
                    "time": 71.7,
                    "velocity": 0.2440944881889764
                },
                {
                    "duration": 0.29999999999999716,
                    "durationTicks": 288,
                    "midi": 43,
                    "name": "G2",
                    "ticks": 68832,
                    "time": 71.7,
                    "velocity": 0.2125984251968504
                },
                {
                    "duration": 0.29999999999999716,
                    "durationTicks": 288,
                    "midi": 55,
                    "name": "G3",
                    "ticks": 68832,
                    "time": 71.7,
                    "velocity": 0.2125984251968504
                },
                {
                    "duration": 0.20000000000000284,
                    "durationTicks": 192,
                    "midi": 64,
                    "name": "E4",
                    "ticks": 69120,
                    "time": 72,
                    "velocity": 0.2283464566929134
                },
                {
                    "duration": 0.20000000000000284,
                    "durationTicks": 192,
                    "midi": 67,
                    "name": "G4",
                    "ticks": 69120,
                    "time": 72,
                    "velocity": 0.2755905511811024
                },
                {
                    "duration": 0.20000000000000284,
                    "durationTicks": 192,
                    "midi": 69,
                    "name": "A4",
                    "ticks": 69120,
                    "time": 72,
                    "velocity": 0.25984251968503935
                },
                {
                    "duration": 0.20000000000000284,
                    "durationTicks": 192,
                    "midi": 72,
                    "name": "C5",
                    "ticks": 69120,
                    "time": 72,
                    "velocity": 0.23622047244094488
                },
                {
                    "duration": 0.20000000000000284,
                    "durationTicks": 192,
                    "midi": 43,
                    "name": "G2",
                    "ticks": 69120,
                    "time": 72,
                    "velocity": 0.2125984251968504
                },
                {
                    "duration": 0.20000000000000284,
                    "durationTicks": 192,
                    "midi": 55,
                    "name": "G3",
                    "ticks": 69120,
                    "time": 72,
                    "velocity": 0.2204724409448819
                },
                {
                    "duration": 0.29999999999999716,
                    "durationTicks": 288,
                    "midi": 64,
                    "name": "E4",
                    "ticks": 69312,
                    "time": 72.2,
                    "velocity": 0.2283464566929134
                },
                {
                    "duration": 0.29999999999999716,
                    "durationTicks": 288,
                    "midi": 69,
                    "name": "A4",
                    "ticks": 69312,
                    "time": 72.2,
                    "velocity": 0.2755905511811024
                },
                {
                    "duration": 0.29999999999999716,
                    "durationTicks": 288,
                    "midi": 72,
                    "name": "C5",
                    "ticks": 69312,
                    "time": 72.2,
                    "velocity": 0.2440944881889764
                },
                {
                    "duration": 0.29999999999999716,
                    "durationTicks": 288,
                    "midi": 76,
                    "name": "E5",
                    "ticks": 69312,
                    "time": 72.2,
                    "velocity": 0.2755905511811024
                },
                {
                    "duration": 0.29999999999999716,
                    "durationTicks": 288,
                    "midi": 45,
                    "name": "A2",
                    "ticks": 69312,
                    "time": 72.2,
                    "velocity": 0.2125984251968504
                },
                {
                    "duration": 0.29999999999999716,
                    "durationTicks": 288,
                    "midi": 57,
                    "name": "A3",
                    "ticks": 69312,
                    "time": 72.2,
                    "velocity": 0.25196850393700787
                },
                {
                    "duration": 0.29999999999999716,
                    "durationTicks": 288,
                    "midi": 64,
                    "name": "E4",
                    "ticks": 69600,
                    "time": 72.5,
                    "velocity": 0.2125984251968504
                },
                {
                    "duration": 0.29999999999999716,
                    "durationTicks": 288,
                    "midi": 69,
                    "name": "A4",
                    "ticks": 69600,
                    "time": 72.5,
                    "velocity": 0.2204724409448819
                },
                {
                    "duration": 0.29999999999999716,
                    "durationTicks": 288,
                    "midi": 72,
                    "name": "C5",
                    "ticks": 69600,
                    "time": 72.5,
                    "velocity": 0.2125984251968504
                },
                {
                    "duration": 0.29999999999999716,
                    "durationTicks": 288,
                    "midi": 74,
                    "name": "D5",
                    "ticks": 69600,
                    "time": 72.5,
                    "velocity": 0.2755905511811024
                },
                {
                    "duration": 0.29999999999999716,
                    "durationTicks": 288,
                    "midi": 45,
                    "name": "A2",
                    "ticks": 69600,
                    "time": 72.5,
                    "velocity": 0.2440944881889764
                },
                {
                    "duration": 0.29999999999999716,
                    "durationTicks": 288,
                    "midi": 57,
                    "name": "A3",
                    "ticks": 69600,
                    "time": 72.5,
                    "velocity": 0.23622047244094488
                },
                {
                    "duration": 0.20000000000000284,
                    "durationTicks": 192,
                    "midi": 64,
                    "name": "E4",
                    "ticks": 69888,
                    "time": 72.8,
                    "velocity": 0.2283464566929134
                },
                {
                    "duration": 0.20000000000000284,
                    "durationTicks": 192,
                    "midi": 69,
                    "name": "A4",
                    "ticks": 69888,
                    "time": 72.8,
                    "velocity": 0.25196850393700787
                },
                {
                    "duration": 0.20000000000000284,
                    "durationTicks": 192,
                    "midi": 72,
                    "name": "C5",
                    "ticks": 69888,
                    "time": 72.8,
                    "velocity": 0.2283464566929134
                },
                {
                    "duration": 0.20000000000000284,
                    "durationTicks": 192,
                    "midi": 74,
                    "name": "D5",
                    "ticks": 69888,
                    "time": 72.8,
                    "velocity": 0.28346456692913385
                },
                {
                    "duration": 0.20000000000000284,
                    "durationTicks": 192,
                    "midi": 45,
                    "name": "A2",
                    "ticks": 69888,
                    "time": 72.8,
                    "velocity": 0.2440944881889764
                },
                {
                    "duration": 0.20000000000000284,
                    "durationTicks": 192,
                    "midi": 57,
                    "name": "A3",
                    "ticks": 69888,
                    "time": 72.8,
                    "velocity": 0.2283464566929134
                },
                {
                    "duration": 0.29999999999999716,
                    "durationTicks": 288,
                    "midi": 64,
                    "name": "E4",
                    "ticks": 70080,
                    "time": 73,
                    "velocity": 0.2204724409448819
                },
                {
                    "duration": 0.29999999999999716,
                    "durationTicks": 288,
                    "midi": 69,
                    "name": "A4",
                    "ticks": 70080,
                    "time": 73,
                    "velocity": 0.23622047244094488
                },
                {
                    "duration": 0.29999999999999716,
                    "durationTicks": 288,
                    "midi": 72,
                    "name": "C5",
                    "ticks": 70080,
                    "time": 73,
                    "velocity": 0.2283464566929134
                },
                {
                    "duration": 0.29999999999999716,
                    "durationTicks": 288,
                    "midi": 74,
                    "name": "D5",
                    "ticks": 70080,
                    "time": 73,
                    "velocity": 0.2755905511811024
                },
                {
                    "duration": 0.29999999999999716,
                    "durationTicks": 288,
                    "midi": 45,
                    "name": "A2",
                    "ticks": 70080,
                    "time": 73,
                    "velocity": 0.25196850393700787
                },
                {
                    "duration": 0.29999999999999716,
                    "durationTicks": 288,
                    "midi": 57,
                    "name": "A3",
                    "ticks": 70080,
                    "time": 73,
                    "velocity": 0.25196850393700787
                },
                {
                    "duration": 0.30000000000001137,
                    "durationTicks": 288,
                    "midi": 64,
                    "name": "E4",
                    "ticks": 70368,
                    "time": 73.3,
                    "velocity": 0.2125984251968504
                },
                {
                    "duration": 0.30000000000001137,
                    "durationTicks": 288,
                    "midi": 69,
                    "name": "A4",
                    "ticks": 70368,
                    "time": 73.3,
                    "velocity": 0.1968503937007874
                },
                {
                    "duration": 0.30000000000001137,
                    "durationTicks": 288,
                    "midi": 72,
                    "name": "C5",
                    "ticks": 70368,
                    "time": 73.3,
                    "velocity": 0.2755905511811024
                },
                {
                    "duration": 0.30000000000001137,
                    "durationTicks": 288,
                    "midi": 45,
                    "name": "A2",
                    "ticks": 70368,
                    "time": 73.3,
                    "velocity": 0.1889763779527559
                },
                {
                    "duration": 0.30000000000001137,
                    "durationTicks": 288,
                    "midi": 57,
                    "name": "A3",
                    "ticks": 70368,
                    "time": 73.3,
                    "velocity": 0.1732283464566929
                },
                {
                    "duration": 0.19999999999998863,
                    "durationTicks": 192,
                    "midi": 64,
                    "name": "E4",
                    "ticks": 70656,
                    "time": 73.60000000000001,
                    "velocity": 0.1889763779527559
                },
                {
                    "duration": 0.19999999999998863,
                    "durationTicks": 192,
                    "midi": 69,
                    "name": "A4",
                    "ticks": 70656,
                    "time": 73.60000000000001,
                    "velocity": 0.1889763779527559
                },
                {
                    "duration": 0.19999999999998863,
                    "durationTicks": 192,
                    "midi": 72,
                    "name": "C5",
                    "ticks": 70656,
                    "time": 73.60000000000001,
                    "velocity": 0.29133858267716534
                },
                {
                    "duration": 0.19999999999998863,
                    "durationTicks": 192,
                    "midi": 45,
                    "name": "A2",
                    "ticks": 70656,
                    "time": 73.60000000000001,
                    "velocity": 0.2283464566929134
                },
                {
                    "duration": 0.19999999999998863,
                    "durationTicks": 192,
                    "midi": 57,
                    "name": "A3",
                    "ticks": 70656,
                    "time": 73.60000000000001,
                    "velocity": 0.2125984251968504
                },
                {
                    "duration": 0.20000000000000284,
                    "durationTicks": 192,
                    "midi": 64,
                    "name": "E4",
                    "ticks": 70848,
                    "time": 73.8,
                    "velocity": 0.2440944881889764
                },
                {
                    "duration": 0.20000000000000284,
                    "durationTicks": 192,
                    "midi": 67,
                    "name": "G4",
                    "ticks": 70848,
                    "time": 73.8,
                    "velocity": 0.25984251968503935
                },
                {
                    "duration": 0.20000000000000284,
                    "durationTicks": 192,
                    "midi": 71,
                    "name": "B4",
                    "ticks": 70848,
                    "time": 73.8,
                    "velocity": 0.29133858267716534
                },
                {
                    "duration": 0.30000000000001137,
                    "durationTicks": 288,
                    "midi": 40,
                    "name": "E2",
                    "ticks": 70848,
                    "time": 73.8,
                    "velocity": 0.2283464566929134
                },
                {
                    "duration": 0.30000000000001137,
                    "durationTicks": 288,
                    "midi": 52,
                    "name": "E3",
                    "ticks": 70848,
                    "time": 73.8,
                    "velocity": 0.2125984251968504
                },
                {
                    "duration": 0.10000000000000853,
                    "durationTicks": 96,
                    "midi": 72,
                    "name": "C5",
                    "ticks": 71040,
                    "time": 74,
                    "velocity": 0.28346456692913385
                },
                {
                    "duration": 0.29999999999999716,
                    "durationTicks": 288,
                    "midi": 64,
                    "name": "E4",
                    "ticks": 71136,
                    "time": 74.10000000000001,
                    "velocity": 0.1968503937007874
                },
                {
                    "duration": 0.29999999999999716,
                    "durationTicks": 288,
                    "midi": 67,
                    "name": "G4",
                    "ticks": 71136,
                    "time": 74.10000000000001,
                    "velocity": 0.2204724409448819
                },
                {
                    "duration": 0.29999999999999716,
                    "durationTicks": 288,
                    "midi": 40,
                    "name": "E2",
                    "ticks": 71136,
                    "time": 74.10000000000001,
                    "velocity": 0.1968503937007874
                },
                {
                    "duration": 0.29999999999999716,
                    "durationTicks": 288,
                    "midi": 52,
                    "name": "E3",
                    "ticks": 71136,
                    "time": 74.10000000000001,
                    "velocity": 0.2125984251968504
                },
                {
                    "duration": 0.20000000000000284,
                    "durationTicks": 192,
                    "midi": 64,
                    "name": "E4",
                    "ticks": 71424,
                    "time": 74.4,
                    "velocity": 0.2047244094488189
                },
                {
                    "duration": 0.20000000000000284,
                    "durationTicks": 192,
                    "midi": 67,
                    "name": "G4",
                    "ticks": 71424,
                    "time": 74.4,
                    "velocity": 0.2440944881889764
                },
                {
                    "duration": 0.20000000000000284,
                    "durationTicks": 192,
                    "midi": 71,
                    "name": "B4",
                    "ticks": 71424,
                    "time": 74.4,
                    "velocity": 0.2204724409448819
                },
                {
                    "duration": 0.20000000000000284,
                    "durationTicks": 192,
                    "midi": 79,
                    "name": "G5",
                    "ticks": 71424,
                    "time": 74.4,
                    "velocity": 0.2677165354330709
                },
                {
                    "duration": 0.20000000000000284,
                    "durationTicks": 192,
                    "midi": 40,
                    "name": "E2",
                    "ticks": 71424,
                    "time": 74.4,
                    "velocity": 0.23622047244094488
                },
                {
                    "duration": 0.20000000000000284,
                    "durationTicks": 192,
                    "midi": 52,
                    "name": "E3",
                    "ticks": 71424,
                    "time": 74.4,
                    "velocity": 0.2440944881889764
                },
                {
                    "duration": 0.19999999999998863,
                    "durationTicks": 192,
                    "midi": 64,
                    "name": "E4",
                    "ticks": 71616,
                    "time": 74.60000000000001,
                    "velocity": 0.23622047244094488
                },
                {
                    "duration": 0.19999999999998863,
                    "durationTicks": 192,
                    "midi": 67,
                    "name": "G4",
                    "ticks": 71616,
                    "time": 74.60000000000001,
                    "velocity": 0.25984251968503935
                },
                {
                    "duration": 0.19999999999998863,
                    "durationTicks": 192,
                    "midi": 71,
                    "name": "B4",
                    "ticks": 71616,
                    "time": 74.60000000000001,
                    "velocity": 0.2440944881889764
                },
                {
                    "duration": 0.29999999999999716,
                    "durationTicks": 288,
                    "midi": 40,
                    "name": "E2",
                    "ticks": 71616,
                    "time": 74.60000000000001,
                    "velocity": 0.2440944881889764
                },
                {
                    "duration": 0.29999999999999716,
                    "durationTicks": 288,
                    "midi": 52,
                    "name": "E3",
                    "ticks": 71616,
                    "time": 74.60000000000001,
                    "velocity": 0.25196850393700787
                },
                {
                    "duration": 0.10000000000000853,
                    "durationTicks": 96,
                    "midi": 71,
                    "name": "B4",
                    "ticks": 71808,
                    "time": 74.8,
                    "velocity": 0.2677165354330709
                },
                {
                    "duration": 0.29999999999999716,
                    "durationTicks": 288,
                    "midi": 64,
                    "name": "E4",
                    "ticks": 71904,
                    "time": 74.9,
                    "velocity": 0.1732283464566929
                },
                {
                    "duration": 0.29999999999999716,
                    "durationTicks": 288,
                    "midi": 67,
                    "name": "G4",
                    "ticks": 71904,
                    "time": 74.9,
                    "velocity": 0.1732283464566929
                },
                {
                    "duration": 0.29999999999999716,
                    "durationTicks": 288,
                    "midi": 48,
                    "name": "C3",
                    "ticks": 71904,
                    "time": 74.9,
                    "velocity": 0.2125984251968504
                },
                {
                    "duration": 0.29999999999999716,
                    "durationTicks": 288,
                    "midi": 60,
                    "name": "C4",
                    "ticks": 71904,
                    "time": 74.9,
                    "velocity": 0.25984251968503935
                },
                {
                    "duration": 0.20000000000000284,
                    "durationTicks": 192,
                    "midi": 64,
                    "name": "E4",
                    "ticks": 72192,
                    "time": 75.2,
                    "velocity": 0.2283464566929134
                },
                {
                    "duration": 0.20000000000000284,
                    "durationTicks": 192,
                    "midi": 67,
                    "name": "G4",
                    "ticks": 72192,
                    "time": 75.2,
                    "velocity": 0.23622047244094488
                },
                {
                    "duration": 0.20000000000000284,
                    "durationTicks": 192,
                    "midi": 71,
                    "name": "B4",
                    "ticks": 72192,
                    "time": 75.2,
                    "velocity": 0.2755905511811024
                },
                {
                    "duration": 0.20000000000000284,
                    "durationTicks": 192,
                    "midi": 47,
                    "name": "B2",
                    "ticks": 72192,
                    "time": 75.2,
                    "velocity": 0.2283464566929134
                },
                {
                    "duration": 0.20000000000000284,
                    "durationTicks": 192,
                    "midi": 59,
                    "name": "B3",
                    "ticks": 72192,
                    "time": 75.2,
                    "velocity": 0.1732283464566929
                },
                {
                    "duration": 0.29999999999999716,
                    "durationTicks": 288,
                    "midi": 64,
                    "name": "E4",
                    "ticks": 72384,
                    "time": 75.4,
                    "velocity": 0.25196850393700787
                },
                {
                    "duration": 0.29999999999999716,
                    "durationTicks": 288,
                    "midi": 69,
                    "name": "A4",
                    "ticks": 72384,
                    "time": 75.4,
                    "velocity": 0.2677165354330709
                },
                {
                    "duration": 0.29999999999999716,
                    "durationTicks": 288,
                    "midi": 72,
                    "name": "C5",
                    "ticks": 72384,
                    "time": 75.4,
                    "velocity": 0.29133858267716534
                },
                {
                    "duration": 0.29999999999999716,
                    "durationTicks": 288,
                    "midi": 81,
                    "name": "A5",
                    "ticks": 72384,
                    "time": 75.4,
                    "velocity": 0.29133858267716534
                },
                {
                    "duration": 0.29999999999999716,
                    "durationTicks": 288,
                    "midi": 41,
                    "name": "F2",
                    "ticks": 72384,
                    "time": 75.4,
                    "velocity": 0.25196850393700787
                },
                {
                    "duration": 0.29999999999999716,
                    "durationTicks": 288,
                    "midi": 53,
                    "name": "F3",
                    "ticks": 72384,
                    "time": 75.4,
                    "velocity": 0.25984251968503935
                },
                {
                    "duration": 0.29999999999999716,
                    "durationTicks": 288,
                    "midi": 64,
                    "name": "E4",
                    "ticks": 72672,
                    "time": 75.7,
                    "velocity": 0.23622047244094488
                },
                {
                    "duration": 0.29999999999999716,
                    "durationTicks": 288,
                    "midi": 69,
                    "name": "A4",
                    "ticks": 72672,
                    "time": 75.7,
                    "velocity": 0.23622047244094488
                },
                {
                    "duration": 0.29999999999999716,
                    "durationTicks": 288,
                    "midi": 72,
                    "name": "C5",
                    "ticks": 72672,
                    "time": 75.7,
                    "velocity": 0.2440944881889764
                },
                {
                    "duration": 0.29999999999999716,
                    "durationTicks": 288,
                    "midi": 79,
                    "name": "G5",
                    "ticks": 72672,
                    "time": 75.7,
                    "velocity": 0.29133858267716534
                },
                {
                    "duration": 0.29999999999999716,
                    "durationTicks": 288,
                    "midi": 41,
                    "name": "F2",
                    "ticks": 72672,
                    "time": 75.7,
                    "velocity": 0.2283464566929134
                },
                {
                    "duration": 0.29999999999999716,
                    "durationTicks": 288,
                    "midi": 53,
                    "name": "F3",
                    "ticks": 72672,
                    "time": 75.7,
                    "velocity": 0.2204724409448819
                },
                {
                    "duration": 0.20000000000000284,
                    "durationTicks": 192,
                    "midi": 64,
                    "name": "E4",
                    "ticks": 72960,
                    "time": 76,
                    "velocity": 0.2440944881889764
                },
                {
                    "duration": 0.20000000000000284,
                    "durationTicks": 192,
                    "midi": 69,
                    "name": "A4",
                    "ticks": 72960,
                    "time": 76,
                    "velocity": 0.25196850393700787
                },
                {
                    "duration": 0.20000000000000284,
                    "durationTicks": 192,
                    "midi": 72,
                    "name": "C5",
                    "ticks": 72960,
                    "time": 76,
                    "velocity": 0.2440944881889764
                },
                {
                    "duration": 0.20000000000000284,
                    "durationTicks": 192,
                    "midi": 76,
                    "name": "E5",
                    "ticks": 72960,
                    "time": 76,
                    "velocity": 0.2677165354330709
                },
                {
                    "duration": 0.20000000000000284,
                    "durationTicks": 192,
                    "midi": 41,
                    "name": "F2",
                    "ticks": 72960,
                    "time": 76,
                    "velocity": 0.2440944881889764
                },
                {
                    "duration": 0.20000000000000284,
                    "durationTicks": 192,
                    "midi": 53,
                    "name": "F3",
                    "ticks": 72960,
                    "time": 76,
                    "velocity": 0.23622047244094488
                },
                {
                    "duration": 0.29999999999999716,
                    "durationTicks": 288,
                    "midi": 64,
                    "name": "E4",
                    "ticks": 73152,
                    "time": 76.2,
                    "velocity": 0.25196850393700787
                },
                {
                    "duration": 0.29999999999999716,
                    "durationTicks": 288,
                    "midi": 69,
                    "name": "A4",
                    "ticks": 73152,
                    "time": 76.2,
                    "velocity": 0.2677165354330709
                },
                {
                    "duration": 0.29999999999999716,
                    "durationTicks": 288,
                    "midi": 72,
                    "name": "C5",
                    "ticks": 73152,
                    "time": 76.2,
                    "velocity": 0.28346456692913385
                },
                {
                    "duration": 0.29999999999999716,
                    "durationTicks": 288,
                    "midi": 41,
                    "name": "F2",
                    "ticks": 73152,
                    "time": 76.2,
                    "velocity": 0.25984251968503935
                },
                {
                    "duration": 0.29999999999999716,
                    "durationTicks": 288,
                    "midi": 53,
                    "name": "F3",
                    "ticks": 73152,
                    "time": 76.2,
                    "velocity": 0.25196850393700787
                },
                {
                    "duration": 0.30000000000001137,
                    "durationTicks": 288,
                    "midi": 64,
                    "name": "E4",
                    "ticks": 73440,
                    "time": 76.5,
                    "velocity": 0.2204724409448819
                },
                {
                    "duration": 0.30000000000001137,
                    "durationTicks": 288,
                    "midi": 69,
                    "name": "A4",
                    "ticks": 73440,
                    "time": 76.5,
                    "velocity": 0.25984251968503935
                },
                {
                    "duration": 0.30000000000001137,
                    "durationTicks": 288,
                    "midi": 41,
                    "name": "F2",
                    "ticks": 73440,
                    "time": 76.5,
                    "velocity": 0.2047244094488189
                },
                {
                    "duration": 0.30000000000001137,
                    "durationTicks": 288,
                    "midi": 53,
                    "name": "F3",
                    "ticks": 73440,
                    "time": 76.5,
                    "velocity": 0.1968503937007874
                },
                {
                    "duration": 0.19999999999998863,
                    "durationTicks": 192,
                    "midi": 64,
                    "name": "E4",
                    "ticks": 73728,
                    "time": 76.80000000000001,
                    "velocity": 0.2283464566929134
                },
                {
                    "duration": 0.19999999999998863,
                    "durationTicks": 192,
                    "midi": 69,
                    "name": "A4",
                    "ticks": 73728,
                    "time": 76.80000000000001,
                    "velocity": 0.2677165354330709
                },
                {
                    "duration": 0.19999999999998863,
                    "durationTicks": 192,
                    "midi": 72,
                    "name": "C5",
                    "ticks": 73728,
                    "time": 76.80000000000001,
                    "velocity": 0.2283464566929134
                },
                {
                    "duration": 0.19999999999998863,
                    "durationTicks": 192,
                    "midi": 41,
                    "name": "F2",
                    "ticks": 73728,
                    "time": 76.80000000000001,
                    "velocity": 0.2047244094488189
                },
                {
                    "duration": 0.19999999999998863,
                    "durationTicks": 192,
                    "midi": 53,
                    "name": "F3",
                    "ticks": 73728,
                    "time": 76.80000000000001,
                    "velocity": 0.2047244094488189
                },
                {
                    "duration": 0.4000000000000057,
                    "durationTicks": 384,
                    "midi": 64,
                    "name": "E4",
                    "ticks": 73920,
                    "time": 77,
                    "velocity": 0.25196850393700787
                },
                {
                    "duration": 0.4000000000000057,
                    "durationTicks": 384,
                    "midi": 69,
                    "name": "A4",
                    "ticks": 73920,
                    "time": 77,
                    "velocity": 0.2440944881889764
                },
                {
                    "duration": 0.4000000000000057,
                    "durationTicks": 384,
                    "midi": 72,
                    "name": "C5",
                    "ticks": 73920,
                    "time": 77,
                    "velocity": 0.2677165354330709
                },
                {
                    "duration": 0.8000000000000114,
                    "durationTicks": 768,
                    "midi": 43,
                    "name": "G2",
                    "ticks": 73920,
                    "time": 77,
                    "velocity": 0.2440944881889764
                },
                {
                    "duration": 0.8000000000000114,
                    "durationTicks": 768,
                    "midi": 55,
                    "name": "G3",
                    "ticks": 73920,
                    "time": 77,
                    "velocity": 0.2440944881889764
                },
                {
                    "duration": 0.20000000000000284,
                    "durationTicks": 192,
                    "midi": 71,
                    "name": "B4",
                    "ticks": 74304,
                    "time": 77.4,
                    "velocity": 0.2755905511811024
                },
                {
                    "duration": 0.20000000000000284,
                    "durationTicks": 192,
                    "midi": 69,
                    "name": "A4",
                    "ticks": 74496,
                    "time": 77.60000000000001,
                    "velocity": 0.2755905511811024
                },
                {
                    "duration": 0.19999999999998863,
                    "durationTicks": 192,
                    "midi": 64,
                    "name": "E4",
                    "ticks": 74688,
                    "time": 77.80000000000001,
                    "velocity": 0.2440944881889764
                },
                {
                    "duration": 0.19999999999998863,
                    "durationTicks": 192,
                    "midi": 69,
                    "name": "A4",
                    "ticks": 74688,
                    "time": 77.80000000000001,
                    "velocity": 0.25984251968503935
                },
                {
                    "duration": 0.19999999999998863,
                    "durationTicks": 192,
                    "midi": 72,
                    "name": "C5",
                    "ticks": 74688,
                    "time": 77.80000000000001,
                    "velocity": 0.2440944881889764
                },
                {
                    "duration": 0.7999999999999972,
                    "durationTicks": 768,
                    "midi": 43,
                    "name": "G2",
                    "ticks": 74688,
                    "time": 77.80000000000001,
                    "velocity": 0.2440944881889764
                },
                {
                    "duration": 0.7999999999999972,
                    "durationTicks": 768,
                    "midi": 55,
                    "name": "G3",
                    "ticks": 74688,
                    "time": 77.80000000000001,
                    "velocity": 0.23622047244094488
                },
                {
                    "duration": 0.4000000000000057,
                    "durationTicks": 384,
                    "midi": 71,
                    "name": "B4",
                    "ticks": 74880,
                    "time": 78,
                    "velocity": 0.28346456692913385
                },
                {
                    "duration": 0.20000000000000284,
                    "durationTicks": 192,
                    "midi": 72,
                    "name": "C5",
                    "ticks": 75264,
                    "time": 78.4,
                    "velocity": 0.2283464566929134
                },
                {
                    "duration": 0.29999999999999716,
                    "durationTicks": 288,
                    "midi": 69,
                    "name": "A4",
                    "ticks": 75456,
                    "time": 78.60000000000001,
                    "velocity": 0.1889763779527559
                },
                {
                    "duration": 0.29999999999999716,
                    "durationTicks": 288,
                    "midi": 72,
                    "name": "C5",
                    "ticks": 75456,
                    "time": 78.60000000000001,
                    "velocity": 0.1968503937007874
                },
                {
                    "duration": 0.29999999999999716,
                    "durationTicks": 288,
                    "midi": 77,
                    "name": "F5",
                    "ticks": 75456,
                    "time": 78.60000000000001,
                    "velocity": 0.2677165354330709
                },
                {
                    "duration": 0.29999999999999716,
                    "durationTicks": 288,
                    "midi": 53,
                    "name": "F3",
                    "ticks": 75456,
                    "time": 78.60000000000001,
                    "velocity": 0.25196850393700787
                },
                {
                    "duration": 0.29999999999999716,
                    "durationTicks": 288,
                    "midi": 84,
                    "name": "C6",
                    "ticks": 75744,
                    "time": 78.9,
                    "velocity": 0.2440944881889764
                },
                {
                    "duration": 0.29999999999999716,
                    "durationTicks": 288,
                    "midi": 53,
                    "name": "F3",
                    "ticks": 75744,
                    "time": 78.9,
                    "velocity": 0.2283464566929134
                },
                {
                    "duration": 0.6000000000000085,
                    "durationTicks": 576,
                    "midi": 53,
                    "name": "F3",
                    "ticks": 76032,
                    "time": 79.2,
                    "velocity": 0.2125984251968504
                },
                {
                    "duration": 0.9000000000000057,
                    "durationTicks": 864,
                    "midi": 81,
                    "name": "A5",
                    "ticks": 76032,
                    "time": 79.2,
                    "velocity": 0.2283464566929134
                },
                {
                    "duration": 0.19999999999998863,
                    "durationTicks": 192,
                    "midi": 53,
                    "name": "F3",
                    "ticks": 76608,
                    "time": 79.80000000000001,
                    "velocity": 0.2204724409448819
                },
                {
                    "duration": 0.20000000000000284,
                    "durationTicks": 192,
                    "midi": 60,
                    "name": "C4",
                    "ticks": 76800,
                    "time": 80,
                    "velocity": 0.23622047244094488
                },
                {
                    "duration": 0.7999999999999972,
                    "durationTicks": 768,
                    "midi": 69,
                    "name": "A4",
                    "ticks": 76992,
                    "time": 80.2,
                    "velocity": 0.1732283464566929
                },
                {
                    "duration": 0.7999999999999972,
                    "durationTicks": 768,
                    "midi": 72,
                    "name": "C5",
                    "ticks": 76992,
                    "time": 80.2,
                    "velocity": 0.16535433070866143
                },
                {
                    "duration": 0.7999999999999972,
                    "durationTicks": 768,
                    "midi": 76,
                    "name": "E5",
                    "ticks": 76992,
                    "time": 80.2,
                    "velocity": 0.15748031496062992
                },
                {
                    "duration": 0.7999999999999972,
                    "durationTicks": 768,
                    "midi": 79,
                    "name": "G5",
                    "ticks": 76992,
                    "time": 80.2,
                    "velocity": 0.25196850393700787
                },
                {
                    "duration": 0.7999999999999972,
                    "durationTicks": 768,
                    "midi": 57,
                    "name": "A3",
                    "ticks": 76992,
                    "time": 80.2,
                    "velocity": 0.2440944881889764
                },
                {
                    "duration": 0.30000000000001137,
                    "durationTicks": 288,
                    "midi": 60,
                    "name": "C4",
                    "ticks": 77760,
                    "time": 81,
                    "velocity": 0.1732283464566929
                },
                {
                    "duration": 0.8000000000000114,
                    "durationTicks": 768,
                    "midi": 72,
                    "name": "C5",
                    "ticks": 77760,
                    "time": 81,
                    "velocity": 0.2204724409448819
                },
                {
                    "duration": 0.29999999999999716,
                    "durationTicks": 288,
                    "midi": 59,
                    "name": "B3",
                    "ticks": 78048,
                    "time": 81.30000000000001,
                    "velocity": 0.1889763779527559
                },
                {
                    "duration": 0.20000000000000284,
                    "durationTicks": 192,
                    "midi": 55,
                    "name": "G3",
                    "ticks": 78336,
                    "time": 81.60000000000001,
                    "velocity": 0.2440944881889764
                },
                {
                    "duration": 0.29999999999999716,
                    "durationTicks": 288,
                    "midi": 47,
                    "name": "B2",
                    "ticks": 78528,
                    "time": 81.80000000000001,
                    "velocity": 0.1889763779527559
                },
                {
                    "duration": 1.0999999999999943,
                    "durationTicks": 1056,
                    "midi": 67,
                    "name": "G4",
                    "ticks": 78528,
                    "time": 81.80000000000001,
                    "velocity": 0.1968503937007874
                },
                {
                    "duration": 1.0999999999999943,
                    "durationTicks": 1056,
                    "midi": 71,
                    "name": "B4",
                    "ticks": 78528,
                    "time": 81.80000000000001,
                    "velocity": 0.2125984251968504
                },
                {
                    "duration": 1.0999999999999943,
                    "durationTicks": 1056,
                    "midi": 74,
                    "name": "D5",
                    "ticks": 78528,
                    "time": 81.80000000000001,
                    "velocity": 0.15748031496062992
                },
                {
                    "duration": 0.29999999999999716,
                    "durationTicks": 288,
                    "midi": 47,
                    "name": "B2",
                    "ticks": 78816,
                    "time": 82.10000000000001,
                    "velocity": 0.1968503937007874
                },
                {
                    "duration": 0.5999999999999943,
                    "durationTicks": 576,
                    "midi": 47,
                    "name": "B2",
                    "ticks": 79104,
                    "time": 82.4,
                    "velocity": 0.2204724409448819
                },
                {
                    "duration": 0.20000000000000284,
                    "durationTicks": 192,
                    "midi": 55,
                    "name": "G3",
                    "ticks": 79680,
                    "time": 83,
                    "velocity": 0.2677165354330709
                },
                {
                    "duration": 0.4000000000000057,
                    "durationTicks": 384,
                    "midi": 72,
                    "name": "C5",
                    "ticks": 79680,
                    "time": 83,
                    "velocity": 0.2204724409448819
                },
                {
                    "duration": 0.20000000000000284,
                    "durationTicks": 192,
                    "midi": 48,
                    "name": "C3",
                    "ticks": 79872,
                    "time": 83.2,
                    "velocity": 0.1889763779527559
                },
                {
                    "duration": 0.29999999999999716,
                    "durationTicks": 288,
                    "midi": 69,
                    "name": "A4",
                    "ticks": 80064,
                    "time": 83.4,
                    "velocity": 0.18110236220472442
                },
                {
                    "duration": 0.29999999999999716,
                    "durationTicks": 288,
                    "midi": 72,
                    "name": "C5",
                    "ticks": 80064,
                    "time": 83.4,
                    "velocity": 0.1732283464566929
                },
                {
                    "duration": 0.29999999999999716,
                    "durationTicks": 288,
                    "midi": 76,
                    "name": "E5",
                    "ticks": 80064,
                    "time": 83.4,
                    "velocity": 0.1968503937007874
                },
                {
                    "duration": 0.7999999999999972,
                    "durationTicks": 768,
                    "midi": 57,
                    "name": "A3",
                    "ticks": 80064,
                    "time": 83.4,
                    "velocity": 0.25196850393700787
                },
                {
                    "duration": 0.29999999999999716,
                    "durationTicks": 288,
                    "midi": 74,
                    "name": "D5",
                    "ticks": 80352,
                    "time": 83.7,
                    "velocity": 0.14173228346456693
                },
                {
                    "duration": 0.4000000000000057,
                    "durationTicks": 384,
                    "midi": 72,
                    "name": "C5",
                    "ticks": 80640,
                    "time": 84,
                    "velocity": 0.1968503937007874
                },
                {
                    "duration": 0.20000000000000284,
                    "durationTicks": 192,
                    "midi": 60,
                    "name": "C4",
                    "ticks": 80832,
                    "time": 84.2,
                    "velocity": 0.18110236220472442
                },
                {
                    "duration": 0.20000000000000284,
                    "durationTicks": 192,
                    "midi": 59,
                    "name": "B3",
                    "ticks": 81024,
                    "time": 84.4,
                    "velocity": 0.2125984251968504
                },
                {
                    "duration": 0.4000000000000057,
                    "durationTicks": 384,
                    "midi": 71,
                    "name": "B4",
                    "ticks": 81024,
                    "time": 84.4,
                    "velocity": 0.16535433070866143
                },
                {
                    "duration": 0.3999999999999915,
                    "durationTicks": 384,
                    "midi": 55,
                    "name": "G3",
                    "ticks": 81216,
                    "time": 84.60000000000001,
                    "velocity": 0.1732283464566929
                },
                {
                    "duration": 0.5,
                    "durationTicks": 480,
                    "midi": 72,
                    "name": "C5",
                    "ticks": 81408,
                    "time": 84.80000000000001,
                    "velocity": 0.1968503937007874
                },
                {
                    "duration": 0.30000000000001137,
                    "durationTicks": 288,
                    "midi": 77,
                    "name": "F5",
                    "ticks": 81600,
                    "time": 85,
                    "velocity": 0.15748031496062992
                },
                {
                    "duration": 0.30000000000001137,
                    "durationTicks": 288,
                    "midi": 81,
                    "name": "A5",
                    "ticks": 81600,
                    "time": 85,
                    "velocity": 0.1968503937007874
                },
                {
                    "duration": 0.30000000000001137,
                    "durationTicks": 288,
                    "midi": 84,
                    "name": "C6",
                    "ticks": 81600,
                    "time": 85,
                    "velocity": 0.16535433070866143
                },
                {
                    "duration": 0.30000000000001137,
                    "durationTicks": 288,
                    "midi": 86,
                    "name": "D6",
                    "ticks": 81600,
                    "time": 85,
                    "velocity": 0.2125984251968504
                },
                {
                    "duration": 0.30000000000001137,
                    "durationTicks": 288,
                    "midi": 53,
                    "name": "F3",
                    "ticks": 81600,
                    "time": 85,
                    "velocity": 0.25196850393700787
                },
                {
                    "duration": 0.30000000000001137,
                    "durationTicks": 288,
                    "midi": 60,
                    "name": "C4",
                    "ticks": 81600,
                    "time": 85,
                    "velocity": 0.1968503937007874
                },
                {
                    "duration": 0.30000000000001137,
                    "durationTicks": 288,
                    "midi": 65,
                    "name": "F4",
                    "ticks": 81600,
                    "time": 85,
                    "velocity": 0.1968503937007874
                },
                {
                    "duration": 0.29999999999999716,
                    "durationTicks": 288,
                    "midi": 84,
                    "name": "C6",
                    "ticks": 81888,
                    "time": 85.30000000000001,
                    "velocity": 0.15748031496062992
                },
                {
                    "duration": 0.29999999999999716,
                    "durationTicks": 288,
                    "midi": 53,
                    "name": "F3",
                    "ticks": 81888,
                    "time": 85.30000000000001,
                    "velocity": 0.2283464566929134
                },
                {
                    "duration": 0.5999999999999943,
                    "durationTicks": 576,
                    "midi": 53,
                    "name": "F3",
                    "ticks": 82176,
                    "time": 85.60000000000001,
                    "velocity": 0.2125984251968504
                },
                {
                    "duration": 0.7999999999999972,
                    "durationTicks": 768,
                    "midi": 83,
                    "name": "B5",
                    "ticks": 82176,
                    "time": 85.60000000000001,
                    "velocity": 0.1968503937007874
                },
                {
                    "duration": 0.20000000000000284,
                    "durationTicks": 192,
                    "midi": 53,
                    "name": "F3",
                    "ticks": 82752,
                    "time": 86.2,
                    "velocity": 0.2204724409448819
                },
                {
                    "duration": 0.20000000000000284,
                    "durationTicks": 192,
                    "midi": 60,
                    "name": "C4",
                    "ticks": 82944,
                    "time": 86.4,
                    "velocity": 0.23622047244094488
                },
                {
                    "duration": 0.4000000000000057,
                    "durationTicks": 384,
                    "midi": 84,
                    "name": "C6",
                    "ticks": 82944,
                    "time": 86.4,
                    "velocity": 0.1968503937007874
                },
                {
                    "duration": 0.20000000000000284,
                    "durationTicks": 192,
                    "midi": 76,
                    "name": "E5",
                    "ticks": 83136,
                    "time": 86.60000000000001,
                    "velocity": 0.1732283464566929
                },
                {
                    "duration": 0.20000000000000284,
                    "durationTicks": 192,
                    "midi": 81,
                    "name": "A5",
                    "ticks": 83136,
                    "time": 86.60000000000001,
                    "velocity": 0.1732283464566929
                },
                {
                    "duration": 0.7999999999999972,
                    "durationTicks": 768,
                    "midi": 57,
                    "name": "A3",
                    "ticks": 83136,
                    "time": 86.60000000000001,
                    "velocity": 0.2440944881889764
                },
                {
                    "duration": 1.2999999999999972,
                    "durationTicks": 1248,
                    "midi": 83,
                    "name": "B5",
                    "ticks": 83328,
                    "time": 86.80000000000001,
                    "velocity": 0.2283464566929134
                },
                {
                    "duration": 0.29999999999999716,
                    "durationTicks": 288,
                    "midi": 60,
                    "name": "C4",
                    "ticks": 83904,
                    "time": 87.4,
                    "velocity": 0.1732283464566929
                },
                {
                    "duration": 0.29999999999999716,
                    "durationTicks": 288,
                    "midi": 59,
                    "name": "B3",
                    "ticks": 84192,
                    "time": 87.7,
                    "velocity": 0.1889763779527559
                },
                {
                    "duration": 0.20000000000000284,
                    "durationTicks": 192,
                    "midi": 55,
                    "name": "G3",
                    "ticks": 84480,
                    "time": 88,
                    "velocity": 0.2440944881889764
                },
                {
                    "duration": 0.29999999999999716,
                    "durationTicks": 288,
                    "midi": 47,
                    "name": "B2",
                    "ticks": 84672,
                    "time": 88.2,
                    "velocity": 0.2125984251968504
                },
                {
                    "duration": 0.4000000000000057,
                    "durationTicks": 384,
                    "midi": 62,
                    "name": "D4",
                    "ticks": 84672,
                    "time": 88.2,
                    "velocity": 0.2047244094488189
                },
                {
                    "duration": 0.4000000000000057,
                    "durationTicks": 384,
                    "midi": 67,
                    "name": "G4",
                    "ticks": 84672,
                    "time": 88.2,
                    "velocity": 0.2204724409448819
                },
                {
                    "duration": 0.4000000000000057,
                    "durationTicks": 384,
                    "midi": 71,
                    "name": "B4",
                    "ticks": 84672,
                    "time": 88.2,
                    "velocity": 0.1732283464566929
                },
                {
                    "duration": 0.30000000000001137,
                    "durationTicks": 288,
                    "midi": 47,
                    "name": "B2",
                    "ticks": 84960,
                    "time": 88.5,
                    "velocity": 0.2283464566929134
                },
                {
                    "duration": 0.20000000000000284,
                    "durationTicks": 192,
                    "midi": 72,
                    "name": "C5",
                    "ticks": 85056,
                    "time": 88.60000000000001,
                    "velocity": 0.25196850393700787
                },
                {
                    "duration": 0.5999999999999943,
                    "durationTicks": 576,
                    "midi": 47,
                    "name": "B2",
                    "ticks": 85248,
                    "time": 88.80000000000001,
                    "velocity": 0.2283464566929134
                },
                {
                    "duration": 0.7999999999999972,
                    "durationTicks": 768,
                    "midi": 77,
                    "name": "F5",
                    "ticks": 85248,
                    "time": 88.80000000000001,
                    "velocity": 0.2283464566929134
                },
                {
                    "duration": 0.20000000000000284,
                    "durationTicks": 192,
                    "midi": 55,
                    "name": "G3",
                    "ticks": 85824,
                    "time": 89.4,
                    "velocity": 0.2125984251968504
                },
                {
                    "duration": 0.20000000000000284,
                    "durationTicks": 192,
                    "midi": 48,
                    "name": "C3",
                    "ticks": 86016,
                    "time": 89.60000000000001,
                    "velocity": 0.1889763779527559
                },
                {
                    "duration": 0.7999999999999972,
                    "durationTicks": 768,
                    "midi": 76,
                    "name": "E5",
                    "ticks": 86016,
                    "time": 89.60000000000001,
                    "velocity": 0.2440944881889764
                },
                {
                    "duration": 0.7999999999999972,
                    "durationTicks": 768,
                    "midi": 57,
                    "name": "A3",
                    "ticks": 86208,
                    "time": 89.80000000000001,
                    "velocity": 0.25196850393700787
                },
                {
                    "duration": 0.9000000000000057,
                    "durationTicks": 864,
                    "midi": 72,
                    "name": "C5",
                    "ticks": 86784,
                    "time": 90.4,
                    "velocity": 0.2125984251968504
                },
                {
                    "duration": 0.20000000000000284,
                    "durationTicks": 192,
                    "midi": 48,
                    "name": "C3",
                    "ticks": 86976,
                    "time": 90.60000000000001,
                    "velocity": 0.2283464566929134
                },
                {
                    "duration": 0.19999999999998863,
                    "durationTicks": 192,
                    "midi": 48,
                    "name": "C3",
                    "ticks": 87168,
                    "time": 90.80000000000001,
                    "velocity": 0.2440944881889764
                },
                {
                    "duration": 0.20000000000000284,
                    "durationTicks": 192,
                    "midi": 47,
                    "name": "B2",
                    "ticks": 87360,
                    "time": 91,
                    "velocity": 0.2125984251968504
                },
                {
                    "duration": 0.20000000000000284,
                    "durationTicks": 192,
                    "midi": 43,
                    "name": "G2",
                    "ticks": 87552,
                    "time": 91.2,
                    "velocity": 0.2204724409448819
                },
                {
                    "duration": 0.20000000000000284,
                    "durationTicks": 192,
                    "midi": 64,
                    "name": "E4",
                    "ticks": 87744,
                    "time": 91.4,
                    "velocity": 0.2283464566929134
                },
                {
                    "duration": 0.20000000000000284,
                    "durationTicks": 192,
                    "midi": 74,
                    "name": "D5",
                    "ticks": 87744,
                    "time": 91.4,
                    "velocity": 0.25984251968503935
                },
                {
                    "duration": 0.29999999999999716,
                    "durationTicks": 288,
                    "midi": 45,
                    "name": "A2",
                    "ticks": 87744,
                    "time": 91.4,
                    "velocity": 0.2440944881889764
                },
                {
                    "duration": 0.09999999999999432,
                    "durationTicks": 96,
                    "midi": 67,
                    "name": "G4",
                    "ticks": 87936,
                    "time": 91.60000000000001,
                    "velocity": 0.1732283464566929
                },
                {
                    "duration": 0.09999999999999432,
                    "durationTicks": 96,
                    "midi": 72,
                    "name": "C5",
                    "ticks": 87936,
                    "time": 91.60000000000001,
                    "velocity": 0.25196850393700787
                },
                {
                    "duration": 0.20000000000000284,
                    "durationTicks": 192,
                    "midi": 69,
                    "name": "A4",
                    "ticks": 88032,
                    "time": 91.7,
                    "velocity": 0.2047244094488189
                },
                {
                    "duration": 0.20000000000000284,
                    "durationTicks": 192,
                    "midi": 74,
                    "name": "D5",
                    "ticks": 88032,
                    "time": 91.7,
                    "velocity": 0.25984251968503935
                },
                {
                    "duration": 0.29999999999999716,
                    "durationTicks": 288,
                    "midi": 52,
                    "name": "E3",
                    "ticks": 88032,
                    "time": 91.7,
                    "velocity": 0.2283464566929134
                },
                {
                    "duration": 0.09999999999999432,
                    "durationTicks": 96,
                    "midi": 67,
                    "name": "G4",
                    "ticks": 88224,
                    "time": 91.9,
                    "velocity": 0.1732283464566929
                },
                {
                    "duration": 0.20000000000000284,
                    "durationTicks": 192,
                    "midi": 71,
                    "name": "B4",
                    "ticks": 88320,
                    "time": 92,
                    "velocity": 0.2125984251968504
                },
                {
                    "duration": 0.20000000000000284,
                    "durationTicks": 192,
                    "midi": 72,
                    "name": "C5",
                    "ticks": 88320,
                    "time": 92,
                    "velocity": 0.2677165354330709
                },
                {
                    "duration": 0.20000000000000284,
                    "durationTicks": 192,
                    "midi": 57,
                    "name": "A3",
                    "ticks": 88320,
                    "time": 92,
                    "velocity": 0.2204724409448819
                },
                {
                    "duration": 0.20000000000000284,
                    "durationTicks": 192,
                    "midi": 64,
                    "name": "E4",
                    "ticks": 88512,
                    "time": 92.2,
                    "velocity": 0.2283464566929134
                },
                {
                    "duration": 0.20000000000000284,
                    "durationTicks": 192,
                    "midi": 74,
                    "name": "D5",
                    "ticks": 88512,
                    "time": 92.2,
                    "velocity": 0.2755905511811024
                },
                {
                    "duration": 0.29999999999999716,
                    "durationTicks": 288,
                    "midi": 43,
                    "name": "G2",
                    "ticks": 88512,
                    "time": 92.2,
                    "velocity": 0.2047244094488189
                },
                {
                    "duration": 0.09999999999999432,
                    "durationTicks": 96,
                    "midi": 67,
                    "name": "G4",
                    "ticks": 88704,
                    "time": 92.4,
                    "velocity": 0.1732283464566929
                },
                {
                    "duration": 0.09999999999999432,
                    "durationTicks": 96,
                    "midi": 72,
                    "name": "C5",
                    "ticks": 88704,
                    "time": 92.4,
                    "velocity": 0.2677165354330709
                },
                {
                    "duration": 0.20000000000000284,
                    "durationTicks": 192,
                    "midi": 72,
                    "name": "C5",
                    "ticks": 88800,
                    "time": 92.5,
                    "velocity": 0.2047244094488189
                },
                {
                    "duration": 0.20000000000000284,
                    "durationTicks": 192,
                    "midi": 74,
                    "name": "D5",
                    "ticks": 88800,
                    "time": 92.5,
                    "velocity": 0.2755905511811024
                },
                {
                    "duration": 0.30000000000001137,
                    "durationTicks": 288,
                    "midi": 59,
                    "name": "B3",
                    "ticks": 88800,
                    "time": 92.5,
                    "velocity": 0.2283464566929134
                },
                {
                    "duration": 0.10000000000000853,
                    "durationTicks": 96,
                    "midi": 67,
                    "name": "G4",
                    "ticks": 88992,
                    "time": 92.7,
                    "velocity": 0.1732283464566929
                },
                {
                    "duration": 0.19999999999998863,
                    "durationTicks": 192,
                    "midi": 71,
                    "name": "B4",
                    "ticks": 89088,
                    "time": 92.80000000000001,
                    "velocity": 0.2125984251968504
                },
                {
                    "duration": 0.19999999999998863,
                    "durationTicks": 192,
                    "midi": 72,
                    "name": "C5",
                    "ticks": 89088,
                    "time": 92.80000000000001,
                    "velocity": 0.25196850393700787
                },
                {
                    "duration": 0.19999999999998863,
                    "durationTicks": 192,
                    "midi": 55,
                    "name": "G3",
                    "ticks": 89088,
                    "time": 92.80000000000001,
                    "velocity": 0.2677165354330709
                },
                {
                    "duration": 0.20000000000000284,
                    "durationTicks": 192,
                    "midi": 64,
                    "name": "E4",
                    "ticks": 89280,
                    "time": 93,
                    "velocity": 0.2283464566929134
                },
                {
                    "duration": 0.20000000000000284,
                    "durationTicks": 192,
                    "midi": 71,
                    "name": "B4",
                    "ticks": 89280,
                    "time": 93,
                    "velocity": 0.25196850393700787
                },
                {
                    "duration": 0.30000000000001137,
                    "durationTicks": 288,
                    "midi": 45,
                    "name": "A2",
                    "ticks": 89280,
                    "time": 93,
                    "velocity": 0.25196850393700787
                },
                {
                    "duration": 0.10000000000000853,
                    "durationTicks": 96,
                    "midi": 67,
                    "name": "G4",
                    "ticks": 89472,
                    "time": 93.2,
                    "velocity": 0.1732283464566929
                },
                {
                    "duration": 0.10000000000000853,
                    "durationTicks": 96,
                    "midi": 71,
                    "name": "B4",
                    "ticks": 89472,
                    "time": 93.2,
                    "velocity": 0.25196850393700787
                },
                {
                    "duration": 0.19999999999998863,
                    "durationTicks": 192,
                    "midi": 69,
                    "name": "A4",
                    "ticks": 89568,
                    "time": 93.30000000000001,
                    "velocity": 0.2047244094488189
                },
                {
                    "duration": 0.19999999999998863,
                    "durationTicks": 192,
                    "midi": 71,
                    "name": "B4",
                    "ticks": 89568,
                    "time": 93.30000000000001,
                    "velocity": 0.25984251968503935
                },
                {
                    "duration": 0.29999999999999716,
                    "durationTicks": 288,
                    "midi": 52,
                    "name": "E3",
                    "ticks": 89568,
                    "time": 93.30000000000001,
                    "velocity": 0.2047244094488189
                },
                {
                    "duration": 0.10000000000000853,
                    "durationTicks": 96,
                    "midi": 67,
                    "name": "G4",
                    "ticks": 89760,
                    "time": 93.5,
                    "velocity": 0.1732283464566929
                },
                {
                    "duration": 0.20000000000000284,
                    "durationTicks": 192,
                    "midi": 71,
                    "name": "B4",
                    "ticks": 89856,
                    "time": 93.60000000000001,
                    "velocity": 0.2125984251968504
                },
                {
                    "duration": 0.20000000000000284,
                    "durationTicks": 192,
                    "midi": 57,
                    "name": "A3",
                    "ticks": 89856,
                    "time": 93.60000000000001,
                    "velocity": 0.2440944881889764
                },
                {
                    "duration": 0.19999999999998863,
                    "durationTicks": 192,
                    "midi": 64,
                    "name": "E4",
                    "ticks": 90048,
                    "time": 93.80000000000001,
                    "velocity": 0.2283464566929134
                },
                {
                    "duration": 0.19999999999998863,
                    "durationTicks": 192,
                    "midi": 71,
                    "name": "B4",
                    "ticks": 90048,
                    "time": 93.80000000000001,
                    "velocity": 0.2677165354330709
                },
                {
                    "duration": 0.29999999999999716,
                    "durationTicks": 288,
                    "midi": 45,
                    "name": "A2",
                    "ticks": 90048,
                    "time": 93.80000000000001,
                    "velocity": 0.2204724409448819
                },
                {
                    "duration": 0.10000000000000853,
                    "durationTicks": 96,
                    "midi": 67,
                    "name": "G4",
                    "ticks": 90240,
                    "time": 94,
                    "velocity": 0.1732283464566929
                },
                {
                    "duration": 0.10000000000000853,
                    "durationTicks": 96,
                    "midi": 71,
                    "name": "B4",
                    "ticks": 90240,
                    "time": 94,
                    "velocity": 0.2677165354330709
                },
                {
                    "duration": 0.20000000000000284,
                    "durationTicks": 192,
                    "midi": 71,
                    "name": "B4",
                    "ticks": 90336,
                    "time": 94.10000000000001,
                    "velocity": 0.25196850393700787
                },
                {
                    "duration": 0.20000000000000284,
                    "durationTicks": 192,
                    "midi": 72,
                    "name": "C5",
                    "ticks": 90336,
                    "time": 94.10000000000001,
                    "velocity": 0.2047244094488189
                },
                {
                    "duration": 0.29999999999999716,
                    "durationTicks": 288,
                    "midi": 60,
                    "name": "C4",
                    "ticks": 90336,
                    "time": 94.10000000000001,
                    "velocity": 0.23622047244094488
                },
                {
                    "duration": 0.09999999999999432,
                    "durationTicks": 96,
                    "midi": 67,
                    "name": "G4",
                    "ticks": 90528,
                    "time": 94.30000000000001,
                    "velocity": 0.1732283464566929
                },
                {
                    "duration": 0.20000000000000284,
                    "durationTicks": 192,
                    "midi": 71,
                    "name": "B4",
                    "ticks": 90624,
                    "time": 94.4,
                    "velocity": 0.2125984251968504
                },
                {
                    "duration": 0.20000000000000284,
                    "durationTicks": 192,
                    "midi": 72,
                    "name": "C5",
                    "ticks": 90624,
                    "time": 94.4,
                    "velocity": 0.2755905511811024
                },
                {
                    "duration": 0.20000000000000284,
                    "durationTicks": 192,
                    "midi": 59,
                    "name": "B3",
                    "ticks": 90624,
                    "time": 94.4,
                    "velocity": 0.2283464566929134
                },
                {
                    "duration": 0.20000000000000284,
                    "durationTicks": 192,
                    "midi": 64,
                    "name": "E4",
                    "ticks": 90816,
                    "time": 94.60000000000001,
                    "velocity": 0.2283464566929134
                },
                {
                    "duration": 0.20000000000000284,
                    "durationTicks": 192,
                    "midi": 74,
                    "name": "D5",
                    "ticks": 90816,
                    "time": 94.60000000000001,
                    "velocity": 0.25984251968503935
                },
                {
                    "duration": 0.29999999999999716,
                    "durationTicks": 288,
                    "midi": 45,
                    "name": "A2",
                    "ticks": 90816,
                    "time": 94.60000000000001,
                    "velocity": 0.2440944881889764
                },
                {
                    "duration": 0.09999999999999432,
                    "durationTicks": 96,
                    "midi": 67,
                    "name": "G4",
                    "ticks": 91008,
                    "time": 94.80000000000001,
                    "velocity": 0.1732283464566929
                },
                {
                    "duration": 0.09999999999999432,
                    "durationTicks": 96,
                    "midi": 72,
                    "name": "C5",
                    "ticks": 91008,
                    "time": 94.80000000000001,
                    "velocity": 0.25196850393700787
                },
                {
                    "duration": 0.20000000000000284,
                    "durationTicks": 192,
                    "midi": 69,
                    "name": "A4",
                    "ticks": 91104,
                    "time": 94.9,
                    "velocity": 0.2047244094488189
                },
                {
                    "duration": 0.20000000000000284,
                    "durationTicks": 192,
                    "midi": 74,
                    "name": "D5",
                    "ticks": 91104,
                    "time": 94.9,
                    "velocity": 0.25984251968503935
                },
                {
                    "duration": 0.29999999999999716,
                    "durationTicks": 288,
                    "midi": 52,
                    "name": "E3",
                    "ticks": 91104,
                    "time": 94.9,
                    "velocity": 0.2283464566929134
                },
                {
                    "duration": 0.09999999999999432,
                    "durationTicks": 96,
                    "midi": 67,
                    "name": "G4",
                    "ticks": 91296,
                    "time": 95.10000000000001,
                    "velocity": 0.1732283464566929
                },
                {
                    "duration": 0.20000000000000284,
                    "durationTicks": 192,
                    "midi": 71,
                    "name": "B4",
                    "ticks": 91392,
                    "time": 95.2,
                    "velocity": 0.2125984251968504
                },
                {
                    "duration": 0.20000000000000284,
                    "durationTicks": 192,
                    "midi": 72,
                    "name": "C5",
                    "ticks": 91392,
                    "time": 95.2,
                    "velocity": 0.2677165354330709
                },
                {
                    "duration": 0.20000000000000284,
                    "durationTicks": 192,
                    "midi": 57,
                    "name": "A3",
                    "ticks": 91392,
                    "time": 95.2,
                    "velocity": 0.2204724409448819
                },
                {
                    "duration": 0.20000000000000284,
                    "durationTicks": 192,
                    "midi": 64,
                    "name": "E4",
                    "ticks": 91584,
                    "time": 95.4,
                    "velocity": 0.2283464566929134
                },
                {
                    "duration": 0.20000000000000284,
                    "durationTicks": 192,
                    "midi": 74,
                    "name": "D5",
                    "ticks": 91584,
                    "time": 95.4,
                    "velocity": 0.2755905511811024
                },
                {
                    "duration": 0.29999999999999716,
                    "durationTicks": 288,
                    "midi": 43,
                    "name": "G2",
                    "ticks": 91584,
                    "time": 95.4,
                    "velocity": 0.2047244094488189
                },
                {
                    "duration": 0.09999999999999432,
                    "durationTicks": 96,
                    "midi": 67,
                    "name": "G4",
                    "ticks": 91776,
                    "time": 95.60000000000001,
                    "velocity": 0.1732283464566929
                },
                {
                    "duration": 0.09999999999999432,
                    "durationTicks": 96,
                    "midi": 72,
                    "name": "C5",
                    "ticks": 91776,
                    "time": 95.60000000000001,
                    "velocity": 0.2677165354330709
                },
                {
                    "duration": 0.20000000000000284,
                    "durationTicks": 192,
                    "midi": 72,
                    "name": "C5",
                    "ticks": 91872,
                    "time": 95.7,
                    "velocity": 0.2047244094488189
                },
                {
                    "duration": 0.20000000000000284,
                    "durationTicks": 192,
                    "midi": 74,
                    "name": "D5",
                    "ticks": 91872,
                    "time": 95.7,
                    "velocity": 0.2755905511811024
                },
                {
                    "duration": 0.29999999999999716,
                    "durationTicks": 288,
                    "midi": 59,
                    "name": "B3",
                    "ticks": 91872,
                    "time": 95.7,
                    "velocity": 0.2283464566929134
                },
                {
                    "duration": 0.09999999999999432,
                    "durationTicks": 96,
                    "midi": 67,
                    "name": "G4",
                    "ticks": 92064,
                    "time": 95.9,
                    "velocity": 0.1732283464566929
                },
                {
                    "duration": 0.20000000000000284,
                    "durationTicks": 192,
                    "midi": 71,
                    "name": "B4",
                    "ticks": 92160,
                    "time": 96,
                    "velocity": 0.2125984251968504
                },
                {
                    "duration": 0.20000000000000284,
                    "durationTicks": 192,
                    "midi": 72,
                    "name": "C5",
                    "ticks": 92160,
                    "time": 96,
                    "velocity": 0.25196850393700787
                },
                {
                    "duration": 0.20000000000000284,
                    "durationTicks": 192,
                    "midi": 55,
                    "name": "G3",
                    "ticks": 92160,
                    "time": 96,
                    "velocity": 0.2677165354330709
                },
                {
                    "duration": 0.20000000000000284,
                    "durationTicks": 192,
                    "midi": 64,
                    "name": "E4",
                    "ticks": 92352,
                    "time": 96.2,
                    "velocity": 0.2283464566929134
                },
                {
                    "duration": 0.20000000000000284,
                    "durationTicks": 192,
                    "midi": 71,
                    "name": "B4",
                    "ticks": 92352,
                    "time": 96.2,
                    "velocity": 0.2677165354330709
                },
                {
                    "duration": 0.29999999999999716,
                    "durationTicks": 288,
                    "midi": 45,
                    "name": "A2",
                    "ticks": 92352,
                    "time": 96.2,
                    "velocity": 0.2440944881889764
                },
                {
                    "duration": 0.09999999999999432,
                    "durationTicks": 96,
                    "midi": 67,
                    "name": "G4",
                    "ticks": 92544,
                    "time": 96.4,
                    "velocity": 0.1732283464566929
                },
                {
                    "duration": 0.09999999999999432,
                    "durationTicks": 96,
                    "midi": 71,
                    "name": "B4",
                    "ticks": 92544,
                    "time": 96.4,
                    "velocity": 0.25196850393700787
                },
                {
                    "duration": 0.20000000000000284,
                    "durationTicks": 192,
                    "midi": 69,
                    "name": "A4",
                    "ticks": 92640,
                    "time": 96.5,
                    "velocity": 0.2047244094488189
                },
                {
                    "duration": 0.20000000000000284,
                    "durationTicks": 192,
                    "midi": 71,
                    "name": "B4",
                    "ticks": 92640,
                    "time": 96.5,
                    "velocity": 0.25984251968503935
                },
                {
                    "duration": 0.30000000000001137,
                    "durationTicks": 288,
                    "midi": 52,
                    "name": "E3",
                    "ticks": 92640,
                    "time": 96.5,
                    "velocity": 0.2283464566929134
                },
                {
                    "duration": 0.10000000000000853,
                    "durationTicks": 96,
                    "midi": 67,
                    "name": "G4",
                    "ticks": 92832,
                    "time": 96.7,
                    "velocity": 0.1732283464566929
                },
                {
                    "duration": 0.19999999999998863,
                    "durationTicks": 192,
                    "midi": 71,
                    "name": "B4",
                    "ticks": 92928,
                    "time": 96.80000000000001,
                    "velocity": 0.2125984251968504
                },
                {
                    "duration": 0.19999999999998863,
                    "durationTicks": 192,
                    "midi": 57,
                    "name": "A3",
                    "ticks": 92928,
                    "time": 96.80000000000001,
                    "velocity": 0.2204724409448819
                },
                {
                    "duration": 0.20000000000000284,
                    "durationTicks": 192,
                    "midi": 64,
                    "name": "E4",
                    "ticks": 93120,
                    "time": 97,
                    "velocity": 0.2283464566929134
                },
                {
                    "duration": 0.20000000000000284,
                    "durationTicks": 192,
                    "midi": 71,
                    "name": "B4",
                    "ticks": 93120,
                    "time": 97,
                    "velocity": 0.25984251968503935
                },
                {
                    "duration": 0.30000000000001137,
                    "durationTicks": 288,
                    "midi": 43,
                    "name": "G2",
                    "ticks": 93120,
                    "time": 97,
                    "velocity": 0.23622047244094488
                },
                {
                    "duration": 0.10000000000000853,
                    "durationTicks": 96,
                    "midi": 67,
                    "name": "G4",
                    "ticks": 93312,
                    "time": 97.2,
                    "velocity": 0.1732283464566929
                },
                {
                    "duration": 0.10000000000000853,
                    "durationTicks": 96,
                    "midi": 71,
                    "name": "B4",
                    "ticks": 93312,
                    "time": 97.2,
                    "velocity": 0.2755905511811024
                },
                {
                    "duration": 0.19999999999998863,
                    "durationTicks": 192,
                    "midi": 71,
                    "name": "B4",
                    "ticks": 93408,
                    "time": 97.30000000000001,
                    "velocity": 0.25984251968503935
                },
                {
                    "duration": 0.19999999999998863,
                    "durationTicks": 192,
                    "midi": 72,
                    "name": "C5",
                    "ticks": 93408,
                    "time": 97.30000000000001,
                    "velocity": 0.2047244094488189
                },
                {
                    "duration": 0.29999999999999716,
                    "durationTicks": 288,
                    "midi": 59,
                    "name": "B3",
                    "ticks": 93408,
                    "time": 97.30000000000001,
                    "velocity": 0.25196850393700787
                },
                {
                    "duration": 0.10000000000000853,
                    "durationTicks": 96,
                    "midi": 67,
                    "name": "G4",
                    "ticks": 93600,
                    "time": 97.5,
                    "velocity": 0.1732283464566929
                },
                {
                    "duration": 0.20000000000000284,
                    "durationTicks": 192,
                    "midi": 71,
                    "name": "B4",
                    "ticks": 93696,
                    "time": 97.60000000000001,
                    "velocity": 0.2125984251968504
                },
                {
                    "duration": 0.20000000000000284,
                    "durationTicks": 192,
                    "midi": 72,
                    "name": "C5",
                    "ticks": 93696,
                    "time": 97.60000000000001,
                    "velocity": 0.25984251968503935
                },
                {
                    "duration": 0.20000000000000284,
                    "durationTicks": 192,
                    "midi": 55,
                    "name": "G3",
                    "ticks": 93696,
                    "time": 97.60000000000001,
                    "velocity": 0.1968503937007874
                },
                {
                    "duration": 0.19999999999998863,
                    "durationTicks": 192,
                    "midi": 64,
                    "name": "E4",
                    "ticks": 93888,
                    "time": 97.80000000000001,
                    "velocity": 0.2283464566929134
                },
                {
                    "duration": 0.19999999999998863,
                    "durationTicks": 192,
                    "midi": 74,
                    "name": "D5",
                    "ticks": 93888,
                    "time": 97.80000000000001,
                    "velocity": 0.25984251968503935
                },
                {
                    "duration": 0.29999999999999716,
                    "durationTicks": 288,
                    "midi": 45,
                    "name": "A2",
                    "ticks": 93888,
                    "time": 97.80000000000001,
                    "velocity": 0.2440944881889764
                },
                {
                    "duration": 0.10000000000000853,
                    "durationTicks": 96,
                    "midi": 67,
                    "name": "G4",
                    "ticks": 94080,
                    "time": 98,
                    "velocity": 0.1732283464566929
                },
                {
                    "duration": 0.10000000000000853,
                    "durationTicks": 96,
                    "midi": 72,
                    "name": "C5",
                    "ticks": 94080,
                    "time": 98,
                    "velocity": 0.25196850393700787
                },
                {
                    "duration": 0.20000000000000284,
                    "durationTicks": 192,
                    "midi": 69,
                    "name": "A4",
                    "ticks": 94176,
                    "time": 98.10000000000001,
                    "velocity": 0.2047244094488189
                },
                {
                    "duration": 0.20000000000000284,
                    "durationTicks": 192,
                    "midi": 74,
                    "name": "D5",
                    "ticks": 94176,
                    "time": 98.10000000000001,
                    "velocity": 0.25984251968503935
                },
                {
                    "duration": 0.29999999999999716,
                    "durationTicks": 288,
                    "midi": 52,
                    "name": "E3",
                    "ticks": 94176,
                    "time": 98.10000000000001,
                    "velocity": 0.2283464566929134
                },
                {
                    "duration": 0.09999999999999432,
                    "durationTicks": 96,
                    "midi": 67,
                    "name": "G4",
                    "ticks": 94368,
                    "time": 98.30000000000001,
                    "velocity": 0.1732283464566929
                },
                {
                    "duration": 0.20000000000000284,
                    "durationTicks": 192,
                    "midi": 71,
                    "name": "B4",
                    "ticks": 94464,
                    "time": 98.4,
                    "velocity": 0.2125984251968504
                },
                {
                    "duration": 0.20000000000000284,
                    "durationTicks": 192,
                    "midi": 72,
                    "name": "C5",
                    "ticks": 94464,
                    "time": 98.4,
                    "velocity": 0.2677165354330709
                },
                {
                    "duration": 0.20000000000000284,
                    "durationTicks": 192,
                    "midi": 57,
                    "name": "A3",
                    "ticks": 94464,
                    "time": 98.4,
                    "velocity": 0.2204724409448819
                },
                {
                    "duration": 0.20000000000000284,
                    "durationTicks": 192,
                    "midi": 64,
                    "name": "E4",
                    "ticks": 94656,
                    "time": 98.60000000000001,
                    "velocity": 0.2283464566929134
                },
                {
                    "duration": 0.20000000000000284,
                    "durationTicks": 192,
                    "midi": 74,
                    "name": "D5",
                    "ticks": 94656,
                    "time": 98.60000000000001,
                    "velocity": 0.2755905511811024
                },
                {
                    "duration": 0.29999999999999716,
                    "durationTicks": 288,
                    "midi": 43,
                    "name": "G2",
                    "ticks": 94656,
                    "time": 98.60000000000001,
                    "velocity": 0.2047244094488189
                },
                {
                    "duration": 0.09999999999999432,
                    "durationTicks": 96,
                    "midi": 67,
                    "name": "G4",
                    "ticks": 94848,
                    "time": 98.80000000000001,
                    "velocity": 0.1732283464566929
                },
                {
                    "duration": 0.09999999999999432,
                    "durationTicks": 96,
                    "midi": 72,
                    "name": "C5",
                    "ticks": 94848,
                    "time": 98.80000000000001,
                    "velocity": 0.2677165354330709
                },
                {
                    "duration": 0.20000000000000284,
                    "durationTicks": 192,
                    "midi": 72,
                    "name": "C5",
                    "ticks": 94944,
                    "time": 98.9,
                    "velocity": 0.2047244094488189
                },
                {
                    "duration": 0.20000000000000284,
                    "durationTicks": 192,
                    "midi": 74,
                    "name": "D5",
                    "ticks": 94944,
                    "time": 98.9,
                    "velocity": 0.2755905511811024
                },
                {
                    "duration": 0.29999999999999716,
                    "durationTicks": 288,
                    "midi": 59,
                    "name": "B3",
                    "ticks": 94944,
                    "time": 98.9,
                    "velocity": 0.2283464566929134
                },
                {
                    "duration": 0.09999999999999432,
                    "durationTicks": 96,
                    "midi": 67,
                    "name": "G4",
                    "ticks": 95136,
                    "time": 99.10000000000001,
                    "velocity": 0.1732283464566929
                },
                {
                    "duration": 0.20000000000000284,
                    "durationTicks": 192,
                    "midi": 71,
                    "name": "B4",
                    "ticks": 95232,
                    "time": 99.2,
                    "velocity": 0.2125984251968504
                },
                {
                    "duration": 0.20000000000000284,
                    "durationTicks": 192,
                    "midi": 72,
                    "name": "C5",
                    "ticks": 95232,
                    "time": 99.2,
                    "velocity": 0.25196850393700787
                },
                {
                    "duration": 0.20000000000000284,
                    "durationTicks": 192,
                    "midi": 55,
                    "name": "G3",
                    "ticks": 95232,
                    "time": 99.2,
                    "velocity": 0.2677165354330709
                },
                {
                    "duration": 0.20000000000000284,
                    "durationTicks": 192,
                    "midi": 64,
                    "name": "E4",
                    "ticks": 95424,
                    "time": 99.4,
                    "velocity": 0.2283464566929134
                },
                {
                    "duration": 0.20000000000000284,
                    "durationTicks": 192,
                    "midi": 74,
                    "name": "D5",
                    "ticks": 95424,
                    "time": 99.4,
                    "velocity": 0.25984251968503935
                },
                {
                    "duration": 0.29999999999999716,
                    "durationTicks": 288,
                    "midi": 45,
                    "name": "A2",
                    "ticks": 95424,
                    "time": 99.4,
                    "velocity": 0.2440944881889764
                },
                {
                    "duration": 0.09999999999999432,
                    "durationTicks": 96,
                    "midi": 67,
                    "name": "G4",
                    "ticks": 95616,
                    "time": 99.60000000000001,
                    "velocity": 0.1732283464566929
                },
                {
                    "duration": 0.09999999999999432,
                    "durationTicks": 96,
                    "midi": 72,
                    "name": "C5",
                    "ticks": 95616,
                    "time": 99.60000000000001,
                    "velocity": 0.25196850393700787
                },
                {
                    "duration": 0.20000000000000284,
                    "durationTicks": 192,
                    "midi": 69,
                    "name": "A4",
                    "ticks": 95712,
                    "time": 99.7,
                    "velocity": 0.2047244094488189
                },
                {
                    "duration": 0.20000000000000284,
                    "durationTicks": 192,
                    "midi": 74,
                    "name": "D5",
                    "ticks": 95712,
                    "time": 99.7,
                    "velocity": 0.25984251968503935
                },
                {
                    "duration": 0.29999999999999716,
                    "durationTicks": 288,
                    "midi": 52,
                    "name": "E3",
                    "ticks": 95712,
                    "time": 99.7,
                    "velocity": 0.2283464566929134
                },
                {
                    "duration": 0.09999999999999432,
                    "durationTicks": 96,
                    "midi": 67,
                    "name": "G4",
                    "ticks": 95904,
                    "time": 99.9,
                    "velocity": 0.1732283464566929
                },
                {
                    "duration": 0.20000000000000284,
                    "durationTicks": 192,
                    "midi": 71,
                    "name": "B4",
                    "ticks": 96000,
                    "time": 100,
                    "velocity": 0.2125984251968504
                },
                {
                    "duration": 0.20000000000000284,
                    "durationTicks": 192,
                    "midi": 72,
                    "name": "C5",
                    "ticks": 96000,
                    "time": 100,
                    "velocity": 0.2677165354330709
                },
                {
                    "duration": 0.20000000000000284,
                    "durationTicks": 192,
                    "midi": 57,
                    "name": "A3",
                    "ticks": 96000,
                    "time": 100,
                    "velocity": 0.2204724409448819
                },
                {
                    "duration": 0.20000000000000284,
                    "durationTicks": 192,
                    "midi": 64,
                    "name": "E4",
                    "ticks": 96192,
                    "time": 100.2,
                    "velocity": 0.2283464566929134
                },
                {
                    "duration": 0.20000000000000284,
                    "durationTicks": 192,
                    "midi": 74,
                    "name": "D5",
                    "ticks": 96192,
                    "time": 100.2,
                    "velocity": 0.2755905511811024
                },
                {
                    "duration": 0.29999999999999716,
                    "durationTicks": 288,
                    "midi": 43,
                    "name": "G2",
                    "ticks": 96192,
                    "time": 100.2,
                    "velocity": 0.2047244094488189
                },
                {
                    "duration": 0.09999999999999432,
                    "durationTicks": 96,
                    "midi": 67,
                    "name": "G4",
                    "ticks": 96384,
                    "time": 100.4,
                    "velocity": 0.1732283464566929
                },
                {
                    "duration": 0.09999999999999432,
                    "durationTicks": 96,
                    "midi": 72,
                    "name": "C5",
                    "ticks": 96384,
                    "time": 100.4,
                    "velocity": 0.2677165354330709
                },
                {
                    "duration": 0.20000000000000284,
                    "durationTicks": 192,
                    "midi": 72,
                    "name": "C5",
                    "ticks": 96480,
                    "time": 100.5,
                    "velocity": 0.2047244094488189
                },
                {
                    "duration": 0.20000000000000284,
                    "durationTicks": 192,
                    "midi": 74,
                    "name": "D5",
                    "ticks": 96480,
                    "time": 100.5,
                    "velocity": 0.2755905511811024
                },
                {
                    "duration": 0.30000000000001137,
                    "durationTicks": 288,
                    "midi": 59,
                    "name": "B3",
                    "ticks": 96480,
                    "time": 100.5,
                    "velocity": 0.2283464566929134
                },
                {
                    "duration": 0.10000000000000853,
                    "durationTicks": 96,
                    "midi": 67,
                    "name": "G4",
                    "ticks": 96672,
                    "time": 100.7,
                    "velocity": 0.1732283464566929
                },
                {
                    "duration": 0.19999999999998863,
                    "durationTicks": 192,
                    "midi": 71,
                    "name": "B4",
                    "ticks": 96768,
                    "time": 100.80000000000001,
                    "velocity": 0.2125984251968504
                },
                {
                    "duration": 0.19999999999998863,
                    "durationTicks": 192,
                    "midi": 72,
                    "name": "C5",
                    "ticks": 96768,
                    "time": 100.80000000000001,
                    "velocity": 0.25196850393700787
                },
                {
                    "duration": 0.19999999999998863,
                    "durationTicks": 192,
                    "midi": 55,
                    "name": "G3",
                    "ticks": 96768,
                    "time": 100.80000000000001,
                    "velocity": 0.2677165354330709
                },
                {
                    "duration": 0.20000000000000284,
                    "durationTicks": 192,
                    "midi": 64,
                    "name": "E4",
                    "ticks": 96960,
                    "time": 101,
                    "velocity": 0.2283464566929134
                },
                {
                    "duration": 0.20000000000000284,
                    "durationTicks": 192,
                    "midi": 74,
                    "name": "D5",
                    "ticks": 96960,
                    "time": 101,
                    "velocity": 0.25984251968503935
                },
                {
                    "duration": 0.30000000000001137,
                    "durationTicks": 288,
                    "midi": 45,
                    "name": "A2",
                    "ticks": 96960,
                    "time": 101,
                    "velocity": 0.2440944881889764
                },
                {
                    "duration": 0.10000000000000853,
                    "durationTicks": 96,
                    "midi": 67,
                    "name": "G4",
                    "ticks": 97152,
                    "time": 101.2,
                    "velocity": 0.1732283464566929
                },
                {
                    "duration": 0.10000000000000853,
                    "durationTicks": 96,
                    "midi": 72,
                    "name": "C5",
                    "ticks": 97152,
                    "time": 101.2,
                    "velocity": 0.25196850393700787
                },
                {
                    "duration": 0.19999999999998863,
                    "durationTicks": 192,
                    "midi": 69,
                    "name": "A4",
                    "ticks": 97248,
                    "time": 101.30000000000001,
                    "velocity": 0.2047244094488189
                },
                {
                    "duration": 0.19999999999998863,
                    "durationTicks": 192,
                    "midi": 74,
                    "name": "D5",
                    "ticks": 97248,
                    "time": 101.30000000000001,
                    "velocity": 0.25984251968503935
                },
                {
                    "duration": 0.29999999999999716,
                    "durationTicks": 288,
                    "midi": 52,
                    "name": "E3",
                    "ticks": 97248,
                    "time": 101.30000000000001,
                    "velocity": 0.2283464566929134
                },
                {
                    "duration": 0.10000000000000853,
                    "durationTicks": 96,
                    "midi": 67,
                    "name": "G4",
                    "ticks": 97440,
                    "time": 101.5,
                    "velocity": 0.1732283464566929
                },
                {
                    "duration": 0.20000000000000284,
                    "durationTicks": 192,
                    "midi": 71,
                    "name": "B4",
                    "ticks": 97536,
                    "time": 101.60000000000001,
                    "velocity": 0.2125984251968504
                },
                {
                    "duration": 0.20000000000000284,
                    "durationTicks": 192,
                    "midi": 72,
                    "name": "C5",
                    "ticks": 97536,
                    "time": 101.60000000000001,
                    "velocity": 0.2677165354330709
                },
                {
                    "duration": 0.20000000000000284,
                    "durationTicks": 192,
                    "midi": 57,
                    "name": "A3",
                    "ticks": 97536,
                    "time": 101.60000000000001,
                    "velocity": 0.2204724409448819
                },
                {
                    "duration": 0.19999999999998863,
                    "durationTicks": 192,
                    "midi": 64,
                    "name": "E4",
                    "ticks": 97728,
                    "time": 101.80000000000001,
                    "velocity": 0.2283464566929134
                },
                {
                    "duration": 0.19999999999998863,
                    "durationTicks": 192,
                    "midi": 74,
                    "name": "D5",
                    "ticks": 97728,
                    "time": 101.80000000000001,
                    "velocity": 0.2755905511811024
                },
                {
                    "duration": 0.29999999999999716,
                    "durationTicks": 288,
                    "midi": 43,
                    "name": "G2",
                    "ticks": 97728,
                    "time": 101.80000000000001,
                    "velocity": 0.2047244094488189
                },
                {
                    "duration": 0.10000000000000853,
                    "durationTicks": 96,
                    "midi": 67,
                    "name": "G4",
                    "ticks": 97920,
                    "time": 102,
                    "velocity": 0.1732283464566929
                },
                {
                    "duration": 0.20000000000000284,
                    "durationTicks": 192,
                    "midi": 72,
                    "name": "C5",
                    "ticks": 98016,
                    "time": 102.10000000000001,
                    "velocity": 0.2755905511811024
                },
                {
                    "duration": 0.29999999999999716,
                    "durationTicks": 288,
                    "midi": 59,
                    "name": "B3",
                    "ticks": 98016,
                    "time": 102.10000000000001,
                    "velocity": 0.2283464566929134
                },
                {
                    "duration": 0.09999999999999432,
                    "durationTicks": 96,
                    "midi": 67,
                    "name": "G4",
                    "ticks": 98208,
                    "time": 102.30000000000001,
                    "velocity": 0.1732283464566929
                },
                {
                    "duration": 0.4000000000000057,
                    "durationTicks": 384,
                    "midi": 71,
                    "name": "B4",
                    "ticks": 98304,
                    "time": 102.4,
                    "velocity": 0.2125984251968504
                },
                {
                    "duration": 0.4000000000000057,
                    "durationTicks": 384,
                    "midi": 74,
                    "name": "D5",
                    "ticks": 98304,
                    "time": 102.4,
                    "velocity": 0.25196850393700787
                },
                {
                    "duration": 0.4000000000000057,
                    "durationTicks": 384,
                    "midi": 55,
                    "name": "G3",
                    "ticks": 98304,
                    "time": 102.4,
                    "velocity": 0.2677165354330709
                },
                {
                    "duration": 1.2999999999999972,
                    "durationTicks": 1248,
                    "midi": 72,
                    "name": "C5",
                    "ticks": 98688,
                    "time": 102.80000000000001,
                    "velocity": 0.25196850393700787
                },
                {
                    "duration": 0.29999999999999716,
                    "durationTicks": 288,
                    "midi": 69,
                    "name": "A4",
                    "ticks": 100032,
                    "time": 104.2,
                    "velocity": 0.1968503937007874
                },
                {
                    "duration": 0.29999999999999716,
                    "durationTicks": 288,
                    "midi": 81,
                    "name": "A5",
                    "ticks": 100032,
                    "time": 104.2,
                    "velocity": 0.2204724409448819
                },
                {
                    "duration": 0.29999999999999716,
                    "durationTicks": 288,
                    "midi": 41,
                    "name": "F2",
                    "ticks": 100032,
                    "time": 104.2,
                    "velocity": 0.1889763779527559
                },
                {
                    "duration": 0.29999999999999716,
                    "durationTicks": 288,
                    "midi": 53,
                    "name": "F3",
                    "ticks": 100032,
                    "time": 104.2,
                    "velocity": 0.1968503937007874
                },
                {
                    "duration": 0.30000000000001137,
                    "durationTicks": 288,
                    "midi": 57,
                    "name": "A3",
                    "ticks": 100320,
                    "time": 104.5,
                    "velocity": 0.2125984251968504
                },
                {
                    "duration": 0.30000000000001137,
                    "durationTicks": 288,
                    "midi": 60,
                    "name": "C4",
                    "ticks": 100320,
                    "time": 104.5,
                    "velocity": 0.25196850393700787
                },
                {
                    "duration": 0.30000000000001137,
                    "durationTicks": 288,
                    "midi": 64,
                    "name": "E4",
                    "ticks": 100320,
                    "time": 104.5,
                    "velocity": 0.2677165354330709
                },
                {
                    "duration": 0.30000000000001137,
                    "durationTicks": 288,
                    "midi": 41,
                    "name": "F2",
                    "ticks": 100320,
                    "time": 104.5,
                    "velocity": 0.23622047244094488
                },
                {
                    "duration": 0.30000000000001137,
                    "durationTicks": 288,
                    "midi": 53,
                    "name": "F3",
                    "ticks": 100320,
                    "time": 104.5,
                    "velocity": 0.23622047244094488
                },
                {
                    "duration": 0.19999999999998863,
                    "durationTicks": 192,
                    "midi": 57,
                    "name": "A3",
                    "ticks": 100608,
                    "time": 104.80000000000001,
                    "velocity": 0.2283464566929134
                },
                {
                    "duration": 0.19999999999998863,
                    "durationTicks": 192,
                    "midi": 60,
                    "name": "C4",
                    "ticks": 100608,
                    "time": 104.80000000000001,
                    "velocity": 0.2283464566929134
                },
                {
                    "duration": 0.19999999999998863,
                    "durationTicks": 192,
                    "midi": 64,
                    "name": "E4",
                    "ticks": 100608,
                    "time": 104.80000000000001,
                    "velocity": 0.2283464566929134
                },
                {
                    "duration": 0.19999999999998863,
                    "durationTicks": 192,
                    "midi": 41,
                    "name": "F2",
                    "ticks": 100608,
                    "time": 104.80000000000001,
                    "velocity": 0.23622047244094488
                },
                {
                    "duration": 0.19999999999998863,
                    "durationTicks": 192,
                    "midi": 53,
                    "name": "F3",
                    "ticks": 100608,
                    "time": 104.80000000000001,
                    "velocity": 0.2283464566929134
                },
                {
                    "duration": 0.30000000000001137,
                    "durationTicks": 288,
                    "midi": 57,
                    "name": "A3",
                    "ticks": 100800,
                    "time": 105,
                    "velocity": 0.25196850393700787
                },
                {
                    "duration": 0.30000000000001137,
                    "durationTicks": 288,
                    "midi": 60,
                    "name": "C4",
                    "ticks": 100800,
                    "time": 105,
                    "velocity": 0.2677165354330709
                },
                {
                    "duration": 0.30000000000001137,
                    "durationTicks": 288,
                    "midi": 64,
                    "name": "E4",
                    "ticks": 100800,
                    "time": 105,
                    "velocity": 0.25984251968503935
                },
                {
                    "duration": 0.30000000000001137,
                    "durationTicks": 288,
                    "midi": 41,
                    "name": "F2",
                    "ticks": 100800,
                    "time": 105,
                    "velocity": 0.2440944881889764
                },
                {
                    "duration": 0.30000000000001137,
                    "durationTicks": 288,
                    "midi": 53,
                    "name": "F3",
                    "ticks": 100800,
                    "time": 105,
                    "velocity": 0.23622047244094488
                },
                {
                    "duration": 0.29999999999999716,
                    "durationTicks": 288,
                    "midi": 57,
                    "name": "A3",
                    "ticks": 101088,
                    "time": 105.30000000000001,
                    "velocity": 0.23622047244094488
                },
                {
                    "duration": 0.29999999999999716,
                    "durationTicks": 288,
                    "midi": 60,
                    "name": "C4",
                    "ticks": 101088,
                    "time": 105.30000000000001,
                    "velocity": 0.28346456692913385
                },
                {
                    "duration": 0.29999999999999716,
                    "durationTicks": 288,
                    "midi": 64,
                    "name": "E4",
                    "ticks": 101088,
                    "time": 105.30000000000001,
                    "velocity": 0.28346456692913385
                },
                {
                    "duration": 0.29999999999999716,
                    "durationTicks": 288,
                    "midi": 41,
                    "name": "F2",
                    "ticks": 101088,
                    "time": 105.30000000000001,
                    "velocity": 0.25196850393700787
                },
                {
                    "duration": 0.29999999999999716,
                    "durationTicks": 288,
                    "midi": 53,
                    "name": "F3",
                    "ticks": 101088,
                    "time": 105.30000000000001,
                    "velocity": 0.2283464566929134
                },
                {
                    "duration": 0.20000000000000284,
                    "durationTicks": 192,
                    "midi": 57,
                    "name": "A3",
                    "ticks": 101376,
                    "time": 105.60000000000001,
                    "velocity": 0.25984251968503935
                },
                {
                    "duration": 0.20000000000000284,
                    "durationTicks": 192,
                    "midi": 60,
                    "name": "C4",
                    "ticks": 101376,
                    "time": 105.60000000000001,
                    "velocity": 0.2677165354330709
                },
                {
                    "duration": 0.20000000000000284,
                    "durationTicks": 192,
                    "midi": 64,
                    "name": "E4",
                    "ticks": 101376,
                    "time": 105.60000000000001,
                    "velocity": 0.2677165354330709
                },
                {
                    "duration": 0.20000000000000284,
                    "durationTicks": 192,
                    "midi": 41,
                    "name": "F2",
                    "ticks": 101376,
                    "time": 105.60000000000001,
                    "velocity": 0.2283464566929134
                },
                {
                    "duration": 0.20000000000000284,
                    "durationTicks": 192,
                    "midi": 53,
                    "name": "F3",
                    "ticks": 101376,
                    "time": 105.60000000000001,
                    "velocity": 0.2283464566929134
                },
                {
                    "duration": 0.29999999999999716,
                    "durationTicks": 288,
                    "midi": 72,
                    "name": "C5",
                    "ticks": 101568,
                    "time": 105.80000000000001,
                    "velocity": 0.2755905511811024
                },
                {
                    "duration": 0.29999999999999716,
                    "durationTicks": 288,
                    "midi": 84,
                    "name": "C6",
                    "ticks": 101568,
                    "time": 105.80000000000001,
                    "velocity": 0.2755905511811024
                },
                {
                    "duration": 0.29999999999999716,
                    "durationTicks": 288,
                    "midi": 43,
                    "name": "G2",
                    "ticks": 101568,
                    "time": 105.80000000000001,
                    "velocity": 0.1968503937007874
                },
                {
                    "duration": 0.29999999999999716,
                    "durationTicks": 288,
                    "midi": 55,
                    "name": "G3",
                    "ticks": 101568,
                    "time": 105.80000000000001,
                    "velocity": 0.25196850393700787
                },
                {
                    "duration": 0.29999999999999716,
                    "durationTicks": 288,
                    "midi": 57,
                    "name": "A3",
                    "ticks": 101856,
                    "time": 106.10000000000001,
                    "velocity": 0.2440944881889764
                },
                {
                    "duration": 0.29999999999999716,
                    "durationTicks": 288,
                    "midi": 60,
                    "name": "C4",
                    "ticks": 101856,
                    "time": 106.10000000000001,
                    "velocity": 0.2677165354330709
                },
                {
                    "duration": 0.29999999999999716,
                    "durationTicks": 288,
                    "midi": 64,
                    "name": "E4",
                    "ticks": 101856,
                    "time": 106.10000000000001,
                    "velocity": 0.2755905511811024
                },
                {
                    "duration": 0.29999999999999716,
                    "durationTicks": 288,
                    "midi": 43,
                    "name": "G2",
                    "ticks": 101856,
                    "time": 106.10000000000001,
                    "velocity": 0.2283464566929134
                },
                {
                    "duration": 0.29999999999999716,
                    "durationTicks": 288,
                    "midi": 55,
                    "name": "G3",
                    "ticks": 101856,
                    "time": 106.10000000000001,
                    "velocity": 0.2440944881889764
                },
                {
                    "duration": 0.20000000000000284,
                    "durationTicks": 192,
                    "midi": 57,
                    "name": "A3",
                    "ticks": 102144,
                    "time": 106.4,
                    "velocity": 0.25984251968503935
                },
                {
                    "duration": 0.20000000000000284,
                    "durationTicks": 192,
                    "midi": 60,
                    "name": "C4",
                    "ticks": 102144,
                    "time": 106.4,
                    "velocity": 0.2677165354330709
                },
                {
                    "duration": 0.20000000000000284,
                    "durationTicks": 192,
                    "midi": 64,
                    "name": "E4",
                    "ticks": 102144,
                    "time": 106.4,
                    "velocity": 0.2677165354330709
                },
                {
                    "duration": 0.20000000000000284,
                    "durationTicks": 192,
                    "midi": 43,
                    "name": "G2",
                    "ticks": 102144,
                    "time": 106.4,
                    "velocity": 0.25984251968503935
                },
                {
                    "duration": 0.20000000000000284,
                    "durationTicks": 192,
                    "midi": 55,
                    "name": "G3",
                    "ticks": 102144,
                    "time": 106.4,
                    "velocity": 0.2204724409448819
                },
                {
                    "duration": 0.29999999999999716,
                    "durationTicks": 288,
                    "midi": 71,
                    "name": "B4",
                    "ticks": 102336,
                    "time": 106.60000000000001,
                    "velocity": 0.28346456692913385
                },
                {
                    "duration": 0.29999999999999716,
                    "durationTicks": 288,
                    "midi": 83,
                    "name": "B5",
                    "ticks": 102336,
                    "time": 106.60000000000001,
                    "velocity": 0.2677165354330709
                },
                {
                    "duration": 0.29999999999999716,
                    "durationTicks": 288,
                    "midi": 43,
                    "name": "G2",
                    "ticks": 102336,
                    "time": 106.60000000000001,
                    "velocity": 0.2440944881889764
                },
                {
                    "duration": 0.29999999999999716,
                    "durationTicks": 288,
                    "midi": 55,
                    "name": "G3",
                    "ticks": 102336,
                    "time": 106.60000000000001,
                    "velocity": 0.2677165354330709
                },
                {
                    "duration": 0.29999999999999716,
                    "durationTicks": 288,
                    "midi": 57,
                    "name": "A3",
                    "ticks": 102624,
                    "time": 106.9,
                    "velocity": 0.23622047244094488
                },
                {
                    "duration": 0.29999999999999716,
                    "durationTicks": 288,
                    "midi": 60,
                    "name": "C4",
                    "ticks": 102624,
                    "time": 106.9,
                    "velocity": 0.2440944881889764
                },
                {
                    "duration": 0.29999999999999716,
                    "durationTicks": 288,
                    "midi": 64,
                    "name": "E4",
                    "ticks": 102624,
                    "time": 106.9,
                    "velocity": 0.2283464566929134
                },
                {
                    "duration": 0.29999999999999716,
                    "durationTicks": 288,
                    "midi": 43,
                    "name": "G2",
                    "ticks": 102624,
                    "time": 106.9,
                    "velocity": 0.23622047244094488
                },
                {
                    "duration": 0.29999999999999716,
                    "durationTicks": 288,
                    "midi": 55,
                    "name": "G3",
                    "ticks": 102624,
                    "time": 106.9,
                    "velocity": 0.25196850393700787
                },
                {
                    "duration": 0.20000000000000284,
                    "durationTicks": 192,
                    "midi": 57,
                    "name": "A3",
                    "ticks": 102912,
                    "time": 107.2,
                    "velocity": 0.2440944881889764
                },
                {
                    "duration": 0.20000000000000284,
                    "durationTicks": 192,
                    "midi": 60,
                    "name": "C4",
                    "ticks": 102912,
                    "time": 107.2,
                    "velocity": 0.25196850393700787
                },
                {
                    "duration": 0.20000000000000284,
                    "durationTicks": 192,
                    "midi": 64,
                    "name": "E4",
                    "ticks": 102912,
                    "time": 107.2,
                    "velocity": 0.2677165354330709
                },
                {
                    "duration": 0.20000000000000284,
                    "durationTicks": 192,
                    "midi": 43,
                    "name": "G2",
                    "ticks": 102912,
                    "time": 107.2,
                    "velocity": 0.2283464566929134
                },
                {
                    "duration": 0.20000000000000284,
                    "durationTicks": 192,
                    "midi": 55,
                    "name": "G3",
                    "ticks": 102912,
                    "time": 107.2,
                    "velocity": 0.2125984251968504
                },
                {
                    "duration": 0.29999999999999716,
                    "durationTicks": 288,
                    "midi": 64,
                    "name": "E4",
                    "ticks": 103104,
                    "time": 107.4,
                    "velocity": 0.28346456692913385
                },
                {
                    "duration": 0.29999999999999716,
                    "durationTicks": 288,
                    "midi": 76,
                    "name": "E5",
                    "ticks": 103104,
                    "time": 107.4,
                    "velocity": 0.2755905511811024
                },
                {
                    "duration": 0.29999999999999716,
                    "durationTicks": 288,
                    "midi": 45,
                    "name": "A2",
                    "ticks": 103104,
                    "time": 107.4,
                    "velocity": 0.2755905511811024
                },
                {
                    "duration": 0.29999999999999716,
                    "durationTicks": 288,
                    "midi": 57,
                    "name": "A3",
                    "ticks": 103104,
                    "time": 107.4,
                    "velocity": 0.25984251968503935
                },
                {
                    "duration": 0.29999999999999716,
                    "durationTicks": 288,
                    "midi": 60,
                    "name": "C4",
                    "ticks": 103392,
                    "time": 107.7,
                    "velocity": 0.25984251968503935
                },
                {
                    "duration": 0.29999999999999716,
                    "durationTicks": 288,
                    "midi": 64,
                    "name": "E4",
                    "ticks": 103392,
                    "time": 107.7,
                    "velocity": 0.2677165354330709
                },
                {
                    "duration": 0.29999999999999716,
                    "durationTicks": 288,
                    "midi": 45,
                    "name": "A2",
                    "ticks": 103392,
                    "time": 107.7,
                    "velocity": 0.28346456692913385
                },
                {
                    "duration": 0.29999999999999716,
                    "durationTicks": 288,
                    "midi": 57,
                    "name": "A3",
                    "ticks": 103392,
                    "time": 107.7,
                    "velocity": 0.23622047244094488
                },
                {
                    "duration": 0.20000000000000284,
                    "durationTicks": 192,
                    "midi": 60,
                    "name": "C4",
                    "ticks": 103680,
                    "time": 108,
                    "velocity": 0.2440944881889764
                },
                {
                    "duration": 0.20000000000000284,
                    "durationTicks": 192,
                    "midi": 64,
                    "name": "E4",
                    "ticks": 103680,
                    "time": 108,
                    "velocity": 0.2125984251968504
                },
                {
                    "duration": 0.20000000000000284,
                    "durationTicks": 192,
                    "midi": 45,
                    "name": "A2",
                    "ticks": 103680,
                    "time": 108,
                    "velocity": 0.2677165354330709
                },
                {
                    "duration": 0.20000000000000284,
                    "durationTicks": 192,
                    "midi": 57,
                    "name": "A3",
                    "ticks": 103680,
                    "time": 108,
                    "velocity": 0.23622047244094488
                },
                {
                    "duration": 0.29999999999999716,
                    "durationTicks": 288,
                    "midi": 60,
                    "name": "C4",
                    "ticks": 103872,
                    "time": 108.2,
                    "velocity": 0.23622047244094488
                },
                {
                    "duration": 0.29999999999999716,
                    "durationTicks": 288,
                    "midi": 64,
                    "name": "E4",
                    "ticks": 103872,
                    "time": 108.2,
                    "velocity": 0.1968503937007874
                },
                {
                    "duration": 0.29999999999999716,
                    "durationTicks": 288,
                    "midi": 45,
                    "name": "A2",
                    "ticks": 103872,
                    "time": 108.2,
                    "velocity": 0.2677165354330709
                },
                {
                    "duration": 0.29999999999999716,
                    "durationTicks": 288,
                    "midi": 57,
                    "name": "A3",
                    "ticks": 103872,
                    "time": 108.2,
                    "velocity": 0.23622047244094488
                },
                {
                    "duration": 0.30000000000001137,
                    "durationTicks": 288,
                    "midi": 60,
                    "name": "C4",
                    "ticks": 104160,
                    "time": 108.5,
                    "velocity": 0.23622047244094488
                },
                {
                    "duration": 0.30000000000001137,
                    "durationTicks": 288,
                    "midi": 64,
                    "name": "E4",
                    "ticks": 104160,
                    "time": 108.5,
                    "velocity": 0.1968503937007874
                },
                {
                    "duration": 0.30000000000001137,
                    "durationTicks": 288,
                    "midi": 45,
                    "name": "A2",
                    "ticks": 104160,
                    "time": 108.5,
                    "velocity": 0.23622047244094488
                },
                {
                    "duration": 0.30000000000001137,
                    "durationTicks": 288,
                    "midi": 57,
                    "name": "A3",
                    "ticks": 104160,
                    "time": 108.5,
                    "velocity": 0.2283464566929134
                },
                {
                    "duration": 0.19999999999998863,
                    "durationTicks": 192,
                    "midi": 60,
                    "name": "C4",
                    "ticks": 104448,
                    "time": 108.80000000000001,
                    "velocity": 0.2283464566929134
                },
                {
                    "duration": 0.19999999999998863,
                    "durationTicks": 192,
                    "midi": 64,
                    "name": "E4",
                    "ticks": 104448,
                    "time": 108.80000000000001,
                    "velocity": 0.2283464566929134
                },
                {
                    "duration": 0.19999999999998863,
                    "durationTicks": 192,
                    "midi": 45,
                    "name": "A2",
                    "ticks": 104448,
                    "time": 108.80000000000001,
                    "velocity": 0.2677165354330709
                },
                {
                    "duration": 0.19999999999998863,
                    "durationTicks": 192,
                    "midi": 57,
                    "name": "A3",
                    "ticks": 104448,
                    "time": 108.80000000000001,
                    "velocity": 0.2283464566929134
                },
                {
                    "duration": 0.30000000000001137,
                    "durationTicks": 288,
                    "midi": 74,
                    "name": "D5",
                    "ticks": 104640,
                    "time": 109,
                    "velocity": 0.25196850393700787
                },
                {
                    "duration": 0.30000000000001137,
                    "durationTicks": 288,
                    "midi": 86,
                    "name": "D6",
                    "ticks": 104640,
                    "time": 109,
                    "velocity": 0.25984251968503935
                },
                {
                    "duration": 0.30000000000001137,
                    "durationTicks": 288,
                    "midi": 40,
                    "name": "E2",
                    "ticks": 104640,
                    "time": 109,
                    "velocity": 0.23622047244094488
                },
                {
                    "duration": 0.30000000000001137,
                    "durationTicks": 288,
                    "midi": 52,
                    "name": "E3",
                    "ticks": 104640,
                    "time": 109,
                    "velocity": 0.1889763779527559
                },
                {
                    "duration": 0.29999999999999716,
                    "durationTicks": 288,
                    "midi": 55,
                    "name": "G3",
                    "ticks": 104928,
                    "time": 109.30000000000001,
                    "velocity": 0.2283464566929134
                },
                {
                    "duration": 0.29999999999999716,
                    "durationTicks": 288,
                    "midi": 59,
                    "name": "B3",
                    "ticks": 104928,
                    "time": 109.30000000000001,
                    "velocity": 0.23622047244094488
                },
                {
                    "duration": 0.29999999999999716,
                    "durationTicks": 288,
                    "midi": 64,
                    "name": "E4",
                    "ticks": 104928,
                    "time": 109.30000000000001,
                    "velocity": 0.2283464566929134
                },
                {
                    "duration": 0.29999999999999716,
                    "durationTicks": 288,
                    "midi": 40,
                    "name": "E2",
                    "ticks": 104928,
                    "time": 109.30000000000001,
                    "velocity": 0.2047244094488189
                },
                {
                    "duration": 0.29999999999999716,
                    "durationTicks": 288,
                    "midi": 52,
                    "name": "E3",
                    "ticks": 104928,
                    "time": 109.30000000000001,
                    "velocity": 0.2283464566929134
                },
                {
                    "duration": 0.20000000000000284,
                    "durationTicks": 192,
                    "midi": 55,
                    "name": "G3",
                    "ticks": 105216,
                    "time": 109.60000000000001,
                    "velocity": 0.2283464566929134
                },
                {
                    "duration": 0.20000000000000284,
                    "durationTicks": 192,
                    "midi": 59,
                    "name": "B3",
                    "ticks": 105216,
                    "time": 109.60000000000001,
                    "velocity": 0.25984251968503935
                },
                {
                    "duration": 0.20000000000000284,
                    "durationTicks": 192,
                    "midi": 64,
                    "name": "E4",
                    "ticks": 105216,
                    "time": 109.60000000000001,
                    "velocity": 0.25196850393700787
                },
                {
                    "duration": 0.20000000000000284,
                    "durationTicks": 192,
                    "midi": 40,
                    "name": "E2",
                    "ticks": 105216,
                    "time": 109.60000000000001,
                    "velocity": 0.25196850393700787
                },
                {
                    "duration": 0.20000000000000284,
                    "durationTicks": 192,
                    "midi": 52,
                    "name": "E3",
                    "ticks": 105216,
                    "time": 109.60000000000001,
                    "velocity": 0.2440944881889764
                },
                {
                    "duration": 0.29999999999999716,
                    "durationTicks": 288,
                    "midi": 55,
                    "name": "G3",
                    "ticks": 105408,
                    "time": 109.80000000000001,
                    "velocity": 0.2440944881889764
                },
                {
                    "duration": 0.29999999999999716,
                    "durationTicks": 288,
                    "midi": 59,
                    "name": "B3",
                    "ticks": 105408,
                    "time": 109.80000000000001,
                    "velocity": 0.2755905511811024
                },
                {
                    "duration": 0.29999999999999716,
                    "durationTicks": 288,
                    "midi": 64,
                    "name": "E4",
                    "ticks": 105408,
                    "time": 109.80000000000001,
                    "velocity": 0.2677165354330709
                },
                {
                    "duration": 0.29999999999999716,
                    "durationTicks": 288,
                    "midi": 40,
                    "name": "E2",
                    "ticks": 105408,
                    "time": 109.80000000000001,
                    "velocity": 0.2677165354330709
                },
                {
                    "duration": 0.29999999999999716,
                    "durationTicks": 288,
                    "midi": 52,
                    "name": "E3",
                    "ticks": 105408,
                    "time": 109.80000000000001,
                    "velocity": 0.25984251968503935
                },
                {
                    "duration": 0.29999999999999716,
                    "durationTicks": 288,
                    "midi": 55,
                    "name": "G3",
                    "ticks": 105696,
                    "time": 110.10000000000001,
                    "velocity": 0.2283464566929134
                },
                {
                    "duration": 0.29999999999999716,
                    "durationTicks": 288,
                    "midi": 59,
                    "name": "B3",
                    "ticks": 105696,
                    "time": 110.10000000000001,
                    "velocity": 0.25196850393700787
                },
                {
                    "duration": 0.29999999999999716,
                    "durationTicks": 288,
                    "midi": 64,
                    "name": "E4",
                    "ticks": 105696,
                    "time": 110.10000000000001,
                    "velocity": 0.25984251968503935
                },
                {
                    "duration": 0.29999999999999716,
                    "durationTicks": 288,
                    "midi": 40,
                    "name": "E2",
                    "ticks": 105696,
                    "time": 110.10000000000001,
                    "velocity": 0.2677165354330709
                },
                {
                    "duration": 0.29999999999999716,
                    "durationTicks": 288,
                    "midi": 52,
                    "name": "E3",
                    "ticks": 105696,
                    "time": 110.10000000000001,
                    "velocity": 0.25984251968503935
                },
                {
                    "duration": 0.20000000000000284,
                    "durationTicks": 192,
                    "midi": 55,
                    "name": "G3",
                    "ticks": 105984,
                    "time": 110.4,
                    "velocity": 0.25196850393700787
                },
                {
                    "duration": 0.20000000000000284,
                    "durationTicks": 192,
                    "midi": 59,
                    "name": "B3",
                    "ticks": 105984,
                    "time": 110.4,
                    "velocity": 0.2677165354330709
                },
                {
                    "duration": 0.20000000000000284,
                    "durationTicks": 192,
                    "midi": 64,
                    "name": "E4",
                    "ticks": 105984,
                    "time": 110.4,
                    "velocity": 0.2677165354330709
                },
                {
                    "duration": 0.20000000000000284,
                    "durationTicks": 192,
                    "midi": 40,
                    "name": "E2",
                    "ticks": 105984,
                    "time": 110.4,
                    "velocity": 0.2677165354330709
                },
                {
                    "duration": 0.20000000000000284,
                    "durationTicks": 192,
                    "midi": 52,
                    "name": "E3",
                    "ticks": 105984,
                    "time": 110.4,
                    "velocity": 0.25984251968503935
                },
                {
                    "duration": 0.29999999999999716,
                    "durationTicks": 288,
                    "midi": 69,
                    "name": "A4",
                    "ticks": 106176,
                    "time": 110.60000000000001,
                    "velocity": 0.25984251968503935
                },
                {
                    "duration": 0.29999999999999716,
                    "durationTicks": 288,
                    "midi": 81,
                    "name": "A5",
                    "ticks": 106176,
                    "time": 110.60000000000001,
                    "velocity": 0.2677165354330709
                },
                {
                    "duration": 0.29999999999999716,
                    "durationTicks": 288,
                    "midi": 41,
                    "name": "F2",
                    "ticks": 106176,
                    "time": 110.60000000000001,
                    "velocity": 0.2677165354330709
                },
                {
                    "duration": 0.29999999999999716,
                    "durationTicks": 288,
                    "midi": 53,
                    "name": "F3",
                    "ticks": 106176,
                    "time": 110.60000000000001,
                    "velocity": 0.2677165354330709
                },
                {
                    "duration": 0.29999999999999716,
                    "durationTicks": 288,
                    "midi": 57,
                    "name": "A3",
                    "ticks": 106464,
                    "time": 110.9,
                    "velocity": 0.2125984251968504
                },
                {
                    "duration": 0.29999999999999716,
                    "durationTicks": 288,
                    "midi": 60,
                    "name": "C4",
                    "ticks": 106464,
                    "time": 110.9,
                    "velocity": 0.25196850393700787
                },
                {
                    "duration": 0.29999999999999716,
                    "durationTicks": 288,
                    "midi": 64,
                    "name": "E4",
                    "ticks": 106464,
                    "time": 110.9,
                    "velocity": 0.2677165354330709
                },
                {
                    "duration": 0.29999999999999716,
                    "durationTicks": 288,
                    "midi": 41,
                    "name": "F2",
                    "ticks": 106464,
                    "time": 110.9,
                    "velocity": 0.23622047244094488
                },
                {
                    "duration": 0.29999999999999716,
                    "durationTicks": 288,
                    "midi": 53,
                    "name": "F3",
                    "ticks": 106464,
                    "time": 110.9,
                    "velocity": 0.23622047244094488
                },
                {
                    "duration": 0.20000000000000284,
                    "durationTicks": 192,
                    "midi": 57,
                    "name": "A3",
                    "ticks": 106752,
                    "time": 111.2,
                    "velocity": 0.2283464566929134
                },
                {
                    "duration": 0.20000000000000284,
                    "durationTicks": 192,
                    "midi": 60,
                    "name": "C4",
                    "ticks": 106752,
                    "time": 111.2,
                    "velocity": 0.2283464566929134
                },
                {
                    "duration": 0.20000000000000284,
                    "durationTicks": 192,
                    "midi": 64,
                    "name": "E4",
                    "ticks": 106752,
                    "time": 111.2,
                    "velocity": 0.2283464566929134
                },
                {
                    "duration": 0.20000000000000284,
                    "durationTicks": 192,
                    "midi": 41,
                    "name": "F2",
                    "ticks": 106752,
                    "time": 111.2,
                    "velocity": 0.23622047244094488
                },
                {
                    "duration": 0.20000000000000284,
                    "durationTicks": 192,
                    "midi": 53,
                    "name": "F3",
                    "ticks": 106752,
                    "time": 111.2,
                    "velocity": 0.2283464566929134
                },
                {
                    "duration": 0.29999999999999716,
                    "durationTicks": 288,
                    "midi": 57,
                    "name": "A3",
                    "ticks": 106944,
                    "time": 111.4,
                    "velocity": 0.25196850393700787
                },
                {
                    "duration": 0.29999999999999716,
                    "durationTicks": 288,
                    "midi": 60,
                    "name": "C4",
                    "ticks": 106944,
                    "time": 111.4,
                    "velocity": 0.2677165354330709
                },
                {
                    "duration": 0.29999999999999716,
                    "durationTicks": 288,
                    "midi": 64,
                    "name": "E4",
                    "ticks": 106944,
                    "time": 111.4,
                    "velocity": 0.25984251968503935
                },
                {
                    "duration": 0.29999999999999716,
                    "durationTicks": 288,
                    "midi": 41,
                    "name": "F2",
                    "ticks": 106944,
                    "time": 111.4,
                    "velocity": 0.2440944881889764
                },
                {
                    "duration": 0.29999999999999716,
                    "durationTicks": 288,
                    "midi": 53,
                    "name": "F3",
                    "ticks": 106944,
                    "time": 111.4,
                    "velocity": 0.23622047244094488
                },
                {
                    "duration": 0.29999999999999716,
                    "durationTicks": 288,
                    "midi": 57,
                    "name": "A3",
                    "ticks": 107232,
                    "time": 111.7,
                    "velocity": 0.23622047244094488
                },
                {
                    "duration": 0.29999999999999716,
                    "durationTicks": 288,
                    "midi": 60,
                    "name": "C4",
                    "ticks": 107232,
                    "time": 111.7,
                    "velocity": 0.28346456692913385
                },
                {
                    "duration": 0.29999999999999716,
                    "durationTicks": 288,
                    "midi": 64,
                    "name": "E4",
                    "ticks": 107232,
                    "time": 111.7,
                    "velocity": 0.28346456692913385
                },
                {
                    "duration": 0.29999999999999716,
                    "durationTicks": 288,
                    "midi": 41,
                    "name": "F2",
                    "ticks": 107232,
                    "time": 111.7,
                    "velocity": 0.25196850393700787
                },
                {
                    "duration": 0.29999999999999716,
                    "durationTicks": 288,
                    "midi": 53,
                    "name": "F3",
                    "ticks": 107232,
                    "time": 111.7,
                    "velocity": 0.2283464566929134
                },
                {
                    "duration": 0.20000000000000284,
                    "durationTicks": 192,
                    "midi": 57,
                    "name": "A3",
                    "ticks": 107520,
                    "time": 112,
                    "velocity": 0.25984251968503935
                },
                {
                    "duration": 0.20000000000000284,
                    "durationTicks": 192,
                    "midi": 60,
                    "name": "C4",
                    "ticks": 107520,
                    "time": 112,
                    "velocity": 0.2677165354330709
                },
                {
                    "duration": 0.20000000000000284,
                    "durationTicks": 192,
                    "midi": 64,
                    "name": "E4",
                    "ticks": 107520,
                    "time": 112,
                    "velocity": 0.2677165354330709
                },
                {
                    "duration": 0.20000000000000284,
                    "durationTicks": 192,
                    "midi": 41,
                    "name": "F2",
                    "ticks": 107520,
                    "time": 112,
                    "velocity": 0.2283464566929134
                },
                {
                    "duration": 0.20000000000000284,
                    "durationTicks": 192,
                    "midi": 53,
                    "name": "F3",
                    "ticks": 107520,
                    "time": 112,
                    "velocity": 0.2283464566929134
                },
                {
                    "duration": 0.29999999999999716,
                    "durationTicks": 288,
                    "midi": 72,
                    "name": "C5",
                    "ticks": 107712,
                    "time": 112.2,
                    "velocity": 0.2677165354330709
                },
                {
                    "duration": 0.29999999999999716,
                    "durationTicks": 288,
                    "midi": 84,
                    "name": "C6",
                    "ticks": 107712,
                    "time": 112.2,
                    "velocity": 0.2677165354330709
                },
                {
                    "duration": 0.29999999999999716,
                    "durationTicks": 288,
                    "midi": 43,
                    "name": "G2",
                    "ticks": 107712,
                    "time": 112.2,
                    "velocity": 0.1968503937007874
                },
                {
                    "duration": 0.29999999999999716,
                    "durationTicks": 288,
                    "midi": 55,
                    "name": "G3",
                    "ticks": 107712,
                    "time": 112.2,
                    "velocity": 0.25196850393700787
                },
                {
                    "duration": 0.30000000000001137,
                    "durationTicks": 288,
                    "midi": 57,
                    "name": "A3",
                    "ticks": 108000,
                    "time": 112.5,
                    "velocity": 0.2440944881889764
                },
                {
                    "duration": 0.30000000000001137,
                    "durationTicks": 288,
                    "midi": 60,
                    "name": "C4",
                    "ticks": 108000,
                    "time": 112.5,
                    "velocity": 0.2677165354330709
                },
                {
                    "duration": 0.30000000000001137,
                    "durationTicks": 288,
                    "midi": 64,
                    "name": "E4",
                    "ticks": 108000,
                    "time": 112.5,
                    "velocity": 0.2755905511811024
                },
                {
                    "duration": 0.30000000000001137,
                    "durationTicks": 288,
                    "midi": 43,
                    "name": "G2",
                    "ticks": 108000,
                    "time": 112.5,
                    "velocity": 0.2283464566929134
                },
                {
                    "duration": 0.30000000000001137,
                    "durationTicks": 288,
                    "midi": 55,
                    "name": "G3",
                    "ticks": 108000,
                    "time": 112.5,
                    "velocity": 0.2440944881889764
                },
                {
                    "duration": 0.19999999999998863,
                    "durationTicks": 192,
                    "midi": 57,
                    "name": "A3",
                    "ticks": 108288,
                    "time": 112.80000000000001,
                    "velocity": 0.25984251968503935
                },
                {
                    "duration": 0.19999999999998863,
                    "durationTicks": 192,
                    "midi": 60,
                    "name": "C4",
                    "ticks": 108288,
                    "time": 112.80000000000001,
                    "velocity": 0.2677165354330709
                },
                {
                    "duration": 0.19999999999998863,
                    "durationTicks": 192,
                    "midi": 64,
                    "name": "E4",
                    "ticks": 108288,
                    "time": 112.80000000000001,
                    "velocity": 0.2677165354330709
                },
                {
                    "duration": 0.19999999999998863,
                    "durationTicks": 192,
                    "midi": 43,
                    "name": "G2",
                    "ticks": 108288,
                    "time": 112.80000000000001,
                    "velocity": 0.25984251968503935
                },
                {
                    "duration": 0.19999999999998863,
                    "durationTicks": 192,
                    "midi": 55,
                    "name": "G3",
                    "ticks": 108288,
                    "time": 112.80000000000001,
                    "velocity": 0.2204724409448819
                },
                {
                    "duration": 0.30000000000001137,
                    "durationTicks": 288,
                    "midi": 71,
                    "name": "B4",
                    "ticks": 108480,
                    "time": 113,
                    "velocity": 0.2755905511811024
                },
                {
                    "duration": 0.30000000000001137,
                    "durationTicks": 288,
                    "midi": 83,
                    "name": "B5",
                    "ticks": 108480,
                    "time": 113,
                    "velocity": 0.2677165354330709
                },
                {
                    "duration": 0.30000000000001137,
                    "durationTicks": 288,
                    "midi": 43,
                    "name": "G2",
                    "ticks": 108480,
                    "time": 113,
                    "velocity": 0.2440944881889764
                },
                {
                    "duration": 0.30000000000001137,
                    "durationTicks": 288,
                    "midi": 55,
                    "name": "G3",
                    "ticks": 108480,
                    "time": 113,
                    "velocity": 0.2677165354330709
                },
                {
                    "duration": 0.29999999999999716,
                    "durationTicks": 288,
                    "midi": 57,
                    "name": "A3",
                    "ticks": 108768,
                    "time": 113.30000000000001,
                    "velocity": 0.23622047244094488
                },
                {
                    "duration": 0.29999999999999716,
                    "durationTicks": 288,
                    "midi": 60,
                    "name": "C4",
                    "ticks": 108768,
                    "time": 113.30000000000001,
                    "velocity": 0.2440944881889764
                },
                {
                    "duration": 0.29999999999999716,
                    "durationTicks": 288,
                    "midi": 64,
                    "name": "E4",
                    "ticks": 108768,
                    "time": 113.30000000000001,
                    "velocity": 0.2283464566929134
                },
                {
                    "duration": 0.29999999999999716,
                    "durationTicks": 288,
                    "midi": 43,
                    "name": "G2",
                    "ticks": 108768,
                    "time": 113.30000000000001,
                    "velocity": 0.23622047244094488
                },
                {
                    "duration": 0.29999999999999716,
                    "durationTicks": 288,
                    "midi": 55,
                    "name": "G3",
                    "ticks": 108768,
                    "time": 113.30000000000001,
                    "velocity": 0.25196850393700787
                },
                {
                    "duration": 0.20000000000000284,
                    "durationTicks": 192,
                    "midi": 57,
                    "name": "A3",
                    "ticks": 109056,
                    "time": 113.60000000000001,
                    "velocity": 0.2440944881889764
                },
                {
                    "duration": 0.20000000000000284,
                    "durationTicks": 192,
                    "midi": 60,
                    "name": "C4",
                    "ticks": 109056,
                    "time": 113.60000000000001,
                    "velocity": 0.25196850393700787
                },
                {
                    "duration": 0.20000000000000284,
                    "durationTicks": 192,
                    "midi": 64,
                    "name": "E4",
                    "ticks": 109056,
                    "time": 113.60000000000001,
                    "velocity": 0.2677165354330709
                },
                {
                    "duration": 0.20000000000000284,
                    "durationTicks": 192,
                    "midi": 43,
                    "name": "G2",
                    "ticks": 109056,
                    "time": 113.60000000000001,
                    "velocity": 0.2283464566929134
                },
                {
                    "duration": 0.20000000000000284,
                    "durationTicks": 192,
                    "midi": 55,
                    "name": "G3",
                    "ticks": 109056,
                    "time": 113.60000000000001,
                    "velocity": 0.2125984251968504
                },
                {
                    "duration": 0.29999999999999716,
                    "durationTicks": 288,
                    "midi": 64,
                    "name": "E4",
                    "ticks": 109248,
                    "time": 113.80000000000001,
                    "velocity": 0.28346456692913385
                },
                {
                    "duration": 0.29999999999999716,
                    "durationTicks": 288,
                    "midi": 76,
                    "name": "E5",
                    "ticks": 109248,
                    "time": 113.80000000000001,
                    "velocity": 0.2677165354330709
                },
                {
                    "duration": 0.29999999999999716,
                    "durationTicks": 288,
                    "midi": 45,
                    "name": "A2",
                    "ticks": 109248,
                    "time": 113.80000000000001,
                    "velocity": 0.2755905511811024
                },
                {
                    "duration": 0.29999999999999716,
                    "durationTicks": 288,
                    "midi": 57,
                    "name": "A3",
                    "ticks": 109248,
                    "time": 113.80000000000001,
                    "velocity": 0.25984251968503935
                },
                {
                    "duration": 0.29999999999999716,
                    "durationTicks": 288,
                    "midi": 60,
                    "name": "C4",
                    "ticks": 109536,
                    "time": 114.10000000000001,
                    "velocity": 0.25984251968503935
                },
                {
                    "duration": 0.29999999999999716,
                    "durationTicks": 288,
                    "midi": 64,
                    "name": "E4",
                    "ticks": 109536,
                    "time": 114.10000000000001,
                    "velocity": 0.2677165354330709
                },
                {
                    "duration": 0.29999999999999716,
                    "durationTicks": 288,
                    "midi": 45,
                    "name": "A2",
                    "ticks": 109536,
                    "time": 114.10000000000001,
                    "velocity": 0.28346456692913385
                },
                {
                    "duration": 0.29999999999999716,
                    "durationTicks": 288,
                    "midi": 57,
                    "name": "A3",
                    "ticks": 109536,
                    "time": 114.10000000000001,
                    "velocity": 0.23622047244094488
                },
                {
                    "duration": 0.20000000000000284,
                    "durationTicks": 192,
                    "midi": 60,
                    "name": "C4",
                    "ticks": 109824,
                    "time": 114.4,
                    "velocity": 0.2440944881889764
                },
                {
                    "duration": 0.20000000000000284,
                    "durationTicks": 192,
                    "midi": 64,
                    "name": "E4",
                    "ticks": 109824,
                    "time": 114.4,
                    "velocity": 0.2125984251968504
                },
                {
                    "duration": 0.20000000000000284,
                    "durationTicks": 192,
                    "midi": 45,
                    "name": "A2",
                    "ticks": 109824,
                    "time": 114.4,
                    "velocity": 0.2677165354330709
                },
                {
                    "duration": 0.20000000000000284,
                    "durationTicks": 192,
                    "midi": 57,
                    "name": "A3",
                    "ticks": 109824,
                    "time": 114.4,
                    "velocity": 0.23622047244094488
                },
                {
                    "duration": 0.29999999999999716,
                    "durationTicks": 288,
                    "midi": 60,
                    "name": "C4",
                    "ticks": 110016,
                    "time": 114.60000000000001,
                    "velocity": 0.23622047244094488
                },
                {
                    "duration": 0.29999999999999716,
                    "durationTicks": 288,
                    "midi": 64,
                    "name": "E4",
                    "ticks": 110016,
                    "time": 114.60000000000001,
                    "velocity": 0.1968503937007874
                },
                {
                    "duration": 0.29999999999999716,
                    "durationTicks": 288,
                    "midi": 45,
                    "name": "A2",
                    "ticks": 110016,
                    "time": 114.60000000000001,
                    "velocity": 0.2677165354330709
                },
                {
                    "duration": 0.29999999999999716,
                    "durationTicks": 288,
                    "midi": 57,
                    "name": "A3",
                    "ticks": 110016,
                    "time": 114.60000000000001,
                    "velocity": 0.23622047244094488
                },
                {
                    "duration": 0.29999999999999716,
                    "durationTicks": 288,
                    "midi": 60,
                    "name": "C4",
                    "ticks": 110304,
                    "time": 114.9,
                    "velocity": 0.23622047244094488
                },
                {
                    "duration": 0.29999999999999716,
                    "durationTicks": 288,
                    "midi": 64,
                    "name": "E4",
                    "ticks": 110304,
                    "time": 114.9,
                    "velocity": 0.1968503937007874
                },
                {
                    "duration": 0.29999999999999716,
                    "durationTicks": 288,
                    "midi": 45,
                    "name": "A2",
                    "ticks": 110304,
                    "time": 114.9,
                    "velocity": 0.23622047244094488
                },
                {
                    "duration": 0.29999999999999716,
                    "durationTicks": 288,
                    "midi": 57,
                    "name": "A3",
                    "ticks": 110304,
                    "time": 114.9,
                    "velocity": 0.2283464566929134
                },
                {
                    "duration": 0.20000000000000284,
                    "durationTicks": 192,
                    "midi": 60,
                    "name": "C4",
                    "ticks": 110592,
                    "time": 115.2,
                    "velocity": 0.2283464566929134
                },
                {
                    "duration": 0.20000000000000284,
                    "durationTicks": 192,
                    "midi": 64,
                    "name": "E4",
                    "ticks": 110592,
                    "time": 115.2,
                    "velocity": 0.2283464566929134
                },
                {
                    "duration": 0.20000000000000284,
                    "durationTicks": 192,
                    "midi": 45,
                    "name": "A2",
                    "ticks": 110592,
                    "time": 115.2,
                    "velocity": 0.2677165354330709
                },
                {
                    "duration": 0.20000000000000284,
                    "durationTicks": 192,
                    "midi": 57,
                    "name": "A3",
                    "ticks": 110592,
                    "time": 115.2,
                    "velocity": 0.2283464566929134
                },
                {
                    "duration": 0.29999999999999716,
                    "durationTicks": 288,
                    "midi": 74,
                    "name": "D5",
                    "ticks": 110784,
                    "time": 115.4,
                    "velocity": 0.25196850393700787
                },
                {
                    "duration": 0.29999999999999716,
                    "durationTicks": 288,
                    "midi": 86,
                    "name": "D6",
                    "ticks": 110784,
                    "time": 115.4,
                    "velocity": 0.25984251968503935
                },
                {
                    "duration": 0.29999999999999716,
                    "durationTicks": 288,
                    "midi": 40,
                    "name": "E2",
                    "ticks": 110784,
                    "time": 115.4,
                    "velocity": 0.23622047244094488
                },
                {
                    "duration": 0.29999999999999716,
                    "durationTicks": 288,
                    "midi": 52,
                    "name": "E3",
                    "ticks": 110784,
                    "time": 115.4,
                    "velocity": 0.1889763779527559
                },
                {
                    "duration": 0.29999999999999716,
                    "durationTicks": 288,
                    "midi": 55,
                    "name": "G3",
                    "ticks": 111072,
                    "time": 115.7,
                    "velocity": 0.2283464566929134
                },
                {
                    "duration": 0.29999999999999716,
                    "durationTicks": 288,
                    "midi": 59,
                    "name": "B3",
                    "ticks": 111072,
                    "time": 115.7,
                    "velocity": 0.23622047244094488
                },
                {
                    "duration": 0.29999999999999716,
                    "durationTicks": 288,
                    "midi": 64,
                    "name": "E4",
                    "ticks": 111072,
                    "time": 115.7,
                    "velocity": 0.2283464566929134
                },
                {
                    "duration": 0.29999999999999716,
                    "durationTicks": 288,
                    "midi": 40,
                    "name": "E2",
                    "ticks": 111072,
                    "time": 115.7,
                    "velocity": 0.2047244094488189
                },
                {
                    "duration": 0.29999999999999716,
                    "durationTicks": 288,
                    "midi": 52,
                    "name": "E3",
                    "ticks": 111072,
                    "time": 115.7,
                    "velocity": 0.2283464566929134
                },
                {
                    "duration": 0.20000000000000284,
                    "durationTicks": 192,
                    "midi": 55,
                    "name": "G3",
                    "ticks": 111360,
                    "time": 116,
                    "velocity": 0.2283464566929134
                },
                {
                    "duration": 0.20000000000000284,
                    "durationTicks": 192,
                    "midi": 59,
                    "name": "B3",
                    "ticks": 111360,
                    "time": 116,
                    "velocity": 0.25984251968503935
                },
                {
                    "duration": 0.20000000000000284,
                    "durationTicks": 192,
                    "midi": 64,
                    "name": "E4",
                    "ticks": 111360,
                    "time": 116,
                    "velocity": 0.25196850393700787
                },
                {
                    "duration": 0.20000000000000284,
                    "durationTicks": 192,
                    "midi": 40,
                    "name": "E2",
                    "ticks": 111360,
                    "time": 116,
                    "velocity": 0.25196850393700787
                },
                {
                    "duration": 0.20000000000000284,
                    "durationTicks": 192,
                    "midi": 52,
                    "name": "E3",
                    "ticks": 111360,
                    "time": 116,
                    "velocity": 0.2440944881889764
                },
                {
                    "duration": 0.29999999999999716,
                    "durationTicks": 288,
                    "midi": 55,
                    "name": "G3",
                    "ticks": 111552,
                    "time": 116.2,
                    "velocity": 0.2440944881889764
                },
                {
                    "duration": 0.29999999999999716,
                    "durationTicks": 288,
                    "midi": 59,
                    "name": "B3",
                    "ticks": 111552,
                    "time": 116.2,
                    "velocity": 0.2755905511811024
                },
                {
                    "duration": 0.29999999999999716,
                    "durationTicks": 288,
                    "midi": 64,
                    "name": "E4",
                    "ticks": 111552,
                    "time": 116.2,
                    "velocity": 0.2677165354330709
                },
                {
                    "duration": 0.29999999999999716,
                    "durationTicks": 288,
                    "midi": 40,
                    "name": "E2",
                    "ticks": 111552,
                    "time": 116.2,
                    "velocity": 0.2677165354330709
                },
                {
                    "duration": 0.29999999999999716,
                    "durationTicks": 288,
                    "midi": 52,
                    "name": "E3",
                    "ticks": 111552,
                    "time": 116.2,
                    "velocity": 0.25984251968503935
                },
                {
                    "duration": 0.30000000000001137,
                    "durationTicks": 288,
                    "midi": 55,
                    "name": "G3",
                    "ticks": 111840,
                    "time": 116.5,
                    "velocity": 0.2283464566929134
                },
                {
                    "duration": 0.30000000000001137,
                    "durationTicks": 288,
                    "midi": 59,
                    "name": "B3",
                    "ticks": 111840,
                    "time": 116.5,
                    "velocity": 0.25196850393700787
                },
                {
                    "duration": 0.30000000000001137,
                    "durationTicks": 288,
                    "midi": 64,
                    "name": "E4",
                    "ticks": 111840,
                    "time": 116.5,
                    "velocity": 0.25984251968503935
                },
                {
                    "duration": 0.30000000000001137,
                    "durationTicks": 288,
                    "midi": 40,
                    "name": "E2",
                    "ticks": 111840,
                    "time": 116.5,
                    "velocity": 0.2677165354330709
                },
                {
                    "duration": 0.30000000000001137,
                    "durationTicks": 288,
                    "midi": 52,
                    "name": "E3",
                    "ticks": 111840,
                    "time": 116.5,
                    "velocity": 0.25984251968503935
                },
                {
                    "duration": 0.19999999999998863,
                    "durationTicks": 192,
                    "midi": 55,
                    "name": "G3",
                    "ticks": 112128,
                    "time": 116.80000000000001,
                    "velocity": 0.25196850393700787
                },
                {
                    "duration": 0.19999999999998863,
                    "durationTicks": 192,
                    "midi": 59,
                    "name": "B3",
                    "ticks": 112128,
                    "time": 116.80000000000001,
                    "velocity": 0.2677165354330709
                },
                {
                    "duration": 0.19999999999998863,
                    "durationTicks": 192,
                    "midi": 64,
                    "name": "E4",
                    "ticks": 112128,
                    "time": 116.80000000000001,
                    "velocity": 0.2677165354330709
                },
                {
                    "duration": 0.19999999999998863,
                    "durationTicks": 192,
                    "midi": 40,
                    "name": "E2",
                    "ticks": 112128,
                    "time": 116.80000000000001,
                    "velocity": 0.2677165354330709
                },
                {
                    "duration": 0.19999999999998863,
                    "durationTicks": 192,
                    "midi": 52,
                    "name": "E3",
                    "ticks": 112128,
                    "time": 116.80000000000001,
                    "velocity": 0.25984251968503935
                },
                {
                    "duration": 0.30000000000001137,
                    "durationTicks": 288,
                    "midi": 64,
                    "name": "E4",
                    "ticks": 112320,
                    "time": 117,
                    "velocity": 0.2755905511811024
                },
                {
                    "duration": 0.30000000000001137,
                    "durationTicks": 288,
                    "midi": 76,
                    "name": "E5",
                    "ticks": 112320,
                    "time": 117,
                    "velocity": 0.28346456692913385
                },
                {
                    "duration": 0.30000000000001137,
                    "durationTicks": 288,
                    "midi": 41,
                    "name": "F2",
                    "ticks": 112320,
                    "time": 117,
                    "velocity": 0.2677165354330709
                },
                {
                    "duration": 0.30000000000001137,
                    "durationTicks": 288,
                    "midi": 53,
                    "name": "F3",
                    "ticks": 112320,
                    "time": 117,
                    "velocity": 0.2755905511811024
                },
                {
                    "duration": 0.29999999999999716,
                    "durationTicks": 288,
                    "midi": 60,
                    "name": "C4",
                    "ticks": 112608,
                    "time": 117.30000000000001,
                    "velocity": 0.25984251968503935
                },
                {
                    "duration": 0.29999999999999716,
                    "durationTicks": 288,
                    "midi": 64,
                    "name": "E4",
                    "ticks": 112608,
                    "time": 117.30000000000001,
                    "velocity": 0.2677165354330709
                },
                {
                    "duration": 0.29999999999999716,
                    "durationTicks": 288,
                    "midi": 69,
                    "name": "A4",
                    "ticks": 112608,
                    "time": 117.30000000000001,
                    "velocity": 0.1889763779527559
                },
                {
                    "duration": 0.29999999999999716,
                    "durationTicks": 288,
                    "midi": 72,
                    "name": "C5",
                    "ticks": 112608,
                    "time": 117.30000000000001,
                    "velocity": 0.2755905511811024
                },
                {
                    "duration": 0.29999999999999716,
                    "durationTicks": 288,
                    "midi": 41,
                    "name": "F2",
                    "ticks": 112608,
                    "time": 117.30000000000001,
                    "velocity": 0.2440944881889764
                },
                {
                    "duration": 0.29999999999999716,
                    "durationTicks": 288,
                    "midi": 53,
                    "name": "F3",
                    "ticks": 112608,
                    "time": 117.30000000000001,
                    "velocity": 0.2440944881889764
                },
                {
                    "duration": 0.20000000000000284,
                    "durationTicks": 192,
                    "midi": 60,
                    "name": "C4",
                    "ticks": 112896,
                    "time": 117.60000000000001,
                    "velocity": 0.23622047244094488
                },
                {
                    "duration": 0.20000000000000284,
                    "durationTicks": 192,
                    "midi": 64,
                    "name": "E4",
                    "ticks": 112896,
                    "time": 117.60000000000001,
                    "velocity": 0.23622047244094488
                },
                {
                    "duration": 0.20000000000000284,
                    "durationTicks": 192,
                    "midi": 69,
                    "name": "A4",
                    "ticks": 112896,
                    "time": 117.60000000000001,
                    "velocity": 0.1968503937007874
                },
                {
                    "duration": 0.20000000000000284,
                    "durationTicks": 192,
                    "midi": 72,
                    "name": "C5",
                    "ticks": 112896,
                    "time": 117.60000000000001,
                    "velocity": 0.2755905511811024
                },
                {
                    "duration": 0.20000000000000284,
                    "durationTicks": 192,
                    "midi": 41,
                    "name": "F2",
                    "ticks": 112896,
                    "time": 117.60000000000001,
                    "velocity": 0.2440944881889764
                },
                {
                    "duration": 0.20000000000000284,
                    "durationTicks": 192,
                    "midi": 53,
                    "name": "F3",
                    "ticks": 112896,
                    "time": 117.60000000000001,
                    "velocity": 0.2283464566929134
                },
                {
                    "duration": 0.29999999999999716,
                    "durationTicks": 288,
                    "midi": 60,
                    "name": "C4",
                    "ticks": 113088,
                    "time": 117.80000000000001,
                    "velocity": 0.2677165354330709
                },
                {
                    "duration": 0.29999999999999716,
                    "durationTicks": 288,
                    "midi": 64,
                    "name": "E4",
                    "ticks": 113088,
                    "time": 117.80000000000001,
                    "velocity": 0.25984251968503935
                },
                {
                    "duration": 0.29999999999999716,
                    "durationTicks": 288,
                    "midi": 69,
                    "name": "A4",
                    "ticks": 113088,
                    "time": 117.80000000000001,
                    "velocity": 0.2283464566929134
                },
                {
                    "duration": 0.29999999999999716,
                    "durationTicks": 288,
                    "midi": 71,
                    "name": "B4",
                    "ticks": 113088,
                    "time": 117.80000000000001,
                    "velocity": 0.28346456692913385
                },
                {
                    "duration": 0.29999999999999716,
                    "durationTicks": 288,
                    "midi": 41,
                    "name": "F2",
                    "ticks": 113088,
                    "time": 117.80000000000001,
                    "velocity": 0.2440944881889764
                },
                {
                    "duration": 0.29999999999999716,
                    "durationTicks": 288,
                    "midi": 53,
                    "name": "F3",
                    "ticks": 113088,
                    "time": 117.80000000000001,
                    "velocity": 0.2440944881889764
                },
                {
                    "duration": 0.29999999999999716,
                    "durationTicks": 288,
                    "midi": 60,
                    "name": "C4",
                    "ticks": 113376,
                    "time": 118.10000000000001,
                    "velocity": 0.29133858267716534
                },
                {
                    "duration": 0.29999999999999716,
                    "durationTicks": 288,
                    "midi": 64,
                    "name": "E4",
                    "ticks": 113376,
                    "time": 118.10000000000001,
                    "velocity": 0.29133858267716534
                },
                {
                    "duration": 0.29999999999999716,
                    "durationTicks": 288,
                    "midi": 69,
                    "name": "A4",
                    "ticks": 113376,
                    "time": 118.10000000000001,
                    "velocity": 0.2125984251968504
                },
                {
                    "duration": 0.29999999999999716,
                    "durationTicks": 288,
                    "midi": 72,
                    "name": "C5",
                    "ticks": 113376,
                    "time": 118.10000000000001,
                    "velocity": 0.2755905511811024
                },
                {
                    "duration": 0.29999999999999716,
                    "durationTicks": 288,
                    "midi": 41,
                    "name": "F2",
                    "ticks": 113376,
                    "time": 118.10000000000001,
                    "velocity": 0.25984251968503935
                },
                {
                    "duration": 0.29999999999999716,
                    "durationTicks": 288,
                    "midi": 53,
                    "name": "F3",
                    "ticks": 113376,
                    "time": 118.10000000000001,
                    "velocity": 0.2283464566929134
                },
                {
                    "duration": 0.20000000000000284,
                    "durationTicks": 192,
                    "midi": 60,
                    "name": "C4",
                    "ticks": 113664,
                    "time": 118.4,
                    "velocity": 0.2755905511811024
                },
                {
                    "duration": 0.20000000000000284,
                    "durationTicks": 192,
                    "midi": 64,
                    "name": "E4",
                    "ticks": 113664,
                    "time": 118.4,
                    "velocity": 0.2755905511811024
                },
                {
                    "duration": 0.20000000000000284,
                    "durationTicks": 192,
                    "midi": 69,
                    "name": "A4",
                    "ticks": 113664,
                    "time": 118.4,
                    "velocity": 0.2283464566929134
                },
                {
                    "duration": 0.20000000000000284,
                    "durationTicks": 192,
                    "midi": 72,
                    "name": "C5",
                    "ticks": 113664,
                    "time": 118.4,
                    "velocity": 0.2755905511811024
                },
                {
                    "duration": 0.20000000000000284,
                    "durationTicks": 192,
                    "midi": 41,
                    "name": "F2",
                    "ticks": 113664,
                    "time": 118.4,
                    "velocity": 0.23622047244094488
                },
                {
                    "duration": 0.20000000000000284,
                    "durationTicks": 192,
                    "midi": 53,
                    "name": "F3",
                    "ticks": 113664,
                    "time": 118.4,
                    "velocity": 0.2283464566929134
                },
                {
                    "duration": 0.29999999999999716,
                    "durationTicks": 288,
                    "midi": 60,
                    "name": "C4",
                    "ticks": 113856,
                    "time": 118.60000000000001,
                    "velocity": 0.28346456692913385
                },
                {
                    "duration": 0.29999999999999716,
                    "durationTicks": 288,
                    "midi": 72,
                    "name": "C5",
                    "ticks": 113856,
                    "time": 118.60000000000001,
                    "velocity": 0.2755905511811024
                },
                {
                    "duration": 0.29999999999999716,
                    "durationTicks": 288,
                    "midi": 43,
                    "name": "G2",
                    "ticks": 113856,
                    "time": 118.60000000000001,
                    "velocity": 0.1968503937007874
                },
                {
                    "duration": 0.29999999999999716,
                    "durationTicks": 288,
                    "midi": 55,
                    "name": "G3",
                    "ticks": 113856,
                    "time": 118.60000000000001,
                    "velocity": 0.25984251968503935
                },
                {
                    "duration": 0.29999999999999716,
                    "durationTicks": 288,
                    "midi": 57,
                    "name": "A3",
                    "ticks": 114144,
                    "time": 118.9,
                    "velocity": 0.2440944881889764
                },
                {
                    "duration": 0.29999999999999716,
                    "durationTicks": 288,
                    "midi": 60,
                    "name": "C4",
                    "ticks": 114144,
                    "time": 118.9,
                    "velocity": 0.2677165354330709
                },
                {
                    "duration": 0.29999999999999716,
                    "durationTicks": 288,
                    "midi": 64,
                    "name": "E4",
                    "ticks": 114144,
                    "time": 118.9,
                    "velocity": 0.28346456692913385
                },
                {
                    "duration": 0.29999999999999716,
                    "durationTicks": 288,
                    "midi": 43,
                    "name": "G2",
                    "ticks": 114144,
                    "time": 118.9,
                    "velocity": 0.2283464566929134
                },
                {
                    "duration": 0.29999999999999716,
                    "durationTicks": 288,
                    "midi": 55,
                    "name": "G3",
                    "ticks": 114144,
                    "time": 118.9,
                    "velocity": 0.2440944881889764
                },
                {
                    "duration": 0.20000000000000284,
                    "durationTicks": 192,
                    "midi": 57,
                    "name": "A3",
                    "ticks": 114432,
                    "time": 119.2,
                    "velocity": 0.25984251968503935
                },
                {
                    "duration": 0.20000000000000284,
                    "durationTicks": 192,
                    "midi": 60,
                    "name": "C4",
                    "ticks": 114432,
                    "time": 119.2,
                    "velocity": 0.2677165354330709
                },
                {
                    "duration": 0.20000000000000284,
                    "durationTicks": 192,
                    "midi": 64,
                    "name": "E4",
                    "ticks": 114432,
                    "time": 119.2,
                    "velocity": 0.2677165354330709
                },
                {
                    "duration": 0.20000000000000284,
                    "durationTicks": 192,
                    "midi": 43,
                    "name": "G2",
                    "ticks": 114432,
                    "time": 119.2,
                    "velocity": 0.25984251968503935
                },
                {
                    "duration": 0.20000000000000284,
                    "durationTicks": 192,
                    "midi": 55,
                    "name": "G3",
                    "ticks": 114432,
                    "time": 119.2,
                    "velocity": 0.2204724409448819
                },
                {
                    "duration": 0.29999999999999716,
                    "durationTicks": 288,
                    "midi": 60,
                    "name": "C4",
                    "ticks": 114624,
                    "time": 119.4,
                    "velocity": 0.25984251968503935
                },
                {
                    "duration": 0.29999999999999716,
                    "durationTicks": 288,
                    "midi": 67,
                    "name": "G4",
                    "ticks": 114624,
                    "time": 119.4,
                    "velocity": 0.2755905511811024
                },
                {
                    "duration": 0.29999999999999716,
                    "durationTicks": 288,
                    "midi": 43,
                    "name": "G2",
                    "ticks": 114624,
                    "time": 119.4,
                    "velocity": 0.2440944881889764
                },
                {
                    "duration": 0.29999999999999716,
                    "durationTicks": 288,
                    "midi": 55,
                    "name": "G3",
                    "ticks": 114624,
                    "time": 119.4,
                    "velocity": 0.2755905511811024
                },
                {
                    "duration": 0.29999999999999716,
                    "durationTicks": 288,
                    "midi": 57,
                    "name": "A3",
                    "ticks": 114912,
                    "time": 119.7,
                    "velocity": 0.2440944881889764
                },
                {
                    "duration": 0.29999999999999716,
                    "durationTicks": 288,
                    "midi": 60,
                    "name": "C4",
                    "ticks": 114912,
                    "time": 119.7,
                    "velocity": 0.2440944881889764
                },
                {
                    "duration": 0.29999999999999716,
                    "durationTicks": 288,
                    "midi": 64,
                    "name": "E4",
                    "ticks": 114912,
                    "time": 119.7,
                    "velocity": 0.23622047244094488
                },
                {
                    "duration": 0.29999999999999716,
                    "durationTicks": 288,
                    "midi": 43,
                    "name": "G2",
                    "ticks": 114912,
                    "time": 119.7,
                    "velocity": 0.2440944881889764
                },
                {
                    "duration": 0.29999999999999716,
                    "durationTicks": 288,
                    "midi": 55,
                    "name": "G3",
                    "ticks": 114912,
                    "time": 119.7,
                    "velocity": 0.25984251968503935
                },
                {
                    "duration": 0.20000000000000284,
                    "durationTicks": 192,
                    "midi": 57,
                    "name": "A3",
                    "ticks": 115200,
                    "time": 120,
                    "velocity": 0.2440944881889764
                },
                {
                    "duration": 0.20000000000000284,
                    "durationTicks": 192,
                    "midi": 60,
                    "name": "C4",
                    "ticks": 115200,
                    "time": 120,
                    "velocity": 0.25984251968503935
                },
                {
                    "duration": 0.20000000000000284,
                    "durationTicks": 192,
                    "midi": 64,
                    "name": "E4",
                    "ticks": 115200,
                    "time": 120,
                    "velocity": 0.2677165354330709
                },
                {
                    "duration": 0.20000000000000284,
                    "durationTicks": 192,
                    "midi": 43,
                    "name": "G2",
                    "ticks": 115200,
                    "time": 120,
                    "velocity": 0.2283464566929134
                },
                {
                    "duration": 0.20000000000000284,
                    "durationTicks": 192,
                    "midi": 55,
                    "name": "G3",
                    "ticks": 115200,
                    "time": 120,
                    "velocity": 0.2204724409448819
                },
                {
                    "duration": 0.29999999999999716,
                    "durationTicks": 288,
                    "midi": 72,
                    "name": "C5",
                    "ticks": 115392,
                    "time": 120.2,
                    "velocity": 0.2755905511811024
                },
                {
                    "duration": 0.29999999999999716,
                    "durationTicks": 288,
                    "midi": 45,
                    "name": "A2",
                    "ticks": 115392,
                    "time": 120.2,
                    "velocity": 0.2677165354330709
                },
                {
                    "duration": 0.29999999999999716,
                    "durationTicks": 288,
                    "midi": 57,
                    "name": "A3",
                    "ticks": 115392,
                    "time": 120.2,
                    "velocity": 0.25196850393700787
                },
                {
                    "duration": 0.30000000000001137,
                    "durationTicks": 288,
                    "midi": 64,
                    "name": "E4",
                    "ticks": 115680,
                    "time": 120.5,
                    "velocity": 0.25984251968503935
                },
                {
                    "duration": 0.30000000000001137,
                    "durationTicks": 288,
                    "midi": 67,
                    "name": "G4",
                    "ticks": 115680,
                    "time": 120.5,
                    "velocity": 0.25196850393700787
                },
                {
                    "duration": 0.30000000000001137,
                    "durationTicks": 288,
                    "midi": 72,
                    "name": "C5",
                    "ticks": 115680,
                    "time": 120.5,
                    "velocity": 0.2755905511811024
                },
                {
                    "duration": 0.30000000000001137,
                    "durationTicks": 288,
                    "midi": 45,
                    "name": "A2",
                    "ticks": 115680,
                    "time": 120.5,
                    "velocity": 0.2755905511811024
                },
                {
                    "duration": 0.30000000000001137,
                    "durationTicks": 288,
                    "midi": 57,
                    "name": "A3",
                    "ticks": 115680,
                    "time": 120.5,
                    "velocity": 0.2283464566929134
                },
                {
                    "duration": 0.19999999999998863,
                    "durationTicks": 192,
                    "midi": 64,
                    "name": "E4",
                    "ticks": 115968,
                    "time": 120.80000000000001,
                    "velocity": 0.2047244094488189
                },
                {
                    "duration": 0.19999999999998863,
                    "durationTicks": 192,
                    "midi": 67,
                    "name": "G4",
                    "ticks": 115968,
                    "time": 120.80000000000001,
                    "velocity": 0.23622047244094488
                },
                {
                    "duration": 0.19999999999998863,
                    "durationTicks": 192,
                    "midi": 72,
                    "name": "C5",
                    "ticks": 115968,
                    "time": 120.80000000000001,
                    "velocity": 0.28346456692913385
                },
                {
                    "duration": 0.19999999999998863,
                    "durationTicks": 192,
                    "midi": 45,
                    "name": "A2",
                    "ticks": 115968,
                    "time": 120.80000000000001,
                    "velocity": 0.25984251968503935
                },
                {
                    "duration": 0.19999999999998863,
                    "durationTicks": 192,
                    "midi": 57,
                    "name": "A3",
                    "ticks": 115968,
                    "time": 120.80000000000001,
                    "velocity": 0.2283464566929134
                },
                {
                    "duration": 0.30000000000001137,
                    "durationTicks": 288,
                    "midi": 64,
                    "name": "E4",
                    "ticks": 116160,
                    "time": 121,
                    "velocity": 0.1968503937007874
                },
                {
                    "duration": 0.30000000000001137,
                    "durationTicks": 288,
                    "midi": 67,
                    "name": "G4",
                    "ticks": 116160,
                    "time": 121,
                    "velocity": 0.2283464566929134
                },
                {
                    "duration": 0.30000000000001137,
                    "durationTicks": 288,
                    "midi": 72,
                    "name": "C5",
                    "ticks": 116160,
                    "time": 121,
                    "velocity": 0.2755905511811024
                },
                {
                    "duration": 0.30000000000001137,
                    "durationTicks": 288,
                    "midi": 45,
                    "name": "A2",
                    "ticks": 116160,
                    "time": 121,
                    "velocity": 0.25984251968503935
                },
                {
                    "duration": 0.30000000000001137,
                    "durationTicks": 288,
                    "midi": 57,
                    "name": "A3",
                    "ticks": 116160,
                    "time": 121,
                    "velocity": 0.2283464566929134
                },
                {
                    "duration": 0.29999999999999716,
                    "durationTicks": 288,
                    "midi": 64,
                    "name": "E4",
                    "ticks": 116448,
                    "time": 121.30000000000001,
                    "velocity": 0.1889763779527559
                },
                {
                    "duration": 0.29999999999999716,
                    "durationTicks": 288,
                    "midi": 67,
                    "name": "G4",
                    "ticks": 116448,
                    "time": 121.30000000000001,
                    "velocity": 0.2283464566929134
                },
                {
                    "duration": 0.29999999999999716,
                    "durationTicks": 288,
                    "midi": 71,
                    "name": "B4",
                    "ticks": 116448,
                    "time": 121.30000000000001,
                    "velocity": 0.2755905511811024
                },
                {
                    "duration": 0.29999999999999716,
                    "durationTicks": 288,
                    "midi": 45,
                    "name": "A2",
                    "ticks": 116448,
                    "time": 121.30000000000001,
                    "velocity": 0.2283464566929134
                },
                {
                    "duration": 0.29999999999999716,
                    "durationTicks": 288,
                    "midi": 57,
                    "name": "A3",
                    "ticks": 116448,
                    "time": 121.30000000000001,
                    "velocity": 0.2283464566929134
                },
                {
                    "duration": 0.20000000000000284,
                    "durationTicks": 192,
                    "midi": 60,
                    "name": "C4",
                    "ticks": 116736,
                    "time": 121.60000000000001,
                    "velocity": 0.2283464566929134
                },
                {
                    "duration": 0.20000000000000284,
                    "durationTicks": 192,
                    "midi": 64,
                    "name": "E4",
                    "ticks": 116736,
                    "time": 121.60000000000001,
                    "velocity": 0.2283464566929134
                },
                {
                    "duration": 0.20000000000000284,
                    "durationTicks": 192,
                    "midi": 67,
                    "name": "G4",
                    "ticks": 116736,
                    "time": 121.60000000000001,
                    "velocity": 0.2677165354330709
                },
                {
                    "duration": 0.20000000000000284,
                    "durationTicks": 192,
                    "midi": 45,
                    "name": "A2",
                    "ticks": 116736,
                    "time": 121.60000000000001,
                    "velocity": 0.25984251968503935
                },
                {
                    "duration": 0.20000000000000284,
                    "durationTicks": 192,
                    "midi": 57,
                    "name": "A3",
                    "ticks": 116736,
                    "time": 121.60000000000001,
                    "velocity": 0.2204724409448819
                },
                {
                    "duration": 0.29999999999999716,
                    "durationTicks": 288,
                    "midi": 64,
                    "name": "E4",
                    "ticks": 116928,
                    "time": 121.80000000000001,
                    "velocity": 0.28346456692913385
                },
                {
                    "duration": 0.29999999999999716,
                    "durationTicks": 288,
                    "midi": 40,
                    "name": "E2",
                    "ticks": 116928,
                    "time": 121.80000000000001,
                    "velocity": 0.2283464566929134
                },
                {
                    "duration": 0.29999999999999716,
                    "durationTicks": 288,
                    "midi": 52,
                    "name": "E3",
                    "ticks": 116928,
                    "time": 121.80000000000001,
                    "velocity": 0.18110236220472442
                },
                {
                    "duration": 0.29999999999999716,
                    "durationTicks": 288,
                    "midi": 55,
                    "name": "G3",
                    "ticks": 117216,
                    "time": 122.10000000000001,
                    "velocity": 0.2204724409448819
                },
                {
                    "duration": 0.29999999999999716,
                    "durationTicks": 288,
                    "midi": 59,
                    "name": "B3",
                    "ticks": 117216,
                    "time": 122.10000000000001,
                    "velocity": 0.2283464566929134
                },
                {
                    "duration": 0.29999999999999716,
                    "durationTicks": 288,
                    "midi": 64,
                    "name": "E4",
                    "ticks": 117216,
                    "time": 122.10000000000001,
                    "velocity": 0.28346456692913385
                },
                {
                    "duration": 0.29999999999999716,
                    "durationTicks": 288,
                    "midi": 40,
                    "name": "E2",
                    "ticks": 117216,
                    "time": 122.10000000000001,
                    "velocity": 0.2047244094488189
                },
                {
                    "duration": 0.29999999999999716,
                    "durationTicks": 288,
                    "midi": 52,
                    "name": "E3",
                    "ticks": 117216,
                    "time": 122.10000000000001,
                    "velocity": 0.2283464566929134
                },
                {
                    "duration": 0.20000000000000284,
                    "durationTicks": 192,
                    "midi": 55,
                    "name": "G3",
                    "ticks": 117504,
                    "time": 122.4,
                    "velocity": 0.2283464566929134
                },
                {
                    "duration": 0.20000000000000284,
                    "durationTicks": 192,
                    "midi": 59,
                    "name": "B3",
                    "ticks": 117504,
                    "time": 122.4,
                    "velocity": 0.25196850393700787
                },
                {
                    "duration": 0.20000000000000284,
                    "durationTicks": 192,
                    "midi": 64,
                    "name": "E4",
                    "ticks": 117504,
                    "time": 122.4,
                    "velocity": 0.2755905511811024
                },
                {
                    "duration": 0.20000000000000284,
                    "durationTicks": 192,
                    "midi": 40,
                    "name": "E2",
                    "ticks": 117504,
                    "time": 122.4,
                    "velocity": 0.2440944881889764
                },
                {
                    "duration": 0.20000000000000284,
                    "durationTicks": 192,
                    "midi": 52,
                    "name": "E3",
                    "ticks": 117504,
                    "time": 122.4,
                    "velocity": 0.23622047244094488
                },
                {
                    "duration": 0.29999999999999716,
                    "durationTicks": 288,
                    "midi": 55,
                    "name": "G3",
                    "ticks": 117696,
                    "time": 122.60000000000001,
                    "velocity": 0.23622047244094488
                },
                {
                    "duration": 0.29999999999999716,
                    "durationTicks": 288,
                    "midi": 59,
                    "name": "B3",
                    "ticks": 117696,
                    "time": 122.60000000000001,
                    "velocity": 0.2677165354330709
                },
                {
                    "duration": 0.29999999999999716,
                    "durationTicks": 288,
                    "midi": 64,
                    "name": "E4",
                    "ticks": 117696,
                    "time": 122.60000000000001,
                    "velocity": 0.28346456692913385
                },
                {
                    "duration": 0.29999999999999716,
                    "durationTicks": 288,
                    "midi": 40,
                    "name": "E2",
                    "ticks": 117696,
                    "time": 122.60000000000001,
                    "velocity": 0.23622047244094488
                },
                {
                    "duration": 0.29999999999999716,
                    "durationTicks": 288,
                    "midi": 52,
                    "name": "E3",
                    "ticks": 117696,
                    "time": 122.60000000000001,
                    "velocity": 0.25196850393700787
                },
                {
                    "duration": 0.29999999999999716,
                    "durationTicks": 288,
                    "midi": 55,
                    "name": "G3",
                    "ticks": 117984,
                    "time": 122.9,
                    "velocity": 0.2283464566929134
                },
                {
                    "duration": 0.29999999999999716,
                    "durationTicks": 288,
                    "midi": 59,
                    "name": "B3",
                    "ticks": 117984,
                    "time": 122.9,
                    "velocity": 0.2440944881889764
                },
                {
                    "duration": 0.29999999999999716,
                    "durationTicks": 288,
                    "midi": 64,
                    "name": "E4",
                    "ticks": 117984,
                    "time": 122.9,
                    "velocity": 0.25196850393700787
                },
                {
                    "duration": 0.29999999999999716,
                    "durationTicks": 288,
                    "midi": 40,
                    "name": "E2",
                    "ticks": 117984,
                    "time": 122.9,
                    "velocity": 0.2283464566929134
                },
                {
                    "duration": 0.29999999999999716,
                    "durationTicks": 288,
                    "midi": 52,
                    "name": "E3",
                    "ticks": 117984,
                    "time": 122.9,
                    "velocity": 0.25196850393700787
                },
                {
                    "duration": 0.20000000000000284,
                    "durationTicks": 192,
                    "midi": 55,
                    "name": "G3",
                    "ticks": 118272,
                    "time": 123.2,
                    "velocity": 0.2440944881889764
                },
                {
                    "duration": 0.20000000000000284,
                    "durationTicks": 192,
                    "midi": 59,
                    "name": "B3",
                    "ticks": 118272,
                    "time": 123.2,
                    "velocity": 0.25984251968503935
                },
                {
                    "duration": 0.20000000000000284,
                    "durationTicks": 192,
                    "midi": 64,
                    "name": "E4",
                    "ticks": 118272,
                    "time": 123.2,
                    "velocity": 0.25984251968503935
                },
                {
                    "duration": 0.20000000000000284,
                    "durationTicks": 192,
                    "midi": 40,
                    "name": "E2",
                    "ticks": 118272,
                    "time": 123.2,
                    "velocity": 0.23622047244094488
                },
                {
                    "duration": 0.20000000000000284,
                    "durationTicks": 192,
                    "midi": 52,
                    "name": "E3",
                    "ticks": 118272,
                    "time": 123.2,
                    "velocity": 0.25196850393700787
                },
                {
                    "duration": 0.29999999999999716,
                    "durationTicks": 288,
                    "midi": 72,
                    "name": "C5",
                    "ticks": 118464,
                    "time": 123.4,
                    "velocity": 0.25984251968503935
                },
                {
                    "duration": 0.29999999999999716,
                    "durationTicks": 288,
                    "midi": 76,
                    "name": "E5",
                    "ticks": 118464,
                    "time": 123.4,
                    "velocity": 0.28346456692913385
                },
                {
                    "duration": 0.29999999999999716,
                    "durationTicks": 288,
                    "midi": 41,
                    "name": "F2",
                    "ticks": 118464,
                    "time": 123.4,
                    "velocity": 0.25984251968503935
                },
                {
                    "duration": 0.29999999999999716,
                    "durationTicks": 288,
                    "midi": 53,
                    "name": "F3",
                    "ticks": 118464,
                    "time": 123.4,
                    "velocity": 0.25984251968503935
                },
                {
                    "duration": 0.29999999999999716,
                    "durationTicks": 288,
                    "midi": 64,
                    "name": "E4",
                    "ticks": 118752,
                    "time": 123.7,
                    "velocity": 0.25984251968503935
                },
                {
                    "duration": 0.29999999999999716,
                    "durationTicks": 288,
                    "midi": 69,
                    "name": "A4",
                    "ticks": 118752,
                    "time": 123.7,
                    "velocity": 0.2047244094488189
                },
                {
                    "duration": 0.29999999999999716,
                    "durationTicks": 288,
                    "midi": 72,
                    "name": "C5",
                    "ticks": 118752,
                    "time": 123.7,
                    "velocity": 0.28346456692913385
                },
                {
                    "duration": 0.29999999999999716,
                    "durationTicks": 288,
                    "midi": 76,
                    "name": "E5",
                    "ticks": 118752,
                    "time": 123.7,
                    "velocity": 0.2677165354330709
                },
                {
                    "duration": 0.29999999999999716,
                    "durationTicks": 288,
                    "midi": 41,
                    "name": "F2",
                    "ticks": 118752,
                    "time": 123.7,
                    "velocity": 0.2283464566929134
                },
                {
                    "duration": 0.29999999999999716,
                    "durationTicks": 288,
                    "midi": 53,
                    "name": "F3",
                    "ticks": 118752,
                    "time": 123.7,
                    "velocity": 0.2283464566929134
                },
                {
                    "duration": 0.20000000000000284,
                    "durationTicks": 192,
                    "midi": 64,
                    "name": "E4",
                    "ticks": 119040,
                    "time": 124,
                    "velocity": 0.2283464566929134
                },
                {
                    "duration": 0.20000000000000284,
                    "durationTicks": 192,
                    "midi": 69,
                    "name": "A4",
                    "ticks": 119040,
                    "time": 124,
                    "velocity": 0.2204724409448819
                },
                {
                    "duration": 0.20000000000000284,
                    "durationTicks": 192,
                    "midi": 72,
                    "name": "C5",
                    "ticks": 119040,
                    "time": 124,
                    "velocity": 0.28346456692913385
                },
                {
                    "duration": 0.20000000000000284,
                    "durationTicks": 192,
                    "midi": 76,
                    "name": "E5",
                    "ticks": 119040,
                    "time": 124,
                    "velocity": 0.2677165354330709
                },
                {
                    "duration": 0.20000000000000284,
                    "durationTicks": 192,
                    "midi": 41,
                    "name": "F2",
                    "ticks": 119040,
                    "time": 124,
                    "velocity": 0.2283464566929134
                },
                {
                    "duration": 0.20000000000000284,
                    "durationTicks": 192,
                    "midi": 53,
                    "name": "F3",
                    "ticks": 119040,
                    "time": 124,
                    "velocity": 0.2204724409448819
                },
                {
                    "duration": 0.29999999999999716,
                    "durationTicks": 288,
                    "midi": 64,
                    "name": "E4",
                    "ticks": 119232,
                    "time": 124.2,
                    "velocity": 0.25196850393700787
                },
                {
                    "duration": 0.29999999999999716,
                    "durationTicks": 288,
                    "midi": 69,
                    "name": "A4",
                    "ticks": 119232,
                    "time": 124.2,
                    "velocity": 0.2440944881889764
                },
                {
                    "duration": 0.29999999999999716,
                    "durationTicks": 288,
                    "midi": 72,
                    "name": "C5",
                    "ticks": 119232,
                    "time": 124.2,
                    "velocity": 0.2755905511811024
                },
                {
                    "duration": 0.29999999999999716,
                    "durationTicks": 288,
                    "midi": 76,
                    "name": "E5",
                    "ticks": 119232,
                    "time": 124.2,
                    "velocity": 0.25984251968503935
                },
                {
                    "duration": 0.29999999999999716,
                    "durationTicks": 288,
                    "midi": 41,
                    "name": "F2",
                    "ticks": 119232,
                    "time": 124.2,
                    "velocity": 0.23622047244094488
                },
                {
                    "duration": 0.29999999999999716,
                    "durationTicks": 288,
                    "midi": 53,
                    "name": "F3",
                    "ticks": 119232,
                    "time": 124.2,
                    "velocity": 0.2283464566929134
                },
                {
                    "duration": 0.30000000000001137,
                    "durationTicks": 288,
                    "midi": 64,
                    "name": "E4",
                    "ticks": 119520,
                    "time": 124.5,
                    "velocity": 0.2755905511811024
                },
                {
                    "duration": 0.30000000000001137,
                    "durationTicks": 288,
                    "midi": 69,
                    "name": "A4",
                    "ticks": 119520,
                    "time": 124.5,
                    "velocity": 0.2283464566929134
                },
                {
                    "duration": 0.30000000000001137,
                    "durationTicks": 288,
                    "midi": 41,
                    "name": "F2",
                    "ticks": 119520,
                    "time": 124.5,
                    "velocity": 0.2440944881889764
                },
                {
                    "duration": 0.30000000000001137,
                    "durationTicks": 288,
                    "midi": 53,
                    "name": "F3",
                    "ticks": 119520,
                    "time": 124.5,
                    "velocity": 0.2204724409448819
                },
                {
                    "duration": 0.19999999999998863,
                    "durationTicks": 192,
                    "midi": 64,
                    "name": "E4",
                    "ticks": 119808,
                    "time": 124.80000000000001,
                    "velocity": 0.25984251968503935
                },
                {
                    "duration": 0.19999999999998863,
                    "durationTicks": 192,
                    "midi": 69,
                    "name": "A4",
                    "ticks": 119808,
                    "time": 124.80000000000001,
                    "velocity": 0.25196850393700787
                },
                {
                    "duration": 0.19999999999998863,
                    "durationTicks": 192,
                    "midi": 41,
                    "name": "F2",
                    "ticks": 119808,
                    "time": 124.80000000000001,
                    "velocity": 0.2283464566929134
                },
                {
                    "duration": 0.19999999999998863,
                    "durationTicks": 192,
                    "midi": 53,
                    "name": "F3",
                    "ticks": 119808,
                    "time": 124.80000000000001,
                    "velocity": 0.2204724409448819
                },
                {
                    "duration": 0.30000000000001137,
                    "durationTicks": 288,
                    "midi": 72,
                    "name": "C5",
                    "ticks": 120000,
                    "time": 125,
                    "velocity": 0.2677165354330709
                },
                {
                    "duration": 0.30000000000001137,
                    "durationTicks": 288,
                    "midi": 76,
                    "name": "E5",
                    "ticks": 120000,
                    "time": 125,
                    "velocity": 0.25984251968503935
                },
                {
                    "duration": 0.30000000000001137,
                    "durationTicks": 288,
                    "midi": 43,
                    "name": "G2",
                    "ticks": 120000,
                    "time": 125,
                    "velocity": 0.1889763779527559
                },
                {
                    "duration": 0.30000000000001137,
                    "durationTicks": 288,
                    "midi": 55,
                    "name": "G3",
                    "ticks": 120000,
                    "time": 125,
                    "velocity": 0.2440944881889764
                },
                {
                    "duration": 0.29999999999999716,
                    "durationTicks": 288,
                    "midi": 64,
                    "name": "E4",
                    "ticks": 120288,
                    "time": 125.30000000000001,
                    "velocity": 0.2677165354330709
                },
                {
                    "duration": 0.29999999999999716,
                    "durationTicks": 288,
                    "midi": 69,
                    "name": "A4",
                    "ticks": 120288,
                    "time": 125.30000000000001,
                    "velocity": 0.23622047244094488
                },
                {
                    "duration": 0.29999999999999716,
                    "durationTicks": 288,
                    "midi": 72,
                    "name": "C5",
                    "ticks": 120288,
                    "time": 125.30000000000001,
                    "velocity": 0.2755905511811024
                },
                {
                    "duration": 0.29999999999999716,
                    "durationTicks": 288,
                    "midi": 76,
                    "name": "E5",
                    "ticks": 120288,
                    "time": 125.30000000000001,
                    "velocity": 0.2755905511811024
                },
                {
                    "duration": 0.29999999999999716,
                    "durationTicks": 288,
                    "midi": 43,
                    "name": "G2",
                    "ticks": 120288,
                    "time": 125.30000000000001,
                    "velocity": 0.2204724409448819
                },
                {
                    "duration": 0.29999999999999716,
                    "durationTicks": 288,
                    "midi": 55,
                    "name": "G3",
                    "ticks": 120288,
                    "time": 125.30000000000001,
                    "velocity": 0.23622047244094488
                },
                {
                    "duration": 0.20000000000000284,
                    "durationTicks": 192,
                    "midi": 64,
                    "name": "E4",
                    "ticks": 120576,
                    "time": 125.60000000000001,
                    "velocity": 0.25984251968503935
                },
                {
                    "duration": 0.20000000000000284,
                    "durationTicks": 192,
                    "midi": 69,
                    "name": "A4",
                    "ticks": 120576,
                    "time": 125.60000000000001,
                    "velocity": 0.25196850393700787
                },
                {
                    "duration": 0.20000000000000284,
                    "durationTicks": 192,
                    "midi": 72,
                    "name": "C5",
                    "ticks": 120576,
                    "time": 125.60000000000001,
                    "velocity": 0.2755905511811024
                },
                {
                    "duration": 0.20000000000000284,
                    "durationTicks": 192,
                    "midi": 76,
                    "name": "E5",
                    "ticks": 120576,
                    "time": 125.60000000000001,
                    "velocity": 0.2755905511811024
                },
                {
                    "duration": 0.20000000000000284,
                    "durationTicks": 192,
                    "midi": 43,
                    "name": "G2",
                    "ticks": 120576,
                    "time": 125.60000000000001,
                    "velocity": 0.25196850393700787
                },
                {
                    "duration": 0.20000000000000284,
                    "durationTicks": 192,
                    "midi": 55,
                    "name": "G3",
                    "ticks": 120576,
                    "time": 125.60000000000001,
                    "velocity": 0.2125984251968504
                },
                {
                    "duration": 0.29999999999999716,
                    "durationTicks": 288,
                    "midi": 72,
                    "name": "C5",
                    "ticks": 120768,
                    "time": 125.80000000000001,
                    "velocity": 0.2755905511811024
                },
                {
                    "duration": 0.29999999999999716,
                    "durationTicks": 288,
                    "midi": 76,
                    "name": "E5",
                    "ticks": 120768,
                    "time": 125.80000000000001,
                    "velocity": 0.2755905511811024
                },
                {
                    "duration": 0.29999999999999716,
                    "durationTicks": 288,
                    "midi": 43,
                    "name": "G2",
                    "ticks": 120768,
                    "time": 125.80000000000001,
                    "velocity": 0.23622047244094488
                },
                {
                    "duration": 0.29999999999999716,
                    "durationTicks": 288,
                    "midi": 55,
                    "name": "G3",
                    "ticks": 120768,
                    "time": 125.80000000000001,
                    "velocity": 0.25984251968503935
                },
                {
                    "duration": 0.29999999999999716,
                    "durationTicks": 288,
                    "midi": 64,
                    "name": "E4",
                    "ticks": 121056,
                    "time": 126.10000000000001,
                    "velocity": 0.2283464566929134
                },
                {
                    "duration": 0.29999999999999716,
                    "durationTicks": 288,
                    "midi": 69,
                    "name": "A4",
                    "ticks": 121056,
                    "time": 126.10000000000001,
                    "velocity": 0.2283464566929134
                },
                {
                    "duration": 0.29999999999999716,
                    "durationTicks": 288,
                    "midi": 43,
                    "name": "G2",
                    "ticks": 121056,
                    "time": 126.10000000000001,
                    "velocity": 0.2283464566929134
                },
                {
                    "duration": 0.29999999999999716,
                    "durationTicks": 288,
                    "midi": 55,
                    "name": "G3",
                    "ticks": 121056,
                    "time": 126.10000000000001,
                    "velocity": 0.2440944881889764
                },
                {
                    "duration": 0.20000000000000284,
                    "durationTicks": 192,
                    "midi": 64,
                    "name": "E4",
                    "ticks": 121344,
                    "time": 126.4,
                    "velocity": 0.25984251968503935
                },
                {
                    "duration": 0.20000000000000284,
                    "durationTicks": 192,
                    "midi": 69,
                    "name": "A4",
                    "ticks": 121344,
                    "time": 126.4,
                    "velocity": 0.23622047244094488
                },
                {
                    "duration": 0.20000000000000284,
                    "durationTicks": 192,
                    "midi": 43,
                    "name": "G2",
                    "ticks": 121344,
                    "time": 126.4,
                    "velocity": 0.2204724409448819
                },
                {
                    "duration": 0.20000000000000284,
                    "durationTicks": 192,
                    "midi": 55,
                    "name": "G3",
                    "ticks": 121344,
                    "time": 126.4,
                    "velocity": 0.2125984251968504
                },
                {
                    "duration": 0.20000000000000284,
                    "durationTicks": 192,
                    "midi": 64,
                    "name": "E4",
                    "ticks": 121536,
                    "time": 126.60000000000001,
                    "velocity": 0.25984251968503935
                },
                {
                    "duration": 0.20000000000000284,
                    "durationTicks": 192,
                    "midi": 69,
                    "name": "A4",
                    "ticks": 121536,
                    "time": 126.60000000000001,
                    "velocity": 0.28346456692913385
                },
                {
                    "duration": 0.20000000000000284,
                    "durationTicks": 192,
                    "midi": 72,
                    "name": "C5",
                    "ticks": 121536,
                    "time": 126.60000000000001,
                    "velocity": 0.28346456692913385
                },
                {
                    "duration": 0.20000000000000284,
                    "durationTicks": 192,
                    "midi": 76,
                    "name": "E5",
                    "ticks": 121536,
                    "time": 126.60000000000001,
                    "velocity": 0.2677165354330709
                },
                {
                    "duration": 0.29999999999999716,
                    "durationTicks": 288,
                    "midi": 45,
                    "name": "A2",
                    "ticks": 121536,
                    "time": 126.60000000000001,
                    "velocity": 0.2677165354330709
                },
                {
                    "duration": 0.29999999999999716,
                    "durationTicks": 288,
                    "midi": 57,
                    "name": "A3",
                    "ticks": 121536,
                    "time": 126.60000000000001,
                    "velocity": 0.25196850393700787
                },
                {
                    "duration": 0.19999999999998863,
                    "durationTicks": 192,
                    "midi": 64,
                    "name": "E4",
                    "ticks": 121728,
                    "time": 126.80000000000001,
                    "velocity": 0.2047244094488189
                },
                {
                    "duration": 0.19999999999998863,
                    "durationTicks": 192,
                    "midi": 69,
                    "name": "A4",
                    "ticks": 121728,
                    "time": 126.80000000000001,
                    "velocity": 0.28346456692913385
                },
                {
                    "duration": 0.19999999999998863,
                    "durationTicks": 192,
                    "midi": 72,
                    "name": "C5",
                    "ticks": 121728,
                    "time": 126.80000000000001,
                    "velocity": 0.28346456692913385
                },
                {
                    "duration": 0.19999999999998863,
                    "durationTicks": 192,
                    "midi": 76,
                    "name": "E5",
                    "ticks": 121728,
                    "time": 126.80000000000001,
                    "velocity": 0.28346456692913385
                },
                {
                    "duration": 0.29999999999999716,
                    "durationTicks": 288,
                    "midi": 45,
                    "name": "A2",
                    "ticks": 121824,
                    "time": 126.9,
                    "velocity": 0.2755905511811024
                },
                {
                    "duration": 0.29999999999999716,
                    "durationTicks": 288,
                    "midi": 57,
                    "name": "A3",
                    "ticks": 121824,
                    "time": 126.9,
                    "velocity": 0.2283464566929134
                },
                {
                    "duration": 0.20000000000000284,
                    "durationTicks": 192,
                    "midi": 64,
                    "name": "E4",
                    "ticks": 121920,
                    "time": 127,
                    "velocity": 0.1889763779527559
                },
                {
                    "duration": 0.20000000000000284,
                    "durationTicks": 192,
                    "midi": 69,
                    "name": "A4",
                    "ticks": 121920,
                    "time": 127,
                    "velocity": 0.28346456692913385
                },
                {
                    "duration": 0.20000000000000284,
                    "durationTicks": 192,
                    "midi": 72,
                    "name": "C5",
                    "ticks": 121920,
                    "time": 127,
                    "velocity": 0.2677165354330709
                },
                {
                    "duration": 0.20000000000000284,
                    "durationTicks": 192,
                    "midi": 76,
                    "name": "E5",
                    "ticks": 121920,
                    "time": 127,
                    "velocity": 0.2755905511811024
                },
                {
                    "duration": 0.20000000000000284,
                    "durationTicks": 192,
                    "midi": 64,
                    "name": "E4",
                    "ticks": 122112,
                    "time": 127.2,
                    "velocity": 0.2047244094488189
                },
                {
                    "duration": 0.20000000000000284,
                    "durationTicks": 192,
                    "midi": 69,
                    "name": "A4",
                    "ticks": 122112,
                    "time": 127.2,
                    "velocity": 0.2755905511811024
                },
                {
                    "duration": 0.20000000000000284,
                    "durationTicks": 192,
                    "midi": 72,
                    "name": "C5",
                    "ticks": 122112,
                    "time": 127.2,
                    "velocity": 0.25984251968503935
                },
                {
                    "duration": 0.20000000000000284,
                    "durationTicks": 192,
                    "midi": 76,
                    "name": "E5",
                    "ticks": 122112,
                    "time": 127.2,
                    "velocity": 0.28346456692913385
                },
                {
                    "duration": 0.20000000000000284,
                    "durationTicks": 192,
                    "midi": 45,
                    "name": "A2",
                    "ticks": 122112,
                    "time": 127.2,
                    "velocity": 0.25984251968503935
                },
                {
                    "duration": 0.20000000000000284,
                    "durationTicks": 192,
                    "midi": 57,
                    "name": "A3",
                    "ticks": 122112,
                    "time": 127.2,
                    "velocity": 0.2283464566929134
                },
                {
                    "duration": 0.20000000000000284,
                    "durationTicks": 192,
                    "midi": 64,
                    "name": "E4",
                    "ticks": 122304,
                    "time": 127.4,
                    "velocity": 0.1968503937007874
                },
                {
                    "duration": 0.20000000000000284,
                    "durationTicks": 192,
                    "midi": 69,
                    "name": "A4",
                    "ticks": 122304,
                    "time": 127.4,
                    "velocity": 0.28346456692913385
                },
                {
                    "duration": 0.20000000000000284,
                    "durationTicks": 192,
                    "midi": 72,
                    "name": "C5",
                    "ticks": 122304,
                    "time": 127.4,
                    "velocity": 0.2755905511811024
                },
                {
                    "duration": 0.20000000000000284,
                    "durationTicks": 192,
                    "midi": 76,
                    "name": "E5",
                    "ticks": 122304,
                    "time": 127.4,
                    "velocity": 0.28346456692913385
                },
                {
                    "duration": 0.29999999999999716,
                    "durationTicks": 288,
                    "midi": 45,
                    "name": "A2",
                    "ticks": 122304,
                    "time": 127.4,
                    "velocity": 0.25984251968503935
                },
                {
                    "duration": 0.29999999999999716,
                    "durationTicks": 288,
                    "midi": 57,
                    "name": "A3",
                    "ticks": 122304,
                    "time": 127.4,
                    "velocity": 0.2283464566929134
                },
                {
                    "duration": 0.20000000000000284,
                    "durationTicks": 192,
                    "midi": 64,
                    "name": "E4",
                    "ticks": 122496,
                    "time": 127.60000000000001,
                    "velocity": 0.1889763779527559
                },
                {
                    "duration": 0.20000000000000284,
                    "durationTicks": 192,
                    "midi": 69,
                    "name": "A4",
                    "ticks": 122496,
                    "time": 127.60000000000001,
                    "velocity": 0.2755905511811024
                },
                {
                    "duration": 0.20000000000000284,
                    "durationTicks": 192,
                    "midi": 72,
                    "name": "C5",
                    "ticks": 122496,
                    "time": 127.60000000000001,
                    "velocity": 0.2677165354330709
                },
                {
                    "duration": 0.20000000000000284,
                    "durationTicks": 192,
                    "midi": 76,
                    "name": "E5",
                    "ticks": 122496,
                    "time": 127.60000000000001,
                    "velocity": 0.25984251968503935
                },
                {
                    "duration": 0.29999999999999716,
                    "durationTicks": 288,
                    "midi": 45,
                    "name": "A2",
                    "ticks": 122592,
                    "time": 127.7,
                    "velocity": 0.2283464566929134
                },
                {
                    "duration": 0.29999999999999716,
                    "durationTicks": 288,
                    "midi": 57,
                    "name": "A3",
                    "ticks": 122592,
                    "time": 127.7,
                    "velocity": 0.2283464566929134
                },
                {
                    "duration": 0.19999999999998863,
                    "durationTicks": 192,
                    "midi": 64,
                    "name": "E4",
                    "ticks": 122688,
                    "time": 127.80000000000001,
                    "velocity": 0.1889763779527559
                },
                {
                    "duration": 0.19999999999998863,
                    "durationTicks": 192,
                    "midi": 69,
                    "name": "A4",
                    "ticks": 122688,
                    "time": 127.80000000000001,
                    "velocity": 0.2677165354330709
                },
                {
                    "duration": 0.19999999999998863,
                    "durationTicks": 192,
                    "midi": 72,
                    "name": "C5",
                    "ticks": 122688,
                    "time": 127.80000000000001,
                    "velocity": 0.28346456692913385
                },
                {
                    "duration": 0.19999999999998863,
                    "durationTicks": 192,
                    "midi": 76,
                    "name": "E5",
                    "ticks": 122688,
                    "time": 127.80000000000001,
                    "velocity": 0.2677165354330709
                },
                {
                    "duration": 0.20000000000001705,
                    "durationTicks": 192,
                    "midi": 64,
                    "name": "E4",
                    "ticks": 122880,
                    "time": 128,
                    "velocity": 0.2283464566929134
                },
                {
                    "duration": 0.20000000000001705,
                    "durationTicks": 192,
                    "midi": 69,
                    "name": "A4",
                    "ticks": 122880,
                    "time": 128,
                    "velocity": 0.28346456692913385
                },
                {
                    "duration": 0.20000000000001705,
                    "durationTicks": 192,
                    "midi": 72,
                    "name": "C5",
                    "ticks": 122880,
                    "time": 128,
                    "velocity": 0.2677165354330709
                },
                {
                    "duration": 0.20000000000001705,
                    "durationTicks": 192,
                    "midi": 76,
                    "name": "E5",
                    "ticks": 122880,
                    "time": 128,
                    "velocity": 0.2677165354330709
                },
                {
                    "duration": 0.20000000000001705,
                    "durationTicks": 192,
                    "midi": 45,
                    "name": "A2",
                    "ticks": 122880,
                    "time": 128,
                    "velocity": 0.25984251968503935
                },
                {
                    "duration": 0.20000000000001705,
                    "durationTicks": 192,
                    "midi": 57,
                    "name": "A3",
                    "ticks": 122880,
                    "time": 128,
                    "velocity": 0.2204724409448819
                },
                {
                    "duration": 0.19999999999998863,
                    "durationTicks": 192,
                    "midi": 67,
                    "name": "G4",
                    "ticks": 123072,
                    "time": 128.20000000000002,
                    "velocity": 0.2755905511811024
                },
                {
                    "duration": 0.19999999999998863,
                    "durationTicks": 192,
                    "midi": 71,
                    "name": "B4",
                    "ticks": 123072,
                    "time": 128.20000000000002,
                    "velocity": 0.2755905511811024
                },
                {
                    "duration": 0.19999999999998863,
                    "durationTicks": 192,
                    "midi": 74,
                    "name": "D5",
                    "ticks": 123072,
                    "time": 128.20000000000002,
                    "velocity": 0.28346456692913385
                },
                {
                    "duration": 0.19999999999998863,
                    "durationTicks": 192,
                    "midi": 79,
                    "name": "G5",
                    "ticks": 123072,
                    "time": 128.20000000000002,
                    "velocity": 0.2677165354330709
                },
                {
                    "duration": 0.29999999999998295,
                    "durationTicks": 288,
                    "midi": 40,
                    "name": "E2",
                    "ticks": 123072,
                    "time": 128.20000000000002,
                    "velocity": 0.2283464566929134
                },
                {
                    "duration": 0.29999999999998295,
                    "durationTicks": 288,
                    "midi": 52,
                    "name": "E3",
                    "ticks": 123072,
                    "time": 128.20000000000002,
                    "velocity": 0.18110236220472442
                },
                {
                    "duration": 0.19999999999998863,
                    "durationTicks": 192,
                    "midi": 67,
                    "name": "G4",
                    "ticks": 123264,
                    "time": 128.4,
                    "velocity": 0.2677165354330709
                },
                {
                    "duration": 0.19999999999998863,
                    "durationTicks": 192,
                    "midi": 71,
                    "name": "B4",
                    "ticks": 123264,
                    "time": 128.4,
                    "velocity": 0.2755905511811024
                },
                {
                    "duration": 0.19999999999998863,
                    "durationTicks": 192,
                    "midi": 74,
                    "name": "D5",
                    "ticks": 123264,
                    "time": 128.4,
                    "velocity": 0.2755905511811024
                },
                {
                    "duration": 0.19999999999998863,
                    "durationTicks": 192,
                    "midi": 79,
                    "name": "G5",
                    "ticks": 123264,
                    "time": 128.4,
                    "velocity": 0.2755905511811024
                },
                {
                    "duration": 0.30000000000001137,
                    "durationTicks": 288,
                    "midi": 40,
                    "name": "E2",
                    "ticks": 123360,
                    "time": 128.5,
                    "velocity": 0.2047244094488189
                },
                {
                    "duration": 0.30000000000001137,
                    "durationTicks": 288,
                    "midi": 52,
                    "name": "E3",
                    "ticks": 123360,
                    "time": 128.5,
                    "velocity": 0.2283464566929134
                },
                {
                    "duration": 0.20000000000001705,
                    "durationTicks": 192,
                    "midi": 67,
                    "name": "G4",
                    "ticks": 123456,
                    "time": 128.6,
                    "velocity": 0.2677165354330709
                },
                {
                    "duration": 0.20000000000001705,
                    "durationTicks": 192,
                    "midi": 71,
                    "name": "B4",
                    "ticks": 123456,
                    "time": 128.6,
                    "velocity": 0.2677165354330709
                },
                {
                    "duration": 0.20000000000001705,
                    "durationTicks": 192,
                    "midi": 74,
                    "name": "D5",
                    "ticks": 123456,
                    "time": 128.6,
                    "velocity": 0.2677165354330709
                },
                {
                    "duration": 0.20000000000001705,
                    "durationTicks": 192,
                    "midi": 79,
                    "name": "G5",
                    "ticks": 123456,
                    "time": 128.6,
                    "velocity": 0.2755905511811024
                },
                {
                    "duration": 0.19999999999998863,
                    "durationTicks": 192,
                    "midi": 67,
                    "name": "G4",
                    "ticks": 123648,
                    "time": 128.8,
                    "velocity": 0.2755905511811024
                },
                {
                    "duration": 0.19999999999998863,
                    "durationTicks": 192,
                    "midi": 71,
                    "name": "B4",
                    "ticks": 123648,
                    "time": 128.8,
                    "velocity": 0.25984251968503935
                },
                {
                    "duration": 0.19999999999998863,
                    "durationTicks": 192,
                    "midi": 74,
                    "name": "D5",
                    "ticks": 123648,
                    "time": 128.8,
                    "velocity": 0.2677165354330709
                },
                {
                    "duration": 0.19999999999998863,
                    "durationTicks": 192,
                    "midi": 79,
                    "name": "G5",
                    "ticks": 123648,
                    "time": 128.8,
                    "velocity": 0.28346456692913385
                },
                {
                    "duration": 0.19999999999998863,
                    "durationTicks": 192,
                    "midi": 40,
                    "name": "E2",
                    "ticks": 123648,
                    "time": 128.8,
                    "velocity": 0.2440944881889764
                },
                {
                    "duration": 0.19999999999998863,
                    "durationTicks": 192,
                    "midi": 52,
                    "name": "E3",
                    "ticks": 123648,
                    "time": 128.8,
                    "velocity": 0.23622047244094488
                },
                {
                    "duration": 0.20000000000001705,
                    "durationTicks": 192,
                    "midi": 67,
                    "name": "G4",
                    "ticks": 123840,
                    "time": 129,
                    "velocity": 0.2755905511811024
                },
                {
                    "duration": 0.20000000000001705,
                    "durationTicks": 192,
                    "midi": 71,
                    "name": "B4",
                    "ticks": 123840,
                    "time": 129,
                    "velocity": 0.2755905511811024
                },
                {
                    "duration": 0.20000000000001705,
                    "durationTicks": 192,
                    "midi": 74,
                    "name": "D5",
                    "ticks": 123840,
                    "time": 129,
                    "velocity": 0.2755905511811024
                },
                {
                    "duration": 0.20000000000001705,
                    "durationTicks": 192,
                    "midi": 79,
                    "name": "G5",
                    "ticks": 123840,
                    "time": 129,
                    "velocity": 0.2755905511811024
                },
                {
                    "duration": 0.30000000000001137,
                    "durationTicks": 288,
                    "midi": 40,
                    "name": "E2",
                    "ticks": 123840,
                    "time": 129,
                    "velocity": 0.25984251968503935
                },
                {
                    "duration": 0.30000000000001137,
                    "durationTicks": 288,
                    "midi": 52,
                    "name": "E3",
                    "ticks": 123840,
                    "time": 129,
                    "velocity": 0.25196850393700787
                },
                {
                    "duration": 0.19999999999998863,
                    "durationTicks": 192,
                    "midi": 67,
                    "name": "G4",
                    "ticks": 124032,
                    "time": 129.20000000000002,
                    "velocity": 0.28346456692913385
                },
                {
                    "duration": 0.19999999999998863,
                    "durationTicks": 192,
                    "midi": 71,
                    "name": "B4",
                    "ticks": 124032,
                    "time": 129.20000000000002,
                    "velocity": 0.2755905511811024
                },
                {
                    "duration": 0.19999999999998863,
                    "durationTicks": 192,
                    "midi": 74,
                    "name": "D5",
                    "ticks": 124032,
                    "time": 129.20000000000002,
                    "velocity": 0.2677165354330709
                },
                {
                    "duration": 0.19999999999998863,
                    "durationTicks": 192,
                    "midi": 79,
                    "name": "G5",
                    "ticks": 124032,
                    "time": 129.20000000000002,
                    "velocity": 0.25984251968503935
                },
                {
                    "duration": 0.29999999999998295,
                    "durationTicks": 288,
                    "midi": 40,
                    "name": "E2",
                    "ticks": 124128,
                    "time": 129.3,
                    "velocity": 0.25984251968503935
                },
                {
                    "duration": 0.29999999999998295,
                    "durationTicks": 288,
                    "midi": 52,
                    "name": "E3",
                    "ticks": 124128,
                    "time": 129.3,
                    "velocity": 0.25196850393700787
                },
                {
                    "duration": 0.19999999999998863,
                    "durationTicks": 192,
                    "midi": 67,
                    "name": "G4",
                    "ticks": 124224,
                    "time": 129.4,
                    "velocity": 0.2755905511811024
                },
                {
                    "duration": 0.19999999999998863,
                    "durationTicks": 192,
                    "midi": 71,
                    "name": "B4",
                    "ticks": 124224,
                    "time": 129.4,
                    "velocity": 0.28346456692913385
                },
                {
                    "duration": 0.19999999999998863,
                    "durationTicks": 192,
                    "midi": 74,
                    "name": "D5",
                    "ticks": 124224,
                    "time": 129.4,
                    "velocity": 0.2755905511811024
                },
                {
                    "duration": 0.19999999999998863,
                    "durationTicks": 192,
                    "midi": 79,
                    "name": "G5",
                    "ticks": 124224,
                    "time": 129.4,
                    "velocity": 0.2755905511811024
                },
                {
                    "duration": 0.20000000000001705,
                    "durationTicks": 192,
                    "midi": 67,
                    "name": "G4",
                    "ticks": 124416,
                    "time": 129.6,
                    "velocity": 0.2755905511811024
                },
                {
                    "duration": 0.20000000000001705,
                    "durationTicks": 192,
                    "midi": 71,
                    "name": "B4",
                    "ticks": 124416,
                    "time": 129.6,
                    "velocity": 0.25984251968503935
                },
                {
                    "duration": 0.20000000000001705,
                    "durationTicks": 192,
                    "midi": 74,
                    "name": "D5",
                    "ticks": 124416,
                    "time": 129.6,
                    "velocity": 0.2755905511811024
                },
                {
                    "duration": 0.20000000000001705,
                    "durationTicks": 192,
                    "midi": 79,
                    "name": "G5",
                    "ticks": 124416,
                    "time": 129.6,
                    "velocity": 0.2440944881889764
                },
                {
                    "duration": 0.20000000000001705,
                    "durationTicks": 192,
                    "midi": 40,
                    "name": "E2",
                    "ticks": 124416,
                    "time": 129.6,
                    "velocity": 0.25984251968503935
                },
                {
                    "duration": 0.20000000000001705,
                    "durationTicks": 192,
                    "midi": 52,
                    "name": "E3",
                    "ticks": 124416,
                    "time": 129.6,
                    "velocity": 0.25196850393700787
                },
                {
                    "duration": 0.29999999999998295,
                    "durationTicks": 288,
                    "midi": 77,
                    "name": "F5",
                    "ticks": 124608,
                    "time": 129.8,
                    "velocity": 0.23622047244094488
                },
                {
                    "duration": 1.5,
                    "durationTicks": 1440,
                    "midi": 57,
                    "name": "A3",
                    "ticks": 124608,
                    "time": 129.8,
                    "velocity": 0.1968503937007874
                },
                {
                    "duration": 1.5,
                    "durationTicks": 1440,
                    "midi": 60,
                    "name": "C4",
                    "ticks": 124608,
                    "time": 129.8,
                    "velocity": 0.1889763779527559
                },
                {
                    "duration": 1.5,
                    "durationTicks": 1440,
                    "midi": 64,
                    "name": "E4",
                    "ticks": 124608,
                    "time": 129.8,
                    "velocity": 0.1732283464566929
                },
                {
                    "duration": 0.30000000000001137,
                    "durationTicks": 288,
                    "midi": 76,
                    "name": "E5",
                    "ticks": 124896,
                    "time": 130.1,
                    "velocity": 0.2755905511811024
                },
                {
                    "duration": 0.19999999999998863,
                    "durationTicks": 192,
                    "midi": 76,
                    "name": "E5",
                    "ticks": 125184,
                    "time": 130.4,
                    "velocity": 0.2755905511811024
                },
                {
                    "duration": 0.30000000000001137,
                    "durationTicks": 288,
                    "midi": 74,
                    "name": "D5",
                    "ticks": 125376,
                    "time": 130.6,
                    "velocity": 0.2755905511811024
                },
                {
                    "duration": 0.30000000000001137,
                    "durationTicks": 288,
                    "midi": 76,
                    "name": "E5",
                    "ticks": 125664,
                    "time": 130.9,
                    "velocity": 0.2677165354330709
                },
                {
                    "duration": 0.19999999999998863,
                    "durationTicks": 192,
                    "midi": 79,
                    "name": "G5",
                    "ticks": 125952,
                    "time": 131.20000000000002,
                    "velocity": 0.2677165354330709
                },
                {
                    "duration": 0.30000000000001137,
                    "durationTicks": 288,
                    "midi": 77,
                    "name": "F5",
                    "ticks": 126144,
                    "time": 131.4,
                    "velocity": 0.28346456692913385
                },
                {
                    "duration": 1.5,
                    "durationTicks": 1440,
                    "midi": 57,
                    "name": "A3",
                    "ticks": 126144,
                    "time": 131.4,
                    "velocity": 0.2204724409448819
                },
                {
                    "duration": 1.5,
                    "durationTicks": 1440,
                    "midi": 60,
                    "name": "C4",
                    "ticks": 126144,
                    "time": 131.4,
                    "velocity": 0.23622047244094488
                },
                {
                    "duration": 1.5,
                    "durationTicks": 1440,
                    "midi": 65,
                    "name": "F4",
                    "ticks": 126144,
                    "time": 131.4,
                    "velocity": 0.2283464566929134
                },
                {
                    "duration": 0.29999999999998295,
                    "durationTicks": 288,
                    "midi": 76,
                    "name": "E5",
                    "ticks": 126432,
                    "time": 131.70000000000002,
                    "velocity": 0.2677165354330709
                },
                {
                    "duration": 0.20000000000001705,
                    "durationTicks": 192,
                    "midi": 76,
                    "name": "E5",
                    "ticks": 126720,
                    "time": 132,
                    "velocity": 0.2755905511811024
                },
                {
                    "duration": 0.29999999999998295,
                    "durationTicks": 288,
                    "midi": 74,
                    "name": "D5",
                    "ticks": 126912,
                    "time": 132.20000000000002,
                    "velocity": 0.2677165354330709
                },
                {
                    "duration": 0.30000000000001137,
                    "durationTicks": 288,
                    "midi": 72,
                    "name": "C5",
                    "ticks": 127200,
                    "time": 132.5,
                    "velocity": 0.28346456692913385
                },
                {
                    "duration": 0.19999999999998863,
                    "durationTicks": 192,
                    "midi": 79,
                    "name": "G5",
                    "ticks": 127488,
                    "time": 132.8,
                    "velocity": 0.25984251968503935
                },
                {
                    "duration": 0.30000000000001137,
                    "durationTicks": 288,
                    "midi": 77,
                    "name": "F5",
                    "ticks": 127680,
                    "time": 133,
                    "velocity": 0.2755905511811024
                },
                {
                    "duration": 1.5,
                    "durationTicks": 1440,
                    "midi": 55,
                    "name": "G3",
                    "ticks": 127680,
                    "time": 133,
                    "velocity": 0.2125984251968504
                },
                {
                    "duration": 1.5,
                    "durationTicks": 1440,
                    "midi": 59,
                    "name": "B3",
                    "ticks": 127680,
                    "time": 133,
                    "velocity": 0.1889763779527559
                },
                {
                    "duration": 1.5,
                    "durationTicks": 1440,
                    "midi": 62,
                    "name": "D4",
                    "ticks": 127680,
                    "time": 133,
                    "velocity": 0.2125984251968504
                },
                {
                    "duration": 1.5,
                    "durationTicks": 1440,
                    "midi": 67,
                    "name": "G4",
                    "ticks": 127680,
                    "time": 133,
                    "velocity": 0.2125984251968504
                },
                {
                    "duration": 0.29999999999998295,
                    "durationTicks": 288,
                    "midi": 76,
                    "name": "E5",
                    "ticks": 127968,
                    "time": 133.3,
                    "velocity": 0.2755905511811024
                },
                {
                    "duration": 0.20000000000001705,
                    "durationTicks": 192,
                    "midi": 76,
                    "name": "E5",
                    "ticks": 128256,
                    "time": 133.6,
                    "velocity": 0.2677165354330709
                },
                {
                    "duration": 0.29999999999998295,
                    "durationTicks": 288,
                    "midi": 74,
                    "name": "D5",
                    "ticks": 128448,
                    "time": 133.8,
                    "velocity": 0.25984251968503935
                },
                {
                    "duration": 0.30000000000001137,
                    "durationTicks": 288,
                    "midi": 76,
                    "name": "E5",
                    "ticks": 128736,
                    "time": 134.1,
                    "velocity": 0.28346456692913385
                },
                {
                    "duration": 0.19999999999998863,
                    "durationTicks": 192,
                    "midi": 79,
                    "name": "G5",
                    "ticks": 129024,
                    "time": 134.4,
                    "velocity": 0.2755905511811024
                },
                {
                    "duration": 0.30000000000001137,
                    "durationTicks": 288,
                    "midi": 77,
                    "name": "F5",
                    "ticks": 129216,
                    "time": 134.6,
                    "velocity": 0.2755905511811024
                },
                {
                    "duration": 0.8000000000000114,
                    "durationTicks": 768,
                    "midi": 57,
                    "name": "A3",
                    "ticks": 129216,
                    "time": 134.6,
                    "velocity": 0.1732283464566929
                },
                {
                    "duration": 0.8000000000000114,
                    "durationTicks": 768,
                    "midi": 60,
                    "name": "C4",
                    "ticks": 129216,
                    "time": 134.6,
                    "velocity": 0.2047244094488189
                },
                {
                    "duration": 0.8000000000000114,
                    "durationTicks": 768,
                    "midi": 64,
                    "name": "E4",
                    "ticks": 129216,
                    "time": 134.6,
                    "velocity": 0.2283464566929134
                },
                {
                    "duration": 0.8000000000000114,
                    "durationTicks": 768,
                    "midi": 69,
                    "name": "A4",
                    "ticks": 129216,
                    "time": 134.6,
                    "velocity": 0.2283464566929134
                },
                {
                    "duration": 0.30000000000001137,
                    "durationTicks": 288,
                    "midi": 76,
                    "name": "E5",
                    "ticks": 129504,
                    "time": 134.9,
                    "velocity": 0.2677165354330709
                },
                {
                    "duration": 0.19999999999998863,
                    "durationTicks": 192,
                    "midi": 76,
                    "name": "E5",
                    "ticks": 129792,
                    "time": 135.20000000000002,
                    "velocity": 0.28346456692913385
                },
                {
                    "duration": 0.19999999999998863,
                    "durationTicks": 192,
                    "midi": 74,
                    "name": "D5",
                    "ticks": 129984,
                    "time": 135.4,
                    "velocity": 0.28346456692913385
                },
                {
                    "duration": 0.8000000000000114,
                    "durationTicks": 768,
                    "midi": 57,
                    "name": "A3",
                    "ticks": 129984,
                    "time": 135.4,
                    "velocity": 0.2047244094488189
                },
                {
                    "duration": 0.8000000000000114,
                    "durationTicks": 768,
                    "midi": 60,
                    "name": "C4",
                    "ticks": 129984,
                    "time": 135.4,
                    "velocity": 0.2125984251968504
                },
                {
                    "duration": 0.8000000000000114,
                    "durationTicks": 768,
                    "midi": 64,
                    "name": "E4",
                    "ticks": 129984,
                    "time": 135.4,
                    "velocity": 0.2047244094488189
                },
                {
                    "duration": 0.8000000000000114,
                    "durationTicks": 768,
                    "midi": 69,
                    "name": "A4",
                    "ticks": 129984,
                    "time": 135.4,
                    "velocity": 0.2047244094488189
                },
                {
                    "duration": 0.10000000000002274,
                    "durationTicks": 96,
                    "midi": 74,
                    "name": "D5",
                    "ticks": 130176,
                    "time": 135.6,
                    "velocity": 0.2677165354330709
                },
                {
                    "duration": 0.29999999999998295,
                    "durationTicks": 288,
                    "midi": 72,
                    "name": "C5",
                    "ticks": 130272,
                    "time": 135.70000000000002,
                    "velocity": 0.25984251968503935
                },
                {
                    "duration": 0.20000000000001705,
                    "durationTicks": 192,
                    "midi": 79,
                    "name": "G5",
                    "ticks": 130560,
                    "time": 136,
                    "velocity": 0.2677165354330709
                },
                {
                    "duration": 0.29999999999998295,
                    "durationTicks": 288,
                    "midi": 77,
                    "name": "F5",
                    "ticks": 130752,
                    "time": 136.20000000000002,
                    "velocity": 0.2677165354330709
                },
                {
                    "duration": 1.5,
                    "durationTicks": 1440,
                    "midi": 57,
                    "name": "A3",
                    "ticks": 130752,
                    "time": 136.20000000000002,
                    "velocity": 0.2204724409448819
                },
                {
                    "duration": 1.5,
                    "durationTicks": 1440,
                    "midi": 60,
                    "name": "C4",
                    "ticks": 130752,
                    "time": 136.20000000000002,
                    "velocity": 0.2125984251968504
                },
                {
                    "duration": 1.5,
                    "durationTicks": 1440,
                    "midi": 64,
                    "name": "E4",
                    "ticks": 130752,
                    "time": 136.20000000000002,
                    "velocity": 0.1968503937007874
                },
                {
                    "duration": 0.30000000000001137,
                    "durationTicks": 288,
                    "midi": 76,
                    "name": "E5",
                    "ticks": 131040,
                    "time": 136.5,
                    "velocity": 0.2755905511811024
                },
                {
                    "duration": 0.19999999999998863,
                    "durationTicks": 192,
                    "midi": 76,
                    "name": "E5",
                    "ticks": 131328,
                    "time": 136.8,
                    "velocity": 0.2755905511811024
                },
                {
                    "duration": 0.20000000000001705,
                    "durationTicks": 192,
                    "midi": 74,
                    "name": "D5",
                    "ticks": 131520,
                    "time": 137,
                    "velocity": 0.2755905511811024
                },
                {
                    "duration": 0.09999999999999432,
                    "durationTicks": 96,
                    "midi": 74,
                    "name": "D5",
                    "ticks": 131712,
                    "time": 137.20000000000002,
                    "velocity": 0.2755905511811024
                },
                {
                    "duration": 0.29999999999998295,
                    "durationTicks": 288,
                    "midi": 76,
                    "name": "E5",
                    "ticks": 131808,
                    "time": 137.3,
                    "velocity": 0.2677165354330709
                },
                {
                    "duration": 0.20000000000001705,
                    "durationTicks": 192,
                    "midi": 79,
                    "name": "G5",
                    "ticks": 132096,
                    "time": 137.6,
                    "velocity": 0.2677165354330709
                },
                {
                    "duration": 0.19999999999998863,
                    "durationTicks": 192,
                    "midi": 77,
                    "name": "F5",
                    "ticks": 132288,
                    "time": 137.8,
                    "velocity": 0.28346456692913385
                },
                {
                    "duration": 1.5,
                    "durationTicks": 1440,
                    "midi": 57,
                    "name": "A3",
                    "ticks": 132288,
                    "time": 137.8,
                    "velocity": 0.2204724409448819
                },
                {
                    "duration": 1.5,
                    "durationTicks": 1440,
                    "midi": 60,
                    "name": "C4",
                    "ticks": 132288,
                    "time": 137.8,
                    "velocity": 0.23622047244094488
                },
                {
                    "duration": 1.5,
                    "durationTicks": 1440,
                    "midi": 65,
                    "name": "F4",
                    "ticks": 132288,
                    "time": 137.8,
                    "velocity": 0.2283464566929134
                },
                {
                    "duration": 0.4000000000000057,
                    "durationTicks": 384,
                    "midi": 76,
                    "name": "E5",
                    "ticks": 132480,
                    "time": 138,
                    "velocity": 0.2677165354330709
                },
                {
                    "duration": 0.19999999999998863,
                    "durationTicks": 192,
                    "midi": 76,
                    "name": "E5",
                    "ticks": 132864,
                    "time": 138.4,
                    "velocity": 0.2755905511811024
                },
                {
                    "duration": 0.20000000000001705,
                    "durationTicks": 192,
                    "midi": 74,
                    "name": "D5",
                    "ticks": 133056,
                    "time": 138.6,
                    "velocity": 0.2677165354330709
                },
                {
                    "duration": 0.09999999999999432,
                    "durationTicks": 96,
                    "midi": 72,
                    "name": "C5",
                    "ticks": 133248,
                    "time": 138.8,
                    "velocity": 0.2677165354330709
                },
                {
                    "duration": 0.30000000000001137,
                    "durationTicks": 288,
                    "midi": 72,
                    "name": "C5",
                    "ticks": 133344,
                    "time": 138.9,
                    "velocity": 0.28346456692913385
                },
                {
                    "duration": 0.19999999999998863,
                    "durationTicks": 192,
                    "midi": 79,
                    "name": "G5",
                    "ticks": 133632,
                    "time": 139.20000000000002,
                    "velocity": 0.25984251968503935
                },
                {
                    "duration": 0.30000000000001137,
                    "durationTicks": 288,
                    "midi": 77,
                    "name": "F5",
                    "ticks": 133824,
                    "time": 139.4,
                    "velocity": 0.2755905511811024
                },
                {
                    "duration": 1.5,
                    "durationTicks": 1440,
                    "midi": 55,
                    "name": "G3",
                    "ticks": 133824,
                    "time": 139.4,
                    "velocity": 0.2125984251968504
                },
                {
                    "duration": 1.5,
                    "durationTicks": 1440,
                    "midi": 59,
                    "name": "B3",
                    "ticks": 133824,
                    "time": 139.4,
                    "velocity": 0.1889763779527559
                },
                {
                    "duration": 1.5,
                    "durationTicks": 1440,
                    "midi": 62,
                    "name": "D4",
                    "ticks": 133824,
                    "time": 139.4,
                    "velocity": 0.2125984251968504
                },
                {
                    "duration": 1.5,
                    "durationTicks": 1440,
                    "midi": 67,
                    "name": "G4",
                    "ticks": 133824,
                    "time": 139.4,
                    "velocity": 0.2125984251968504
                },
                {
                    "duration": 0.29999999999998295,
                    "durationTicks": 288,
                    "midi": 76,
                    "name": "E5",
                    "ticks": 134112,
                    "time": 139.70000000000002,
                    "velocity": 0.2755905511811024
                },
                {
                    "duration": 0.20000000000001705,
                    "durationTicks": 192,
                    "midi": 76,
                    "name": "E5",
                    "ticks": 134400,
                    "time": 140,
                    "velocity": 0.2677165354330709
                },
                {
                    "duration": 0.29999999999998295,
                    "durationTicks": 288,
                    "midi": 74,
                    "name": "D5",
                    "ticks": 134592,
                    "time": 140.20000000000002,
                    "velocity": 0.25984251968503935
                },
                {
                    "duration": 0.30000000000001137,
                    "durationTicks": 288,
                    "midi": 76,
                    "name": "E5",
                    "ticks": 134880,
                    "time": 140.5,
                    "velocity": 0.28346456692913385
                },
                {
                    "duration": 0.4000000000000057,
                    "durationTicks": 384,
                    "midi": 76,
                    "name": "E5",
                    "ticks": 135168,
                    "time": 140.8,
                    "velocity": 0.29133858267716534
                },
                {
                    "duration": 0.4000000000000057,
                    "durationTicks": 384,
                    "midi": 88,
                    "name": "E6",
                    "ticks": 135168,
                    "time": 140.8,
                    "velocity": 0.25984251968503935
                },
                {
                    "duration": 0.30000000000001137,
                    "durationTicks": 288,
                    "midi": 45,
                    "name": "A2",
                    "ticks": 135360,
                    "time": 141,
                    "velocity": 0.29133858267716534
                },
                {
                    "duration": 0.30000000000001137,
                    "durationTicks": 288,
                    "midi": 57,
                    "name": "A3",
                    "ticks": 135360,
                    "time": 141,
                    "velocity": 0.29133858267716534
                },
                {
                    "duration": 0.39999999999997726,
                    "durationTicks": 384,
                    "midi": 76,
                    "name": "E5",
                    "ticks": 135552,
                    "time": 141.20000000000002,
                    "velocity": 0.2992125984251969
                },
                {
                    "duration": 0.39999999999997726,
                    "durationTicks": 384,
                    "midi": 88,
                    "name": "E6",
                    "ticks": 135552,
                    "time": 141.20000000000002,
                    "velocity": 0.25984251968503935
                },
                {
                    "duration": 0.29999999999998295,
                    "durationTicks": 288,
                    "midi": 45,
                    "name": "A2",
                    "ticks": 135648,
                    "time": 141.3,
                    "velocity": 0.28346456692913385
                },
                {
                    "duration": 0.29999999999998295,
                    "durationTicks": 288,
                    "midi": 57,
                    "name": "A3",
                    "ticks": 135648,
                    "time": 141.3,
                    "velocity": 0.2755905511811024
                },
                {
                    "duration": 0.20000000000001705,
                    "durationTicks": 192,
                    "midi": 45,
                    "name": "A2",
                    "ticks": 135936,
                    "time": 141.6,
                    "velocity": 0.31496062992125984
                },
                {
                    "duration": 0.20000000000001705,
                    "durationTicks": 192,
                    "midi": 57,
                    "name": "A3",
                    "ticks": 135936,
                    "time": 141.6,
                    "velocity": 0.2992125984251969
                },
                {
                    "duration": 0.4000000000000057,
                    "durationTicks": 384,
                    "midi": 76,
                    "name": "E5",
                    "ticks": 135936,
                    "time": 141.6,
                    "velocity": 0.2992125984251969
                },
                {
                    "duration": 0.4000000000000057,
                    "durationTicks": 384,
                    "midi": 88,
                    "name": "E6",
                    "ticks": 135936,
                    "time": 141.6,
                    "velocity": 0.25984251968503935
                },
                {
                    "duration": 0.799999999999983,
                    "durationTicks": 768,
                    "midi": 45,
                    "name": "A2",
                    "ticks": 136128,
                    "time": 141.8,
                    "velocity": 0.31496062992125984
                },
                {
                    "duration": 0.799999999999983,
                    "durationTicks": 768,
                    "midi": 57,
                    "name": "A3",
                    "ticks": 136128,
                    "time": 141.8,
                    "velocity": 0.31496062992125984
                },
                {
                    "duration": 0.5999999999999943,
                    "durationTicks": 576,
                    "midi": 74,
                    "name": "D5",
                    "ticks": 136320,
                    "time": 142,
                    "velocity": 0.29133858267716534
                },
                {
                    "duration": 0.5999999999999943,
                    "durationTicks": 576,
                    "midi": 86,
                    "name": "D6",
                    "ticks": 136320,
                    "time": 142,
                    "velocity": 0.25196850393700787
                },
                {
                    "duration": 0.30000000000001137,
                    "durationTicks": 288,
                    "midi": 64,
                    "name": "E4",
                    "ticks": 136896,
                    "time": 142.6,
                    "velocity": 0.25196850393700787
                },
                {
                    "duration": 0.30000000000001137,
                    "durationTicks": 288,
                    "midi": 69,
                    "name": "A4",
                    "ticks": 136896,
                    "time": 142.6,
                    "velocity": 0.2755905511811024
                },
                {
                    "duration": 0.30000000000001137,
                    "durationTicks": 288,
                    "midi": 72,
                    "name": "C5",
                    "ticks": 136896,
                    "time": 142.6,
                    "velocity": 0.31496062992125984
                },
                {
                    "duration": 0.30000000000001137,
                    "durationTicks": 288,
                    "midi": 76,
                    "name": "E5",
                    "ticks": 136896,
                    "time": 142.6,
                    "velocity": 0.29133858267716534
                },
                {
                    "duration": 0.30000000000001137,
                    "durationTicks": 288,
                    "midi": 41,
                    "name": "F2",
                    "ticks": 136896,
                    "time": 142.6,
                    "velocity": 0.25196850393700787
                },
                {
                    "duration": 0.30000000000001137,
                    "durationTicks": 288,
                    "midi": 53,
                    "name": "F3",
                    "ticks": 136896,
                    "time": 142.6,
                    "velocity": 0.2677165354330709
                },
                {
                    "duration": 0.30000000000001137,
                    "durationTicks": 288,
                    "midi": 64,
                    "name": "E4",
                    "ticks": 137184,
                    "time": 142.9,
                    "velocity": 0.23622047244094488
                },
                {
                    "duration": 0.30000000000001137,
                    "durationTicks": 288,
                    "midi": 69,
                    "name": "A4",
                    "ticks": 137184,
                    "time": 142.9,
                    "velocity": 0.23622047244094488
                },
                {
                    "duration": 0.30000000000001137,
                    "durationTicks": 288,
                    "midi": 72,
                    "name": "C5",
                    "ticks": 137184,
                    "time": 142.9,
                    "velocity": 0.2677165354330709
                },
                {
                    "duration": 0.30000000000001137,
                    "durationTicks": 288,
                    "midi": 74,
                    "name": "D5",
                    "ticks": 137184,
                    "time": 142.9,
                    "velocity": 0.29133858267716534
                },
                {
                    "duration": 0.30000000000001137,
                    "durationTicks": 288,
                    "midi": 41,
                    "name": "F2",
                    "ticks": 137184,
                    "time": 142.9,
                    "velocity": 0.23622047244094488
                },
                {
                    "duration": 0.30000000000001137,
                    "durationTicks": 288,
                    "midi": 53,
                    "name": "F3",
                    "ticks": 137184,
                    "time": 142.9,
                    "velocity": 0.2204724409448819
                },
                {
                    "duration": 0.19999999999998863,
                    "durationTicks": 192,
                    "midi": 64,
                    "name": "E4",
                    "ticks": 137472,
                    "time": 143.20000000000002,
                    "velocity": 0.2440944881889764
                },
                {
                    "duration": 0.19999999999998863,
                    "durationTicks": 192,
                    "midi": 69,
                    "name": "A4",
                    "ticks": 137472,
                    "time": 143.20000000000002,
                    "velocity": 0.25196850393700787
                },
                {
                    "duration": 0.19999999999998863,
                    "durationTicks": 192,
                    "midi": 72,
                    "name": "C5",
                    "ticks": 137472,
                    "time": 143.20000000000002,
                    "velocity": 0.2677165354330709
                },
                {
                    "duration": 0.19999999999998863,
                    "durationTicks": 192,
                    "midi": 74,
                    "name": "D5",
                    "ticks": 137472,
                    "time": 143.20000000000002,
                    "velocity": 0.30708661417322836
                },
                {
                    "duration": 0.19999999999998863,
                    "durationTicks": 192,
                    "midi": 41,
                    "name": "F2",
                    "ticks": 137472,
                    "time": 143.20000000000002,
                    "velocity": 0.2440944881889764
                },
                {
                    "duration": 0.19999999999998863,
                    "durationTicks": 192,
                    "midi": 53,
                    "name": "F3",
                    "ticks": 137472,
                    "time": 143.20000000000002,
                    "velocity": 0.23622047244094488
                },
                {
                    "duration": 0.30000000000001137,
                    "durationTicks": 288,
                    "midi": 64,
                    "name": "E4",
                    "ticks": 137664,
                    "time": 143.4,
                    "velocity": 0.25196850393700787
                },
                {
                    "duration": 0.30000000000001137,
                    "durationTicks": 288,
                    "midi": 69,
                    "name": "A4",
                    "ticks": 137664,
                    "time": 143.4,
                    "velocity": 0.2755905511811024
                },
                {
                    "duration": 0.30000000000001137,
                    "durationTicks": 288,
                    "midi": 72,
                    "name": "C5",
                    "ticks": 137664,
                    "time": 143.4,
                    "velocity": 0.2755905511811024
                },
                {
                    "duration": 0.30000000000001137,
                    "durationTicks": 288,
                    "midi": 74,
                    "name": "D5",
                    "ticks": 137664,
                    "time": 143.4,
                    "velocity": 0.2992125984251969
                },
                {
                    "duration": 0.30000000000001137,
                    "durationTicks": 288,
                    "midi": 41,
                    "name": "F2",
                    "ticks": 137664,
                    "time": 143.4,
                    "velocity": 0.25984251968503935
                },
                {
                    "duration": 0.30000000000001137,
                    "durationTicks": 288,
                    "midi": 53,
                    "name": "F3",
                    "ticks": 137664,
                    "time": 143.4,
                    "velocity": 0.25196850393700787
                },
                {
                    "duration": 0.29999999999998295,
                    "durationTicks": 288,
                    "midi": 64,
                    "name": "E4",
                    "ticks": 137952,
                    "time": 143.70000000000002,
                    "velocity": 0.2204724409448819
                },
                {
                    "duration": 0.29999999999998295,
                    "durationTicks": 288,
                    "midi": 69,
                    "name": "A4",
                    "ticks": 137952,
                    "time": 143.70000000000002,
                    "velocity": 0.2677165354330709
                },
                {
                    "duration": 0.29999999999998295,
                    "durationTicks": 288,
                    "midi": 72,
                    "name": "C5",
                    "ticks": 137952,
                    "time": 143.70000000000002,
                    "velocity": 0.30708661417322836
                },
                {
                    "duration": 0.29999999999998295,
                    "durationTicks": 288,
                    "midi": 41,
                    "name": "F2",
                    "ticks": 137952,
                    "time": 143.70000000000002,
                    "velocity": 0.2047244094488189
                },
                {
                    "duration": 0.29999999999998295,
                    "durationTicks": 288,
                    "midi": 53,
                    "name": "F3",
                    "ticks": 137952,
                    "time": 143.70000000000002,
                    "velocity": 0.1968503937007874
                },
                {
                    "duration": 0.20000000000001705,
                    "durationTicks": 192,
                    "midi": 64,
                    "name": "E4",
                    "ticks": 138240,
                    "time": 144,
                    "velocity": 0.23622047244094488
                },
                {
                    "duration": 0.20000000000001705,
                    "durationTicks": 192,
                    "midi": 69,
                    "name": "A4",
                    "ticks": 138240,
                    "time": 144,
                    "velocity": 0.25196850393700787
                },
                {
                    "duration": 0.20000000000001705,
                    "durationTicks": 192,
                    "midi": 71,
                    "name": "B4",
                    "ticks": 138240,
                    "time": 144,
                    "velocity": 0.2992125984251969
                },
                {
                    "duration": 0.20000000000001705,
                    "durationTicks": 192,
                    "midi": 41,
                    "name": "F2",
                    "ticks": 138240,
                    "time": 144,
                    "velocity": 0.2047244094488189
                },
                {
                    "duration": 0.20000000000001705,
                    "durationTicks": 192,
                    "midi": 53,
                    "name": "F3",
                    "ticks": 138240,
                    "time": 144,
                    "velocity": 0.2047244094488189
                },
                {
                    "duration": 0.19999999999998863,
                    "durationTicks": 192,
                    "midi": 64,
                    "name": "E4",
                    "ticks": 138432,
                    "time": 144.20000000000002,
                    "velocity": 0.25196850393700787
                },
                {
                    "duration": 0.19999999999998863,
                    "durationTicks": 192,
                    "midi": 69,
                    "name": "A4",
                    "ticks": 138432,
                    "time": 144.20000000000002,
                    "velocity": 0.2440944881889764
                },
                {
                    "duration": 0.19999999999998863,
                    "durationTicks": 192,
                    "midi": 72,
                    "name": "C5",
                    "ticks": 138432,
                    "time": 144.20000000000002,
                    "velocity": 0.2755905511811024
                },
                {
                    "duration": 0.29999999999998295,
                    "durationTicks": 288,
                    "midi": 43,
                    "name": "G2",
                    "ticks": 138432,
                    "time": 144.20000000000002,
                    "velocity": 0.2440944881889764
                },
                {
                    "duration": 0.29999999999998295,
                    "durationTicks": 288,
                    "midi": 55,
                    "name": "G3",
                    "ticks": 138432,
                    "time": 144.20000000000002,
                    "velocity": 0.2440944881889764
                },
                {
                    "duration": 0.09999999999999432,
                    "durationTicks": 96,
                    "midi": 72,
                    "name": "C5",
                    "ticks": 138624,
                    "time": 144.4,
                    "velocity": 0.29133858267716534
                },
                {
                    "duration": 0.30000000000001137,
                    "durationTicks": 288,
                    "midi": 64,
                    "name": "E4",
                    "ticks": 138720,
                    "time": 144.5,
                    "velocity": 0.23622047244094488
                },
                {
                    "duration": 0.30000000000001137,
                    "durationTicks": 288,
                    "midi": 69,
                    "name": "A4",
                    "ticks": 138720,
                    "time": 144.5,
                    "velocity": 0.2283464566929134
                },
                {
                    "duration": 0.30000000000001137,
                    "durationTicks": 288,
                    "midi": 43,
                    "name": "G2",
                    "ticks": 138720,
                    "time": 144.5,
                    "velocity": 0.2204724409448819
                },
                {
                    "duration": 0.30000000000001137,
                    "durationTicks": 288,
                    "midi": 55,
                    "name": "G3",
                    "ticks": 138720,
                    "time": 144.5,
                    "velocity": 0.2283464566929134
                },
                {
                    "duration": 0.19999999999998863,
                    "durationTicks": 192,
                    "midi": 64,
                    "name": "E4",
                    "ticks": 139008,
                    "time": 144.8,
                    "velocity": 0.2125984251968504
                },
                {
                    "duration": 0.19999999999998863,
                    "durationTicks": 192,
                    "midi": 69,
                    "name": "A4",
                    "ticks": 139008,
                    "time": 144.8,
                    "velocity": 0.1732283464566929
                },
                {
                    "duration": 0.19999999999998863,
                    "durationTicks": 192,
                    "midi": 71,
                    "name": "B4",
                    "ticks": 139008,
                    "time": 144.8,
                    "velocity": 0.29133858267716534
                },
                {
                    "duration": 0.19999999999998863,
                    "durationTicks": 192,
                    "midi": 43,
                    "name": "G2",
                    "ticks": 139008,
                    "time": 144.8,
                    "velocity": 0.2283464566929134
                },
                {
                    "duration": 0.19999999999998863,
                    "durationTicks": 192,
                    "midi": 55,
                    "name": "G3",
                    "ticks": 139008,
                    "time": 144.8,
                    "velocity": 0.2204724409448819
                },
                {
                    "duration": 0.20000000000001705,
                    "durationTicks": 192,
                    "midi": 64,
                    "name": "E4",
                    "ticks": 139200,
                    "time": 145,
                    "velocity": 0.2440944881889764
                },
                {
                    "duration": 0.20000000000001705,
                    "durationTicks": 192,
                    "midi": 69,
                    "name": "A4",
                    "ticks": 139200,
                    "time": 145,
                    "velocity": 0.2677165354330709
                },
                {
                    "duration": 0.20000000000001705,
                    "durationTicks": 192,
                    "midi": 72,
                    "name": "C5",
                    "ticks": 139200,
                    "time": 145,
                    "velocity": 0.2677165354330709
                },
                {
                    "duration": 0.30000000000001137,
                    "durationTicks": 288,
                    "midi": 43,
                    "name": "G2",
                    "ticks": 139200,
                    "time": 145,
                    "velocity": 0.2440944881889764
                },
                {
                    "duration": 0.30000000000001137,
                    "durationTicks": 288,
                    "midi": 55,
                    "name": "G3",
                    "ticks": 139200,
                    "time": 145,
                    "velocity": 0.23622047244094488
                },
                {
                    "duration": 0.09999999999999432,
                    "durationTicks": 96,
                    "midi": 67,
                    "name": "G4",
                    "ticks": 139392,
                    "time": 145.20000000000002,
                    "velocity": 0.29133858267716534
                },
                {
                    "duration": 0.29999999999998295,
                    "durationTicks": 288,
                    "midi": 64,
                    "name": "E4",
                    "ticks": 139488,
                    "time": 145.3,
                    "velocity": 0.2283464566929134
                },
                {
                    "duration": 0.29999999999998295,
                    "durationTicks": 288,
                    "midi": 69,
                    "name": "A4",
                    "ticks": 139488,
                    "time": 145.3,
                    "velocity": 0.2677165354330709
                },
                {
                    "duration": 0.29999999999998295,
                    "durationTicks": 288,
                    "midi": 72,
                    "name": "C5",
                    "ticks": 139488,
                    "time": 145.3,
                    "velocity": 0.2677165354330709
                },
                {
                    "duration": 0.29999999999998295,
                    "durationTicks": 288,
                    "midi": 43,
                    "name": "G2",
                    "ticks": 139488,
                    "time": 145.3,
                    "velocity": 0.2125984251968504
                },
                {
                    "duration": 0.29999999999998295,
                    "durationTicks": 288,
                    "midi": 55,
                    "name": "G3",
                    "ticks": 139488,
                    "time": 145.3,
                    "velocity": 0.2125984251968504
                },
                {
                    "duration": 0.20000000000001705,
                    "durationTicks": 192,
                    "midi": 64,
                    "name": "E4",
                    "ticks": 139776,
                    "time": 145.6,
                    "velocity": 0.2283464566929134
                },
                {
                    "duration": 0.20000000000001705,
                    "durationTicks": 192,
                    "midi": 69,
                    "name": "A4",
                    "ticks": 139776,
                    "time": 145.6,
                    "velocity": 0.25984251968503935
                },
                {
                    "duration": 0.20000000000001705,
                    "durationTicks": 192,
                    "midi": 72,
                    "name": "C5",
                    "ticks": 139776,
                    "time": 145.6,
                    "velocity": 0.25984251968503935
                },
                {
                    "duration": 0.20000000000001705,
                    "durationTicks": 192,
                    "midi": 43,
                    "name": "G2",
                    "ticks": 139776,
                    "time": 145.6,
                    "velocity": 0.2125984251968504
                },
                {
                    "duration": 0.20000000000001705,
                    "durationTicks": 192,
                    "midi": 55,
                    "name": "G3",
                    "ticks": 139776,
                    "time": 145.6,
                    "velocity": 0.2204724409448819
                },
                {
                    "duration": 0.29999999999998295,
                    "durationTicks": 288,
                    "midi": 64,
                    "name": "E4",
                    "ticks": 139968,
                    "time": 145.8,
                    "velocity": 0.2283464566929134
                },
                {
                    "duration": 0.29999999999998295,
                    "durationTicks": 288,
                    "midi": 69,
                    "name": "A4",
                    "ticks": 139968,
                    "time": 145.8,
                    "velocity": 0.2755905511811024
                },
                {
                    "duration": 0.29999999999998295,
                    "durationTicks": 288,
                    "midi": 72,
                    "name": "C5",
                    "ticks": 139968,
                    "time": 145.8,
                    "velocity": 0.2677165354330709
                },
                {
                    "duration": 0.29999999999998295,
                    "durationTicks": 288,
                    "midi": 76,
                    "name": "E5",
                    "ticks": 139968,
                    "time": 145.8,
                    "velocity": 0.29133858267716534
                },
                {
                    "duration": 0.29999999999998295,
                    "durationTicks": 288,
                    "midi": 45,
                    "name": "A2",
                    "ticks": 139968,
                    "time": 145.8,
                    "velocity": 0.2125984251968504
                },
                {
                    "duration": 0.29999999999998295,
                    "durationTicks": 288,
                    "midi": 57,
                    "name": "A3",
                    "ticks": 139968,
                    "time": 145.8,
                    "velocity": 0.25196850393700787
                },
                {
                    "duration": 0.30000000000001137,
                    "durationTicks": 288,
                    "midi": 64,
                    "name": "E4",
                    "ticks": 140256,
                    "time": 146.1,
                    "velocity": 0.2125984251968504
                },
                {
                    "duration": 0.30000000000001137,
                    "durationTicks": 288,
                    "midi": 69,
                    "name": "A4",
                    "ticks": 140256,
                    "time": 146.1,
                    "velocity": 0.2204724409448819
                },
                {
                    "duration": 0.30000000000001137,
                    "durationTicks": 288,
                    "midi": 72,
                    "name": "C5",
                    "ticks": 140256,
                    "time": 146.1,
                    "velocity": 0.2283464566929134
                },
                {
                    "duration": 0.30000000000001137,
                    "durationTicks": 288,
                    "midi": 74,
                    "name": "D5",
                    "ticks": 140256,
                    "time": 146.1,
                    "velocity": 0.30708661417322836
                },
                {
                    "duration": 0.30000000000001137,
                    "durationTicks": 288,
                    "midi": 45,
                    "name": "A2",
                    "ticks": 140256,
                    "time": 146.1,
                    "velocity": 0.2440944881889764
                },
                {
                    "duration": 0.30000000000001137,
                    "durationTicks": 288,
                    "midi": 57,
                    "name": "A3",
                    "ticks": 140256,
                    "time": 146.1,
                    "velocity": 0.23622047244094488
                },
                {
                    "duration": 0.19999999999998863,
                    "durationTicks": 192,
                    "midi": 64,
                    "name": "E4",
                    "ticks": 140544,
                    "time": 146.4,
                    "velocity": 0.2283464566929134
                },
                {
                    "duration": 0.19999999999998863,
                    "durationTicks": 192,
                    "midi": 69,
                    "name": "A4",
                    "ticks": 140544,
                    "time": 146.4,
                    "velocity": 0.25196850393700787
                },
                {
                    "duration": 0.19999999999998863,
                    "durationTicks": 192,
                    "midi": 72,
                    "name": "C5",
                    "ticks": 140544,
                    "time": 146.4,
                    "velocity": 0.25196850393700787
                },
                {
                    "duration": 0.19999999999998863,
                    "durationTicks": 192,
                    "midi": 74,
                    "name": "D5",
                    "ticks": 140544,
                    "time": 146.4,
                    "velocity": 0.2992125984251969
                },
                {
                    "duration": 0.19999999999998863,
                    "durationTicks": 192,
                    "midi": 45,
                    "name": "A2",
                    "ticks": 140544,
                    "time": 146.4,
                    "velocity": 0.2440944881889764
                },
                {
                    "duration": 0.19999999999998863,
                    "durationTicks": 192,
                    "midi": 57,
                    "name": "A3",
                    "ticks": 140544,
                    "time": 146.4,
                    "velocity": 0.23622047244094488
                },
                {
                    "duration": 0.20000000000001705,
                    "durationTicks": 192,
                    "midi": 64,
                    "name": "E4",
                    "ticks": 140736,
                    "time": 146.6,
                    "velocity": 0.2204724409448819
                },
                {
                    "duration": 0.20000000000001705,
                    "durationTicks": 192,
                    "midi": 69,
                    "name": "A4",
                    "ticks": 140736,
                    "time": 146.6,
                    "velocity": 0.23622047244094488
                },
                {
                    "duration": 0.20000000000001705,
                    "durationTicks": 192,
                    "midi": 72,
                    "name": "C5",
                    "ticks": 140736,
                    "time": 146.6,
                    "velocity": 0.25196850393700787
                },
                {
                    "duration": 0.30000000000001137,
                    "durationTicks": 288,
                    "midi": 45,
                    "name": "A2",
                    "ticks": 140736,
                    "time": 146.6,
                    "velocity": 0.25196850393700787
                },
                {
                    "duration": 0.30000000000001137,
                    "durationTicks": 288,
                    "midi": 57,
                    "name": "A3",
                    "ticks": 140736,
                    "time": 146.6,
                    "velocity": 0.25196850393700787
                },
                {
                    "duration": 0.09999999999999432,
                    "durationTicks": 96,
                    "midi": 72,
                    "name": "C5",
                    "ticks": 140928,
                    "time": 146.8,
                    "velocity": 0.30708661417322836
                },
                {
                    "duration": 0.30000000000001137,
                    "durationTicks": 288,
                    "midi": 64,
                    "name": "E4",
                    "ticks": 141024,
                    "time": 146.9,
                    "velocity": 0.2125984251968504
                },
                {
                    "duration": 0.30000000000001137,
                    "durationTicks": 288,
                    "midi": 69,
                    "name": "A4",
                    "ticks": 141024,
                    "time": 146.9,
                    "velocity": 0.1968503937007874
                },
                {
                    "duration": 0.30000000000001137,
                    "durationTicks": 288,
                    "midi": 45,
                    "name": "A2",
                    "ticks": 141024,
                    "time": 146.9,
                    "velocity": 0.1889763779527559
                },
                {
                    "duration": 0.30000000000001137,
                    "durationTicks": 288,
                    "midi": 57,
                    "name": "A3",
                    "ticks": 141024,
                    "time": 146.9,
                    "velocity": 0.18110236220472442
                },
                {
                    "duration": 0.19999999999998863,
                    "durationTicks": 192,
                    "midi": 64,
                    "name": "E4",
                    "ticks": 141312,
                    "time": 147.20000000000002,
                    "velocity": 0.1968503937007874
                },
                {
                    "duration": 0.19999999999998863,
                    "durationTicks": 192,
                    "midi": 69,
                    "name": "A4",
                    "ticks": 141312,
                    "time": 147.20000000000002,
                    "velocity": 0.1968503937007874
                },
                {
                    "duration": 0.19999999999998863,
                    "durationTicks": 192,
                    "midi": 72,
                    "name": "C5",
                    "ticks": 141312,
                    "time": 147.20000000000002,
                    "velocity": 0.2992125984251969
                },
                {
                    "duration": 0.19999999999998863,
                    "durationTicks": 192,
                    "midi": 45,
                    "name": "A2",
                    "ticks": 141312,
                    "time": 147.20000000000002,
                    "velocity": 0.2283464566929134
                },
                {
                    "duration": 0.19999999999998863,
                    "durationTicks": 192,
                    "midi": 57,
                    "name": "A3",
                    "ticks": 141312,
                    "time": 147.20000000000002,
                    "velocity": 0.2125984251968504
                },
                {
                    "duration": 0.19999999999998863,
                    "durationTicks": 192,
                    "midi": 64,
                    "name": "E4",
                    "ticks": 141504,
                    "time": 147.4,
                    "velocity": 0.2440944881889764
                },
                {
                    "duration": 0.19999999999998863,
                    "durationTicks": 192,
                    "midi": 67,
                    "name": "G4",
                    "ticks": 141504,
                    "time": 147.4,
                    "velocity": 0.2677165354330709
                },
                {
                    "duration": 0.19999999999998863,
                    "durationTicks": 192,
                    "midi": 71,
                    "name": "B4",
                    "ticks": 141504,
                    "time": 147.4,
                    "velocity": 0.2992125984251969
                },
                {
                    "duration": 0.30000000000001137,
                    "durationTicks": 288,
                    "midi": 40,
                    "name": "E2",
                    "ticks": 141504,
                    "time": 147.4,
                    "velocity": 0.2283464566929134
                },
                {
                    "duration": 0.30000000000001137,
                    "durationTicks": 288,
                    "midi": 52,
                    "name": "E3",
                    "ticks": 141504,
                    "time": 147.4,
                    "velocity": 0.2125984251968504
                },
                {
                    "duration": 0.10000000000002274,
                    "durationTicks": 96,
                    "midi": 72,
                    "name": "C5",
                    "ticks": 141696,
                    "time": 147.6,
                    "velocity": 0.29133858267716534
                },
                {
                    "duration": 0.29999999999998295,
                    "durationTicks": 288,
                    "midi": 64,
                    "name": "E4",
                    "ticks": 141792,
                    "time": 147.70000000000002,
                    "velocity": 0.1968503937007874
                },
                {
                    "duration": 0.29999999999998295,
                    "durationTicks": 288,
                    "midi": 67,
                    "name": "G4",
                    "ticks": 141792,
                    "time": 147.70000000000002,
                    "velocity": 0.2204724409448819
                },
                {
                    "duration": 0.29999999999998295,
                    "durationTicks": 288,
                    "midi": 40,
                    "name": "E2",
                    "ticks": 141792,
                    "time": 147.70000000000002,
                    "velocity": 0.1968503937007874
                },
                {
                    "duration": 0.29999999999998295,
                    "durationTicks": 288,
                    "midi": 52,
                    "name": "E3",
                    "ticks": 141792,
                    "time": 147.70000000000002,
                    "velocity": 0.2125984251968504
                },
                {
                    "duration": 0.20000000000001705,
                    "durationTicks": 192,
                    "midi": 67,
                    "name": "G4",
                    "ticks": 142080,
                    "time": 148,
                    "velocity": 0.2440944881889764
                },
                {
                    "duration": 0.20000000000001705,
                    "durationTicks": 192,
                    "midi": 71,
                    "name": "B4",
                    "ticks": 142080,
                    "time": 148,
                    "velocity": 0.23622047244094488
                },
                {
                    "duration": 0.20000000000001705,
                    "durationTicks": 192,
                    "midi": 76,
                    "name": "E5",
                    "ticks": 142080,
                    "time": 148,
                    "velocity": 0.2047244094488189
                },
                {
                    "duration": 0.20000000000001705,
                    "durationTicks": 192,
                    "midi": 79,
                    "name": "G5",
                    "ticks": 142080,
                    "time": 148,
                    "velocity": 0.29133858267716534
                },
                {
                    "duration": 0.20000000000001705,
                    "durationTicks": 192,
                    "midi": 40,
                    "name": "E2",
                    "ticks": 142080,
                    "time": 148,
                    "velocity": 0.23622047244094488
                },
                {
                    "duration": 0.20000000000001705,
                    "durationTicks": 192,
                    "midi": 52,
                    "name": "E3",
                    "ticks": 142080,
                    "time": 148,
                    "velocity": 0.2440944881889764
                },
                {
                    "duration": 0.19999999999998863,
                    "durationTicks": 192,
                    "midi": 64,
                    "name": "E4",
                    "ticks": 142272,
                    "time": 148.20000000000002,
                    "velocity": 0.23622047244094488
                },
                {
                    "duration": 0.19999999999998863,
                    "durationTicks": 192,
                    "midi": 67,
                    "name": "G4",
                    "ticks": 142272,
                    "time": 148.20000000000002,
                    "velocity": 0.25984251968503935
                },
                {
                    "duration": 0.19999999999998863,
                    "durationTicks": 192,
                    "midi": 71,
                    "name": "B4",
                    "ticks": 142272,
                    "time": 148.20000000000002,
                    "velocity": 0.2677165354330709
                },
                {
                    "duration": 0.29999999999998295,
                    "durationTicks": 288,
                    "midi": 40,
                    "name": "E2",
                    "ticks": 142272,
                    "time": 148.20000000000002,
                    "velocity": 0.2440944881889764
                },
                {
                    "duration": 0.29999999999998295,
                    "durationTicks": 288,
                    "midi": 52,
                    "name": "E3",
                    "ticks": 142272,
                    "time": 148.20000000000002,
                    "velocity": 0.25196850393700787
                },
                {
                    "duration": 0.09999999999999432,
                    "durationTicks": 96,
                    "midi": 71,
                    "name": "B4",
                    "ticks": 142464,
                    "time": 148.4,
                    "velocity": 0.30708661417322836
                },
                {
                    "duration": 0.30000000000001137,
                    "durationTicks": 288,
                    "midi": 64,
                    "name": "E4",
                    "ticks": 142560,
                    "time": 148.5,
                    "velocity": 0.1889763779527559
                },
                {
                    "duration": 0.30000000000001137,
                    "durationTicks": 288,
                    "midi": 67,
                    "name": "G4",
                    "ticks": 142560,
                    "time": 148.5,
                    "velocity": 0.1889763779527559
                },
                {
                    "duration": 0.30000000000001137,
                    "durationTicks": 288,
                    "midi": 48,
                    "name": "C3",
                    "ticks": 142560,
                    "time": 148.5,
                    "velocity": 0.2125984251968504
                },
                {
                    "duration": 0.30000000000001137,
                    "durationTicks": 288,
                    "midi": 60,
                    "name": "C4",
                    "ticks": 142560,
                    "time": 148.5,
                    "velocity": 0.2677165354330709
                },
                {
                    "duration": 0.19999999999998863,
                    "durationTicks": 192,
                    "midi": 64,
                    "name": "E4",
                    "ticks": 142848,
                    "time": 148.8,
                    "velocity": 0.23622047244094488
                },
                {
                    "duration": 0.19999999999998863,
                    "durationTicks": 192,
                    "midi": 67,
                    "name": "G4",
                    "ticks": 142848,
                    "time": 148.8,
                    "velocity": 0.23622047244094488
                },
                {
                    "duration": 0.19999999999998863,
                    "durationTicks": 192,
                    "midi": 71,
                    "name": "B4",
                    "ticks": 142848,
                    "time": 148.8,
                    "velocity": 0.29133858267716534
                },
                {
                    "duration": 0.19999999999998863,
                    "durationTicks": 192,
                    "midi": 47,
                    "name": "B2",
                    "ticks": 142848,
                    "time": 148.8,
                    "velocity": 0.2283464566929134
                },
                {
                    "duration": 0.19999999999998863,
                    "durationTicks": 192,
                    "midi": 59,
                    "name": "B3",
                    "ticks": 142848,
                    "time": 148.8,
                    "velocity": 0.1732283464566929
                },
                {
                    "duration": 0.30000000000001137,
                    "durationTicks": 288,
                    "midi": 69,
                    "name": "A4",
                    "ticks": 143040,
                    "time": 149,
                    "velocity": 0.2755905511811024
                },
                {
                    "duration": 0.30000000000001137,
                    "durationTicks": 288,
                    "midi": 72,
                    "name": "C5",
                    "ticks": 143040,
                    "time": 149,
                    "velocity": 0.31496062992125984
                },
                {
                    "duration": 0.30000000000001137,
                    "durationTicks": 288,
                    "midi": 76,
                    "name": "E5",
                    "ticks": 143040,
                    "time": 149,
                    "velocity": 0.25196850393700787
                },
                {
                    "duration": 0.30000000000001137,
                    "durationTicks": 288,
                    "midi": 81,
                    "name": "A5",
                    "ticks": 143040,
                    "time": 149,
                    "velocity": 0.2992125984251969
                },
                {
                    "duration": 0.30000000000001137,
                    "durationTicks": 288,
                    "midi": 41,
                    "name": "F2",
                    "ticks": 143040,
                    "time": 149,
                    "velocity": 0.25196850393700787
                },
                {
                    "duration": 0.30000000000001137,
                    "durationTicks": 288,
                    "midi": 53,
                    "name": "F3",
                    "ticks": 143040,
                    "time": 149,
                    "velocity": 0.2677165354330709
                },
                {
                    "duration": 0.29999999999998295,
                    "durationTicks": 288,
                    "midi": 69,
                    "name": "A4",
                    "ticks": 143328,
                    "time": 149.3,
                    "velocity": 0.23622047244094488
                },
                {
                    "duration": 0.29999999999998295,
                    "durationTicks": 288,
                    "midi": 72,
                    "name": "C5",
                    "ticks": 143328,
                    "time": 149.3,
                    "velocity": 0.2677165354330709
                },
                {
                    "duration": 0.29999999999998295,
                    "durationTicks": 288,
                    "midi": 76,
                    "name": "E5",
                    "ticks": 143328,
                    "time": 149.3,
                    "velocity": 0.23622047244094488
                },
                {
                    "duration": 0.29999999999998295,
                    "durationTicks": 288,
                    "midi": 79,
                    "name": "G5",
                    "ticks": 143328,
                    "time": 149.3,
                    "velocity": 0.31496062992125984
                },
                {
                    "duration": 0.29999999999998295,
                    "durationTicks": 288,
                    "midi": 41,
                    "name": "F2",
                    "ticks": 143328,
                    "time": 149.3,
                    "velocity": 0.23622047244094488
                },
                {
                    "duration": 0.29999999999998295,
                    "durationTicks": 288,
                    "midi": 53,
                    "name": "F3",
                    "ticks": 143328,
                    "time": 149.3,
                    "velocity": 0.2204724409448819
                },
                {
                    "duration": 0.20000000000001705,
                    "durationTicks": 192,
                    "midi": 64,
                    "name": "E4",
                    "ticks": 143616,
                    "time": 149.6,
                    "velocity": 0.2440944881889764
                },
                {
                    "duration": 0.20000000000001705,
                    "durationTicks": 192,
                    "midi": 69,
                    "name": "A4",
                    "ticks": 143616,
                    "time": 149.6,
                    "velocity": 0.25196850393700787
                },
                {
                    "duration": 0.20000000000001705,
                    "durationTicks": 192,
                    "midi": 72,
                    "name": "C5",
                    "ticks": 143616,
                    "time": 149.6,
                    "velocity": 0.2677165354330709
                },
                {
                    "duration": 0.20000000000001705,
                    "durationTicks": 192,
                    "midi": 76,
                    "name": "E5",
                    "ticks": 143616,
                    "time": 149.6,
                    "velocity": 0.30708661417322836
                },
                {
                    "duration": 0.20000000000001705,
                    "durationTicks": 192,
                    "midi": 41,
                    "name": "F2",
                    "ticks": 143616,
                    "time": 149.6,
                    "velocity": 0.2440944881889764
                },
                {
                    "duration": 0.20000000000001705,
                    "durationTicks": 192,
                    "midi": 53,
                    "name": "F3",
                    "ticks": 143616,
                    "time": 149.6,
                    "velocity": 0.23622047244094488
                },
                {
                    "duration": 0.19999999999998863,
                    "durationTicks": 192,
                    "midi": 64,
                    "name": "E4",
                    "ticks": 143808,
                    "time": 149.8,
                    "velocity": 0.25196850393700787
                },
                {
                    "duration": 0.19999999999998863,
                    "durationTicks": 192,
                    "midi": 69,
                    "name": "A4",
                    "ticks": 143808,
                    "time": 149.8,
                    "velocity": 0.2755905511811024
                },
                {
                    "duration": 0.19999999999998863,
                    "durationTicks": 192,
                    "midi": 72,
                    "name": "C5",
                    "ticks": 143808,
                    "time": 149.8,
                    "velocity": 0.2755905511811024
                },
                {
                    "duration": 0.29999999999998295,
                    "durationTicks": 288,
                    "midi": 41,
                    "name": "F2",
                    "ticks": 143808,
                    "time": 149.8,
                    "velocity": 0.25984251968503935
                },
                {
                    "duration": 0.29999999999998295,
                    "durationTicks": 288,
                    "midi": 53,
                    "name": "F3",
                    "ticks": 143808,
                    "time": 149.8,
                    "velocity": 0.25196850393700787
                },
                {
                    "duration": 0.09999999999999432,
                    "durationTicks": 96,
                    "midi": 72,
                    "name": "C5",
                    "ticks": 144000,
                    "time": 150,
                    "velocity": 0.29133858267716534
                },
                {
                    "duration": 0.30000000000001137,
                    "durationTicks": 288,
                    "midi": 64,
                    "name": "E4",
                    "ticks": 144096,
                    "time": 150.1,
                    "velocity": 0.2204724409448819
                },
                {
                    "duration": 0.30000000000001137,
                    "durationTicks": 288,
                    "midi": 69,
                    "name": "A4",
                    "ticks": 144096,
                    "time": 150.1,
                    "velocity": 0.2677165354330709
                },
                {
                    "duration": 0.30000000000001137,
                    "durationTicks": 288,
                    "midi": 41,
                    "name": "F2",
                    "ticks": 144096,
                    "time": 150.1,
                    "velocity": 0.2047244094488189
                },
                {
                    "duration": 0.30000000000001137,
                    "durationTicks": 288,
                    "midi": 53,
                    "name": "F3",
                    "ticks": 144096,
                    "time": 150.1,
                    "velocity": 0.1968503937007874
                },
                {
                    "duration": 0.19999999999998863,
                    "durationTicks": 192,
                    "midi": 64,
                    "name": "E4",
                    "ticks": 144384,
                    "time": 150.4,
                    "velocity": 0.23622047244094488
                },
                {
                    "duration": 0.19999999999998863,
                    "durationTicks": 192,
                    "midi": 69,
                    "name": "A4",
                    "ticks": 144384,
                    "time": 150.4,
                    "velocity": 0.25196850393700787
                },
                {
                    "duration": 0.19999999999998863,
                    "durationTicks": 192,
                    "midi": 71,
                    "name": "B4",
                    "ticks": 144384,
                    "time": 150.4,
                    "velocity": 0.29133858267716534
                },
                {
                    "duration": 0.19999999999998863,
                    "durationTicks": 192,
                    "midi": 41,
                    "name": "F2",
                    "ticks": 144384,
                    "time": 150.4,
                    "velocity": 0.2047244094488189
                },
                {
                    "duration": 0.19999999999998863,
                    "durationTicks": 192,
                    "midi": 53,
                    "name": "F3",
                    "ticks": 144384,
                    "time": 150.4,
                    "velocity": 0.2047244094488189
                },
                {
                    "duration": 0.30000000000001137,
                    "durationTicks": 288,
                    "midi": 64,
                    "name": "E4",
                    "ticks": 144576,
                    "time": 150.6,
                    "velocity": 0.25196850393700787
                },
                {
                    "duration": 0.30000000000001137,
                    "durationTicks": 288,
                    "midi": 69,
                    "name": "A4",
                    "ticks": 144576,
                    "time": 150.6,
                    "velocity": 0.2440944881889764
                },
                {
                    "duration": 0.30000000000001137,
                    "durationTicks": 288,
                    "midi": 72,
                    "name": "C5",
                    "ticks": 144576,
                    "time": 150.6,
                    "velocity": 0.29133858267716534
                },
                {
                    "duration": 0.30000000000001137,
                    "durationTicks": 288,
                    "midi": 43,
                    "name": "G2",
                    "ticks": 144576,
                    "time": 150.6,
                    "velocity": 0.2440944881889764
                },
                {
                    "duration": 0.30000000000001137,
                    "durationTicks": 288,
                    "midi": 55,
                    "name": "G3",
                    "ticks": 144576,
                    "time": 150.6,
                    "velocity": 0.2440944881889764
                },
                {
                    "duration": 0.09999999999999432,
                    "durationTicks": 96,
                    "midi": 64,
                    "name": "E4",
                    "ticks": 144864,
                    "time": 150.9,
                    "velocity": 0.23622047244094488
                },
                {
                    "duration": 0.09999999999999432,
                    "durationTicks": 96,
                    "midi": 69,
                    "name": "A4",
                    "ticks": 144864,
                    "time": 150.9,
                    "velocity": 0.2283464566929134
                },
                {
                    "duration": 0.30000000000001137,
                    "durationTicks": 288,
                    "midi": 43,
                    "name": "G2",
                    "ticks": 144864,
                    "time": 150.9,
                    "velocity": 0.2204724409448819
                },
                {
                    "duration": 0.30000000000001137,
                    "durationTicks": 288,
                    "midi": 55,
                    "name": "G3",
                    "ticks": 144864,
                    "time": 150.9,
                    "velocity": 0.2283464566929134
                },
                {
                    "duration": 0.20000000000001705,
                    "durationTicks": 192,
                    "midi": 71,
                    "name": "B4",
                    "ticks": 144960,
                    "time": 151,
                    "velocity": 0.2992125984251969
                },
                {
                    "duration": 0.19999999999998863,
                    "durationTicks": 192,
                    "midi": 64,
                    "name": "E4",
                    "ticks": 145152,
                    "time": 151.20000000000002,
                    "velocity": 0.2125984251968504
                },
                {
                    "duration": 0.19999999999998863,
                    "durationTicks": 192,
                    "midi": 69,
                    "name": "A4",
                    "ticks": 145152,
                    "time": 151.20000000000002,
                    "velocity": 0.29133858267716534
                },
                {
                    "duration": 0.19999999999998863,
                    "durationTicks": 192,
                    "midi": 43,
                    "name": "G2",
                    "ticks": 145152,
                    "time": 151.20000000000002,
                    "velocity": 0.2283464566929134
                },
                {
                    "duration": 0.19999999999998863,
                    "durationTicks": 192,
                    "midi": 55,
                    "name": "G3",
                    "ticks": 145152,
                    "time": 151.20000000000002,
                    "velocity": 0.2204724409448819
                },
                {
                    "duration": 0.19999999999998863,
                    "durationTicks": 192,
                    "midi": 64,
                    "name": "E4",
                    "ticks": 145344,
                    "time": 151.4,
                    "velocity": 0.2440944881889764
                },
                {
                    "duration": 0.30000000000001137,
                    "durationTicks": 288,
                    "midi": 43,
                    "name": "G2",
                    "ticks": 145344,
                    "time": 151.4,
                    "velocity": 0.2440944881889764
                },
                {
                    "duration": 0.30000000000001137,
                    "durationTicks": 288,
                    "midi": 55,
                    "name": "G3",
                    "ticks": 145344,
                    "time": 151.4,
                    "velocity": 0.23622047244094488
                },
                {
                    "duration": 0.10000000000002274,
                    "durationTicks": 96,
                    "midi": 71,
                    "name": "B4",
                    "ticks": 145536,
                    "time": 151.6,
                    "velocity": 0.31496062992125984
                },
                {
                    "duration": 0.29999999999998295,
                    "durationTicks": 288,
                    "midi": 64,
                    "name": "E4",
                    "ticks": 145632,
                    "time": 151.70000000000002,
                    "velocity": 0.2283464566929134
                },
                {
                    "duration": 0.29999999999998295,
                    "durationTicks": 288,
                    "midi": 43,
                    "name": "G2",
                    "ticks": 145632,
                    "time": 151.70000000000002,
                    "velocity": 0.2125984251968504
                },
                {
                    "duration": 0.29999999999998295,
                    "durationTicks": 288,
                    "midi": 55,
                    "name": "G3",
                    "ticks": 145632,
                    "time": 151.70000000000002,
                    "velocity": 0.2125984251968504
                },
                {
                    "duration": 0.20000000000001705,
                    "durationTicks": 192,
                    "midi": 64,
                    "name": "E4",
                    "ticks": 145920,
                    "time": 152,
                    "velocity": 0.2283464566929134
                },
                {
                    "duration": 0.20000000000001705,
                    "durationTicks": 192,
                    "midi": 69,
                    "name": "A4",
                    "ticks": 145920,
                    "time": 152,
                    "velocity": 0.25984251968503935
                },
                {
                    "duration": 0.20000000000001705,
                    "durationTicks": 192,
                    "midi": 72,
                    "name": "C5",
                    "ticks": 145920,
                    "time": 152,
                    "velocity": 0.2992125984251969
                },
                {
                    "duration": 0.20000000000001705,
                    "durationTicks": 192,
                    "midi": 43,
                    "name": "G2",
                    "ticks": 145920,
                    "time": 152,
                    "velocity": 0.2125984251968504
                },
                {
                    "duration": 0.20000000000001705,
                    "durationTicks": 192,
                    "midi": 55,
                    "name": "G3",
                    "ticks": 145920,
                    "time": 152,
                    "velocity": 0.2204724409448819
                },
                {
                    "duration": 0.29999999999998295,
                    "durationTicks": 288,
                    "midi": 64,
                    "name": "E4",
                    "ticks": 146112,
                    "time": 152.20000000000002,
                    "velocity": 0.2283464566929134
                },
                {
                    "duration": 0.29999999999998295,
                    "durationTicks": 288,
                    "midi": 69,
                    "name": "A4",
                    "ticks": 146112,
                    "time": 152.20000000000002,
                    "velocity": 0.2755905511811024
                },
                {
                    "duration": 0.29999999999998295,
                    "durationTicks": 288,
                    "midi": 72,
                    "name": "C5",
                    "ticks": 146112,
                    "time": 152.20000000000002,
                    "velocity": 0.2677165354330709
                },
                {
                    "duration": 0.29999999999998295,
                    "durationTicks": 288,
                    "midi": 45,
                    "name": "A2",
                    "ticks": 146112,
                    "time": 152.20000000000002,
                    "velocity": 0.2125984251968504
                },
                {
                    "duration": 0.29999999999998295,
                    "durationTicks": 288,
                    "midi": 57,
                    "name": "A3",
                    "ticks": 146112,
                    "time": 152.20000000000002,
                    "velocity": 0.25196850393700787
                },
                {
                    "duration": 0.30000000000001137,
                    "durationTicks": 288,
                    "midi": 64,
                    "name": "E4",
                    "ticks": 146400,
                    "time": 152.5,
                    "velocity": 0.2125984251968504
                },
                {
                    "duration": 0.30000000000001137,
                    "durationTicks": 288,
                    "midi": 69,
                    "name": "A4",
                    "ticks": 146400,
                    "time": 152.5,
                    "velocity": 0.2204724409448819
                },
                {
                    "duration": 0.30000000000001137,
                    "durationTicks": 288,
                    "midi": 72,
                    "name": "C5",
                    "ticks": 146400,
                    "time": 152.5,
                    "velocity": 0.2283464566929134
                },
                {
                    "duration": 0.30000000000001137,
                    "durationTicks": 288,
                    "midi": 45,
                    "name": "A2",
                    "ticks": 146400,
                    "time": 152.5,
                    "velocity": 0.2440944881889764
                },
                {
                    "duration": 0.30000000000001137,
                    "durationTicks": 288,
                    "midi": 57,
                    "name": "A3",
                    "ticks": 146400,
                    "time": 152.5,
                    "velocity": 0.23622047244094488
                },
                {
                    "duration": 0.19999999999998863,
                    "durationTicks": 192,
                    "midi": 64,
                    "name": "E4",
                    "ticks": 146688,
                    "time": 152.8,
                    "velocity": 0.2283464566929134
                },
                {
                    "duration": 0.19999999999998863,
                    "durationTicks": 192,
                    "midi": 69,
                    "name": "A4",
                    "ticks": 146688,
                    "time": 152.8,
                    "velocity": 0.25196850393700787
                },
                {
                    "duration": 0.19999999999998863,
                    "durationTicks": 192,
                    "midi": 72,
                    "name": "C5",
                    "ticks": 146688,
                    "time": 152.8,
                    "velocity": 0.25196850393700787
                },
                {
                    "duration": 0.19999999999998863,
                    "durationTicks": 192,
                    "midi": 45,
                    "name": "A2",
                    "ticks": 146688,
                    "time": 152.8,
                    "velocity": 0.2440944881889764
                },
                {
                    "duration": 0.19999999999998863,
                    "durationTicks": 192,
                    "midi": 57,
                    "name": "A3",
                    "ticks": 146688,
                    "time": 152.8,
                    "velocity": 0.23622047244094488
                },
                {
                    "duration": 0.30000000000001137,
                    "durationTicks": 288,
                    "midi": 64,
                    "name": "E4",
                    "ticks": 146880,
                    "time": 153,
                    "velocity": 0.2204724409448819
                },
                {
                    "duration": 0.30000000000001137,
                    "durationTicks": 288,
                    "midi": 69,
                    "name": "A4",
                    "ticks": 146880,
                    "time": 153,
                    "velocity": 0.23622047244094488
                },
                {
                    "duration": 0.30000000000001137,
                    "durationTicks": 288,
                    "midi": 72,
                    "name": "C5",
                    "ticks": 146880,
                    "time": 153,
                    "velocity": 0.25196850393700787
                },
                {
                    "duration": 0.30000000000001137,
                    "durationTicks": 288,
                    "midi": 45,
                    "name": "A2",
                    "ticks": 146880,
                    "time": 153,
                    "velocity": 0.25196850393700787
                },
                {
                    "duration": 0.30000000000001137,
                    "durationTicks": 288,
                    "midi": 57,
                    "name": "A3",
                    "ticks": 146880,
                    "time": 153,
                    "velocity": 0.25196850393700787
                },
                {
                    "duration": 0.30000000000001137,
                    "durationTicks": 288,
                    "midi": 64,
                    "name": "E4",
                    "ticks": 147168,
                    "time": 153.3,
                    "velocity": 0.2125984251968504
                },
                {
                    "duration": 0.30000000000001137,
                    "durationTicks": 288,
                    "midi": 69,
                    "name": "A4",
                    "ticks": 147168,
                    "time": 153.3,
                    "velocity": 0.1968503937007874
                },
                {
                    "duration": 0.30000000000001137,
                    "durationTicks": 288,
                    "midi": 72,
                    "name": "C5",
                    "ticks": 147168,
                    "time": 153.3,
                    "velocity": 0.2125984251968504
                },
                {
                    "duration": 0.30000000000001137,
                    "durationTicks": 288,
                    "midi": 45,
                    "name": "A2",
                    "ticks": 147168,
                    "time": 153.3,
                    "velocity": 0.1889763779527559
                },
                {
                    "duration": 0.30000000000001137,
                    "durationTicks": 288,
                    "midi": 57,
                    "name": "A3",
                    "ticks": 147168,
                    "time": 153.3,
                    "velocity": 0.18110236220472442
                },
                {
                    "duration": 0.19999999999998863,
                    "durationTicks": 192,
                    "midi": 64,
                    "name": "E4",
                    "ticks": 147456,
                    "time": 153.60000000000002,
                    "velocity": 0.1968503937007874
                },
                {
                    "duration": 0.19999999999998863,
                    "durationTicks": 192,
                    "midi": 69,
                    "name": "A4",
                    "ticks": 147456,
                    "time": 153.60000000000002,
                    "velocity": 0.1968503937007874
                },
                {
                    "duration": 0.19999999999998863,
                    "durationTicks": 192,
                    "midi": 71,
                    "name": "B4",
                    "ticks": 147456,
                    "time": 153.60000000000002,
                    "velocity": 0.31496062992125984
                },
                {
                    "duration": 0.19999999999998863,
                    "durationTicks": 192,
                    "midi": 45,
                    "name": "A2",
                    "ticks": 147456,
                    "time": 153.60000000000002,
                    "velocity": 0.2283464566929134
                },
                {
                    "duration": 0.19999999999998863,
                    "durationTicks": 192,
                    "midi": 57,
                    "name": "A3",
                    "ticks": 147456,
                    "time": 153.60000000000002,
                    "velocity": 0.2125984251968504
                },
                {
                    "duration": 0.19999999999998863,
                    "durationTicks": 192,
                    "midi": 64,
                    "name": "E4",
                    "ticks": 147648,
                    "time": 153.8,
                    "velocity": 0.2440944881889764
                },
                {
                    "duration": 0.19999999999998863,
                    "durationTicks": 192,
                    "midi": 67,
                    "name": "G4",
                    "ticks": 147648,
                    "time": 153.8,
                    "velocity": 0.2677165354330709
                },
                {
                    "duration": 0.19999999999998863,
                    "durationTicks": 192,
                    "midi": 71,
                    "name": "B4",
                    "ticks": 147648,
                    "time": 153.8,
                    "velocity": 0.2992125984251969
                },
                {
                    "duration": 0.30000000000001137,
                    "durationTicks": 288,
                    "midi": 40,
                    "name": "E2",
                    "ticks": 147648,
                    "time": 153.8,
                    "velocity": 0.2283464566929134
                },
                {
                    "duration": 0.30000000000001137,
                    "durationTicks": 288,
                    "midi": 52,
                    "name": "E3",
                    "ticks": 147648,
                    "time": 153.8,
                    "velocity": 0.2125984251968504
                },
                {
                    "duration": 0.10000000000002274,
                    "durationTicks": 96,
                    "midi": 72,
                    "name": "C5",
                    "ticks": 147840,
                    "time": 154,
                    "velocity": 0.2992125984251969
                },
                {
                    "duration": 0.29999999999998295,
                    "durationTicks": 288,
                    "midi": 64,
                    "name": "E4",
                    "ticks": 147936,
                    "time": 154.10000000000002,
                    "velocity": 0.1968503937007874
                },
                {
                    "duration": 0.29999999999998295,
                    "durationTicks": 288,
                    "midi": 67,
                    "name": "G4",
                    "ticks": 147936,
                    "time": 154.10000000000002,
                    "velocity": 0.2204724409448819
                },
                {
                    "duration": 0.29999999999998295,
                    "durationTicks": 288,
                    "midi": 40,
                    "name": "E2",
                    "ticks": 147936,
                    "time": 154.10000000000002,
                    "velocity": 0.1968503937007874
                },
                {
                    "duration": 0.29999999999998295,
                    "durationTicks": 288,
                    "midi": 52,
                    "name": "E3",
                    "ticks": 147936,
                    "time": 154.10000000000002,
                    "velocity": 0.2125984251968504
                },
                {
                    "duration": 0.20000000000001705,
                    "durationTicks": 192,
                    "midi": 64,
                    "name": "E4",
                    "ticks": 148224,
                    "time": 154.4,
                    "velocity": 0.2047244094488189
                },
                {
                    "duration": 0.20000000000001705,
                    "durationTicks": 192,
                    "midi": 67,
                    "name": "G4",
                    "ticks": 148224,
                    "time": 154.4,
                    "velocity": 0.2440944881889764
                },
                {
                    "duration": 0.20000000000001705,
                    "durationTicks": 192,
                    "midi": 71,
                    "name": "B4",
                    "ticks": 148224,
                    "time": 154.4,
                    "velocity": 0.30708661417322836
                },
                {
                    "duration": 0.20000000000001705,
                    "durationTicks": 192,
                    "midi": 40,
                    "name": "E2",
                    "ticks": 148224,
                    "time": 154.4,
                    "velocity": 0.23622047244094488
                },
                {
                    "duration": 0.20000000000001705,
                    "durationTicks": 192,
                    "midi": 52,
                    "name": "E3",
                    "ticks": 148224,
                    "time": 154.4,
                    "velocity": 0.2440944881889764
                },
                {
                    "duration": 0.19999999999998863,
                    "durationTicks": 192,
                    "midi": 64,
                    "name": "E4",
                    "ticks": 148416,
                    "time": 154.60000000000002,
                    "velocity": 0.23622047244094488
                },
                {
                    "duration": 0.19999999999998863,
                    "durationTicks": 192,
                    "midi": 67,
                    "name": "G4",
                    "ticks": 148416,
                    "time": 154.60000000000002,
                    "velocity": 0.25984251968503935
                },
                {
                    "duration": 0.29999999999998295,
                    "durationTicks": 288,
                    "midi": 40,
                    "name": "E2",
                    "ticks": 148416,
                    "time": 154.60000000000002,
                    "velocity": 0.2440944881889764
                },
                {
                    "duration": 0.29999999999998295,
                    "durationTicks": 288,
                    "midi": 52,
                    "name": "E3",
                    "ticks": 148416,
                    "time": 154.60000000000002,
                    "velocity": 0.25196850393700787
                },
                {
                    "duration": 0.09999999999999432,
                    "durationTicks": 96,
                    "midi": 67,
                    "name": "G4",
                    "ticks": 148608,
                    "time": 154.8,
                    "velocity": 0.28346456692913385
                },
                {
                    "duration": 0.30000000000001137,
                    "durationTicks": 288,
                    "midi": 64,
                    "name": "E4",
                    "ticks": 148704,
                    "time": 154.9,
                    "velocity": 0.1732283464566929
                },
                {
                    "duration": 0.30000000000001137,
                    "durationTicks": 288,
                    "midi": 71,
                    "name": "B4",
                    "ticks": 148704,
                    "time": 154.9,
                    "velocity": 0.15748031496062992
                },
                {
                    "duration": 0.30000000000001137,
                    "durationTicks": 288,
                    "midi": 48,
                    "name": "C3",
                    "ticks": 148704,
                    "time": 154.9,
                    "velocity": 0.2125984251968504
                },
                {
                    "duration": 0.30000000000001137,
                    "durationTicks": 288,
                    "midi": 60,
                    "name": "C4",
                    "ticks": 148704,
                    "time": 154.9,
                    "velocity": 0.2677165354330709
                },
                {
                    "duration": 0.19999999999998863,
                    "durationTicks": 192,
                    "midi": 64,
                    "name": "E4",
                    "ticks": 148992,
                    "time": 155.20000000000002,
                    "velocity": 0.23622047244094488
                },
                {
                    "duration": 0.19999999999998863,
                    "durationTicks": 192,
                    "midi": 67,
                    "name": "G4",
                    "ticks": 148992,
                    "time": 155.20000000000002,
                    "velocity": 0.2677165354330709
                },
                {
                    "duration": 0.19999999999998863,
                    "durationTicks": 192,
                    "midi": 71,
                    "name": "B4",
                    "ticks": 148992,
                    "time": 155.20000000000002,
                    "velocity": 0.25196850393700787
                },
                {
                    "duration": 0.19999999999998863,
                    "durationTicks": 192,
                    "midi": 47,
                    "name": "B2",
                    "ticks": 148992,
                    "time": 155.20000000000002,
                    "velocity": 0.2283464566929134
                },
                {
                    "duration": 0.19999999999998863,
                    "durationTicks": 192,
                    "midi": 59,
                    "name": "B3",
                    "ticks": 148992,
                    "time": 155.20000000000002,
                    "velocity": 0.1732283464566929
                },
                {
                    "duration": 0.30000000000001137,
                    "durationTicks": 288,
                    "midi": 64,
                    "name": "E4",
                    "ticks": 149184,
                    "time": 155.4,
                    "velocity": 0.25196850393700787
                },
                {
                    "duration": 0.30000000000001137,
                    "durationTicks": 288,
                    "midi": 69,
                    "name": "A4",
                    "ticks": 149184,
                    "time": 155.4,
                    "velocity": 0.2755905511811024
                },
                {
                    "duration": 0.30000000000001137,
                    "durationTicks": 288,
                    "midi": 72,
                    "name": "C5",
                    "ticks": 149184,
                    "time": 155.4,
                    "velocity": 0.31496062992125984
                },
                {
                    "duration": 0.30000000000001137,
                    "durationTicks": 288,
                    "midi": 76,
                    "name": "E5",
                    "ticks": 149184,
                    "time": 155.4,
                    "velocity": 0.29133858267716534
                },
                {
                    "duration": 0.30000000000001137,
                    "durationTicks": 288,
                    "midi": 41,
                    "name": "F2",
                    "ticks": 149184,
                    "time": 155.4,
                    "velocity": 0.25196850393700787
                },
                {
                    "duration": 0.30000000000001137,
                    "durationTicks": 288,
                    "midi": 53,
                    "name": "F3",
                    "ticks": 149184,
                    "time": 155.4,
                    "velocity": 0.2677165354330709
                },
                {
                    "duration": 0.29999999999998295,
                    "durationTicks": 288,
                    "midi": 64,
                    "name": "E4",
                    "ticks": 149472,
                    "time": 155.70000000000002,
                    "velocity": 0.23622047244094488
                },
                {
                    "duration": 0.29999999999998295,
                    "durationTicks": 288,
                    "midi": 69,
                    "name": "A4",
                    "ticks": 149472,
                    "time": 155.70000000000002,
                    "velocity": 0.23622047244094488
                },
                {
                    "duration": 0.29999999999998295,
                    "durationTicks": 288,
                    "midi": 72,
                    "name": "C5",
                    "ticks": 149472,
                    "time": 155.70000000000002,
                    "velocity": 0.2677165354330709
                },
                {
                    "duration": 0.29999999999998295,
                    "durationTicks": 288,
                    "midi": 74,
                    "name": "D5",
                    "ticks": 149472,
                    "time": 155.70000000000002,
                    "velocity": 0.29133858267716534
                },
                {
                    "duration": 0.29999999999998295,
                    "durationTicks": 288,
                    "midi": 41,
                    "name": "F2",
                    "ticks": 149472,
                    "time": 155.70000000000002,
                    "velocity": 0.23622047244094488
                },
                {
                    "duration": 0.29999999999998295,
                    "durationTicks": 288,
                    "midi": 53,
                    "name": "F3",
                    "ticks": 149472,
                    "time": 155.70000000000002,
                    "velocity": 0.2204724409448819
                },
                {
                    "duration": 0.20000000000001705,
                    "durationTicks": 192,
                    "midi": 64,
                    "name": "E4",
                    "ticks": 149760,
                    "time": 156,
                    "velocity": 0.2440944881889764
                },
                {
                    "duration": 0.20000000000001705,
                    "durationTicks": 192,
                    "midi": 69,
                    "name": "A4",
                    "ticks": 149760,
                    "time": 156,
                    "velocity": 0.25196850393700787
                },
                {
                    "duration": 0.20000000000001705,
                    "durationTicks": 192,
                    "midi": 72,
                    "name": "C5",
                    "ticks": 149760,
                    "time": 156,
                    "velocity": 0.2677165354330709
                },
                {
                    "duration": 0.20000000000001705,
                    "durationTicks": 192,
                    "midi": 74,
                    "name": "D5",
                    "ticks": 149760,
                    "time": 156,
                    "velocity": 0.29133858267716534
                },
                {
                    "duration": 0.20000000000001705,
                    "durationTicks": 192,
                    "midi": 41,
                    "name": "F2",
                    "ticks": 149760,
                    "time": 156,
                    "velocity": 0.2440944881889764
                },
                {
                    "duration": 0.20000000000001705,
                    "durationTicks": 192,
                    "midi": 53,
                    "name": "F3",
                    "ticks": 149760,
                    "time": 156,
                    "velocity": 0.23622047244094488
                },
                {
                    "duration": 0.29999999999998295,
                    "durationTicks": 288,
                    "midi": 64,
                    "name": "E4",
                    "ticks": 149952,
                    "time": 156.20000000000002,
                    "velocity": 0.25196850393700787
                },
                {
                    "duration": 0.29999999999998295,
                    "durationTicks": 288,
                    "midi": 69,
                    "name": "A4",
                    "ticks": 149952,
                    "time": 156.20000000000002,
                    "velocity": 0.2755905511811024
                },
                {
                    "duration": 0.29999999999998295,
                    "durationTicks": 288,
                    "midi": 72,
                    "name": "C5",
                    "ticks": 149952,
                    "time": 156.20000000000002,
                    "velocity": 0.2755905511811024
                },
                {
                    "duration": 0.29999999999998295,
                    "durationTicks": 288,
                    "midi": 74,
                    "name": "D5",
                    "ticks": 149952,
                    "time": 156.20000000000002,
                    "velocity": 0.2992125984251969
                },
                {
                    "duration": 0.29999999999998295,
                    "durationTicks": 288,
                    "midi": 41,
                    "name": "F2",
                    "ticks": 149952,
                    "time": 156.20000000000002,
                    "velocity": 0.25984251968503935
                },
                {
                    "duration": 0.29999999999998295,
                    "durationTicks": 288,
                    "midi": 53,
                    "name": "F3",
                    "ticks": 149952,
                    "time": 156.20000000000002,
                    "velocity": 0.25196850393700787
                },
                {
                    "duration": 0.30000000000001137,
                    "durationTicks": 288,
                    "midi": 64,
                    "name": "E4",
                    "ticks": 150240,
                    "time": 156.5,
                    "velocity": 0.2204724409448819
                },
                {
                    "duration": 0.30000000000001137,
                    "durationTicks": 288,
                    "midi": 69,
                    "name": "A4",
                    "ticks": 150240,
                    "time": 156.5,
                    "velocity": 0.2677165354330709
                },
                {
                    "duration": 0.30000000000001137,
                    "durationTicks": 288,
                    "midi": 72,
                    "name": "C5",
                    "ticks": 150240,
                    "time": 156.5,
                    "velocity": 0.2992125984251969
                },
                {
                    "duration": 0.30000000000001137,
                    "durationTicks": 288,
                    "midi": 41,
                    "name": "F2",
                    "ticks": 150240,
                    "time": 156.5,
                    "velocity": 0.2047244094488189
                },
                {
                    "duration": 0.30000000000001137,
                    "durationTicks": 288,
                    "midi": 53,
                    "name": "F3",
                    "ticks": 150240,
                    "time": 156.5,
                    "velocity": 0.1968503937007874
                },
                {
                    "duration": 0.19999999999998863,
                    "durationTicks": 192,
                    "midi": 64,
                    "name": "E4",
                    "ticks": 150528,
                    "time": 156.8,
                    "velocity": 0.23622047244094488
                },
                {
                    "duration": 0.19999999999998863,
                    "durationTicks": 192,
                    "midi": 69,
                    "name": "A4",
                    "ticks": 150528,
                    "time": 156.8,
                    "velocity": 0.25196850393700787
                },
                {
                    "duration": 0.19999999999998863,
                    "durationTicks": 192,
                    "midi": 72,
                    "name": "C5",
                    "ticks": 150528,
                    "time": 156.8,
                    "velocity": 0.30708661417322836
                },
                {
                    "duration": 0.19999999999998863,
                    "durationTicks": 192,
                    "midi": 41,
                    "name": "F2",
                    "ticks": 150528,
                    "time": 156.8,
                    "velocity": 0.2047244094488189
                },
                {
                    "duration": 0.19999999999998863,
                    "durationTicks": 192,
                    "midi": 53,
                    "name": "F3",
                    "ticks": 150528,
                    "time": 156.8,
                    "velocity": 0.2047244094488189
                },
                {
                    "duration": 0.30000000000001137,
                    "durationTicks": 288,
                    "midi": 64,
                    "name": "E4",
                    "ticks": 150720,
                    "time": 157,
                    "velocity": 0.25196850393700787
                },
                {
                    "duration": 0.30000000000001137,
                    "durationTicks": 288,
                    "midi": 69,
                    "name": "A4",
                    "ticks": 150720,
                    "time": 157,
                    "velocity": 0.2440944881889764
                },
                {
                    "duration": 0.30000000000001137,
                    "durationTicks": 288,
                    "midi": 71,
                    "name": "B4",
                    "ticks": 150720,
                    "time": 157,
                    "velocity": 0.29133858267716534
                },
                {
                    "duration": 0.30000000000001137,
                    "durationTicks": 288,
                    "midi": 43,
                    "name": "G2",
                    "ticks": 150720,
                    "time": 157,
                    "velocity": 0.2440944881889764
                },
                {
                    "duration": 0.30000000000001137,
                    "durationTicks": 288,
                    "midi": 55,
                    "name": "G3",
                    "ticks": 150720,
                    "time": 157,
                    "velocity": 0.2440944881889764
                },
                {
                    "duration": 0.30000000000001137,
                    "durationTicks": 288,
                    "midi": 64,
                    "name": "E4",
                    "ticks": 151008,
                    "time": 157.3,
                    "velocity": 0.23622047244094488
                },
                {
                    "duration": 0.30000000000001137,
                    "durationTicks": 288,
                    "midi": 69,
                    "name": "A4",
                    "ticks": 151008,
                    "time": 157.3,
                    "velocity": 0.2283464566929134
                },
                {
                    "duration": 0.30000000000001137,
                    "durationTicks": 288,
                    "midi": 72,
                    "name": "C5",
                    "ticks": 151008,
                    "time": 157.3,
                    "velocity": 0.30708661417322836
                },
                {
                    "duration": 0.30000000000001137,
                    "durationTicks": 288,
                    "midi": 43,
                    "name": "G2",
                    "ticks": 151008,
                    "time": 157.3,
                    "velocity": 0.2204724409448819
                },
                {
                    "duration": 0.30000000000001137,
                    "durationTicks": 288,
                    "midi": 55,
                    "name": "G3",
                    "ticks": 151008,
                    "time": 157.3,
                    "velocity": 0.2283464566929134
                },
                {
                    "duration": 0.19999999999998863,
                    "durationTicks": 192,
                    "midi": 64,
                    "name": "E4",
                    "ticks": 151296,
                    "time": 157.60000000000002,
                    "velocity": 0.2125984251968504
                },
                {
                    "duration": 0.19999999999998863,
                    "durationTicks": 192,
                    "midi": 69,
                    "name": "A4",
                    "ticks": 151296,
                    "time": 157.60000000000002,
                    "velocity": 0.1732283464566929
                },
                {
                    "duration": 0.19999999999998863,
                    "durationTicks": 192,
                    "midi": 71,
                    "name": "B4",
                    "ticks": 151296,
                    "time": 157.60000000000002,
                    "velocity": 0.2992125984251969
                },
                {
                    "duration": 0.19999999999998863,
                    "durationTicks": 192,
                    "midi": 43,
                    "name": "G2",
                    "ticks": 151296,
                    "time": 157.60000000000002,
                    "velocity": 0.2283464566929134
                },
                {
                    "duration": 0.19999999999998863,
                    "durationTicks": 192,
                    "midi": 55,
                    "name": "G3",
                    "ticks": 151296,
                    "time": 157.60000000000002,
                    "velocity": 0.2204724409448819
                },
                {
                    "duration": 0.19999999999998863,
                    "durationTicks": 192,
                    "midi": 64,
                    "name": "E4",
                    "ticks": 151488,
                    "time": 157.8,
                    "velocity": 0.2440944881889764
                },
                {
                    "duration": 0.19999999999998863,
                    "durationTicks": 192,
                    "midi": 69,
                    "name": "A4",
                    "ticks": 151488,
                    "time": 157.8,
                    "velocity": 0.2677165354330709
                },
                {
                    "duration": 0.30000000000001137,
                    "durationTicks": 288,
                    "midi": 43,
                    "name": "G2",
                    "ticks": 151488,
                    "time": 157.8,
                    "velocity": 0.2440944881889764
                },
                {
                    "duration": 0.30000000000001137,
                    "durationTicks": 288,
                    "midi": 55,
                    "name": "G3",
                    "ticks": 151488,
                    "time": 157.8,
                    "velocity": 0.23622047244094488
                },
                {
                    "duration": 0.10000000000002274,
                    "durationTicks": 96,
                    "midi": 67,
                    "name": "G4",
                    "ticks": 151680,
                    "time": 158,
                    "velocity": 0.2677165354330709
                },
                {
                    "duration": 0.29999999999998295,
                    "durationTicks": 288,
                    "midi": 64,
                    "name": "E4",
                    "ticks": 151776,
                    "time": 158.10000000000002,
                    "velocity": 0.2283464566929134
                },
                {
                    "duration": 0.29999999999998295,
                    "durationTicks": 288,
                    "midi": 69,
                    "name": "A4",
                    "ticks": 151776,
                    "time": 158.10000000000002,
                    "velocity": 0.2677165354330709
                },
                {
                    "duration": 0.29999999999998295,
                    "durationTicks": 288,
                    "midi": 72,
                    "name": "C5",
                    "ticks": 151776,
                    "time": 158.10000000000002,
                    "velocity": 0.2677165354330709
                },
                {
                    "duration": 0.29999999999998295,
                    "durationTicks": 288,
                    "midi": 43,
                    "name": "G2",
                    "ticks": 151776,
                    "time": 158.10000000000002,
                    "velocity": 0.2125984251968504
                },
                {
                    "duration": 0.29999999999998295,
                    "durationTicks": 288,
                    "midi": 55,
                    "name": "G3",
                    "ticks": 151776,
                    "time": 158.10000000000002,
                    "velocity": 0.2125984251968504
                },
                {
                    "duration": 0.20000000000001705,
                    "durationTicks": 192,
                    "midi": 64,
                    "name": "E4",
                    "ticks": 152064,
                    "time": 158.4,
                    "velocity": 0.2283464566929134
                },
                {
                    "duration": 0.20000000000001705,
                    "durationTicks": 192,
                    "midi": 67,
                    "name": "G4",
                    "ticks": 152064,
                    "time": 158.4,
                    "velocity": 0.2755905511811024
                },
                {
                    "duration": 0.20000000000001705,
                    "durationTicks": 192,
                    "midi": 69,
                    "name": "A4",
                    "ticks": 152064,
                    "time": 158.4,
                    "velocity": 0.25984251968503935
                },
                {
                    "duration": 0.20000000000001705,
                    "durationTicks": 192,
                    "midi": 72,
                    "name": "C5",
                    "ticks": 152064,
                    "time": 158.4,
                    "velocity": 0.25984251968503935
                },
                {
                    "duration": 0.20000000000001705,
                    "durationTicks": 192,
                    "midi": 43,
                    "name": "G2",
                    "ticks": 152064,
                    "time": 158.4,
                    "velocity": 0.2125984251968504
                },
                {
                    "duration": 0.20000000000001705,
                    "durationTicks": 192,
                    "midi": 55,
                    "name": "G3",
                    "ticks": 152064,
                    "time": 158.4,
                    "velocity": 0.2204724409448819
                },
                {
                    "duration": 0.29999999999998295,
                    "durationTicks": 288,
                    "midi": 64,
                    "name": "E4",
                    "ticks": 152256,
                    "time": 158.60000000000002,
                    "velocity": 0.2283464566929134
                },
                {
                    "duration": 0.29999999999998295,
                    "durationTicks": 288,
                    "midi": 69,
                    "name": "A4",
                    "ticks": 152256,
                    "time": 158.60000000000002,
                    "velocity": 0.2755905511811024
                },
                {
                    "duration": 0.29999999999998295,
                    "durationTicks": 288,
                    "midi": 72,
                    "name": "C5",
                    "ticks": 152256,
                    "time": 158.60000000000002,
                    "velocity": 0.2677165354330709
                },
                {
                    "duration": 0.29999999999998295,
                    "durationTicks": 288,
                    "midi": 76,
                    "name": "E5",
                    "ticks": 152256,
                    "time": 158.60000000000002,
                    "velocity": 0.2992125984251969
                },
                {
                    "duration": 0.29999999999998295,
                    "durationTicks": 288,
                    "midi": 45,
                    "name": "A2",
                    "ticks": 152256,
                    "time": 158.60000000000002,
                    "velocity": 0.2125984251968504
                },
                {
                    "duration": 0.29999999999998295,
                    "durationTicks": 288,
                    "midi": 57,
                    "name": "A3",
                    "ticks": 152256,
                    "time": 158.60000000000002,
                    "velocity": 0.25196850393700787
                },
                {
                    "duration": 0.30000000000001137,
                    "durationTicks": 288,
                    "midi": 64,
                    "name": "E4",
                    "ticks": 152544,
                    "time": 158.9,
                    "velocity": 0.2125984251968504
                },
                {
                    "duration": 0.30000000000001137,
                    "durationTicks": 288,
                    "midi": 69,
                    "name": "A4",
                    "ticks": 152544,
                    "time": 158.9,
                    "velocity": 0.2204724409448819
                },
                {
                    "duration": 0.30000000000001137,
                    "durationTicks": 288,
                    "midi": 72,
                    "name": "C5",
                    "ticks": 152544,
                    "time": 158.9,
                    "velocity": 0.2283464566929134
                },
                {
                    "duration": 0.30000000000001137,
                    "durationTicks": 288,
                    "midi": 74,
                    "name": "D5",
                    "ticks": 152544,
                    "time": 158.9,
                    "velocity": 0.2992125984251969
                },
                {
                    "duration": 0.30000000000001137,
                    "durationTicks": 288,
                    "midi": 45,
                    "name": "A2",
                    "ticks": 152544,
                    "time": 158.9,
                    "velocity": 0.2440944881889764
                },
                {
                    "duration": 0.30000000000001137,
                    "durationTicks": 288,
                    "midi": 57,
                    "name": "A3",
                    "ticks": 152544,
                    "time": 158.9,
                    "velocity": 0.23622047244094488
                },
                {
                    "duration": 0.19999999999998863,
                    "durationTicks": 192,
                    "midi": 64,
                    "name": "E4",
                    "ticks": 152832,
                    "time": 159.20000000000002,
                    "velocity": 0.2283464566929134
                },
                {
                    "duration": 0.19999999999998863,
                    "durationTicks": 192,
                    "midi": 69,
                    "name": "A4",
                    "ticks": 152832,
                    "time": 159.20000000000002,
                    "velocity": 0.25196850393700787
                },
                {
                    "duration": 0.19999999999998863,
                    "durationTicks": 192,
                    "midi": 72,
                    "name": "C5",
                    "ticks": 152832,
                    "time": 159.20000000000002,
                    "velocity": 0.25196850393700787
                },
                {
                    "duration": 0.19999999999998863,
                    "durationTicks": 192,
                    "midi": 74,
                    "name": "D5",
                    "ticks": 152832,
                    "time": 159.20000000000002,
                    "velocity": 0.2992125984251969
                },
                {
                    "duration": 0.19999999999998863,
                    "durationTicks": 192,
                    "midi": 45,
                    "name": "A2",
                    "ticks": 152832,
                    "time": 159.20000000000002,
                    "velocity": 0.2440944881889764
                },
                {
                    "duration": 0.19999999999998863,
                    "durationTicks": 192,
                    "midi": 57,
                    "name": "A3",
                    "ticks": 152832,
                    "time": 159.20000000000002,
                    "velocity": 0.23622047244094488
                },
                {
                    "duration": 0.30000000000001137,
                    "durationTicks": 288,
                    "midi": 64,
                    "name": "E4",
                    "ticks": 153024,
                    "time": 159.4,
                    "velocity": 0.2204724409448819
                },
                {
                    "duration": 0.30000000000001137,
                    "durationTicks": 288,
                    "midi": 69,
                    "name": "A4",
                    "ticks": 153024,
                    "time": 159.4,
                    "velocity": 0.23622047244094488
                },
                {
                    "duration": 0.30000000000001137,
                    "durationTicks": 288,
                    "midi": 72,
                    "name": "C5",
                    "ticks": 153024,
                    "time": 159.4,
                    "velocity": 0.25196850393700787
                },
                {
                    "duration": 0.30000000000001137,
                    "durationTicks": 288,
                    "midi": 74,
                    "name": "D5",
                    "ticks": 153024,
                    "time": 159.4,
                    "velocity": 0.2992125984251969
                },
                {
                    "duration": 0.30000000000001137,
                    "durationTicks": 288,
                    "midi": 45,
                    "name": "A2",
                    "ticks": 153024,
                    "time": 159.4,
                    "velocity": 0.25196850393700787
                },
                {
                    "duration": 0.30000000000001137,
                    "durationTicks": 288,
                    "midi": 57,
                    "name": "A3",
                    "ticks": 153024,
                    "time": 159.4,
                    "velocity": 0.25196850393700787
                },
                {
                    "duration": 0.29999999999998295,
                    "durationTicks": 288,
                    "midi": 64,
                    "name": "E4",
                    "ticks": 153312,
                    "time": 159.70000000000002,
                    "velocity": 0.2125984251968504
                },
                {
                    "duration": 0.29999999999998295,
                    "durationTicks": 288,
                    "midi": 69,
                    "name": "A4",
                    "ticks": 153312,
                    "time": 159.70000000000002,
                    "velocity": 0.1968503937007874
                },
                {
                    "duration": 0.29999999999998295,
                    "durationTicks": 288,
                    "midi": 72,
                    "name": "C5",
                    "ticks": 153312,
                    "time": 159.70000000000002,
                    "velocity": 0.29133858267716534
                },
                {
                    "duration": 0.29999999999998295,
                    "durationTicks": 288,
                    "midi": 45,
                    "name": "A2",
                    "ticks": 153312,
                    "time": 159.70000000000002,
                    "velocity": 0.1889763779527559
                },
                {
                    "duration": 0.29999999999998295,
                    "durationTicks": 288,
                    "midi": 57,
                    "name": "A3",
                    "ticks": 153312,
                    "time": 159.70000000000002,
                    "velocity": 0.18110236220472442
                },
                {
                    "duration": 0.20000000000001705,
                    "durationTicks": 192,
                    "midi": 64,
                    "name": "E4",
                    "ticks": 153600,
                    "time": 160,
                    "velocity": 0.1968503937007874
                },
                {
                    "duration": 0.20000000000001705,
                    "durationTicks": 192,
                    "midi": 69,
                    "name": "A4",
                    "ticks": 153600,
                    "time": 160,
                    "velocity": 0.1968503937007874
                },
                {
                    "duration": 0.20000000000001705,
                    "durationTicks": 192,
                    "midi": 72,
                    "name": "C5",
                    "ticks": 153600,
                    "time": 160,
                    "velocity": 0.31496062992125984
                },
                {
                    "duration": 0.20000000000001705,
                    "durationTicks": 192,
                    "midi": 45,
                    "name": "A2",
                    "ticks": 153600,
                    "time": 160,
                    "velocity": 0.2283464566929134
                },
                {
                    "duration": 0.20000000000001705,
                    "durationTicks": 192,
                    "midi": 57,
                    "name": "A3",
                    "ticks": 153600,
                    "time": 160,
                    "velocity": 0.2125984251968504
                },
                {
                    "duration": 0.19999999999998863,
                    "durationTicks": 192,
                    "midi": 64,
                    "name": "E4",
                    "ticks": 153792,
                    "time": 160.20000000000002,
                    "velocity": 0.2440944881889764
                },
                {
                    "duration": 0.19999999999998863,
                    "durationTicks": 192,
                    "midi": 67,
                    "name": "G4",
                    "ticks": 153792,
                    "time": 160.20000000000002,
                    "velocity": 0.2677165354330709
                },
                {
                    "duration": 0.19999999999998863,
                    "durationTicks": 192,
                    "midi": 71,
                    "name": "B4",
                    "ticks": 153792,
                    "time": 160.20000000000002,
                    "velocity": 0.31496062992125984
                },
                {
                    "duration": 0.29999999999998295,
                    "durationTicks": 288,
                    "midi": 40,
                    "name": "E2",
                    "ticks": 153792,
                    "time": 160.20000000000002,
                    "velocity": 0.2283464566929134
                },
                {
                    "duration": 0.29999999999998295,
                    "durationTicks": 288,
                    "midi": 52,
                    "name": "E3",
                    "ticks": 153792,
                    "time": 160.20000000000002,
                    "velocity": 0.2125984251968504
                },
                {
                    "duration": 0.09999999999999432,
                    "durationTicks": 96,
                    "midi": 72,
                    "name": "C5",
                    "ticks": 153984,
                    "time": 160.4,
                    "velocity": 0.30708661417322836
                },
                {
                    "duration": 0.30000000000001137,
                    "durationTicks": 288,
                    "midi": 64,
                    "name": "E4",
                    "ticks": 154080,
                    "time": 160.5,
                    "velocity": 0.1968503937007874
                },
                {
                    "duration": 0.30000000000001137,
                    "durationTicks": 288,
                    "midi": 67,
                    "name": "G4",
                    "ticks": 154080,
                    "time": 160.5,
                    "velocity": 0.2204724409448819
                },
                {
                    "duration": 0.30000000000001137,
                    "durationTicks": 288,
                    "midi": 40,
                    "name": "E2",
                    "ticks": 154080,
                    "time": 160.5,
                    "velocity": 0.1968503937007874
                },
                {
                    "duration": 0.30000000000001137,
                    "durationTicks": 288,
                    "midi": 52,
                    "name": "E3",
                    "ticks": 154080,
                    "time": 160.5,
                    "velocity": 0.2125984251968504
                },
                {
                    "duration": 0.19999999999998863,
                    "durationTicks": 192,
                    "midi": 67,
                    "name": "G4",
                    "ticks": 154368,
                    "time": 160.8,
                    "velocity": 0.2440944881889764
                },
                {
                    "duration": 0.19999999999998863,
                    "durationTicks": 192,
                    "midi": 71,
                    "name": "B4",
                    "ticks": 154368,
                    "time": 160.8,
                    "velocity": 0.23622047244094488
                },
                {
                    "duration": 0.19999999999998863,
                    "durationTicks": 192,
                    "midi": 76,
                    "name": "E5",
                    "ticks": 154368,
                    "time": 160.8,
                    "velocity": 0.2047244094488189
                },
                {
                    "duration": 0.19999999999998863,
                    "durationTicks": 192,
                    "midi": 79,
                    "name": "G5",
                    "ticks": 154368,
                    "time": 160.8,
                    "velocity": 0.29133858267716534
                },
                {
                    "duration": 0.19999999999998863,
                    "durationTicks": 192,
                    "midi": 40,
                    "name": "E2",
                    "ticks": 154368,
                    "time": 160.8,
                    "velocity": 0.23622047244094488
                },
                {
                    "duration": 0.19999999999998863,
                    "durationTicks": 192,
                    "midi": 52,
                    "name": "E3",
                    "ticks": 154368,
                    "time": 160.8,
                    "velocity": 0.2440944881889764
                },
                {
                    "duration": 0.20000000000001705,
                    "durationTicks": 192,
                    "midi": 64,
                    "name": "E4",
                    "ticks": 154560,
                    "time": 161,
                    "velocity": 0.23622047244094488
                },
                {
                    "duration": 0.20000000000001705,
                    "durationTicks": 192,
                    "midi": 67,
                    "name": "G4",
                    "ticks": 154560,
                    "time": 161,
                    "velocity": 0.25984251968503935
                },
                {
                    "duration": 0.20000000000001705,
                    "durationTicks": 192,
                    "midi": 71,
                    "name": "B4",
                    "ticks": 154560,
                    "time": 161,
                    "velocity": 0.2677165354330709
                },
                {
                    "duration": 0.30000000000001137,
                    "durationTicks": 288,
                    "midi": 40,
                    "name": "E2",
                    "ticks": 154560,
                    "time": 161,
                    "velocity": 0.2440944881889764
                },
                {
                    "duration": 0.30000000000001137,
                    "durationTicks": 288,
                    "midi": 52,
                    "name": "E3",
                    "ticks": 154560,
                    "time": 161,
                    "velocity": 0.25196850393700787
                },
                {
                    "duration": 0.09999999999999432,
                    "durationTicks": 96,
                    "midi": 71,
                    "name": "B4",
                    "ticks": 154752,
                    "time": 161.20000000000002,
                    "velocity": 0.29133858267716534
                },
                {
                    "duration": 0.30000000000001137,
                    "durationTicks": 288,
                    "midi": 64,
                    "name": "E4",
                    "ticks": 154848,
                    "time": 161.3,
                    "velocity": 0.1732283464566929
                },
                {
                    "duration": 0.30000000000001137,
                    "durationTicks": 288,
                    "midi": 67,
                    "name": "G4",
                    "ticks": 154848,
                    "time": 161.3,
                    "velocity": 0.1732283464566929
                },
                {
                    "duration": 0.30000000000001137,
                    "durationTicks": 288,
                    "midi": 48,
                    "name": "C3",
                    "ticks": 154848,
                    "time": 161.3,
                    "velocity": 0.2125984251968504
                },
                {
                    "duration": 0.30000000000001137,
                    "durationTicks": 288,
                    "midi": 60,
                    "name": "C4",
                    "ticks": 154848,
                    "time": 161.3,
                    "velocity": 0.2677165354330709
                },
                {
                    "duration": 0.19999999999998863,
                    "durationTicks": 192,
                    "midi": 64,
                    "name": "E4",
                    "ticks": 155136,
                    "time": 161.60000000000002,
                    "velocity": 0.23622047244094488
                },
                {
                    "duration": 0.19999999999998863,
                    "durationTicks": 192,
                    "midi": 67,
                    "name": "G4",
                    "ticks": 155136,
                    "time": 161.60000000000002,
                    "velocity": 0.23622047244094488
                },
                {
                    "duration": 0.19999999999998863,
                    "durationTicks": 192,
                    "midi": 71,
                    "name": "B4",
                    "ticks": 155136,
                    "time": 161.60000000000002,
                    "velocity": 0.2992125984251969
                },
                {
                    "duration": 0.19999999999998863,
                    "durationTicks": 192,
                    "midi": 47,
                    "name": "B2",
                    "ticks": 155136,
                    "time": 161.60000000000002,
                    "velocity": 0.2283464566929134
                },
                {
                    "duration": 0.19999999999998863,
                    "durationTicks": 192,
                    "midi": 59,
                    "name": "B3",
                    "ticks": 155136,
                    "time": 161.60000000000002,
                    "velocity": 0.1732283464566929
                },
                {
                    "duration": 0.30000000000001137,
                    "durationTicks": 288,
                    "midi": 69,
                    "name": "A4",
                    "ticks": 155328,
                    "time": 161.8,
                    "velocity": 0.2755905511811024
                },
                {
                    "duration": 0.30000000000001137,
                    "durationTicks": 288,
                    "midi": 72,
                    "name": "C5",
                    "ticks": 155328,
                    "time": 161.8,
                    "velocity": 0.31496062992125984
                },
                {
                    "duration": 0.30000000000001137,
                    "durationTicks": 288,
                    "midi": 76,
                    "name": "E5",
                    "ticks": 155328,
                    "time": 161.8,
                    "velocity": 0.25196850393700787
                },
                {
                    "duration": 0.30000000000001137,
                    "durationTicks": 288,
                    "midi": 81,
                    "name": "A5",
                    "ticks": 155328,
                    "time": 161.8,
                    "velocity": 0.31496062992125984
                },
                {
                    "duration": 0.30000000000001137,
                    "durationTicks": 288,
                    "midi": 41,
                    "name": "F2",
                    "ticks": 155328,
                    "time": 161.8,
                    "velocity": 0.25196850393700787
                },
                {
                    "duration": 0.30000000000001137,
                    "durationTicks": 288,
                    "midi": 53,
                    "name": "F3",
                    "ticks": 155328,
                    "time": 161.8,
                    "velocity": 0.2677165354330709
                },
                {
                    "duration": 0.29999999999998295,
                    "durationTicks": 288,
                    "midi": 69,
                    "name": "A4",
                    "ticks": 155616,
                    "time": 162.10000000000002,
                    "velocity": 0.23622047244094488
                },
                {
                    "duration": 0.29999999999998295,
                    "durationTicks": 288,
                    "midi": 72,
                    "name": "C5",
                    "ticks": 155616,
                    "time": 162.10000000000002,
                    "velocity": 0.2677165354330709
                },
                {
                    "duration": 0.29999999999998295,
                    "durationTicks": 288,
                    "midi": 76,
                    "name": "E5",
                    "ticks": 155616,
                    "time": 162.10000000000002,
                    "velocity": 0.23622047244094488
                },
                {
                    "duration": 0.29999999999998295,
                    "durationTicks": 288,
                    "midi": 79,
                    "name": "G5",
                    "ticks": 155616,
                    "time": 162.10000000000002,
                    "velocity": 0.31496062992125984
                },
                {
                    "duration": 0.29999999999998295,
                    "durationTicks": 288,
                    "midi": 41,
                    "name": "F2",
                    "ticks": 155616,
                    "time": 162.10000000000002,
                    "velocity": 0.23622047244094488
                },
                {
                    "duration": 0.29999999999998295,
                    "durationTicks": 288,
                    "midi": 53,
                    "name": "F3",
                    "ticks": 155616,
                    "time": 162.10000000000002,
                    "velocity": 0.2204724409448819
                },
                {
                    "duration": 0.20000000000001705,
                    "durationTicks": 192,
                    "midi": 64,
                    "name": "E4",
                    "ticks": 155904,
                    "time": 162.4,
                    "velocity": 0.2440944881889764
                },
                {
                    "duration": 0.20000000000001705,
                    "durationTicks": 192,
                    "midi": 69,
                    "name": "A4",
                    "ticks": 155904,
                    "time": 162.4,
                    "velocity": 0.25196850393700787
                },
                {
                    "duration": 0.20000000000001705,
                    "durationTicks": 192,
                    "midi": 72,
                    "name": "C5",
                    "ticks": 155904,
                    "time": 162.4,
                    "velocity": 0.2677165354330709
                },
                {
                    "duration": 0.20000000000001705,
                    "durationTicks": 192,
                    "midi": 76,
                    "name": "E5",
                    "ticks": 155904,
                    "time": 162.4,
                    "velocity": 0.29133858267716534
                },
                {
                    "duration": 0.20000000000001705,
                    "durationTicks": 192,
                    "midi": 41,
                    "name": "F2",
                    "ticks": 155904,
                    "time": 162.4,
                    "velocity": 0.2440944881889764
                },
                {
                    "duration": 0.20000000000001705,
                    "durationTicks": 192,
                    "midi": 53,
                    "name": "F3",
                    "ticks": 155904,
                    "time": 162.4,
                    "velocity": 0.23622047244094488
                },
                {
                    "duration": 0.29999999999998295,
                    "durationTicks": 288,
                    "midi": 64,
                    "name": "E4",
                    "ticks": 156096,
                    "time": 162.60000000000002,
                    "velocity": 0.25196850393700787
                },
                {
                    "duration": 0.29999999999998295,
                    "durationTicks": 288,
                    "midi": 69,
                    "name": "A4",
                    "ticks": 156096,
                    "time": 162.60000000000002,
                    "velocity": 0.2755905511811024
                },
                {
                    "duration": 0.29999999999998295,
                    "durationTicks": 288,
                    "midi": 72,
                    "name": "C5",
                    "ticks": 156096,
                    "time": 162.60000000000002,
                    "velocity": 0.30708661417322836
                },
                {
                    "duration": 0.29999999999998295,
                    "durationTicks": 288,
                    "midi": 41,
                    "name": "F2",
                    "ticks": 156096,
                    "time": 162.60000000000002,
                    "velocity": 0.25984251968503935
                },
                {
                    "duration": 0.29999999999998295,
                    "durationTicks": 288,
                    "midi": 53,
                    "name": "F3",
                    "ticks": 156096,
                    "time": 162.60000000000002,
                    "velocity": 0.25196850393700787
                },
                {
                    "duration": 0.30000000000001137,
                    "durationTicks": 288,
                    "midi": 64,
                    "name": "E4",
                    "ticks": 156384,
                    "time": 162.9,
                    "velocity": 0.2204724409448819
                },
                {
                    "duration": 0.30000000000001137,
                    "durationTicks": 288,
                    "midi": 69,
                    "name": "A4",
                    "ticks": 156384,
                    "time": 162.9,
                    "velocity": 0.2677165354330709
                },
                {
                    "duration": 0.30000000000001137,
                    "durationTicks": 288,
                    "midi": 41,
                    "name": "F2",
                    "ticks": 156384,
                    "time": 162.9,
                    "velocity": 0.2047244094488189
                },
                {
                    "duration": 0.30000000000001137,
                    "durationTicks": 288,
                    "midi": 53,
                    "name": "F3",
                    "ticks": 156384,
                    "time": 162.9,
                    "velocity": 0.1968503937007874
                },
                {
                    "duration": 0.19999999999998863,
                    "durationTicks": 192,
                    "midi": 64,
                    "name": "E4",
                    "ticks": 156672,
                    "time": 163.20000000000002,
                    "velocity": 0.23622047244094488
                },
                {
                    "duration": 0.19999999999998863,
                    "durationTicks": 192,
                    "midi": 69,
                    "name": "A4",
                    "ticks": 156672,
                    "time": 163.20000000000002,
                    "velocity": 0.2755905511811024
                },
                {
                    "duration": 0.19999999999998863,
                    "durationTicks": 192,
                    "midi": 72,
                    "name": "C5",
                    "ticks": 156672,
                    "time": 163.20000000000002,
                    "velocity": 0.2440944881889764
                },
                {
                    "duration": 0.19999999999998863,
                    "durationTicks": 192,
                    "midi": 41,
                    "name": "F2",
                    "ticks": 156672,
                    "time": 163.20000000000002,
                    "velocity": 0.2047244094488189
                },
                {
                    "duration": 0.19999999999998863,
                    "durationTicks": 192,
                    "midi": 53,
                    "name": "F3",
                    "ticks": 156672,
                    "time": 163.20000000000002,
                    "velocity": 0.2047244094488189
                },
                {
                    "duration": 0.4000000000000057,
                    "durationTicks": 384,
                    "midi": 64,
                    "name": "E4",
                    "ticks": 156864,
                    "time": 163.4,
                    "velocity": 0.25196850393700787
                },
                {
                    "duration": 0.4000000000000057,
                    "durationTicks": 384,
                    "midi": 69,
                    "name": "A4",
                    "ticks": 156864,
                    "time": 163.4,
                    "velocity": 0.2440944881889764
                },
                {
                    "duration": 0.4000000000000057,
                    "durationTicks": 384,
                    "midi": 72,
                    "name": "C5",
                    "ticks": 156864,
                    "time": 163.4,
                    "velocity": 0.29133858267716534
                },
                {
                    "duration": 0.8000000000000114,
                    "durationTicks": 768,
                    "midi": 43,
                    "name": "G2",
                    "ticks": 156864,
                    "time": 163.4,
                    "velocity": 0.2440944881889764
                },
                {
                    "duration": 0.8000000000000114,
                    "durationTicks": 768,
                    "midi": 55,
                    "name": "G3",
                    "ticks": 156864,
                    "time": 163.4,
                    "velocity": 0.2440944881889764
                },
                {
                    "duration": 0.19999999999998863,
                    "durationTicks": 192,
                    "midi": 71,
                    "name": "B4",
                    "ticks": 157248,
                    "time": 163.8,
                    "velocity": 0.29133858267716534
                },
                {
                    "duration": 0.20000000000001705,
                    "durationTicks": 192,
                    "midi": 69,
                    "name": "A4",
                    "ticks": 157440,
                    "time": 164,
                    "velocity": 0.2755905511811024
                },
                {
                    "duration": 0.19999999999998863,
                    "durationTicks": 192,
                    "midi": 64,
                    "name": "E4",
                    "ticks": 157632,
                    "time": 164.20000000000002,
                    "velocity": 0.2440944881889764
                },
                {
                    "duration": 0.19999999999998863,
                    "durationTicks": 192,
                    "midi": 69,
                    "name": "A4",
                    "ticks": 157632,
                    "time": 164.20000000000002,
                    "velocity": 0.2677165354330709
                },
                {
                    "duration": 0.19999999999998863,
                    "durationTicks": 192,
                    "midi": 72,
                    "name": "C5",
                    "ticks": 157632,
                    "time": 164.20000000000002,
                    "velocity": 0.2677165354330709
                },
                {
                    "duration": 0.799999999999983,
                    "durationTicks": 768,
                    "midi": 43,
                    "name": "G2",
                    "ticks": 157632,
                    "time": 164.20000000000002,
                    "velocity": 0.2440944881889764
                },
                {
                    "duration": 0.799999999999983,
                    "durationTicks": 768,
                    "midi": 55,
                    "name": "G3",
                    "ticks": 157632,
                    "time": 164.20000000000002,
                    "velocity": 0.23622047244094488
                },
                {
                    "duration": 0.4000000000000057,
                    "durationTicks": 384,
                    "midi": 71,
                    "name": "B4",
                    "ticks": 157824,
                    "time": 164.4,
                    "velocity": 0.30708661417322836
                },
                {
                    "duration": 0.19999999999998863,
                    "durationTicks": 192,
                    "midi": 72,
                    "name": "C5",
                    "ticks": 158208,
                    "time": 164.8,
                    "velocity": 0.25984251968503935
                },
                {
                    "duration": 0.30000000000001137,
                    "durationTicks": 288,
                    "midi": 64,
                    "name": "E4",
                    "ticks": 158400,
                    "time": 165,
                    "velocity": 0.25196850393700787
                },
                {
                    "duration": 0.30000000000001137,
                    "durationTicks": 288,
                    "midi": 69,
                    "name": "A4",
                    "ticks": 158400,
                    "time": 165,
                    "velocity": 0.2440944881889764
                },
                {
                    "duration": 0.30000000000001137,
                    "durationTicks": 288,
                    "midi": 72,
                    "name": "C5",
                    "ticks": 158400,
                    "time": 165,
                    "velocity": 0.25196850393700787
                },
                {
                    "duration": 0.30000000000001137,
                    "durationTicks": 288,
                    "midi": 41,
                    "name": "F2",
                    "ticks": 158400,
                    "time": 165,
                    "velocity": 0.25196850393700787
                },
                {
                    "duration": 0.30000000000001137,
                    "durationTicks": 288,
                    "midi": 53,
                    "name": "F3",
                    "ticks": 158400,
                    "time": 165,
                    "velocity": 0.2677165354330709
                },
                {
                    "duration": 0.30000000000001137,
                    "durationTicks": 288,
                    "midi": 64,
                    "name": "E4",
                    "ticks": 158688,
                    "time": 165.3,
                    "velocity": 0.23622047244094488
                },
                {
                    "duration": 0.30000000000001137,
                    "durationTicks": 288,
                    "midi": 69,
                    "name": "A4",
                    "ticks": 158688,
                    "time": 165.3,
                    "velocity": 0.2125984251968504
                },
                {
                    "duration": 0.30000000000001137,
                    "durationTicks": 288,
                    "midi": 72,
                    "name": "C5",
                    "ticks": 158688,
                    "time": 165.3,
                    "velocity": 0.2125984251968504
                },
                {
                    "duration": 0.30000000000001137,
                    "durationTicks": 288,
                    "midi": 41,
                    "name": "F2",
                    "ticks": 158688,
                    "time": 165.3,
                    "velocity": 0.23622047244094488
                },
                {
                    "duration": 0.30000000000001137,
                    "durationTicks": 288,
                    "midi": 53,
                    "name": "F3",
                    "ticks": 158688,
                    "time": 165.3,
                    "velocity": 0.2204724409448819
                },
                {
                    "duration": 0.19999999999998863,
                    "durationTicks": 192,
                    "midi": 64,
                    "name": "E4",
                    "ticks": 158976,
                    "time": 165.60000000000002,
                    "velocity": 0.2440944881889764
                },
                {
                    "duration": 0.19999999999998863,
                    "durationTicks": 192,
                    "midi": 69,
                    "name": "A4",
                    "ticks": 158976,
                    "time": 165.60000000000002,
                    "velocity": 0.2283464566929134
                },
                {
                    "duration": 0.19999999999998863,
                    "durationTicks": 192,
                    "midi": 72,
                    "name": "C5",
                    "ticks": 158976,
                    "time": 165.60000000000002,
                    "velocity": 0.2125984251968504
                },
                {
                    "duration": 0.19999999999998863,
                    "durationTicks": 192,
                    "midi": 41,
                    "name": "F2",
                    "ticks": 158976,
                    "time": 165.60000000000002,
                    "velocity": 0.2440944881889764
                },
                {
                    "duration": 0.19999999999998863,
                    "durationTicks": 192,
                    "midi": 53,
                    "name": "F3",
                    "ticks": 158976,
                    "time": 165.60000000000002,
                    "velocity": 0.23622047244094488
                },
                {
                    "duration": 0.30000000000001137,
                    "durationTicks": 288,
                    "midi": 64,
                    "name": "E4",
                    "ticks": 159168,
                    "time": 165.8,
                    "velocity": 0.25196850393700787
                },
                {
                    "duration": 0.30000000000001137,
                    "durationTicks": 288,
                    "midi": 69,
                    "name": "A4",
                    "ticks": 159168,
                    "time": 165.8,
                    "velocity": 0.2440944881889764
                },
                {
                    "duration": 0.30000000000001137,
                    "durationTicks": 288,
                    "midi": 72,
                    "name": "C5",
                    "ticks": 159168,
                    "time": 165.8,
                    "velocity": 0.2204724409448819
                },
                {
                    "duration": 0.30000000000001137,
                    "durationTicks": 288,
                    "midi": 41,
                    "name": "F2",
                    "ticks": 159168,
                    "time": 165.8,
                    "velocity": 0.25984251968503935
                },
                {
                    "duration": 0.30000000000001137,
                    "durationTicks": 288,
                    "midi": 53,
                    "name": "F3",
                    "ticks": 159168,
                    "time": 165.8,
                    "velocity": 0.25196850393700787
                },
                {
                    "duration": 0.29999999999998295,
                    "durationTicks": 288,
                    "midi": 64,
                    "name": "E4",
                    "ticks": 159456,
                    "time": 166.10000000000002,
                    "velocity": 0.2204724409448819
                },
                {
                    "duration": 0.29999999999998295,
                    "durationTicks": 288,
                    "midi": 69,
                    "name": "A4",
                    "ticks": 159456,
                    "time": 166.10000000000002,
                    "velocity": 0.23622047244094488
                },
                {
                    "duration": 0.29999999999998295,
                    "durationTicks": 288,
                    "midi": 41,
                    "name": "F2",
                    "ticks": 159456,
                    "time": 166.10000000000002,
                    "velocity": 0.2047244094488189
                },
                {
                    "duration": 0.29999999999998295,
                    "durationTicks": 288,
                    "midi": 53,
                    "name": "F3",
                    "ticks": 159456,
                    "time": 166.10000000000002,
                    "velocity": 0.1968503937007874
                },
                {
                    "duration": 0.20000000000001705,
                    "durationTicks": 192,
                    "midi": 64,
                    "name": "E4",
                    "ticks": 159744,
                    "time": 166.4,
                    "velocity": 0.23622047244094488
                },
                {
                    "duration": 0.20000000000001705,
                    "durationTicks": 192,
                    "midi": 69,
                    "name": "A4",
                    "ticks": 159744,
                    "time": 166.4,
                    "velocity": 0.2283464566929134
                },
                {
                    "duration": 0.20000000000001705,
                    "durationTicks": 192,
                    "midi": 41,
                    "name": "F2",
                    "ticks": 159744,
                    "time": 166.4,
                    "velocity": 0.2047244094488189
                },
                {
                    "duration": 0.20000000000001705,
                    "durationTicks": 192,
                    "midi": 53,
                    "name": "F3",
                    "ticks": 159744,
                    "time": 166.4,
                    "velocity": 0.2047244094488189
                },
                {
                    "duration": 0.29999999999998295,
                    "durationTicks": 288,
                    "midi": 64,
                    "name": "E4",
                    "ticks": 159936,
                    "time": 166.60000000000002,
                    "velocity": 0.25196850393700787
                },
                {
                    "duration": 0.29999999999998295,
                    "durationTicks": 288,
                    "midi": 69,
                    "name": "A4",
                    "ticks": 159936,
                    "time": 166.60000000000002,
                    "velocity": 0.2440944881889764
                },
                {
                    "duration": 0.29999999999998295,
                    "durationTicks": 288,
                    "midi": 72,
                    "name": "C5",
                    "ticks": 159936,
                    "time": 166.60000000000002,
                    "velocity": 0.2440944881889764
                },
                {
                    "duration": 0.29999999999998295,
                    "durationTicks": 288,
                    "midi": 43,
                    "name": "G2",
                    "ticks": 159936,
                    "time": 166.60000000000002,
                    "velocity": 0.2440944881889764
                },
                {
                    "duration": 0.29999999999998295,
                    "durationTicks": 288,
                    "midi": 55,
                    "name": "G3",
                    "ticks": 159936,
                    "time": 166.60000000000002,
                    "velocity": 0.2440944881889764
                },
                {
                    "duration": 0.30000000000001137,
                    "durationTicks": 288,
                    "midi": 64,
                    "name": "E4",
                    "ticks": 160224,
                    "time": 166.9,
                    "velocity": 0.23622047244094488
                },
                {
                    "duration": 0.30000000000001137,
                    "durationTicks": 288,
                    "midi": 69,
                    "name": "A4",
                    "ticks": 160224,
                    "time": 166.9,
                    "velocity": 0.2283464566929134
                },
                {
                    "duration": 0.30000000000001137,
                    "durationTicks": 288,
                    "midi": 72,
                    "name": "C5",
                    "ticks": 160224,
                    "time": 166.9,
                    "velocity": 0.2440944881889764
                },
                {
                    "duration": 0.30000000000001137,
                    "durationTicks": 288,
                    "midi": 43,
                    "name": "G2",
                    "ticks": 160224,
                    "time": 166.9,
                    "velocity": 0.2204724409448819
                },
                {
                    "duration": 0.30000000000001137,
                    "durationTicks": 288,
                    "midi": 55,
                    "name": "G3",
                    "ticks": 160224,
                    "time": 166.9,
                    "velocity": 0.2283464566929134
                },
                {
                    "duration": 0.19999999999998863,
                    "durationTicks": 192,
                    "midi": 64,
                    "name": "E4",
                    "ticks": 160512,
                    "time": 167.20000000000002,
                    "velocity": 0.2125984251968504
                },
                {
                    "duration": 0.19999999999998863,
                    "durationTicks": 192,
                    "midi": 69,
                    "name": "A4",
                    "ticks": 160512,
                    "time": 167.20000000000002,
                    "velocity": 0.1732283464566929
                },
                {
                    "duration": 0.19999999999998863,
                    "durationTicks": 192,
                    "midi": 72,
                    "name": "C5",
                    "ticks": 160512,
                    "time": 167.20000000000002,
                    "velocity": 0.23622047244094488
                },
                {
                    "duration": 0.19999999999998863,
                    "durationTicks": 192,
                    "midi": 43,
                    "name": "G2",
                    "ticks": 160512,
                    "time": 167.20000000000002,
                    "velocity": 0.2283464566929134
                },
                {
                    "duration": 0.19999999999998863,
                    "durationTicks": 192,
                    "midi": 55,
                    "name": "G3",
                    "ticks": 160512,
                    "time": 167.20000000000002,
                    "velocity": 0.2204724409448819
                },
                {
                    "duration": 0.30000000000001137,
                    "durationTicks": 288,
                    "midi": 64,
                    "name": "E4",
                    "ticks": 160704,
                    "time": 167.4,
                    "velocity": 0.2440944881889764
                },
                {
                    "duration": 0.30000000000001137,
                    "durationTicks": 288,
                    "midi": 69,
                    "name": "A4",
                    "ticks": 160704,
                    "time": 167.4,
                    "velocity": 0.2677165354330709
                },
                {
                    "duration": 0.30000000000001137,
                    "durationTicks": 288,
                    "midi": 72,
                    "name": "C5",
                    "ticks": 160704,
                    "time": 167.4,
                    "velocity": 0.2440944881889764
                },
                {
                    "duration": 0.30000000000001137,
                    "durationTicks": 288,
                    "midi": 43,
                    "name": "G2",
                    "ticks": 160704,
                    "time": 167.4,
                    "velocity": 0.2440944881889764
                },
                {
                    "duration": 0.30000000000001137,
                    "durationTicks": 288,
                    "midi": 55,
                    "name": "G3",
                    "ticks": 160704,
                    "time": 167.4,
                    "velocity": 0.23622047244094488
                },
                {
                    "duration": 0.29999999999998295,
                    "durationTicks": 288,
                    "midi": 64,
                    "name": "E4",
                    "ticks": 160992,
                    "time": 167.70000000000002,
                    "velocity": 0.2283464566929134
                },
                {
                    "duration": 0.29999999999998295,
                    "durationTicks": 288,
                    "midi": 69,
                    "name": "A4",
                    "ticks": 160992,
                    "time": 167.70000000000002,
                    "velocity": 0.2677165354330709
                },
                {
                    "duration": 0.29999999999998295,
                    "durationTicks": 288,
                    "midi": 43,
                    "name": "G2",
                    "ticks": 160992,
                    "time": 167.70000000000002,
                    "velocity": 0.2125984251968504
                },
                {
                    "duration": 0.29999999999998295,
                    "durationTicks": 288,
                    "midi": 55,
                    "name": "G3",
                    "ticks": 160992,
                    "time": 167.70000000000002,
                    "velocity": 0.2125984251968504
                },
                {
                    "duration": 0.20000000000001705,
                    "durationTicks": 192,
                    "midi": 64,
                    "name": "E4",
                    "ticks": 161280,
                    "time": 168,
                    "velocity": 0.2283464566929134
                },
                {
                    "duration": 0.20000000000001705,
                    "durationTicks": 192,
                    "midi": 69,
                    "name": "A4",
                    "ticks": 161280,
                    "time": 168,
                    "velocity": 0.25984251968503935
                },
                {
                    "duration": 0.20000000000001705,
                    "durationTicks": 192,
                    "midi": 71,
                    "name": "B4",
                    "ticks": 161280,
                    "time": 168,
                    "velocity": 0.2755905511811024
                },
                {
                    "duration": 0.20000000000001705,
                    "durationTicks": 192,
                    "midi": 43,
                    "name": "G2",
                    "ticks": 161280,
                    "time": 168,
                    "velocity": 0.2125984251968504
                },
                {
                    "duration": 0.20000000000001705,
                    "durationTicks": 192,
                    "midi": 55,
                    "name": "G3",
                    "ticks": 161280,
                    "time": 168,
                    "velocity": 0.2204724409448819
                },
                {
                    "duration": 0.29999999999998295,
                    "durationTicks": 288,
                    "midi": 64,
                    "name": "E4",
                    "ticks": 161472,
                    "time": 168.20000000000002,
                    "velocity": 0.2440944881889764
                },
                {
                    "duration": 0.29999999999998295,
                    "durationTicks": 288,
                    "midi": 69,
                    "name": "A4",
                    "ticks": 161472,
                    "time": 168.20000000000002,
                    "velocity": 0.2992125984251969
                },
                {
                    "duration": 0.29999999999998295,
                    "durationTicks": 288,
                    "midi": 72,
                    "name": "C5",
                    "ticks": 161472,
                    "time": 168.20000000000002,
                    "velocity": 0.2283464566929134
                },
                {
                    "duration": 0.29999999999998295,
                    "durationTicks": 288,
                    "midi": 45,
                    "name": "A2",
                    "ticks": 161472,
                    "time": 168.20000000000002,
                    "velocity": 0.2283464566929134
                },
                {
                    "duration": 0.29999999999998295,
                    "durationTicks": 288,
                    "midi": 57,
                    "name": "A3",
                    "ticks": 161472,
                    "time": 168.20000000000002,
                    "velocity": 0.2755905511811024
                },
                {
                    "duration": 0.10000000000002274,
                    "durationTicks": 96,
                    "midi": 64,
                    "name": "E4",
                    "ticks": 161760,
                    "time": 168.5,
                    "velocity": 0.2283464566929134
                },
                {
                    "duration": 0.10000000000002274,
                    "durationTicks": 96,
                    "midi": 69,
                    "name": "A4",
                    "ticks": 161760,
                    "time": 168.5,
                    "velocity": 0.23622047244094488
                },
                {
                    "duration": 0.30000000000001137,
                    "durationTicks": 288,
                    "midi": 45,
                    "name": "A2",
                    "ticks": 161760,
                    "time": 168.5,
                    "velocity": 0.2677165354330709
                },
                {
                    "duration": 0.30000000000001137,
                    "durationTicks": 288,
                    "midi": 57,
                    "name": "A3",
                    "ticks": 161760,
                    "time": 168.5,
                    "velocity": 0.25984251968503935
                },
                {
                    "duration": 0.19999999999998863,
                    "durationTicks": 192,
                    "midi": 71,
                    "name": "B4",
                    "ticks": 161856,
                    "time": 168.60000000000002,
                    "velocity": 0.2283464566929134
                },
                {
                    "duration": 0.19999999999998863,
                    "durationTicks": 192,
                    "midi": 64,
                    "name": "E4",
                    "ticks": 162048,
                    "time": 168.8,
                    "velocity": 0.2440944881889764
                },
                {
                    "duration": 0.19999999999998863,
                    "durationTicks": 192,
                    "midi": 69,
                    "name": "A4",
                    "ticks": 162048,
                    "time": 168.8,
                    "velocity": 0.2755905511811024
                },
                {
                    "duration": 0.19999999999998863,
                    "durationTicks": 192,
                    "midi": 72,
                    "name": "C5",
                    "ticks": 162048,
                    "time": 168.8,
                    "velocity": 0.25196850393700787
                },
                {
                    "duration": 0.19999999999998863,
                    "durationTicks": 192,
                    "midi": 74,
                    "name": "D5",
                    "ticks": 162048,
                    "time": 168.8,
                    "velocity": 0.25196850393700787
                },
                {
                    "duration": 0.19999999999998863,
                    "durationTicks": 192,
                    "midi": 45,
                    "name": "A2",
                    "ticks": 162048,
                    "time": 168.8,
                    "velocity": 0.2677165354330709
                },
                {
                    "duration": 0.19999999999998863,
                    "durationTicks": 192,
                    "midi": 57,
                    "name": "A3",
                    "ticks": 162048,
                    "time": 168.8,
                    "velocity": 0.25196850393700787
                },
                {
                    "duration": 0.20000000000001705,
                    "durationTicks": 192,
                    "midi": 64,
                    "name": "E4",
                    "ticks": 162240,
                    "time": 169,
                    "velocity": 0.23622047244094488
                },
                {
                    "duration": 0.20000000000001705,
                    "durationTicks": 192,
                    "midi": 69,
                    "name": "A4",
                    "ticks": 162240,
                    "time": 169,
                    "velocity": 0.25984251968503935
                },
                {
                    "duration": 0.20000000000001705,
                    "durationTicks": 192,
                    "midi": 72,
                    "name": "C5",
                    "ticks": 162240,
                    "time": 169,
                    "velocity": 0.25196850393700787
                },
                {
                    "duration": 0.30000000000001137,
                    "durationTicks": 288,
                    "midi": 45,
                    "name": "A2",
                    "ticks": 162240,
                    "time": 169,
                    "velocity": 0.2755905511811024
                },
                {
                    "duration": 0.30000000000001137,
                    "durationTicks": 288,
                    "midi": 57,
                    "name": "A3",
                    "ticks": 162240,
                    "time": 169,
                    "velocity": 0.2755905511811024
                },
                {
                    "duration": 0.09999999999999432,
                    "durationTicks": 96,
                    "midi": 72,
                    "name": "C5",
                    "ticks": 162432,
                    "time": 169.20000000000002,
                    "velocity": 0.2047244094488189
                },
                {
                    "duration": 0.30000000000001137,
                    "durationTicks": 288,
                    "midi": 64,
                    "name": "E4",
                    "ticks": 162528,
                    "time": 169.3,
                    "velocity": 0.2283464566929134
                },
                {
                    "duration": 0.30000000000001137,
                    "durationTicks": 288,
                    "midi": 69,
                    "name": "A4",
                    "ticks": 162528,
                    "time": 169.3,
                    "velocity": 0.2125984251968504
                },
                {
                    "duration": 0.30000000000001137,
                    "durationTicks": 288,
                    "midi": 45,
                    "name": "A2",
                    "ticks": 162528,
                    "time": 169.3,
                    "velocity": 0.2047244094488189
                },
                {
                    "duration": 0.30000000000001137,
                    "durationTicks": 288,
                    "midi": 57,
                    "name": "A3",
                    "ticks": 162528,
                    "time": 169.3,
                    "velocity": 0.1889763779527559
                },
                {
                    "duration": 0.19999999999998863,
                    "durationTicks": 192,
                    "midi": 64,
                    "name": "E4",
                    "ticks": 162816,
                    "time": 169.60000000000002,
                    "velocity": 0.2047244094488189
                },
                {
                    "duration": 0.19999999999998863,
                    "durationTicks": 192,
                    "midi": 69,
                    "name": "A4",
                    "ticks": 162816,
                    "time": 169.60000000000002,
                    "velocity": 0.2047244094488189
                },
                {
                    "duration": 0.19999999999998863,
                    "durationTicks": 192,
                    "midi": 45,
                    "name": "A2",
                    "ticks": 162816,
                    "time": 169.60000000000002,
                    "velocity": 0.2440944881889764
                },
                {
                    "duration": 0.19999999999998863,
                    "durationTicks": 192,
                    "midi": 57,
                    "name": "A3",
                    "ticks": 162816,
                    "time": 169.60000000000002,
                    "velocity": 0.2283464566929134
                },
                {
                    "duration": 0.39999999999997726,
                    "durationTicks": 384,
                    "midi": 74,
                    "name": "D5",
                    "ticks": 162816,
                    "time": 169.60000000000002,
                    "velocity": 0.2755905511811024
                },
                {
                    "duration": 0.19999999999998863,
                    "durationTicks": 192,
                    "midi": 64,
                    "name": "E4",
                    "ticks": 163008,
                    "time": 169.8,
                    "velocity": 0.2677165354330709
                },
                {
                    "duration": 0.19999999999998863,
                    "durationTicks": 192,
                    "midi": 67,
                    "name": "G4",
                    "ticks": 163008,
                    "time": 169.8,
                    "velocity": 0.28346456692913385
                },
                {
                    "duration": 0.19999999999998863,
                    "durationTicks": 192,
                    "midi": 71,
                    "name": "B4",
                    "ticks": 163008,
                    "time": 169.8,
                    "velocity": 0.23622047244094488
                },
                {
                    "duration": 0.30000000000001137,
                    "durationTicks": 288,
                    "midi": 40,
                    "name": "E2",
                    "ticks": 163008,
                    "time": 169.8,
                    "velocity": 0.2440944881889764
                },
                {
                    "duration": 0.30000000000001137,
                    "durationTicks": 288,
                    "midi": 52,
                    "name": "E3",
                    "ticks": 163008,
                    "time": 169.8,
                    "velocity": 0.2283464566929134
                },
                {
                    "duration": 0.10000000000002274,
                    "durationTicks": 96,
                    "midi": 76,
                    "name": "E5",
                    "ticks": 163200,
                    "time": 170,
                    "velocity": 0.2755905511811024
                },
                {
                    "duration": 0.29999999999998295,
                    "durationTicks": 288,
                    "midi": 64,
                    "name": "E4",
                    "ticks": 163296,
                    "time": 170.10000000000002,
                    "velocity": 0.2125984251968504
                },
                {
                    "duration": 0.29999999999998295,
                    "durationTicks": 288,
                    "midi": 67,
                    "name": "G4",
                    "ticks": 163296,
                    "time": 170.10000000000002,
                    "velocity": 0.23622047244094488
                },
                {
                    "duration": 0.29999999999998295,
                    "durationTicks": 288,
                    "midi": 71,
                    "name": "B4",
                    "ticks": 163296,
                    "time": 170.10000000000002,
                    "velocity": 0.2677165354330709
                },
                {
                    "duration": 0.29999999999998295,
                    "durationTicks": 288,
                    "midi": 40,
                    "name": "E2",
                    "ticks": 163296,
                    "time": 170.10000000000002,
                    "velocity": 0.2125984251968504
                },
                {
                    "duration": 0.29999999999998295,
                    "durationTicks": 288,
                    "midi": 52,
                    "name": "E3",
                    "ticks": 163296,
                    "time": 170.10000000000002,
                    "velocity": 0.2283464566929134
                },
                {
                    "duration": 0.20000000000001705,
                    "durationTicks": 192,
                    "midi": 64,
                    "name": "E4",
                    "ticks": 163584,
                    "time": 170.4,
                    "velocity": 0.2204724409448819
                },
                {
                    "duration": 0.20000000000001705,
                    "durationTicks": 192,
                    "midi": 67,
                    "name": "G4",
                    "ticks": 163584,
                    "time": 170.4,
                    "velocity": 0.2677165354330709
                },
                {
                    "duration": 0.20000000000001705,
                    "durationTicks": 192,
                    "midi": 71,
                    "name": "B4",
                    "ticks": 163584,
                    "time": 170.4,
                    "velocity": 0.23622047244094488
                },
                {
                    "duration": 0.20000000000001705,
                    "durationTicks": 192,
                    "midi": 40,
                    "name": "E2",
                    "ticks": 163584,
                    "time": 170.4,
                    "velocity": 0.25984251968503935
                },
                {
                    "duration": 0.20000000000001705,
                    "durationTicks": 192,
                    "midi": 52,
                    "name": "E3",
                    "ticks": 163584,
                    "time": 170.4,
                    "velocity": 0.2677165354330709
                },
                {
                    "duration": 0.29999999999998295,
                    "durationTicks": 288,
                    "midi": 64,
                    "name": "E4",
                    "ticks": 163776,
                    "time": 170.60000000000002,
                    "velocity": 0.25984251968503935
                },
                {
                    "duration": 0.29999999999998295,
                    "durationTicks": 288,
                    "midi": 67,
                    "name": "G4",
                    "ticks": 163776,
                    "time": 170.60000000000002,
                    "velocity": 0.2755905511811024
                },
                {
                    "duration": 0.29999999999998295,
                    "durationTicks": 288,
                    "midi": 71,
                    "name": "B4",
                    "ticks": 163776,
                    "time": 170.60000000000002,
                    "velocity": 0.2677165354330709
                },
                {
                    "duration": 0.29999999999998295,
                    "durationTicks": 288,
                    "midi": 40,
                    "name": "E2",
                    "ticks": 163776,
                    "time": 170.60000000000002,
                    "velocity": 0.2677165354330709
                },
                {
                    "duration": 0.29999999999998295,
                    "durationTicks": 288,
                    "midi": 52,
                    "name": "E3",
                    "ticks": 163776,
                    "time": 170.60000000000002,
                    "velocity": 0.2755905511811024
                },
                {
                    "duration": 0.30000000000001137,
                    "durationTicks": 288,
                    "midi": 64,
                    "name": "E4",
                    "ticks": 164064,
                    "time": 170.9,
                    "velocity": 0.2047244094488189
                },
                {
                    "duration": 0.30000000000001137,
                    "durationTicks": 288,
                    "midi": 67,
                    "name": "G4",
                    "ticks": 164064,
                    "time": 170.9,
                    "velocity": 0.2047244094488189
                },
                {
                    "duration": 0.30000000000001137,
                    "durationTicks": 288,
                    "midi": 48,
                    "name": "C3",
                    "ticks": 164064,
                    "time": 170.9,
                    "velocity": 0.2283464566929134
                },
                {
                    "duration": 0.30000000000001137,
                    "durationTicks": 288,
                    "midi": 60,
                    "name": "C4",
                    "ticks": 164064,
                    "time": 170.9,
                    "velocity": 0.28346456692913385
                },
                {
                    "duration": 0.19999999999998863,
                    "durationTicks": 192,
                    "midi": 64,
                    "name": "E4",
                    "ticks": 164352,
                    "time": 171.20000000000002,
                    "velocity": 0.25196850393700787
                },
                {
                    "duration": 0.19999999999998863,
                    "durationTicks": 192,
                    "midi": 67,
                    "name": "G4",
                    "ticks": 164352,
                    "time": 171.20000000000002,
                    "velocity": 0.25984251968503935
                },
                {
                    "duration": 0.19999999999998863,
                    "durationTicks": 192,
                    "midi": 84,
                    "name": "C6",
                    "ticks": 164352,
                    "time": 171.20000000000002,
                    "velocity": 0.2204724409448819
                },
                {
                    "duration": 0.19999999999998863,
                    "durationTicks": 192,
                    "midi": 47,
                    "name": "B2",
                    "ticks": 164352,
                    "time": 171.20000000000002,
                    "velocity": 0.2440944881889764
                },
                {
                    "duration": 0.19999999999998863,
                    "durationTicks": 192,
                    "midi": 59,
                    "name": "B3",
                    "ticks": 164352,
                    "time": 171.20000000000002,
                    "velocity": 0.1889763779527559
                },
                {
                    "duration": 0.30000000000001137,
                    "durationTicks": 288,
                    "midi": 93,
                    "name": "A6",
                    "ticks": 164544,
                    "time": 171.4,
                    "velocity": 0.2204724409448819
                },
                {
                    "duration": 1.5,
                    "durationTicks": 1440,
                    "midi": 53,
                    "name": "F3",
                    "ticks": 164544,
                    "time": 171.4,
                    "velocity": 0.1889763779527559
                },
                {
                    "duration": 1.5,
                    "durationTicks": 1440,
                    "midi": 57,
                    "name": "A3",
                    "ticks": 164544,
                    "time": 171.4,
                    "velocity": 0.2204724409448819
                },
                {
                    "duration": 1.5,
                    "durationTicks": 1440,
                    "midi": 60,
                    "name": "C4",
                    "ticks": 164544,
                    "time": 171.4,
                    "velocity": 0.2047244094488189
                },
                {
                    "duration": 1.5,
                    "durationTicks": 1440,
                    "midi": 65,
                    "name": "F4",
                    "ticks": 164544,
                    "time": 171.4,
                    "velocity": 0.2125984251968504
                },
                {
                    "duration": 0.29999999999998295,
                    "durationTicks": 288,
                    "midi": 91,
                    "name": "G6",
                    "ticks": 164832,
                    "time": 171.70000000000002,
                    "velocity": 0.23622047244094488
                },
                {
                    "duration": 0.4000000000000057,
                    "durationTicks": 384,
                    "midi": 88,
                    "name": "E6",
                    "ticks": 165120,
                    "time": 172,
                    "velocity": 0.2204724409448819
                },
                {
                    "duration": 0.4000000000000057,
                    "durationTicks": 384,
                    "midi": 84,
                    "name": "C6",
                    "ticks": 165504,
                    "time": 172.4,
                    "velocity": 0.2283464566929134
                },
                {
                    "duration": 0.19999999999998863,
                    "durationTicks": 192,
                    "midi": 84,
                    "name": "C6",
                    "ticks": 165888,
                    "time": 172.8,
                    "velocity": 0.2204724409448819
                },
                {
                    "duration": 0.30000000000001137,
                    "durationTicks": 288,
                    "midi": 93,
                    "name": "A6",
                    "ticks": 166080,
                    "time": 173,
                    "velocity": 0.25196850393700787
                },
                {
                    "duration": 1.5,
                    "durationTicks": 1440,
                    "midi": 55,
                    "name": "G3",
                    "ticks": 166080,
                    "time": 173,
                    "velocity": 0.16535433070866143
                },
                {
                    "duration": 1.5,
                    "durationTicks": 1440,
                    "midi": 59,
                    "name": "B3",
                    "ticks": 166080,
                    "time": 173,
                    "velocity": 0.1732283464566929
                },
                {
                    "duration": 1.5,
                    "durationTicks": 1440,
                    "midi": 62,
                    "name": "D4",
                    "ticks": 166080,
                    "time": 173,
                    "velocity": 0.2204724409448819
                },
                {
                    "duration": 1.5,
                    "durationTicks": 1440,
                    "midi": 67,
                    "name": "G4",
                    "ticks": 166080,
                    "time": 173,
                    "velocity": 0.11811023622047244
                },
                {
                    "duration": 0.30000000000001137,
                    "durationTicks": 288,
                    "midi": 91,
                    "name": "G6",
                    "ticks": 166368,
                    "time": 173.3,
                    "velocity": 0.2283464566929134
                },
                {
                    "duration": 0.39999999999997726,
                    "durationTicks": 384,
                    "midi": 88,
                    "name": "E6",
                    "ticks": 166656,
                    "time": 173.60000000000002,
                    "velocity": 0.2125984251968504
                },
                {
                    "duration": 0.4000000000000057,
                    "durationTicks": 384,
                    "midi": 84,
                    "name": "C6",
                    "ticks": 167040,
                    "time": 174,
                    "velocity": 0.2125984251968504
                },
                {
                    "duration": 0.20000000000001705,
                    "durationTicks": 192,
                    "midi": 84,
                    "name": "C6",
                    "ticks": 167424,
                    "time": 174.4,
                    "velocity": 0.2283464566929134
                },
                {
                    "duration": 0.29999999999998295,
                    "durationTicks": 288,
                    "midi": 93,
                    "name": "A6",
                    "ticks": 167616,
                    "time": 174.60000000000002,
                    "velocity": 0.2125984251968504
                },
                {
                    "duration": 1.5,
                    "durationTicks": 1440,
                    "midi": 55,
                    "name": "G3",
                    "ticks": 167616,
                    "time": 174.60000000000002,
                    "velocity": 0.11023622047244094
                },
                {
                    "duration": 1.5,
                    "durationTicks": 1440,
                    "midi": 60,
                    "name": "C4",
                    "ticks": 167616,
                    "time": 174.60000000000002,
                    "velocity": 0.16535433070866143
                },
                {
                    "duration": 1.5,
                    "durationTicks": 1440,
                    "midi": 64,
                    "name": "E4",
                    "ticks": 167616,
                    "time": 174.60000000000002,
                    "velocity": 0.16535433070866143
                },
                {
                    "duration": 1.5,
                    "durationTicks": 1440,
                    "midi": 69,
                    "name": "A4",
                    "ticks": 167616,
                    "time": 174.60000000000002,
                    "velocity": 0.13385826771653545
                },
                {
                    "duration": 0.30000000000001137,
                    "durationTicks": 288,
                    "midi": 91,
                    "name": "G6",
                    "ticks": 167904,
                    "time": 174.9,
                    "velocity": 0.2440944881889764
                },
                {
                    "duration": 0.4000000000000057,
                    "durationTicks": 384,
                    "midi": 88,
                    "name": "E6",
                    "ticks": 168192,
                    "time": 175.20000000000002,
                    "velocity": 0.2283464566929134
                },
                {
                    "duration": 0.39999999999997726,
                    "durationTicks": 384,
                    "midi": 84,
                    "name": "C6",
                    "ticks": 168576,
                    "time": 175.60000000000002,
                    "velocity": 0.2204724409448819
                },
                {
                    "duration": 0.20000000000001705,
                    "durationTicks": 192,
                    "midi": 84,
                    "name": "C6",
                    "ticks": 168960,
                    "time": 176,
                    "velocity": 0.2125984251968504
                },
                {
                    "duration": 0.29999999999998295,
                    "durationTicks": 288,
                    "midi": 93,
                    "name": "A6",
                    "ticks": 169152,
                    "time": 176.20000000000002,
                    "velocity": 0.25196850393700787
                },
                {
                    "duration": 1.5,
                    "durationTicks": 1440,
                    "midi": 57,
                    "name": "A3",
                    "ticks": 169152,
                    "time": 176.20000000000002,
                    "velocity": 0.1968503937007874
                },
                {
                    "duration": 1.5,
                    "durationTicks": 1440,
                    "midi": 60,
                    "name": "C4",
                    "ticks": 169152,
                    "time": 176.20000000000002,
                    "velocity": 0.11023622047244094
                },
                {
                    "duration": 1.5,
                    "durationTicks": 1440,
                    "midi": 64,
                    "name": "E4",
                    "ticks": 169152,
                    "time": 176.20000000000002,
                    "velocity": 0.2204724409448819
                },
                {
                    "duration": 1.5,
                    "durationTicks": 1440,
                    "midi": 67,
                    "name": "G4",
                    "ticks": 169152,
                    "time": 176.20000000000002,
                    "velocity": 0.2047244094488189
                },
                {
                    "duration": 0.30000000000001137,
                    "durationTicks": 288,
                    "midi": 91,
                    "name": "G6",
                    "ticks": 169440,
                    "time": 176.5,
                    "velocity": 0.2440944881889764
                },
                {
                    "duration": 0.4000000000000057,
                    "durationTicks": 384,
                    "midi": 88,
                    "name": "E6",
                    "ticks": 169728,
                    "time": 176.8,
                    "velocity": 0.2283464566929134
                },
                {
                    "duration": 0.5999999999999943,
                    "durationTicks": 576,
                    "midi": 84,
                    "name": "C6",
                    "ticks": 170112,
                    "time": 177.20000000000002,
                    "velocity": 0.2283464566929134
                },
                {
                    "duration": 0.30000000000001137,
                    "durationTicks": 288,
                    "midi": 64,
                    "name": "E4",
                    "ticks": 170688,
                    "time": 177.8,
                    "velocity": 0.2125984251968504
                },
                {
                    "duration": 0.30000000000001137,
                    "durationTicks": 288,
                    "midi": 69,
                    "name": "A4",
                    "ticks": 170688,
                    "time": 177.8,
                    "velocity": 0.2283464566929134
                },
                {
                    "duration": 0.30000000000001137,
                    "durationTicks": 288,
                    "midi": 72,
                    "name": "C5",
                    "ticks": 170688,
                    "time": 177.8,
                    "velocity": 0.2440944881889764
                },
                {
                    "duration": 0.30000000000001137,
                    "durationTicks": 288,
                    "midi": 76,
                    "name": "E5",
                    "ticks": 170688,
                    "time": 177.8,
                    "velocity": 0.2283464566929134
                },
                {
                    "duration": 0.30000000000001137,
                    "durationTicks": 288,
                    "midi": 41,
                    "name": "F2",
                    "ticks": 170688,
                    "time": 177.8,
                    "velocity": 0.2125984251968504
                },
                {
                    "duration": 0.30000000000001137,
                    "durationTicks": 288,
                    "midi": 53,
                    "name": "F3",
                    "ticks": 170688,
                    "time": 177.8,
                    "velocity": 0.2283464566929134
                },
                {
                    "duration": 0.29999999999998295,
                    "durationTicks": 288,
                    "midi": 64,
                    "name": "E4",
                    "ticks": 170976,
                    "time": 178.10000000000002,
                    "velocity": 0.2047244094488189
                },
                {
                    "duration": 0.29999999999998295,
                    "durationTicks": 288,
                    "midi": 69,
                    "name": "A4",
                    "ticks": 170976,
                    "time": 178.10000000000002,
                    "velocity": 0.2047244094488189
                },
                {
                    "duration": 0.29999999999998295,
                    "durationTicks": 288,
                    "midi": 72,
                    "name": "C5",
                    "ticks": 170976,
                    "time": 178.10000000000002,
                    "velocity": 0.2125984251968504
                },
                {
                    "duration": 0.29999999999998295,
                    "durationTicks": 288,
                    "midi": 74,
                    "name": "D5",
                    "ticks": 170976,
                    "time": 178.10000000000002,
                    "velocity": 0.2283464566929134
                },
                {
                    "duration": 0.29999999999998295,
                    "durationTicks": 288,
                    "midi": 41,
                    "name": "F2",
                    "ticks": 170976,
                    "time": 178.10000000000002,
                    "velocity": 0.1968503937007874
                },
                {
                    "duration": 0.29999999999998295,
                    "durationTicks": 288,
                    "midi": 53,
                    "name": "F3",
                    "ticks": 170976,
                    "time": 178.10000000000002,
                    "velocity": 0.1889763779527559
                },
                {
                    "duration": 0.20000000000001705,
                    "durationTicks": 192,
                    "midi": 64,
                    "name": "E4",
                    "ticks": 171264,
                    "time": 178.4,
                    "velocity": 0.2125984251968504
                },
                {
                    "duration": 0.20000000000001705,
                    "durationTicks": 192,
                    "midi": 69,
                    "name": "A4",
                    "ticks": 171264,
                    "time": 178.4,
                    "velocity": 0.2125984251968504
                },
                {
                    "duration": 0.20000000000001705,
                    "durationTicks": 192,
                    "midi": 72,
                    "name": "C5",
                    "ticks": 171264,
                    "time": 178.4,
                    "velocity": 0.2125984251968504
                },
                {
                    "duration": 0.20000000000001705,
                    "durationTicks": 192,
                    "midi": 74,
                    "name": "D5",
                    "ticks": 171264,
                    "time": 178.4,
                    "velocity": 0.2440944881889764
                },
                {
                    "duration": 0.20000000000001705,
                    "durationTicks": 192,
                    "midi": 41,
                    "name": "F2",
                    "ticks": 171264,
                    "time": 178.4,
                    "velocity": 0.2125984251968504
                },
                {
                    "duration": 0.20000000000001705,
                    "durationTicks": 192,
                    "midi": 53,
                    "name": "F3",
                    "ticks": 171264,
                    "time": 178.4,
                    "velocity": 0.2047244094488189
                },
                {
                    "duration": 0.29999999999998295,
                    "durationTicks": 288,
                    "midi": 64,
                    "name": "E4",
                    "ticks": 171456,
                    "time": 178.60000000000002,
                    "velocity": 0.2125984251968504
                },
                {
                    "duration": 0.29999999999998295,
                    "durationTicks": 288,
                    "midi": 69,
                    "name": "A4",
                    "ticks": 171456,
                    "time": 178.60000000000002,
                    "velocity": 0.2283464566929134
                },
                {
                    "duration": 0.29999999999998295,
                    "durationTicks": 288,
                    "midi": 72,
                    "name": "C5",
                    "ticks": 171456,
                    "time": 178.60000000000002,
                    "velocity": 0.2204724409448819
                },
                {
                    "duration": 0.29999999999998295,
                    "durationTicks": 288,
                    "midi": 74,
                    "name": "D5",
                    "ticks": 171456,
                    "time": 178.60000000000002,
                    "velocity": 0.23622047244094488
                },
                {
                    "duration": 0.29999999999998295,
                    "durationTicks": 288,
                    "midi": 41,
                    "name": "F2",
                    "ticks": 171456,
                    "time": 178.60000000000002,
                    "velocity": 0.2204724409448819
                },
                {
                    "duration": 0.29999999999998295,
                    "durationTicks": 288,
                    "midi": 53,
                    "name": "F3",
                    "ticks": 171456,
                    "time": 178.60000000000002,
                    "velocity": 0.2125984251968504
                },
                {
                    "duration": 0.30000000000001137,
                    "durationTicks": 288,
                    "midi": 64,
                    "name": "E4",
                    "ticks": 171744,
                    "time": 178.9,
                    "velocity": 0.1889763779527559
                },
                {
                    "duration": 0.30000000000001137,
                    "durationTicks": 288,
                    "midi": 69,
                    "name": "A4",
                    "ticks": 171744,
                    "time": 178.9,
                    "velocity": 0.2283464566929134
                },
                {
                    "duration": 0.30000000000001137,
                    "durationTicks": 288,
                    "midi": 72,
                    "name": "C5",
                    "ticks": 171744,
                    "time": 178.9,
                    "velocity": 0.2440944881889764
                },
                {
                    "duration": 0.30000000000001137,
                    "durationTicks": 288,
                    "midi": 41,
                    "name": "F2",
                    "ticks": 171744,
                    "time": 178.9,
                    "velocity": 0.1732283464566929
                },
                {
                    "duration": 0.30000000000001137,
                    "durationTicks": 288,
                    "midi": 53,
                    "name": "F3",
                    "ticks": 171744,
                    "time": 178.9,
                    "velocity": 0.16535433070866143
                },
                {
                    "duration": 0.19999999999998863,
                    "durationTicks": 192,
                    "midi": 64,
                    "name": "E4",
                    "ticks": 172032,
                    "time": 179.20000000000002,
                    "velocity": 0.1968503937007874
                },
                {
                    "duration": 0.19999999999998863,
                    "durationTicks": 192,
                    "midi": 69,
                    "name": "A4",
                    "ticks": 172032,
                    "time": 179.20000000000002,
                    "velocity": 0.2125984251968504
                },
                {
                    "duration": 0.19999999999998863,
                    "durationTicks": 192,
                    "midi": 71,
                    "name": "B4",
                    "ticks": 172032,
                    "time": 179.20000000000002,
                    "velocity": 0.23622047244094488
                },
                {
                    "duration": 0.19999999999998863,
                    "durationTicks": 192,
                    "midi": 41,
                    "name": "F2",
                    "ticks": 172032,
                    "time": 179.20000000000002,
                    "velocity": 0.1732283464566929
                },
                {
                    "duration": 0.19999999999998863,
                    "durationTicks": 192,
                    "midi": 53,
                    "name": "F3",
                    "ticks": 172032,
                    "time": 179.20000000000002,
                    "velocity": 0.1732283464566929
                },
                {
                    "duration": 0.20000000000001705,
                    "durationTicks": 192,
                    "midi": 64,
                    "name": "E4",
                    "ticks": 172224,
                    "time": 179.4,
                    "velocity": 0.2204724409448819
                },
                {
                    "duration": 0.20000000000001705,
                    "durationTicks": 192,
                    "midi": 69,
                    "name": "A4",
                    "ticks": 172224,
                    "time": 179.4,
                    "velocity": 0.2125984251968504
                },
                {
                    "duration": 0.20000000000001705,
                    "durationTicks": 192,
                    "midi": 72,
                    "name": "C5",
                    "ticks": 172224,
                    "time": 179.4,
                    "velocity": 0.2204724409448819
                },
                {
                    "duration": 0.30000000000001137,
                    "durationTicks": 288,
                    "midi": 43,
                    "name": "G2",
                    "ticks": 172224,
                    "time": 179.4,
                    "velocity": 0.2125984251968504
                },
                {
                    "duration": 0.30000000000001137,
                    "durationTicks": 288,
                    "midi": 55,
                    "name": "G3",
                    "ticks": 172224,
                    "time": 179.4,
                    "velocity": 0.2125984251968504
                },
                {
                    "duration": 0.09999999999999432,
                    "durationTicks": 96,
                    "midi": 72,
                    "name": "C5",
                    "ticks": 172416,
                    "time": 179.60000000000002,
                    "velocity": 0.23622047244094488
                },
                {
                    "duration": 0.29999999999998295,
                    "durationTicks": 288,
                    "midi": 64,
                    "name": "E4",
                    "ticks": 172512,
                    "time": 179.70000000000002,
                    "velocity": 0.2047244094488189
                },
                {
                    "duration": 0.29999999999998295,
                    "durationTicks": 288,
                    "midi": 69,
                    "name": "A4",
                    "ticks": 172512,
                    "time": 179.70000000000002,
                    "velocity": 0.1968503937007874
                },
                {
                    "duration": 0.29999999999998295,
                    "durationTicks": 288,
                    "midi": 43,
                    "name": "G2",
                    "ticks": 172512,
                    "time": 179.70000000000002,
                    "velocity": 0.1889763779527559
                },
                {
                    "duration": 0.29999999999998295,
                    "durationTicks": 288,
                    "midi": 55,
                    "name": "G3",
                    "ticks": 172512,
                    "time": 179.70000000000002,
                    "velocity": 0.1968503937007874
                },
                {
                    "duration": 0.20000000000001705,
                    "durationTicks": 192,
                    "midi": 64,
                    "name": "E4",
                    "ticks": 172800,
                    "time": 180,
                    "velocity": 0.18110236220472442
                },
                {
                    "duration": 0.20000000000001705,
                    "durationTicks": 192,
                    "midi": 69,
                    "name": "A4",
                    "ticks": 172800,
                    "time": 180,
                    "velocity": 0.14960629921259844
                },
                {
                    "duration": 0.20000000000001705,
                    "durationTicks": 192,
                    "midi": 71,
                    "name": "B4",
                    "ticks": 172800,
                    "time": 180,
                    "velocity": 0.23622047244094488
                },
                {
                    "duration": 0.20000000000001705,
                    "durationTicks": 192,
                    "midi": 43,
                    "name": "G2",
                    "ticks": 172800,
                    "time": 180,
                    "velocity": 0.1968503937007874
                },
                {
                    "duration": 0.20000000000001705,
                    "durationTicks": 192,
                    "midi": 55,
                    "name": "G3",
                    "ticks": 172800,
                    "time": 180,
                    "velocity": 0.1889763779527559
                },
                {
                    "duration": 0.19999999999998863,
                    "durationTicks": 192,
                    "midi": 64,
                    "name": "E4",
                    "ticks": 172992,
                    "time": 180.20000000000002,
                    "velocity": 0.2125984251968504
                },
                {
                    "duration": 0.19999999999998863,
                    "durationTicks": 192,
                    "midi": 69,
                    "name": "A4",
                    "ticks": 172992,
                    "time": 180.20000000000002,
                    "velocity": 0.2283464566929134
                },
                {
                    "duration": 0.19999999999998863,
                    "durationTicks": 192,
                    "midi": 72,
                    "name": "C5",
                    "ticks": 172992,
                    "time": 180.20000000000002,
                    "velocity": 0.2125984251968504
                },
                {
                    "duration": 0.29999999999998295,
                    "durationTicks": 288,
                    "midi": 43,
                    "name": "G2",
                    "ticks": 172992,
                    "time": 180.20000000000002,
                    "velocity": 0.2125984251968504
                },
                {
                    "duration": 0.29999999999998295,
                    "durationTicks": 288,
                    "midi": 55,
                    "name": "G3",
                    "ticks": 172992,
                    "time": 180.20000000000002,
                    "velocity": 0.2047244094488189
                },
                {
                    "duration": 0.09999999999999432,
                    "durationTicks": 96,
                    "midi": 67,
                    "name": "G4",
                    "ticks": 173184,
                    "time": 180.4,
                    "velocity": 0.25196850393700787
                },
                {
                    "duration": 0.30000000000001137,
                    "durationTicks": 288,
                    "midi": 64,
                    "name": "E4",
                    "ticks": 173280,
                    "time": 180.5,
                    "velocity": 0.1968503937007874
                },
                {
                    "duration": 0.30000000000001137,
                    "durationTicks": 288,
                    "midi": 69,
                    "name": "A4",
                    "ticks": 173280,
                    "time": 180.5,
                    "velocity": 0.2283464566929134
                },
                {
                    "duration": 0.30000000000001137,
                    "durationTicks": 288,
                    "midi": 72,
                    "name": "C5",
                    "ticks": 173280,
                    "time": 180.5,
                    "velocity": 0.2125984251968504
                },
                {
                    "duration": 0.30000000000001137,
                    "durationTicks": 288,
                    "midi": 43,
                    "name": "G2",
                    "ticks": 173280,
                    "time": 180.5,
                    "velocity": 0.1889763779527559
                },
                {
                    "duration": 0.30000000000001137,
                    "durationTicks": 288,
                    "midi": 55,
                    "name": "G3",
                    "ticks": 173280,
                    "time": 180.5,
                    "velocity": 0.1889763779527559
                },
                {
                    "duration": 0.19999999999998863,
                    "durationTicks": 192,
                    "midi": 64,
                    "name": "E4",
                    "ticks": 173568,
                    "time": 180.8,
                    "velocity": 0.1968503937007874
                },
                {
                    "duration": 0.19999999999998863,
                    "durationTicks": 192,
                    "midi": 69,
                    "name": "A4",
                    "ticks": 173568,
                    "time": 180.8,
                    "velocity": 0.2283464566929134
                },
                {
                    "duration": 0.19999999999998863,
                    "durationTicks": 192,
                    "midi": 72,
                    "name": "C5",
                    "ticks": 173568,
                    "time": 180.8,
                    "velocity": 0.2047244094488189
                },
                {
                    "duration": 0.19999999999998863,
                    "durationTicks": 192,
                    "midi": 43,
                    "name": "G2",
                    "ticks": 173568,
                    "time": 180.8,
                    "velocity": 0.1889763779527559
                },
                {
                    "duration": 0.19999999999998863,
                    "durationTicks": 192,
                    "midi": 55,
                    "name": "G3",
                    "ticks": 173568,
                    "time": 180.8,
                    "velocity": 0.1889763779527559
                },
                {
                    "duration": 0.30000000000001137,
                    "durationTicks": 288,
                    "midi": 64,
                    "name": "E4",
                    "ticks": 173760,
                    "time": 181,
                    "velocity": 0.1968503937007874
                },
                {
                    "duration": 0.30000000000001137,
                    "durationTicks": 288,
                    "midi": 69,
                    "name": "A4",
                    "ticks": 173760,
                    "time": 181,
                    "velocity": 0.2440944881889764
                },
                {
                    "duration": 0.30000000000001137,
                    "durationTicks": 288,
                    "midi": 72,
                    "name": "C5",
                    "ticks": 173760,
                    "time": 181,
                    "velocity": 0.2125984251968504
                },
                {
                    "duration": 0.30000000000001137,
                    "durationTicks": 288,
                    "midi": 76,
                    "name": "E5",
                    "ticks": 173760,
                    "time": 181,
                    "velocity": 0.23622047244094488
                },
                {
                    "duration": 0.30000000000001137,
                    "durationTicks": 288,
                    "midi": 45,
                    "name": "A2",
                    "ticks": 173760,
                    "time": 181,
                    "velocity": 0.1889763779527559
                },
                {
                    "duration": 0.30000000000001137,
                    "durationTicks": 288,
                    "midi": 57,
                    "name": "A3",
                    "ticks": 173760,
                    "time": 181,
                    "velocity": 0.2204724409448819
                },
                {
                    "duration": 0.30000000000001137,
                    "durationTicks": 288,
                    "midi": 64,
                    "name": "E4",
                    "ticks": 174048,
                    "time": 181.3,
                    "velocity": 0.18110236220472442
                },
                {
                    "duration": 0.30000000000001137,
                    "durationTicks": 288,
                    "midi": 69,
                    "name": "A4",
                    "ticks": 174048,
                    "time": 181.3,
                    "velocity": 0.1889763779527559
                },
                {
                    "duration": 0.30000000000001137,
                    "durationTicks": 288,
                    "midi": 72,
                    "name": "C5",
                    "ticks": 174048,
                    "time": 181.3,
                    "velocity": 0.1889763779527559
                },
                {
                    "duration": 0.30000000000001137,
                    "durationTicks": 288,
                    "midi": 74,
                    "name": "D5",
                    "ticks": 174048,
                    "time": 181.3,
                    "velocity": 0.2440944881889764
                },
                {
                    "duration": 0.30000000000001137,
                    "durationTicks": 288,
                    "midi": 45,
                    "name": "A2",
                    "ticks": 174048,
                    "time": 181.3,
                    "velocity": 0.2125984251968504
                },
                {
                    "duration": 0.30000000000001137,
                    "durationTicks": 288,
                    "midi": 57,
                    "name": "A3",
                    "ticks": 174048,
                    "time": 181.3,
                    "velocity": 0.2047244094488189
                },
                {
                    "duration": 0.19999999999998863,
                    "durationTicks": 192,
                    "midi": 64,
                    "name": "E4",
                    "ticks": 174336,
                    "time": 181.60000000000002,
                    "velocity": 0.1968503937007874
                },
                {
                    "duration": 0.19999999999998863,
                    "durationTicks": 192,
                    "midi": 69,
                    "name": "A4",
                    "ticks": 174336,
                    "time": 181.60000000000002,
                    "velocity": 0.2204724409448819
                },
                {
                    "duration": 0.19999999999998863,
                    "durationTicks": 192,
                    "midi": 72,
                    "name": "C5",
                    "ticks": 174336,
                    "time": 181.60000000000002,
                    "velocity": 0.2047244094488189
                },
                {
                    "duration": 0.19999999999998863,
                    "durationTicks": 192,
                    "midi": 74,
                    "name": "D5",
                    "ticks": 174336,
                    "time": 181.60000000000002,
                    "velocity": 0.2440944881889764
                },
                {
                    "duration": 0.19999999999998863,
                    "durationTicks": 192,
                    "midi": 45,
                    "name": "A2",
                    "ticks": 174336,
                    "time": 181.60000000000002,
                    "velocity": 0.2125984251968504
                },
                {
                    "duration": 0.19999999999998863,
                    "durationTicks": 192,
                    "midi": 57,
                    "name": "A3",
                    "ticks": 174336,
                    "time": 181.60000000000002,
                    "velocity": 0.2047244094488189
                },
                {
                    "duration": 0.19999999999998863,
                    "durationTicks": 192,
                    "midi": 64,
                    "name": "E4",
                    "ticks": 174528,
                    "time": 181.8,
                    "velocity": 0.1889763779527559
                },
                {
                    "duration": 0.19999999999998863,
                    "durationTicks": 192,
                    "midi": 69,
                    "name": "A4",
                    "ticks": 174528,
                    "time": 181.8,
                    "velocity": 0.2047244094488189
                },
                {
                    "duration": 0.19999999999998863,
                    "durationTicks": 192,
                    "midi": 72,
                    "name": "C5",
                    "ticks": 174528,
                    "time": 181.8,
                    "velocity": 0.2047244094488189
                },
                {
                    "duration": 0.30000000000001137,
                    "durationTicks": 288,
                    "midi": 45,
                    "name": "A2",
                    "ticks": 174528,
                    "time": 181.8,
                    "velocity": 0.2204724409448819
                },
                {
                    "duration": 0.30000000000001137,
                    "durationTicks": 288,
                    "midi": 57,
                    "name": "A3",
                    "ticks": 174528,
                    "time": 181.8,
                    "velocity": 0.2204724409448819
                },
                {
                    "duration": 0.10000000000002274,
                    "durationTicks": 96,
                    "midi": 72,
                    "name": "C5",
                    "ticks": 174720,
                    "time": 182,
                    "velocity": 0.25196850393700787
                },
                {
                    "duration": 0.29999999999998295,
                    "durationTicks": 288,
                    "midi": 64,
                    "name": "E4",
                    "ticks": 174816,
                    "time": 182.10000000000002,
                    "velocity": 0.18110236220472442
                },
                {
                    "duration": 0.29999999999998295,
                    "durationTicks": 288,
                    "midi": 69,
                    "name": "A4",
                    "ticks": 174816,
                    "time": 182.10000000000002,
                    "velocity": 0.1732283464566929
                },
                {
                    "duration": 0.29999999999998295,
                    "durationTicks": 288,
                    "midi": 45,
                    "name": "A2",
                    "ticks": 174816,
                    "time": 182.10000000000002,
                    "velocity": 0.16535433070866143
                },
                {
                    "duration": 0.29999999999998295,
                    "durationTicks": 288,
                    "midi": 57,
                    "name": "A3",
                    "ticks": 174816,
                    "time": 182.10000000000002,
                    "velocity": 0.15748031496062992
                },
                {
                    "duration": 0.20000000000001705,
                    "durationTicks": 192,
                    "midi": 64,
                    "name": "E4",
                    "ticks": 175104,
                    "time": 182.4,
                    "velocity": 0.1732283464566929
                },
                {
                    "duration": 0.20000000000001705,
                    "durationTicks": 192,
                    "midi": 69,
                    "name": "A4",
                    "ticks": 175104,
                    "time": 182.4,
                    "velocity": 0.1732283464566929
                },
                {
                    "duration": 0.20000000000001705,
                    "durationTicks": 192,
                    "midi": 72,
                    "name": "C5",
                    "ticks": 175104,
                    "time": 182.4,
                    "velocity": 0.2440944881889764
                },
                {
                    "duration": 0.20000000000001705,
                    "durationTicks": 192,
                    "midi": 45,
                    "name": "A2",
                    "ticks": 175104,
                    "time": 182.4,
                    "velocity": 0.1968503937007874
                },
                {
                    "duration": 0.20000000000001705,
                    "durationTicks": 192,
                    "midi": 57,
                    "name": "A3",
                    "ticks": 175104,
                    "time": 182.4,
                    "velocity": 0.18110236220472442
                },
                {
                    "duration": 0.19999999999998863,
                    "durationTicks": 192,
                    "midi": 64,
                    "name": "E4",
                    "ticks": 175296,
                    "time": 182.60000000000002,
                    "velocity": 0.2125984251968504
                },
                {
                    "duration": 0.19999999999998863,
                    "durationTicks": 192,
                    "midi": 67,
                    "name": "G4",
                    "ticks": 175296,
                    "time": 182.60000000000002,
                    "velocity": 0.2283464566929134
                },
                {
                    "duration": 0.19999999999998863,
                    "durationTicks": 192,
                    "midi": 71,
                    "name": "B4",
                    "ticks": 175296,
                    "time": 182.60000000000002,
                    "velocity": 0.2440944881889764
                },
                {
                    "duration": 0.29999999999998295,
                    "durationTicks": 288,
                    "midi": 40,
                    "name": "E2",
                    "ticks": 175296,
                    "time": 182.60000000000002,
                    "velocity": 0.1968503937007874
                },
                {
                    "duration": 0.29999999999998295,
                    "durationTicks": 288,
                    "midi": 52,
                    "name": "E3",
                    "ticks": 175296,
                    "time": 182.60000000000002,
                    "velocity": 0.18110236220472442
                },
                {
                    "duration": 0.09999999999999432,
                    "durationTicks": 96,
                    "midi": 72,
                    "name": "C5",
                    "ticks": 175488,
                    "time": 182.8,
                    "velocity": 0.23622047244094488
                },
                {
                    "duration": 0.30000000000001137,
                    "durationTicks": 288,
                    "midi": 64,
                    "name": "E4",
                    "ticks": 175584,
                    "time": 182.9,
                    "velocity": 0.1732283464566929
                },
                {
                    "duration": 0.30000000000001137,
                    "durationTicks": 288,
                    "midi": 67,
                    "name": "G4",
                    "ticks": 175584,
                    "time": 182.9,
                    "velocity": 0.1889763779527559
                },
                {
                    "duration": 0.30000000000001137,
                    "durationTicks": 288,
                    "midi": 40,
                    "name": "E2",
                    "ticks": 175584,
                    "time": 182.9,
                    "velocity": 0.1732283464566929
                },
                {
                    "duration": 0.30000000000001137,
                    "durationTicks": 288,
                    "midi": 52,
                    "name": "E3",
                    "ticks": 175584,
                    "time": 182.9,
                    "velocity": 0.18110236220472442
                },
                {
                    "duration": 0.19999999999998863,
                    "durationTicks": 192,
                    "midi": 64,
                    "name": "E4",
                    "ticks": 175872,
                    "time": 183.20000000000002,
                    "velocity": 0.18110236220472442
                },
                {
                    "duration": 0.19999999999998863,
                    "durationTicks": 192,
                    "midi": 67,
                    "name": "G4",
                    "ticks": 175872,
                    "time": 183.20000000000002,
                    "velocity": 0.2125984251968504
                },
                {
                    "duration": 0.19999999999998863,
                    "durationTicks": 192,
                    "midi": 71,
                    "name": "B4",
                    "ticks": 175872,
                    "time": 183.20000000000002,
                    "velocity": 0.1889763779527559
                },
                {
                    "duration": 0.19999999999998863,
                    "durationTicks": 192,
                    "midi": 79,
                    "name": "G5",
                    "ticks": 175872,
                    "time": 183.20000000000002,
                    "velocity": 0.23622047244094488
                },
                {
                    "duration": 0.19999999999998863,
                    "durationTicks": 192,
                    "midi": 40,
                    "name": "E2",
                    "ticks": 175872,
                    "time": 183.20000000000002,
                    "velocity": 0.2047244094488189
                },
                {
                    "duration": 0.19999999999998863,
                    "durationTicks": 192,
                    "midi": 52,
                    "name": "E3",
                    "ticks": 175872,
                    "time": 183.20000000000002,
                    "velocity": 0.2125984251968504
                },
                {
                    "duration": 0.20000000000001705,
                    "durationTicks": 192,
                    "midi": 64,
                    "name": "E4",
                    "ticks": 176064,
                    "time": 183.4,
                    "velocity": 0.2047244094488189
                },
                {
                    "duration": 0.20000000000001705,
                    "durationTicks": 192,
                    "midi": 67,
                    "name": "G4",
                    "ticks": 176064,
                    "time": 183.4,
                    "velocity": 0.2283464566929134
                },
                {
                    "duration": 0.20000000000001705,
                    "durationTicks": 192,
                    "midi": 71,
                    "name": "B4",
                    "ticks": 176064,
                    "time": 183.4,
                    "velocity": 0.2125984251968504
                },
                {
                    "duration": 0.30000000000001137,
                    "durationTicks": 288,
                    "midi": 40,
                    "name": "E2",
                    "ticks": 176064,
                    "time": 183.4,
                    "velocity": 0.2125984251968504
                },
                {
                    "duration": 0.30000000000001137,
                    "durationTicks": 288,
                    "midi": 52,
                    "name": "E3",
                    "ticks": 176064,
                    "time": 183.4,
                    "velocity": 0.2204724409448819
                },
                {
                    "duration": 0.09999999999999432,
                    "durationTicks": 96,
                    "midi": 71,
                    "name": "B4",
                    "ticks": 176256,
                    "time": 183.60000000000002,
                    "velocity": 0.2440944881889764
                },
                {
                    "duration": 0.29999999999998295,
                    "durationTicks": 288,
                    "midi": 64,
                    "name": "E4",
                    "ticks": 176352,
                    "time": 183.70000000000002,
                    "velocity": 0.16535433070866143
                },
                {
                    "duration": 0.29999999999998295,
                    "durationTicks": 288,
                    "midi": 67,
                    "name": "G4",
                    "ticks": 176352,
                    "time": 183.70000000000002,
                    "velocity": 0.16535433070866143
                },
                {
                    "duration": 0.29999999999998295,
                    "durationTicks": 288,
                    "midi": 48,
                    "name": "C3",
                    "ticks": 176352,
                    "time": 183.70000000000002,
                    "velocity": 0.1889763779527559
                },
                {
                    "duration": 0.29999999999998295,
                    "durationTicks": 288,
                    "midi": 60,
                    "name": "C4",
                    "ticks": 176352,
                    "time": 183.70000000000002,
                    "velocity": 0.2283464566929134
                },
                {
                    "duration": 0.20000000000001705,
                    "durationTicks": 192,
                    "midi": 64,
                    "name": "E4",
                    "ticks": 176640,
                    "time": 184,
                    "velocity": 0.2047244094488189
                },
                {
                    "duration": 0.20000000000001705,
                    "durationTicks": 192,
                    "midi": 67,
                    "name": "G4",
                    "ticks": 176640,
                    "time": 184,
                    "velocity": 0.2047244094488189
                },
                {
                    "duration": 0.20000000000001705,
                    "durationTicks": 192,
                    "midi": 71,
                    "name": "B4",
                    "ticks": 176640,
                    "time": 184,
                    "velocity": 0.23622047244094488
                },
                {
                    "duration": 0.20000000000001705,
                    "durationTicks": 192,
                    "midi": 47,
                    "name": "B2",
                    "ticks": 176640,
                    "time": 184,
                    "velocity": 0.1968503937007874
                },
                {
                    "duration": 0.20000000000001705,
                    "durationTicks": 192,
                    "midi": 59,
                    "name": "B3",
                    "ticks": 176640,
                    "time": 184,
                    "velocity": 0.14960629921259844
                },
                {
                    "duration": 0.29999999999998295,
                    "durationTicks": 288,
                    "midi": 69,
                    "name": "A4",
                    "ticks": 176832,
                    "time": 184.20000000000002,
                    "velocity": 0.23622047244094488
                },
                {
                    "duration": 0.29999999999998295,
                    "durationTicks": 288,
                    "midi": 72,
                    "name": "C5",
                    "ticks": 176832,
                    "time": 184.20000000000002,
                    "velocity": 0.25196850393700787
                },
                {
                    "duration": 0.29999999999998295,
                    "durationTicks": 288,
                    "midi": 76,
                    "name": "E5",
                    "ticks": 176832,
                    "time": 184.20000000000002,
                    "velocity": 0.2204724409448819
                },
                {
                    "duration": 0.29999999999998295,
                    "durationTicks": 288,
                    "midi": 81,
                    "name": "A5",
                    "ticks": 176832,
                    "time": 184.20000000000002,
                    "velocity": 0.2440944881889764
                },
                {
                    "duration": 0.29999999999998295,
                    "durationTicks": 288,
                    "midi": 41,
                    "name": "F2",
                    "ticks": 176832,
                    "time": 184.20000000000002,
                    "velocity": 0.2204724409448819
                },
                {
                    "duration": 0.29999999999998295,
                    "durationTicks": 288,
                    "midi": 53,
                    "name": "F3",
                    "ticks": 176832,
                    "time": 184.20000000000002,
                    "velocity": 0.2283464566929134
                },
                {
                    "duration": 0.30000000000001137,
                    "durationTicks": 288,
                    "midi": 69,
                    "name": "A4",
                    "ticks": 177120,
                    "time": 184.5,
                    "velocity": 0.2047244094488189
                },
                {
                    "duration": 0.30000000000001137,
                    "durationTicks": 288,
                    "midi": 72,
                    "name": "C5",
                    "ticks": 177120,
                    "time": 184.5,
                    "velocity": 0.2125984251968504
                },
                {
                    "duration": 0.30000000000001137,
                    "durationTicks": 288,
                    "midi": 76,
                    "name": "E5",
                    "ticks": 177120,
                    "time": 184.5,
                    "velocity": 0.2047244094488189
                },
                {
                    "duration": 0.30000000000001137,
                    "durationTicks": 288,
                    "midi": 79,
                    "name": "G5",
                    "ticks": 177120,
                    "time": 184.5,
                    "velocity": 0.25196850393700787
                },
                {
                    "duration": 0.30000000000001137,
                    "durationTicks": 288,
                    "midi": 41,
                    "name": "F2",
                    "ticks": 177120,
                    "time": 184.5,
                    "velocity": 0.2047244094488189
                },
                {
                    "duration": 0.30000000000001137,
                    "durationTicks": 288,
                    "midi": 53,
                    "name": "F3",
                    "ticks": 177120,
                    "time": 184.5,
                    "velocity": 0.1889763779527559
                },
                {
                    "duration": 0.19999999999998863,
                    "durationTicks": 192,
                    "midi": 64,
                    "name": "E4",
                    "ticks": 177408,
                    "time": 184.8,
                    "velocity": 0.2125984251968504
                },
                {
                    "duration": 0.19999999999998863,
                    "durationTicks": 192,
                    "midi": 69,
                    "name": "A4",
                    "ticks": 177408,
                    "time": 184.8,
                    "velocity": 0.2204724409448819
                },
                {
                    "duration": 0.19999999999998863,
                    "durationTicks": 192,
                    "midi": 72,
                    "name": "C5",
                    "ticks": 177408,
                    "time": 184.8,
                    "velocity": 0.2125984251968504
                },
                {
                    "duration": 0.19999999999998863,
                    "durationTicks": 192,
                    "midi": 76,
                    "name": "E5",
                    "ticks": 177408,
                    "time": 184.8,
                    "velocity": 0.25196850393700787
                },
                {
                    "duration": 0.19999999999998863,
                    "durationTicks": 192,
                    "midi": 41,
                    "name": "F2",
                    "ticks": 177408,
                    "time": 184.8,
                    "velocity": 0.2125984251968504
                },
                {
                    "duration": 0.19999999999998863,
                    "durationTicks": 192,
                    "midi": 53,
                    "name": "F3",
                    "ticks": 177408,
                    "time": 184.8,
                    "velocity": 0.2047244094488189
                },
                {
                    "duration": 0.20000000000001705,
                    "durationTicks": 192,
                    "midi": 64,
                    "name": "E4",
                    "ticks": 177600,
                    "time": 185,
                    "velocity": 0.2204724409448819
                },
                {
                    "duration": 0.20000000000001705,
                    "durationTicks": 192,
                    "midi": 69,
                    "name": "A4",
                    "ticks": 177600,
                    "time": 185,
                    "velocity": 0.23622047244094488
                },
                {
                    "duration": 0.20000000000001705,
                    "durationTicks": 192,
                    "midi": 72,
                    "name": "C5",
                    "ticks": 177600,
                    "time": 185,
                    "velocity": 0.2283464566929134
                },
                {
                    "duration": 0.30000000000001137,
                    "durationTicks": 288,
                    "midi": 41,
                    "name": "F2",
                    "ticks": 177600,
                    "time": 185,
                    "velocity": 0.2283464566929134
                },
                {
                    "duration": 0.30000000000001137,
                    "durationTicks": 288,
                    "midi": 53,
                    "name": "F3",
                    "ticks": 177600,
                    "time": 185,
                    "velocity": 0.2204724409448819
                },
                {
                    "duration": 0.09999999999999432,
                    "durationTicks": 96,
                    "midi": 72,
                    "name": "C5",
                    "ticks": 177792,
                    "time": 185.20000000000002,
                    "velocity": 0.23622047244094488
                },
                {
                    "duration": 0.30000000000001137,
                    "durationTicks": 288,
                    "midi": 64,
                    "name": "E4",
                    "ticks": 177888,
                    "time": 185.3,
                    "velocity": 0.1889763779527559
                },
                {
                    "duration": 0.30000000000001137,
                    "durationTicks": 288,
                    "midi": 69,
                    "name": "A4",
                    "ticks": 177888,
                    "time": 185.3,
                    "velocity": 0.2283464566929134
                },
                {
                    "duration": 0.30000000000001137,
                    "durationTicks": 288,
                    "midi": 41,
                    "name": "F2",
                    "ticks": 177888,
                    "time": 185.3,
                    "velocity": 0.18110236220472442
                },
                {
                    "duration": 0.30000000000001137,
                    "durationTicks": 288,
                    "midi": 53,
                    "name": "F3",
                    "ticks": 177888,
                    "time": 185.3,
                    "velocity": 0.1732283464566929
                },
                {
                    "duration": 0.19999999999998863,
                    "durationTicks": 192,
                    "midi": 64,
                    "name": "E4",
                    "ticks": 178176,
                    "time": 185.60000000000002,
                    "velocity": 0.2047244094488189
                },
                {
                    "duration": 0.19999999999998863,
                    "durationTicks": 192,
                    "midi": 69,
                    "name": "A4",
                    "ticks": 178176,
                    "time": 185.60000000000002,
                    "velocity": 0.2204724409448819
                },
                {
                    "duration": 0.19999999999998863,
                    "durationTicks": 192,
                    "midi": 71,
                    "name": "B4",
                    "ticks": 178176,
                    "time": 185.60000000000002,
                    "velocity": 0.23622047244094488
                },
                {
                    "duration": 0.19999999999998863,
                    "durationTicks": 192,
                    "midi": 41,
                    "name": "F2",
                    "ticks": 178176,
                    "time": 185.60000000000002,
                    "velocity": 0.18110236220472442
                },
                {
                    "duration": 0.19999999999998863,
                    "durationTicks": 192,
                    "midi": 53,
                    "name": "F3",
                    "ticks": 178176,
                    "time": 185.60000000000002,
                    "velocity": 0.18110236220472442
                },
                {
                    "duration": 0.30000000000001137,
                    "durationTicks": 288,
                    "midi": 64,
                    "name": "E4",
                    "ticks": 178368,
                    "time": 185.8,
                    "velocity": 0.2204724409448819
                },
                {
                    "duration": 0.30000000000001137,
                    "durationTicks": 288,
                    "midi": 69,
                    "name": "A4",
                    "ticks": 178368,
                    "time": 185.8,
                    "velocity": 0.2125984251968504
                },
                {
                    "duration": 0.30000000000001137,
                    "durationTicks": 288,
                    "midi": 72,
                    "name": "C5",
                    "ticks": 178368,
                    "time": 185.8,
                    "velocity": 0.23622047244094488
                },
                {
                    "duration": 0.30000000000001137,
                    "durationTicks": 288,
                    "midi": 43,
                    "name": "G2",
                    "ticks": 178368,
                    "time": 185.8,
                    "velocity": 0.2125984251968504
                },
                {
                    "duration": 0.30000000000001137,
                    "durationTicks": 288,
                    "midi": 55,
                    "name": "G3",
                    "ticks": 178368,
                    "time": 185.8,
                    "velocity": 0.2125984251968504
                },
                {
                    "duration": 0.09999999999999432,
                    "durationTicks": 96,
                    "midi": 64,
                    "name": "E4",
                    "ticks": 178656,
                    "time": 186.10000000000002,
                    "velocity": 0.2047244094488189
                },
                {
                    "duration": 0.09999999999999432,
                    "durationTicks": 96,
                    "midi": 69,
                    "name": "A4",
                    "ticks": 178656,
                    "time": 186.10000000000002,
                    "velocity": 0.1968503937007874
                },
                {
                    "duration": 0.29999999999998295,
                    "durationTicks": 288,
                    "midi": 43,
                    "name": "G2",
                    "ticks": 178656,
                    "time": 186.10000000000002,
                    "velocity": 0.1889763779527559
                },
                {
                    "duration": 0.29999999999998295,
                    "durationTicks": 288,
                    "midi": 55,
                    "name": "G3",
                    "ticks": 178656,
                    "time": 186.10000000000002,
                    "velocity": 0.1968503937007874
                },
                {
                    "duration": 0.19999999999998863,
                    "durationTicks": 192,
                    "midi": 71,
                    "name": "B4",
                    "ticks": 178752,
                    "time": 186.20000000000002,
                    "velocity": 0.2440944881889764
                },
                {
                    "duration": 0.20000000000001705,
                    "durationTicks": 192,
                    "midi": 64,
                    "name": "E4",
                    "ticks": 178944,
                    "time": 186.4,
                    "velocity": 0.18110236220472442
                },
                {
                    "duration": 0.20000000000001705,
                    "durationTicks": 192,
                    "midi": 69,
                    "name": "A4",
                    "ticks": 178944,
                    "time": 186.4,
                    "velocity": 0.25196850393700787
                },
                {
                    "duration": 0.20000000000001705,
                    "durationTicks": 192,
                    "midi": 43,
                    "name": "G2",
                    "ticks": 178944,
                    "time": 186.4,
                    "velocity": 0.1968503937007874
                },
                {
                    "duration": 0.20000000000001705,
                    "durationTicks": 192,
                    "midi": 55,
                    "name": "G3",
                    "ticks": 178944,
                    "time": 186.4,
                    "velocity": 0.1889763779527559
                },
                {
                    "duration": 0.19999999999998863,
                    "durationTicks": 192,
                    "midi": 64,
                    "name": "E4",
                    "ticks": 179136,
                    "time": 186.60000000000002,
                    "velocity": 0.2125984251968504
                },
                {
                    "duration": 0.29999999999998295,
                    "durationTicks": 288,
                    "midi": 43,
                    "name": "G2",
                    "ticks": 179136,
                    "time": 186.60000000000002,
                    "velocity": 0.2125984251968504
                },
                {
                    "duration": 0.29999999999998295,
                    "durationTicks": 288,
                    "midi": 55,
                    "name": "G3",
                    "ticks": 179136,
                    "time": 186.60000000000002,
                    "velocity": 0.2047244094488189
                },
                {
                    "duration": 0.09999999999999432,
                    "durationTicks": 96,
                    "midi": 71,
                    "name": "B4",
                    "ticks": 179328,
                    "time": 186.8,
                    "velocity": 0.25196850393700787
                },
                {
                    "duration": 0.30000000000001137,
                    "durationTicks": 288,
                    "midi": 64,
                    "name": "E4",
                    "ticks": 179424,
                    "time": 186.9,
                    "velocity": 0.1968503937007874
                },
                {
                    "duration": 0.30000000000001137,
                    "durationTicks": 288,
                    "midi": 43,
                    "name": "G2",
                    "ticks": 179424,
                    "time": 186.9,
                    "velocity": 0.1889763779527559
                },
                {
                    "duration": 0.30000000000001137,
                    "durationTicks": 288,
                    "midi": 55,
                    "name": "G3",
                    "ticks": 179424,
                    "time": 186.9,
                    "velocity": 0.1889763779527559
                },
                {
                    "duration": 0.19999999999998863,
                    "durationTicks": 192,
                    "midi": 64,
                    "name": "E4",
                    "ticks": 179712,
                    "time": 187.20000000000002,
                    "velocity": 0.1968503937007874
                },
                {
                    "duration": 0.19999999999998863,
                    "durationTicks": 192,
                    "midi": 69,
                    "name": "A4",
                    "ticks": 179712,
                    "time": 187.20000000000002,
                    "velocity": 0.2283464566929134
                },
                {
                    "duration": 0.19999999999998863,
                    "durationTicks": 192,
                    "midi": 72,
                    "name": "C5",
                    "ticks": 179712,
                    "time": 187.20000000000002,
                    "velocity": 0.2440944881889764
                },
                {
                    "duration": 0.19999999999998863,
                    "durationTicks": 192,
                    "midi": 43,
                    "name": "G2",
                    "ticks": 179712,
                    "time": 187.20000000000002,
                    "velocity": 0.1889763779527559
                },
                {
                    "duration": 0.19999999999998863,
                    "durationTicks": 192,
                    "midi": 55,
                    "name": "G3",
                    "ticks": 179712,
                    "time": 187.20000000000002,
                    "velocity": 0.1889763779527559
                },
                {
                    "duration": 0.20000000000001705,
                    "durationTicks": 192,
                    "midi": 76,
                    "name": "E5",
                    "ticks": 179904,
                    "time": 187.4,
                    "velocity": 0.1968503937007874
                },
                {
                    "duration": 0.5999999999999943,
                    "durationTicks": 576,
                    "midi": 53,
                    "name": "F3",
                    "ticks": 179904,
                    "time": 187.4,
                    "velocity": 0.2440944881889764
                },
                {
                    "duration": 0.5999999999999943,
                    "durationTicks": 576,
                    "midi": 57,
                    "name": "A3",
                    "ticks": 179904,
                    "time": 187.4,
                    "velocity": 0.2047244094488189
                },
                {
                    "duration": 0.5999999999999943,
                    "durationTicks": 576,
                    "midi": 60,
                    "name": "C4",
                    "ticks": 179904,
                    "time": 187.4,
                    "velocity": 0.2047244094488189
                },
                {
                    "duration": 0.19999999999998863,
                    "durationTicks": 192,
                    "midi": 69,
                    "name": "A4",
                    "ticks": 180096,
                    "time": 187.60000000000002,
                    "velocity": 0.1732283464566929
                },
                {
                    "duration": 0.19999999999998863,
                    "durationTicks": 192,
                    "midi": 72,
                    "name": "C5",
                    "ticks": 180288,
                    "time": 187.8,
                    "velocity": 0.1889763779527559
                },
                {
                    "duration": 0.20000000000001705,
                    "durationTicks": 192,
                    "midi": 76,
                    "name": "E5",
                    "ticks": 180480,
                    "time": 188,
                    "velocity": 0.2047244094488189
                },
                {
                    "duration": 0.6000000000000227,
                    "durationTicks": 576,
                    "midi": 53,
                    "name": "F3",
                    "ticks": 180480,
                    "time": 188,
                    "velocity": 0.1732283464566929
                },
                {
                    "duration": 0.6000000000000227,
                    "durationTicks": 576,
                    "midi": 57,
                    "name": "A3",
                    "ticks": 180480,
                    "time": 188,
                    "velocity": 0.2125984251968504
                },
                {
                    "duration": 0.6000000000000227,
                    "durationTicks": 576,
                    "midi": 60,
                    "name": "C4",
                    "ticks": 180480,
                    "time": 188,
                    "velocity": 0.1968503937007874
                },
                {
                    "duration": 0.19999999999998863,
                    "durationTicks": 192,
                    "midi": 69,
                    "name": "A4",
                    "ticks": 180672,
                    "time": 188.20000000000002,
                    "velocity": 0.1732283464566929
                },
                {
                    "duration": 0.20000000000001705,
                    "durationTicks": 192,
                    "midi": 72,
                    "name": "C5",
                    "ticks": 180864,
                    "time": 188.4,
                    "velocity": 0.16535433070866143
                },
                {
                    "duration": 0.19999999999998863,
                    "durationTicks": 192,
                    "midi": 76,
                    "name": "E5",
                    "ticks": 181056,
                    "time": 188.60000000000002,
                    "velocity": 0.18110236220472442
                },
                {
                    "duration": 0.39999999999997726,
                    "durationTicks": 384,
                    "midi": 53,
                    "name": "F3",
                    "ticks": 181056,
                    "time": 188.60000000000002,
                    "velocity": 0.18110236220472442
                },
                {
                    "duration": 0.39999999999997726,
                    "durationTicks": 384,
                    "midi": 57,
                    "name": "A3",
                    "ticks": 181056,
                    "time": 188.60000000000002,
                    "velocity": 0.2125984251968504
                },
                {
                    "duration": 0.39999999999997726,
                    "durationTicks": 384,
                    "midi": 60,
                    "name": "C4",
                    "ticks": 181056,
                    "time": 188.60000000000002,
                    "velocity": 0.1968503937007874
                },
                {
                    "duration": 0.19999999999998863,
                    "durationTicks": 192,
                    "midi": 69,
                    "name": "A4",
                    "ticks": 181248,
                    "time": 188.8,
                    "velocity": 0.14960629921259844
                },
                {
                    "duration": 0.20000000000001705,
                    "durationTicks": 192,
                    "midi": 74,
                    "name": "D5",
                    "ticks": 181440,
                    "time": 189,
                    "velocity": 0.23622047244094488
                },
                {
                    "duration": 0.6000000000000227,
                    "durationTicks": 576,
                    "midi": 52,
                    "name": "E3",
                    "ticks": 181440,
                    "time": 189,
                    "velocity": 0.1968503937007874
                },
                {
                    "duration": 0.6000000000000227,
                    "durationTicks": 576,
                    "midi": 57,
                    "name": "A3",
                    "ticks": 181440,
                    "time": 189,
                    "velocity": 0.2047244094488189
                },
                {
                    "duration": 0.6000000000000227,
                    "durationTicks": 576,
                    "midi": 64,
                    "name": "E4",
                    "ticks": 181440,
                    "time": 189,
                    "velocity": 0.2283464566929134
                },
                {
                    "duration": 0.19999999999998863,
                    "durationTicks": 192,
                    "midi": 69,
                    "name": "A4",
                    "ticks": 181632,
                    "time": 189.20000000000002,
                    "velocity": 0.1889763779527559
                },
                {
                    "duration": 0.20000000000001705,
                    "durationTicks": 192,
                    "midi": 72,
                    "name": "C5",
                    "ticks": 181824,
                    "time": 189.4,
                    "velocity": 0.1732283464566929
                },
                {
                    "duration": 0.19999999999998863,
                    "durationTicks": 192,
                    "midi": 74,
                    "name": "D5",
                    "ticks": 182016,
                    "time": 189.60000000000002,
                    "velocity": 0.1889763779527559
                },
                {
                    "duration": 0.5999999999999943,
                    "durationTicks": 576,
                    "midi": 52,
                    "name": "E3",
                    "ticks": 182016,
                    "time": 189.60000000000002,
                    "velocity": 0.2047244094488189
                },
                {
                    "duration": 0.5999999999999943,
                    "durationTicks": 576,
                    "midi": 57,
                    "name": "A3",
                    "ticks": 182016,
                    "time": 189.60000000000002,
                    "velocity": 0.1968503937007874
                },
                {
                    "duration": 0.5999999999999943,
                    "durationTicks": 576,
                    "midi": 60,
                    "name": "C4",
                    "ticks": 182016,
                    "time": 189.60000000000002,
                    "velocity": 0.1968503937007874
                },
                {
                    "duration": 0.5999999999999943,
                    "durationTicks": 576,
                    "midi": 64,
                    "name": "E4",
                    "ticks": 182016,
                    "time": 189.60000000000002,
                    "velocity": 0.2440944881889764
                },
                {
                    "duration": 0.19999999999998863,
                    "durationTicks": 192,
                    "midi": 69,
                    "name": "A4",
                    "ticks": 182208,
                    "time": 189.8,
                    "velocity": 0.2125984251968504
                },
                {
                    "duration": 0.20000000000001705,
                    "durationTicks": 192,
                    "midi": 72,
                    "name": "C5",
                    "ticks": 182400,
                    "time": 190,
                    "velocity": 0.18110236220472442
                },
                {
                    "duration": 0.19999999999998863,
                    "durationTicks": 192,
                    "midi": 74,
                    "name": "D5",
                    "ticks": 182592,
                    "time": 190.20000000000002,
                    "velocity": 0.1732283464566929
                },
                {
                    "duration": 0.4000000000000057,
                    "durationTicks": 384,
                    "midi": 52,
                    "name": "E3",
                    "ticks": 182592,
                    "time": 190.20000000000002,
                    "velocity": 0.2125984251968504
                },
                {
                    "duration": 0.4000000000000057,
                    "durationTicks": 384,
                    "midi": 57,
                    "name": "A3",
                    "ticks": 182592,
                    "time": 190.20000000000002,
                    "velocity": 0.2125984251968504
                },
                {
                    "duration": 0.4000000000000057,
                    "durationTicks": 384,
                    "midi": 60,
                    "name": "C4",
                    "ticks": 182592,
                    "time": 190.20000000000002,
                    "velocity": 0.2125984251968504
                },
                {
                    "duration": 0.4000000000000057,
                    "durationTicks": 384,
                    "midi": 64,
                    "name": "E4",
                    "ticks": 182592,
                    "time": 190.20000000000002,
                    "velocity": 0.1889763779527559
                },
                {
                    "duration": 0.20000000000001705,
                    "durationTicks": 192,
                    "midi": 69,
                    "name": "A4",
                    "ticks": 182784,
                    "time": 190.4,
                    "velocity": 0.1732283464566929
                },
                {
                    "duration": 0.19999999999998863,
                    "durationTicks": 192,
                    "midi": 74,
                    "name": "D5",
                    "ticks": 182976,
                    "time": 190.60000000000002,
                    "velocity": 0.2125984251968504
                },
                {
                    "duration": 0.5999999999999943,
                    "durationTicks": 576,
                    "midi": 55,
                    "name": "G3",
                    "ticks": 182976,
                    "time": 190.60000000000002,
                    "velocity": 0.1889763779527559
                },
                {
                    "duration": 0.5999999999999943,
                    "durationTicks": 576,
                    "midi": 59,
                    "name": "B3",
                    "ticks": 182976,
                    "time": 190.60000000000002,
                    "velocity": 0.2125984251968504
                },
                {
                    "duration": 0.5999999999999943,
                    "durationTicks": 576,
                    "midi": 62,
                    "name": "D4",
                    "ticks": 182976,
                    "time": 190.60000000000002,
                    "velocity": 0.2283464566929134
                },
                {
                    "duration": 0.19999999999998863,
                    "durationTicks": 192,
                    "midi": 67,
                    "name": "G4",
                    "ticks": 183168,
                    "time": 190.8,
                    "velocity": 0.1732283464566929
                },
                {
                    "duration": 0.20000000000001705,
                    "durationTicks": 192,
                    "midi": 71,
                    "name": "B4",
                    "ticks": 183360,
                    "time": 191,
                    "velocity": 0.18110236220472442
                },
                {
                    "duration": 0.19999999999998863,
                    "durationTicks": 192,
                    "midi": 72,
                    "name": "C5",
                    "ticks": 183552,
                    "time": 191.20000000000002,
                    "velocity": 0.2047244094488189
                },
                {
                    "duration": 0.5999999999999943,
                    "durationTicks": 576,
                    "midi": 55,
                    "name": "G3",
                    "ticks": 183552,
                    "time": 191.20000000000002,
                    "velocity": 0.1968503937007874
                },
                {
                    "duration": 0.5999999999999943,
                    "durationTicks": 576,
                    "midi": 59,
                    "name": "B3",
                    "ticks": 183552,
                    "time": 191.20000000000002,
                    "velocity": 0.1968503937007874
                },
                {
                    "duration": 0.5999999999999943,
                    "durationTicks": 576,
                    "midi": 62,
                    "name": "D4",
                    "ticks": 183552,
                    "time": 191.20000000000002,
                    "velocity": 0.2283464566929134
                },
                {
                    "duration": 0.20000000000001705,
                    "durationTicks": 192,
                    "midi": 67,
                    "name": "G4",
                    "ticks": 183744,
                    "time": 191.4,
                    "velocity": 0.1732283464566929
                },
                {
                    "duration": 0.19999999999998863,
                    "durationTicks": 192,
                    "midi": 71,
                    "name": "B4",
                    "ticks": 183936,
                    "time": 191.60000000000002,
                    "velocity": 0.18110236220472442
                },
                {
                    "duration": 0.19999999999998863,
                    "durationTicks": 192,
                    "midi": 72,
                    "name": "C5",
                    "ticks": 184128,
                    "time": 191.8,
                    "velocity": 0.2047244094488189
                },
                {
                    "duration": 0.4000000000000057,
                    "durationTicks": 384,
                    "midi": 55,
                    "name": "G3",
                    "ticks": 184128,
                    "time": 191.8,
                    "velocity": 0.18110236220472442
                },
                {
                    "duration": 0.4000000000000057,
                    "durationTicks": 384,
                    "midi": 59,
                    "name": "B3",
                    "ticks": 184128,
                    "time": 191.8,
                    "velocity": 0.2283464566929134
                },
                {
                    "duration": 0.4000000000000057,
                    "durationTicks": 384,
                    "midi": 62,
                    "name": "D4",
                    "ticks": 184128,
                    "time": 191.8,
                    "velocity": 0.23622047244094488
                },
                {
                    "duration": 0.20000000000001705,
                    "durationTicks": 192,
                    "midi": 67,
                    "name": "G4",
                    "ticks": 184320,
                    "time": 192,
                    "velocity": 0.15748031496062992
                },
                {
                    "duration": 0.19999999999998863,
                    "durationTicks": 192,
                    "midi": 67,
                    "name": "G4",
                    "ticks": 184512,
                    "time": 192.20000000000002,
                    "velocity": 0.1732283464566929
                },
                {
                    "duration": 0.5999999999999943,
                    "durationTicks": 576,
                    "midi": 52,
                    "name": "E3",
                    "ticks": 184512,
                    "time": 192.20000000000002,
                    "velocity": 0.1968503937007874
                },
                {
                    "duration": 0.5999999999999943,
                    "durationTicks": 576,
                    "midi": 55,
                    "name": "G3",
                    "ticks": 184512,
                    "time": 192.20000000000002,
                    "velocity": 0.2125984251968504
                },
                {
                    "duration": 0.5999999999999943,
                    "durationTicks": 576,
                    "midi": 60,
                    "name": "C4",
                    "ticks": 184512,
                    "time": 192.20000000000002,
                    "velocity": 0.1732283464566929
                },
                {
                    "duration": 0.20000000000001705,
                    "durationTicks": 192,
                    "midi": 69,
                    "name": "A4",
                    "ticks": 184704,
                    "time": 192.4,
                    "velocity": 0.16535433070866143
                },
                {
                    "duration": 0.19999999999998863,
                    "durationTicks": 192,
                    "midi": 71,
                    "name": "B4",
                    "ticks": 184896,
                    "time": 192.60000000000002,
                    "velocity": 0.1889763779527559
                },
                {
                    "duration": 0.19999999999998863,
                    "durationTicks": 192,
                    "midi": 67,
                    "name": "G4",
                    "ticks": 185088,
                    "time": 192.8,
                    "velocity": 0.16535433070866143
                },
                {
                    "duration": 0.19999999999998863,
                    "durationTicks": 192,
                    "midi": 74,
                    "name": "D5",
                    "ticks": 185088,
                    "time": 192.8,
                    "velocity": 0.1968503937007874
                },
                {
                    "duration": 0.5999999999999943,
                    "durationTicks": 576,
                    "midi": 52,
                    "name": "E3",
                    "ticks": 185088,
                    "time": 192.8,
                    "velocity": 0.2204724409448819
                },
                {
                    "duration": 0.5999999999999943,
                    "durationTicks": 576,
                    "midi": 55,
                    "name": "G3",
                    "ticks": 185088,
                    "time": 192.8,
                    "velocity": 0.1889763779527559
                },
                {
                    "duration": 0.5999999999999943,
                    "durationTicks": 576,
                    "midi": 60,
                    "name": "C4",
                    "ticks": 185088,
                    "time": 192.8,
                    "velocity": 0.16535433070866143
                },
                {
                    "duration": 0.20000000000001705,
                    "durationTicks": 192,
                    "midi": 69,
                    "name": "A4",
                    "ticks": 185280,
                    "time": 193,
                    "velocity": 0.1889763779527559
                },
                {
                    "duration": 0.19999999999998863,
                    "durationTicks": 192,
                    "midi": 71,
                    "name": "B4",
                    "ticks": 185472,
                    "time": 193.20000000000002,
                    "velocity": 0.18110236220472442
                },
                {
                    "duration": 0.20000000000001705,
                    "durationTicks": 192,
                    "midi": 67,
                    "name": "G4",
                    "ticks": 185664,
                    "time": 193.4,
                    "velocity": 0.2125984251968504
                },
                {
                    "duration": 0.20000000000001705,
                    "durationTicks": 192,
                    "midi": 76,
                    "name": "E5",
                    "ticks": 185664,
                    "time": 193.4,
                    "velocity": 0.2204724409448819
                },
                {
                    "duration": 0.4000000000000057,
                    "durationTicks": 384,
                    "midi": 52,
                    "name": "E3",
                    "ticks": 185664,
                    "time": 193.4,
                    "velocity": 0.2125984251968504
                },
                {
                    "duration": 0.4000000000000057,
                    "durationTicks": 384,
                    "midi": 55,
                    "name": "G3",
                    "ticks": 185664,
                    "time": 193.4,
                    "velocity": 0.2047244094488189
                },
                {
                    "duration": 0.4000000000000057,
                    "durationTicks": 384,
                    "midi": 60,
                    "name": "C4",
                    "ticks": 185664,
                    "time": 193.4,
                    "velocity": 0.2125984251968504
                },
                {
                    "duration": 0.19999999999998863,
                    "durationTicks": 192,
                    "midi": 72,
                    "name": "C5",
                    "ticks": 185856,
                    "time": 193.60000000000002,
                    "velocity": 0.1968503937007874
                },
                {
                    "duration": 0.19999999999998863,
                    "durationTicks": 192,
                    "midi": 76,
                    "name": "E5",
                    "ticks": 186048,
                    "time": 193.8,
                    "velocity": 0.1968503937007874
                },
                {
                    "duration": 0.5999999999999943,
                    "durationTicks": 576,
                    "midi": 53,
                    "name": "F3",
                    "ticks": 186048,
                    "time": 193.8,
                    "velocity": 0.2440944881889764
                },
                {
                    "duration": 0.5999999999999943,
                    "durationTicks": 576,
                    "midi": 57,
                    "name": "A3",
                    "ticks": 186048,
                    "time": 193.8,
                    "velocity": 0.2047244094488189
                },
                {
                    "duration": 0.5999999999999943,
                    "durationTicks": 576,
                    "midi": 60,
                    "name": "C4",
                    "ticks": 186048,
                    "time": 193.8,
                    "velocity": 0.2047244094488189
                },
                {
                    "duration": 0.20000000000001705,
                    "durationTicks": 192,
                    "midi": 69,
                    "name": "A4",
                    "ticks": 186240,
                    "time": 194,
                    "velocity": 0.1732283464566929
                },
                {
                    "duration": 0.19999999999998863,
                    "durationTicks": 192,
                    "midi": 72,
                    "name": "C5",
                    "ticks": 186432,
                    "time": 194.20000000000002,
                    "velocity": 0.1889763779527559
                },
                {
                    "duration": 0.20000000000001705,
                    "durationTicks": 192,
                    "midi": 76,
                    "name": "E5",
                    "ticks": 186624,
                    "time": 194.4,
                    "velocity": 0.2047244094488189
                },
                {
                    "duration": 0.5999999999999943,
                    "durationTicks": 576,
                    "midi": 53,
                    "name": "F3",
                    "ticks": 186624,
                    "time": 194.4,
                    "velocity": 0.1732283464566929
                },
                {
                    "duration": 0.5999999999999943,
                    "durationTicks": 576,
                    "midi": 57,
                    "name": "A3",
                    "ticks": 186624,
                    "time": 194.4,
                    "velocity": 0.2125984251968504
                },
                {
                    "duration": 0.5999999999999943,
                    "durationTicks": 576,
                    "midi": 60,
                    "name": "C4",
                    "ticks": 186624,
                    "time": 194.4,
                    "velocity": 0.1968503937007874
                },
                {
                    "duration": 0.19999999999998863,
                    "durationTicks": 192,
                    "midi": 69,
                    "name": "A4",
                    "ticks": 186816,
                    "time": 194.60000000000002,
                    "velocity": 0.1732283464566929
                },
                {
                    "duration": 0.19999999999998863,
                    "durationTicks": 192,
                    "midi": 72,
                    "name": "C5",
                    "ticks": 187008,
                    "time": 194.8,
                    "velocity": 0.16535433070866143
                },
                {
                    "duration": 0.20000000000001705,
                    "durationTicks": 192,
                    "midi": 76,
                    "name": "E5",
                    "ticks": 187200,
                    "time": 195,
                    "velocity": 0.18110236220472442
                },
                {
                    "duration": 0.4000000000000057,
                    "durationTicks": 384,
                    "midi": 53,
                    "name": "F3",
                    "ticks": 187200,
                    "time": 195,
                    "velocity": 0.18110236220472442
                },
                {
                    "duration": 0.4000000000000057,
                    "durationTicks": 384,
                    "midi": 57,
                    "name": "A3",
                    "ticks": 187200,
                    "time": 195,
                    "velocity": 0.2125984251968504
                },
                {
                    "duration": 0.4000000000000057,
                    "durationTicks": 384,
                    "midi": 60,
                    "name": "C4",
                    "ticks": 187200,
                    "time": 195,
                    "velocity": 0.1968503937007874
                },
                {
                    "duration": 0.19999999999998863,
                    "durationTicks": 192,
                    "midi": 69,
                    "name": "A4",
                    "ticks": 187392,
                    "time": 195.20000000000002,
                    "velocity": 0.14960629921259844
                },
                {
                    "duration": 0.20000000000001705,
                    "durationTicks": 192,
                    "midi": 74,
                    "name": "D5",
                    "ticks": 187584,
                    "time": 195.4,
                    "velocity": 0.23622047244094488
                },
                {
                    "duration": 0.5999999999999943,
                    "durationTicks": 576,
                    "midi": 52,
                    "name": "E3",
                    "ticks": 187584,
                    "time": 195.4,
                    "velocity": 0.1968503937007874
                },
                {
                    "duration": 0.5999999999999943,
                    "durationTicks": 576,
                    "midi": 57,
                    "name": "A3",
                    "ticks": 187584,
                    "time": 195.4,
                    "velocity": 0.2047244094488189
                },
                {
                    "duration": 0.5999999999999943,
                    "durationTicks": 576,
                    "midi": 64,
                    "name": "E4",
                    "ticks": 187584,
                    "time": 195.4,
                    "velocity": 0.2283464566929134
                },
                {
                    "duration": 0.19999999999998863,
                    "durationTicks": 192,
                    "midi": 69,
                    "name": "A4",
                    "ticks": 187776,
                    "time": 195.60000000000002,
                    "velocity": 0.1889763779527559
                },
                {
                    "duration": 0.19999999999998863,
                    "durationTicks": 192,
                    "midi": 72,
                    "name": "C5",
                    "ticks": 187968,
                    "time": 195.8,
                    "velocity": 0.1732283464566929
                },
                {
                    "duration": 0.20000000000001705,
                    "durationTicks": 192,
                    "midi": 74,
                    "name": "D5",
                    "ticks": 188160,
                    "time": 196,
                    "velocity": 0.1889763779527559
                },
                {
                    "duration": 0.6000000000000227,
                    "durationTicks": 576,
                    "midi": 52,
                    "name": "E3",
                    "ticks": 188160,
                    "time": 196,
                    "velocity": 0.2047244094488189
                },
                {
                    "duration": 0.6000000000000227,
                    "durationTicks": 576,
                    "midi": 57,
                    "name": "A3",
                    "ticks": 188160,
                    "time": 196,
                    "velocity": 0.1968503937007874
                },
                {
                    "duration": 0.6000000000000227,
                    "durationTicks": 576,
                    "midi": 60,
                    "name": "C4",
                    "ticks": 188160,
                    "time": 196,
                    "velocity": 0.1968503937007874
                },
                {
                    "duration": 0.6000000000000227,
                    "durationTicks": 576,
                    "midi": 64,
                    "name": "E4",
                    "ticks": 188160,
                    "time": 196,
                    "velocity": 0.2440944881889764
                },
                {
                    "duration": 0.19999999999998863,
                    "durationTicks": 192,
                    "midi": 69,
                    "name": "A4",
                    "ticks": 188352,
                    "time": 196.20000000000002,
                    "velocity": 0.2125984251968504
                },
                {
                    "duration": 0.20000000000001705,
                    "durationTicks": 192,
                    "midi": 72,
                    "name": "C5",
                    "ticks": 188544,
                    "time": 196.4,
                    "velocity": 0.18110236220472442
                },
                {
                    "duration": 0.19999999999998863,
                    "durationTicks": 192,
                    "midi": 74,
                    "name": "D5",
                    "ticks": 188736,
                    "time": 196.60000000000002,
                    "velocity": 0.1732283464566929
                },
                {
                    "duration": 0.39999999999997726,
                    "durationTicks": 384,
                    "midi": 52,
                    "name": "E3",
                    "ticks": 188736,
                    "time": 196.60000000000002,
                    "velocity": 0.2125984251968504
                },
                {
                    "duration": 0.39999999999997726,
                    "durationTicks": 384,
                    "midi": 57,
                    "name": "A3",
                    "ticks": 188736,
                    "time": 196.60000000000002,
                    "velocity": 0.2125984251968504
                },
                {
                    "duration": 0.39999999999997726,
                    "durationTicks": 384,
                    "midi": 60,
                    "name": "C4",
                    "ticks": 188736,
                    "time": 196.60000000000002,
                    "velocity": 0.2125984251968504
                },
                {
                    "duration": 0.39999999999997726,
                    "durationTicks": 384,
                    "midi": 64,
                    "name": "E4",
                    "ticks": 188736,
                    "time": 196.60000000000002,
                    "velocity": 0.1889763779527559
                },
                {
                    "duration": 0.19999999999998863,
                    "durationTicks": 192,
                    "midi": 69,
                    "name": "A4",
                    "ticks": 188928,
                    "time": 196.8,
                    "velocity": 0.1732283464566929
                },
                {
                    "duration": 0.20000000000001705,
                    "durationTicks": 192,
                    "midi": 74,
                    "name": "D5",
                    "ticks": 189120,
                    "time": 197,
                    "velocity": 0.2125984251968504
                },
                {
                    "duration": 0.6000000000000227,
                    "durationTicks": 576,
                    "midi": 55,
                    "name": "G3",
                    "ticks": 189120,
                    "time": 197,
                    "velocity": 0.1889763779527559
                },
                {
                    "duration": 0.6000000000000227,
                    "durationTicks": 576,
                    "midi": 59,
                    "name": "B3",
                    "ticks": 189120,
                    "time": 197,
                    "velocity": 0.2125984251968504
                },
                {
                    "duration": 0.6000000000000227,
                    "durationTicks": 576,
                    "midi": 62,
                    "name": "D4",
                    "ticks": 189120,
                    "time": 197,
                    "velocity": 0.2283464566929134
                },
                {
                    "duration": 0.19999999999998863,
                    "durationTicks": 192,
                    "midi": 67,
                    "name": "G4",
                    "ticks": 189312,
                    "time": 197.20000000000002,
                    "velocity": 0.1732283464566929
                },
                {
                    "duration": 0.20000000000001705,
                    "durationTicks": 192,
                    "midi": 71,
                    "name": "B4",
                    "ticks": 189504,
                    "time": 197.4,
                    "velocity": 0.18110236220472442
                },
                {
                    "duration": 0.19999999999998863,
                    "durationTicks": 192,
                    "midi": 72,
                    "name": "C5",
                    "ticks": 189696,
                    "time": 197.60000000000002,
                    "velocity": 0.2047244094488189
                },
                {
                    "duration": 0.5999999999999943,
                    "durationTicks": 576,
                    "midi": 55,
                    "name": "G3",
                    "ticks": 189696,
                    "time": 197.60000000000002,
                    "velocity": 0.1968503937007874
                },
                {
                    "duration": 0.5999999999999943,
                    "durationTicks": 576,
                    "midi": 59,
                    "name": "B3",
                    "ticks": 189696,
                    "time": 197.60000000000002,
                    "velocity": 0.1968503937007874
                },
                {
                    "duration": 0.5999999999999943,
                    "durationTicks": 576,
                    "midi": 62,
                    "name": "D4",
                    "ticks": 189696,
                    "time": 197.60000000000002,
                    "velocity": 0.2283464566929134
                },
                {
                    "duration": 0.19999999999998863,
                    "durationTicks": 192,
                    "midi": 67,
                    "name": "G4",
                    "ticks": 189888,
                    "time": 197.8,
                    "velocity": 0.1732283464566929
                },
                {
                    "duration": 0.20000000000001705,
                    "durationTicks": 192,
                    "midi": 71,
                    "name": "B4",
                    "ticks": 190080,
                    "time": 198,
                    "velocity": 0.18110236220472442
                },
                {
                    "duration": 0.19999999999998863,
                    "durationTicks": 192,
                    "midi": 72,
                    "name": "C5",
                    "ticks": 190272,
                    "time": 198.20000000000002,
                    "velocity": 0.2047244094488189
                },
                {
                    "duration": 0.4000000000000057,
                    "durationTicks": 384,
                    "midi": 55,
                    "name": "G3",
                    "ticks": 190272,
                    "time": 198.20000000000002,
                    "velocity": 0.18110236220472442
                },
                {
                    "duration": 0.4000000000000057,
                    "durationTicks": 384,
                    "midi": 59,
                    "name": "B3",
                    "ticks": 190272,
                    "time": 198.20000000000002,
                    "velocity": 0.2283464566929134
                },
                {
                    "duration": 0.4000000000000057,
                    "durationTicks": 384,
                    "midi": 62,
                    "name": "D4",
                    "ticks": 190272,
                    "time": 198.20000000000002,
                    "velocity": 0.23622047244094488
                },
                {
                    "duration": 0.20000000000001705,
                    "durationTicks": 192,
                    "midi": 67,
                    "name": "G4",
                    "ticks": 190464,
                    "time": 198.4,
                    "velocity": 0.15748031496062992
                },
                {
                    "duration": 0.19999999999998863,
                    "durationTicks": 192,
                    "midi": 67,
                    "name": "G4",
                    "ticks": 190656,
                    "time": 198.60000000000002,
                    "velocity": 0.1732283464566929
                },
                {
                    "duration": 0.5999999999999943,
                    "durationTicks": 576,
                    "midi": 52,
                    "name": "E3",
                    "ticks": 190656,
                    "time": 198.60000000000002,
                    "velocity": 0.1968503937007874
                },
                {
                    "duration": 0.5999999999999943,
                    "durationTicks": 576,
                    "midi": 55,
                    "name": "G3",
                    "ticks": 190656,
                    "time": 198.60000000000002,
                    "velocity": 0.2125984251968504
                },
                {
                    "duration": 0.5999999999999943,
                    "durationTicks": 576,
                    "midi": 60,
                    "name": "C4",
                    "ticks": 190656,
                    "time": 198.60000000000002,
                    "velocity": 0.1732283464566929
                },
                {
                    "duration": 0.19999999999998863,
                    "durationTicks": 192,
                    "midi": 69,
                    "name": "A4",
                    "ticks": 190848,
                    "time": 198.8,
                    "velocity": 0.16535433070866143
                },
                {
                    "duration": 0.20000000000001705,
                    "durationTicks": 192,
                    "midi": 71,
                    "name": "B4",
                    "ticks": 191040,
                    "time": 199,
                    "velocity": 0.1889763779527559
                },
                {
                    "duration": 0.19999999999998863,
                    "durationTicks": 192,
                    "midi": 67,
                    "name": "G4",
                    "ticks": 191232,
                    "time": 199.20000000000002,
                    "velocity": 0.16535433070866143
                },
                {
                    "duration": 0.19999999999998863,
                    "durationTicks": 192,
                    "midi": 74,
                    "name": "D5",
                    "ticks": 191232,
                    "time": 199.20000000000002,
                    "velocity": 0.1968503937007874
                },
                {
                    "duration": 0.5999999999999943,
                    "durationTicks": 576,
                    "midi": 52,
                    "name": "E3",
                    "ticks": 191232,
                    "time": 199.20000000000002,
                    "velocity": 0.2204724409448819
                },
                {
                    "duration": 0.5999999999999943,
                    "durationTicks": 576,
                    "midi": 55,
                    "name": "G3",
                    "ticks": 191232,
                    "time": 199.20000000000002,
                    "velocity": 0.1889763779527559
                },
                {
                    "duration": 0.5999999999999943,
                    "durationTicks": 576,
                    "midi": 60,
                    "name": "C4",
                    "ticks": 191232,
                    "time": 199.20000000000002,
                    "velocity": 0.16535433070866143
                },
                {
                    "duration": 0.20000000000001705,
                    "durationTicks": 192,
                    "midi": 69,
                    "name": "A4",
                    "ticks": 191424,
                    "time": 199.4,
                    "velocity": 0.1889763779527559
                },
                {
                    "duration": 0.19999999999998863,
                    "durationTicks": 192,
                    "midi": 71,
                    "name": "B4",
                    "ticks": 191616,
                    "time": 199.60000000000002,
                    "velocity": 0.18110236220472442
                },
                {
                    "duration": 0.19999999999998863,
                    "durationTicks": 192,
                    "midi": 67,
                    "name": "G4",
                    "ticks": 191808,
                    "time": 199.8,
                    "velocity": 0.2125984251968504
                },
                {
                    "duration": 0.19999999999998863,
                    "durationTicks": 192,
                    "midi": 76,
                    "name": "E5",
                    "ticks": 191808,
                    "time": 199.8,
                    "velocity": 0.2204724409448819
                },
                {
                    "duration": 0.4000000000000057,
                    "durationTicks": 384,
                    "midi": 52,
                    "name": "E3",
                    "ticks": 191808,
                    "time": 199.8,
                    "velocity": 0.2125984251968504
                },
                {
                    "duration": 0.4000000000000057,
                    "durationTicks": 384,
                    "midi": 55,
                    "name": "G3",
                    "ticks": 191808,
                    "time": 199.8,
                    "velocity": 0.2047244094488189
                },
                {
                    "duration": 0.4000000000000057,
                    "durationTicks": 384,
                    "midi": 60,
                    "name": "C4",
                    "ticks": 191808,
                    "time": 199.8,
                    "velocity": 0.2125984251968504
                },
                {
                    "duration": 0.20000000000001705,
                    "durationTicks": 192,
                    "midi": 64,
                    "name": "E4",
                    "ticks": 192000,
                    "time": 200,
                    "velocity": 0.2047244094488189
                },
                {
                    "duration": 0.20000000000001705,
                    "durationTicks": 192,
                    "midi": 72,
                    "name": "C5",
                    "ticks": 192000,
                    "time": 200,
                    "velocity": 0.1968503937007874
                },
                {
                    "duration": 0.4000000000000057,
                    "durationTicks": 384,
                    "midi": 64,
                    "name": "E4",
                    "ticks": 192192,
                    "time": 200.20000000000002,
                    "velocity": 0.2677165354330709
                },
                {
                    "duration": 0.5999999999999943,
                    "durationTicks": 576,
                    "midi": 53,
                    "name": "F3",
                    "ticks": 192192,
                    "time": 200.20000000000002,
                    "velocity": 0.2440944881889764
                },
                {
                    "duration": 0.5999999999999943,
                    "durationTicks": 576,
                    "midi": 57,
                    "name": "A3",
                    "ticks": 192192,
                    "time": 200.20000000000002,
                    "velocity": 0.2047244094488189
                },
                {
                    "duration": 0.5999999999999943,
                    "durationTicks": 576,
                    "midi": 60,
                    "name": "C4",
                    "ticks": 192192,
                    "time": 200.20000000000002,
                    "velocity": 0.2047244094488189
                },
                {
                    "duration": 0.19999999999998863,
                    "durationTicks": 192,
                    "midi": 64,
                    "name": "E4",
                    "ticks": 192576,
                    "time": 200.60000000000002,
                    "velocity": 0.2283464566929134
                },
                {
                    "duration": 0.4000000000000057,
                    "durationTicks": 384,
                    "midi": 64,
                    "name": "E4",
                    "ticks": 192768,
                    "time": 200.8,
                    "velocity": 0.2440944881889764
                },
                {
                    "duration": 0.5999999999999943,
                    "durationTicks": 576,
                    "midi": 53,
                    "name": "F3",
                    "ticks": 192768,
                    "time": 200.8,
                    "velocity": 0.1732283464566929
                },
                {
                    "duration": 0.5999999999999943,
                    "durationTicks": 576,
                    "midi": 57,
                    "name": "A3",
                    "ticks": 192768,
                    "time": 200.8,
                    "velocity": 0.2125984251968504
                },
                {
                    "duration": 0.5999999999999943,
                    "durationTicks": 576,
                    "midi": 60,
                    "name": "C4",
                    "ticks": 192768,
                    "time": 200.8,
                    "velocity": 0.1968503937007874
                },
                {
                    "duration": 0.19999999999998863,
                    "durationTicks": 192,
                    "midi": 76,
                    "name": "E5",
                    "ticks": 193152,
                    "time": 201.20000000000002,
                    "velocity": 0.1732283464566929
                },
                {
                    "duration": 0.4000000000000057,
                    "durationTicks": 384,
                    "midi": 53,
                    "name": "F3",
                    "ticks": 193344,
                    "time": 201.4,
                    "velocity": 0.18110236220472442
                },
                {
                    "duration": 0.4000000000000057,
                    "durationTicks": 384,
                    "midi": 57,
                    "name": "A3",
                    "ticks": 193344,
                    "time": 201.4,
                    "velocity": 0.2125984251968504
                },
                {
                    "duration": 0.4000000000000057,
                    "durationTicks": 384,
                    "midi": 60,
                    "name": "C4",
                    "ticks": 193344,
                    "time": 201.4,
                    "velocity": 0.1968503937007874
                },
                {
                    "duration": 1.700000000000017,
                    "durationTicks": 1632,
                    "midi": 76,
                    "name": "E5",
                    "ticks": 193344,
                    "time": 201.4,
                    "velocity": 0.2755905511811024
                },
                {
                    "duration": 0.5999999999999943,
                    "durationTicks": 576,
                    "midi": 52,
                    "name": "E3",
                    "ticks": 193728,
                    "time": 201.8,
                    "velocity": 0.1968503937007874
                },
                {
                    "duration": 0.5999999999999943,
                    "durationTicks": 576,
                    "midi": 57,
                    "name": "A3",
                    "ticks": 193728,
                    "time": 201.8,
                    "velocity": 0.2047244094488189
                },
                {
                    "duration": 0.5999999999999943,
                    "durationTicks": 576,
                    "midi": 64,
                    "name": "E4",
                    "ticks": 193728,
                    "time": 201.8,
                    "velocity": 0.2283464566929134
                },
                {
                    "duration": 0.5999999999999943,
                    "durationTicks": 576,
                    "midi": 52,
                    "name": "E3",
                    "ticks": 194304,
                    "time": 202.4,
                    "velocity": 0.2047244094488189
                },
                {
                    "duration": 0.5999999999999943,
                    "durationTicks": 576,
                    "midi": 57,
                    "name": "A3",
                    "ticks": 194304,
                    "time": 202.4,
                    "velocity": 0.1968503937007874
                },
                {
                    "duration": 0.5999999999999943,
                    "durationTicks": 576,
                    "midi": 60,
                    "name": "C4",
                    "ticks": 194304,
                    "time": 202.4,
                    "velocity": 0.1968503937007874
                },
                {
                    "duration": 0.5999999999999943,
                    "durationTicks": 576,
                    "midi": 64,
                    "name": "E4",
                    "ticks": 194304,
                    "time": 202.4,
                    "velocity": 0.2440944881889764
                },
                {
                    "duration": 0.4000000000000057,
                    "durationTicks": 384,
                    "midi": 52,
                    "name": "E3",
                    "ticks": 194880,
                    "time": 203,
                    "velocity": 0.2125984251968504
                },
                {
                    "duration": 0.4000000000000057,
                    "durationTicks": 384,
                    "midi": 57,
                    "name": "A3",
                    "ticks": 194880,
                    "time": 203,
                    "velocity": 0.2125984251968504
                },
                {
                    "duration": 0.4000000000000057,
                    "durationTicks": 384,
                    "midi": 60,
                    "name": "C4",
                    "ticks": 194880,
                    "time": 203,
                    "velocity": 0.2125984251968504
                },
                {
                    "duration": 0.4000000000000057,
                    "durationTicks": 384,
                    "midi": 64,
                    "name": "E4",
                    "ticks": 194880,
                    "time": 203,
                    "velocity": 0.1889763779527559
                },
                {
                    "duration": 0.19999999999998863,
                    "durationTicks": 192,
                    "midi": 72,
                    "name": "C5",
                    "ticks": 195072,
                    "time": 203.20000000000002,
                    "velocity": 0.2125984251968504
                },
                {
                    "duration": 0.4000000000000057,
                    "durationTicks": 384,
                    "midi": 71,
                    "name": "B4",
                    "ticks": 195264,
                    "time": 203.4,
                    "velocity": 0.2047244094488189
                },
                {
                    "duration": 1.5,
                    "durationTicks": 1440,
                    "midi": 55,
                    "name": "G3",
                    "ticks": 195264,
                    "time": 203.4,
                    "velocity": 0.1889763779527559
                },
                {
                    "duration": 1.5,
                    "durationTicks": 1440,
                    "midi": 59,
                    "name": "B3",
                    "ticks": 195264,
                    "time": 203.4,
                    "velocity": 0.2125984251968504
                },
                {
                    "duration": 1.5,
                    "durationTicks": 1440,
                    "midi": 62,
                    "name": "D4",
                    "ticks": 195264,
                    "time": 203.4,
                    "velocity": 0.2283464566929134
                },
                {
                    "duration": 0.19999999999998863,
                    "durationTicks": 192,
                    "midi": 71,
                    "name": "B4",
                    "ticks": 195648,
                    "time": 203.8,
                    "velocity": 0.1968503937007874
                },
                {
                    "duration": 0.4000000000000057,
                    "durationTicks": 384,
                    "midi": 71,
                    "name": "B4",
                    "ticks": 195840,
                    "time": 204,
                    "velocity": 0.2204724409448819
                },
                {
                    "duration": 0.20000000000001705,
                    "durationTicks": 192,
                    "midi": 72,
                    "name": "C5",
                    "ticks": 196224,
                    "time": 204.4,
                    "velocity": 0.2440944881889764
                },
                {
                    "duration": 0.39999999999997726,
                    "durationTicks": 384,
                    "midi": 72,
                    "name": "C5",
                    "ticks": 196416,
                    "time": 204.60000000000002,
                    "velocity": 0.2283464566929134
                },
                {
                    "duration": 0.10000000000002274,
                    "durationTicks": 96,
                    "midi": 88,
                    "name": "E6",
                    "ticks": 196800,
                    "time": 205,
                    "velocity": 0.18110236220472442
                },
                {
                    "duration": 0.10000000000002274,
                    "durationTicks": 96,
                    "midi": 64,
                    "name": "E4",
                    "ticks": 196800,
                    "time": 205,
                    "velocity": 0.12598425196850394
                },
                {
                    "duration": 0.09999999999999432,
                    "durationTicks": 96,
                    "midi": 76,
                    "name": "E5",
                    "ticks": 196896,
                    "time": 205.10000000000002,
                    "velocity": 0.1968503937007874
                },
                {
                    "duration": 0.09999999999999432,
                    "durationTicks": 96,
                    "midi": 60,
                    "name": "C4",
                    "ticks": 196896,
                    "time": 205.10000000000002,
                    "velocity": 0.16535433070866143
                },
                {
                    "duration": 0.09999999999999432,
                    "durationTicks": 96,
                    "midi": 81,
                    "name": "A5",
                    "ticks": 196992,
                    "time": 205.20000000000002,
                    "velocity": 0.2125984251968504
                },
                {
                    "duration": 0.09999999999999432,
                    "durationTicks": 96,
                    "midi": 62,
                    "name": "D4",
                    "ticks": 196992,
                    "time": 205.20000000000002,
                    "velocity": 0.14173228346456693
                },
                {
                    "duration": 0.09999999999999432,
                    "durationTicks": 96,
                    "midi": 86,
                    "name": "D6",
                    "ticks": 197088,
                    "time": 205.3,
                    "velocity": 0.1968503937007874
                },
                {
                    "duration": 0.09999999999999432,
                    "durationTicks": 96,
                    "midi": 64,
                    "name": "E4",
                    "ticks": 197088,
                    "time": 205.3,
                    "velocity": 0.2204724409448819
                },
                {
                    "duration": 0.09999999999999432,
                    "durationTicks": 96,
                    "midi": 76,
                    "name": "E5",
                    "ticks": 197184,
                    "time": 205.4,
                    "velocity": 0.1889763779527559
                },
                {
                    "duration": 0.09999999999999432,
                    "durationTicks": 96,
                    "midi": 60,
                    "name": "C4",
                    "ticks": 197184,
                    "time": 205.4,
                    "velocity": 0.16535433070866143
                },
                {
                    "duration": 0.10000000000002274,
                    "durationTicks": 96,
                    "midi": 81,
                    "name": "A5",
                    "ticks": 197280,
                    "time": 205.5,
                    "velocity": 0.2125984251968504
                },
                {
                    "duration": 0.10000000000002274,
                    "durationTicks": 96,
                    "midi": 62,
                    "name": "D4",
                    "ticks": 197280,
                    "time": 205.5,
                    "velocity": 0.14173228346456693
                },
                {
                    "duration": 0.09999999999999432,
                    "durationTicks": 96,
                    "midi": 84,
                    "name": "C6",
                    "ticks": 197376,
                    "time": 205.60000000000002,
                    "velocity": 0.1889763779527559
                },
                {
                    "duration": 0.09999999999999432,
                    "durationTicks": 96,
                    "midi": 64,
                    "name": "E4",
                    "ticks": 197376,
                    "time": 205.60000000000002,
                    "velocity": 0.2204724409448819
                },
                {
                    "duration": 0.09999999999999432,
                    "durationTicks": 96,
                    "midi": 76,
                    "name": "E5",
                    "ticks": 197472,
                    "time": 205.70000000000002,
                    "velocity": 0.1889763779527559
                },
                {
                    "duration": 0.09999999999999432,
                    "durationTicks": 96,
                    "midi": 60,
                    "name": "C4",
                    "ticks": 197472,
                    "time": 205.70000000000002,
                    "velocity": 0.16535433070866143
                },
                {
                    "duration": 0.09999999999999432,
                    "durationTicks": 96,
                    "midi": 88,
                    "name": "E6",
                    "ticks": 197568,
                    "time": 205.8,
                    "velocity": 0.2047244094488189
                },
                {
                    "duration": 0.09999999999999432,
                    "durationTicks": 96,
                    "midi": 64,
                    "name": "E4",
                    "ticks": 197568,
                    "time": 205.8,
                    "velocity": 0.12598425196850394
                },
                {
                    "duration": 0.09999999999999432,
                    "durationTicks": 96,
                    "midi": 76,
                    "name": "E5",
                    "ticks": 197664,
                    "time": 205.9,
                    "velocity": 0.1968503937007874
                },
                {
                    "duration": 0.09999999999999432,
                    "durationTicks": 96,
                    "midi": 60,
                    "name": "C4",
                    "ticks": 197664,
                    "time": 205.9,
                    "velocity": 0.16535433070866143
                },
                {
                    "duration": 0.10000000000002274,
                    "durationTicks": 96,
                    "midi": 81,
                    "name": "A5",
                    "ticks": 197760,
                    "time": 206,
                    "velocity": 0.2125984251968504
                },
                {
                    "duration": 0.10000000000002274,
                    "durationTicks": 96,
                    "midi": 62,
                    "name": "D4",
                    "ticks": 197760,
                    "time": 206,
                    "velocity": 0.14173228346456693
                },
                {
                    "duration": 0.09999999999999432,
                    "durationTicks": 96,
                    "midi": 86,
                    "name": "D6",
                    "ticks": 197856,
                    "time": 206.10000000000002,
                    "velocity": 0.1968503937007874
                },
                {
                    "duration": 0.09999999999999432,
                    "durationTicks": 96,
                    "midi": 64,
                    "name": "E4",
                    "ticks": 197856,
                    "time": 206.10000000000002,
                    "velocity": 0.2204724409448819
                },
                {
                    "duration": 0.09999999999999432,
                    "durationTicks": 96,
                    "midi": 76,
                    "name": "E5",
                    "ticks": 197952,
                    "time": 206.20000000000002,
                    "velocity": 0.1889763779527559
                },
                {
                    "duration": 0.09999999999999432,
                    "durationTicks": 96,
                    "midi": 60,
                    "name": "C4",
                    "ticks": 197952,
                    "time": 206.20000000000002,
                    "velocity": 0.16535433070866143
                },
                {
                    "duration": 0.09999999999999432,
                    "durationTicks": 96,
                    "midi": 81,
                    "name": "A5",
                    "ticks": 198048,
                    "time": 206.3,
                    "velocity": 0.2125984251968504
                },
                {
                    "duration": 0.09999999999999432,
                    "durationTicks": 96,
                    "midi": 62,
                    "name": "D4",
                    "ticks": 198048,
                    "time": 206.3,
                    "velocity": 0.14173228346456693
                },
                {
                    "duration": 6.300000000000011,
                    "durationTicks": 6048,
                    "midi": 84,
                    "name": "C6",
                    "ticks": 198144,
                    "time": 206.4,
                    "velocity": 0.1889763779527559
                },
                {
                    "duration": 6.300000000000011,
                    "durationTicks": 6048,
                    "midi": 64,
                    "name": "E4",
                    "ticks": 198144,
                    "time": 206.4,
                    "velocity": 0.2204724409448819
                }
            ],
            "endOfTrackTicks": 204192
        }
    ]
}
