{
    "header": {
        "keySignatures": [
            {
                "key": "Bb",
                "scale": "major",
                "ticks": 0
            }
        ],
        "meta": [],
        "name": "",
        "ppq": 480,
        "tempos": [
            {
                "bpm": 120,
                "ticks": 0
            },
            {
                "bpm": 135.000135000135,
                "ticks": 1680
            }
        ],
        "timeSignatures": [
            {
                "ticks": 0,
                "timeSignature": [4, 4],
                "measures": 0
            },
            {
                "ticks": 253440,
                "timeSignature": [6, 4],
                "measures": 132
            }
        ]
    },
    "tracks": [
        {
            "channel": 0,
            "controlChanges": {
                "6": [
                    {
                        "number": 6,
                        "ticks": 0,
                        "time": 0,
                        "value": 0.09448818897637795
                    }
                ],
                "7": [
                    {
                        "number": 7,
                        "ticks": 0,
                        "time": 0,
                        "value": 0.7874015748031497
                    }
                ],
                "10": [
                    {
                        "number": 10,
                        "ticks": 0,
                        "time": 0,
                        "value": 0.5039370078740157
                    }
                ],
                "91": [
                    {
                        "number": 91,
                        "ticks": 0,
                        "time": 0,
                        "value": 0
                    }
                ],
                "93": [
                    {
                        "number": 93,
                        "ticks": 0,
                        "time": 0,
                        "value": 0
                    }
                ],
                "100": [
                    {
                        "number": 100,
                        "ticks": 0,
                        "time": 0,
                        "value": 0
                    },
                    {
                        "number": 100,
                        "ticks": 0,
                        "time": 0,
                        "value": 1
                    }
                ],
                "101": [
                    {
                        "number": 101,
                        "ticks": 0,
                        "time": 0,
                        "value": 0
                    },
                    {
                        "number": 101,
                        "ticks": 0,
                        "time": 0,
                        "value": 1
                    }
                ],
                "121": [
                    {
                        "number": 121,
                        "ticks": 0,
                        "time": 0,
                        "value": 0
                    }
                ]
            },
            "pitchBends": [],
            "instrument": {
                "family": "piano",
                "number": 0,
                "name": "acoustic grand piano"
            },
            "name": "钢琴, Klavier\u0000",
            "notes": [
                {
                    "duration": 0.210184975,
                    "durationTicks": 227,
                    "midi": 84,
                    "name": "C6",
                    "ticks": 1680,
                    "time": 1.75,
                    "velocity": 0.49606299212598426
                },
                {
                    "duration": 0.4212958750000002,
                    "durationTicks": 455,
                    "midi": 86,
                    "name": "D6",
                    "ticks": 1920,
                    "time": 1.972222,
                    "velocity": 0.6141732283464567
                },
                {
                    "duration": 1.2657394750000002,
                    "durationTicks": 1367,
                    "midi": 81,
                    "name": "A5",
                    "ticks": 1920,
                    "time": 1.972222,
                    "velocity": 0.49606299212598426
                },
                {
                    "duration": 0.42129587499999976,
                    "durationTicks": 455,
                    "midi": 84,
                    "name": "C6",
                    "ticks": 2400,
                    "time": 2.416666,
                    "velocity": 0.5511811023622047
                },
                {
                    "duration": 0.2212960749999997,
                    "durationTicks": 239,
                    "midi": 83,
                    "name": "B5",
                    "ticks": 2880,
                    "time": 2.86111,
                    "velocity": 0.5905511811023622
                },
                {
                    "duration": 0.42129587499999976,
                    "durationTicks": 455,
                    "midi": 81,
                    "name": "A5",
                    "ticks": 3120,
                    "time": 3.083332,
                    "velocity": 0.5433070866141733
                },
                {
                    "duration": 0.4212958750000002,
                    "durationTicks": 455,
                    "midi": 72,
                    "name": "C5",
                    "ticks": 3360,
                    "time": 3.305554,
                    "velocity": 0.6299212598425197
                },
                {
                    "duration": 0.42129587499999976,
                    "durationTicks": 455,
                    "midi": 86,
                    "name": "D6",
                    "ticks": 3600,
                    "time": 3.5277760000000002,
                    "velocity": 0.7007874015748031
                },
                {
                    "duration": 1.2657394750000002,
                    "durationTicks": 1367,
                    "midi": 65,
                    "name": "F4",
                    "ticks": 3840,
                    "time": 3.7499979999999997,
                    "velocity": 0.49606299212598426
                },
                {
                    "duration": 0.4212958750000002,
                    "durationTicks": 455,
                    "midi": 84,
                    "name": "C6",
                    "ticks": 4080,
                    "time": 3.97222,
                    "velocity": 0.5905511811023622
                },
                {
                    "duration": 0.4212958750000002,
                    "durationTicks": 455,
                    "midi": 83,
                    "name": "B5",
                    "ticks": 4560,
                    "time": 4.416664,
                    "velocity": 0.5433070866141733
                },
                {
                    "duration": 0.3324070750000008,
                    "durationTicks": 359,
                    "midi": 81,
                    "name": "A5",
                    "ticks": 5040,
                    "time": 4.861108,
                    "velocity": 0.5669291338582677
                },
                {
                    "duration": 0.21018497499999889,
                    "durationTicks": 227,
                    "midi": 81,
                    "name": "A5",
                    "ticks": 5520,
                    "time": 5.3055520000000005,
                    "velocity": 0.5905511811023622
                },
                {
                    "duration": 0.6324067750000006,
                    "durationTicks": 683,
                    "midi": 79,
                    "name": "G5",
                    "ticks": 5760,
                    "time": 5.527774,
                    "velocity": 0.5433070866141733
                },
                {
                    "duration": 1.2657394750000002,
                    "durationTicks": 1367,
                    "midi": 79,
                    "name": "G5",
                    "ticks": 5760,
                    "time": 5.527774,
                    "velocity": 0.5275590551181102
                },
                {
                    "duration": 0.21018497499999977,
                    "durationTicks": 227,
                    "midi": 77,
                    "name": "F5",
                    "ticks": 6480,
                    "time": 6.19444,
                    "velocity": 0.5590551181102362
                },
                {
                    "duration": 0.4212958750000002,
                    "durationTicks": 455,
                    "midi": 77,
                    "name": "F5",
                    "ticks": 6720,
                    "time": 6.416662,
                    "velocity": 0.6062992125984252
                },
                {
                    "duration": 0.31574042500000044,
                    "durationTicks": 341,
                    "midi": 79,
                    "name": "G5",
                    "ticks": 7080,
                    "time": 6.749995,
                    "velocity": 0.6456692913385826
                },
                {
                    "duration": 0.4212958749999993,
                    "durationTicks": 455,
                    "midi": 71,
                    "name": "B4",
                    "ticks": 7200,
                    "time": 6.861106,
                    "velocity": 0.6220472440944882
                },
                {
                    "duration": 1.4768503749999997,
                    "durationTicks": 1595,
                    "midi": 76,
                    "name": "E5",
                    "ticks": 7440,
                    "time": 7.083328,
                    "velocity": 0.5669291338582677
                },
                {
                    "duration": 1.2657394750000002,
                    "durationTicks": 1367,
                    "midi": 69,
                    "name": "A4",
                    "ticks": 7680,
                    "time": 7.30555,
                    "velocity": 0.5984251968503937
                },
                {
                    "duration": 0.21018497499999889,
                    "durationTicks": 227,
                    "midi": 76,
                    "name": "E5",
                    "ticks": 9360,
                    "time": 8.861104000000001,
                    "velocity": 0.5354330708661418
                },
                {
                    "duration": 0.21018497499999889,
                    "durationTicks": 227,
                    "midi": 76,
                    "name": "E5",
                    "ticks": 9360,
                    "time": 8.861104000000001,
                    "velocity": 0.5354330708661418
                },
                {
                    "duration": 0.421295875000002,
                    "durationTicks": 455,
                    "midi": 64,
                    "name": "E4",
                    "ticks": 9600,
                    "time": 9.083326,
                    "velocity": 0.5905511811023622
                },
                {
                    "duration": 0.421295875000002,
                    "durationTicks": 455,
                    "midi": 72,
                    "name": "C5",
                    "ticks": 9600,
                    "time": 9.083326,
                    "velocity": 0.5905511811023622
                },
                {
                    "duration": 0.421295875000002,
                    "durationTicks": 455,
                    "midi": 76,
                    "name": "E5",
                    "ticks": 9600,
                    "time": 9.083326,
                    "velocity": 0.5905511811023622
                },
                {
                    "duration": 0.21018497499999889,
                    "durationTicks": 227,
                    "midi": 60,
                    "name": "C4",
                    "ticks": 9840,
                    "time": 9.305548,
                    "velocity": 0.6299212598425197
                },
                {
                    "duration": 0.21018497500000066,
                    "durationTicks": 227,
                    "midi": 64,
                    "name": "E4",
                    "ticks": 10080,
                    "time": 9.52777,
                    "velocity": 0.6141732283464567
                },
                {
                    "duration": 0.21018497500000066,
                    "durationTicks": 227,
                    "midi": 76,
                    "name": "E5",
                    "ticks": 10080,
                    "time": 9.52777,
                    "velocity": 0.6141732283464567
                },
                {
                    "duration": 0.21018497500000066,
                    "durationTicks": 227,
                    "midi": 69,
                    "name": "A4",
                    "ticks": 10080,
                    "time": 9.52777,
                    "velocity": 0.7480314960629921
                },
                {
                    "duration": 0.421295875000002,
                    "durationTicks": 455,
                    "midi": 64,
                    "name": "E4",
                    "ticks": 10320,
                    "time": 9.749991999999999,
                    "velocity": 0.6062992125984252
                },
                {
                    "duration": 0.421295875000002,
                    "durationTicks": 455,
                    "midi": 72,
                    "name": "C5",
                    "ticks": 10320,
                    "time": 9.749991999999999,
                    "velocity": 0.6062992125984252
                },
                {
                    "duration": 0.421295875000002,
                    "durationTicks": 455,
                    "midi": 76,
                    "name": "E5",
                    "ticks": 10320,
                    "time": 9.749991999999999,
                    "velocity": 0.6062992125984252
                },
                {
                    "duration": 0.21018497500000066,
                    "durationTicks": 227,
                    "midi": 60,
                    "name": "C4",
                    "ticks": 10560,
                    "time": 9.972214,
                    "velocity": 0.6771653543307087
                },
                {
                    "duration": 0.21018497500000066,
                    "durationTicks": 227,
                    "midi": 76,
                    "name": "E5",
                    "ticks": 10800,
                    "time": 10.194436,
                    "velocity": 0.7716535433070866
                },
                {
                    "duration": 0.21018497500000066,
                    "durationTicks": 227,
                    "midi": 88,
                    "name": "E6",
                    "ticks": 10800,
                    "time": 10.194436,
                    "velocity": 0.7716535433070866
                },
                {
                    "duration": 0.21018497500000066,
                    "durationTicks": 227,
                    "midi": 67,
                    "name": "G4",
                    "ticks": 10800,
                    "time": 10.194436,
                    "velocity": 0.7007874015748031
                },
                {
                    "duration": 0.43240697499999925,
                    "durationTicks": 467,
                    "midi": 76,
                    "name": "E5",
                    "ticks": 11040,
                    "time": 10.416658,
                    "velocity": 0.6220472440944882
                },
                {
                    "duration": 1.0990729750000003,
                    "durationTicks": 1187,
                    "midi": 84,
                    "name": "C6",
                    "ticks": 11040,
                    "time": 10.416658,
                    "velocity": 0.6220472440944882
                },
                {
                    "duration": 1.6879612749999993,
                    "durationTicks": 1823,
                    "midi": 88,
                    "name": "E6",
                    "ticks": 11040,
                    "time": 10.416658,
                    "velocity": 0.6220472440944882
                },
                {
                    "duration": 0.21018497500000066,
                    "durationTicks": 227,
                    "midi": 72,
                    "name": "C5",
                    "ticks": 11040,
                    "time": 10.416658,
                    "velocity": 0.6614173228346457
                },
                {
                    "duration": 0.6212956750000007,
                    "durationTicks": 671,
                    "midi": 76,
                    "name": "E5",
                    "ticks": 11280,
                    "time": 10.63888,
                    "velocity": 0.6929133858267716
                },
                {
                    "duration": 0.21018497499999889,
                    "durationTicks": 227,
                    "midi": 69,
                    "name": "A4",
                    "ticks": 11520,
                    "time": 10.861102,
                    "velocity": 0.5118110236220472
                },
                {
                    "duration": 0.21018497500000066,
                    "durationTicks": 227,
                    "midi": 74,
                    "name": "D5",
                    "ticks": 11760,
                    "time": 11.083324,
                    "velocity": 0.5590551181102362
                },
                {
                    "duration": 0.21018497500000066,
                    "durationTicks": 227,
                    "midi": 76,
                    "name": "E5",
                    "ticks": 11760,
                    "time": 11.083324,
                    "velocity": 0.7165354330708661
                },
                {
                    "duration": 0.6546289749999996,
                    "durationTicks": 707,
                    "midi": 76,
                    "name": "E5",
                    "ticks": 12000,
                    "time": 11.305546,
                    "velocity": 0.6141732283464567
                },
                {
                    "duration": 0.7990732749999996,
                    "durationTicks": 863,
                    "midi": 84,
                    "name": "C6",
                    "ticks": 12000,
                    "time": 11.305546,
                    "velocity": 0.7480314960629921
                },
                {
                    "duration": 0.21018497500000066,
                    "durationTicks": 227,
                    "midi": 69,
                    "name": "A4",
                    "ticks": 12240,
                    "time": 11.527768,
                    "velocity": 0.5669291338582677
                },
                {
                    "duration": 0.21018497499999889,
                    "durationTicks": 227,
                    "midi": 74,
                    "name": "D5",
                    "ticks": 12480,
                    "time": 11.74999,
                    "velocity": 0.5196850393700787
                },
                {
                    "duration": 0.22222200000000036,
                    "durationTicks": 240,
                    "midi": 76,
                    "name": "E5",
                    "ticks": 12480,
                    "time": 11.74999,
                    "velocity": 0.6850393700787402
                },
                {
                    "duration": 0.21018497499999889,
                    "durationTicks": 227,
                    "midi": 76,
                    "name": "E5",
                    "ticks": 12720,
                    "time": 11.972212,
                    "velocity": 0.6614173228346457
                },
                {
                    "duration": 0.21018497499999889,
                    "durationTicks": 227,
                    "midi": 84,
                    "name": "C6",
                    "ticks": 12720,
                    "time": 11.972212,
                    "velocity": 0.7244094488188977
                },
                {
                    "duration": 0.21018497500000066,
                    "durationTicks": 227,
                    "midi": 69,
                    "name": "A4",
                    "ticks": 12960,
                    "time": 12.194434,
                    "velocity": 0.5590551181102362
                },
                {
                    "duration": 0.21018497500000066,
                    "durationTicks": 227,
                    "midi": 72,
                    "name": "C5",
                    "ticks": 13200,
                    "time": 12.416656,
                    "velocity": 0.5511811023622047
                },
                {
                    "duration": 0.21018497500000066,
                    "durationTicks": 227,
                    "midi": 84,
                    "name": "C6",
                    "ticks": 13200,
                    "time": 12.416656,
                    "velocity": 0.5511811023622047
                },
                {
                    "duration": 0.21018497500000066,
                    "durationTicks": 227,
                    "midi": 76,
                    "name": "E5",
                    "ticks": 13200,
                    "time": 12.416656,
                    "velocity": 0.7244094488188977
                },
                {
                    "duration": 0.4212958750000002,
                    "durationTicks": 455,
                    "midi": 71,
                    "name": "B4",
                    "ticks": 13440,
                    "time": 12.638878,
                    "velocity": 0.5748031496062992
                },
                {
                    "duration": 0.4212958750000002,
                    "durationTicks": 455,
                    "midi": 74,
                    "name": "D5",
                    "ticks": 13440,
                    "time": 12.638878,
                    "velocity": 0.5748031496062992
                },
                {
                    "duration": 0.4212958750000002,
                    "durationTicks": 455,
                    "midi": 83,
                    "name": "B5",
                    "ticks": 13440,
                    "time": 12.638878,
                    "velocity": 0.5748031496062992
                },
                {
                    "duration": 0.21018497500000066,
                    "durationTicks": 227,
                    "midi": 67,
                    "name": "G4",
                    "ticks": 13440,
                    "time": 12.638878,
                    "velocity": 0.5196850393700787
                },
                {
                    "duration": 0.21018497499999889,
                    "durationTicks": 227,
                    "midi": 74,
                    "name": "D5",
                    "ticks": 13680,
                    "time": 12.8611,
                    "velocity": 0.6929133858267716
                },
                {
                    "duration": 0.21018497499999889,
                    "durationTicks": 227,
                    "midi": 71,
                    "name": "B4",
                    "ticks": 13920,
                    "time": 13.083322,
                    "velocity": 0.5905511811023622
                },
                {
                    "duration": 0.21018497499999889,
                    "durationTicks": 227,
                    "midi": 83,
                    "name": "B5",
                    "ticks": 13920,
                    "time": 13.083322,
                    "velocity": 0.5905511811023622
                },
                {
                    "duration": 0.21018497499999889,
                    "durationTicks": 227,
                    "midi": 83,
                    "name": "B5",
                    "ticks": 13920,
                    "time": 13.083322,
                    "velocity": 0.7559055118110236
                },
                {
                    "duration": 0.421295875000002,
                    "durationTicks": 455,
                    "midi": 71,
                    "name": "B4",
                    "ticks": 14160,
                    "time": 13.305544,
                    "velocity": 0.5984251968503937
                },
                {
                    "duration": 0.421295875000002,
                    "durationTicks": 455,
                    "midi": 74,
                    "name": "D5",
                    "ticks": 14160,
                    "time": 13.305544,
                    "velocity": 0.5984251968503937
                },
                {
                    "duration": 0.421295875000002,
                    "durationTicks": 455,
                    "midi": 83,
                    "name": "B5",
                    "ticks": 14160,
                    "time": 13.305544,
                    "velocity": 0.5984251968503937
                },
                {
                    "duration": 0.21018497500000066,
                    "durationTicks": 227,
                    "midi": 67,
                    "name": "G4",
                    "ticks": 14160,
                    "time": 13.305544,
                    "velocity": 0.5433070866141733
                },
                {
                    "duration": 0.21018497500000066,
                    "durationTicks": 227,
                    "midi": 74,
                    "name": "D5",
                    "ticks": 14400,
                    "time": 13.527766,
                    "velocity": 0.7007874015748031
                },
                {
                    "duration": 0.21018497500000066,
                    "durationTicks": 227,
                    "midi": 72,
                    "name": "C5",
                    "ticks": 14640,
                    "time": 13.749988,
                    "velocity": 0.6299212598425197
                },
                {
                    "duration": 0.21018497500000066,
                    "durationTicks": 227,
                    "midi": 84,
                    "name": "C6",
                    "ticks": 14640,
                    "time": 13.749988,
                    "velocity": 0.6299212598425197
                },
                {
                    "duration": 0.21018497500000066,
                    "durationTicks": 227,
                    "midi": 79,
                    "name": "G5",
                    "ticks": 14640,
                    "time": 13.749988,
                    "velocity": 0.6771653543307087
                },
                {
                    "duration": 0.8435176749999993,
                    "durationTicks": 911,
                    "midi": 72,
                    "name": "C5",
                    "ticks": 14880,
                    "time": 13.97221,
                    "velocity": 0.6220472440944882
                },
                {
                    "duration": 0.21018497499999889,
                    "durationTicks": 227,
                    "midi": 84,
                    "name": "C6",
                    "ticks": 14880,
                    "time": 13.97221,
                    "velocity": 0.6220472440944882
                },
                {
                    "duration": 1.6879612749999993,
                    "durationTicks": 1823,
                    "midi": 84,
                    "name": "C6",
                    "ticks": 14880,
                    "time": 13.97221,
                    "velocity": 0.6850393700787402
                },
                {
                    "duration": 0.21018497499999889,
                    "durationTicks": 227,
                    "midi": 86,
                    "name": "D6",
                    "ticks": 15120,
                    "time": 14.194432,
                    "velocity": 0.6692913385826772
                },
                {
                    "duration": 0.21018497500000066,
                    "durationTicks": 227,
                    "midi": 69,
                    "name": "A4",
                    "ticks": 15360,
                    "time": 14.416654,
                    "velocity": 0.5196850393700787
                },
                {
                    "duration": 0.21018497500000066,
                    "durationTicks": 227,
                    "midi": 71,
                    "name": "B4",
                    "ticks": 15600,
                    "time": 14.638876,
                    "velocity": 0.5354330708661418
                },
                {
                    "duration": 0.21018497500000066,
                    "durationTicks": 227,
                    "midi": 76,
                    "name": "E5",
                    "ticks": 15600,
                    "time": 14.638876,
                    "velocity": 0.6929133858267716
                },
                {
                    "duration": 0.6666659999999993,
                    "durationTicks": 720,
                    "midi": 72,
                    "name": "C5",
                    "ticks": 15840,
                    "time": 14.861098,
                    "velocity": 0.6535433070866141
                },
                {
                    "duration": 0.21018497500000066,
                    "durationTicks": 227,
                    "midi": 81,
                    "name": "A5",
                    "ticks": 15840,
                    "time": 14.861098,
                    "velocity": 0.7165354330708661
                },
                {
                    "duration": 0.21018497499999889,
                    "durationTicks": 227,
                    "midi": 69,
                    "name": "A4",
                    "ticks": 16080,
                    "time": 15.08332,
                    "velocity": 0.5354330708661418
                },
                {
                    "duration": 0.21018497499999889,
                    "durationTicks": 227,
                    "midi": 71,
                    "name": "B4",
                    "ticks": 16320,
                    "time": 15.305542,
                    "velocity": 0.5433070866141733
                },
                {
                    "duration": 0.21018497499999889,
                    "durationTicks": 227,
                    "midi": 76,
                    "name": "E5",
                    "ticks": 16320,
                    "time": 15.305542,
                    "velocity": 0.6771653543307087
                },
                {
                    "duration": 0.21018497500000066,
                    "durationTicks": 227,
                    "midi": 72,
                    "name": "C5",
                    "ticks": 16560,
                    "time": 15.527764,
                    "velocity": 0.6220472440944882
                },
                {
                    "duration": 0.21018497500000066,
                    "durationTicks": 227,
                    "midi": 81,
                    "name": "A5",
                    "ticks": 16560,
                    "time": 15.527764,
                    "velocity": 0.6614173228346457
                },
                {
                    "duration": 0.21018497499999889,
                    "durationTicks": 227,
                    "midi": 84,
                    "name": "C6",
                    "ticks": 17040,
                    "time": 15.972208,
                    "velocity": 0.5590551181102362
                },
                {
                    "duration": 0.21018497499999889,
                    "durationTicks": 227,
                    "midi": 76,
                    "name": "E5",
                    "ticks": 17040,
                    "time": 15.972208,
                    "velocity": 0.6692913385826772
                },
                {
                    "duration": 0.42129587499999843,
                    "durationTicks": 455,
                    "midi": 86,
                    "name": "D6",
                    "ticks": 17280,
                    "time": 16.19443,
                    "velocity": 0.6535433070866141
                },
                {
                    "duration": 0.21018497500000066,
                    "durationTicks": 227,
                    "midi": 65,
                    "name": "F4",
                    "ticks": 17280,
                    "time": 16.19443,
                    "velocity": 0.5433070866141733
                },
                {
                    "duration": 0.21018497500000421,
                    "durationTicks": 227,
                    "midi": 74,
                    "name": "D5",
                    "ticks": 17520,
                    "time": 16.416652,
                    "velocity": 0.5433070866141733
                },
                {
                    "duration": 0.21018497500000421,
                    "durationTicks": 227,
                    "midi": 72,
                    "name": "C5",
                    "ticks": 17520,
                    "time": 16.416652,
                    "velocity": 0.6377952755905512
                },
                {
                    "duration": 0.21018497500000066,
                    "durationTicks": 227,
                    "midi": 76,
                    "name": "E5",
                    "ticks": 17760,
                    "time": 16.638874,
                    "velocity": 0.6220472440944882
                },
                {
                    "duration": 0.42129587499999843,
                    "durationTicks": 455,
                    "midi": 84,
                    "name": "C6",
                    "ticks": 17760,
                    "time": 16.638874,
                    "velocity": 0.5511811023622047
                },
                {
                    "duration": 0.21018497500000066,
                    "durationTicks": 227,
                    "midi": 81,
                    "name": "A5",
                    "ticks": 17760,
                    "time": 16.638874,
                    "velocity": 0.7559055118110236
                },
                {
                    "duration": 0.21018497500000066,
                    "durationTicks": 227,
                    "midi": 72,
                    "name": "C5",
                    "ticks": 18000,
                    "time": 16.861096,
                    "velocity": 0.5433070866141733
                },
                {
                    "duration": 0.21018497500000066,
                    "durationTicks": 227,
                    "midi": 65,
                    "name": "F4",
                    "ticks": 18000,
                    "time": 16.861096,
                    "velocity": 0.5196850393700787
                },
                {
                    "duration": 0.21018497500000421,
                    "durationTicks": 227,
                    "midi": 83,
                    "name": "B5",
                    "ticks": 18240,
                    "time": 17.083318,
                    "velocity": 0.5826771653543307
                },
                {
                    "duration": 0.21018497500000421,
                    "durationTicks": 227,
                    "midi": 72,
                    "name": "C5",
                    "ticks": 18240,
                    "time": 17.083318,
                    "velocity": 0.5984251968503937
                },
                {
                    "duration": 0.21018497500000066,
                    "durationTicks": 227,
                    "midi": 72,
                    "name": "C5",
                    "ticks": 18480,
                    "time": 17.30554,
                    "velocity": 0.6141732283464567
                },
                {
                    "duration": 0.21018497500000066,
                    "durationTicks": 227,
                    "midi": 81,
                    "name": "A5",
                    "ticks": 18480,
                    "time": 17.30554,
                    "velocity": 0.5669291338582677
                },
                {
                    "duration": 0.42129587499999843,
                    "durationTicks": 455,
                    "midi": 81,
                    "name": "A5",
                    "ticks": 18480,
                    "time": 17.30554,
                    "velocity": 0.7401574803149606
                },
                {
                    "duration": 0.4212958749999949,
                    "durationTicks": 455,
                    "midi": 69,
                    "name": "A4",
                    "ticks": 18720,
                    "time": 17.527762000000003,
                    "velocity": 0.5275590551181102
                },
                {
                    "duration": 0.2101849749999971,
                    "durationTicks": 227,
                    "midi": 65,
                    "name": "F4",
                    "ticks": 18720,
                    "time": 17.527762000000003,
                    "velocity": 0.5118110236220472
                },
                {
                    "duration": 0.421295875000002,
                    "durationTicks": 455,
                    "midi": 86,
                    "name": "D6",
                    "ticks": 18960,
                    "time": 17.749983999999998,
                    "velocity": 0.6850393700787402
                },
                {
                    "duration": 0.21018497500000421,
                    "durationTicks": 227,
                    "midi": 72,
                    "name": "C5",
                    "ticks": 18960,
                    "time": 17.749983999999998,
                    "velocity": 0.6220472440944882
                },
                {
                    "duration": 0.21018497500000066,
                    "durationTicks": 227,
                    "midi": 74,
                    "name": "D5",
                    "ticks": 19200,
                    "time": 17.972206,
                    "velocity": 0.6535433070866141
                },
                {
                    "duration": 0.21018497500000066,
                    "durationTicks": 227,
                    "midi": 69,
                    "name": "A4",
                    "ticks": 19200,
                    "time": 17.972206,
                    "velocity": 0.5905511811023622
                },
                {
                    "duration": 0.21018497500000421,
                    "durationTicks": 227,
                    "midi": 76,
                    "name": "E5",
                    "ticks": 19440,
                    "time": 18.194428,
                    "velocity": 0.6377952755905512
                },
                {
                    "duration": 0.421295875000002,
                    "durationTicks": 455,
                    "midi": 84,
                    "name": "C6",
                    "ticks": 19440,
                    "time": 18.194428,
                    "velocity": 0.6141732283464567
                },
                {
                    "duration": 0.21018497500000421,
                    "durationTicks": 227,
                    "midi": 76,
                    "name": "E5",
                    "ticks": 19440,
                    "time": 18.194428,
                    "velocity": 0.7007874015748031
                },
                {
                    "duration": 0.21018497500000066,
                    "durationTicks": 227,
                    "midi": 72,
                    "name": "C5",
                    "ticks": 19680,
                    "time": 18.41665,
                    "velocity": 0.5590551181102362
                },
                {
                    "duration": 0.21018497500000066,
                    "durationTicks": 227,
                    "midi": 84,
                    "name": "C6",
                    "ticks": 19680,
                    "time": 18.41665,
                    "velocity": 0.7244094488188977
                },
                {
                    "duration": 0.21018497500000421,
                    "durationTicks": 227,
                    "midi": 71,
                    "name": "B4",
                    "ticks": 19920,
                    "time": 18.638872,
                    "velocity": 0.5590551181102362
                },
                {
                    "duration": 0.42129587499999843,
                    "durationTicks": 455,
                    "midi": 83,
                    "name": "B5",
                    "ticks": 19920,
                    "time": 18.638872,
                    "velocity": 0.5984251968503937
                },
                {
                    "duration": 0.21018497500000421,
                    "durationTicks": 227,
                    "midi": 69,
                    "name": "A4",
                    "ticks": 19920,
                    "time": 18.638872,
                    "velocity": 0.5275590551181102
                },
                {
                    "duration": 0.21018497500000066,
                    "durationTicks": 227,
                    "midi": 72,
                    "name": "C5",
                    "ticks": 20160,
                    "time": 18.861094,
                    "velocity": 0.6220472440944882
                },
                {
                    "duration": 0.21018497500000066,
                    "durationTicks": 227,
                    "midi": 76,
                    "name": "E5",
                    "ticks": 20160,
                    "time": 18.861094,
                    "velocity": 0.7165354330708661
                },
                {
                    "duration": 0.42129587499999843,
                    "durationTicks": 455,
                    "midi": 69,
                    "name": "A4",
                    "ticks": 20400,
                    "time": 19.083316,
                    "velocity": 0.5433070866141733
                },
                {
                    "duration": 0.42129587499999843,
                    "durationTicks": 455,
                    "midi": 81,
                    "name": "A5",
                    "ticks": 20400,
                    "time": 19.083316,
                    "velocity": 0.5433070866141733
                },
                {
                    "duration": 0.21018497500000066,
                    "durationTicks": 227,
                    "midi": 84,
                    "name": "C6",
                    "ticks": 20400,
                    "time": 19.083316,
                    "velocity": 0.7244094488188977
                },
                {
                    "duration": 0.21018497500000421,
                    "durationTicks": 227,
                    "midi": 69,
                    "name": "A4",
                    "ticks": 20640,
                    "time": 19.305538,
                    "velocity": 0.5196850393700787
                },
                {
                    "duration": 0.21018497500000066,
                    "durationTicks": 227,
                    "midi": 81,
                    "name": "A5",
                    "ticks": 20880,
                    "time": 19.52776,
                    "velocity": 0.6062992125984252
                },
                {
                    "duration": 0.21018497500000066,
                    "durationTicks": 227,
                    "midi": 76,
                    "name": "E5",
                    "ticks": 20880,
                    "time": 19.52776,
                    "velocity": 0.7322834645669292
                },
                {
                    "duration": 0.21018497500000421,
                    "durationTicks": 227,
                    "midi": 71,
                    "name": "B4",
                    "ticks": 21120,
                    "time": 19.749982,
                    "velocity": 0.4881889763779528
                },
                {
                    "duration": 0.8435176750000011,
                    "durationTicks": 911,
                    "midi": 79,
                    "name": "G5",
                    "ticks": 21120,
                    "time": 19.749982,
                    "velocity": 0.5669291338582677
                },
                {
                    "duration": 0.22222200000000214,
                    "durationTicks": 240,
                    "midi": 67,
                    "name": "G4",
                    "ticks": 21120,
                    "time": 19.749982,
                    "velocity": 0.5511811023622047
                },
                {
                    "duration": 0.21018497500000066,
                    "durationTicks": 227,
                    "midi": 72,
                    "name": "C5",
                    "ticks": 21360,
                    "time": 19.972204,
                    "velocity": 0.5826771653543307
                },
                {
                    "duration": 0.21018497500000066,
                    "durationTicks": 227,
                    "midi": 62,
                    "name": "D4",
                    "ticks": 21360,
                    "time": 19.972204,
                    "velocity": 0.6850393700787402
                },
                {
                    "duration": 0.21018497500000066,
                    "durationTicks": 227,
                    "midi": 67,
                    "name": "G4",
                    "ticks": 21600,
                    "time": 20.194426,
                    "velocity": 0.5511811023622047
                },
                {
                    "duration": 0.21018497500000066,
                    "durationTicks": 227,
                    "midi": 71,
                    "name": "B4",
                    "ticks": 21600,
                    "time": 20.194426,
                    "velocity": 0.7322834645669292
                },
                {
                    "duration": 0.21018497500000421,
                    "durationTicks": 227,
                    "midi": 77,
                    "name": "F5",
                    "ticks": 21840,
                    "time": 20.416648,
                    "velocity": 0.5511811023622047
                },
                {
                    "duration": 0.22222200000000214,
                    "durationTicks": 240,
                    "midi": 67,
                    "name": "G4",
                    "ticks": 21840,
                    "time": 20.416648,
                    "velocity": 0.5590551181102362
                },
                {
                    "duration": 0.3157404250000013,
                    "durationTicks": 341,
                    "midi": 71,
                    "name": "B4",
                    "ticks": 22080,
                    "time": 20.63887,
                    "velocity": 0.5433070866141733
                },
                {
                    "duration": 0.3157404250000013,
                    "durationTicks": 341,
                    "midi": 77,
                    "name": "F5",
                    "ticks": 22080,
                    "time": 20.63887,
                    "velocity": 0.5748031496062992
                },
                {
                    "duration": 0.22129607500000148,
                    "durationTicks": 239,
                    "midi": 62,
                    "name": "D4",
                    "ticks": 22080,
                    "time": 20.63887,
                    "velocity": 0.7086614173228346
                },
                {
                    "duration": 0.21018497500000066,
                    "durationTicks": 227,
                    "midi": 71,
                    "name": "B4",
                    "ticks": 22320,
                    "time": 20.861092,
                    "velocity": 0.7322834645669292
                },
                {
                    "duration": 0.3157404250000013,
                    "durationTicks": 341,
                    "midi": 79,
                    "name": "G5",
                    "ticks": 22440,
                    "time": 20.972203,
                    "velocity": 0.6377952755905512
                },
                {
                    "duration": 0.3157404250000013,
                    "durationTicks": 341,
                    "midi": 84,
                    "name": "C6",
                    "ticks": 22440,
                    "time": 20.972203,
                    "velocity": 0.6456692913385826
                },
                {
                    "duration": 0.2222219999999986,
                    "durationTicks": 240,
                    "midi": 67,
                    "name": "G4",
                    "ticks": 22560,
                    "time": 21.083314,
                    "velocity": 0.5354330708661418
                },
                {
                    "duration": 0.21018497500000066,
                    "durationTicks": 227,
                    "midi": 67,
                    "name": "G4",
                    "ticks": 22800,
                    "time": 21.305536,
                    "velocity": 0.5196850393700787
                },
                {
                    "duration": 1.476850374999998,
                    "durationTicks": 1595,
                    "midi": 76,
                    "name": "E5",
                    "ticks": 22800,
                    "time": 21.305536,
                    "velocity": 0.5433070866141733
                },
                {
                    "duration": 0.21018497500000066,
                    "durationTicks": 227,
                    "midi": 62,
                    "name": "D4",
                    "ticks": 22800,
                    "time": 21.305536,
                    "velocity": 0.6692913385826772
                },
                {
                    "duration": 0.21018497500000421,
                    "durationTicks": 227,
                    "midi": 69,
                    "name": "A4",
                    "ticks": 23040,
                    "time": 21.527758,
                    "velocity": 0.5905511811023622
                },
                {
                    "duration": 0.21018497500000066,
                    "durationTicks": 227,
                    "midi": 71,
                    "name": "B4",
                    "ticks": 23280,
                    "time": 21.74998,
                    "velocity": 0.5433070866141733
                },
                {
                    "duration": 0.21018497500000066,
                    "durationTicks": 227,
                    "midi": 64,
                    "name": "E4",
                    "ticks": 23280,
                    "time": 21.74998,
                    "velocity": 0.7007874015748031
                },
                {
                    "duration": 0.21018497500000066,
                    "durationTicks": 227,
                    "midi": 72,
                    "name": "C5",
                    "ticks": 23520,
                    "time": 21.972202,
                    "velocity": 0.6220472440944882
                },
                {
                    "duration": 0.22129607500000148,
                    "durationTicks": 239,
                    "midi": 72,
                    "name": "C5",
                    "ticks": 23520,
                    "time": 21.972202,
                    "velocity": 0.7637795275590551
                },
                {
                    "duration": 0.21018497500000066,
                    "durationTicks": 227,
                    "midi": 69,
                    "name": "A4",
                    "ticks": 23760,
                    "time": 22.194424,
                    "velocity": 0.5275590551181102
                },
                {
                    "duration": 0.21018497500000066,
                    "durationTicks": 227,
                    "midi": 71,
                    "name": "B4",
                    "ticks": 24000,
                    "time": 22.416646,
                    "velocity": 0.5433070866141733
                },
                {
                    "duration": 0.21018497500000066,
                    "durationTicks": 227,
                    "midi": 64,
                    "name": "E4",
                    "ticks": 24000,
                    "time": 22.416646,
                    "velocity": 0.6850393700787402
                },
                {
                    "duration": 0.21018497500000421,
                    "durationTicks": 227,
                    "midi": 72,
                    "name": "C5",
                    "ticks": 24240,
                    "time": 22.638868,
                    "velocity": 0.5748031496062992
                },
                {
                    "duration": 0.21018497500000421,
                    "durationTicks": 227,
                    "midi": 72,
                    "name": "C5",
                    "ticks": 24240,
                    "time": 22.638868,
                    "velocity": 0.7401574803149606
                },
                {
                    "duration": 0.21018497500000066,
                    "durationTicks": 227,
                    "midi": 69,
                    "name": "A4",
                    "ticks": 24480,
                    "time": 22.86109,
                    "velocity": 0.5354330708661418
                },
                {
                    "duration": 0.21018497500000066,
                    "durationTicks": 227,
                    "midi": 64,
                    "name": "E4",
                    "ticks": 24720,
                    "time": 23.083312,
                    "velocity": 0.5433070866141733
                },
                {
                    "duration": 0.21018497500000066,
                    "durationTicks": 227,
                    "midi": 76,
                    "name": "E5",
                    "ticks": 24720,
                    "time": 23.083312,
                    "velocity": 0.5433070866141733
                },
                {
                    "duration": 0.21018497500000066,
                    "durationTicks": 227,
                    "midi": 64,
                    "name": "E4",
                    "ticks": 24720,
                    "time": 23.083312,
                    "velocity": 0.6929133858267716
                },
                {
                    "duration": 0.42129587499999843,
                    "durationTicks": 455,
                    "midi": 64,
                    "name": "E4",
                    "ticks": 24960,
                    "time": 23.305534,
                    "velocity": 0.5511811023622047
                },
                {
                    "duration": 0.42129587499999843,
                    "durationTicks": 455,
                    "midi": 72,
                    "name": "C5",
                    "ticks": 24960,
                    "time": 23.305534,
                    "velocity": 0.5511811023622047
                },
                {
                    "duration": 0.42129587499999843,
                    "durationTicks": 455,
                    "midi": 76,
                    "name": "E5",
                    "ticks": 24960,
                    "time": 23.305534,
                    "velocity": 0.5511811023622047
                },
                {
                    "duration": 0.21018497500000066,
                    "durationTicks": 227,
                    "midi": 60,
                    "name": "C4",
                    "ticks": 25200,
                    "time": 23.527756,
                    "velocity": 0.6220472440944882
                },
                {
                    "duration": 0.21018497500000421,
                    "durationTicks": 227,
                    "midi": 64,
                    "name": "E4",
                    "ticks": 25440,
                    "time": 23.749978,
                    "velocity": 0.6299212598425197
                },
                {
                    "duration": 0.21018497500000421,
                    "durationTicks": 227,
                    "midi": 76,
                    "name": "E5",
                    "ticks": 25440,
                    "time": 23.749978,
                    "velocity": 0.6299212598425197
                },
                {
                    "duration": 0.21018497500000421,
                    "durationTicks": 227,
                    "midi": 69,
                    "name": "A4",
                    "ticks": 25440,
                    "time": 23.749978,
                    "velocity": 0.7244094488188977
                },
                {
                    "duration": 0.42129587499999843,
                    "durationTicks": 455,
                    "midi": 64,
                    "name": "E4",
                    "ticks": 25680,
                    "time": 23.9722,
                    "velocity": 0.6220472440944882
                },
                {
                    "duration": 0.42129587499999843,
                    "durationTicks": 455,
                    "midi": 72,
                    "name": "C5",
                    "ticks": 25680,
                    "time": 23.9722,
                    "velocity": 0.6220472440944882
                },
                {
                    "duration": 0.42129587499999843,
                    "durationTicks": 455,
                    "midi": 76,
                    "name": "E5",
                    "ticks": 25680,
                    "time": 23.9722,
                    "velocity": 0.6220472440944882
                },
                {
                    "duration": 0.21018497500000066,
                    "durationTicks": 227,
                    "midi": 60,
                    "name": "C4",
                    "ticks": 25920,
                    "time": 24.194422,
                    "velocity": 0.6377952755905512
                },
                {
                    "duration": 0.21018497500000066,
                    "durationTicks": 227,
                    "midi": 76,
                    "name": "E5",
                    "ticks": 26160,
                    "time": 24.416644,
                    "velocity": 0.7637795275590551
                },
                {
                    "duration": 0.21018497500000066,
                    "durationTicks": 227,
                    "midi": 88,
                    "name": "E6",
                    "ticks": 26160,
                    "time": 24.416644,
                    "velocity": 0.7637795275590551
                },
                {
                    "duration": 0.21018497500000066,
                    "durationTicks": 227,
                    "midi": 69,
                    "name": "A4",
                    "ticks": 26160,
                    "time": 24.416644,
                    "velocity": 0.7401574803149606
                },
                {
                    "duration": 0.8435176750000011,
                    "durationTicks": 911,
                    "midi": 76,
                    "name": "E5",
                    "ticks": 26400,
                    "time": 24.638866,
                    "velocity": 0.6220472440944882
                },
                {
                    "duration": 1.6879612749999993,
                    "durationTicks": 1823,
                    "midi": 84,
                    "name": "C6",
                    "ticks": 26400,
                    "time": 24.638866,
                    "velocity": 0.6220472440944882
                },
                {
                    "duration": 1.6879612749999993,
                    "durationTicks": 1823,
                    "midi": 88,
                    "name": "E6",
                    "ticks": 26400,
                    "time": 24.638866,
                    "velocity": 0.6220472440944882
                },
                {
                    "duration": 0.21018497500000421,
                    "durationTicks": 227,
                    "midi": 60,
                    "name": "C4",
                    "ticks": 26640,
                    "time": 24.861088,
                    "velocity": 0.6535433070866141
                },
                {
                    "duration": 0.21018497500000066,
                    "durationTicks": 227,
                    "midi": 67,
                    "name": "G4",
                    "ticks": 26880,
                    "time": 25.08331,
                    "velocity": 0.5196850393700787
                },
                {
                    "duration": 0.21018497500000066,
                    "durationTicks": 227,
                    "midi": 74,
                    "name": "D5",
                    "ticks": 27120,
                    "time": 25.305532,
                    "velocity": 0.6850393700787402
                },
                {
                    "duration": 0.21018497500000066,
                    "durationTicks": 227,
                    "midi": 64,
                    "name": "E4",
                    "ticks": 27120,
                    "time": 25.305532,
                    "velocity": 0.7086614173228346
                },
                {
                    "duration": 0.6666659999999993,
                    "durationTicks": 720,
                    "midi": 76,
                    "name": "E5",
                    "ticks": 27360,
                    "time": 25.527754,
                    "velocity": 0.6141732283464567
                },
                {
                    "duration": 0.21018497500000066,
                    "durationTicks": 227,
                    "midi": 72,
                    "name": "C5",
                    "ticks": 27360,
                    "time": 25.527754,
                    "velocity": 0.7007874015748031
                },
                {
                    "duration": 0.21018497500000066,
                    "durationTicks": 227,
                    "midi": 67,
                    "name": "G4",
                    "ticks": 27600,
                    "time": 25.749976,
                    "velocity": 0.4566929133858268
                },
                {
                    "duration": 0.21018497500000421,
                    "durationTicks": 227,
                    "midi": 74,
                    "name": "D5",
                    "ticks": 27840,
                    "time": 25.972198,
                    "velocity": 0.6614173228346457
                },
                {
                    "duration": 0.21018497500000421,
                    "durationTicks": 227,
                    "midi": 64,
                    "name": "E4",
                    "ticks": 27840,
                    "time": 25.972198,
                    "velocity": 0.7007874015748031
                },
                {
                    "duration": 0.21018497500000066,
                    "durationTicks": 227,
                    "midi": 76,
                    "name": "E5",
                    "ticks": 28080,
                    "time": 26.19442,
                    "velocity": 0.6692913385826772
                },
                {
                    "duration": 0.21018497500000066,
                    "durationTicks": 227,
                    "midi": 72,
                    "name": "C5",
                    "ticks": 28080,
                    "time": 26.19442,
                    "velocity": 0.7322834645669292
                },
                {
                    "duration": 0.21018497500000066,
                    "durationTicks": 227,
                    "midi": 67,
                    "name": "G4",
                    "ticks": 28320,
                    "time": 26.416642,
                    "velocity": 0.4881889763779528
                },
                {
                    "duration": 0.21018497500000066,
                    "durationTicks": 227,
                    "midi": 72,
                    "name": "C5",
                    "ticks": 28560,
                    "time": 26.638864,
                    "velocity": 0.5118110236220472
                },
                {
                    "duration": 0.21018497500000066,
                    "durationTicks": 227,
                    "midi": 84,
                    "name": "C6",
                    "ticks": 28560,
                    "time": 26.638864,
                    "velocity": 0.5118110236220472
                },
                {
                    "duration": 0.21018497500000066,
                    "durationTicks": 227,
                    "midi": 64,
                    "name": "E4",
                    "ticks": 28560,
                    "time": 26.638864,
                    "velocity": 0.7007874015748031
                },
                {
                    "duration": 0.42129587499999843,
                    "durationTicks": 455,
                    "midi": 71,
                    "name": "B4",
                    "ticks": 28800,
                    "time": 26.861086,
                    "velocity": 0.5748031496062992
                },
                {
                    "duration": 0.42129587499999843,
                    "durationTicks": 455,
                    "midi": 74,
                    "name": "D5",
                    "ticks": 28800,
                    "time": 26.861086,
                    "velocity": 0.5748031496062992
                },
                {
                    "duration": 0.42129587499999843,
                    "durationTicks": 455,
                    "midi": 83,
                    "name": "B5",
                    "ticks": 28800,
                    "time": 26.861086,
                    "velocity": 0.5748031496062992
                },
                {
                    "duration": 0.21018497500000066,
                    "durationTicks": 227,
                    "midi": 67,
                    "name": "G4",
                    "ticks": 28800,
                    "time": 26.861086,
                    "velocity": 0.5433070866141733
                },
                {
                    "duration": 0.21018497500000421,
                    "durationTicks": 227,
                    "midi": 62,
                    "name": "D4",
                    "ticks": 29040,
                    "time": 27.083308,
                    "velocity": 0.6850393700787402
                },
                {
                    "duration": 0.21018497500000066,
                    "durationTicks": 227,
                    "midi": 71,
                    "name": "B4",
                    "ticks": 29280,
                    "time": 27.30553,
                    "velocity": 0.5984251968503937
                },
                {
                    "duration": 0.21018497500000066,
                    "durationTicks": 227,
                    "midi": 83,
                    "name": "B5",
                    "ticks": 29280,
                    "time": 27.30553,
                    "velocity": 0.5984251968503937
                },
                {
                    "duration": 0.21018497500000066,
                    "durationTicks": 227,
                    "midi": 71,
                    "name": "B4",
                    "ticks": 29280,
                    "time": 27.30553,
                    "velocity": 0.7244094488188977
                },
                {
                    "duration": 0.42129587499999843,
                    "durationTicks": 455,
                    "midi": 71,
                    "name": "B4",
                    "ticks": 29520,
                    "time": 27.527752,
                    "velocity": 0.6141732283464567
                },
                {
                    "duration": 0.42129587499999843,
                    "durationTicks": 455,
                    "midi": 74,
                    "name": "D5",
                    "ticks": 29520,
                    "time": 27.527752,
                    "velocity": 0.6141732283464567
                },
                {
                    "duration": 0.42129587499999843,
                    "durationTicks": 455,
                    "midi": 83,
                    "name": "B5",
                    "ticks": 29520,
                    "time": 27.527752,
                    "velocity": 0.6141732283464567
                },
                {
                    "duration": 0.21018497500000066,
                    "durationTicks": 227,
                    "midi": 67,
                    "name": "G4",
                    "ticks": 29520,
                    "time": 27.527752,
                    "velocity": 0.5275590551181102
                },
                {
                    "duration": 0.21018497500000066,
                    "durationTicks": 227,
                    "midi": 62,
                    "name": "D4",
                    "ticks": 29760,
                    "time": 27.749974,
                    "velocity": 0.7165354330708661
                },
                {
                    "duration": 0.21018497500000066,
                    "durationTicks": 227,
                    "midi": 72,
                    "name": "C5",
                    "ticks": 30000,
                    "time": 27.972196,
                    "velocity": 0.6535433070866141
                },
                {
                    "duration": 0.21018497500000066,
                    "durationTicks": 227,
                    "midi": 84,
                    "name": "C6",
                    "ticks": 30000,
                    "time": 27.972196,
                    "velocity": 0.6535433070866141
                },
                {
                    "duration": 0.21018497500000066,
                    "durationTicks": 227,
                    "midi": 71,
                    "name": "B4",
                    "ticks": 30000,
                    "time": 27.972196,
                    "velocity": 0.7559055118110236
                },
                {
                    "duration": 0.421295875000002,
                    "durationTicks": 455,
                    "midi": 72,
                    "name": "C5",
                    "ticks": 30240,
                    "time": 28.194418,
                    "velocity": 0.6141732283464567
                },
                {
                    "duration": 0.421295875000002,
                    "durationTicks": 455,
                    "midi": 84,
                    "name": "C6",
                    "ticks": 30240,
                    "time": 28.194418,
                    "velocity": 0.6141732283464567
                },
                {
                    "duration": 0.21018497500000421,
                    "durationTicks": 227,
                    "midi": 67,
                    "name": "G4",
                    "ticks": 30240,
                    "time": 28.194418,
                    "velocity": 0.5511811023622047
                },
                {
                    "duration": 0.21018497500000066,
                    "durationTicks": 227,
                    "midi": 67,
                    "name": "G4",
                    "ticks": 30480,
                    "time": 28.41664,
                    "velocity": 0.6377952755905512
                },
                {
                    "duration": 0.104629525,
                    "durationTicks": 113,
                    "midi": 69,
                    "name": "A4",
                    "ticks": 30720,
                    "time": 28.638862,
                    "velocity": 0.4330708661417323
                },
                {
                    "duration": 0.33333299999999966,
                    "durationTicks": 360,
                    "midi": 64,
                    "name": "E4",
                    "ticks": 30720,
                    "time": 28.638862,
                    "velocity": 0.4330708661417323
                },
                {
                    "duration": 0.21574052500000107,
                    "durationTicks": 233,
                    "midi": 69,
                    "name": "A4",
                    "ticks": 30720,
                    "time": 28.638862,
                    "velocity": 0.6141732283464567
                },
                {
                    "duration": 0.21574052499999752,
                    "durationTicks": 233,
                    "midi": 69,
                    "name": "A4",
                    "ticks": 30840,
                    "time": 28.749973,
                    "velocity": 0.5905511811023622
                },
                {
                    "duration": 0.11111099999999752,
                    "durationTicks": 120,
                    "midi": 69,
                    "name": "A4",
                    "ticks": 30960,
                    "time": 28.861084,
                    "velocity": 0.6299212598425197
                },
                {
                    "duration": 0.3157404250000013,
                    "durationTicks": 341,
                    "midi": 69,
                    "name": "A4",
                    "ticks": 31080,
                    "time": 28.972195,
                    "velocity": 0.5590551181102362
                },
                {
                    "duration": 0.3157404250000013,
                    "durationTicks": 341,
                    "midi": 64,
                    "name": "E4",
                    "ticks": 31080,
                    "time": 28.972195,
                    "velocity": 0.5590551181102362
                },
                {
                    "duration": 0.21018497500000421,
                    "durationTicks": 227,
                    "midi": 69,
                    "name": "A4",
                    "ticks": 31440,
                    "time": 29.305528,
                    "velocity": 0.6220472440944882
                },
                {
                    "duration": 0.21018497500000421,
                    "durationTicks": 227,
                    "midi": 64,
                    "name": "E4",
                    "ticks": 31440,
                    "time": 29.305528,
                    "velocity": 0.6220472440944882
                },
                {
                    "duration": 0.33333299999999966,
                    "durationTicks": 360,
                    "midi": 69,
                    "name": "A4",
                    "ticks": 31680,
                    "time": 29.52775,
                    "velocity": 0.5984251968503937
                },
                {
                    "duration": 0.31574042499999777,
                    "durationTicks": 341,
                    "midi": 64,
                    "name": "E4",
                    "ticks": 31680,
                    "time": 29.52775,
                    "velocity": 0.5984251968503937
                },
                {
                    "duration": 0.104629525,
                    "durationTicks": 113,
                    "midi": 69,
                    "name": "A4",
                    "ticks": 32040,
                    "time": 29.861083,
                    "velocity": 0.5905511811023622
                },
                {
                    "duration": 0.104629525,
                    "durationTicks": 113,
                    "midi": 64,
                    "name": "E4",
                    "ticks": 32040,
                    "time": 29.861083,
                    "velocity": 0.5905511811023622
                },
                {
                    "duration": 0.5555549999999982,
                    "durationTicks": 600,
                    "midi": 69,
                    "name": "A4",
                    "ticks": 32160,
                    "time": 29.972194000000002,
                    "velocity": 0.6141732283464567
                },
                {
                    "duration": 0.6601845249999982,
                    "durationTicks": 713,
                    "midi": 64,
                    "name": "E4",
                    "ticks": 32160,
                    "time": 29.972194000000002,
                    "velocity": 0.6141732283464567
                },
                {
                    "duration": 0.104629525,
                    "durationTicks": 113,
                    "midi": 76,
                    "name": "E5",
                    "ticks": 32640,
                    "time": 30.416638,
                    "velocity": 0.7716535433070866
                },
                {
                    "duration": 0.11018507500000396,
                    "durationTicks": 119,
                    "midi": 72,
                    "name": "C5",
                    "ticks": 32640,
                    "time": 30.416638,
                    "velocity": 0.7952755905511811
                },
                {
                    "duration": 0.43796252499999966,
                    "durationTicks": 473,
                    "midi": 64,
                    "name": "E4",
                    "ticks": 32760,
                    "time": 30.527749,
                    "velocity": 0.4881889763779528
                },
                {
                    "duration": 0.21574052500000107,
                    "durationTicks": 233,
                    "midi": 69,
                    "name": "A4",
                    "ticks": 32760,
                    "time": 30.527749,
                    "velocity": 0.5905511811023622
                },
                {
                    "duration": 0.2046294249999967,
                    "durationTicks": 221,
                    "midi": 69,
                    "name": "A4",
                    "ticks": 32880,
                    "time": 30.63886,
                    "velocity": 0.6850393700787402
                },
                {
                    "duration": 0.104629525,
                    "durationTicks": 113,
                    "midi": 71,
                    "name": "B4",
                    "ticks": 32880,
                    "time": 30.63886,
                    "velocity": 0.6771653543307087
                },
                {
                    "duration": 0.104629525,
                    "durationTicks": 113,
                    "midi": 74,
                    "name": "D5",
                    "ticks": 33000,
                    "time": 30.749971,
                    "velocity": 0.7007874015748031
                },
                {
                    "duration": 0.104629525,
                    "durationTicks": 113,
                    "midi": 72,
                    "name": "C5",
                    "ticks": 33000,
                    "time": 30.749971,
                    "velocity": 0.6062992125984252
                },
                {
                    "duration": 0.43796252499999966,
                    "durationTicks": 473,
                    "midi": 64,
                    "name": "E4",
                    "ticks": 33120,
                    "time": 30.861082,
                    "velocity": 0.48031496062992124
                },
                {
                    "duration": 0.21574052500000107,
                    "durationTicks": 233,
                    "midi": 69,
                    "name": "A4",
                    "ticks": 33120,
                    "time": 30.861082,
                    "velocity": 0.5826771653543307
                },
                {
                    "duration": 0.2046294249999967,
                    "durationTicks": 221,
                    "midi": 69,
                    "name": "A4",
                    "ticks": 33240,
                    "time": 30.972193,
                    "velocity": 0.6850393700787402
                },
                {
                    "duration": 0.104629525,
                    "durationTicks": 113,
                    "midi": 71,
                    "name": "B4",
                    "ticks": 33240,
                    "time": 30.972193,
                    "velocity": 0.6614173228346457
                },
                {
                    "duration": 0.10462952499999645,
                    "durationTicks": 113,
                    "midi": 72,
                    "name": "C5",
                    "ticks": 33360,
                    "time": 31.083304000000002,
                    "velocity": 0.6535433070866141
                },
                {
                    "duration": 0.11018507500000041,
                    "durationTicks": 119,
                    "midi": 72,
                    "name": "C5",
                    "ticks": 33360,
                    "time": 31.083304000000002,
                    "velocity": 0.6456692913385826
                },
                {
                    "duration": 0.32685152500000214,
                    "durationTicks": 353,
                    "midi": 64,
                    "name": "E4",
                    "ticks": 33480,
                    "time": 31.194415,
                    "velocity": 0.5118110236220472
                },
                {
                    "duration": 0.21018497500000066,
                    "durationTicks": 227,
                    "midi": 69,
                    "name": "A4",
                    "ticks": 33480,
                    "time": 31.194415,
                    "velocity": 0.5669291338582677
                },
                {
                    "duration": 0.104629525,
                    "durationTicks": 113,
                    "midi": 76,
                    "name": "E5",
                    "ticks": 33600,
                    "time": 31.305526,
                    "velocity": 0.7716535433070866
                },
                {
                    "duration": 0.11018507500000041,
                    "durationTicks": 119,
                    "midi": 72,
                    "name": "C5",
                    "ticks": 33600,
                    "time": 31.305526,
                    "velocity": 0.6771653543307087
                },
                {
                    "duration": 0.43796252499999966,
                    "durationTicks": 473,
                    "midi": 64,
                    "name": "E4",
                    "ticks": 33720,
                    "time": 31.416637,
                    "velocity": 0.44881889763779526
                },
                {
                    "duration": 0.21574052499999752,
                    "durationTicks": 233,
                    "midi": 69,
                    "name": "A4",
                    "ticks": 33720,
                    "time": 31.416637,
                    "velocity": 0.5590551181102362
                },
                {
                    "duration": 0.2046294249999967,
                    "durationTicks": 221,
                    "midi": 69,
                    "name": "A4",
                    "ticks": 33840,
                    "time": 31.527748,
                    "velocity": 0.6850393700787402
                },
                {
                    "duration": 0.104629525,
                    "durationTicks": 113,
                    "midi": 71,
                    "name": "B4",
                    "ticks": 33840,
                    "time": 31.527748,
                    "velocity": 0.5905511811023622
                },
                {
                    "duration": 0.104629525,
                    "durationTicks": 113,
                    "midi": 74,
                    "name": "D5",
                    "ticks": 33960,
                    "time": 31.638859,
                    "velocity": 0.7007874015748031
                },
                {
                    "duration": 0.104629525,
                    "durationTicks": 113,
                    "midi": 72,
                    "name": "C5",
                    "ticks": 33960,
                    "time": 31.638859,
                    "velocity": 0.6771653543307087
                },
                {
                    "duration": 0.33240707499999544,
                    "durationTicks": 359,
                    "midi": 64,
                    "name": "E4",
                    "ticks": 34080,
                    "time": 31.74997,
                    "velocity": 0.4645669291338583
                },
                {
                    "duration": 0.21574052499999752,
                    "durationTicks": 233,
                    "midi": 69,
                    "name": "A4",
                    "ticks": 34080,
                    "time": 31.74997,
                    "velocity": 0.5275590551181102
                },
                {
                    "duration": 0.31018487500000447,
                    "durationTicks": 335,
                    "midi": 69,
                    "name": "A4",
                    "ticks": 34200,
                    "time": 31.861081,
                    "velocity": 0.6456692913385826
                },
                {
                    "duration": 0.104629525,
                    "durationTicks": 113,
                    "midi": 71,
                    "name": "B4",
                    "ticks": 34200,
                    "time": 31.861081,
                    "velocity": 0.6299212598425197
                },
                {
                    "duration": 0.2101849749999971,
                    "durationTicks": 227,
                    "midi": 72,
                    "name": "C5",
                    "ticks": 34320,
                    "time": 31.972192,
                    "velocity": 0.6299212598425197
                },
                {
                    "duration": 0.2101849749999971,
                    "durationTicks": 227,
                    "midi": 72,
                    "name": "C5",
                    "ticks": 34320,
                    "time": 31.972192,
                    "velocity": 0.6299212598425197
                },
                {
                    "duration": 0.3157404249999942,
                    "durationTicks": 341,
                    "midi": 60,
                    "name": "C4",
                    "ticks": 34560,
                    "time": 32.194414,
                    "velocity": 0.41732283464566927
                },
                {
                    "duration": 0.104629525,
                    "durationTicks": 113,
                    "midi": 64,
                    "name": "E4",
                    "ticks": 34560,
                    "time": 32.194414,
                    "velocity": 0.41732283464566927
                },
                {
                    "duration": 0.104629525,
                    "durationTicks": 113,
                    "midi": 69,
                    "name": "A4",
                    "ticks": 34560,
                    "time": 32.194414,
                    "velocity": 0.41732283464566927
                },
                {
                    "duration": 0.21574052499999397,
                    "durationTicks": 233,
                    "midi": 64,
                    "name": "E4",
                    "ticks": 34560,
                    "time": 32.194414,
                    "velocity": 0.5984251968503937
                },
                {
                    "duration": 0.3157404249999942,
                    "durationTicks": 341,
                    "midi": 69,
                    "name": "A4",
                    "ticks": 34560,
                    "time": 32.194414,
                    "velocity": 0.5984251968503937
                },
                {
                    "duration": 0.20462942499999315,
                    "durationTicks": 221,
                    "midi": 64,
                    "name": "E4",
                    "ticks": 34680,
                    "time": 32.305525,
                    "velocity": 0.5748031496062992
                },
                {
                    "duration": 0.11018507500000396,
                    "durationTicks": 119,
                    "midi": 64,
                    "name": "E4",
                    "ticks": 34800,
                    "time": 32.416636,
                    "velocity": 0.6141732283464567
                },
                {
                    "duration": 0.3157404249999871,
                    "durationTicks": 341,
                    "midi": 69,
                    "name": "A4",
                    "ticks": 34920,
                    "time": 32.527747000000005,
                    "velocity": 0.5590551181102362
                },
                {
                    "duration": 0.3157404249999871,
                    "durationTicks": 341,
                    "midi": 71,
                    "name": "B4",
                    "ticks": 34920,
                    "time": 32.527747000000005,
                    "velocity": 0.5590551181102362
                },
                {
                    "duration": 0.3157404249999871,
                    "durationTicks": 341,
                    "midi": 60,
                    "name": "C4",
                    "ticks": 34920,
                    "time": 32.527747000000005,
                    "velocity": 0.5590551181102362
                },
                {
                    "duration": 0.21574052499999397,
                    "durationTicks": 233,
                    "midi": 64,
                    "name": "E4",
                    "ticks": 34920,
                    "time": 32.527747000000005,
                    "velocity": 0.5590551181102362
                },
                {
                    "duration": 0.20462942499999315,
                    "durationTicks": 221,
                    "midi": 64,
                    "name": "E4",
                    "ticks": 35040,
                    "time": 32.638858,
                    "velocity": 0.5196850393700787
                },
                {
                    "duration": 0.11018507499999686,
                    "durationTicks": 119,
                    "midi": 64,
                    "name": "E4",
                    "ticks": 35160,
                    "time": 32.749969,
                    "velocity": 0.5826771653543307
                },
                {
                    "duration": 0.2101849749999971,
                    "durationTicks": 227,
                    "midi": 69,
                    "name": "A4",
                    "ticks": 35280,
                    "time": 32.86108,
                    "velocity": 0.5905511811023622
                },
                {
                    "duration": 0.2101849749999971,
                    "durationTicks": 227,
                    "midi": 71,
                    "name": "B4",
                    "ticks": 35280,
                    "time": 32.86108,
                    "velocity": 0.5905511811023622
                },
                {
                    "duration": 0.2101849749999971,
                    "durationTicks": 227,
                    "midi": 60,
                    "name": "C4",
                    "ticks": 35280,
                    "time": 32.86108,
                    "velocity": 0.5905511811023622
                },
                {
                    "duration": 0.2101849749999971,
                    "durationTicks": 227,
                    "midi": 64,
                    "name": "E4",
                    "ticks": 35280,
                    "time": 32.86108,
                    "velocity": 0.5905511811023622
                },
                {
                    "duration": 0.1046295250000071,
                    "durationTicks": 113,
                    "midi": 64,
                    "name": "E4",
                    "ticks": 35400,
                    "time": 32.972190999999995,
                    "velocity": 0.5590551181102362
                },
                {
                    "duration": 0.3333329999999961,
                    "durationTicks": 360,
                    "midi": 69,
                    "name": "A4",
                    "ticks": 35520,
                    "time": 33.083302,
                    "velocity": 0.5984251968503937
                },
                {
                    "duration": 0.3333329999999961,
                    "durationTicks": 360,
                    "midi": 71,
                    "name": "B4",
                    "ticks": 35520,
                    "time": 33.083302,
                    "velocity": 0.5984251968503937
                },
                {
                    "duration": 0.3333329999999961,
                    "durationTicks": 360,
                    "midi": 60,
                    "name": "C4",
                    "ticks": 35520,
                    "time": 33.083302,
                    "velocity": 0.5984251968503937
                },
                {
                    "duration": 0.21574052500000107,
                    "durationTicks": 233,
                    "midi": 64,
                    "name": "E4",
                    "ticks": 35520,
                    "time": 33.083302,
                    "velocity": 0.5984251968503937
                },
                {
                    "duration": 0.21574052500000107,
                    "durationTicks": 233,
                    "midi": 64,
                    "name": "E4",
                    "ticks": 35640,
                    "time": 33.194413,
                    "velocity": 0.5275590551181102
                },
                {
                    "duration": 0.11111099999999396,
                    "durationTicks": 120,
                    "midi": 64,
                    "name": "E4",
                    "ticks": 35760,
                    "time": 33.305524000000005,
                    "velocity": 0.5826771653543307
                },
                {
                    "duration": 0.104629525,
                    "durationTicks": 113,
                    "midi": 69,
                    "name": "A4",
                    "ticks": 35880,
                    "time": 33.416635,
                    "velocity": 0.5984251968503937
                },
                {
                    "duration": 0.104629525,
                    "durationTicks": 113,
                    "midi": 71,
                    "name": "B4",
                    "ticks": 35880,
                    "time": 33.416635,
                    "velocity": 0.5984251968503937
                },
                {
                    "duration": 0.104629525,
                    "durationTicks": 113,
                    "midi": 60,
                    "name": "C4",
                    "ticks": 35880,
                    "time": 33.416635,
                    "velocity": 0.5984251968503937
                },
                {
                    "duration": 0.104629525,
                    "durationTicks": 113,
                    "midi": 64,
                    "name": "E4",
                    "ticks": 35880,
                    "time": 33.416635,
                    "velocity": 0.5984251968503937
                },
                {
                    "duration": 0.42129587500000554,
                    "durationTicks": 455,
                    "midi": 69,
                    "name": "A4",
                    "ticks": 36000,
                    "time": 33.527746,
                    "velocity": 0.6141732283464567
                },
                {
                    "duration": 0.42129587500000554,
                    "durationTicks": 455,
                    "midi": 71,
                    "name": "B4",
                    "ticks": 36000,
                    "time": 33.527746,
                    "velocity": 0.6141732283464567
                },
                {
                    "duration": 0.42129587500000554,
                    "durationTicks": 455,
                    "midi": 60,
                    "name": "C4",
                    "ticks": 36000,
                    "time": 33.527746,
                    "velocity": 0.6141732283464567
                },
                {
                    "duration": 0.21574052500000107,
                    "durationTicks": 233,
                    "midi": 64,
                    "name": "E4",
                    "ticks": 36000,
                    "time": 33.527746,
                    "velocity": 0.6141732283464567
                },
                {
                    "duration": 0.31018487500000447,
                    "durationTicks": 335,
                    "midi": 64,
                    "name": "E4",
                    "ticks": 36120,
                    "time": 33.638857,
                    "velocity": 0.5669291338582677
                },
                {
                    "duration": 0.21018497500000421,
                    "durationTicks": 227,
                    "midi": 64,
                    "name": "E4",
                    "ticks": 36240,
                    "time": 33.749967999999996,
                    "velocity": 0.6299212598425197
                },
                {
                    "duration": 0.11018507500000396,
                    "durationTicks": 119,
                    "midi": 64,
                    "name": "E4",
                    "ticks": 36480,
                    "time": 33.97219,
                    "velocity": 0.7795275590551181
                },
                {
                    "duration": 0.11018507500000396,
                    "durationTicks": 119,
                    "midi": 76,
                    "name": "E5",
                    "ticks": 36480,
                    "time": 33.97219,
                    "velocity": 0.7795275590551181
                },
                {
                    "duration": 0.5490735250000043,
                    "durationTicks": 593,
                    "midi": 69,
                    "name": "A4",
                    "ticks": 36480,
                    "time": 33.97219,
                    "velocity": 0.5275590551181102
                },
                {
                    "duration": 0.16574057500000094,
                    "durationTicks": 179,
                    "midi": 72,
                    "name": "C5",
                    "ticks": 36600,
                    "time": 34.083301,
                    "velocity": 0.8267716535433071
                },
                {
                    "duration": 0.16574057500000094,
                    "durationTicks": 179,
                    "midi": 84,
                    "name": "C6",
                    "ticks": 36600,
                    "time": 34.083301,
                    "velocity": 0.8267716535433071
                },
                {
                    "duration": 0.104629525,
                    "durationTicks": 113,
                    "midi": 64,
                    "name": "E4",
                    "ticks": 36840,
                    "time": 34.305523,
                    "velocity": 0.4881889763779528
                },
                {
                    "duration": 0.104629525,
                    "durationTicks": 113,
                    "midi": 76,
                    "name": "E5",
                    "ticks": 36840,
                    "time": 34.305523,
                    "velocity": 0.4881889763779528
                },
                {
                    "duration": 0.3157404249999942,
                    "durationTicks": 341,
                    "midi": 72,
                    "name": "C5",
                    "ticks": 36840,
                    "time": 34.305523,
                    "velocity": 0.7952755905511811
                },
                {
                    "duration": 0.3157404249999942,
                    "durationTicks": 341,
                    "midi": 76,
                    "name": "E5",
                    "ticks": 36840,
                    "time": 34.305523,
                    "velocity": 0.7952755905511811
                },
                {
                    "duration": 0.21574052500000107,
                    "durationTicks": 233,
                    "midi": 81,
                    "name": "A5",
                    "ticks": 36840,
                    "time": 34.305523,
                    "velocity": 0.7952755905511811
                },
                {
                    "duration": 0.18796277499999547,
                    "durationTicks": 203,
                    "midi": 69,
                    "name": "A4",
                    "ticks": 36960,
                    "time": 34.416634,
                    "velocity": 0.7401574803149606
                },
                {
                    "duration": 0.20462942499999315,
                    "durationTicks": 221,
                    "midi": 81,
                    "name": "A5",
                    "ticks": 36960,
                    "time": 34.416634,
                    "velocity": 0.7401574803149606
                },
                {
                    "duration": 0.104629525,
                    "durationTicks": 113,
                    "midi": 76,
                    "name": "E5",
                    "ticks": 37080,
                    "time": 34.527745,
                    "velocity": 0.5511811023622047
                },
                {
                    "duration": 0.104629525,
                    "durationTicks": 113,
                    "midi": 72,
                    "name": "C5",
                    "ticks": 37200,
                    "time": 34.638856,
                    "velocity": 0.5275590551181102
                },
                {
                    "duration": 0.21018497500000421,
                    "durationTicks": 227,
                    "midi": 69,
                    "name": "A4",
                    "ticks": 37200,
                    "time": 34.638856,
                    "velocity": 0.5196850393700787
                },
                {
                    "duration": 0.104629525,
                    "durationTicks": 113,
                    "midi": 69,
                    "name": "A4",
                    "ticks": 37320,
                    "time": 34.749967,
                    "velocity": 0.5433070866141733
                },
                {
                    "duration": 0.104629525,
                    "durationTicks": 113,
                    "midi": 64,
                    "name": "E4",
                    "ticks": 37320,
                    "time": 34.749967,
                    "velocity": 0.6771653543307087
                },
                {
                    "duration": 0.104629525,
                    "durationTicks": 113,
                    "midi": 69,
                    "name": "A4",
                    "ticks": 37320,
                    "time": 34.749967,
                    "velocity": 0.6771653543307087
                },
                {
                    "duration": 0.11111100000000107,
                    "durationTicks": 120,
                    "midi": 67,
                    "name": "G4",
                    "ticks": 37440,
                    "time": 34.861078,
                    "velocity": 0.6299212598425197
                },
                {
                    "duration": 0.32685152500000214,
                    "durationTicks": 353,
                    "midi": 67,
                    "name": "G4",
                    "ticks": 37560,
                    "time": 34.972189,
                    "velocity": 0.6141732283464567
                },
                {
                    "duration": 0.2101849749999971,
                    "durationTicks": 227,
                    "midi": 64,
                    "name": "E4",
                    "ticks": 37680,
                    "time": 35.0833,
                    "velocity": 0.5669291338582677
                },
                {
                    "duration": 0.2101849749999971,
                    "durationTicks": 227,
                    "midi": 76,
                    "name": "E5",
                    "ticks": 37680,
                    "time": 35.0833,
                    "velocity": 0.5669291338582677
                },
                {
                    "duration": 0.2101849749999971,
                    "durationTicks": 227,
                    "midi": 84,
                    "name": "C6",
                    "ticks": 37680,
                    "time": 35.0833,
                    "velocity": 0.5669291338582677
                },
                {
                    "duration": 0.32685152499999504,
                    "durationTicks": 353,
                    "midi": 67,
                    "name": "G4",
                    "ticks": 37800,
                    "time": 35.194411,
                    "velocity": 0.5354330708661418
                },
                {
                    "duration": 0.2101849749999971,
                    "durationTicks": 227,
                    "midi": 60,
                    "name": "C4",
                    "ticks": 37920,
                    "time": 35.305522,
                    "velocity": 0.5905511811023622
                },
                {
                    "duration": 0.2101849749999971,
                    "durationTicks": 227,
                    "midi": 62,
                    "name": "D4",
                    "ticks": 37920,
                    "time": 35.305522,
                    "velocity": 0.5905511811023622
                },
                {
                    "duration": 0.104629525,
                    "durationTicks": 113,
                    "midi": 74,
                    "name": "D5",
                    "ticks": 37920,
                    "time": 35.305522,
                    "velocity": 0.5905511811023622
                },
                {
                    "duration": 0.18796277500000258,
                    "durationTicks": 203,
                    "midi": 67,
                    "name": "G4",
                    "ticks": 38040,
                    "time": 35.416633,
                    "velocity": 0.5511811023622047
                },
                {
                    "duration": 0.2101849749999971,
                    "durationTicks": 227,
                    "midi": 60,
                    "name": "C4",
                    "ticks": 38160,
                    "time": 35.527744,
                    "velocity": 0.6614173228346457
                },
                {
                    "duration": 0.2101849749999971,
                    "durationTicks": 227,
                    "midi": 64,
                    "name": "E4",
                    "ticks": 38160,
                    "time": 35.527744,
                    "velocity": 0.6614173228346457
                },
                {
                    "duration": 0.2101849749999971,
                    "durationTicks": 227,
                    "midi": 76,
                    "name": "E5",
                    "ticks": 38160,
                    "time": 35.527744,
                    "velocity": 0.6614173228346457
                },
                {
                    "duration": 0.11018507500000396,
                    "durationTicks": 119,
                    "midi": 64,
                    "name": "E4",
                    "ticks": 38400,
                    "time": 35.749966,
                    "velocity": 0.7874015748031497
                },
                {
                    "duration": 0.11018507500000396,
                    "durationTicks": 119,
                    "midi": 76,
                    "name": "E5",
                    "ticks": 38400,
                    "time": 35.749966,
                    "velocity": 0.7874015748031497
                },
                {
                    "duration": 0.6324067749999998,
                    "durationTicks": 683,
                    "midi": 65,
                    "name": "F4",
                    "ticks": 38400,
                    "time": 35.749966,
                    "velocity": 0.5748031496062992
                },
                {
                    "duration": 0.7777770000000004,
                    "durationTicks": 840,
                    "midi": 65,
                    "name": "F4",
                    "ticks": 38400,
                    "time": 35.749966,
                    "velocity": 0.5748031496062992
                },
                {
                    "duration": 0.16574057500000094,
                    "durationTicks": 179,
                    "midi": 72,
                    "name": "C5",
                    "ticks": 38520,
                    "time": 35.861077,
                    "velocity": 0.8661417322834646
                },
                {
                    "duration": 0.16574057500000094,
                    "durationTicks": 179,
                    "midi": 84,
                    "name": "C6",
                    "ticks": 38520,
                    "time": 35.861077,
                    "velocity": 0.8661417322834646
                },
                {
                    "duration": 0.1046295249999929,
                    "durationTicks": 113,
                    "midi": 64,
                    "name": "E4",
                    "ticks": 38760,
                    "time": 36.083299000000004,
                    "velocity": 0.49606299212598426
                },
                {
                    "duration": 0.1046295249999929,
                    "durationTicks": 113,
                    "midi": 76,
                    "name": "E5",
                    "ticks": 38760,
                    "time": 36.083299000000004,
                    "velocity": 0.49606299212598426
                },
                {
                    "duration": 0.3157404249999942,
                    "durationTicks": 341,
                    "midi": 72,
                    "name": "C5",
                    "ticks": 38760,
                    "time": 36.083299000000004,
                    "velocity": 0.7559055118110236
                },
                {
                    "duration": 0.3157404249999942,
                    "durationTicks": 341,
                    "midi": 77,
                    "name": "F5",
                    "ticks": 38760,
                    "time": 36.083299000000004,
                    "velocity": 0.7559055118110236
                },
                {
                    "duration": 0.21574052499999397,
                    "durationTicks": 233,
                    "midi": 81,
                    "name": "A5",
                    "ticks": 38760,
                    "time": 36.083299000000004,
                    "velocity": 0.7559055118110236
                },
                {
                    "duration": 0.104629525,
                    "durationTicks": 113,
                    "midi": 69,
                    "name": "A4",
                    "ticks": 38880,
                    "time": 36.19441,
                    "velocity": 0.7165354330708661
                },
                {
                    "duration": 0.20462942500000025,
                    "durationTicks": 221,
                    "midi": 81,
                    "name": "A5",
                    "ticks": 38880,
                    "time": 36.19441,
                    "velocity": 0.7165354330708661
                },
                {
                    "duration": 0.104629525,
                    "durationTicks": 113,
                    "midi": 76,
                    "name": "E5",
                    "ticks": 39000,
                    "time": 36.305521,
                    "velocity": 0.5275590551181102
                },
                {
                    "duration": 0.104629525,
                    "durationTicks": 113,
                    "midi": 72,
                    "name": "C5",
                    "ticks": 39120,
                    "time": 36.416632,
                    "velocity": 0.47244094488188976
                },
                {
                    "duration": 0.2101849749999971,
                    "durationTicks": 227,
                    "midi": 65,
                    "name": "F4",
                    "ticks": 39120,
                    "time": 36.416632,
                    "velocity": 0.5196850393700787
                },
                {
                    "duration": 0.104629525,
                    "durationTicks": 113,
                    "midi": 69,
                    "name": "A4",
                    "ticks": 39240,
                    "time": 36.527743,
                    "velocity": 0.5590551181102362
                },
                {
                    "duration": 0.104629525,
                    "durationTicks": 113,
                    "midi": 60,
                    "name": "C4",
                    "ticks": 39240,
                    "time": 36.527743,
                    "velocity": 0.6850393700787402
                },
                {
                    "duration": 0.104629525,
                    "durationTicks": 113,
                    "midi": 65,
                    "name": "F4",
                    "ticks": 39240,
                    "time": 36.527743,
                    "velocity": 0.6850393700787402
                },
                {
                    "duration": 0.11018507499999686,
                    "durationTicks": 119,
                    "midi": 64,
                    "name": "E4",
                    "ticks": 39360,
                    "time": 36.638854,
                    "velocity": 0.5511811023622047
                },
                {
                    "duration": 0.3212959749999982,
                    "durationTicks": 347,
                    "midi": 64,
                    "name": "E4",
                    "ticks": 39480,
                    "time": 36.749965,
                    "velocity": 0.5984251968503937
                },
                {
                    "duration": 0.21018497500000421,
                    "durationTicks": 227,
                    "midi": 60,
                    "name": "C4",
                    "ticks": 39600,
                    "time": 36.861076,
                    "velocity": 0.5196850393700787
                },
                {
                    "duration": 0.5212957750000058,
                    "durationTicks": 563,
                    "midi": 64,
                    "name": "E4",
                    "ticks": 39600,
                    "time": 36.861076,
                    "velocity": 0.5196850393700787
                },
                {
                    "duration": 0.104629525,
                    "durationTicks": 113,
                    "midi": 76,
                    "name": "E5",
                    "ticks": 39600,
                    "time": 36.861076,
                    "velocity": 0.5196850393700787
                },
                {
                    "duration": 0.104629525,
                    "durationTicks": 113,
                    "midi": 71,
                    "name": "B4",
                    "ticks": 39720,
                    "time": 36.972187,
                    "velocity": 0.5669291338582677
                },
                {
                    "duration": 0.2101849749999971,
                    "durationTicks": 227,
                    "midi": 72,
                    "name": "C5",
                    "ticks": 39840,
                    "time": 37.083298,
                    "velocity": 0.7086614173228346
                },
                {
                    "duration": 0.22129607500000503,
                    "durationTicks": 239,
                    "midi": 84,
                    "name": "C6",
                    "ticks": 39840,
                    "time": 37.083298,
                    "velocity": 0.7086614173228346
                },
                {
                    "duration": 0.22129607500000503,
                    "durationTicks": 239,
                    "midi": 88,
                    "name": "E6",
                    "ticks": 39840,
                    "time": 37.083298,
                    "velocity": 0.7086614173228346
                },
                {
                    "duration": 0.104629525,
                    "durationTicks": 113,
                    "midi": 71,
                    "name": "B4",
                    "ticks": 39960,
                    "time": 37.194409,
                    "velocity": 0.5275590551181102
                },
                {
                    "duration": 0.2101849749999971,
                    "durationTicks": 227,
                    "midi": 64,
                    "name": "E4",
                    "ticks": 40080,
                    "time": 37.30552,
                    "velocity": 0.5748031496062992
                },
                {
                    "duration": 0.2101849749999971,
                    "durationTicks": 227,
                    "midi": 71,
                    "name": "B4",
                    "ticks": 40080,
                    "time": 37.30552,
                    "velocity": 0.5748031496062992
                },
                {
                    "duration": 0.2101849749999971,
                    "durationTicks": 227,
                    "midi": 83,
                    "name": "B5",
                    "ticks": 40080,
                    "time": 37.30552,
                    "velocity": 0.5748031496062992
                },
                {
                    "duration": 0.11018507499999686,
                    "durationTicks": 119,
                    "midi": 64,
                    "name": "E4",
                    "ticks": 40320,
                    "time": 37.527742,
                    "velocity": 0.7007874015748031
                },
                {
                    "duration": 0.11018507499999686,
                    "durationTicks": 119,
                    "midi": 76,
                    "name": "E5",
                    "ticks": 40320,
                    "time": 37.527742,
                    "velocity": 0.7007874015748031
                },
                {
                    "duration": 0.5490735249999972,
                    "durationTicks": 593,
                    "midi": 69,
                    "name": "A4",
                    "ticks": 40320,
                    "time": 37.527742,
                    "velocity": 0.5590551181102362
                },
                {
                    "duration": 0.16574057500000094,
                    "durationTicks": 179,
                    "midi": 72,
                    "name": "C5",
                    "ticks": 40440,
                    "time": 37.638853,
                    "velocity": 0.7795275590551181
                },
                {
                    "duration": 0.16574057500000094,
                    "durationTicks": 179,
                    "midi": 84,
                    "name": "C6",
                    "ticks": 40440,
                    "time": 37.638853,
                    "velocity": 0.7795275590551181
                },
                {
                    "duration": 0.104629525,
                    "durationTicks": 113,
                    "midi": 64,
                    "name": "E4",
                    "ticks": 40680,
                    "time": 37.861075,
                    "velocity": 0.49606299212598426
                },
                {
                    "duration": 0.104629525,
                    "durationTicks": 113,
                    "midi": 76,
                    "name": "E5",
                    "ticks": 40680,
                    "time": 37.861075,
                    "velocity": 0.49606299212598426
                },
                {
                    "duration": 0.3157404250000013,
                    "durationTicks": 341,
                    "midi": 72,
                    "name": "C5",
                    "ticks": 40680,
                    "time": 37.861075,
                    "velocity": 0.7401574803149606
                },
                {
                    "duration": 0.3157404250000013,
                    "durationTicks": 341,
                    "midi": 76,
                    "name": "E5",
                    "ticks": 40680,
                    "time": 37.861075,
                    "velocity": 0.7401574803149606
                },
                {
                    "duration": 0.21574052500000107,
                    "durationTicks": 233,
                    "midi": 81,
                    "name": "A5",
                    "ticks": 40680,
                    "time": 37.861075,
                    "velocity": 0.7401574803149606
                },
                {
                    "duration": 0.18796277500000258,
                    "durationTicks": 203,
                    "midi": 69,
                    "name": "A4",
                    "ticks": 40800,
                    "time": 37.972186,
                    "velocity": 0.7244094488188977
                },
                {
                    "duration": 0.20462942500000025,
                    "durationTicks": 221,
                    "midi": 81,
                    "name": "A5",
                    "ticks": 40800,
                    "time": 37.972186,
                    "velocity": 0.7244094488188977
                },
                {
                    "duration": 0.104629525,
                    "durationTicks": 113,
                    "midi": 76,
                    "name": "E5",
                    "ticks": 40920,
                    "time": 38.083297,
                    "velocity": 0.5354330708661418
                },
                {
                    "duration": 0.104629525,
                    "durationTicks": 113,
                    "midi": 72,
                    "name": "C5",
                    "ticks": 41040,
                    "time": 38.194408,
                    "velocity": 0.5275590551181102
                },
                {
                    "duration": 0.2101849749999971,
                    "durationTicks": 227,
                    "midi": 69,
                    "name": "A4",
                    "ticks": 41040,
                    "time": 38.194408,
                    "velocity": 0.5118110236220472
                },
                {
                    "duration": 0.1046295249999929,
                    "durationTicks": 113,
                    "midi": 69,
                    "name": "A4",
                    "ticks": 41160,
                    "time": 38.305519000000004,
                    "velocity": 0.5669291338582677
                },
                {
                    "duration": 0.1046295249999929,
                    "durationTicks": 113,
                    "midi": 64,
                    "name": "E4",
                    "ticks": 41160,
                    "time": 38.305519000000004,
                    "velocity": 0.6692913385826772
                },
                {
                    "duration": 0.1046295249999929,
                    "durationTicks": 113,
                    "midi": 69,
                    "name": "A4",
                    "ticks": 41160,
                    "time": 38.305519000000004,
                    "velocity": 0.6692913385826772
                },
                {
                    "duration": 0.11111100000000107,
                    "durationTicks": 120,
                    "midi": 67,
                    "name": "G4",
                    "ticks": 41280,
                    "time": 38.41663,
                    "velocity": 0.6614173228346457
                },
                {
                    "duration": 0.32685152500000214,
                    "durationTicks": 353,
                    "midi": 67,
                    "name": "G4",
                    "ticks": 41400,
                    "time": 38.527741,
                    "velocity": 0.6377952755905512
                },
                {
                    "duration": 0.2101849749999971,
                    "durationTicks": 227,
                    "midi": 64,
                    "name": "E4",
                    "ticks": 41520,
                    "time": 38.638852,
                    "velocity": 0.5354330708661418
                },
                {
                    "duration": 0.2101849749999971,
                    "durationTicks": 227,
                    "midi": 76,
                    "name": "E5",
                    "ticks": 41520,
                    "time": 38.638852,
                    "velocity": 0.5354330708661418
                },
                {
                    "duration": 0.2101849749999971,
                    "durationTicks": 227,
                    "midi": 84,
                    "name": "C6",
                    "ticks": 41520,
                    "time": 38.638852,
                    "velocity": 0.5354330708661418
                },
                {
                    "duration": 0.32685152500000214,
                    "durationTicks": 353,
                    "midi": 67,
                    "name": "G4",
                    "ticks": 41640,
                    "time": 38.749963,
                    "velocity": 0.5196850393700787
                },
                {
                    "duration": 0.2101849749999971,
                    "durationTicks": 227,
                    "midi": 60,
                    "name": "C4",
                    "ticks": 41760,
                    "time": 38.861074,
                    "velocity": 0.5511811023622047
                },
                {
                    "duration": 0.2101849749999971,
                    "durationTicks": 227,
                    "midi": 62,
                    "name": "D4",
                    "ticks": 41760,
                    "time": 38.861074,
                    "velocity": 0.5511811023622047
                },
                {
                    "duration": 0.104629525,
                    "durationTicks": 113,
                    "midi": 74,
                    "name": "D5",
                    "ticks": 41760,
                    "time": 38.861074,
                    "velocity": 0.5511811023622047
                },
                {
                    "duration": 0.18796277499999547,
                    "durationTicks": 203,
                    "midi": 67,
                    "name": "G4",
                    "ticks": 41880,
                    "time": 38.972185,
                    "velocity": 0.5354330708661418
                },
                {
                    "duration": 0.21018497500000421,
                    "durationTicks": 227,
                    "midi": 60,
                    "name": "C4",
                    "ticks": 42000,
                    "time": 39.083296,
                    "velocity": 0.6299212598425197
                },
                {
                    "duration": 0.21018497500000421,
                    "durationTicks": 227,
                    "midi": 64,
                    "name": "E4",
                    "ticks": 42000,
                    "time": 39.083296,
                    "velocity": 0.6299212598425197
                },
                {
                    "duration": 0.21018497500000421,
                    "durationTicks": 227,
                    "midi": 76,
                    "name": "E5",
                    "ticks": 42000,
                    "time": 39.083296,
                    "velocity": 0.6299212598425197
                },
                {
                    "duration": 0.11018507500000396,
                    "durationTicks": 119,
                    "midi": 64,
                    "name": "E4",
                    "ticks": 42240,
                    "time": 39.305518,
                    "velocity": 0.7637795275590551
                },
                {
                    "duration": 0.11018507500000396,
                    "durationTicks": 119,
                    "midi": 76,
                    "name": "E5",
                    "ticks": 42240,
                    "time": 39.305518,
                    "velocity": 0.7637795275590551
                },
                {
                    "duration": 0.6324067749999998,
                    "durationTicks": 683,
                    "midi": 65,
                    "name": "F4",
                    "ticks": 42240,
                    "time": 39.305518,
                    "velocity": 0.6062992125984252
                },
                {
                    "duration": 0.7379622249999969,
                    "durationTicks": 797,
                    "midi": 65,
                    "name": "F4",
                    "ticks": 42240,
                    "time": 39.305518,
                    "velocity": 0.6062992125984252
                },
                {
                    "duration": 0.16574057500000094,
                    "durationTicks": 179,
                    "midi": 72,
                    "name": "C5",
                    "ticks": 42360,
                    "time": 39.416629,
                    "velocity": 0.8267716535433071
                },
                {
                    "duration": 0.16574057500000094,
                    "durationTicks": 179,
                    "midi": 84,
                    "name": "C6",
                    "ticks": 42360,
                    "time": 39.416629,
                    "velocity": 0.8267716535433071
                },
                {
                    "duration": 0.104629525,
                    "durationTicks": 113,
                    "midi": 64,
                    "name": "E4",
                    "ticks": 42600,
                    "time": 39.638851,
                    "velocity": 0.5118110236220472
                },
                {
                    "duration": 0.104629525,
                    "durationTicks": 113,
                    "midi": 76,
                    "name": "E5",
                    "ticks": 42600,
                    "time": 39.638851,
                    "velocity": 0.5118110236220472
                },
                {
                    "duration": 0.3157404249999942,
                    "durationTicks": 341,
                    "midi": 72,
                    "name": "C5",
                    "ticks": 42600,
                    "time": 39.638851,
                    "velocity": 0.7244094488188977
                },
                {
                    "duration": 0.3157404249999942,
                    "durationTicks": 341,
                    "midi": 77,
                    "name": "F5",
                    "ticks": 42600,
                    "time": 39.638851,
                    "velocity": 0.7244094488188977
                },
                {
                    "duration": 0.21574052500000107,
                    "durationTicks": 233,
                    "midi": 81,
                    "name": "A5",
                    "ticks": 42600,
                    "time": 39.638851,
                    "velocity": 0.7244094488188977
                },
                {
                    "duration": 0.104629525,
                    "durationTicks": 113,
                    "midi": 69,
                    "name": "A4",
                    "ticks": 42720,
                    "time": 39.749962000000004,
                    "velocity": 0.7086614173228346
                },
                {
                    "duration": 0.20462942499999315,
                    "durationTicks": 221,
                    "midi": 81,
                    "name": "A5",
                    "ticks": 42720,
                    "time": 39.749962000000004,
                    "velocity": 0.7086614173228346
                },
                {
                    "duration": 0.104629525,
                    "durationTicks": 113,
                    "midi": 76,
                    "name": "E5",
                    "ticks": 42840,
                    "time": 39.861073,
                    "velocity": 0.5118110236220472
                },
                {
                    "duration": 0.104629525,
                    "durationTicks": 113,
                    "midi": 72,
                    "name": "C5",
                    "ticks": 42960,
                    "time": 39.972184,
                    "velocity": 0.5275590551181102
                },
                {
                    "duration": 0.2101849749999971,
                    "durationTicks": 227,
                    "midi": 65,
                    "name": "F4",
                    "ticks": 42960,
                    "time": 39.972184,
                    "velocity": 0.5118110236220472
                },
                {
                    "duration": 0.104629525,
                    "durationTicks": 113,
                    "midi": 69,
                    "name": "A4",
                    "ticks": 43080,
                    "time": 40.083295,
                    "velocity": 0.5433070866141733
                },
                {
                    "duration": 0.104629525,
                    "durationTicks": 113,
                    "midi": 60,
                    "name": "C4",
                    "ticks": 43080,
                    "time": 40.083295,
                    "velocity": 0.6850393700787402
                },
                {
                    "duration": 0.104629525,
                    "durationTicks": 113,
                    "midi": 65,
                    "name": "F4",
                    "ticks": 43080,
                    "time": 40.083295,
                    "velocity": 0.6850393700787402
                },
                {
                    "duration": 0.11018507500000396,
                    "durationTicks": 119,
                    "midi": 64,
                    "name": "E4",
                    "ticks": 43200,
                    "time": 40.194406,
                    "velocity": 0.5590551181102362
                },
                {
                    "duration": 0.3212959749999982,
                    "durationTicks": 347,
                    "midi": 64,
                    "name": "E4",
                    "ticks": 43320,
                    "time": 40.305517,
                    "velocity": 0.6299212598425197
                },
                {
                    "duration": 0.2101849749999971,
                    "durationTicks": 227,
                    "midi": 60,
                    "name": "C4",
                    "ticks": 43440,
                    "time": 40.416628,
                    "velocity": 0.49606299212598426
                },
                {
                    "duration": 0.5212957749999987,
                    "durationTicks": 563,
                    "midi": 64,
                    "name": "E4",
                    "ticks": 43440,
                    "time": 40.416628,
                    "velocity": 0.49606299212598426
                },
                {
                    "duration": 0.104629525,
                    "durationTicks": 113,
                    "midi": 76,
                    "name": "E5",
                    "ticks": 43440,
                    "time": 40.416628,
                    "velocity": 0.49606299212598426
                },
                {
                    "duration": 0.1046295249999929,
                    "durationTicks": 113,
                    "midi": 71,
                    "name": "B4",
                    "ticks": 43560,
                    "time": 40.527739000000004,
                    "velocity": 0.5433070866141733
                },
                {
                    "duration": 0.21018497500000421,
                    "durationTicks": 227,
                    "midi": 72,
                    "name": "C5",
                    "ticks": 43680,
                    "time": 40.63885,
                    "velocity": 0.7007874015748031
                },
                {
                    "duration": 0.21018497500000421,
                    "durationTicks": 227,
                    "midi": 84,
                    "name": "C6",
                    "ticks": 43680,
                    "time": 40.63885,
                    "velocity": 0.7007874015748031
                },
                {
                    "duration": 0.21018497500000421,
                    "durationTicks": 227,
                    "midi": 88,
                    "name": "E6",
                    "ticks": 43680,
                    "time": 40.63885,
                    "velocity": 0.7007874015748031
                },
                {
                    "duration": 0.11018507500000396,
                    "durationTicks": 119,
                    "midi": 71,
                    "name": "B4",
                    "ticks": 43800,
                    "time": 40.749961,
                    "velocity": 0.5511811023622047
                },
                {
                    "duration": 0.2101849749999971,
                    "durationTicks": 227,
                    "midi": 71,
                    "name": "B4",
                    "ticks": 43920,
                    "time": 40.861072,
                    "velocity": 0.5826771653543307
                },
                {
                    "duration": 0.2101849749999971,
                    "durationTicks": 227,
                    "midi": 83,
                    "name": "B5",
                    "ticks": 43920,
                    "time": 40.861072,
                    "velocity": 0.5826771653543307
                },
                {
                    "duration": 0.2101849749999971,
                    "durationTicks": 227,
                    "midi": 88,
                    "name": "E6",
                    "ticks": 43920,
                    "time": 40.861072,
                    "velocity": 0.5826771653543307
                },
                {
                    "duration": 0.104629525,
                    "durationTicks": 113,
                    "midi": 64,
                    "name": "E4",
                    "ticks": 44040,
                    "time": 40.972183,
                    "velocity": 0.6535433070866141
                },
                {
                    "duration": 0.42129587499999843,
                    "durationTicks": 455,
                    "midi": 60,
                    "name": "C4",
                    "ticks": 44160,
                    "time": 41.083294,
                    "velocity": 0.4566929133858268
                },
                {
                    "duration": 0.11111100000000107,
                    "durationTicks": 120,
                    "midi": 69,
                    "name": "A4",
                    "ticks": 44160,
                    "time": 41.083294,
                    "velocity": 0.6377952755905512
                },
                {
                    "duration": 0.2101849749999971,
                    "durationTicks": 227,
                    "midi": 69,
                    "name": "A4",
                    "ticks": 44280,
                    "time": 41.194405,
                    "velocity": 0.6062992125984252
                },
                {
                    "duration": 0.104629525,
                    "durationTicks": 113,
                    "midi": 69,
                    "name": "A4",
                    "ticks": 44520,
                    "time": 41.416627,
                    "velocity": 0.5590551181102362
                },
                {
                    "duration": 0.104629525,
                    "durationTicks": 113,
                    "midi": 64,
                    "name": "E4",
                    "ticks": 44520,
                    "time": 41.416627,
                    "velocity": 0.5590551181102362
                },
                {
                    "duration": 0.11018507500000396,
                    "durationTicks": 119,
                    "midi": 69,
                    "name": "A4",
                    "ticks": 44640,
                    "time": 41.527738,
                    "velocity": 0.5748031496062992
                },
                {
                    "duration": 0.2101849749999971,
                    "durationTicks": 227,
                    "midi": 62,
                    "name": "D4",
                    "ticks": 44880,
                    "time": 41.74996,
                    "velocity": 0.5039370078740157
                },
                {
                    "duration": 0.11018507499999686,
                    "durationTicks": 119,
                    "midi": 69,
                    "name": "A4",
                    "ticks": 44880,
                    "time": 41.74996,
                    "velocity": 0.5354330708661418
                },
                {
                    "duration": 0.11018507499999686,
                    "durationTicks": 119,
                    "midi": 64,
                    "name": "E4",
                    "ticks": 44880,
                    "time": 41.74996,
                    "velocity": 0.5354330708661418
                },
                {
                    "duration": 0.3157404249999942,
                    "durationTicks": 341,
                    "midi": 60,
                    "name": "C4",
                    "ticks": 45120,
                    "time": 41.972182000000004,
                    "velocity": 0.5433070866141733
                },
                {
                    "duration": 0.11111099999999396,
                    "durationTicks": 120,
                    "midi": 64,
                    "name": "E4",
                    "ticks": 45120,
                    "time": 41.972182000000004,
                    "velocity": 0.5511811023622047
                },
                {
                    "duration": 0.21018497500000421,
                    "durationTicks": 227,
                    "midi": 69,
                    "name": "A4",
                    "ticks": 45240,
                    "time": 42.083293,
                    "velocity": 0.6141732283464567
                },
                {
                    "duration": 0.104629525,
                    "durationTicks": 113,
                    "midi": 69,
                    "name": "A4",
                    "ticks": 45480,
                    "time": 42.305515,
                    "velocity": 0.5354330708661418
                },
                {
                    "duration": 0.104629525,
                    "durationTicks": 113,
                    "midi": 64,
                    "name": "E4",
                    "ticks": 45480,
                    "time": 42.305515,
                    "velocity": 0.5354330708661418
                },
                {
                    "duration": 0.11018507500000396,
                    "durationTicks": 119,
                    "midi": 69,
                    "name": "A4",
                    "ticks": 45600,
                    "time": 42.416626,
                    "velocity": 0.5826771653543307
                },
                {
                    "duration": 0.2101849749999971,
                    "durationTicks": 227,
                    "midi": 62,
                    "name": "D4",
                    "ticks": 45840,
                    "time": 42.638848,
                    "velocity": 0.5433070866141733
                },
                {
                    "duration": 0.2101849749999971,
                    "durationTicks": 227,
                    "midi": 71,
                    "name": "B4",
                    "ticks": 45840,
                    "time": 42.638848,
                    "velocity": 0.5118110236220472
                },
                {
                    "duration": 0.11018507499999686,
                    "durationTicks": 119,
                    "midi": 69,
                    "name": "A4",
                    "ticks": 45840,
                    "time": 42.638848,
                    "velocity": 0.5433070866141733
                },
                {
                    "duration": 0.11018507499999686,
                    "durationTicks": 119,
                    "midi": 64,
                    "name": "E4",
                    "ticks": 45840,
                    "time": 42.638848,
                    "velocity": 0.5433070866141733
                },
                {
                    "duration": 0.3157404250000013,
                    "durationTicks": 341,
                    "midi": 72,
                    "name": "C5",
                    "ticks": 46080,
                    "time": 42.86107,
                    "velocity": 0.7480314960629921
                },
                {
                    "duration": 0.6324067749999998,
                    "durationTicks": 683,
                    "midi": 60,
                    "name": "C4",
                    "ticks": 46080,
                    "time": 42.86107,
                    "velocity": 0.49606299212598426
                },
                {
                    "duration": 0.6324067749999998,
                    "durationTicks": 683,
                    "midi": 64,
                    "name": "E4",
                    "ticks": 46080,
                    "time": 42.86107,
                    "velocity": 0.49606299212598426
                },
                {
                    "duration": 1.6879612749999993,
                    "durationTicks": 1823,
                    "midi": 64,
                    "name": "E4",
                    "ticks": 46080,
                    "time": 42.86107,
                    "velocity": 0.5354330708661418
                },
                {
                    "duration": 0.3157404249999942,
                    "durationTicks": 341,
                    "midi": 72,
                    "name": "C5",
                    "ticks": 46440,
                    "time": 43.194403,
                    "velocity": 0.5905511811023622
                },
                {
                    "duration": 0.42129587500000554,
                    "durationTicks": 455,
                    "midi": 72,
                    "name": "C5",
                    "ticks": 46800,
                    "time": 43.527736,
                    "velocity": 0.6141732283464567
                },
                {
                    "duration": 0.6324067749999998,
                    "durationTicks": 683,
                    "midi": 72,
                    "name": "C5",
                    "ticks": 46800,
                    "time": 43.527736,
                    "velocity": 0.5433070866141733
                },
                {
                    "duration": 0.42129587500000554,
                    "durationTicks": 455,
                    "midi": 76,
                    "name": "E5",
                    "ticks": 46800,
                    "time": 43.527736,
                    "velocity": 0.5433070866141733
                },
                {
                    "duration": 0.2101849749999971,
                    "durationTicks": 227,
                    "midi": 72,
                    "name": "C5",
                    "ticks": 47520,
                    "time": 44.194402000000004,
                    "velocity": 0.6062992125984252
                },
                {
                    "duration": 0.42129587499999843,
                    "durationTicks": 455,
                    "midi": 72,
                    "name": "C5",
                    "ticks": 47520,
                    "time": 44.194402000000004,
                    "velocity": 0.7086614173228346
                },
                {
                    "duration": 0.42129587499999843,
                    "durationTicks": 455,
                    "midi": 76,
                    "name": "E5",
                    "ticks": 47520,
                    "time": 44.194402000000004,
                    "velocity": 0.7086614173228346
                },
                {
                    "duration": 0.2101849749999971,
                    "durationTicks": 227,
                    "midi": 76,
                    "name": "E5",
                    "ticks": 47760,
                    "time": 44.416624,
                    "velocity": 0.6692913385826772
                },
                {
                    "duration": 0.3157404249999942,
                    "durationTicks": 341,
                    "midi": 76,
                    "name": "E5",
                    "ticks": 48000,
                    "time": 44.638846,
                    "velocity": 0.5984251968503937
                },
                {
                    "duration": 0.6324067749999998,
                    "durationTicks": 683,
                    "midi": 64,
                    "name": "E4",
                    "ticks": 48000,
                    "time": 44.638846,
                    "velocity": 0.7165354330708661
                },
                {
                    "duration": 0.6324067749999998,
                    "durationTicks": 683,
                    "midi": 69,
                    "name": "A4",
                    "ticks": 48000,
                    "time": 44.638846,
                    "velocity": 0.7165354330708661
                },
                {
                    "duration": 1.6879612749999993,
                    "durationTicks": 1823,
                    "midi": 60,
                    "name": "C4",
                    "ticks": 48000,
                    "time": 44.638846,
                    "velocity": 0.5748031496062992
                },
                {
                    "duration": 0.3157404250000013,
                    "durationTicks": 341,
                    "midi": 74,
                    "name": "D5",
                    "ticks": 48360,
                    "time": 44.972179,
                    "velocity": 0.5984251968503937
                },
                {
                    "duration": 0.843517674999994,
                    "durationTicks": 911,
                    "midi": 74,
                    "name": "D5",
                    "ticks": 48720,
                    "time": 45.305512,
                    "velocity": 0.5669291338582677
                },
                {
                    "duration": 0.42129587500000554,
                    "durationTicks": 455,
                    "midi": 72,
                    "name": "C5",
                    "ticks": 48720,
                    "time": 45.305512,
                    "velocity": 0.6141732283464567
                },
                {
                    "duration": 0.42129587500000554,
                    "durationTicks": 455,
                    "midi": 77,
                    "name": "F5",
                    "ticks": 48720,
                    "time": 45.305512,
                    "velocity": 0.6141732283464567
                },
                {
                    "duration": 0.42129587500000554,
                    "durationTicks": 455,
                    "midi": 81,
                    "name": "A5",
                    "ticks": 48720,
                    "time": 45.305512,
                    "velocity": 0.6141732283464567
                },
                {
                    "duration": 0.42129587500000554,
                    "durationTicks": 455,
                    "midi": 60,
                    "name": "C4",
                    "ticks": 49440,
                    "time": 45.972178,
                    "velocity": 0.6771653543307087
                },
                {
                    "duration": 0.42129587500000554,
                    "durationTicks": 455,
                    "midi": 69,
                    "name": "A4",
                    "ticks": 49440,
                    "time": 45.972178,
                    "velocity": 0.6771653543307087
                },
                {
                    "duration": 0.2101849749999971,
                    "durationTicks": 227,
                    "midi": 72,
                    "name": "C5",
                    "ticks": 49680,
                    "time": 46.1944,
                    "velocity": 0.5984251968503937
                },
                {
                    "duration": 0.42129587499999843,
                    "durationTicks": 455,
                    "midi": 74,
                    "name": "D5",
                    "ticks": 49920,
                    "time": 46.416622000000004,
                    "velocity": 0.5984251968503937
                },
                {
                    "duration": 0.6324067749999998,
                    "durationTicks": 683,
                    "midi": 62,
                    "name": "D4",
                    "ticks": 49920,
                    "time": 46.416622000000004,
                    "velocity": 0.7165354330708661
                },
                {
                    "duration": 0.6324067749999998,
                    "durationTicks": 683,
                    "midi": 67,
                    "name": "G4",
                    "ticks": 49920,
                    "time": 46.416622000000004,
                    "velocity": 0.7165354330708661
                },
                {
                    "duration": 1.6879612749999993,
                    "durationTicks": 1823,
                    "midi": 62,
                    "name": "D4",
                    "ticks": 49920,
                    "time": 46.416622000000004,
                    "velocity": 0.6062992125984252
                },
                {
                    "duration": 0.3157404249999942,
                    "durationTicks": 341,
                    "midi": 72,
                    "name": "C5",
                    "ticks": 50280,
                    "time": 46.749955,
                    "velocity": 0.5984251968503937
                },
                {
                    "duration": 0.42129587499999843,
                    "durationTicks": 455,
                    "midi": 72,
                    "name": "C5",
                    "ticks": 50640,
                    "time": 47.083288,
                    "velocity": 0.5984251968503937
                },
                {
                    "duration": 0.42129587499999843,
                    "durationTicks": 455,
                    "midi": 74,
                    "name": "D5",
                    "ticks": 50640,
                    "time": 47.083288,
                    "velocity": 0.5984251968503937
                },
                {
                    "duration": 0.42129587499999843,
                    "durationTicks": 455,
                    "midi": 79,
                    "name": "G5",
                    "ticks": 50640,
                    "time": 47.083288,
                    "velocity": 0.5984251968503937
                },
                {
                    "duration": 0.2101849749999971,
                    "durationTicks": 227,
                    "midi": 67,
                    "name": "G4",
                    "ticks": 51120,
                    "time": 47.527732,
                    "velocity": 0.5511811023622047
                },
                {
                    "duration": 0.42129587500000554,
                    "durationTicks": 455,
                    "midi": 67,
                    "name": "G4",
                    "ticks": 51120,
                    "time": 47.527732,
                    "velocity": 0.4409448818897638
                },
                {
                    "duration": 0.42129587499999843,
                    "durationTicks": 455,
                    "midi": 62,
                    "name": "D4",
                    "ticks": 51360,
                    "time": 47.749954,
                    "velocity": 0.6771653543307087
                },
                {
                    "duration": 0.42129587499999843,
                    "durationTicks": 455,
                    "midi": 72,
                    "name": "C5",
                    "ticks": 51360,
                    "time": 47.749954,
                    "velocity": 0.6771653543307087
                },
                {
                    "duration": 1.476850375000005,
                    "durationTicks": 1595,
                    "midi": 64,
                    "name": "E4",
                    "ticks": 51600,
                    "time": 47.972176,
                    "velocity": 0.5275590551181102
                },
                {
                    "duration": 0.6324067749999998,
                    "durationTicks": 683,
                    "midi": 60,
                    "name": "C4",
                    "ticks": 51840,
                    "time": 48.194398,
                    "velocity": 0.5669291338582677
                },
                {
                    "duration": 0.6324067749999998,
                    "durationTicks": 683,
                    "midi": 67,
                    "name": "G4",
                    "ticks": 51840,
                    "time": 48.194398,
                    "velocity": 0.5669291338582677
                },
                {
                    "duration": 0.6324067749999998,
                    "durationTicks": 683,
                    "midi": 71,
                    "name": "B4",
                    "ticks": 51840,
                    "time": 48.194398,
                    "velocity": 0.5669291338582677
                },
                {
                    "duration": 1.2657394749999966,
                    "durationTicks": 1367,
                    "midi": 60,
                    "name": "C4",
                    "ticks": 51840,
                    "time": 48.194398,
                    "velocity": 0.6141732283464567
                },
                {
                    "duration": 0.6324067749999998,
                    "durationTicks": 683,
                    "midi": 60,
                    "name": "C4",
                    "ticks": 52560,
                    "time": 48.861064,
                    "velocity": 0.6062992125984252
                },
                {
                    "duration": 0.6324067749999998,
                    "durationTicks": 683,
                    "midi": 67,
                    "name": "G4",
                    "ticks": 52560,
                    "time": 48.861064,
                    "velocity": 0.6062992125984252
                },
                {
                    "duration": 0.6324067749999998,
                    "durationTicks": 683,
                    "midi": 71,
                    "name": "B4",
                    "ticks": 52560,
                    "time": 48.861064,
                    "velocity": 0.6062992125984252
                },
                {
                    "duration": 0.2101849749999971,
                    "durationTicks": 227,
                    "midi": 71,
                    "name": "B4",
                    "ticks": 53520,
                    "time": 49.749952,
                    "velocity": 0.5118110236220472
                },
                {
                    "duration": 0.2101849749999971,
                    "durationTicks": 227,
                    "midi": 72,
                    "name": "C5",
                    "ticks": 53760,
                    "time": 49.972174,
                    "velocity": 0.6141732283464567
                },
                {
                    "duration": 0.6666659999999993,
                    "durationTicks": 720,
                    "midi": 64,
                    "name": "E4",
                    "ticks": 53760,
                    "time": 49.972174,
                    "velocity": 0.5275590551181102
                },
                {
                    "duration": 0.6666659999999993,
                    "durationTicks": 720,
                    "midi": 60,
                    "name": "C4",
                    "ticks": 53760,
                    "time": 49.972174,
                    "velocity": 0.5275590551181102
                },
                {
                    "duration": 1.0879618749999977,
                    "durationTicks": 1175,
                    "midi": 64,
                    "name": "E4",
                    "ticks": 53760,
                    "time": 49.972174,
                    "velocity": 0.6929133858267716
                },
                {
                    "duration": 0.11018507500000396,
                    "durationTicks": 119,
                    "midi": 72,
                    "name": "C5",
                    "ticks": 54000,
                    "time": 50.194396,
                    "velocity": 0.5984251968503937
                },
                {
                    "duration": 0.7379622249999969,
                    "durationTicks": 797,
                    "midi": 72,
                    "name": "C5",
                    "ticks": 54120,
                    "time": 50.305507,
                    "velocity": 0.5905511811023622
                },
                {
                    "duration": 1.021295275,
                    "durationTicks": 1103,
                    "midi": 64,
                    "name": "E4",
                    "ticks": 54480,
                    "time": 50.63884,
                    "velocity": 0.5748031496062992
                },
                {
                    "duration": 0.42129587499999843,
                    "durationTicks": 455,
                    "midi": 72,
                    "name": "C5",
                    "ticks": 54480,
                    "time": 50.63884,
                    "velocity": 0.5748031496062992
                },
                {
                    "duration": 0.332407074999999,
                    "durationTicks": 359,
                    "midi": 72,
                    "name": "C5",
                    "ticks": 54960,
                    "time": 51.083284,
                    "velocity": 0.5905511811023622
                },
                {
                    "duration": 0.2101849749999971,
                    "durationTicks": 227,
                    "midi": 69,
                    "name": "A4",
                    "ticks": 54960,
                    "time": 51.083284,
                    "velocity": 0.48031496062992124
                },
                {
                    "duration": 0.42129587499999843,
                    "durationTicks": 455,
                    "midi": 64,
                    "name": "E4",
                    "ticks": 55200,
                    "time": 51.305506,
                    "velocity": 0.7165354330708661
                },
                {
                    "duration": 0.42129587499999843,
                    "durationTicks": 455,
                    "midi": 72,
                    "name": "C5",
                    "ticks": 55200,
                    "time": 51.305506,
                    "velocity": 0.7165354330708661
                },
                {
                    "duration": 0.2101849749999971,
                    "durationTicks": 227,
                    "midi": 76,
                    "name": "E5",
                    "ticks": 55440,
                    "time": 51.527728,
                    "velocity": 0.6456692913385826
                },
                {
                    "duration": 0.3157404250000013,
                    "durationTicks": 341,
                    "midi": 76,
                    "name": "E5",
                    "ticks": 55680,
                    "time": 51.74995,
                    "velocity": 0.5905511811023622
                },
                {
                    "duration": 0.6666659999999993,
                    "durationTicks": 720,
                    "midi": 64,
                    "name": "E4",
                    "ticks": 55680,
                    "time": 51.74995,
                    "velocity": 0.7007874015748031
                },
                {
                    "duration": 0.6666659999999993,
                    "durationTicks": 720,
                    "midi": 69,
                    "name": "A4",
                    "ticks": 55680,
                    "time": 51.74995,
                    "velocity": 0.7007874015748031
                },
                {
                    "duration": 1.6879612749999993,
                    "durationTicks": 1823,
                    "midi": 60,
                    "name": "C4",
                    "ticks": 55680,
                    "time": 51.74995,
                    "velocity": 0.5826771653543307
                },
                {
                    "duration": 0.3157404249999942,
                    "durationTicks": 341,
                    "midi": 74,
                    "name": "D5",
                    "ticks": 56040,
                    "time": 52.083283,
                    "velocity": 0.6141732283464567
                },
                {
                    "duration": 0.42129587500000554,
                    "durationTicks": 455,
                    "midi": 74,
                    "name": "D5",
                    "ticks": 56400,
                    "time": 52.416616,
                    "velocity": 0.6299212598425197
                },
                {
                    "duration": 0.42129587500000554,
                    "durationTicks": 455,
                    "midi": 72,
                    "name": "C5",
                    "ticks": 56400,
                    "time": 52.416616,
                    "velocity": 0.6299212598425197
                },
                {
                    "duration": 0.42129587500000554,
                    "durationTicks": 455,
                    "midi": 77,
                    "name": "F5",
                    "ticks": 56400,
                    "time": 52.416616,
                    "velocity": 0.6299212598425197
                },
                {
                    "duration": 0.42129587500000554,
                    "durationTicks": 455,
                    "midi": 81,
                    "name": "A5",
                    "ticks": 56400,
                    "time": 52.416616,
                    "velocity": 0.6299212598425197
                },
                {
                    "duration": 0.6324067749999998,
                    "durationTicks": 683,
                    "midi": 72,
                    "name": "C5",
                    "ticks": 56880,
                    "time": 52.86106,
                    "velocity": 0.5748031496062992
                },
                {
                    "duration": 0.2101849749999971,
                    "durationTicks": 227,
                    "midi": 65,
                    "name": "F4",
                    "ticks": 56880,
                    "time": 52.86106,
                    "velocity": 0.4645669291338583
                },
                {
                    "duration": 0.42129587499999843,
                    "durationTicks": 455,
                    "midi": 60,
                    "name": "C4",
                    "ticks": 57120,
                    "time": 53.083282000000004,
                    "velocity": 0.7007874015748031
                },
                {
                    "duration": 0.42129587499999843,
                    "durationTicks": 455,
                    "midi": 69,
                    "name": "A4",
                    "ticks": 57120,
                    "time": 53.083282000000004,
                    "velocity": 0.7007874015748031
                },
                {
                    "duration": 0.42129587499999843,
                    "durationTicks": 455,
                    "midi": 76,
                    "name": "E5",
                    "ticks": 57600,
                    "time": 53.527726,
                    "velocity": 0.6771653543307087
                },
                {
                    "duration": 0.6324067749999998,
                    "durationTicks": 683,
                    "midi": 64,
                    "name": "E4",
                    "ticks": 57600,
                    "time": 53.527726,
                    "velocity": 0.7874015748031497
                },
                {
                    "duration": 0.6324067749999998,
                    "durationTicks": 683,
                    "midi": 67,
                    "name": "G4",
                    "ticks": 57600,
                    "time": 53.527726,
                    "velocity": 0.7874015748031497
                },
                {
                    "duration": 0.6324067749999998,
                    "durationTicks": 683,
                    "midi": 72,
                    "name": "C5",
                    "ticks": 57600,
                    "time": 53.527726,
                    "velocity": 0.7874015748031497
                },
                {
                    "duration": 1.6879612749999993,
                    "durationTicks": 1823,
                    "midi": 62,
                    "name": "D4",
                    "ticks": 57600,
                    "time": 53.527726,
                    "velocity": 0.6456692913385826
                },
                {
                    "duration": 0.22129607500000503,
                    "durationTicks": 239,
                    "midi": 74,
                    "name": "D5",
                    "ticks": 58080,
                    "time": 53.97217,
                    "velocity": 0.5984251968503937
                },
                {
                    "duration": 0.42129587500000554,
                    "durationTicks": 455,
                    "midi": 74,
                    "name": "D5",
                    "ticks": 58320,
                    "time": 54.194392,
                    "velocity": 0.6377952755905512
                },
                {
                    "duration": 0.42129587500000554,
                    "durationTicks": 455,
                    "midi": 71,
                    "name": "B4",
                    "ticks": 58320,
                    "time": 54.194392,
                    "velocity": 0.5669291338582677
                },
                {
                    "duration": 0.6324067749999998,
                    "durationTicks": 683,
                    "midi": 74,
                    "name": "D5",
                    "ticks": 58320,
                    "time": 54.194392,
                    "velocity": 0.5669291338582677
                },
                {
                    "duration": 0.42129587500000554,
                    "durationTicks": 455,
                    "midi": 76,
                    "name": "E5",
                    "ticks": 58320,
                    "time": 54.194392,
                    "velocity": 0.5669291338582677
                },
                {
                    "duration": 0.42129587500000554,
                    "durationTicks": 455,
                    "midi": 79,
                    "name": "G5",
                    "ticks": 58320,
                    "time": 54.194392,
                    "velocity": 0.5669291338582677
                },
                {
                    "duration": 0.22129607500000503,
                    "durationTicks": 239,
                    "midi": 71,
                    "name": "B4",
                    "ticks": 59040,
                    "time": 54.861058,
                    "velocity": 0.5433070866141733
                },
                {
                    "duration": 0.42129587500000554,
                    "durationTicks": 455,
                    "midi": 71,
                    "name": "B4",
                    "ticks": 59040,
                    "time": 54.861058,
                    "velocity": 0.6535433070866141
                },
                {
                    "duration": 0.42129587500000554,
                    "durationTicks": 455,
                    "midi": 74,
                    "name": "D5",
                    "ticks": 59040,
                    "time": 54.861058,
                    "velocity": 0.6535433070866141
                },
                {
                    "duration": 1.0546285750000024,
                    "durationTicks": 1139,
                    "midi": 72,
                    "name": "C5",
                    "ticks": 59280,
                    "time": 55.08328,
                    "velocity": 0.6062992125984252
                },
                {
                    "duration": 0.843517674999994,
                    "durationTicks": 911,
                    "midi": 64,
                    "name": "E4",
                    "ticks": 59520,
                    "time": 55.305502000000004,
                    "velocity": 0.6771653543307087
                },
                {
                    "duration": 0.843517674999994,
                    "durationTicks": 911,
                    "midi": 72,
                    "name": "C5",
                    "ticks": 59520,
                    "time": 55.305502000000004,
                    "velocity": 0.6771653543307087
                },
                {
                    "duration": 1.2657394749999966,
                    "durationTicks": 1367,
                    "midi": 60,
                    "name": "C4",
                    "ticks": 59520,
                    "time": 55.305502000000004,
                    "velocity": 0.7007874015748031
                },
                {
                    "duration": 1.2657394749999966,
                    "durationTicks": 1367,
                    "midi": 67,
                    "name": "G4",
                    "ticks": 59520,
                    "time": 55.305502000000004,
                    "velocity": 0.7007874015748031
                },
                {
                    "duration": 0.2101849749999971,
                    "durationTicks": 227,
                    "midi": 64,
                    "name": "E4",
                    "ticks": 60240,
                    "time": 55.972168,
                    "velocity": 0.4330708661417323
                },
                {
                    "duration": 0.42129587500000554,
                    "durationTicks": 455,
                    "midi": 62,
                    "name": "D4",
                    "ticks": 60480,
                    "time": 56.19439,
                    "velocity": 0.5039370078740157
                },
                {
                    "duration": 0.42129587499999843,
                    "durationTicks": 455,
                    "midi": 71,
                    "name": "B4",
                    "ticks": 60960,
                    "time": 56.638834,
                    "velocity": 0.6062992125984252
                },
                {
                    "duration": 0.21018497500000421,
                    "durationTicks": 227,
                    "midi": 67,
                    "name": "G4",
                    "ticks": 61200,
                    "time": 56.861056,
                    "velocity": 0.5118110236220472
                },
                {
                    "duration": 0.22129607500000503,
                    "durationTicks": 239,
                    "midi": 67,
                    "name": "G4",
                    "ticks": 61440,
                    "time": 57.083278,
                    "velocity": 0.5905511811023622
                },
                {
                    "duration": 0.104629525,
                    "durationTicks": 113,
                    "midi": 64,
                    "name": "E4",
                    "ticks": 61680,
                    "time": 57.3055,
                    "velocity": 0.5511811023622047
                },
                {
                    "duration": 0.104629525,
                    "durationTicks": 113,
                    "midi": 67,
                    "name": "G4",
                    "ticks": 61680,
                    "time": 57.3055,
                    "velocity": 0.5590551181102362
                },
                {
                    "duration": 0.104629525,
                    "durationTicks": 113,
                    "midi": 64,
                    "name": "E4",
                    "ticks": 61800,
                    "time": 57.416611,
                    "velocity": 0.5748031496062992
                },
                {
                    "duration": 0.104629525,
                    "durationTicks": 113,
                    "midi": 69,
                    "name": "A4",
                    "ticks": 61800,
                    "time": 57.416611,
                    "velocity": 0.6220472440944882
                },
                {
                    "duration": 0.1046295249999929,
                    "durationTicks": 113,
                    "midi": 64,
                    "name": "E4",
                    "ticks": 61920,
                    "time": 57.527722000000004,
                    "velocity": 0.5669291338582677
                },
                {
                    "duration": 0.104629525,
                    "durationTicks": 113,
                    "midi": 67,
                    "name": "G4",
                    "ticks": 62040,
                    "time": 57.638833,
                    "velocity": 0.5984251968503937
                },
                {
                    "duration": 0.2101849749999971,
                    "durationTicks": 227,
                    "midi": 64,
                    "name": "E4",
                    "ticks": 62160,
                    "time": 57.749944,
                    "velocity": 0.5196850393700787
                },
                {
                    "duration": 0.2101849749999971,
                    "durationTicks": 227,
                    "midi": 71,
                    "name": "B4",
                    "ticks": 62160,
                    "time": 57.749944,
                    "velocity": 0.5433070866141733
                },
                {
                    "duration": 0.104629525,
                    "durationTicks": 113,
                    "midi": 69,
                    "name": "A4",
                    "ticks": 62160,
                    "time": 57.749944,
                    "velocity": 0.5905511811023622
                },
                {
                    "duration": 0.104629525,
                    "durationTicks": 113,
                    "midi": 71,
                    "name": "B4",
                    "ticks": 62280,
                    "time": 57.861055,
                    "velocity": 0.6220472440944882
                },
                {
                    "duration": 0.2101849749999971,
                    "durationTicks": 227,
                    "midi": 62,
                    "name": "D4",
                    "ticks": 62400,
                    "time": 57.972166,
                    "velocity": 0.5511811023622047
                },
                {
                    "duration": 0.104629525,
                    "durationTicks": 113,
                    "midi": 72,
                    "name": "C5",
                    "ticks": 62400,
                    "time": 57.972166,
                    "velocity": 0.6062992125984252
                },
                {
                    "duration": 0.2101849749999971,
                    "durationTicks": 227,
                    "midi": 72,
                    "name": "C5",
                    "ticks": 62400,
                    "time": 57.972166,
                    "velocity": 0.5905511811023622
                },
                {
                    "duration": 0.104629525,
                    "durationTicks": 113,
                    "midi": 69,
                    "name": "A4",
                    "ticks": 62520,
                    "time": 58.083277,
                    "velocity": 0.5905511811023622
                },
                {
                    "duration": 0.104629525,
                    "durationTicks": 113,
                    "midi": 64,
                    "name": "E4",
                    "ticks": 62640,
                    "time": 58.194388000000004,
                    "velocity": 0.6535433070866141
                },
                {
                    "duration": 0.104629525,
                    "durationTicks": 113,
                    "midi": 71,
                    "name": "B4",
                    "ticks": 62640,
                    "time": 58.194388000000004,
                    "velocity": 0.5669291338582677
                },
                {
                    "duration": 0.104629525,
                    "durationTicks": 113,
                    "midi": 67,
                    "name": "G4",
                    "ticks": 62640,
                    "time": 58.194388000000004,
                    "velocity": 0.6062992125984252
                },
                {
                    "duration": 0.104629525,
                    "durationTicks": 113,
                    "midi": 64,
                    "name": "E4",
                    "ticks": 62760,
                    "time": 58.305499,
                    "velocity": 0.5984251968503937
                },
                {
                    "duration": 0.104629525,
                    "durationTicks": 113,
                    "midi": 71,
                    "name": "B4",
                    "ticks": 62760,
                    "time": 58.305499,
                    "velocity": 0.6220472440944882
                },
                {
                    "duration": 0.104629525,
                    "durationTicks": 113,
                    "midi": 69,
                    "name": "A4",
                    "ticks": 62760,
                    "time": 58.305499,
                    "velocity": 0.6377952755905512
                },
                {
                    "duration": 0.104629525,
                    "durationTicks": 113,
                    "midi": 64,
                    "name": "E4",
                    "ticks": 62880,
                    "time": 58.41661,
                    "velocity": 0.5590551181102362
                },
                {
                    "duration": 0.104629525,
                    "durationTicks": 113,
                    "midi": 69,
                    "name": "A4",
                    "ticks": 63000,
                    "time": 58.527721,
                    "velocity": 0.6692913385826772
                },
                {
                    "duration": 0.1046295250000071,
                    "durationTicks": 113,
                    "midi": 67,
                    "name": "G4",
                    "ticks": 63120,
                    "time": 58.638832,
                    "velocity": 0.5433070866141733
                },
                {
                    "duration": 0.2101849749999971,
                    "durationTicks": 227,
                    "midi": 67,
                    "name": "G4",
                    "ticks": 63120,
                    "time": 58.638832,
                    "velocity": 0.5669291338582677
                },
                {
                    "duration": 0.1046295250000071,
                    "durationTicks": 113,
                    "midi": 69,
                    "name": "A4",
                    "ticks": 63240,
                    "time": 58.749943,
                    "velocity": 0.6614173228346457
                },
                {
                    "duration": 0.22129607499999793,
                    "durationTicks": 239,
                    "midi": 67,
                    "name": "G4",
                    "ticks": 63360,
                    "time": 58.861054,
                    "velocity": 0.5590551181102362
                },
                {
                    "duration": 0.1046295250000071,
                    "durationTicks": 113,
                    "midi": 64,
                    "name": "E4",
                    "ticks": 63600,
                    "time": 59.083276,
                    "velocity": 0.5748031496062992
                },
                {
                    "duration": 0.1046295250000071,
                    "durationTicks": 113,
                    "midi": 67,
                    "name": "G4",
                    "ticks": 63600,
                    "time": 59.083276,
                    "velocity": 0.5748031496062992
                },
                {
                    "duration": 0.1046295250000071,
                    "durationTicks": 113,
                    "midi": 64,
                    "name": "E4",
                    "ticks": 63720,
                    "time": 59.194387,
                    "velocity": 0.5826771653543307
                },
                {
                    "duration": 0.1046295250000071,
                    "durationTicks": 113,
                    "midi": 69,
                    "name": "A4",
                    "ticks": 63720,
                    "time": 59.194387,
                    "velocity": 0.6220472440944882
                },
                {
                    "duration": 0.1046295250000071,
                    "durationTicks": 113,
                    "midi": 64,
                    "name": "E4",
                    "ticks": 63840,
                    "time": 59.305498,
                    "velocity": 0.5669291338582677
                },
                {
                    "duration": 0.1046295250000071,
                    "durationTicks": 113,
                    "midi": 67,
                    "name": "G4",
                    "ticks": 63960,
                    "time": 59.416609,
                    "velocity": 0.5905511811023622
                },
                {
                    "duration": 0.2101849749999971,
                    "durationTicks": 227,
                    "midi": 64,
                    "name": "E4",
                    "ticks": 64080,
                    "time": 59.52772,
                    "velocity": 0.5511811023622047
                },
                {
                    "duration": 0.2101849749999971,
                    "durationTicks": 227,
                    "midi": 71,
                    "name": "B4",
                    "ticks": 64080,
                    "time": 59.52772,
                    "velocity": 0.5118110236220472
                },
                {
                    "duration": 0.1046295250000071,
                    "durationTicks": 113,
                    "midi": 69,
                    "name": "A4",
                    "ticks": 64080,
                    "time": 59.52772,
                    "velocity": 0.6141732283464567
                },
                {
                    "duration": 0.104629525,
                    "durationTicks": 113,
                    "midi": 71,
                    "name": "B4",
                    "ticks": 64200,
                    "time": 59.638831,
                    "velocity": 0.6220472440944882
                },
                {
                    "duration": 0.21018497500000421,
                    "durationTicks": 227,
                    "midi": 62,
                    "name": "D4",
                    "ticks": 64320,
                    "time": 59.749942,
                    "velocity": 0.5511811023622047
                },
                {
                    "duration": 0.1046295250000071,
                    "durationTicks": 113,
                    "midi": 72,
                    "name": "C5",
                    "ticks": 64320,
                    "time": 59.749942,
                    "velocity": 0.6299212598425197
                },
                {
                    "duration": 0.21018497500000421,
                    "durationTicks": 227,
                    "midi": 72,
                    "name": "C5",
                    "ticks": 64320,
                    "time": 59.749942,
                    "velocity": 0.5984251968503937
                },
                {
                    "duration": 0.1046295250000071,
                    "durationTicks": 113,
                    "midi": 69,
                    "name": "A4",
                    "ticks": 64440,
                    "time": 59.861053,
                    "velocity": 0.5826771653543307
                },
                {
                    "duration": 0.1046295250000071,
                    "durationTicks": 113,
                    "midi": 64,
                    "name": "E4",
                    "ticks": 64560,
                    "time": 59.972164,
                    "velocity": 0.6456692913385826
                },
                {
                    "duration": 0.1046295250000071,
                    "durationTicks": 113,
                    "midi": 71,
                    "name": "B4",
                    "ticks": 64560,
                    "time": 59.972164,
                    "velocity": 0.5669291338582677
                },
                {
                    "duration": 0.1046295250000071,
                    "durationTicks": 113,
                    "midi": 67,
                    "name": "G4",
                    "ticks": 64560,
                    "time": 59.972164,
                    "velocity": 0.5748031496062992
                },
                {
                    "duration": 0.1046295250000071,
                    "durationTicks": 113,
                    "midi": 64,
                    "name": "E4",
                    "ticks": 64680,
                    "time": 60.083275,
                    "velocity": 0.5905511811023622
                },
                {
                    "duration": 0.1046295250000071,
                    "durationTicks": 113,
                    "midi": 71,
                    "name": "B4",
                    "ticks": 64680,
                    "time": 60.083275,
                    "velocity": 0.6062992125984252
                },
                {
                    "duration": 0.1046295250000071,
                    "durationTicks": 113,
                    "midi": 69,
                    "name": "A4",
                    "ticks": 64680,
                    "time": 60.083275,
                    "velocity": 0.6220472440944882
                },
                {
                    "duration": 0.1046295250000071,
                    "durationTicks": 113,
                    "midi": 64,
                    "name": "E4",
                    "ticks": 64800,
                    "time": 60.194386,
                    "velocity": 0.5433070866141733
                },
                {
                    "duration": 0.1046295250000071,
                    "durationTicks": 113,
                    "midi": 69,
                    "name": "A4",
                    "ticks": 64920,
                    "time": 60.305497,
                    "velocity": 0.6535433070866141
                },
                {
                    "duration": 0.104629525,
                    "durationTicks": 113,
                    "midi": 67,
                    "name": "G4",
                    "ticks": 65040,
                    "time": 60.416608000000004,
                    "velocity": 0.5354330708661418
                },
                {
                    "duration": 0.2101849749999971,
                    "durationTicks": 227,
                    "midi": 67,
                    "name": "G4",
                    "ticks": 65040,
                    "time": 60.416608000000004,
                    "velocity": 0.5748031496062992
                },
                {
                    "duration": 0.1046295250000071,
                    "durationTicks": 113,
                    "midi": 69,
                    "name": "A4",
                    "ticks": 65160,
                    "time": 60.527719,
                    "velocity": 0.6141732283464567
                },
                {
                    "duration": 0.22129607500000503,
                    "durationTicks": 239,
                    "midi": 67,
                    "name": "G4",
                    "ticks": 65280,
                    "time": 60.63883,
                    "velocity": 0.5826771653543307
                },
                {
                    "duration": 0.1046295250000071,
                    "durationTicks": 113,
                    "midi": 64,
                    "name": "E4",
                    "ticks": 65520,
                    "time": 60.861052,
                    "velocity": 0.5511811023622047
                },
                {
                    "duration": 0.1046295250000071,
                    "durationTicks": 113,
                    "midi": 67,
                    "name": "G4",
                    "ticks": 65520,
                    "time": 60.861052,
                    "velocity": 0.6220472440944882
                },
                {
                    "duration": 0.1046295250000071,
                    "durationTicks": 113,
                    "midi": 64,
                    "name": "E4",
                    "ticks": 65640,
                    "time": 60.972163,
                    "velocity": 0.5984251968503937
                },
                {
                    "duration": 0.1046295250000071,
                    "durationTicks": 113,
                    "midi": 69,
                    "name": "A4",
                    "ticks": 65640,
                    "time": 60.972163,
                    "velocity": 0.6535433070866141
                },
                {
                    "duration": 0.1046295250000071,
                    "durationTicks": 113,
                    "midi": 64,
                    "name": "E4",
                    "ticks": 65760,
                    "time": 61.083274,
                    "velocity": 0.5669291338582677
                },
                {
                    "duration": 0.104629525,
                    "durationTicks": 113,
                    "midi": 67,
                    "name": "G4",
                    "ticks": 65880,
                    "time": 61.194385000000004,
                    "velocity": 0.5905511811023622
                },
                {
                    "duration": 0.21018497500000421,
                    "durationTicks": 227,
                    "midi": 64,
                    "name": "E4",
                    "ticks": 66000,
                    "time": 61.305496,
                    "velocity": 0.5354330708661418
                },
                {
                    "duration": 0.21018497500000421,
                    "durationTicks": 227,
                    "midi": 67,
                    "name": "G4",
                    "ticks": 66000,
                    "time": 61.305496,
                    "velocity": 0.49606299212598426
                },
                {
                    "duration": 0.21018497500000421,
                    "durationTicks": 227,
                    "midi": 71,
                    "name": "B4",
                    "ticks": 66000,
                    "time": 61.305496,
                    "velocity": 0.49606299212598426
                },
                {
                    "duration": 0.21018497500000421,
                    "durationTicks": 227,
                    "midi": 76,
                    "name": "E5",
                    "ticks": 66000,
                    "time": 61.305496,
                    "velocity": 0.49606299212598426
                },
                {
                    "duration": 0.1046295250000071,
                    "durationTicks": 113,
                    "midi": 69,
                    "name": "A4",
                    "ticks": 66000,
                    "time": 61.305496,
                    "velocity": 0.5984251968503937
                },
                {
                    "duration": 0.1046295250000071,
                    "durationTicks": 113,
                    "midi": 71,
                    "name": "B4",
                    "ticks": 66120,
                    "time": 61.416607,
                    "velocity": 0.5748031496062992
                },
                {
                    "duration": 0.16574057500000094,
                    "durationTicks": 179,
                    "midi": 62,
                    "name": "D4",
                    "ticks": 66240,
                    "time": 61.527718,
                    "velocity": 0.5118110236220472
                },
                {
                    "duration": 0.16574057500000094,
                    "durationTicks": 179,
                    "midi": 67,
                    "name": "G4",
                    "ticks": 66240,
                    "time": 61.527718,
                    "velocity": 0.5433070866141733
                },
                {
                    "duration": 0.16574057500000094,
                    "durationTicks": 179,
                    "midi": 72,
                    "name": "C5",
                    "ticks": 66240,
                    "time": 61.527718,
                    "velocity": 0.5433070866141733
                },
                {
                    "duration": 0.16574057500000094,
                    "durationTicks": 179,
                    "midi": 74,
                    "name": "D5",
                    "ticks": 66240,
                    "time": 61.527718,
                    "velocity": 0.5433070866141733
                },
                {
                    "duration": 0.16574057500000094,
                    "durationTicks": 179,
                    "midi": 72,
                    "name": "C5",
                    "ticks": 66240,
                    "time": 61.527718,
                    "velocity": 0.6141732283464567
                },
                {
                    "duration": 0.2101849749999971,
                    "durationTicks": 227,
                    "midi": 64,
                    "name": "E4",
                    "ticks": 66600,
                    "time": 61.861051,
                    "velocity": 0.5669291338582677
                },
                {
                    "duration": 0.2101849749999971,
                    "durationTicks": 227,
                    "midi": 67,
                    "name": "G4",
                    "ticks": 66600,
                    "time": 61.861051,
                    "velocity": 0.5196850393700787
                },
                {
                    "duration": 0.2101849749999971,
                    "durationTicks": 227,
                    "midi": 71,
                    "name": "B4",
                    "ticks": 66600,
                    "time": 61.861051,
                    "velocity": 0.5196850393700787
                },
                {
                    "duration": 0.2101849749999971,
                    "durationTicks": 227,
                    "midi": 76,
                    "name": "E5",
                    "ticks": 66600,
                    "time": 61.861051,
                    "velocity": 0.5196850393700787
                },
                {
                    "duration": 0.2101849749999971,
                    "durationTicks": 227,
                    "midi": 69,
                    "name": "A4",
                    "ticks": 66600,
                    "time": 61.861051,
                    "velocity": 0.5354330708661418
                },
                {
                    "duration": 0.6324067750000069,
                    "durationTicks": 683,
                    "midi": 64,
                    "name": "E4",
                    "ticks": 66960,
                    "time": 62.194384,
                    "velocity": 0.5196850393700787
                },
                {
                    "duration": 0.6324067750000069,
                    "durationTicks": 683,
                    "midi": 71,
                    "name": "B4",
                    "ticks": 66960,
                    "time": 62.194384,
                    "velocity": 0.5196850393700787
                },
                {
                    "duration": 0.6324067750000069,
                    "durationTicks": 683,
                    "midi": 76,
                    "name": "E5",
                    "ticks": 66960,
                    "time": 62.194384,
                    "velocity": 0.5196850393700787
                },
                {
                    "duration": 0.6324067750000069,
                    "durationTicks": 683,
                    "midi": 81,
                    "name": "A5",
                    "ticks": 66960,
                    "time": 62.194384,
                    "velocity": 0.49606299212598426
                },
                {
                    "duration": 0.6324067750000069,
                    "durationTicks": 683,
                    "midi": 69,
                    "name": "A4",
                    "ticks": 66960,
                    "time": 62.194384,
                    "velocity": 0.49606299212598426
                },
                {
                    "duration": 0.5620364750000064,
                    "durationTicks": 607,
                    "midi": 64,
                    "name": "E4",
                    "ticks": 68000,
                    "time": 63.157346,
                    "velocity": 0.6456692913385826
                },
                {
                    "duration": 0.4212958749999913,
                    "durationTicks": 455,
                    "midi": 76,
                    "name": "E5",
                    "ticks": 68160,
                    "time": 63.305494,
                    "velocity": 0.5118110236220472
                },
                {
                    "duration": 0.4212958749999913,
                    "durationTicks": 455,
                    "midi": 72,
                    "name": "C5",
                    "ticks": 68160,
                    "time": 63.305494,
                    "velocity": 0.8346456692913385
                },
                {
                    "duration": 0.4212958749999913,
                    "durationTicks": 455,
                    "midi": 76,
                    "name": "E5",
                    "ticks": 68160,
                    "time": 63.305494,
                    "velocity": 0.5118110236220472
                },
                {
                    "duration": 0.4212958749999913,
                    "durationTicks": 455,
                    "midi": 79,
                    "name": "G5",
                    "ticks": 68160,
                    "time": 63.305494,
                    "velocity": 0.5118110236220472
                },
                {
                    "duration": 0.4212958749999913,
                    "durationTicks": 455,
                    "midi": 84,
                    "name": "C6",
                    "ticks": 68160,
                    "time": 63.305494,
                    "velocity": 0.5118110236220472
                },
                {
                    "duration": 0.42129587499999843,
                    "durationTicks": 455,
                    "midi": 62,
                    "name": "D4",
                    "ticks": 68640,
                    "time": 63.749938,
                    "velocity": 0.5354330708661418
                },
                {
                    "duration": 0.42129587499999843,
                    "durationTicks": 455,
                    "midi": 67,
                    "name": "G4",
                    "ticks": 68640,
                    "time": 63.749938,
                    "velocity": 0.5354330708661418
                },
                {
                    "duration": 0.42129587499999843,
                    "durationTicks": 455,
                    "midi": 71,
                    "name": "B4",
                    "ticks": 68640,
                    "time": 63.749938,
                    "velocity": 0.5354330708661418
                },
                {
                    "duration": 0.42129587499999843,
                    "durationTicks": 455,
                    "midi": 74,
                    "name": "D5",
                    "ticks": 68640,
                    "time": 63.749938,
                    "velocity": 0.5354330708661418
                },
                {
                    "duration": 0.31574042500001553,
                    "durationTicks": 341,
                    "midi": 64,
                    "name": "E4",
                    "ticks": 69120,
                    "time": 64.19438199999999,
                    "velocity": 0.6220472440944882
                },
                {
                    "duration": 0.31574042500001553,
                    "durationTicks": 341,
                    "midi": 69,
                    "name": "A4",
                    "ticks": 69120,
                    "time": 64.19438199999999,
                    "velocity": 0.6220472440944882
                },
                {
                    "duration": 0.31574042500001553,
                    "durationTicks": 341,
                    "midi": 72,
                    "name": "C5",
                    "ticks": 69120,
                    "time": 64.19438199999999,
                    "velocity": 0.6220472440944882
                },
                {
                    "duration": 0.31574042500001553,
                    "durationTicks": 341,
                    "midi": 76,
                    "name": "E5",
                    "ticks": 69120,
                    "time": 64.19438199999999,
                    "velocity": 0.6220472440944882
                },
                {
                    "duration": 0.3157404250000013,
                    "durationTicks": 341,
                    "midi": 62,
                    "name": "D4",
                    "ticks": 69480,
                    "time": 64.527715,
                    "velocity": 0.5590551181102362
                },
                {
                    "duration": 0.3157404250000013,
                    "durationTicks": 341,
                    "midi": 65,
                    "name": "F4",
                    "ticks": 69480,
                    "time": 64.527715,
                    "velocity": 0.5590551181102362
                },
                {
                    "duration": 0.3157404250000013,
                    "durationTicks": 341,
                    "midi": 69,
                    "name": "A4",
                    "ticks": 69480,
                    "time": 64.527715,
                    "velocity": 0.5590551181102362
                },
                {
                    "duration": 0.3157404250000013,
                    "durationTicks": 341,
                    "midi": 74,
                    "name": "D5",
                    "ticks": 69480,
                    "time": 64.527715,
                    "velocity": 0.5590551181102362
                },
                {
                    "duration": 0.21018497499999,
                    "durationTicks": 227,
                    "midi": 62,
                    "name": "D4",
                    "ticks": 69840,
                    "time": 64.86104800000001,
                    "velocity": 0.5748031496062992
                },
                {
                    "duration": 0.21018497499999,
                    "durationTicks": 227,
                    "midi": 65,
                    "name": "F4",
                    "ticks": 69840,
                    "time": 64.86104800000001,
                    "velocity": 0.5748031496062992
                },
                {
                    "duration": 0.21018497499999,
                    "durationTicks": 227,
                    "midi": 69,
                    "name": "A4",
                    "ticks": 69840,
                    "time": 64.86104800000001,
                    "velocity": 0.5748031496062992
                },
                {
                    "duration": 0.21018497499999,
                    "durationTicks": 227,
                    "midi": 74,
                    "name": "D5",
                    "ticks": 69840,
                    "time": 64.86104800000001,
                    "velocity": 0.5748031496062992
                },
                {
                    "duration": 0.3157404250000013,
                    "durationTicks": 341,
                    "midi": 62,
                    "name": "D4",
                    "ticks": 70080,
                    "time": 65.08327,
                    "velocity": 0.6141732283464567
                },
                {
                    "duration": 0.1046295250000071,
                    "durationTicks": 113,
                    "midi": 65,
                    "name": "F4",
                    "ticks": 70080,
                    "time": 65.08327,
                    "velocity": 0.6141732283464567
                },
                {
                    "duration": 0.3157404250000013,
                    "durationTicks": 341,
                    "midi": 69,
                    "name": "A4",
                    "ticks": 70080,
                    "time": 65.08327,
                    "velocity": 0.6141732283464567
                },
                {
                    "duration": 0.3157404250000013,
                    "durationTicks": 341,
                    "midi": 74,
                    "name": "D5",
                    "ticks": 70080,
                    "time": 65.08327,
                    "velocity": 0.6141732283464567
                },
                {
                    "duration": 0.3157404250000013,
                    "durationTicks": 341,
                    "midi": 65,
                    "name": "F4",
                    "ticks": 70080,
                    "time": 65.08327,
                    "velocity": 0.7637795275590551
                },
                {
                    "duration": 0.1046295250000071,
                    "durationTicks": 113,
                    "midi": 60,
                    "name": "C4",
                    "ticks": 70200,
                    "time": 65.19438099999999,
                    "velocity": 0.5984251968503937
                },
                {
                    "duration": 0.1046295250000071,
                    "durationTicks": 113,
                    "midi": 93,
                    "name": "A6",
                    "ticks": 70320,
                    "time": 65.305492,
                    "velocity": 0.5748031496062992
                },
                {
                    "duration": 0.3157404250000013,
                    "durationTicks": 341,
                    "midi": 60,
                    "name": "C4",
                    "ticks": 70440,
                    "time": 65.41660300000001,
                    "velocity": 0.5905511811023622
                },
                {
                    "duration": 0.3157404250000013,
                    "durationTicks": 341,
                    "midi": 65,
                    "name": "F4",
                    "ticks": 70440,
                    "time": 65.41660300000001,
                    "velocity": 0.5905511811023622
                },
                {
                    "duration": 0.3157404250000013,
                    "durationTicks": 341,
                    "midi": 69,
                    "name": "A4",
                    "ticks": 70440,
                    "time": 65.41660300000001,
                    "velocity": 0.5905511811023622
                },
                {
                    "duration": 0.3157404250000013,
                    "durationTicks": 341,
                    "midi": 72,
                    "name": "C5",
                    "ticks": 70440,
                    "time": 65.41660300000001,
                    "velocity": 0.5905511811023622
                },
                {
                    "duration": 0.1046295250000071,
                    "durationTicks": 113,
                    "midi": 89,
                    "name": "F6",
                    "ticks": 70440,
                    "time": 65.41660300000001,
                    "velocity": 0.5905511811023622
                },
                {
                    "duration": 0.11018507500000396,
                    "durationTicks": 119,
                    "midi": 84,
                    "name": "C6",
                    "ticks": 70560,
                    "time": 65.527714,
                    "velocity": 0.5669291338582677
                },
                {
                    "duration": 0.42129587500001264,
                    "durationTicks": 455,
                    "midi": 83,
                    "name": "B5",
                    "ticks": 70800,
                    "time": 65.74993599999999,
                    "velocity": 0.5669291338582677
                },
                {
                    "duration": 0.42129587500001264,
                    "durationTicks": 455,
                    "midi": 62,
                    "name": "D4",
                    "ticks": 70800,
                    "time": 65.74993599999999,
                    "velocity": 0.5669291338582677
                },
                {
                    "duration": 0.42129587500001264,
                    "durationTicks": 455,
                    "midi": 67,
                    "name": "G4",
                    "ticks": 70800,
                    "time": 65.74993599999999,
                    "velocity": 0.5669291338582677
                },
                {
                    "duration": 0.42129587500001264,
                    "durationTicks": 455,
                    "midi": 71,
                    "name": "B4",
                    "ticks": 70800,
                    "time": 65.74993599999999,
                    "velocity": 0.5669291338582677
                },
                {
                    "duration": 0.3324070750000061,
                    "durationTicks": 359,
                    "midi": 60,
                    "name": "C4",
                    "ticks": 71280,
                    "time": 66.19438,
                    "velocity": 0.6377952755905512
                },
                {
                    "duration": 0.3324070750000061,
                    "durationTicks": 359,
                    "midi": 64,
                    "name": "E4",
                    "ticks": 71280,
                    "time": 66.19438,
                    "velocity": 0.6377952755905512
                },
                {
                    "duration": 0.3324070750000061,
                    "durationTicks": 359,
                    "midi": 67,
                    "name": "G4",
                    "ticks": 71280,
                    "time": 66.19438,
                    "velocity": 0.6377952755905512
                },
                {
                    "duration": 0.3324070750000061,
                    "durationTicks": 359,
                    "midi": 72,
                    "name": "C5",
                    "ticks": 71280,
                    "time": 66.19438,
                    "velocity": 0.6377952755905512
                },
                {
                    "duration": 0.42129587499999843,
                    "durationTicks": 455,
                    "midi": 83,
                    "name": "B5",
                    "ticks": 71760,
                    "time": 66.638824,
                    "velocity": 0.6220472440944882
                },
                {
                    "duration": 0.42129587499999843,
                    "durationTicks": 455,
                    "midi": 62,
                    "name": "D4",
                    "ticks": 71760,
                    "time": 66.638824,
                    "velocity": 0.6220472440944882
                },
                {
                    "duration": 0.32685152500000925,
                    "durationTicks": 353,
                    "midi": 67,
                    "name": "G4",
                    "ticks": 71760,
                    "time": 66.638824,
                    "velocity": 0.6220472440944882
                },
                {
                    "duration": 0.42129587499999843,
                    "durationTicks": 455,
                    "midi": 71,
                    "name": "B4",
                    "ticks": 71760,
                    "time": 66.638824,
                    "velocity": 0.6220472440944882
                },
                {
                    "duration": 0.1990738749999963,
                    "durationTicks": 215,
                    "midi": 67,
                    "name": "G4",
                    "ticks": 72000,
                    "time": 66.861046,
                    "velocity": 0.7637795275590551
                },
                {
                    "duration": 0.1046295250000071,
                    "durationTicks": 113,
                    "midi": 62,
                    "name": "D4",
                    "ticks": 72120,
                    "time": 66.972157,
                    "velocity": 0.5511811023622047
                },
                {
                    "duration": 0.1046295250000071,
                    "durationTicks": 113,
                    "midi": 83,
                    "name": "B5",
                    "ticks": 72240,
                    "time": 67.083268,
                    "velocity": 0.5511811023622047
                },
                {
                    "duration": 0.6324067750000069,
                    "durationTicks": 683,
                    "midi": 62,
                    "name": "D4",
                    "ticks": 72240,
                    "time": 67.083268,
                    "velocity": 0.5511811023622047
                },
                {
                    "duration": 0.6324067750000069,
                    "durationTicks": 683,
                    "midi": 67,
                    "name": "G4",
                    "ticks": 72240,
                    "time": 67.083268,
                    "velocity": 0.5511811023622047
                },
                {
                    "duration": 0.6324067750000069,
                    "durationTicks": 683,
                    "midi": 83,
                    "name": "B5",
                    "ticks": 72240,
                    "time": 67.083268,
                    "velocity": 0.5590551181102362
                },
                {
                    "duration": 0.1046295250000071,
                    "durationTicks": 113,
                    "midi": 91,
                    "name": "G6",
                    "ticks": 72360,
                    "time": 67.194379,
                    "velocity": 0.5511811023622047
                },
                {
                    "duration": 0.11018507499998975,
                    "durationTicks": 119,
                    "midi": 86,
                    "name": "D6",
                    "ticks": 72480,
                    "time": 67.30549,
                    "velocity": 0.5433070866141733
                },
                {
                    "duration": 0.3157404250000013,
                    "durationTicks": 341,
                    "midi": 79,
                    "name": "G5",
                    "ticks": 72600,
                    "time": 67.416601,
                    "velocity": 0.5511811023622047
                },
                {
                    "duration": 0.3157404250000013,
                    "durationTicks": 341,
                    "midi": 64,
                    "name": "E4",
                    "ticks": 72960,
                    "time": 67.749934,
                    "velocity": 0.7244094488188977
                },
                {
                    "duration": 0.3157404250000013,
                    "durationTicks": 341,
                    "midi": 69,
                    "name": "A4",
                    "ticks": 72960,
                    "time": 67.749934,
                    "velocity": 0.7244094488188977
                },
                {
                    "duration": 0.3157404250000013,
                    "durationTicks": 341,
                    "midi": 72,
                    "name": "C5",
                    "ticks": 72960,
                    "time": 67.749934,
                    "velocity": 0.7244094488188977
                },
                {
                    "duration": 0.3157404250000013,
                    "durationTicks": 341,
                    "midi": 76,
                    "name": "E5",
                    "ticks": 72960,
                    "time": 67.749934,
                    "velocity": 0.7244094488188977
                },
                {
                    "duration": 0.3157404250000013,
                    "durationTicks": 341,
                    "midi": 62,
                    "name": "D4",
                    "ticks": 73320,
                    "time": 68.083267,
                    "velocity": 0.5748031496062992
                },
                {
                    "duration": 0.3157404250000013,
                    "durationTicks": 341,
                    "midi": 67,
                    "name": "G4",
                    "ticks": 73320,
                    "time": 68.083267,
                    "velocity": 0.5748031496062992
                },
                {
                    "duration": 0.3157404250000013,
                    "durationTicks": 341,
                    "midi": 71,
                    "name": "B4",
                    "ticks": 73320,
                    "time": 68.083267,
                    "velocity": 0.5748031496062992
                },
                {
                    "duration": 0.3157404250000013,
                    "durationTicks": 341,
                    "midi": 74,
                    "name": "D5",
                    "ticks": 73320,
                    "time": 68.083267,
                    "velocity": 0.5748031496062992
                },
                {
                    "duration": 0.42129587499999843,
                    "durationTicks": 455,
                    "midi": 62,
                    "name": "D4",
                    "ticks": 73680,
                    "time": 68.4166,
                    "velocity": 0.6299212598425197
                },
                {
                    "duration": 0.42129587499999843,
                    "durationTicks": 455,
                    "midi": 67,
                    "name": "G4",
                    "ticks": 73680,
                    "time": 68.4166,
                    "velocity": 0.6299212598425197
                },
                {
                    "duration": 0.42129587499999843,
                    "durationTicks": 455,
                    "midi": 71,
                    "name": "B4",
                    "ticks": 73680,
                    "time": 68.4166,
                    "velocity": 0.6299212598425197
                },
                {
                    "duration": 0.42129587499999843,
                    "durationTicks": 455,
                    "midi": 74,
                    "name": "D5",
                    "ticks": 73680,
                    "time": 68.4166,
                    "velocity": 0.6299212598425197
                },
                {
                    "duration": 0.1046295250000071,
                    "durationTicks": 113,
                    "midi": 69,
                    "name": "A4",
                    "ticks": 73920,
                    "time": 68.638822,
                    "velocity": 0.7559055118110236
                },
                {
                    "duration": 0.1046295250000071,
                    "durationTicks": 113,
                    "midi": 64,
                    "name": "E4",
                    "ticks": 74040,
                    "time": 68.749933,
                    "velocity": 0.5433070866141733
                },
                {
                    "duration": 0.1046295249999929,
                    "durationTicks": 113,
                    "midi": 60,
                    "name": "C4",
                    "ticks": 74160,
                    "time": 68.861044,
                    "velocity": 0.5748031496062992
                },
                {
                    "duration": 0.4212958749999842,
                    "durationTicks": 455,
                    "midi": 64,
                    "name": "E4",
                    "ticks": 74160,
                    "time": 68.861044,
                    "velocity": 0.5748031496062992
                },
                {
                    "duration": 0.4212958749999842,
                    "durationTicks": 455,
                    "midi": 69,
                    "name": "A4",
                    "ticks": 74160,
                    "time": 68.861044,
                    "velocity": 0.5748031496062992
                },
                {
                    "duration": 0.4212958749999842,
                    "durationTicks": 455,
                    "midi": 72,
                    "name": "C5",
                    "ticks": 74160,
                    "time": 68.861044,
                    "velocity": 0.5748031496062992
                },
                {
                    "duration": 0.4212958749999842,
                    "durationTicks": 455,
                    "midi": 60,
                    "name": "C4",
                    "ticks": 74160,
                    "time": 68.861044,
                    "velocity": 0.5590551181102362
                },
                {
                    "duration": 0.1046295250000071,
                    "durationTicks": 113,
                    "midi": 93,
                    "name": "A6",
                    "ticks": 74280,
                    "time": 68.972155,
                    "velocity": 0.5590551181102362
                },
                {
                    "duration": 0.21018497500000421,
                    "durationTicks": 227,
                    "midi": 88,
                    "name": "E6",
                    "ticks": 74400,
                    "time": 69.083266,
                    "velocity": 0.5590551181102362
                },
                {
                    "duration": 0.3157404250000013,
                    "durationTicks": 341,
                    "midi": 81,
                    "name": "A5",
                    "ticks": 74520,
                    "time": 69.194377,
                    "velocity": 0.5669291338582677
                },
                {
                    "duration": 0.21018497500000421,
                    "durationTicks": 227,
                    "midi": 60,
                    "name": "C4",
                    "ticks": 74640,
                    "time": 69.305488,
                    "velocity": 0.6062992125984252
                },
                {
                    "duration": 0.21018497500000421,
                    "durationTicks": 227,
                    "midi": 72,
                    "name": "C5",
                    "ticks": 74640,
                    "time": 69.305488,
                    "velocity": 0.6062992125984252
                },
                {
                    "duration": 0.3157404250000013,
                    "durationTicks": 341,
                    "midi": 59,
                    "name": "B3",
                    "ticks": 74880,
                    "time": 69.52771,
                    "velocity": 0.5905511811023622
                },
                {
                    "duration": 0.3157404250000013,
                    "durationTicks": 341,
                    "midi": 64,
                    "name": "E4",
                    "ticks": 74880,
                    "time": 69.52771,
                    "velocity": 0.5905511811023622
                },
                {
                    "duration": 0.3157404250000013,
                    "durationTicks": 341,
                    "midi": 67,
                    "name": "G4",
                    "ticks": 74880,
                    "time": 69.52771,
                    "velocity": 0.5905511811023622
                },
                {
                    "duration": 0.3157404250000013,
                    "durationTicks": 341,
                    "midi": 71,
                    "name": "B4",
                    "ticks": 74880,
                    "time": 69.52771,
                    "velocity": 0.5905511811023622
                },
                {
                    "duration": 0.22129607499999793,
                    "durationTicks": 239,
                    "midi": 76,
                    "name": "E5",
                    "ticks": 74880,
                    "time": 69.52771,
                    "velocity": 0.5590551181102362
                },
                {
                    "duration": 0.31574042500001553,
                    "durationTicks": 341,
                    "midi": 60,
                    "name": "C4",
                    "ticks": 75240,
                    "time": 69.861043,
                    "velocity": 0.6299212598425197
                },
                {
                    "duration": 0.31574042500001553,
                    "durationTicks": 341,
                    "midi": 64,
                    "name": "E4",
                    "ticks": 75240,
                    "time": 69.861043,
                    "velocity": 0.6299212598425197
                },
                {
                    "duration": 0.31574042500001553,
                    "durationTicks": 341,
                    "midi": 67,
                    "name": "G4",
                    "ticks": 75240,
                    "time": 69.861043,
                    "velocity": 0.6299212598425197
                },
                {
                    "duration": 0.31574042500001553,
                    "durationTicks": 341,
                    "midi": 72,
                    "name": "C5",
                    "ticks": 75240,
                    "time": 69.861043,
                    "velocity": 0.6299212598425197
                },
                {
                    "duration": 0.4212958749999842,
                    "durationTicks": 455,
                    "midi": 67,
                    "name": "G4",
                    "ticks": 75600,
                    "time": 70.194376,
                    "velocity": 0.7165354330708661
                },
                {
                    "duration": 0.4212958749999842,
                    "durationTicks": 455,
                    "midi": 71,
                    "name": "B4",
                    "ticks": 75600,
                    "time": 70.194376,
                    "velocity": 0.7165354330708661
                },
                {
                    "duration": 0.4212958749999842,
                    "durationTicks": 455,
                    "midi": 76,
                    "name": "E5",
                    "ticks": 75600,
                    "time": 70.194376,
                    "velocity": 0.7165354330708661
                },
                {
                    "duration": 0.4212958749999842,
                    "durationTicks": 455,
                    "midi": 79,
                    "name": "G5",
                    "ticks": 75600,
                    "time": 70.194376,
                    "velocity": 0.7165354330708661
                },
                {
                    "duration": 0.1046295249999929,
                    "durationTicks": 113,
                    "midi": 64,
                    "name": "E4",
                    "ticks": 75840,
                    "time": 70.41659800000001,
                    "velocity": 0.7716535433070866
                },
                {
                    "duration": 0.1046295250000071,
                    "durationTicks": 113,
                    "midi": 59,
                    "name": "B3",
                    "ticks": 75960,
                    "time": 70.527709,
                    "velocity": 0.5905511811023622
                },
                {
                    "duration": 0.42129587499999843,
                    "durationTicks": 455,
                    "midi": 59,
                    "name": "B3",
                    "ticks": 76080,
                    "time": 70.63882,
                    "velocity": 0.48031496062992124
                },
                {
                    "duration": 0.42129587499999843,
                    "durationTicks": 455,
                    "midi": 64,
                    "name": "E4",
                    "ticks": 76080,
                    "time": 70.63882,
                    "velocity": 0.48031496062992124
                },
                {
                    "duration": 0.42129587499999843,
                    "durationTicks": 455,
                    "midi": 67,
                    "name": "G4",
                    "ticks": 76080,
                    "time": 70.63882,
                    "velocity": 0.48031496062992124
                },
                {
                    "duration": 0.42129587499999843,
                    "durationTicks": 455,
                    "midi": 71,
                    "name": "B4",
                    "ticks": 76080,
                    "time": 70.63882,
                    "velocity": 0.48031496062992124
                },
                {
                    "duration": 0.1046295250000071,
                    "durationTicks": 113,
                    "midi": 91,
                    "name": "G6",
                    "ticks": 76080,
                    "time": 70.63882,
                    "velocity": 0.5826771653543307
                },
                {
                    "duration": 0.1046295250000071,
                    "durationTicks": 113,
                    "midi": 88,
                    "name": "E6",
                    "ticks": 76200,
                    "time": 70.749931,
                    "velocity": 0.5748031496062992
                },
                {
                    "duration": 0.21018497500000421,
                    "durationTicks": 227,
                    "midi": 83,
                    "name": "B5",
                    "ticks": 76320,
                    "time": 70.861042,
                    "velocity": 0.5748031496062992
                },
                {
                    "duration": 0.3157404250000013,
                    "durationTicks": 341,
                    "midi": 76,
                    "name": "E5",
                    "ticks": 76440,
                    "time": 70.972153,
                    "velocity": 0.5590551181102362
                },
                {
                    "duration": 0.21018497500000421,
                    "durationTicks": 227,
                    "midi": 60,
                    "name": "C4",
                    "ticks": 76560,
                    "time": 71.083264,
                    "velocity": 0.6141732283464567
                },
                {
                    "duration": 0.21018497500000421,
                    "durationTicks": 227,
                    "midi": 72,
                    "name": "C5",
                    "ticks": 76560,
                    "time": 71.083264,
                    "velocity": 0.6141732283464567
                },
                {
                    "duration": 0.3157404250000013,
                    "durationTicks": 341,
                    "midi": 69,
                    "name": "A4",
                    "ticks": 76800,
                    "time": 71.305486,
                    "velocity": 0.7007874015748031
                },
                {
                    "duration": 0.3157404250000013,
                    "durationTicks": 341,
                    "midi": 72,
                    "name": "C5",
                    "ticks": 76800,
                    "time": 71.305486,
                    "velocity": 0.7007874015748031
                },
                {
                    "duration": 0.3157404250000013,
                    "durationTicks": 341,
                    "midi": 77,
                    "name": "F5",
                    "ticks": 76800,
                    "time": 71.305486,
                    "velocity": 0.7007874015748031
                },
                {
                    "duration": 0.3157404250000013,
                    "durationTicks": 341,
                    "midi": 81,
                    "name": "A5",
                    "ticks": 76800,
                    "time": 71.305486,
                    "velocity": 0.7007874015748031
                },
                {
                    "duration": 0.3157404250000013,
                    "durationTicks": 341,
                    "midi": 67,
                    "name": "G4",
                    "ticks": 77160,
                    "time": 71.638819,
                    "velocity": 0.5984251968503937
                },
                {
                    "duration": 0.3157404250000013,
                    "durationTicks": 341,
                    "midi": 72,
                    "name": "C5",
                    "ticks": 77160,
                    "time": 71.638819,
                    "velocity": 0.5984251968503937
                },
                {
                    "duration": 0.3157404250000013,
                    "durationTicks": 341,
                    "midi": 76,
                    "name": "E5",
                    "ticks": 77160,
                    "time": 71.638819,
                    "velocity": 0.5984251968503937
                },
                {
                    "duration": 0.3157404250000013,
                    "durationTicks": 341,
                    "midi": 79,
                    "name": "G5",
                    "ticks": 77160,
                    "time": 71.638819,
                    "velocity": 0.5984251968503937
                },
                {
                    "duration": 0.42129587499999843,
                    "durationTicks": 455,
                    "midi": 64,
                    "name": "E4",
                    "ticks": 77520,
                    "time": 71.972152,
                    "velocity": 0.5669291338582677
                },
                {
                    "duration": 0.42129587499999843,
                    "durationTicks": 455,
                    "midi": 67,
                    "name": "G4",
                    "ticks": 77520,
                    "time": 71.972152,
                    "velocity": 0.5669291338582677
                },
                {
                    "duration": 0.42129587499999843,
                    "durationTicks": 455,
                    "midi": 72,
                    "name": "C5",
                    "ticks": 77520,
                    "time": 71.972152,
                    "velocity": 0.5669291338582677
                },
                {
                    "duration": 0.42129587499999843,
                    "durationTicks": 455,
                    "midi": 76,
                    "name": "E5",
                    "ticks": 77520,
                    "time": 71.972152,
                    "velocity": 0.5669291338582677
                },
                {
                    "duration": 0.1046295250000071,
                    "durationTicks": 113,
                    "midi": 65,
                    "name": "F4",
                    "ticks": 77760,
                    "time": 72.194374,
                    "velocity": 0.7795275590551181
                },
                {
                    "duration": 0.1046295250000071,
                    "durationTicks": 113,
                    "midi": 60,
                    "name": "C4",
                    "ticks": 77880,
                    "time": 72.305485,
                    "velocity": 0.5984251968503937
                },
                {
                    "duration": 0.42129587499999843,
                    "durationTicks": 455,
                    "midi": 60,
                    "name": "C4",
                    "ticks": 78000,
                    "time": 72.416596,
                    "velocity": 0.5354330708661418
                },
                {
                    "duration": 0.42129587499999843,
                    "durationTicks": 455,
                    "midi": 64,
                    "name": "E4",
                    "ticks": 78000,
                    "time": 72.416596,
                    "velocity": 0.5354330708661418
                },
                {
                    "duration": 0.42129587499999843,
                    "durationTicks": 455,
                    "midi": 67,
                    "name": "G4",
                    "ticks": 78000,
                    "time": 72.416596,
                    "velocity": 0.5354330708661418
                },
                {
                    "duration": 0.42129587499999843,
                    "durationTicks": 455,
                    "midi": 72,
                    "name": "C5",
                    "ticks": 78000,
                    "time": 72.416596,
                    "velocity": 0.5354330708661418
                },
                {
                    "duration": 0.1046295250000071,
                    "durationTicks": 113,
                    "midi": 93,
                    "name": "A6",
                    "ticks": 78000,
                    "time": 72.416596,
                    "velocity": 0.5669291338582677
                },
                {
                    "duration": 0.1046295250000071,
                    "durationTicks": 113,
                    "midi": 89,
                    "name": "F6",
                    "ticks": 78120,
                    "time": 72.527707,
                    "velocity": 0.5748031496062992
                },
                {
                    "duration": 0.21018497500000421,
                    "durationTicks": 227,
                    "midi": 84,
                    "name": "C6",
                    "ticks": 78240,
                    "time": 72.638818,
                    "velocity": 0.5433070866141733
                },
                {
                    "duration": 0.31574042500001553,
                    "durationTicks": 341,
                    "midi": 77,
                    "name": "F5",
                    "ticks": 78360,
                    "time": 72.749929,
                    "velocity": 0.5590551181102362
                },
                {
                    "duration": 0.21018497499999,
                    "durationTicks": 227,
                    "midi": 60,
                    "name": "C4",
                    "ticks": 78480,
                    "time": 72.86104,
                    "velocity": 0.5984251968503937
                },
                {
                    "duration": 0.21018497499999,
                    "durationTicks": 227,
                    "midi": 72,
                    "name": "C5",
                    "ticks": 78480,
                    "time": 72.86104,
                    "velocity": 0.5984251968503937
                },
                {
                    "duration": 0.21018497499999,
                    "durationTicks": 227,
                    "midi": 65,
                    "name": "F4",
                    "ticks": 78480,
                    "time": 72.86104,
                    "velocity": 0.5354330708661418
                },
                {
                    "duration": 0.42129587499999843,
                    "durationTicks": 455,
                    "midi": 60,
                    "name": "C4",
                    "ticks": 78720,
                    "time": 73.083262,
                    "velocity": 0.5433070866141733
                },
                {
                    "duration": 0.42129587499999843,
                    "durationTicks": 455,
                    "midi": 62,
                    "name": "D4",
                    "ticks": 78720,
                    "time": 73.083262,
                    "velocity": 0.5433070866141733
                },
                {
                    "duration": 0.42129587499999843,
                    "durationTicks": 455,
                    "midi": 67,
                    "name": "G4",
                    "ticks": 78720,
                    "time": 73.083262,
                    "velocity": 0.5433070866141733
                },
                {
                    "duration": 0.42129587499999843,
                    "durationTicks": 455,
                    "midi": 72,
                    "name": "C5",
                    "ticks": 78720,
                    "time": 73.083262,
                    "velocity": 0.5433070866141733
                },
                {
                    "duration": 0.16574057500000094,
                    "durationTicks": 179,
                    "midi": 79,
                    "name": "G5",
                    "ticks": 78720,
                    "time": 73.083262,
                    "velocity": 0.6535433070866141
                },
                {
                    "duration": 0.5379624250000035,
                    "durationTicks": 581,
                    "midi": 67,
                    "name": "G4",
                    "ticks": 78720,
                    "time": 73.083262,
                    "velocity": 0.6535433070866141
                },
                {
                    "duration": 0.7712955249999993,
                    "durationTicks": 833,
                    "midi": 67,
                    "name": "G4",
                    "ticks": 78960,
                    "time": 73.305484,
                    "velocity": 0.5748031496062992
                },
                {
                    "duration": 0.21018497500000421,
                    "durationTicks": 227,
                    "midi": 79,
                    "name": "G5",
                    "ticks": 79080,
                    "time": 73.416595,
                    "velocity": 0.7007874015748031
                },
                {
                    "duration": 0.21018497500000421,
                    "durationTicks": 227,
                    "midi": 86,
                    "name": "D6",
                    "ticks": 79080,
                    "time": 73.416595,
                    "velocity": 0.7007874015748031
                },
                {
                    "duration": 0.21018497500000421,
                    "durationTicks": 227,
                    "midi": 71,
                    "name": "B4",
                    "ticks": 79200,
                    "time": 73.527706,
                    "velocity": 0.5748031496062992
                },
                {
                    "duration": 0.22129607500001214,
                    "durationTicks": 239,
                    "midi": 71,
                    "name": "B4",
                    "ticks": 79200,
                    "time": 73.527706,
                    "velocity": 0.5748031496062992
                },
                {
                    "duration": 0.5324068749999924,
                    "durationTicks": 575,
                    "midi": 67,
                    "name": "G4",
                    "ticks": 79320,
                    "time": 73.638817,
                    "velocity": 0.5669291338582677
                },
                {
                    "duration": 0.42129587499999843,
                    "durationTicks": 455,
                    "midi": 57,
                    "name": "A3",
                    "ticks": 79440,
                    "time": 73.749928,
                    "velocity": 0.5511811023622047
                },
                {
                    "duration": 0.42129587499999843,
                    "durationTicks": 455,
                    "midi": 62,
                    "name": "D4",
                    "ticks": 79440,
                    "time": 73.749928,
                    "velocity": 0.5511811023622047
                },
                {
                    "duration": 0.7324066750000071,
                    "durationTicks": 791,
                    "midi": 67,
                    "name": "G4",
                    "ticks": 79440,
                    "time": 73.749928,
                    "velocity": 0.5511811023622047
                },
                {
                    "duration": 0.42129587499999843,
                    "durationTicks": 455,
                    "midi": 69,
                    "name": "A4",
                    "ticks": 79440,
                    "time": 73.749928,
                    "velocity": 0.5511811023622047
                },
                {
                    "duration": 0.21018497500000421,
                    "durationTicks": 227,
                    "midi": 86,
                    "name": "D6",
                    "ticks": 79440,
                    "time": 73.749928,
                    "velocity": 0.6614173228346457
                },
                {
                    "duration": 0.21018497500000421,
                    "durationTicks": 227,
                    "midi": 91,
                    "name": "G6",
                    "ticks": 79440,
                    "time": 73.749928,
                    "velocity": 0.6614173228346457
                },
                {
                    "duration": 0.5879623750000036,
                    "durationTicks": 635,
                    "midi": 67,
                    "name": "G4",
                    "ticks": 79680,
                    "time": 73.97215,
                    "velocity": 0.7795275590551181
                },
                {
                    "duration": 0.1046295249999929,
                    "durationTicks": 113,
                    "midi": 62,
                    "name": "D4",
                    "ticks": 79800,
                    "time": 74.08326100000001,
                    "velocity": 0.5433070866141733
                },
                {
                    "duration": 0.1046295250000071,
                    "durationTicks": 113,
                    "midi": 59,
                    "name": "B3",
                    "ticks": 79920,
                    "time": 74.194372,
                    "velocity": 0.6299212598425197
                },
                {
                    "duration": 0.3324070750000061,
                    "durationTicks": 359,
                    "midi": 71,
                    "name": "B4",
                    "ticks": 79920,
                    "time": 74.194372,
                    "velocity": 0.6299212598425197
                },
                {
                    "duration": 0.3324070750000061,
                    "durationTicks": 359,
                    "midi": 59,
                    "name": "B3",
                    "ticks": 79920,
                    "time": 74.194372,
                    "velocity": 0.5433070866141733
                },
                {
                    "duration": 0.1046295250000071,
                    "durationTicks": 113,
                    "midi": 91,
                    "name": "G6",
                    "ticks": 80040,
                    "time": 74.305483,
                    "velocity": 0.5590551181102362
                },
                {
                    "duration": 0.21018497499999,
                    "durationTicks": 227,
                    "midi": 86,
                    "name": "D6",
                    "ticks": 80160,
                    "time": 74.416594,
                    "velocity": 0.5590551181102362
                },
                {
                    "duration": 0.3157404250000013,
                    "durationTicks": 341,
                    "midi": 79,
                    "name": "G5",
                    "ticks": 80280,
                    "time": 74.527705,
                    "velocity": 0.5118110236220472
                },
                {
                    "duration": 1.4379615250000057,
                    "durationTicks": 1553,
                    "midi": 60,
                    "name": "C4",
                    "ticks": 80400,
                    "time": 74.638816,
                    "velocity": 0.7086614173228346
                },
                {
                    "duration": 1.3268505249999976,
                    "durationTicks": 1433,
                    "midi": 64,
                    "name": "E4",
                    "ticks": 80400,
                    "time": 74.638816,
                    "velocity": 0.7086614173228346
                },
                {
                    "duration": 0.3879625750000031,
                    "durationTicks": 419,
                    "midi": 69,
                    "name": "A4",
                    "ticks": 80400,
                    "time": 74.638816,
                    "velocity": 0.7086614173228346
                },
                {
                    "duration": 1.476850374999998,
                    "durationTicks": 1595,
                    "midi": 72,
                    "name": "C5",
                    "ticks": 80400,
                    "time": 74.638816,
                    "velocity": 0.7086614173228346
                },
                {
                    "duration": 0.21018497499999,
                    "durationTicks": 227,
                    "midi": 67,
                    "name": "G4",
                    "ticks": 80400,
                    "time": 74.638816,
                    "velocity": 0.5354330708661418
                },
                {
                    "duration": 0.5379624250000035,
                    "durationTicks": 581,
                    "midi": 69,
                    "name": "A4",
                    "ticks": 80640,
                    "time": 74.86103800000001,
                    "velocity": 0.6299212598425197
                },
                {
                    "duration": 0.9935175250000015,
                    "durationTicks": 1073,
                    "midi": 69,
                    "name": "A4",
                    "ticks": 80640,
                    "time": 74.86103800000001,
                    "velocity": 0.6299212598425197
                },
                {
                    "duration": 1.0324063750000079,
                    "durationTicks": 1115,
                    "midi": 69,
                    "name": "A4",
                    "ticks": 80880,
                    "time": 75.08326,
                    "velocity": 0.5275590551181102
                },
                {
                    "duration": 0.21018497499999,
                    "durationTicks": 227,
                    "midi": 81,
                    "name": "A5",
                    "ticks": 81000,
                    "time": 75.194371,
                    "velocity": 0.6850393700787402
                },
                {
                    "duration": 0.21018497499999,
                    "durationTicks": 227,
                    "midi": 88,
                    "name": "E6",
                    "ticks": 81000,
                    "time": 75.194371,
                    "velocity": 0.6850393700787402
                },
                {
                    "duration": 0.8435176750000011,
                    "durationTicks": 911,
                    "midi": 69,
                    "name": "A4",
                    "ticks": 81240,
                    "time": 75.416593,
                    "velocity": 0.5275590551181102
                },
                {
                    "duration": 0.21018497500000421,
                    "durationTicks": 227,
                    "midi": 81,
                    "name": "A5",
                    "ticks": 81360,
                    "time": 75.527704,
                    "velocity": 0.6771653543307087
                },
                {
                    "duration": 0.21018497500000421,
                    "durationTicks": 227,
                    "midi": 88,
                    "name": "E6",
                    "ticks": 81360,
                    "time": 75.527704,
                    "velocity": 0.6771653543307087
                },
                {
                    "duration": 0.6666659999999922,
                    "durationTicks": 720,
                    "midi": 69,
                    "name": "A4",
                    "ticks": 81600,
                    "time": 75.749926,
                    "velocity": 0.8031496062992126
                },
                {
                    "duration": 0.2546293750000075,
                    "durationTicks": 275,
                    "midi": 64,
                    "name": "E4",
                    "ticks": 81720,
                    "time": 75.861037,
                    "velocity": 0.5748031496062992
                },
                {
                    "duration": 0.1435183749999993,
                    "durationTicks": 155,
                    "midi": 60,
                    "name": "C4",
                    "ticks": 81840,
                    "time": 75.972148,
                    "velocity": 0.5826771653543307
                },
                {
                    "duration": 0.1046295250000071,
                    "durationTicks": 113,
                    "midi": 93,
                    "name": "A6",
                    "ticks": 81960,
                    "time": 76.083259,
                    "velocity": 0.5748031496062992
                },
                {
                    "duration": 0.11018507499998975,
                    "durationTicks": 119,
                    "midi": 88,
                    "name": "E6",
                    "ticks": 82080,
                    "time": 76.19437,
                    "velocity": 0.5590551181102362
                },
                {
                    "duration": 0.3157404250000013,
                    "durationTicks": 341,
                    "midi": 81,
                    "name": "A5",
                    "ticks": 82200,
                    "time": 76.305481,
                    "velocity": 0.5275590551181102
                },
                {
                    "duration": 0.21018497500000421,
                    "durationTicks": 227,
                    "midi": 72,
                    "name": "C5",
                    "ticks": 82320,
                    "time": 76.416592,
                    "velocity": 0.5275590551181102
                },
                {
                    "duration": 0.21018497500000421,
                    "durationTicks": 227,
                    "midi": 69,
                    "name": "A4",
                    "ticks": 82320,
                    "time": 76.416592,
                    "velocity": 0.5354330708661418
                },
                {
                    "duration": 0.3157404250000013,
                    "durationTicks": 341,
                    "midi": 71,
                    "name": "B4",
                    "ticks": 82560,
                    "time": 76.638814,
                    "velocity": 0.5354330708661418
                },
                {
                    "duration": 0.16574057500000094,
                    "durationTicks": 179,
                    "midi": 64,
                    "name": "E4",
                    "ticks": 82560,
                    "time": 76.638814,
                    "velocity": 0.6535433070866141
                },
                {
                    "duration": 0.1046295250000071,
                    "durationTicks": 113,
                    "midi": 67,
                    "name": "G4",
                    "ticks": 82680,
                    "time": 76.749925,
                    "velocity": 0.5354330708661418
                },
                {
                    "duration": 0.11018507500000396,
                    "durationTicks": 119,
                    "midi": 64,
                    "name": "E4",
                    "ticks": 82800,
                    "time": 76.861036,
                    "velocity": 0.5511811023622047
                },
                {
                    "duration": 0.3157404250000013,
                    "durationTicks": 341,
                    "midi": 64,
                    "name": "E4",
                    "ticks": 82800,
                    "time": 76.861036,
                    "velocity": 0.5354330708661418
                },
                {
                    "duration": 0.3157404250000013,
                    "durationTicks": 341,
                    "midi": 72,
                    "name": "C5",
                    "ticks": 82920,
                    "time": 76.972147,
                    "velocity": 0.6220472440944882
                },
                {
                    "duration": 0.21018497499999,
                    "durationTicks": 227,
                    "midi": 71,
                    "name": "B4",
                    "ticks": 82920,
                    "time": 76.972147,
                    "velocity": 0.6141732283464567
                },
                {
                    "duration": 0.1046295250000071,
                    "durationTicks": 113,
                    "midi": 67,
                    "name": "G4",
                    "ticks": 83040,
                    "time": 77.083258,
                    "velocity": 0.5118110236220472
                },
                {
                    "duration": 0.11018507500000396,
                    "durationTicks": 119,
                    "midi": 64,
                    "name": "E4",
                    "ticks": 83160,
                    "time": 77.194369,
                    "velocity": 0.5275590551181102
                },
                {
                    "duration": 0.4379625250000174,
                    "durationTicks": 473,
                    "midi": 64,
                    "name": "E4",
                    "ticks": 83160,
                    "time": 77.194369,
                    "velocity": 0.5354330708661418
                },
                {
                    "duration": 0.21018497499999,
                    "durationTicks": 227,
                    "midi": 71,
                    "name": "B4",
                    "ticks": 83280,
                    "time": 77.30548,
                    "velocity": 0.5984251968503937
                },
                {
                    "duration": 0.42129587499999843,
                    "durationTicks": 455,
                    "midi": 71,
                    "name": "B4",
                    "ticks": 83280,
                    "time": 77.30548,
                    "velocity": 0.6377952755905512
                },
                {
                    "duration": 0.1046295250000071,
                    "durationTicks": 113,
                    "midi": 67,
                    "name": "G4",
                    "ticks": 83400,
                    "time": 77.416591,
                    "velocity": 0.5748031496062992
                },
                {
                    "duration": 0.29907377499999654,
                    "durationTicks": 323,
                    "midi": 64,
                    "name": "E4",
                    "ticks": 83520,
                    "time": 77.527702,
                    "velocity": 0.6850393700787402
                },
                {
                    "duration": 0.1046295250000071,
                    "durationTicks": 113,
                    "midi": 95,
                    "name": "B6",
                    "ticks": 83640,
                    "time": 77.638813,
                    "velocity": 0.5826771653543307
                },
                {
                    "duration": 0.11018507499998975,
                    "durationTicks": 119,
                    "midi": 67,
                    "name": "G4",
                    "ticks": 83760,
                    "time": 77.74992400000001,
                    "velocity": 0.4881889763779528
                },
                {
                    "duration": 0.4212958749999842,
                    "durationTicks": 455,
                    "midi": 67,
                    "name": "G4",
                    "ticks": 83760,
                    "time": 77.74992400000001,
                    "velocity": 0.5511811023622047
                },
                {
                    "duration": 0.5268513249999955,
                    "durationTicks": 569,
                    "midi": 64,
                    "name": "E4",
                    "ticks": 83880,
                    "time": 77.861035,
                    "velocity": 0.5590551181102362
                },
                {
                    "duration": 0.1046295250000071,
                    "durationTicks": 113,
                    "midi": 95,
                    "name": "B6",
                    "ticks": 84000,
                    "time": 77.972146,
                    "velocity": 0.5590551181102362
                },
                {
                    "duration": 0.1046295250000071,
                    "durationTicks": 113,
                    "midi": 91,
                    "name": "G6",
                    "ticks": 84120,
                    "time": 78.083257,
                    "velocity": 0.5590551181102362
                },
                {
                    "duration": 0.21018497500000421,
                    "durationTicks": 227,
                    "midi": 64,
                    "name": "E4",
                    "ticks": 84240,
                    "time": 78.194368,
                    "velocity": 0.7165354330708661
                },
                {
                    "duration": 0.21018497500000421,
                    "durationTicks": 227,
                    "midi": 64,
                    "name": "E4",
                    "ticks": 84240,
                    "time": 78.194368,
                    "velocity": 0.7165354330708661
                },
                {
                    "duration": 0.21018497500000421,
                    "durationTicks": 227,
                    "midi": 64,
                    "name": "E4",
                    "ticks": 84480,
                    "time": 78.41659,
                    "velocity": 0.7480314960629921
                },
                {
                    "duration": 0.21018497500000421,
                    "durationTicks": 227,
                    "midi": 69,
                    "name": "A4",
                    "ticks": 84480,
                    "time": 78.41659,
                    "velocity": 0.7480314960629921
                },
                {
                    "duration": 0.21018497500000421,
                    "durationTicks": 227,
                    "midi": 72,
                    "name": "C5",
                    "ticks": 84480,
                    "time": 78.41659,
                    "velocity": 0.7480314960629921
                },
                {
                    "duration": 0.21018497500000421,
                    "durationTicks": 227,
                    "midi": 76,
                    "name": "E5",
                    "ticks": 84480,
                    "time": 78.41659,
                    "velocity": 0.7480314960629921
                },
                {
                    "duration": 0.1046295250000071,
                    "durationTicks": 113,
                    "midi": 62,
                    "name": "D4",
                    "ticks": 84720,
                    "time": 78.638812,
                    "velocity": 0.6220472440944882
                },
                {
                    "duration": 0.1046295250000071,
                    "durationTicks": 113,
                    "midi": 74,
                    "name": "D5",
                    "ticks": 84720,
                    "time": 78.638812,
                    "velocity": 0.6220472440944882
                },
                {
                    "duration": 0.31574042500001553,
                    "durationTicks": 341,
                    "midi": 62,
                    "name": "D4",
                    "ticks": 84840,
                    "time": 78.749923,
                    "velocity": 0.5905511811023622
                },
                {
                    "duration": 0.31574042500001553,
                    "durationTicks": 341,
                    "midi": 65,
                    "name": "F4",
                    "ticks": 84840,
                    "time": 78.749923,
                    "velocity": 0.5905511811023622
                },
                {
                    "duration": 0.31574042500001553,
                    "durationTicks": 341,
                    "midi": 69,
                    "name": "A4",
                    "ticks": 84840,
                    "time": 78.749923,
                    "velocity": 0.5905511811023622
                },
                {
                    "duration": 0.31574042500001553,
                    "durationTicks": 341,
                    "midi": 74,
                    "name": "D5",
                    "ticks": 84840,
                    "time": 78.749923,
                    "velocity": 0.5905511811023622
                },
                {
                    "duration": 0.21018497499999,
                    "durationTicks": 227,
                    "midi": 62,
                    "name": "D4",
                    "ticks": 85200,
                    "time": 79.083256,
                    "velocity": 0.5748031496062992
                },
                {
                    "duration": 0.21018497499999,
                    "durationTicks": 227,
                    "midi": 74,
                    "name": "D5",
                    "ticks": 85200,
                    "time": 79.083256,
                    "velocity": 0.5748031496062992
                },
                {
                    "duration": 0.21018497499999,
                    "durationTicks": 227,
                    "midi": 62,
                    "name": "D4",
                    "ticks": 85440,
                    "time": 79.30547800000001,
                    "velocity": 0.6299212598425197
                },
                {
                    "duration": 0.21018497499999,
                    "durationTicks": 227,
                    "midi": 65,
                    "name": "F4",
                    "ticks": 85440,
                    "time": 79.30547800000001,
                    "velocity": 0.6299212598425197
                },
                {
                    "duration": 0.21018497499999,
                    "durationTicks": 227,
                    "midi": 69,
                    "name": "A4",
                    "ticks": 85440,
                    "time": 79.30547800000001,
                    "velocity": 0.6299212598425197
                },
                {
                    "duration": 0.21018497499999,
                    "durationTicks": 227,
                    "midi": 74,
                    "name": "D5",
                    "ticks": 85440,
                    "time": 79.30547800000001,
                    "velocity": 0.6299212598425197
                },
                {
                    "duration": 0.1046295250000071,
                    "durationTicks": 113,
                    "midi": 60,
                    "name": "C4",
                    "ticks": 85680,
                    "time": 79.5277,
                    "velocity": 0.5590551181102362
                },
                {
                    "duration": 0.1046295250000071,
                    "durationTicks": 113,
                    "midi": 72,
                    "name": "C5",
                    "ticks": 85680,
                    "time": 79.5277,
                    "velocity": 0.5590551181102362
                },
                {
                    "duration": 0.3157404250000013,
                    "durationTicks": 341,
                    "midi": 60,
                    "name": "C4",
                    "ticks": 85800,
                    "time": 79.638811,
                    "velocity": 0.5748031496062992
                },
                {
                    "duration": 0.3157404250000013,
                    "durationTicks": 341,
                    "midi": 65,
                    "name": "F4",
                    "ticks": 85800,
                    "time": 79.638811,
                    "velocity": 0.5748031496062992
                },
                {
                    "duration": 0.3157404250000013,
                    "durationTicks": 341,
                    "midi": 69,
                    "name": "A4",
                    "ticks": 85800,
                    "time": 79.638811,
                    "velocity": 0.5748031496062992
                },
                {
                    "duration": 0.3157404250000013,
                    "durationTicks": 341,
                    "midi": 72,
                    "name": "C5",
                    "ticks": 85800,
                    "time": 79.638811,
                    "velocity": 0.5748031496062992
                },
                {
                    "duration": 0.21018497500000421,
                    "durationTicks": 227,
                    "midi": 60,
                    "name": "C4",
                    "ticks": 86160,
                    "time": 79.972144,
                    "velocity": 0.6062992125984252
                },
                {
                    "duration": 0.21018497500000421,
                    "durationTicks": 227,
                    "midi": 72,
                    "name": "C5",
                    "ticks": 86160,
                    "time": 79.972144,
                    "velocity": 0.6062992125984252
                },
                {
                    "duration": 0.3157404250000013,
                    "durationTicks": 341,
                    "midi": 62,
                    "name": "D4",
                    "ticks": 86400,
                    "time": 80.194366,
                    "velocity": 0.5433070866141733
                },
                {
                    "duration": 0.3157404250000013,
                    "durationTicks": 341,
                    "midi": 67,
                    "name": "G4",
                    "ticks": 86400,
                    "time": 80.194366,
                    "velocity": 0.5433070866141733
                },
                {
                    "duration": 0.3157404250000013,
                    "durationTicks": 341,
                    "midi": 83,
                    "name": "B5",
                    "ticks": 86400,
                    "time": 80.194366,
                    "velocity": 0.5433070866141733
                },
                {
                    "duration": 0.3157404250000013,
                    "durationTicks": 341,
                    "midi": 71,
                    "name": "B4",
                    "ticks": 86400,
                    "time": 80.194366,
                    "velocity": 0.5433070866141733
                },
                {
                    "duration": 0.3157404250000013,
                    "durationTicks": 341,
                    "midi": 84,
                    "name": "C6",
                    "ticks": 86760,
                    "time": 80.527699,
                    "velocity": 0.6220472440944882
                },
                {
                    "duration": 0.3157404250000013,
                    "durationTicks": 341,
                    "midi": 72,
                    "name": "C5",
                    "ticks": 86760,
                    "time": 80.527699,
                    "velocity": 0.6220472440944882
                },
                {
                    "duration": 0.42129587499999843,
                    "durationTicks": 455,
                    "midi": 62,
                    "name": "D4",
                    "ticks": 87120,
                    "time": 80.861032,
                    "velocity": 0.5354330708661418
                },
                {
                    "duration": 0.42129587499999843,
                    "durationTicks": 455,
                    "midi": 67,
                    "name": "G4",
                    "ticks": 87120,
                    "time": 80.861032,
                    "velocity": 0.5354330708661418
                },
                {
                    "duration": 0.42129587499999843,
                    "durationTicks": 455,
                    "midi": 83,
                    "name": "B5",
                    "ticks": 87120,
                    "time": 80.861032,
                    "velocity": 0.5354330708661418
                },
                {
                    "duration": 0.42129587499999843,
                    "durationTicks": 455,
                    "midi": 71,
                    "name": "B4",
                    "ticks": 87120,
                    "time": 80.861032,
                    "velocity": 0.5354330708661418
                },
                {
                    "duration": 0.42129587499999843,
                    "durationTicks": 455,
                    "midi": 62,
                    "name": "D4",
                    "ticks": 87600,
                    "time": 81.305476,
                    "velocity": 0.5196850393700787
                },
                {
                    "duration": 0.42129587499999843,
                    "durationTicks": 455,
                    "midi": 67,
                    "name": "G4",
                    "ticks": 87600,
                    "time": 81.305476,
                    "velocity": 0.5196850393700787
                },
                {
                    "duration": 0.21018497499999,
                    "durationTicks": 227,
                    "midi": 64,
                    "name": "E4",
                    "ticks": 88080,
                    "time": 81.74992,
                    "velocity": 0.5433070866141733
                },
                {
                    "duration": 0.21018497499999,
                    "durationTicks": 227,
                    "midi": 64,
                    "name": "E4",
                    "ticks": 88320,
                    "time": 81.972142,
                    "velocity": 0.7716535433070866
                },
                {
                    "duration": 0.21018497499999,
                    "durationTicks": 227,
                    "midi": 69,
                    "name": "A4",
                    "ticks": 88320,
                    "time": 81.972142,
                    "velocity": 0.7716535433070866
                },
                {
                    "duration": 0.21018497499999,
                    "durationTicks": 227,
                    "midi": 72,
                    "name": "C5",
                    "ticks": 88320,
                    "time": 81.972142,
                    "velocity": 0.7716535433070866
                },
                {
                    "duration": 0.21018497499999,
                    "durationTicks": 227,
                    "midi": 76,
                    "name": "E5",
                    "ticks": 88320,
                    "time": 81.972142,
                    "velocity": 0.7716535433070866
                },
                {
                    "duration": 0.1046295249999929,
                    "durationTicks": 113,
                    "midi": 62,
                    "name": "D4",
                    "ticks": 88560,
                    "time": 82.19436400000001,
                    "velocity": 0.6062992125984252
                },
                {
                    "duration": 0.1046295249999929,
                    "durationTicks": 113,
                    "midi": 74,
                    "name": "D5",
                    "ticks": 88560,
                    "time": 82.19436400000001,
                    "velocity": 0.6062992125984252
                },
                {
                    "duration": 0.3157404250000013,
                    "durationTicks": 341,
                    "midi": 62,
                    "name": "D4",
                    "ticks": 88680,
                    "time": 82.305475,
                    "velocity": 0.5669291338582677
                },
                {
                    "duration": 0.3157404250000013,
                    "durationTicks": 341,
                    "midi": 67,
                    "name": "G4",
                    "ticks": 88680,
                    "time": 82.305475,
                    "velocity": 0.5669291338582677
                },
                {
                    "duration": 0.3157404250000013,
                    "durationTicks": 341,
                    "midi": 71,
                    "name": "B4",
                    "ticks": 88680,
                    "time": 82.305475,
                    "velocity": 0.5669291338582677
                },
                {
                    "duration": 0.3157404250000013,
                    "durationTicks": 341,
                    "midi": 74,
                    "name": "D5",
                    "ticks": 88680,
                    "time": 82.305475,
                    "velocity": 0.5669291338582677
                },
                {
                    "duration": 0.21018497500000421,
                    "durationTicks": 227,
                    "midi": 62,
                    "name": "D4",
                    "ticks": 89040,
                    "time": 82.638808,
                    "velocity": 0.5905511811023622
                },
                {
                    "duration": 0.21018497500000421,
                    "durationTicks": 227,
                    "midi": 74,
                    "name": "D5",
                    "ticks": 89040,
                    "time": 82.638808,
                    "velocity": 0.5905511811023622
                },
                {
                    "duration": 0.21018497500000421,
                    "durationTicks": 227,
                    "midi": 62,
                    "name": "D4",
                    "ticks": 89280,
                    "time": 82.86103,
                    "velocity": 0.5984251968503937
                },
                {
                    "duration": 0.21018497500000421,
                    "durationTicks": 227,
                    "midi": 67,
                    "name": "G4",
                    "ticks": 89280,
                    "time": 82.86103,
                    "velocity": 0.5984251968503937
                },
                {
                    "duration": 0.21018497500000421,
                    "durationTicks": 227,
                    "midi": 71,
                    "name": "B4",
                    "ticks": 89280,
                    "time": 82.86103,
                    "velocity": 0.5984251968503937
                },
                {
                    "duration": 0.21018497500000421,
                    "durationTicks": 227,
                    "midi": 74,
                    "name": "D5",
                    "ticks": 89280,
                    "time": 82.86103,
                    "velocity": 0.5984251968503937
                },
                {
                    "duration": 0.1046295250000071,
                    "durationTicks": 113,
                    "midi": 60,
                    "name": "C4",
                    "ticks": 89520,
                    "time": 83.083252,
                    "velocity": 0.5275590551181102
                },
                {
                    "duration": 0.1046295250000071,
                    "durationTicks": 113,
                    "midi": 72,
                    "name": "C5",
                    "ticks": 89520,
                    "time": 83.083252,
                    "velocity": 0.5275590551181102
                },
                {
                    "duration": 0.31574042500001553,
                    "durationTicks": 341,
                    "midi": 60,
                    "name": "C4",
                    "ticks": 89640,
                    "time": 83.194363,
                    "velocity": 0.5905511811023622
                },
                {
                    "duration": 0.31574042500001553,
                    "durationTicks": 341,
                    "midi": 64,
                    "name": "E4",
                    "ticks": 89640,
                    "time": 83.194363,
                    "velocity": 0.5905511811023622
                },
                {
                    "duration": 0.31574042500001553,
                    "durationTicks": 341,
                    "midi": 69,
                    "name": "A4",
                    "ticks": 89640,
                    "time": 83.194363,
                    "velocity": 0.5905511811023622
                },
                {
                    "duration": 0.31574042500001553,
                    "durationTicks": 341,
                    "midi": 72,
                    "name": "C5",
                    "ticks": 89640,
                    "time": 83.194363,
                    "velocity": 0.5905511811023622
                },
                {
                    "duration": 0.21018497499999,
                    "durationTicks": 227,
                    "midi": 60,
                    "name": "C4",
                    "ticks": 90000,
                    "time": 83.527696,
                    "velocity": 0.5984251968503937
                },
                {
                    "duration": 0.21018497499999,
                    "durationTicks": 227,
                    "midi": 72,
                    "name": "C5",
                    "ticks": 90000,
                    "time": 83.527696,
                    "velocity": 0.5984251968503937
                },
                {
                    "duration": 0.3157404250000013,
                    "durationTicks": 341,
                    "midi": 83,
                    "name": "B5",
                    "ticks": 90240,
                    "time": 83.74991800000001,
                    "velocity": 0.5669291338582677
                },
                {
                    "duration": 0.3157404250000013,
                    "durationTicks": 341,
                    "midi": 64,
                    "name": "E4",
                    "ticks": 90240,
                    "time": 83.74991800000001,
                    "velocity": 0.5669291338582677
                },
                {
                    "duration": 0.3157404250000013,
                    "durationTicks": 341,
                    "midi": 67,
                    "name": "G4",
                    "ticks": 90240,
                    "time": 83.74991800000001,
                    "velocity": 0.5669291338582677
                },
                {
                    "duration": 0.3157404250000013,
                    "durationTicks": 341,
                    "midi": 71,
                    "name": "B4",
                    "ticks": 90240,
                    "time": 83.74991800000001,
                    "velocity": 0.5669291338582677
                },
                {
                    "duration": 0.3157404250000013,
                    "durationTicks": 341,
                    "midi": 84,
                    "name": "C6",
                    "ticks": 90600,
                    "time": 84.083251,
                    "velocity": 0.6062992125984252
                },
                {
                    "duration": 0.3157404250000013,
                    "durationTicks": 341,
                    "midi": 72,
                    "name": "C5",
                    "ticks": 90600,
                    "time": 84.083251,
                    "velocity": 0.6062992125984252
                },
                {
                    "duration": 0.42129587499999843,
                    "durationTicks": 455,
                    "midi": 67,
                    "name": "G4",
                    "ticks": 90960,
                    "time": 84.416584,
                    "velocity": 0.7244094488188977
                },
                {
                    "duration": 0.42129587499999843,
                    "durationTicks": 455,
                    "midi": 71,
                    "name": "B4",
                    "ticks": 90960,
                    "time": 84.416584,
                    "velocity": 0.7244094488188977
                },
                {
                    "duration": 0.42129587499999843,
                    "durationTicks": 455,
                    "midi": 76,
                    "name": "E5",
                    "ticks": 90960,
                    "time": 84.416584,
                    "velocity": 0.7244094488188977
                },
                {
                    "duration": 0.42129587499999843,
                    "durationTicks": 455,
                    "midi": 79,
                    "name": "G5",
                    "ticks": 90960,
                    "time": 84.416584,
                    "velocity": 0.7244094488188977
                },
                {
                    "duration": 0.42129587499999843,
                    "durationTicks": 455,
                    "midi": 83,
                    "name": "B5",
                    "ticks": 91440,
                    "time": 84.861028,
                    "velocity": 0.5118110236220472
                },
                {
                    "duration": 0.42129587499999843,
                    "durationTicks": 455,
                    "midi": 64,
                    "name": "E4",
                    "ticks": 91440,
                    "time": 84.861028,
                    "velocity": 0.5118110236220472
                },
                {
                    "duration": 0.42129587499999843,
                    "durationTicks": 455,
                    "midi": 67,
                    "name": "G4",
                    "ticks": 91440,
                    "time": 84.861028,
                    "velocity": 0.5118110236220472
                },
                {
                    "duration": 0.42129587499999843,
                    "durationTicks": 455,
                    "midi": 71,
                    "name": "B4",
                    "ticks": 91440,
                    "time": 84.861028,
                    "velocity": 0.5118110236220472
                },
                {
                    "duration": 0.21018497500000421,
                    "durationTicks": 227,
                    "midi": 60,
                    "name": "C4",
                    "ticks": 91920,
                    "time": 85.305472,
                    "velocity": 0.6062992125984252
                },
                {
                    "duration": 0.21018497500000421,
                    "durationTicks": 227,
                    "midi": 72,
                    "name": "C5",
                    "ticks": 91920,
                    "time": 85.305472,
                    "velocity": 0.6062992125984252
                },
                {
                    "duration": 0.3157404250000013,
                    "durationTicks": 341,
                    "midi": 69,
                    "name": "A4",
                    "ticks": 92160,
                    "time": 85.527694,
                    "velocity": 0.7480314960629921
                },
                {
                    "duration": 0.3157404250000013,
                    "durationTicks": 341,
                    "midi": 72,
                    "name": "C5",
                    "ticks": 92160,
                    "time": 85.527694,
                    "velocity": 0.7480314960629921
                },
                {
                    "duration": 0.3157404250000013,
                    "durationTicks": 341,
                    "midi": 77,
                    "name": "F5",
                    "ticks": 92160,
                    "time": 85.527694,
                    "velocity": 0.7480314960629921
                },
                {
                    "duration": 0.3157404250000013,
                    "durationTicks": 341,
                    "midi": 81,
                    "name": "A5",
                    "ticks": 92160,
                    "time": 85.527694,
                    "velocity": 0.7480314960629921
                },
                {
                    "duration": 0.3157404250000013,
                    "durationTicks": 341,
                    "midi": 67,
                    "name": "G4",
                    "ticks": 92520,
                    "time": 85.861027,
                    "velocity": 0.5826771653543307
                },
                {
                    "duration": 0.3157404250000013,
                    "durationTicks": 341,
                    "midi": 72,
                    "name": "C5",
                    "ticks": 92520,
                    "time": 85.861027,
                    "velocity": 0.5826771653543307
                },
                {
                    "duration": 0.3157404250000013,
                    "durationTicks": 341,
                    "midi": 76,
                    "name": "E5",
                    "ticks": 92520,
                    "time": 85.861027,
                    "velocity": 0.5826771653543307
                },
                {
                    "duration": 0.3157404250000013,
                    "durationTicks": 341,
                    "midi": 79,
                    "name": "G5",
                    "ticks": 92520,
                    "time": 85.861027,
                    "velocity": 0.5826771653543307
                },
                {
                    "duration": 0.21018497499999,
                    "durationTicks": 227,
                    "midi": 64,
                    "name": "E4",
                    "ticks": 92880,
                    "time": 86.19436,
                    "velocity": 0.5039370078740157
                },
                {
                    "duration": 0.21018497499999,
                    "durationTicks": 227,
                    "midi": 76,
                    "name": "E5",
                    "ticks": 92880,
                    "time": 86.19436,
                    "velocity": 0.5039370078740157
                },
                {
                    "duration": 0.1046295250000071,
                    "durationTicks": 113,
                    "midi": 60,
                    "name": "C4",
                    "ticks": 92880,
                    "time": 86.19436,
                    "velocity": 0.6535433070866141
                },
                {
                    "duration": 0.32685152499999504,
                    "durationTicks": 353,
                    "midi": 60,
                    "name": "C4",
                    "ticks": 93120,
                    "time": 86.416582,
                    "velocity": 0.5039370078740157
                },
                {
                    "duration": 0.6324067750000069,
                    "durationTicks": 683,
                    "midi": 64,
                    "name": "E4",
                    "ticks": 93120,
                    "time": 86.416582,
                    "velocity": 0.5039370078740157
                },
                {
                    "duration": 0.6324067750000069,
                    "durationTicks": 683,
                    "midi": 67,
                    "name": "G4",
                    "ticks": 93120,
                    "time": 86.416582,
                    "velocity": 0.5039370078740157
                },
                {
                    "duration": 0.6324067750000069,
                    "durationTicks": 683,
                    "midi": 72,
                    "name": "C5",
                    "ticks": 93120,
                    "time": 86.416582,
                    "velocity": 0.5039370078740157
                },
                {
                    "duration": 0.1046295250000071,
                    "durationTicks": 113,
                    "midi": 69,
                    "name": "A4",
                    "ticks": 93120,
                    "time": 86.416582,
                    "velocity": 0.7086614173228346
                },
                {
                    "duration": 0.4101847750000047,
                    "durationTicks": 443,
                    "midi": 60,
                    "name": "C4",
                    "ticks": 93360,
                    "time": 86.63880400000001,
                    "velocity": 0.5118110236220472
                },
                {
                    "duration": 0.21018497500000421,
                    "durationTicks": 227,
                    "midi": 72,
                    "name": "C5",
                    "ticks": 93840,
                    "time": 87.083248,
                    "velocity": 0.5590551181102362
                },
                {
                    "duration": 0.21018497500000421,
                    "durationTicks": 227,
                    "midi": 72,
                    "name": "C5",
                    "ticks": 93840,
                    "time": 87.083248,
                    "velocity": 0.5590551181102362
                },
                {
                    "duration": 0.42129587499999843,
                    "durationTicks": 455,
                    "midi": 60,
                    "name": "C4",
                    "ticks": 94080,
                    "time": 87.30547,
                    "velocity": 0.5590551181102362
                },
                {
                    "duration": 0.42129587499999843,
                    "durationTicks": 455,
                    "midi": 62,
                    "name": "D4",
                    "ticks": 94080,
                    "time": 87.30547,
                    "velocity": 0.5590551181102362
                },
                {
                    "duration": 0.42129587499999843,
                    "durationTicks": 455,
                    "midi": 67,
                    "name": "G4",
                    "ticks": 94080,
                    "time": 87.30547,
                    "velocity": 0.5590551181102362
                },
                {
                    "duration": 0.42129587499999843,
                    "durationTicks": 455,
                    "midi": 72,
                    "name": "C5",
                    "ticks": 94080,
                    "time": 87.30547,
                    "velocity": 0.5590551181102362
                },
                {
                    "duration": 0.21018497499999,
                    "durationTicks": 227,
                    "midi": 83,
                    "name": "B5",
                    "ticks": 94560,
                    "time": 87.749914,
                    "velocity": 0.5748031496062992
                },
                {
                    "duration": 0.21018497499999,
                    "durationTicks": 227,
                    "midi": 71,
                    "name": "B4",
                    "ticks": 94560,
                    "time": 87.749914,
                    "velocity": 0.5748031496062992
                },
                {
                    "duration": 0.4212958749999842,
                    "durationTicks": 455,
                    "midi": 81,
                    "name": "A5",
                    "ticks": 94800,
                    "time": 87.972136,
                    "velocity": 0.5590551181102362
                },
                {
                    "duration": 0.4212958749999842,
                    "durationTicks": 455,
                    "midi": 62,
                    "name": "D4",
                    "ticks": 94800,
                    "time": 87.972136,
                    "velocity": 0.5590551181102362
                },
                {
                    "duration": 0.4212958749999842,
                    "durationTicks": 455,
                    "midi": 67,
                    "name": "G4",
                    "ticks": 94800,
                    "time": 87.972136,
                    "velocity": 0.5590551181102362
                },
                {
                    "duration": 0.4212958749999842,
                    "durationTicks": 455,
                    "midi": 69,
                    "name": "A4",
                    "ticks": 94800,
                    "time": 87.972136,
                    "velocity": 0.5590551181102362
                },
                {
                    "duration": 0.6324067750000069,
                    "durationTicks": 683,
                    "midi": 83,
                    "name": "B5",
                    "ticks": 94800,
                    "time": 87.972136,
                    "velocity": 0.8031496062992126
                },
                {
                    "duration": 0.6324067750000069,
                    "durationTicks": 683,
                    "midi": 62,
                    "name": "D4",
                    "ticks": 94800,
                    "time": 87.972136,
                    "velocity": 0.8031496062992126
                },
                {
                    "duration": 0.6324067750000069,
                    "durationTicks": 683,
                    "midi": 67,
                    "name": "G4",
                    "ticks": 94800,
                    "time": 87.972136,
                    "velocity": 0.8031496062992126
                },
                {
                    "duration": 0.42129587499999843,
                    "durationTicks": 455,
                    "midi": 71,
                    "name": "B4",
                    "ticks": 95280,
                    "time": 88.41658,
                    "velocity": 0.5984251968503937
                },
                {
                    "duration": 0.42129587499999843,
                    "durationTicks": 455,
                    "midi": 71,
                    "name": "B4",
                    "ticks": 95280,
                    "time": 88.41658,
                    "velocity": 0.5984251968503937
                },
                {
                    "duration": 1.4444430000000068,
                    "durationTicks": 1560,
                    "midi": 72,
                    "name": "C5",
                    "ticks": 95760,
                    "time": 88.861024,
                    "velocity": 0.6535433070866141
                },
                {
                    "duration": 1.0546285749999953,
                    "durationTicks": 1139,
                    "midi": 76,
                    "name": "E5",
                    "ticks": 95760,
                    "time": 88.861024,
                    "velocity": 0.6535433070866141
                },
                {
                    "duration": 1.7601834250000081,
                    "durationTicks": 1901,
                    "midi": 72,
                    "name": "C5",
                    "ticks": 95760,
                    "time": 88.861024,
                    "velocity": 0.6535433070866141
                },
                {
                    "duration": 1.8990721750000006,
                    "durationTicks": 2051,
                    "midi": 81,
                    "name": "A5",
                    "ticks": 95760,
                    "time": 88.861024,
                    "velocity": 0.6535433070866141
                },
                {
                    "duration": 0.1046295250000071,
                    "durationTicks": 113,
                    "midi": 69,
                    "name": "A4",
                    "ticks": 96240,
                    "time": 89.305468,
                    "velocity": 0.6456692913385826
                },
                {
                    "duration": 0.1046295250000071,
                    "durationTicks": 113,
                    "midi": 64,
                    "name": "E4",
                    "ticks": 96360,
                    "time": 89.416579,
                    "velocity": 0.5118110236220472
                },
                {
                    "duration": 0.1046295250000071,
                    "durationTicks": 113,
                    "midi": 69,
                    "name": "A4",
                    "ticks": 96480,
                    "time": 89.52769,
                    "velocity": 0.7165354330708661
                },
                {
                    "duration": 0.1046295250000071,
                    "durationTicks": 113,
                    "midi": 64,
                    "name": "E4",
                    "ticks": 96600,
                    "time": 89.638801,
                    "velocity": 0.5039370078740157
                },
                {
                    "duration": 0.1046295250000071,
                    "durationTicks": 113,
                    "midi": 69,
                    "name": "A4",
                    "ticks": 96720,
                    "time": 89.749912,
                    "velocity": 0.6929133858267716
                },
                {
                    "duration": 0.1046295250000071,
                    "durationTicks": 113,
                    "midi": 64,
                    "name": "E4",
                    "ticks": 96840,
                    "time": 89.861023,
                    "velocity": 0.49606299212598426
                },
                {
                    "duration": 0.8435176750000011,
                    "durationTicks": 911,
                    "midi": 76,
                    "name": "E5",
                    "ticks": 96960,
                    "time": 89.972134,
                    "velocity": 0.8267716535433071
                },
                {
                    "duration": 0.3324070750000061,
                    "durationTicks": 359,
                    "midi": 69,
                    "name": "A4",
                    "ticks": 96960,
                    "time": 89.972134,
                    "velocity": 0.7165354330708661
                },
                {
                    "duration": 0.7879621750000041,
                    "durationTicks": 851,
                    "midi": 72,
                    "name": "C5",
                    "ticks": 96960,
                    "time": 89.972134,
                    "velocity": 0.7165354330708661
                },
                {
                    "duration": 0.1046295250000071,
                    "durationTicks": 113,
                    "midi": 64,
                    "name": "E4",
                    "ticks": 97080,
                    "time": 90.083245,
                    "velocity": 0.44881889763779526
                },
                {
                    "duration": 0.44351807500000007,
                    "durationTicks": 479,
                    "midi": 69,
                    "name": "A4",
                    "ticks": 97200,
                    "time": 90.194356,
                    "velocity": 0.6771653543307087
                },
                {
                    "duration": 0.5101846749999908,
                    "durationTicks": 551,
                    "midi": 72,
                    "name": "C5",
                    "ticks": 97320,
                    "time": 90.30546700000001,
                    "velocity": 0.6692913385826772
                },
                {
                    "duration": 0.1046295250000071,
                    "durationTicks": 113,
                    "midi": 64,
                    "name": "E4",
                    "ticks": 97440,
                    "time": 90.416578,
                    "velocity": 0.4881889763779528
                },
                {
                    "duration": 0.28796267500000283,
                    "durationTicks": 311,
                    "midi": 69,
                    "name": "A4",
                    "ticks": 97560,
                    "time": 90.527689,
                    "velocity": 0.6850393700787402
                },
                {
                    "duration": 0.21018497499999,
                    "durationTicks": 227,
                    "midi": 72,
                    "name": "C5",
                    "ticks": 97680,
                    "time": 90.6388,
                    "velocity": 0.6692913385826772
                },
                {
                    "duration": 0.1046295250000071,
                    "durationTicks": 113,
                    "midi": 64,
                    "name": "E4",
                    "ticks": 97800,
                    "time": 90.749911,
                    "velocity": 0.47244094488188976
                },
                {
                    "duration": 0.1046295250000071,
                    "durationTicks": 113,
                    "midi": 76,
                    "name": "E5",
                    "ticks": 97920,
                    "time": 90.861022,
                    "velocity": 0.5590551181102362
                },
                {
                    "duration": 0.3157404250000013,
                    "durationTicks": 341,
                    "midi": 69,
                    "name": "A4",
                    "ticks": 97920,
                    "time": 90.861022,
                    "velocity": 0.6299212598425197
                },
                {
                    "duration": 0.1046295250000071,
                    "durationTicks": 113,
                    "midi": 64,
                    "name": "E4",
                    "ticks": 98040,
                    "time": 90.972133,
                    "velocity": 0.4409448818897638
                },
                {
                    "duration": 0.1046295249999929,
                    "durationTicks": 113,
                    "midi": 67,
                    "name": "G4",
                    "ticks": 98160,
                    "time": 91.08324400000001,
                    "velocity": 0.6220472440944882
                },
                {
                    "duration": 0.1046295250000071,
                    "durationTicks": 113,
                    "midi": 72,
                    "name": "C5",
                    "ticks": 98280,
                    "time": 91.194355,
                    "velocity": 0.6692913385826772
                },
                {
                    "duration": 0.3157404250000013,
                    "durationTicks": 341,
                    "midi": 69,
                    "name": "A4",
                    "ticks": 98280,
                    "time": 91.194355,
                    "velocity": 0.5196850393700787
                },
                {
                    "duration": 0.1046295250000071,
                    "durationTicks": 113,
                    "midi": 64,
                    "name": "E4",
                    "ticks": 98400,
                    "time": 91.305466,
                    "velocity": 0.5039370078740157
                },
                {
                    "duration": 0.1046295250000071,
                    "durationTicks": 113,
                    "midi": 67,
                    "name": "G4",
                    "ticks": 98520,
                    "time": 91.416577,
                    "velocity": 0.6377952755905512
                },
                {
                    "duration": 0.1046295250000071,
                    "durationTicks": 113,
                    "midi": 72,
                    "name": "C5",
                    "ticks": 98640,
                    "time": 91.527688,
                    "velocity": 0.6850393700787402
                },
                {
                    "duration": 1.0546285750000095,
                    "durationTicks": 1139,
                    "midi": 69,
                    "name": "A4",
                    "ticks": 98640,
                    "time": 91.527688,
                    "velocity": 0.5905511811023622
                },
                {
                    "duration": 0.1046295250000071,
                    "durationTicks": 113,
                    "midi": 64,
                    "name": "E4",
                    "ticks": 98760,
                    "time": 91.638799,
                    "velocity": 0.5118110236220472
                },
                {
                    "duration": 0.11018507500000396,
                    "durationTicks": 119,
                    "midi": 76,
                    "name": "E5",
                    "ticks": 98880,
                    "time": 91.74991,
                    "velocity": 0.84251968503937
                },
                {
                    "duration": 0.11111100000000818,
                    "durationTicks": 120,
                    "midi": 76,
                    "name": "E5",
                    "ticks": 98880,
                    "time": 91.74991,
                    "velocity": 0.7165354330708661
                },
                {
                    "duration": 0.4379625250000032,
                    "durationTicks": 473,
                    "midi": 72,
                    "name": "C5",
                    "ticks": 98880,
                    "time": 91.74991,
                    "velocity": 0.7165354330708661
                },
                {
                    "duration": 0.3157404250000013,
                    "durationTicks": 341,
                    "midi": 64,
                    "name": "E4",
                    "ticks": 99000,
                    "time": 91.86102100000001,
                    "velocity": 0.47244094488188976
                },
                {
                    "duration": 0.1046295250000071,
                    "durationTicks": 113,
                    "midi": 67,
                    "name": "G4",
                    "ticks": 99120,
                    "time": 91.972132,
                    "velocity": 0.6535433070866141
                },
                {
                    "duration": 0.4379625250000174,
                    "durationTicks": 473,
                    "midi": 72,
                    "name": "C5",
                    "ticks": 99240,
                    "time": 92.083243,
                    "velocity": 0.6692913385826772
                },
                {
                    "duration": 0.3333329999999961,
                    "durationTicks": 360,
                    "midi": 64,
                    "name": "E4",
                    "ticks": 99360,
                    "time": 92.194354,
                    "velocity": 0.5039370078740157
                },
                {
                    "duration": 0.1046295250000071,
                    "durationTicks": 113,
                    "midi": 67,
                    "name": "G4",
                    "ticks": 99480,
                    "time": 92.305465,
                    "velocity": 0.6220472440944882
                },
                {
                    "duration": 0.17685167499999466,
                    "durationTicks": 191,
                    "midi": 72,
                    "name": "C5",
                    "ticks": 99600,
                    "time": 92.416576,
                    "velocity": 0.6771653543307087
                },
                {
                    "duration": 0.1046295250000071,
                    "durationTicks": 113,
                    "midi": 64,
                    "name": "E4",
                    "ticks": 99720,
                    "time": 92.527687,
                    "velocity": 0.4881889763779528
                },
                {
                    "duration": 0.1046295250000071,
                    "durationTicks": 113,
                    "midi": 74,
                    "name": "D5",
                    "ticks": 99840,
                    "time": 92.638798,
                    "velocity": 0.7637795275590551
                },
                {
                    "duration": 0.31574042500001553,
                    "durationTicks": 341,
                    "midi": 67,
                    "name": "G4",
                    "ticks": 99840,
                    "time": 92.638798,
                    "velocity": 0.5826771653543307
                },
                {
                    "duration": 0.1046295250000071,
                    "durationTicks": 113,
                    "midi": 62,
                    "name": "D4",
                    "ticks": 99960,
                    "time": 92.749909,
                    "velocity": 0.4409448818897638
                },
                {
                    "duration": 0.1046295250000071,
                    "durationTicks": 113,
                    "midi": 67,
                    "name": "G4",
                    "ticks": 100080,
                    "time": 92.86102,
                    "velocity": 0.6535433070866141
                },
                {
                    "duration": 0.1046295250000071,
                    "durationTicks": 113,
                    "midi": 72,
                    "name": "C5",
                    "ticks": 100200,
                    "time": 92.972131,
                    "velocity": 0.6692913385826772
                },
                {
                    "duration": 0.3157404250000013,
                    "durationTicks": 341,
                    "midi": 67,
                    "name": "G4",
                    "ticks": 100200,
                    "time": 92.972131,
                    "velocity": 0.5433070866141733
                },
                {
                    "duration": 0.1046295250000071,
                    "durationTicks": 113,
                    "midi": 62,
                    "name": "D4",
                    "ticks": 100320,
                    "time": 93.083242,
                    "velocity": 0.49606299212598426
                },
                {
                    "duration": 0.1046295250000071,
                    "durationTicks": 113,
                    "midi": 67,
                    "name": "G4",
                    "ticks": 100440,
                    "time": 93.194353,
                    "velocity": 0.6929133858267716
                },
                {
                    "duration": 0.1046295250000071,
                    "durationTicks": 113,
                    "midi": 72,
                    "name": "C5",
                    "ticks": 100560,
                    "time": 93.305464,
                    "velocity": 0.6850393700787402
                },
                {
                    "duration": 0.5490735250000114,
                    "durationTicks": 593,
                    "midi": 67,
                    "name": "G4",
                    "ticks": 100560,
                    "time": 93.305464,
                    "velocity": 0.5826771653543307
                },
                {
                    "duration": 0.1046295250000071,
                    "durationTicks": 113,
                    "midi": 62,
                    "name": "D4",
                    "ticks": 100680,
                    "time": 93.416575,
                    "velocity": 0.47244094488188976
                },
                {
                    "duration": 0.11018507500000396,
                    "durationTicks": 119,
                    "midi": 74,
                    "name": "D5",
                    "ticks": 100800,
                    "time": 93.527686,
                    "velocity": 0.8188976377952756
                },
                {
                    "duration": 0.11111099999999396,
                    "durationTicks": 120,
                    "midi": 74,
                    "name": "D5",
                    "ticks": 100800,
                    "time": 93.527686,
                    "velocity": 0.7165354330708661
                },
                {
                    "duration": 0.8435176750000011,
                    "durationTicks": 911,
                    "midi": 71,
                    "name": "B4",
                    "ticks": 100800,
                    "time": 93.527686,
                    "velocity": 0.7165354330708661
                },
                {
                    "duration": 0.3157404250000013,
                    "durationTicks": 341,
                    "midi": 62,
                    "name": "D4",
                    "ticks": 100920,
                    "time": 93.638797,
                    "velocity": 0.47244094488188976
                },
                {
                    "duration": 0.4379625250000032,
                    "durationTicks": 473,
                    "midi": 67,
                    "name": "G4",
                    "ticks": 101040,
                    "time": 93.749908,
                    "velocity": 0.6456692913385826
                },
                {
                    "duration": 0.1046295250000071,
                    "durationTicks": 113,
                    "midi": 72,
                    "name": "C5",
                    "ticks": 101160,
                    "time": 93.861019,
                    "velocity": 0.6850393700787402
                },
                {
                    "duration": 0.4212958749999842,
                    "durationTicks": 455,
                    "midi": 62,
                    "name": "D4",
                    "ticks": 101280,
                    "time": 93.97213,
                    "velocity": 0.4409448818897638
                },
                {
                    "duration": 0.2768515749999949,
                    "durationTicks": 299,
                    "midi": 67,
                    "name": "G4",
                    "ticks": 101400,
                    "time": 94.083241,
                    "velocity": 0.6692913385826772
                },
                {
                    "duration": 0.21018497500000421,
                    "durationTicks": 227,
                    "midi": 72,
                    "name": "C5",
                    "ticks": 101520,
                    "time": 94.194352,
                    "velocity": 0.5039370078740157
                },
                {
                    "duration": 0.21018497500000421,
                    "durationTicks": 227,
                    "midi": 72,
                    "name": "C5",
                    "ticks": 101520,
                    "time": 94.194352,
                    "velocity": 0.6929133858267716
                },
                {
                    "duration": 0.3157404250000013,
                    "durationTicks": 341,
                    "midi": 76,
                    "name": "E5",
                    "ticks": 101760,
                    "time": 94.416574,
                    "velocity": 0.6771653543307087
                },
                {
                    "duration": 0.1046295250000071,
                    "durationTicks": 113,
                    "midi": 67,
                    "name": "G4",
                    "ticks": 101880,
                    "time": 94.527685,
                    "velocity": 0.48031496062992124
                },
                {
                    "duration": 0.11018507500000396,
                    "durationTicks": 119,
                    "midi": 64,
                    "name": "E4",
                    "ticks": 102000,
                    "time": 94.638796,
                    "velocity": 0.5354330708661418
                },
                {
                    "duration": 0.3157404250000013,
                    "durationTicks": 341,
                    "midi": 74,
                    "name": "D5",
                    "ticks": 102120,
                    "time": 94.74990700000001,
                    "velocity": 0.5275590551181102
                },
                {
                    "duration": 0.1046295250000071,
                    "durationTicks": 113,
                    "midi": 67,
                    "name": "G4",
                    "ticks": 102240,
                    "time": 94.861018,
                    "velocity": 0.47244094488188976
                },
                {
                    "duration": 0.11018507500000396,
                    "durationTicks": 119,
                    "midi": 64,
                    "name": "E4",
                    "ticks": 102360,
                    "time": 94.972129,
                    "velocity": 0.5275590551181102
                },
                {
                    "duration": 0.42129587499999843,
                    "durationTicks": 455,
                    "midi": 74,
                    "name": "D5",
                    "ticks": 102480,
                    "time": 95.08324,
                    "velocity": 0.5826771653543307
                },
                {
                    "duration": 0.1046295250000071,
                    "durationTicks": 113,
                    "midi": 67,
                    "name": "G4",
                    "ticks": 102600,
                    "time": 95.194351,
                    "velocity": 0.49606299212598426
                },
                {
                    "duration": 0.1046295250000071,
                    "durationTicks": 113,
                    "midi": 64,
                    "name": "E4",
                    "ticks": 102720,
                    "time": 95.305462,
                    "velocity": 0.5826771653543307
                },
                {
                    "duration": 0.8435176750000011,
                    "durationTicks": 911,
                    "midi": 60,
                    "name": "C4",
                    "ticks": 102720,
                    "time": 95.305462,
                    "velocity": 0.6771653543307087
                },
                {
                    "duration": 0.5490735249999972,
                    "durationTicks": 593,
                    "midi": 64,
                    "name": "E4",
                    "ticks": 102720,
                    "time": 95.305462,
                    "velocity": 0.6771653543307087
                },
                {
                    "duration": 0.11018507500000396,
                    "durationTicks": 119,
                    "midi": 67,
                    "name": "G4",
                    "ticks": 102840,
                    "time": 95.416573,
                    "velocity": 0.6299212598425197
                },
                {
                    "duration": 0.4212958749999842,
                    "durationTicks": 455,
                    "midi": 71,
                    "name": "B4",
                    "ticks": 102960,
                    "time": 95.52768400000001,
                    "velocity": 0.5433070866141733
                },
                {
                    "duration": 0.1046295250000071,
                    "durationTicks": 113,
                    "midi": 67,
                    "name": "G4",
                    "ticks": 103080,
                    "time": 95.638795,
                    "velocity": 0.5511811023622047
                },
                {
                    "duration": 0.399073675000011,
                    "durationTicks": 431,
                    "midi": 64,
                    "name": "E4",
                    "ticks": 103200,
                    "time": 95.749906,
                    "velocity": 0.5433070866141733
                },
                {
                    "duration": 0.11018507500000396,
                    "durationTicks": 119,
                    "midi": 67,
                    "name": "G4",
                    "ticks": 103320,
                    "time": 95.861017,
                    "velocity": 0.6771653543307087
                },
                {
                    "duration": 1.3712949250000008,
                    "durationTicks": 1481,
                    "midi": 72,
                    "name": "C5",
                    "ticks": 103440,
                    "time": 95.972128,
                    "velocity": 0.6377952755905512
                },
                {
                    "duration": 0.1046295250000071,
                    "durationTicks": 113,
                    "midi": 69,
                    "name": "A4",
                    "ticks": 103560,
                    "time": 96.083239,
                    "velocity": 0.5590551181102362
                },
                {
                    "duration": 0.1046295250000071,
                    "durationTicks": 113,
                    "midi": 64,
                    "name": "E4",
                    "ticks": 103680,
                    "time": 96.19435,
                    "velocity": 0.5354330708661418
                },
                {
                    "duration": 0.1046295249999929,
                    "durationTicks": 113,
                    "midi": 69,
                    "name": "A4",
                    "ticks": 103800,
                    "time": 96.30546100000001,
                    "velocity": 0.6771653543307087
                },
                {
                    "duration": 0.1046295250000071,
                    "durationTicks": 113,
                    "midi": 64,
                    "name": "E4",
                    "ticks": 103920,
                    "time": 96.416572,
                    "velocity": 0.5354330708661418
                },
                {
                    "duration": 0.1046295250000071,
                    "durationTicks": 113,
                    "midi": 69,
                    "name": "A4",
                    "ticks": 104040,
                    "time": 96.527683,
                    "velocity": 0.6377952755905512
                },
                {
                    "duration": 0.1046295250000071,
                    "durationTicks": 113,
                    "midi": 64,
                    "name": "E4",
                    "ticks": 104160,
                    "time": 96.638794,
                    "velocity": 0.5196850393700787
                },
                {
                    "duration": 0.1046295250000071,
                    "durationTicks": 113,
                    "midi": 69,
                    "name": "A4",
                    "ticks": 104280,
                    "time": 96.749905,
                    "velocity": 0.6535433070866141
                },
                {
                    "duration": 0.1046295250000071,
                    "durationTicks": 113,
                    "midi": 64,
                    "name": "E4",
                    "ticks": 104400,
                    "time": 96.861016,
                    "velocity": 0.5511811023622047
                },
                {
                    "duration": 0.1046295250000071,
                    "durationTicks": 113,
                    "midi": 69,
                    "name": "A4",
                    "ticks": 104520,
                    "time": 96.972127,
                    "velocity": 0.6929133858267716
                },
                {
                    "duration": 0.1046295250000071,
                    "durationTicks": 113,
                    "midi": 76,
                    "name": "E5",
                    "ticks": 104640,
                    "time": 97.083238,
                    "velocity": 0.7952755905511811
                },
                {
                    "duration": 0.8435176750000153,
                    "durationTicks": 911,
                    "midi": 60,
                    "name": "C4",
                    "ticks": 104640,
                    "time": 97.083238,
                    "velocity": 0.7401574803149606
                },
                {
                    "duration": 0.3324070750000061,
                    "durationTicks": 359,
                    "midi": 69,
                    "name": "A4",
                    "ticks": 104640,
                    "time": 97.083238,
                    "velocity": 0.7401574803149606
                },
                {
                    "duration": 0.1046295250000071,
                    "durationTicks": 113,
                    "midi": 64,
                    "name": "E4",
                    "ticks": 104760,
                    "time": 97.194349,
                    "velocity": 0.47244094488188976
                },
                {
                    "duration": 0.44351807500000007,
                    "durationTicks": 479,
                    "midi": 69,
                    "name": "A4",
                    "ticks": 104880,
                    "time": 97.30546,
                    "velocity": 0.6771653543307087
                },
                {
                    "duration": 0.3157404250000013,
                    "durationTicks": 341,
                    "midi": 72,
                    "name": "C5",
                    "ticks": 105000,
                    "time": 97.416571,
                    "velocity": 0.6535433070866141
                },
                {
                    "duration": 0.1046295250000071,
                    "durationTicks": 113,
                    "midi": 64,
                    "name": "E4",
                    "ticks": 105120,
                    "time": 97.527682,
                    "velocity": 0.4881889763779528
                },
                {
                    "duration": 0.28796267500000283,
                    "durationTicks": 311,
                    "midi": 69,
                    "name": "A4",
                    "ticks": 105240,
                    "time": 97.638793,
                    "velocity": 0.6456692913385826
                },
                {
                    "duration": 0.21018497500000421,
                    "durationTicks": 227,
                    "midi": 72,
                    "name": "C5",
                    "ticks": 105360,
                    "time": 97.749904,
                    "velocity": 0.6692913385826772
                },
                {
                    "duration": 0.1046295250000071,
                    "durationTicks": 113,
                    "midi": 64,
                    "name": "E4",
                    "ticks": 105480,
                    "time": 97.861015,
                    "velocity": 0.49606299212598426
                },
                {
                    "duration": 0.1046295250000071,
                    "durationTicks": 113,
                    "midi": 76,
                    "name": "E5",
                    "ticks": 105600,
                    "time": 97.972126,
                    "velocity": 0.7401574803149606
                },
                {
                    "duration": 0.1046295250000071,
                    "durationTicks": 113,
                    "midi": 64,
                    "name": "E4",
                    "ticks": 105720,
                    "time": 98.083237,
                    "velocity": 0.41732283464566927
                },
                {
                    "duration": 0.1046295250000071,
                    "durationTicks": 113,
                    "midi": 67,
                    "name": "G4",
                    "ticks": 105840,
                    "time": 98.194348,
                    "velocity": 0.5905511811023622
                },
                {
                    "duration": 0.1046295250000071,
                    "durationTicks": 113,
                    "midi": 72,
                    "name": "C5",
                    "ticks": 105960,
                    "time": 98.305459,
                    "velocity": 0.6692913385826772
                },
                {
                    "duration": 0.1046295249999929,
                    "durationTicks": 113,
                    "midi": 64,
                    "name": "E4",
                    "ticks": 106080,
                    "time": 98.41657000000001,
                    "velocity": 0.47244094488188976
                },
                {
                    "duration": 0.1046295250000071,
                    "durationTicks": 113,
                    "midi": 67,
                    "name": "G4",
                    "ticks": 106200,
                    "time": 98.527681,
                    "velocity": 0.6299212598425197
                },
                {
                    "duration": 0.1046295250000071,
                    "durationTicks": 113,
                    "midi": 72,
                    "name": "C5",
                    "ticks": 106320,
                    "time": 98.638792,
                    "velocity": 0.6771653543307087
                },
                {
                    "duration": 0.1046295250000071,
                    "durationTicks": 113,
                    "midi": 64,
                    "name": "E4",
                    "ticks": 106440,
                    "time": 98.749903,
                    "velocity": 0.47244094488188976
                },
                {
                    "duration": 0.1046295250000071,
                    "durationTicks": 113,
                    "midi": 76,
                    "name": "E5",
                    "ticks": 106560,
                    "time": 98.861014,
                    "velocity": 0.8582677165354331
                },
                {
                    "duration": 0.21574052500001528,
                    "durationTicks": 233,
                    "midi": 64,
                    "name": "E4",
                    "ticks": 106560,
                    "time": 98.861014,
                    "velocity": 0.7637795275590551
                },
                {
                    "duration": 0.4379625250000032,
                    "durationTicks": 473,
                    "midi": 72,
                    "name": "C5",
                    "ticks": 106560,
                    "time": 98.861014,
                    "velocity": 0.7637795275590551
                },
                {
                    "duration": 0.4379625250000032,
                    "durationTicks": 473,
                    "midi": 64,
                    "name": "E4",
                    "ticks": 106680,
                    "time": 98.972125,
                    "velocity": 0.4566929133858268
                },
                {
                    "duration": 0.1046295250000071,
                    "durationTicks": 113,
                    "midi": 67,
                    "name": "G4",
                    "ticks": 106800,
                    "time": 99.083236,
                    "velocity": 0.6299212598425197
                },
                {
                    "duration": 0.4379625250000032,
                    "durationTicks": 473,
                    "midi": 72,
                    "name": "C5",
                    "ticks": 106920,
                    "time": 99.19434700000001,
                    "velocity": 0.6535433070866141
                },
                {
                    "duration": 0.3990736749999968,
                    "durationTicks": 431,
                    "midi": 64,
                    "name": "E4",
                    "ticks": 107040,
                    "time": 99.305458,
                    "velocity": 0.5039370078740157
                },
                {
                    "duration": 0.1046295250000071,
                    "durationTicks": 113,
                    "midi": 67,
                    "name": "G4",
                    "ticks": 107160,
                    "time": 99.416569,
                    "velocity": 0.6299212598425197
                },
                {
                    "duration": 0.17685167499999466,
                    "durationTicks": 191,
                    "midi": 72,
                    "name": "C5",
                    "ticks": 107280,
                    "time": 99.52768,
                    "velocity": 0.7007874015748031
                },
                {
                    "duration": 0.1046295250000071,
                    "durationTicks": 113,
                    "midi": 64,
                    "name": "E4",
                    "ticks": 107400,
                    "time": 99.638791,
                    "velocity": 0.5196850393700787
                },
                {
                    "duration": 0.1046295250000071,
                    "durationTicks": 113,
                    "midi": 74,
                    "name": "D5",
                    "ticks": 107520,
                    "time": 99.749902,
                    "velocity": 0.7874015748031497
                },
                {
                    "duration": 0.1046295250000071,
                    "durationTicks": 113,
                    "midi": 62,
                    "name": "D4",
                    "ticks": 107640,
                    "time": 99.861013,
                    "velocity": 0.49606299212598426
                },
                {
                    "duration": 0.1046295249999929,
                    "durationTicks": 113,
                    "midi": 67,
                    "name": "G4",
                    "ticks": 107760,
                    "time": 99.97212400000001,
                    "velocity": 0.6614173228346457
                },
                {
                    "duration": 0.1046295250000071,
                    "durationTicks": 113,
                    "midi": 72,
                    "name": "C5",
                    "ticks": 107880,
                    "time": 100.083235,
                    "velocity": 0.7086614173228346
                },
                {
                    "duration": 0.1046295250000071,
                    "durationTicks": 113,
                    "midi": 62,
                    "name": "D4",
                    "ticks": 108000,
                    "time": 100.194346,
                    "velocity": 0.49606299212598426
                },
                {
                    "duration": 0.1046295250000071,
                    "durationTicks": 113,
                    "midi": 67,
                    "name": "G4",
                    "ticks": 108120,
                    "time": 100.305457,
                    "velocity": 0.6220472440944882
                },
                {
                    "duration": 0.1046295250000071,
                    "durationTicks": 113,
                    "midi": 72,
                    "name": "C5",
                    "ticks": 108240,
                    "time": 100.416568,
                    "velocity": 0.7007874015748031
                },
                {
                    "duration": 0.1046295250000071,
                    "durationTicks": 113,
                    "midi": 62,
                    "name": "D4",
                    "ticks": 108360,
                    "time": 100.527679,
                    "velocity": 0.4645669291338583
                },
                {
                    "duration": 0.1046295250000071,
                    "durationTicks": 113,
                    "midi": 74,
                    "name": "D5",
                    "ticks": 108480,
                    "time": 100.63879,
                    "velocity": 0.8110236220472441
                },
                {
                    "duration": 0.21574052500000107,
                    "durationTicks": 233,
                    "midi": 62,
                    "name": "D4",
                    "ticks": 108480,
                    "time": 100.63879,
                    "velocity": 0.7637795275590551
                },
                {
                    "duration": 0.8435176750000011,
                    "durationTicks": 911,
                    "midi": 71,
                    "name": "B4",
                    "ticks": 108480,
                    "time": 100.63879,
                    "velocity": 0.7637795275590551
                },
                {
                    "duration": 0.4379625250000032,
                    "durationTicks": 473,
                    "midi": 62,
                    "name": "D4",
                    "ticks": 108600,
                    "time": 100.74990100000001,
                    "velocity": 0.4645669291338583
                },
                {
                    "duration": 0.1046295250000071,
                    "durationTicks": 113,
                    "midi": 67,
                    "name": "G4",
                    "ticks": 108720,
                    "time": 100.861012,
                    "velocity": 0.6771653543307087
                },
                {
                    "duration": 0.1046295250000071,
                    "durationTicks": 113,
                    "midi": 72,
                    "name": "C5",
                    "ticks": 108840,
                    "time": 100.972123,
                    "velocity": 0.6614173228346457
                },
                {
                    "duration": 0.3990736749999968,
                    "durationTicks": 431,
                    "midi": 62,
                    "name": "D4",
                    "ticks": 108960,
                    "time": 101.083234,
                    "velocity": 0.4566929133858268
                },
                {
                    "duration": 0.1046295250000071,
                    "durationTicks": 113,
                    "midi": 67,
                    "name": "G4",
                    "ticks": 109080,
                    "time": 101.194345,
                    "velocity": 0.6850393700787402
                },
                {
                    "duration": 0.1046295250000071,
                    "durationTicks": 113,
                    "midi": 72,
                    "name": "C5",
                    "ticks": 109200,
                    "time": 101.305456,
                    "velocity": 0.7086614173228346
                },
                {
                    "duration": 0.1046295250000071,
                    "durationTicks": 113,
                    "midi": 62,
                    "name": "D4",
                    "ticks": 109320,
                    "time": 101.416567,
                    "velocity": 0.5039370078740157
                },
                {
                    "duration": 0.1046295250000071,
                    "durationTicks": 113,
                    "midi": 71,
                    "name": "B4",
                    "ticks": 109440,
                    "time": 101.527678,
                    "velocity": 0.5984251968503937
                },
                {
                    "duration": 0.1046295250000071,
                    "durationTicks": 113,
                    "midi": 64,
                    "name": "E4",
                    "ticks": 109560,
                    "time": 101.638789,
                    "velocity": 0.4645669291338583
                },
                {
                    "duration": 0.1046295250000071,
                    "durationTicks": 113,
                    "midi": 60,
                    "name": "C4",
                    "ticks": 109680,
                    "time": 101.7499,
                    "velocity": 0.5196850393700787
                },
                {
                    "duration": 0.1046295250000071,
                    "durationTicks": 113,
                    "midi": 64,
                    "name": "E4",
                    "ticks": 109800,
                    "time": 101.861011,
                    "velocity": 0.6220472440944882
                },
                {
                    "duration": 0.1046295250000071,
                    "durationTicks": 113,
                    "midi": 60,
                    "name": "C4",
                    "ticks": 109920,
                    "time": 101.972122,
                    "velocity": 0.5511811023622047
                },
                {
                    "duration": 0.1046295250000071,
                    "durationTicks": 113,
                    "midi": 64,
                    "name": "E4",
                    "ticks": 110040,
                    "time": 102.083233,
                    "velocity": 0.6141732283464567
                },
                {
                    "duration": 0.1046295250000071,
                    "durationTicks": 113,
                    "midi": 60,
                    "name": "C4",
                    "ticks": 110160,
                    "time": 102.194344,
                    "velocity": 0.5511811023622047
                },
                {
                    "duration": 0.1046295250000071,
                    "durationTicks": 113,
                    "midi": 64,
                    "name": "E4",
                    "ticks": 110280,
                    "time": 102.305455,
                    "velocity": 0.6929133858267716
                },
                {
                    "duration": 0.42129587499999843,
                    "durationTicks": 455,
                    "midi": 72,
                    "name": "C5",
                    "ticks": 110400,
                    "time": 102.416566,
                    "velocity": 0.7874015748031497
                },
                {
                    "duration": 0.22129607499999793,
                    "durationTicks": 239,
                    "midi": 69,
                    "name": "A4",
                    "ticks": 110400,
                    "time": 102.416566,
                    "velocity": 0.7795275590551181
                },
                {
                    "duration": 0.1046295250000071,
                    "durationTicks": 113,
                    "midi": 59,
                    "name": "B3",
                    "ticks": 110520,
                    "time": 102.527677,
                    "velocity": 0.6850393700787402
                },
                {
                    "duration": 0.1046295250000071,
                    "durationTicks": 113,
                    "midi": 60,
                    "name": "C4",
                    "ticks": 110640,
                    "time": 102.638788,
                    "velocity": 0.6456692913385826
                },
                {
                    "duration": 0.1046295250000071,
                    "durationTicks": 113,
                    "midi": 64,
                    "name": "E4",
                    "ticks": 110760,
                    "time": 102.749899,
                    "velocity": 0.6850393700787402
                },
                {
                    "duration": 0.4212958749999842,
                    "durationTicks": 455,
                    "midi": 69,
                    "name": "A4",
                    "ticks": 110880,
                    "time": 102.86101000000001,
                    "velocity": 0.6692913385826772
                },
                {
                    "duration": 0.21018497500000421,
                    "durationTicks": 227,
                    "midi": 84,
                    "name": "C6",
                    "ticks": 111120,
                    "time": 103.083232,
                    "velocity": 0.5511811023622047
                },
                {
                    "duration": 0.21018497500000421,
                    "durationTicks": 227,
                    "midi": 84,
                    "name": "C6",
                    "ticks": 111120,
                    "time": 103.083232,
                    "velocity": 0.5511811023622047
                },
                {
                    "duration": 0.21018497500000421,
                    "durationTicks": 227,
                    "midi": 74,
                    "name": "D5",
                    "ticks": 111360,
                    "time": 103.305454,
                    "velocity": 0.6220472440944882
                },
                {
                    "duration": 0.21018497500000421,
                    "durationTicks": 227,
                    "midi": 86,
                    "name": "D6",
                    "ticks": 111360,
                    "time": 103.305454,
                    "velocity": 0.6220472440944882
                },
                {
                    "duration": 0.1046295250000071,
                    "durationTicks": 113,
                    "midi": 67,
                    "name": "G4",
                    "ticks": 111480,
                    "time": 103.416565,
                    "velocity": 0.7480314960629921
                },
                {
                    "duration": 0.1046295250000071,
                    "durationTicks": 113,
                    "midi": 72,
                    "name": "C5",
                    "ticks": 111600,
                    "time": 103.527676,
                    "velocity": 0.5826771653543307
                },
                {
                    "duration": 0.1046295250000071,
                    "durationTicks": 113,
                    "midi": 84,
                    "name": "C6",
                    "ticks": 111600,
                    "time": 103.527676,
                    "velocity": 0.5826771653543307
                },
                {
                    "duration": 0.1046295250000071,
                    "durationTicks": 113,
                    "midi": 65,
                    "name": "F4",
                    "ticks": 111600,
                    "time": 103.527676,
                    "velocity": 0.5748031496062992
                },
                {
                    "duration": 0.3157404250000013,
                    "durationTicks": 341,
                    "midi": 74,
                    "name": "D5",
                    "ticks": 111720,
                    "time": 103.63878700000001,
                    "velocity": 0.6062992125984252
                },
                {
                    "duration": 0.3157404250000013,
                    "durationTicks": 341,
                    "midi": 86,
                    "name": "D6",
                    "ticks": 111720,
                    "time": 103.63878700000001,
                    "velocity": 0.6062992125984252
                },
                {
                    "duration": 0.1046295249999929,
                    "durationTicks": 113,
                    "midi": 67,
                    "name": "G4",
                    "ticks": 111720,
                    "time": 103.63878700000001,
                    "velocity": 0.6299212598425197
                },
                {
                    "duration": 0.1046295250000071,
                    "durationTicks": 113,
                    "midi": 60,
                    "name": "C4",
                    "ticks": 111840,
                    "time": 103.749898,
                    "velocity": 0.5275590551181102
                },
                {
                    "duration": 0.1046295250000071,
                    "durationTicks": 113,
                    "midi": 69,
                    "name": "A4",
                    "ticks": 111960,
                    "time": 103.861009,
                    "velocity": 0.7165354330708661
                },
                {
                    "duration": 0.21018497499999,
                    "durationTicks": 227,
                    "midi": 72,
                    "name": "C5",
                    "ticks": 112080,
                    "time": 103.97212,
                    "velocity": 0.5275590551181102
                },
                {
                    "duration": 0.21018497499999,
                    "durationTicks": 227,
                    "midi": 84,
                    "name": "C6",
                    "ticks": 112080,
                    "time": 103.97212,
                    "velocity": 0.5275590551181102
                },
                {
                    "duration": 0.1046295250000071,
                    "durationTicks": 113,
                    "midi": 71,
                    "name": "B4",
                    "ticks": 112080,
                    "time": 103.97212,
                    "velocity": 0.6850393700787402
                },
                {
                    "duration": 0.1046295250000071,
                    "durationTicks": 113,
                    "midi": 72,
                    "name": "C5",
                    "ticks": 112200,
                    "time": 104.083231,
                    "velocity": 0.6614173228346457
                },
                {
                    "duration": 0.21018497499999,
                    "durationTicks": 227,
                    "midi": 74,
                    "name": "D5",
                    "ticks": 112320,
                    "time": 104.194342,
                    "velocity": 0.6456692913385826
                },
                {
                    "duration": 0.21018497499999,
                    "durationTicks": 227,
                    "midi": 86,
                    "name": "D6",
                    "ticks": 112320,
                    "time": 104.194342,
                    "velocity": 0.6456692913385826
                },
                {
                    "duration": 0.1046295250000071,
                    "durationTicks": 113,
                    "midi": 79,
                    "name": "G5",
                    "ticks": 112320,
                    "time": 104.194342,
                    "velocity": 0.7007874015748031
                },
                {
                    "duration": 0.1046295250000071,
                    "durationTicks": 113,
                    "midi": 76,
                    "name": "E5",
                    "ticks": 112440,
                    "time": 104.305453,
                    "velocity": 0.5590551181102362
                },
                {
                    "duration": 0.1046295249999929,
                    "durationTicks": 113,
                    "midi": 72,
                    "name": "C5",
                    "ticks": 112560,
                    "time": 104.41656400000001,
                    "velocity": 0.5433070866141733
                },
                {
                    "duration": 0.1046295249999929,
                    "durationTicks": 113,
                    "midi": 84,
                    "name": "C6",
                    "ticks": 112560,
                    "time": 104.41656400000001,
                    "velocity": 0.5433070866141733
                },
                {
                    "duration": 0.1046295249999929,
                    "durationTicks": 113,
                    "midi": 74,
                    "name": "D5",
                    "ticks": 112560,
                    "time": 104.41656400000001,
                    "velocity": 0.5196850393700787
                },
                {
                    "duration": 0.3157404250000013,
                    "durationTicks": 341,
                    "midi": 74,
                    "name": "D5",
                    "ticks": 112680,
                    "time": 104.527675,
                    "velocity": 0.6377952755905512
                },
                {
                    "duration": 0.3157404250000013,
                    "durationTicks": 341,
                    "midi": 86,
                    "name": "D6",
                    "ticks": 112680,
                    "time": 104.527675,
                    "velocity": 0.6377952755905512
                },
                {
                    "duration": 0.1046295250000071,
                    "durationTicks": 113,
                    "midi": 76,
                    "name": "E5",
                    "ticks": 112680,
                    "time": 104.527675,
                    "velocity": 0.6456692913385826
                },
                {
                    "duration": 0.1046295250000071,
                    "durationTicks": 113,
                    "midi": 65,
                    "name": "F4",
                    "ticks": 112800,
                    "time": 104.638786,
                    "velocity": 0.4251968503937008
                },
                {
                    "duration": 0.1046295250000071,
                    "durationTicks": 113,
                    "midi": 72,
                    "name": "C5",
                    "ticks": 112920,
                    "time": 104.749897,
                    "velocity": 0.6614173228346457
                },
                {
                    "duration": 0.21018497500000421,
                    "durationTicks": 227,
                    "midi": 72,
                    "name": "C5",
                    "ticks": 113040,
                    "time": 104.861008,
                    "velocity": 0.5748031496062992
                },
                {
                    "duration": 0.21018497500000421,
                    "durationTicks": 227,
                    "midi": 84,
                    "name": "C6",
                    "ticks": 113040,
                    "time": 104.861008,
                    "velocity": 0.5748031496062992
                },
                {
                    "duration": 0.1046295250000071,
                    "durationTicks": 113,
                    "midi": 71,
                    "name": "B4",
                    "ticks": 113040,
                    "time": 104.861008,
                    "velocity": 0.5826771653543307
                },
                {
                    "duration": 0.1046295250000071,
                    "durationTicks": 113,
                    "midi": 72,
                    "name": "C5",
                    "ticks": 113160,
                    "time": 104.972119,
                    "velocity": 0.6220472440944882
                },
                {
                    "duration": 0.21018497500000421,
                    "durationTicks": 227,
                    "midi": 71,
                    "name": "B4",
                    "ticks": 113280,
                    "time": 105.08323,
                    "velocity": 0.5905511811023622
                },
                {
                    "duration": 0.21018497500000421,
                    "durationTicks": 227,
                    "midi": 83,
                    "name": "B5",
                    "ticks": 113280,
                    "time": 105.08323,
                    "velocity": 0.5905511811023622
                },
                {
                    "duration": 0.1046295250000071,
                    "durationTicks": 113,
                    "midi": 67,
                    "name": "G4",
                    "ticks": 113400,
                    "time": 105.194341,
                    "velocity": 0.7322834645669292
                },
                {
                    "duration": 0.1046295250000071,
                    "durationTicks": 113,
                    "midi": 71,
                    "name": "B4",
                    "ticks": 113520,
                    "time": 105.305452,
                    "velocity": 0.5748031496062992
                },
                {
                    "duration": 0.1046295250000071,
                    "durationTicks": 113,
                    "midi": 83,
                    "name": "B5",
                    "ticks": 113520,
                    "time": 105.305452,
                    "velocity": 0.5748031496062992
                },
                {
                    "duration": 0.1046295250000071,
                    "durationTicks": 113,
                    "midi": 64,
                    "name": "E4",
                    "ticks": 113520,
                    "time": 105.305452,
                    "velocity": 0.5748031496062992
                },
                {
                    "duration": 0.3157404250000013,
                    "durationTicks": 341,
                    "midi": 71,
                    "name": "B4",
                    "ticks": 113640,
                    "time": 105.416563,
                    "velocity": 0.5826771653543307
                },
                {
                    "duration": 0.3157404250000013,
                    "durationTicks": 341,
                    "midi": 83,
                    "name": "B5",
                    "ticks": 113640,
                    "time": 105.416563,
                    "velocity": 0.5826771653543307
                },
                {
                    "duration": 0.1046295250000071,
                    "durationTicks": 113,
                    "midi": 67,
                    "name": "G4",
                    "ticks": 113640,
                    "time": 105.416563,
                    "velocity": 0.6141732283464567
                },
                {
                    "duration": 0.1046295250000071,
                    "durationTicks": 113,
                    "midi": 60,
                    "name": "C4",
                    "ticks": 113760,
                    "time": 105.527674,
                    "velocity": 0.5511811023622047
                },
                {
                    "duration": 0.1046295250000071,
                    "durationTicks": 113,
                    "midi": 69,
                    "name": "A4",
                    "ticks": 113880,
                    "time": 105.638785,
                    "velocity": 0.7322834645669292
                },
                {
                    "duration": 0.1046295250000071,
                    "durationTicks": 113,
                    "midi": 71,
                    "name": "B4",
                    "ticks": 114000,
                    "time": 105.749896,
                    "velocity": 0.6299212598425197
                },
                {
                    "duration": 0.21018497499999,
                    "durationTicks": 227,
                    "midi": 83,
                    "name": "B5",
                    "ticks": 114000,
                    "time": 105.749896,
                    "velocity": 0.6299212598425197
                },
                {
                    "duration": 0.21018497499999,
                    "durationTicks": 227,
                    "midi": 71,
                    "name": "B4",
                    "ticks": 114000,
                    "time": 105.749896,
                    "velocity": 0.6535433070866141
                },
                {
                    "duration": 0.1046295250000071,
                    "durationTicks": 113,
                    "midi": 72,
                    "name": "C5",
                    "ticks": 114120,
                    "time": 105.861007,
                    "velocity": 0.6377952755905512
                },
                {
                    "duration": 0.21018497500000421,
                    "durationTicks": 227,
                    "midi": 71,
                    "name": "B4",
                    "ticks": 114240,
                    "time": 105.972118,
                    "velocity": 0.5905511811023622
                },
                {
                    "duration": 0.21018497500000421,
                    "durationTicks": 227,
                    "midi": 83,
                    "name": "B5",
                    "ticks": 114240,
                    "time": 105.972118,
                    "velocity": 0.5905511811023622
                },
                {
                    "duration": 0.1046295250000071,
                    "durationTicks": 113,
                    "midi": 79,
                    "name": "G5",
                    "ticks": 114240,
                    "time": 105.972118,
                    "velocity": 0.7086614173228346
                },
                {
                    "duration": 0.1046295250000071,
                    "durationTicks": 113,
                    "midi": 76,
                    "name": "E5",
                    "ticks": 114360,
                    "time": 106.083229,
                    "velocity": 0.5511811023622047
                },
                {
                    "duration": 0.1046295250000071,
                    "durationTicks": 113,
                    "midi": 71,
                    "name": "B4",
                    "ticks": 114480,
                    "time": 106.19434,
                    "velocity": 0.6062992125984252
                },
                {
                    "duration": 0.1046295250000071,
                    "durationTicks": 113,
                    "midi": 83,
                    "name": "B5",
                    "ticks": 114480,
                    "time": 106.19434,
                    "velocity": 0.6062992125984252
                },
                {
                    "duration": 0.1046295250000071,
                    "durationTicks": 113,
                    "midi": 74,
                    "name": "D5",
                    "ticks": 114480,
                    "time": 106.19434,
                    "velocity": 0.5748031496062992
                },
                {
                    "duration": 0.3157404250000013,
                    "durationTicks": 341,
                    "midi": 71,
                    "name": "B4",
                    "ticks": 114600,
                    "time": 106.305451,
                    "velocity": 0.5905511811023622
                },
                {
                    "duration": 0.3157404250000013,
                    "durationTicks": 341,
                    "midi": 83,
                    "name": "B5",
                    "ticks": 114600,
                    "time": 106.305451,
                    "velocity": 0.5905511811023622
                },
                {
                    "duration": 0.1046295250000071,
                    "durationTicks": 113,
                    "midi": 76,
                    "name": "E5",
                    "ticks": 114600,
                    "time": 106.305451,
                    "velocity": 0.6535433070866141
                },
                {
                    "duration": 0.1046295250000071,
                    "durationTicks": 113,
                    "midi": 69,
                    "name": "A4",
                    "ticks": 114720,
                    "time": 106.416562,
                    "velocity": 0.49606299212598426
                },
                {
                    "duration": 0.1046295250000071,
                    "durationTicks": 113,
                    "midi": 72,
                    "name": "C5",
                    "ticks": 114840,
                    "time": 106.52767300000001,
                    "velocity": 0.6220472440944882
                },
                {
                    "duration": 0.21018497500000421,
                    "durationTicks": 227,
                    "midi": 72,
                    "name": "C5",
                    "ticks": 114960,
                    "time": 106.638784,
                    "velocity": 0.5984251968503937
                },
                {
                    "duration": 0.21018497500000421,
                    "durationTicks": 227,
                    "midi": 84,
                    "name": "C6",
                    "ticks": 114960,
                    "time": 106.638784,
                    "velocity": 0.5984251968503937
                },
                {
                    "duration": 0.1046295250000071,
                    "durationTicks": 113,
                    "midi": 71,
                    "name": "B4",
                    "ticks": 114960,
                    "time": 106.638784,
                    "velocity": 0.5590551181102362
                },
                {
                    "duration": 0.1046295250000071,
                    "durationTicks": 113,
                    "midi": 72,
                    "name": "C5",
                    "ticks": 115080,
                    "time": 106.749895,
                    "velocity": 0.5905511811023622
                },
                {
                    "duration": 0.21018497499999,
                    "durationTicks": 227,
                    "midi": 74,
                    "name": "D5",
                    "ticks": 115200,
                    "time": 106.861006,
                    "velocity": 0.6456692913385826
                },
                {
                    "duration": 0.21018497499999,
                    "durationTicks": 227,
                    "midi": 86,
                    "name": "D6",
                    "ticks": 115200,
                    "time": 106.861006,
                    "velocity": 0.6456692913385826
                },
                {
                    "duration": 0.1046295250000071,
                    "durationTicks": 113,
                    "midi": 67,
                    "name": "G4",
                    "ticks": 115320,
                    "time": 106.972117,
                    "velocity": 0.7401574803149606
                },
                {
                    "duration": 0.1046295250000071,
                    "durationTicks": 113,
                    "midi": 72,
                    "name": "C5",
                    "ticks": 115440,
                    "time": 107.083228,
                    "velocity": 0.5511811023622047
                },
                {
                    "duration": 0.1046295250000071,
                    "durationTicks": 113,
                    "midi": 84,
                    "name": "C6",
                    "ticks": 115440,
                    "time": 107.083228,
                    "velocity": 0.5511811023622047
                },
                {
                    "duration": 0.1046295250000071,
                    "durationTicks": 113,
                    "midi": 62,
                    "name": "D4",
                    "ticks": 115440,
                    "time": 107.083228,
                    "velocity": 0.5196850393700787
                },
                {
                    "duration": 0.3157404250000013,
                    "durationTicks": 341,
                    "midi": 74,
                    "name": "D5",
                    "ticks": 115560,
                    "time": 107.194339,
                    "velocity": 0.6220472440944882
                },
                {
                    "duration": 0.3157404250000013,
                    "durationTicks": 341,
                    "midi": 86,
                    "name": "D6",
                    "ticks": 115560,
                    "time": 107.194339,
                    "velocity": 0.6220472440944882
                },
                {
                    "duration": 0.1046295250000071,
                    "durationTicks": 113,
                    "midi": 67,
                    "name": "G4",
                    "ticks": 115560,
                    "time": 107.194339,
                    "velocity": 0.6771653543307087
                },
                {
                    "duration": 0.1046295249999929,
                    "durationTicks": 113,
                    "midi": 60,
                    "name": "C4",
                    "ticks": 115680,
                    "time": 107.30545000000001,
                    "velocity": 0.5748031496062992
                },
                {
                    "duration": 0.1046295250000071,
                    "durationTicks": 113,
                    "midi": 67,
                    "name": "G4",
                    "ticks": 115800,
                    "time": 107.416561,
                    "velocity": 0.7086614173228346
                },
                {
                    "duration": 0.1046295250000071,
                    "durationTicks": 113,
                    "midi": 72,
                    "name": "C5",
                    "ticks": 115920,
                    "time": 107.527672,
                    "velocity": 0.5669291338582677
                },
                {
                    "duration": 0.21018497500000421,
                    "durationTicks": 227,
                    "midi": 84,
                    "name": "C6",
                    "ticks": 115920,
                    "time": 107.527672,
                    "velocity": 0.5669291338582677
                },
                {
                    "duration": 0.21018497500000421,
                    "durationTicks": 227,
                    "midi": 72,
                    "name": "C5",
                    "ticks": 115920,
                    "time": 107.527672,
                    "velocity": 0.6771653543307087
                },
                {
                    "duration": 0.1046295250000071,
                    "durationTicks": 113,
                    "midi": 74,
                    "name": "D5",
                    "ticks": 116040,
                    "time": 107.638783,
                    "velocity": 0.6771653543307087
                },
                {
                    "duration": 0.21018497500000421,
                    "durationTicks": 227,
                    "midi": 74,
                    "name": "D5",
                    "ticks": 116160,
                    "time": 107.749894,
                    "velocity": 0.6377952755905512
                },
                {
                    "duration": 0.21018497500000421,
                    "durationTicks": 227,
                    "midi": 86,
                    "name": "D6",
                    "ticks": 116160,
                    "time": 107.749894,
                    "velocity": 0.6377952755905512
                },
                {
                    "duration": 0.1046295250000071,
                    "durationTicks": 113,
                    "midi": 79,
                    "name": "G5",
                    "ticks": 116160,
                    "time": 107.749894,
                    "velocity": 0.7086614173228346
                },
                {
                    "duration": 0.1046295250000071,
                    "durationTicks": 113,
                    "midi": 74,
                    "name": "D5",
                    "ticks": 116280,
                    "time": 107.861005,
                    "velocity": 0.5039370078740157
                },
                {
                    "duration": 0.1046295250000071,
                    "durationTicks": 113,
                    "midi": 72,
                    "name": "C5",
                    "ticks": 116400,
                    "time": 107.972116,
                    "velocity": 0.5433070866141733
                },
                {
                    "duration": 0.1046295250000071,
                    "durationTicks": 113,
                    "midi": 84,
                    "name": "C6",
                    "ticks": 116400,
                    "time": 107.972116,
                    "velocity": 0.5433070866141733
                },
                {
                    "duration": 0.1046295250000071,
                    "durationTicks": 113,
                    "midi": 72,
                    "name": "C5",
                    "ticks": 116400,
                    "time": 107.972116,
                    "velocity": 0.5748031496062992
                },
                {
                    "duration": 0.1046295249999929,
                    "durationTicks": 113,
                    "midi": 74,
                    "name": "D5",
                    "ticks": 116520,
                    "time": 108.08322700000001,
                    "velocity": 0.6692913385826772
                },
                {
                    "duration": 0.3157404250000013,
                    "durationTicks": 341,
                    "midi": 86,
                    "name": "D6",
                    "ticks": 116520,
                    "time": 108.08322700000001,
                    "velocity": 0.6692913385826772
                },
                {
                    "duration": 0.3157404250000013,
                    "durationTicks": 341,
                    "midi": 74,
                    "name": "D5",
                    "ticks": 116520,
                    "time": 108.08322700000001,
                    "velocity": 0.6614173228346457
                },
                {
                    "duration": 0.1046295250000071,
                    "durationTicks": 113,
                    "midi": 67,
                    "name": "G4",
                    "ticks": 116640,
                    "time": 108.194338,
                    "velocity": 0.5118110236220472
                },
                {
                    "duration": 0.1046295250000071,
                    "durationTicks": 113,
                    "midi": 72,
                    "name": "C5",
                    "ticks": 116760,
                    "time": 108.305449,
                    "velocity": 0.6456692913385826
                },
                {
                    "duration": 0.21018497499999,
                    "durationTicks": 227,
                    "midi": 72,
                    "name": "C5",
                    "ticks": 116880,
                    "time": 108.41656,
                    "velocity": 0.5669291338582677
                },
                {
                    "duration": 0.21018497499999,
                    "durationTicks": 227,
                    "midi": 84,
                    "name": "C6",
                    "ticks": 116880,
                    "time": 108.41656,
                    "velocity": 0.5669291338582677
                },
                {
                    "duration": 0.1046295250000071,
                    "durationTicks": 113,
                    "midi": 71,
                    "name": "B4",
                    "ticks": 116880,
                    "time": 108.41656,
                    "velocity": 0.5669291338582677
                },
                {
                    "duration": 0.1046295250000071,
                    "durationTicks": 113,
                    "midi": 72,
                    "name": "C5",
                    "ticks": 117000,
                    "time": 108.527671,
                    "velocity": 0.6456692913385826
                },
                {
                    "duration": 0.21018497499999,
                    "durationTicks": 227,
                    "midi": 71,
                    "name": "B4",
                    "ticks": 117120,
                    "time": 108.638782,
                    "velocity": 0.5590551181102362
                },
                {
                    "duration": 0.21018497499999,
                    "durationTicks": 227,
                    "midi": 83,
                    "name": "B5",
                    "ticks": 117120,
                    "time": 108.638782,
                    "velocity": 0.5590551181102362
                },
                {
                    "duration": 0.1046295250000071,
                    "durationTicks": 113,
                    "midi": 67,
                    "name": "G4",
                    "ticks": 117240,
                    "time": 108.749893,
                    "velocity": 0.7480314960629921
                },
                {
                    "duration": 0.1046295249999929,
                    "durationTicks": 113,
                    "midi": 71,
                    "name": "B4",
                    "ticks": 117360,
                    "time": 108.86100400000001,
                    "velocity": 0.5905511811023622
                },
                {
                    "duration": 0.1046295249999929,
                    "durationTicks": 113,
                    "midi": 83,
                    "name": "B5",
                    "ticks": 117360,
                    "time": 108.86100400000001,
                    "velocity": 0.5905511811023622
                },
                {
                    "duration": 0.1046295249999929,
                    "durationTicks": 113,
                    "midi": 64,
                    "name": "E4",
                    "ticks": 117360,
                    "time": 108.86100400000001,
                    "velocity": 0.5196850393700787
                },
                {
                    "duration": 0.3157404250000013,
                    "durationTicks": 341,
                    "midi": 71,
                    "name": "B4",
                    "ticks": 117480,
                    "time": 108.972115,
                    "velocity": 0.5748031496062992
                },
                {
                    "duration": 0.3157404250000013,
                    "durationTicks": 341,
                    "midi": 83,
                    "name": "B5",
                    "ticks": 117480,
                    "time": 108.972115,
                    "velocity": 0.5748031496062992
                },
                {
                    "duration": 0.1046295250000071,
                    "durationTicks": 113,
                    "midi": 67,
                    "name": "G4",
                    "ticks": 117480,
                    "time": 108.972115,
                    "velocity": 0.6535433070866141
                },
                {
                    "duration": 0.1046295250000071,
                    "durationTicks": 113,
                    "midi": 60,
                    "name": "C4",
                    "ticks": 117600,
                    "time": 109.083226,
                    "velocity": 0.5511811023622047
                },
                {
                    "duration": 0.1046295250000071,
                    "durationTicks": 113,
                    "midi": 69,
                    "name": "A4",
                    "ticks": 117720,
                    "time": 109.194337,
                    "velocity": 0.7401574803149606
                },
                {
                    "duration": 0.1046295250000071,
                    "durationTicks": 113,
                    "midi": 71,
                    "name": "B4",
                    "ticks": 117840,
                    "time": 109.305448,
                    "velocity": 0.5905511811023622
                },
                {
                    "duration": 0.21018497500000421,
                    "durationTicks": 227,
                    "midi": 83,
                    "name": "B5",
                    "ticks": 117840,
                    "time": 109.305448,
                    "velocity": 0.5905511811023622
                },
                {
                    "duration": 0.21018497500000421,
                    "durationTicks": 227,
                    "midi": 71,
                    "name": "B4",
                    "ticks": 117840,
                    "time": 109.305448,
                    "velocity": 0.6614173228346457
                },
                {
                    "duration": 0.1046295250000071,
                    "durationTicks": 113,
                    "midi": 72,
                    "name": "C5",
                    "ticks": 117960,
                    "time": 109.416559,
                    "velocity": 0.6299212598425197
                },
                {
                    "duration": 0.21018497500000421,
                    "durationTicks": 227,
                    "midi": 71,
                    "name": "B4",
                    "ticks": 118080,
                    "time": 109.52767,
                    "velocity": 0.6062992125984252
                },
                {
                    "duration": 0.21018497500000421,
                    "durationTicks": 227,
                    "midi": 83,
                    "name": "B5",
                    "ticks": 118080,
                    "time": 109.52767,
                    "velocity": 0.6062992125984252
                },
                {
                    "duration": 0.1046295250000071,
                    "durationTicks": 113,
                    "midi": 79,
                    "name": "G5",
                    "ticks": 118080,
                    "time": 109.52767,
                    "velocity": 0.7244094488188977
                },
                {
                    "duration": 0.1046295250000071,
                    "durationTicks": 113,
                    "midi": 76,
                    "name": "E5",
                    "ticks": 118200,
                    "time": 109.638781,
                    "velocity": 0.5590551181102362
                },
                {
                    "duration": 0.1046295250000071,
                    "durationTicks": 113,
                    "midi": 71,
                    "name": "B4",
                    "ticks": 118320,
                    "time": 109.749892,
                    "velocity": 0.5984251968503937
                },
                {
                    "duration": 0.1046295250000071,
                    "durationTicks": 113,
                    "midi": 83,
                    "name": "B5",
                    "ticks": 118320,
                    "time": 109.749892,
                    "velocity": 0.5984251968503937
                },
                {
                    "duration": 0.1046295250000071,
                    "durationTicks": 113,
                    "midi": 74,
                    "name": "D5",
                    "ticks": 118320,
                    "time": 109.749892,
                    "velocity": 0.5511811023622047
                },
                {
                    "duration": 0.3157404250000013,
                    "durationTicks": 341,
                    "midi": 71,
                    "name": "B4",
                    "ticks": 118440,
                    "time": 109.861003,
                    "velocity": 0.6220472440944882
                },
                {
                    "duration": 0.3157404250000013,
                    "durationTicks": 341,
                    "midi": 83,
                    "name": "B5",
                    "ticks": 118440,
                    "time": 109.861003,
                    "velocity": 0.6220472440944882
                },
                {
                    "duration": 0.1046295250000071,
                    "durationTicks": 113,
                    "midi": 76,
                    "name": "E5",
                    "ticks": 118440,
                    "time": 109.861003,
                    "velocity": 0.6535433070866141
                },
                {
                    "duration": 0.1046295250000071,
                    "durationTicks": 113,
                    "midi": 69,
                    "name": "A4",
                    "ticks": 118560,
                    "time": 109.972114,
                    "velocity": 0.49606299212598426
                },
                {
                    "duration": 0.1046295250000071,
                    "durationTicks": 113,
                    "midi": 72,
                    "name": "C5",
                    "ticks": 118680,
                    "time": 110.083225,
                    "velocity": 0.6456692913385826
                },
                {
                    "duration": 0.21018497499999,
                    "durationTicks": 227,
                    "midi": 72,
                    "name": "C5",
                    "ticks": 118800,
                    "time": 110.194336,
                    "velocity": 0.6299212598425197
                },
                {
                    "duration": 0.1046295250000071,
                    "durationTicks": 113,
                    "midi": 71,
                    "name": "B4",
                    "ticks": 118800,
                    "time": 110.194336,
                    "velocity": 0.5748031496062992
                },
                {
                    "duration": 0.1046295250000071,
                    "durationTicks": 113,
                    "midi": 72,
                    "name": "C5",
                    "ticks": 118920,
                    "time": 110.305447,
                    "velocity": 0.5905511811023622
                },
                {
                    "duration": 0.21018497500000421,
                    "durationTicks": 227,
                    "midi": 62,
                    "name": "D4",
                    "ticks": 119040,
                    "time": 110.416558,
                    "velocity": 0.6299212598425197
                },
                {
                    "duration": 0.21018497500000421,
                    "durationTicks": 227,
                    "midi": 65,
                    "name": "F4",
                    "ticks": 119040,
                    "time": 110.416558,
                    "velocity": 0.6299212598425197
                },
                {
                    "duration": 0.21018497500000421,
                    "durationTicks": 227,
                    "midi": 69,
                    "name": "A4",
                    "ticks": 119040,
                    "time": 110.416558,
                    "velocity": 0.6299212598425197
                },
                {
                    "duration": 0.21018497500000421,
                    "durationTicks": 227,
                    "midi": 74,
                    "name": "D5",
                    "ticks": 119040,
                    "time": 110.416558,
                    "velocity": 0.6299212598425197
                },
                {
                    "duration": 0.1046295250000071,
                    "durationTicks": 113,
                    "midi": 65,
                    "name": "F4",
                    "ticks": 119160,
                    "time": 110.527669,
                    "velocity": 0.7637795275590551
                },
                {
                    "duration": 0.1046295250000071,
                    "durationTicks": 113,
                    "midi": 60,
                    "name": "C4",
                    "ticks": 119280,
                    "time": 110.63878,
                    "velocity": 0.5511811023622047
                },
                {
                    "duration": 0.1046295250000071,
                    "durationTicks": 113,
                    "midi": 72,
                    "name": "C5",
                    "ticks": 119280,
                    "time": 110.63878,
                    "velocity": 0.5511811023622047
                },
                {
                    "duration": 0.1046295250000071,
                    "durationTicks": 113,
                    "midi": 60,
                    "name": "C4",
                    "ticks": 119280,
                    "time": 110.63878,
                    "velocity": 0.5826771653543307
                },
                {
                    "duration": 0.3157404250000013,
                    "durationTicks": 341,
                    "midi": 62,
                    "name": "D4",
                    "ticks": 119400,
                    "time": 110.749891,
                    "velocity": 0.6299212598425197
                },
                {
                    "duration": 0.3157404250000013,
                    "durationTicks": 341,
                    "midi": 65,
                    "name": "F4",
                    "ticks": 119400,
                    "time": 110.749891,
                    "velocity": 0.6299212598425197
                },
                {
                    "duration": 0.3157404250000013,
                    "durationTicks": 341,
                    "midi": 69,
                    "name": "A4",
                    "ticks": 119400,
                    "time": 110.749891,
                    "velocity": 0.6299212598425197
                },
                {
                    "duration": 0.3157404250000013,
                    "durationTicks": 341,
                    "midi": 74,
                    "name": "D5",
                    "ticks": 119400,
                    "time": 110.749891,
                    "velocity": 0.6299212598425197
                },
                {
                    "duration": 0.21018497500000421,
                    "durationTicks": 227,
                    "midi": 72,
                    "name": "C5",
                    "ticks": 119760,
                    "time": 111.083224,
                    "velocity": 0.5905511811023622
                },
                {
                    "duration": 0.21018497500000421,
                    "durationTicks": 227,
                    "midi": 84,
                    "name": "C6",
                    "ticks": 119760,
                    "time": 111.083224,
                    "velocity": 0.5905511811023622
                },
                {
                    "duration": 0.1046295250000071,
                    "durationTicks": 113,
                    "midi": 60,
                    "name": "C4",
                    "ticks": 119760,
                    "time": 111.083224,
                    "velocity": 0.6614173228346457
                },
                {
                    "duration": 0.1046295250000071,
                    "durationTicks": 113,
                    "midi": 65,
                    "name": "F4",
                    "ticks": 119880,
                    "time": 111.194335,
                    "velocity": 0.6692913385826772
                },
                {
                    "duration": 0.21018497499999,
                    "durationTicks": 227,
                    "midi": 74,
                    "name": "D5",
                    "ticks": 120000,
                    "time": 111.305446,
                    "velocity": 0.6456692913385826
                },
                {
                    "duration": 0.21018497499999,
                    "durationTicks": 227,
                    "midi": 77,
                    "name": "F5",
                    "ticks": 120000,
                    "time": 111.305446,
                    "velocity": 0.6456692913385826
                },
                {
                    "duration": 0.21018497499999,
                    "durationTicks": 227,
                    "midi": 81,
                    "name": "A5",
                    "ticks": 120000,
                    "time": 111.305446,
                    "velocity": 0.6456692913385826
                },
                {
                    "duration": 0.21018497499999,
                    "durationTicks": 227,
                    "midi": 86,
                    "name": "D6",
                    "ticks": 120000,
                    "time": 111.305446,
                    "velocity": 0.6456692913385826
                },
                {
                    "duration": 0.1046295250000071,
                    "durationTicks": 113,
                    "midi": 65,
                    "name": "F4",
                    "ticks": 120120,
                    "time": 111.416557,
                    "velocity": 0.7244094488188977
                },
                {
                    "duration": 0.1046295250000071,
                    "durationTicks": 113,
                    "midi": 72,
                    "name": "C5",
                    "ticks": 120240,
                    "time": 111.527668,
                    "velocity": 0.5905511811023622
                },
                {
                    "duration": 0.1046295250000071,
                    "durationTicks": 113,
                    "midi": 84,
                    "name": "C6",
                    "ticks": 120240,
                    "time": 111.527668,
                    "velocity": 0.5905511811023622
                },
                {
                    "duration": 0.1046295250000071,
                    "durationTicks": 113,
                    "midi": 60,
                    "name": "C4",
                    "ticks": 120240,
                    "time": 111.527668,
                    "velocity": 0.5669291338582677
                },
                {
                    "duration": 0.3157404250000013,
                    "durationTicks": 341,
                    "midi": 74,
                    "name": "D5",
                    "ticks": 120360,
                    "time": 111.638779,
                    "velocity": 0.6220472440944882
                },
                {
                    "duration": 0.3157404250000013,
                    "durationTicks": 341,
                    "midi": 77,
                    "name": "F5",
                    "ticks": 120360,
                    "time": 111.638779,
                    "velocity": 0.6220472440944882
                },
                {
                    "duration": 0.3157404250000013,
                    "durationTicks": 341,
                    "midi": 81,
                    "name": "A5",
                    "ticks": 120360,
                    "time": 111.638779,
                    "velocity": 0.6220472440944882
                },
                {
                    "duration": 0.3157404250000013,
                    "durationTicks": 341,
                    "midi": 86,
                    "name": "D6",
                    "ticks": 120360,
                    "time": 111.638779,
                    "velocity": 0.6220472440944882
                },
                {
                    "duration": 0.1046295250000071,
                    "durationTicks": 113,
                    "midi": 60,
                    "name": "C4",
                    "ticks": 120720,
                    "time": 111.972112,
                    "velocity": 0.5590551181102362
                },
                {
                    "duration": 0.21018497500000421,
                    "durationTicks": 227,
                    "midi": 72,
                    "name": "C5",
                    "ticks": 120720,
                    "time": 111.972112,
                    "velocity": 0.5590551181102362
                },
                {
                    "duration": 0.21018497500000421,
                    "durationTicks": 227,
                    "midi": 60,
                    "name": "C4",
                    "ticks": 120720,
                    "time": 111.972112,
                    "velocity": 0.6377952755905512
                },
                {
                    "duration": 0.1046295250000071,
                    "durationTicks": 113,
                    "midi": 65,
                    "name": "F4",
                    "ticks": 120840,
                    "time": 112.083223,
                    "velocity": 0.6929133858267716
                },
                {
                    "duration": 0.21018497500000421,
                    "durationTicks": 227,
                    "midi": 62,
                    "name": "D4",
                    "ticks": 120960,
                    "time": 112.194334,
                    "velocity": 0.6220472440944882
                },
                {
                    "duration": 0.21018497500000421,
                    "durationTicks": 227,
                    "midi": 67,
                    "name": "G4",
                    "ticks": 120960,
                    "time": 112.194334,
                    "velocity": 0.6220472440944882
                },
                {
                    "duration": 0.21018497500000421,
                    "durationTicks": 227,
                    "midi": 74,
                    "name": "D5",
                    "ticks": 120960,
                    "time": 112.194334,
                    "velocity": 0.6220472440944882
                },
                {
                    "duration": 0.1046295250000071,
                    "durationTicks": 113,
                    "midi": 69,
                    "name": "A4",
                    "ticks": 121080,
                    "time": 112.305445,
                    "velocity": 0.7559055118110236
                },
                {
                    "duration": 0.1046295250000071,
                    "durationTicks": 113,
                    "midi": 60,
                    "name": "C4",
                    "ticks": 121200,
                    "time": 112.416556,
                    "velocity": 0.6062992125984252
                },
                {
                    "duration": 0.1046295250000071,
                    "durationTicks": 113,
                    "midi": 72,
                    "name": "C5",
                    "ticks": 121200,
                    "time": 112.416556,
                    "velocity": 0.6062992125984252
                },
                {
                    "duration": 0.1046295250000071,
                    "durationTicks": 113,
                    "midi": 60,
                    "name": "C4",
                    "ticks": 121200,
                    "time": 112.416556,
                    "velocity": 0.5511811023622047
                },
                {
                    "duration": 0.1046295250000071,
                    "durationTicks": 113,
                    "midi": 64,
                    "name": "E4",
                    "ticks": 121200,
                    "time": 112.416556,
                    "velocity": 0.5511811023622047
                },
                {
                    "duration": 0.3157404250000013,
                    "durationTicks": 341,
                    "midi": 62,
                    "name": "D4",
                    "ticks": 121320,
                    "time": 112.52766700000001,
                    "velocity": 0.6220472440944882
                },
                {
                    "duration": 0.3157404250000013,
                    "durationTicks": 341,
                    "midi": 67,
                    "name": "G4",
                    "ticks": 121320,
                    "time": 112.52766700000001,
                    "velocity": 0.6220472440944882
                },
                {
                    "duration": 0.3157404250000013,
                    "durationTicks": 341,
                    "midi": 74,
                    "name": "D5",
                    "ticks": 121320,
                    "time": 112.52766700000001,
                    "velocity": 0.6220472440944882
                },
                {
                    "duration": 0.21018497499999,
                    "durationTicks": 227,
                    "midi": 72,
                    "name": "C5",
                    "ticks": 121680,
                    "time": 112.861,
                    "velocity": 0.5826771653543307
                },
                {
                    "duration": 0.21018497499999,
                    "durationTicks": 227,
                    "midi": 84,
                    "name": "C6",
                    "ticks": 121680,
                    "time": 112.861,
                    "velocity": 0.5826771653543307
                },
                {
                    "duration": 0.1046295250000071,
                    "durationTicks": 113,
                    "midi": 60,
                    "name": "C4",
                    "ticks": 121680,
                    "time": 112.861,
                    "velocity": 0.7322834645669292
                },
                {
                    "duration": 0.1046295250000071,
                    "durationTicks": 113,
                    "midi": 64,
                    "name": "E4",
                    "ticks": 121680,
                    "time": 112.861,
                    "velocity": 0.7322834645669292
                },
                {
                    "duration": 0.1046295250000071,
                    "durationTicks": 113,
                    "midi": 69,
                    "name": "A4",
                    "ticks": 121800,
                    "time": 112.972111,
                    "velocity": 0.7401574803149606
                },
                {
                    "duration": 0.21018497499999,
                    "durationTicks": 227,
                    "midi": 74,
                    "name": "D5",
                    "ticks": 121920,
                    "time": 113.083222,
                    "velocity": 0.6456692913385826
                },
                {
                    "duration": 0.21018497499999,
                    "durationTicks": 227,
                    "midi": 79,
                    "name": "G5",
                    "ticks": 121920,
                    "time": 113.083222,
                    "velocity": 0.6456692913385826
                },
                {
                    "duration": 0.21018497499999,
                    "durationTicks": 227,
                    "midi": 86,
                    "name": "D6",
                    "ticks": 121920,
                    "time": 113.083222,
                    "velocity": 0.6456692913385826
                },
                {
                    "duration": 0.1046295250000071,
                    "durationTicks": 113,
                    "midi": 69,
                    "name": "A4",
                    "ticks": 122040,
                    "time": 113.194333,
                    "velocity": 0.7322834645669292
                },
                {
                    "duration": 0.1046295249999929,
                    "durationTicks": 113,
                    "midi": 72,
                    "name": "C5",
                    "ticks": 122160,
                    "time": 113.30544400000001,
                    "velocity": 0.5826771653543307
                },
                {
                    "duration": 0.1046295249999929,
                    "durationTicks": 113,
                    "midi": 84,
                    "name": "C6",
                    "ticks": 122160,
                    "time": 113.30544400000001,
                    "velocity": 0.5826771653543307
                },
                {
                    "duration": 0.1046295249999929,
                    "durationTicks": 113,
                    "midi": 60,
                    "name": "C4",
                    "ticks": 122160,
                    "time": 113.30544400000001,
                    "velocity": 0.5590551181102362
                },
                {
                    "duration": 0.1046295249999929,
                    "durationTicks": 113,
                    "midi": 64,
                    "name": "E4",
                    "ticks": 122160,
                    "time": 113.30544400000001,
                    "velocity": 0.5590551181102362
                },
                {
                    "duration": 0.3157404250000013,
                    "durationTicks": 341,
                    "midi": 74,
                    "name": "D5",
                    "ticks": 122280,
                    "time": 113.416555,
                    "velocity": 0.6299212598425197
                },
                {
                    "duration": 0.3157404250000013,
                    "durationTicks": 341,
                    "midi": 79,
                    "name": "G5",
                    "ticks": 122280,
                    "time": 113.416555,
                    "velocity": 0.6299212598425197
                },
                {
                    "duration": 0.3157404250000013,
                    "durationTicks": 341,
                    "midi": 86,
                    "name": "D6",
                    "ticks": 122280,
                    "time": 113.416555,
                    "velocity": 0.6299212598425197
                },
                {
                    "duration": 0.1046295250000071,
                    "durationTicks": 113,
                    "midi": 60,
                    "name": "C4",
                    "ticks": 122640,
                    "time": 113.749888,
                    "velocity": 0.5669291338582677
                },
                {
                    "duration": 0.21018497500000421,
                    "durationTicks": 227,
                    "midi": 72,
                    "name": "C5",
                    "ticks": 122640,
                    "time": 113.749888,
                    "velocity": 0.5669291338582677
                },
                {
                    "duration": 0.21018497500000421,
                    "durationTicks": 227,
                    "midi": 60,
                    "name": "C4",
                    "ticks": 122640,
                    "time": 113.749888,
                    "velocity": 0.6771653543307087
                },
                {
                    "duration": 0.1046295250000071,
                    "durationTicks": 113,
                    "midi": 64,
                    "name": "E4",
                    "ticks": 122640,
                    "time": 113.749888,
                    "velocity": 0.6771653543307087
                },
                {
                    "duration": 0.1046295250000071,
                    "durationTicks": 113,
                    "midi": 69,
                    "name": "A4",
                    "ticks": 122760,
                    "time": 113.860999,
                    "velocity": 0.6929133858267716
                },
                {
                    "duration": 0.21018497500000421,
                    "durationTicks": 227,
                    "midi": 62,
                    "name": "D4",
                    "ticks": 122880,
                    "time": 113.97211,
                    "velocity": 0.6377952755905512
                },
                {
                    "duration": 0.21018497500000421,
                    "durationTicks": 227,
                    "midi": 67,
                    "name": "G4",
                    "ticks": 122880,
                    "time": 113.97211,
                    "velocity": 0.6377952755905512
                },
                {
                    "duration": 0.21018497500000421,
                    "durationTicks": 227,
                    "midi": 74,
                    "name": "D5",
                    "ticks": 122880,
                    "time": 113.97211,
                    "velocity": 0.6377952755905512
                },
                {
                    "duration": 0.1046295250000071,
                    "durationTicks": 113,
                    "midi": 67,
                    "name": "G4",
                    "ticks": 123000,
                    "time": 114.083221,
                    "velocity": 0.7244094488188977
                },
                {
                    "duration": 0.1046295250000071,
                    "durationTicks": 113,
                    "midi": 60,
                    "name": "C4",
                    "ticks": 123120,
                    "time": 114.194332,
                    "velocity": 0.5590551181102362
                },
                {
                    "duration": 0.1046295250000071,
                    "durationTicks": 113,
                    "midi": 72,
                    "name": "C5",
                    "ticks": 123120,
                    "time": 114.194332,
                    "velocity": 0.5590551181102362
                },
                {
                    "duration": 0.1046295250000071,
                    "durationTicks": 113,
                    "midi": 62,
                    "name": "D4",
                    "ticks": 123120,
                    "time": 114.194332,
                    "velocity": 0.5511811023622047
                },
                {
                    "duration": 0.3157404250000013,
                    "durationTicks": 341,
                    "midi": 62,
                    "name": "D4",
                    "ticks": 123240,
                    "time": 114.305443,
                    "velocity": 0.6220472440944882
                },
                {
                    "duration": 0.3157404250000013,
                    "durationTicks": 341,
                    "midi": 67,
                    "name": "G4",
                    "ticks": 123240,
                    "time": 114.305443,
                    "velocity": 0.6220472440944882
                },
                {
                    "duration": 0.3157404250000013,
                    "durationTicks": 341,
                    "midi": 74,
                    "name": "D5",
                    "ticks": 123240,
                    "time": 114.305443,
                    "velocity": 0.6220472440944882
                },
                {
                    "duration": 0.21018497499999,
                    "durationTicks": 227,
                    "midi": 72,
                    "name": "C5",
                    "ticks": 123600,
                    "time": 114.63877600000001,
                    "velocity": 0.5826771653543307
                },
                {
                    "duration": 0.21018497499999,
                    "durationTicks": 227,
                    "midi": 84,
                    "name": "C6",
                    "ticks": 123600,
                    "time": 114.63877600000001,
                    "velocity": 0.5826771653543307
                },
                {
                    "duration": 0.1046295250000071,
                    "durationTicks": 113,
                    "midi": 62,
                    "name": "D4",
                    "ticks": 123600,
                    "time": 114.63877600000001,
                    "velocity": 0.7401574803149606
                },
                {
                    "duration": 0.1046295250000071,
                    "durationTicks": 113,
                    "midi": 67,
                    "name": "G4",
                    "ticks": 123720,
                    "time": 114.749887,
                    "velocity": 0.7322834645669292
                },
                {
                    "duration": 0.42129587499999843,
                    "durationTicks": 455,
                    "midi": 74,
                    "name": "D5",
                    "ticks": 123840,
                    "time": 114.860998,
                    "velocity": 0.6456692913385826
                },
                {
                    "duration": 0.42129587499999843,
                    "durationTicks": 455,
                    "midi": 79,
                    "name": "G5",
                    "ticks": 123840,
                    "time": 114.860998,
                    "velocity": 0.6456692913385826
                },
                {
                    "duration": 0.42129587499999843,
                    "durationTicks": 455,
                    "midi": 86,
                    "name": "D6",
                    "ticks": 123840,
                    "time": 114.860998,
                    "velocity": 0.6456692913385826
                },
                {
                    "duration": 0.1046295250000071,
                    "durationTicks": 113,
                    "midi": 67,
                    "name": "G4",
                    "ticks": 123960,
                    "time": 114.972109,
                    "velocity": 0.7244094488188977
                },
                {
                    "duration": 0.3157404250000013,
                    "durationTicks": 341,
                    "midi": 72,
                    "name": "C5",
                    "ticks": 124200,
                    "time": 115.194331,
                    "velocity": 0.5433070866141733
                },
                {
                    "duration": 0.3157404250000013,
                    "durationTicks": 341,
                    "midi": 84,
                    "name": "C6",
                    "ticks": 124200,
                    "time": 115.194331,
                    "velocity": 0.5433070866141733
                },
                {
                    "duration": 0.42129587500001264,
                    "durationTicks": 455,
                    "midi": 74,
                    "name": "D5",
                    "ticks": 124560,
                    "time": 115.527664,
                    "velocity": 0.6614173228346457
                },
                {
                    "duration": 0.42129587500001264,
                    "durationTicks": 455,
                    "midi": 79,
                    "name": "G5",
                    "ticks": 124560,
                    "time": 115.527664,
                    "velocity": 0.6614173228346457
                },
                {
                    "duration": 0.42129587500001264,
                    "durationTicks": 455,
                    "midi": 86,
                    "name": "D6",
                    "ticks": 124560,
                    "time": 115.527664,
                    "velocity": 0.6614173228346457
                },
                {
                    "duration": 0.1046295249999929,
                    "durationTicks": 113,
                    "midi": 62,
                    "name": "D4",
                    "ticks": 124560,
                    "time": 115.527664,
                    "velocity": 0.7322834645669292
                },
                {
                    "duration": 0.1046295249999929,
                    "durationTicks": 113,
                    "midi": 67,
                    "name": "G4",
                    "ticks": 124680,
                    "time": 115.638775,
                    "velocity": 0.6377952755905512
                },
                {
                    "duration": 0.1046295249999929,
                    "durationTicks": 113,
                    "midi": 69,
                    "name": "A4",
                    "ticks": 124920,
                    "time": 115.860997,
                    "velocity": 0.7322834645669292
                },
                {
                    "duration": 0.6324067749999926,
                    "durationTicks": 683,
                    "midi": 72,
                    "name": "C5",
                    "ticks": 125040,
                    "time": 115.972108,
                    "velocity": 0.5984251968503937
                },
                {
                    "duration": 0.6324067749999926,
                    "durationTicks": 683,
                    "midi": 84,
                    "name": "C6",
                    "ticks": 125040,
                    "time": 115.972108,
                    "velocity": 0.5984251968503937
                },
                {
                    "duration": 0.1046295249999929,
                    "durationTicks": 113,
                    "midi": 60,
                    "name": "C4",
                    "ticks": 125040,
                    "time": 115.972108,
                    "velocity": 0.5590551181102362
                },
                {
                    "duration": 0.1046295249999929,
                    "durationTicks": 113,
                    "midi": 64,
                    "name": "E4",
                    "ticks": 125040,
                    "time": 115.972108,
                    "velocity": 0.5590551181102362
                },
                {
                    "duration": 0.3157404250000013,
                    "durationTicks": 341,
                    "midi": 69,
                    "name": "A4",
                    "ticks": 125760,
                    "time": 116.638774,
                    "velocity": 0.8818897637795275
                },
                {
                    "duration": 0.3157404250000013,
                    "durationTicks": 341,
                    "midi": 71,
                    "name": "B4",
                    "ticks": 125760,
                    "time": 116.638774,
                    "velocity": 0.8818897637795275
                },
                {
                    "duration": 0.3157404250000013,
                    "durationTicks": 341,
                    "midi": 72,
                    "name": "C5",
                    "ticks": 125760,
                    "time": 116.638774,
                    "velocity": 0.8818897637795275
                },
                {
                    "duration": 0.3157404250000013,
                    "durationTicks": 341,
                    "midi": 76,
                    "name": "E5",
                    "ticks": 125760,
                    "time": 116.638774,
                    "velocity": 0.8818897637795275
                },
                {
                    "duration": 0.3157404250000013,
                    "durationTicks": 341,
                    "midi": 81,
                    "name": "A5",
                    "ticks": 125760,
                    "time": 116.638774,
                    "velocity": 0.8818897637795275
                },
                {
                    "duration": 0.3157404250000013,
                    "durationTicks": 341,
                    "midi": 60,
                    "name": "C4",
                    "ticks": 125760,
                    "time": 116.638774,
                    "velocity": 0.7244094488188977
                },
                {
                    "duration": 0.3157404250000013,
                    "durationTicks": 341,
                    "midi": 64,
                    "name": "E4",
                    "ticks": 125760,
                    "time": 116.638774,
                    "velocity": 0.7244094488188977
                },
                {
                    "duration": 0.3157404250000013,
                    "durationTicks": 341,
                    "midi": 69,
                    "name": "A4",
                    "ticks": 126120,
                    "time": 116.97210700000001,
                    "velocity": 0.7874015748031497
                },
                {
                    "duration": 0.3157404250000013,
                    "durationTicks": 341,
                    "midi": 71,
                    "name": "B4",
                    "ticks": 126120,
                    "time": 116.97210700000001,
                    "velocity": 0.7874015748031497
                },
                {
                    "duration": 0.3157404250000013,
                    "durationTicks": 341,
                    "midi": 72,
                    "name": "C5",
                    "ticks": 126120,
                    "time": 116.97210700000001,
                    "velocity": 0.7874015748031497
                },
                {
                    "duration": 0.3157404250000013,
                    "durationTicks": 341,
                    "midi": 76,
                    "name": "E5",
                    "ticks": 126120,
                    "time": 116.97210700000001,
                    "velocity": 0.7874015748031497
                },
                {
                    "duration": 0.3157404250000013,
                    "durationTicks": 341,
                    "midi": 81,
                    "name": "A5",
                    "ticks": 126120,
                    "time": 116.97210700000001,
                    "velocity": 0.7874015748031497
                },
                {
                    "duration": 0.3157404250000013,
                    "durationTicks": 341,
                    "midi": 60,
                    "name": "C4",
                    "ticks": 126120,
                    "time": 116.97210700000001,
                    "velocity": 0.6377952755905512
                },
                {
                    "duration": 0.3157404250000013,
                    "durationTicks": 341,
                    "midi": 64,
                    "name": "E4",
                    "ticks": 126120,
                    "time": 116.97210700000001,
                    "velocity": 0.6377952755905512
                },
                {
                    "duration": 1.4768503750000121,
                    "durationTicks": 1595,
                    "midi": 69,
                    "name": "A4",
                    "ticks": 126480,
                    "time": 117.30544,
                    "velocity": 0.7165354330708661
                },
                {
                    "duration": 1.0166656500000073,
                    "durationTicks": 1098,
                    "midi": 71,
                    "name": "B4",
                    "ticks": 126480,
                    "time": 117.30544,
                    "velocity": 0.7165354330708661
                },
                {
                    "duration": 1.1055544499999996,
                    "durationTicks": 1194,
                    "midi": 72,
                    "name": "C5",
                    "ticks": 126480,
                    "time": 117.30544,
                    "velocity": 0.7165354330708661
                },
                {
                    "duration": 1.6870353500000022,
                    "durationTicks": 1822,
                    "midi": 76,
                    "name": "E5",
                    "ticks": 126480,
                    "time": 117.30544,
                    "velocity": 0.7165354330708661
                },
                {
                    "duration": 1.7574056499999955,
                    "durationTicks": 1898,
                    "midi": 81,
                    "name": "A5",
                    "ticks": 126480,
                    "time": 117.30544,
                    "velocity": 0.7165354330708661
                },
                {
                    "duration": 0.21018497499999,
                    "durationTicks": 227,
                    "midi": 60,
                    "name": "C4",
                    "ticks": 126480,
                    "time": 117.30544,
                    "velocity": 0.6299212598425197
                },
                {
                    "duration": 0.21018497499999,
                    "durationTicks": 227,
                    "midi": 64,
                    "name": "E4",
                    "ticks": 126480,
                    "time": 117.30544,
                    "velocity": 0.6299212598425197
                },
                {
                    "duration": 0.6481474999999932,
                    "durationTicks": 700,
                    "midi": 71,
                    "name": "B4",
                    "ticks": 127488,
                    "time": 118.23877240000002,
                    "velocity": 0.6299212598425197
                },
                {
                    "duration": 0.5592587000000009,
                    "durationTicks": 604,
                    "midi": 72,
                    "name": "C5",
                    "ticks": 127584,
                    "time": 118.32766120000001,
                    "velocity": 0.6456692913385826
                },
                {
                    "duration": 0.06944437500000333,
                    "durationTicks": 75,
                    "midi": 64,
                    "name": "E4",
                    "ticks": 127680,
                    "time": 118.41655,
                    "velocity": 0.6535433070866141
                },
                {
                    "duration": 0.06944437500000333,
                    "durationTicks": 75,
                    "midi": 60,
                    "name": "C4",
                    "ticks": 128000,
                    "time": 118.71284600000001,
                    "velocity": 0.6377952755905512
                },
                {
                    "duration": 0.06944437500000333,
                    "durationTicks": 75,
                    "midi": 64,
                    "name": "E4",
                    "ticks": 128080,
                    "time": 118.78692,
                    "velocity": 0.6692913385826772
                },
                {
                    "duration": 0.42129587499999843,
                    "durationTicks": 455,
                    "midi": 81,
                    "name": "A5",
                    "ticks": 128160,
                    "time": 118.860994,
                    "velocity": 0.5196850393700787
                },
                {
                    "duration": 0.36851814999998567,
                    "durationTicks": 398,
                    "midi": 83,
                    "name": "B5",
                    "ticks": 128220,
                    "time": 118.9165495,
                    "velocity": 0.6614173228346457
                },
                {
                    "duration": 0.26296269999998856,
                    "durationTicks": 284,
                    "midi": 84,
                    "name": "C6",
                    "ticks": 128340,
                    "time": 119.0276605,
                    "velocity": 0.6614173228346457
                },
                {
                    "duration": 0.21018497499999,
                    "durationTicks": 227,
                    "midi": 76,
                    "name": "E5",
                    "ticks": 128400,
                    "time": 119.08321600000001,
                    "velocity": 0.6850393700787402
                },
                {
                    "duration": 0.13981467499999667,
                    "durationTicks": 151,
                    "midi": 81,
                    "name": "A5",
                    "ticks": 128480,
                    "time": 119.15729,
                    "velocity": 0.6929133858267716
                },
                {
                    "duration": 0.06944437499998912,
                    "durationTicks": 75,
                    "midi": 83,
                    "name": "B5",
                    "ticks": 128560,
                    "time": 119.231364,
                    "velocity": 0.6614173228346457
                },
                {
                    "duration": 0.08333325000000968,
                    "durationTicks": 90,
                    "midi": 84,
                    "name": "C6",
                    "ticks": 128640,
                    "time": 119.305438,
                    "velocity": 0.5354330708661418
                },
                {
                    "duration": 0.08333324999999547,
                    "durationTicks": 90,
                    "midi": 86,
                    "name": "D6",
                    "ticks": 128736,
                    "time": 119.3943268,
                    "velocity": 0.5905511811023622
                },
                {
                    "duration": 0.08333324999999547,
                    "durationTicks": 90,
                    "midi": 84,
                    "name": "C6",
                    "ticks": 128832,
                    "time": 119.4832156,
                    "velocity": 0.5433070866141733
                },
                {
                    "duration": 0.08333324999999547,
                    "durationTicks": 90,
                    "midi": 79,
                    "name": "G5",
                    "ticks": 128928,
                    "time": 119.57210440000001,
                    "velocity": 0.5118110236220472
                },
                {
                    "duration": 0.08333324999999547,
                    "durationTicks": 90,
                    "midi": 74,
                    "name": "D5",
                    "ticks": 129024,
                    "time": 119.66099320000001,
                    "velocity": 0.5354330708661418
                },
                {
                    "duration": 0.08333324999999547,
                    "durationTicks": 90,
                    "midi": 72,
                    "name": "C5",
                    "ticks": 129120,
                    "time": 119.749882,
                    "velocity": 0.889763779527559
                },
                {
                    "duration": 0.08333325000000968,
                    "durationTicks": 90,
                    "midi": 74,
                    "name": "D5",
                    "ticks": 129216,
                    "time": 119.83877079999999,
                    "velocity": 0.6771653543307087
                },
                {
                    "duration": 0.08333324999999547,
                    "durationTicks": 90,
                    "midi": 72,
                    "name": "C5",
                    "ticks": 129312,
                    "time": 119.9276596,
                    "velocity": 0.5748031496062992
                },
                {
                    "duration": 0.08333325000000968,
                    "durationTicks": 90,
                    "midi": 67,
                    "name": "G4",
                    "ticks": 129408,
                    "time": 120.0165484,
                    "velocity": 0.5275590551181102
                },
                {
                    "duration": 0.08333324999999547,
                    "durationTicks": 90,
                    "midi": 62,
                    "name": "D4",
                    "ticks": 129504,
                    "time": 120.10543720000001,
                    "velocity": 0.5275590551181102
                },
                {
                    "duration": 0.08333324999999547,
                    "durationTicks": 90,
                    "midi": 71,
                    "name": "B4",
                    "ticks": 129600,
                    "time": 120.194326,
                    "velocity": 0.8267716535433071
                },
                {
                    "duration": 0.42129587500001264,
                    "durationTicks": 455,
                    "midi": 79,
                    "name": "G5",
                    "ticks": 129600,
                    "time": 120.194326,
                    "velocity": 0.7322834645669292
                },
                {
                    "duration": 0.42129587500001264,
                    "durationTicks": 455,
                    "midi": 83,
                    "name": "B5",
                    "ticks": 129600,
                    "time": 120.194326,
                    "velocity": 0.7322834645669292
                },
                {
                    "duration": 0.26111084999999434,
                    "durationTicks": 282,
                    "midi": 62,
                    "name": "D4",
                    "ticks": 129600,
                    "time": 120.194326,
                    "velocity": 0.7322834645669292
                },
                {
                    "duration": 0.08333324999999547,
                    "durationTicks": 90,
                    "midi": 67,
                    "name": "G4",
                    "ticks": 129696,
                    "time": 120.2832148,
                    "velocity": 0.5590551181102362
                },
                {
                    "duration": 0.24351827500002798,
                    "durationTicks": 263,
                    "midi": 62,
                    "name": "D4",
                    "ticks": 129792,
                    "time": 120.37210359999999,
                    "velocity": 0.5118110236220472
                },
                {
                    "duration": 0.08333324999999547,
                    "durationTicks": 90,
                    "midi": 60,
                    "name": "C4",
                    "ticks": 129888,
                    "time": 120.46099240000001,
                    "velocity": 0.5748031496062992
                },
                {
                    "duration": 0.08333325000000968,
                    "durationTicks": 90,
                    "midi": 83,
                    "name": "B5",
                    "ticks": 129984,
                    "time": 120.5498812,
                    "velocity": 0.5748031496062992
                },
                {
                    "duration": 0.08333324999999547,
                    "durationTicks": 90,
                    "midi": 79,
                    "name": "G5",
                    "ticks": 130080,
                    "time": 120.63877000000001,
                    "velocity": 0.5196850393700787
                },
                {
                    "duration": 0.08333324999999547,
                    "durationTicks": 90,
                    "midi": 74,
                    "name": "D5",
                    "ticks": 130176,
                    "time": 120.7276588,
                    "velocity": 0.5196850393700787
                },
                {
                    "duration": 0.08333324999999547,
                    "durationTicks": 90,
                    "midi": 72,
                    "name": "C5",
                    "ticks": 130272,
                    "time": 120.81654759999999,
                    "velocity": 0.5511811023622047
                },
                {
                    "duration": 0.08333324999999547,
                    "durationTicks": 90,
                    "midi": 71,
                    "name": "B4",
                    "ticks": 130368,
                    "time": 120.90543640000001,
                    "velocity": 0.5590551181102362
                },
                {
                    "duration": 0.6166660499999921,
                    "durationTicks": 666,
                    "midi": 64,
                    "name": "E4",
                    "ticks": 130560,
                    "time": 121.083214,
                    "velocity": 0.5590551181102362
                },
                {
                    "duration": 0.7055548499999986,
                    "durationTicks": 762,
                    "midi": 69,
                    "name": "A4",
                    "ticks": 130560,
                    "time": 121.083214,
                    "velocity": 0.5590551181102362
                },
                {
                    "duration": 1.3703689999999966,
                    "durationTicks": 1480,
                    "midi": 72,
                    "name": "C5",
                    "ticks": 130560,
                    "time": 121.083214,
                    "velocity": 0.5590551181102362
                },
                {
                    "duration": 1.4759244499999937,
                    "durationTicks": 1594,
                    "midi": 76,
                    "name": "E5",
                    "ticks": 130560,
                    "time": 121.083214,
                    "velocity": 0.5590551181102362
                },
                {
                    "duration": 0.31018487500000447,
                    "durationTicks": 335,
                    "midi": 64,
                    "name": "E4",
                    "ticks": 131136,
                    "time": 121.6165468,
                    "velocity": 0.6377952755905512
                },
                {
                    "duration": 0.6425919500000248,
                    "durationTicks": 694,
                    "midi": 69,
                    "name": "A4",
                    "ticks": 131232,
                    "time": 121.70543559999999,
                    "velocity": 0.7007874015748031
                },
                {
                    "duration": 0.3703699999999799,
                    "durationTicks": 400,
                    "midi": 64,
                    "name": "E4",
                    "ticks": 131520,
                    "time": 121.972102,
                    "velocity": 0.6850393700787402
                },
                {
                    "duration": 0.4916661750000202,
                    "durationTicks": 531,
                    "midi": 64,
                    "name": "E4",
                    "ticks": 131920,
                    "time": 122.34247199999999,
                    "velocity": 0.6614173228346457
                },
                {
                    "duration": 0.42129587500001264,
                    "durationTicks": 455,
                    "midi": 69,
                    "name": "A4",
                    "ticks": 132000,
                    "time": 122.416546,
                    "velocity": 0.5196850393700787
                },
                {
                    "duration": 0.06944437500000333,
                    "durationTicks": 75,
                    "midi": 83,
                    "name": "B5",
                    "ticks": 132080,
                    "time": 122.49062,
                    "velocity": 0.5905511811023622
                },
                {
                    "duration": 0.28055527500001176,
                    "durationTicks": 303,
                    "midi": 84,
                    "name": "C6",
                    "ticks": 132160,
                    "time": 122.56469399999999,
                    "velocity": 0.6220472440944882
                },
                {
                    "duration": 0.21018497500000421,
                    "durationTicks": 227,
                    "midi": 76,
                    "name": "E5",
                    "ticks": 132240,
                    "time": 122.638768,
                    "velocity": 0.6771653543307087
                },
                {
                    "duration": 0.06944437500000333,
                    "durationTicks": 75,
                    "midi": 81,
                    "name": "A5",
                    "ticks": 132320,
                    "time": 122.71284200000001,
                    "velocity": 0.6850393700787402
                },
                {
                    "duration": 0.06944437500000333,
                    "durationTicks": 75,
                    "midi": 83,
                    "name": "B5",
                    "ticks": 132400,
                    "time": 122.78691599999999,
                    "velocity": 0.6299212598425197
                },
                {
                    "duration": 0.08333324999999547,
                    "durationTicks": 90,
                    "midi": 86,
                    "name": "D6",
                    "ticks": 132480,
                    "time": 122.86099,
                    "velocity": 0.6614173228346457
                },
                {
                    "duration": 0.08333325000000968,
                    "durationTicks": 90,
                    "midi": 88,
                    "name": "E6",
                    "ticks": 132576,
                    "time": 122.9498788,
                    "velocity": 0.6299212598425197
                },
                {
                    "duration": 0.08333325000000968,
                    "durationTicks": 90,
                    "midi": 86,
                    "name": "D6",
                    "ticks": 132672,
                    "time": 123.03876759999999,
                    "velocity": 0.5984251968503937
                },
                {
                    "duration": 0.08333325000000968,
                    "durationTicks": 90,
                    "midi": 84,
                    "name": "C6",
                    "ticks": 132768,
                    "time": 123.1276564,
                    "velocity": 0.5826771653543307
                },
                {
                    "duration": 0.08333324999999547,
                    "durationTicks": 90,
                    "midi": 79,
                    "name": "G5",
                    "ticks": 132864,
                    "time": 123.21654520000001,
                    "velocity": 0.4881889763779528
                },
                {
                    "duration": 0.08333324999999547,
                    "durationTicks": 90,
                    "midi": 74,
                    "name": "D5",
                    "ticks": 132960,
                    "time": 123.305434,
                    "velocity": 0.8267716535433071
                },
                {
                    "duration": 0.08333324999999547,
                    "durationTicks": 90,
                    "midi": 76,
                    "name": "E5",
                    "ticks": 133056,
                    "time": 123.3943228,
                    "velocity": 0.6220472440944882
                },
                {
                    "duration": 0.08333324999999547,
                    "durationTicks": 90,
                    "midi": 74,
                    "name": "D5",
                    "ticks": 133152,
                    "time": 123.48321159999999,
                    "velocity": 0.5590551181102362
                },
                {
                    "duration": 0.08333324999999547,
                    "durationTicks": 90,
                    "midi": 72,
                    "name": "C5",
                    "ticks": 133248,
                    "time": 123.57210040000001,
                    "velocity": 0.5590551181102362
                },
                {
                    "duration": 0.08333325000000968,
                    "durationTicks": 90,
                    "midi": 67,
                    "name": "G4",
                    "ticks": 133344,
                    "time": 123.6609892,
                    "velocity": 0.5590551181102362
                },
                {
                    "duration": 0.08333325000000968,
                    "durationTicks": 90,
                    "midi": 74,
                    "name": "D5",
                    "ticks": 133440,
                    "time": 123.749878,
                    "velocity": 0.8346456692913385
                },
                {
                    "duration": 0.3499996500000151,
                    "durationTicks": 378,
                    "midi": 67,
                    "name": "G4",
                    "ticks": 133440,
                    "time": 123.749878,
                    "velocity": 0.7559055118110236
                },
                {
                    "duration": 0.26111084999999434,
                    "durationTicks": 282,
                    "midi": 71,
                    "name": "B4",
                    "ticks": 133440,
                    "time": 123.749878,
                    "velocity": 0.7559055118110236
                },
                {
                    "duration": 0.42129587500001264,
                    "durationTicks": 455,
                    "midi": 62,
                    "name": "D4",
                    "ticks": 133440,
                    "time": 123.749878,
                    "velocity": 0.7559055118110236
                },
                {
                    "duration": 0.08333324999999547,
                    "durationTicks": 90,
                    "midi": 72,
                    "name": "C5",
                    "ticks": 133536,
                    "time": 123.8387668,
                    "velocity": 0.5748031496062992
                },
                {
                    "duration": 0.24351827500001377,
                    "durationTicks": 263,
                    "midi": 71,
                    "name": "B4",
                    "ticks": 133632,
                    "time": 123.9276556,
                    "velocity": 0.5748031496062992
                },
                {
                    "duration": 0.15462947499999302,
                    "durationTicks": 167,
                    "midi": 67,
                    "name": "G4",
                    "ticks": 133728,
                    "time": 124.01654440000002,
                    "velocity": 0.5354330708661418
                },
                {
                    "duration": 0.08333324999999547,
                    "durationTicks": 90,
                    "midi": 62,
                    "name": "D4",
                    "ticks": 133824,
                    "time": 124.10543320000001,
                    "velocity": 0.47244094488188976
                },
                {
                    "duration": 0.08333324999999547,
                    "durationTicks": 90,
                    "midi": 60,
                    "name": "C4",
                    "ticks": 133920,
                    "time": 124.194322,
                    "velocity": 0.5196850393700787
                },
                {
                    "duration": 0.08333325000000968,
                    "durationTicks": 90,
                    "midi": 83,
                    "name": "B5",
                    "ticks": 134016,
                    "time": 124.28321079999999,
                    "velocity": 0.5433070866141733
                },
                {
                    "duration": 0.08333324999999547,
                    "durationTicks": 90,
                    "midi": 79,
                    "name": "G5",
                    "ticks": 134112,
                    "time": 124.3720996,
                    "velocity": 0.49606299212598426
                },
                {
                    "duration": 0.08333325000000968,
                    "durationTicks": 90,
                    "midi": 74,
                    "name": "D5",
                    "ticks": 134208,
                    "time": 124.4609884,
                    "velocity": 0.5196850393700787
                },
                {
                    "duration": 0.7055548499999844,
                    "durationTicks": 762,
                    "midi": 69,
                    "name": "A4",
                    "ticks": 134400,
                    "time": 124.638766,
                    "velocity": 0.5511811023622047
                },
                {
                    "duration": 1.4074060000000088,
                    "durationTicks": 1520,
                    "midi": 71,
                    "name": "B4",
                    "ticks": 134400,
                    "time": 124.638766,
                    "velocity": 0.5511811023622047
                },
                {
                    "duration": 1.4814799999999906,
                    "durationTicks": 1600,
                    "midi": 72,
                    "name": "C5",
                    "ticks": 134400,
                    "time": 124.638766,
                    "velocity": 0.5511811023622047
                },
                {
                    "duration": 1.5555540000000008,
                    "durationTicks": 1680,
                    "midi": 76,
                    "name": "E5",
                    "ticks": 134400,
                    "time": 124.638766,
                    "velocity": 0.5511811023622047
                },
                {
                    "duration": 1.629628000000011,
                    "durationTicks": 1760,
                    "midi": 81,
                    "name": "A5",
                    "ticks": 134400,
                    "time": 124.638766,
                    "velocity": 0.5511811023622047
                },
                {
                    "duration": 0.08333324999999547,
                    "durationTicks": 90,
                    "midi": 60,
                    "name": "C4",
                    "ticks": 134880,
                    "time": 125.08321000000001,
                    "velocity": 0.6377952755905512
                },
                {
                    "duration": 0.08333324999999547,
                    "durationTicks": 90,
                    "midi": 64,
                    "name": "E4",
                    "ticks": 134976,
                    "time": 125.1720988,
                    "velocity": 0.6456692913385826
                },
                {
                    "duration": 0.6416660250000064,
                    "durationTicks": 693,
                    "midi": 69,
                    "name": "A4",
                    "ticks": 135072,
                    "time": 125.26098759999999,
                    "velocity": 0.7086614173228346
                },
                {
                    "duration": 0.08333324999999547,
                    "durationTicks": 90,
                    "midi": 60,
                    "name": "C4",
                    "ticks": 135264,
                    "time": 125.4387652,
                    "velocity": 0.6456692913385826
                },
                {
                    "duration": 0.06944437500000333,
                    "durationTicks": 75,
                    "midi": 64,
                    "name": "E4",
                    "ticks": 135360,
                    "time": 125.527654,
                    "velocity": 0.6929133858267716
                },
                {
                    "duration": 0.06944437500000333,
                    "durationTicks": 75,
                    "midi": 60,
                    "name": "C4",
                    "ticks": 135680,
                    "time": 125.82395000000001,
                    "velocity": 0.6220472440944882
                },
                {
                    "duration": 0.06944437500000333,
                    "durationTicks": 75,
                    "midi": 64,
                    "name": "E4",
                    "ticks": 135760,
                    "time": 125.89802399999999,
                    "velocity": 0.6692913385826772
                },
                {
                    "duration": 0.42129587500001264,
                    "durationTicks": 455,
                    "midi": 81,
                    "name": "A5",
                    "ticks": 135840,
                    "time": 125.972098,
                    "velocity": 0.5118110236220472
                },
                {
                    "duration": 0.3509255749999909,
                    "durationTicks": 379,
                    "midi": 83,
                    "name": "B5",
                    "ticks": 135920,
                    "time": 126.04617200000001,
                    "velocity": 0.6299212598425197
                },
                {
                    "duration": 0.28055527500001176,
                    "durationTicks": 303,
                    "midi": 84,
                    "name": "C6",
                    "ticks": 136000,
                    "time": 126.120246,
                    "velocity": 0.6377952755905512
                },
                {
                    "duration": 0.21018497499999,
                    "durationTicks": 227,
                    "midi": 76,
                    "name": "E5",
                    "ticks": 136080,
                    "time": 126.19432,
                    "velocity": 0.6771653543307087
                },
                {
                    "duration": 0.13981467499998246,
                    "durationTicks": 151,
                    "midi": 81,
                    "name": "A5",
                    "ticks": 136160,
                    "time": 126.26839400000001,
                    "velocity": 0.6929133858267716
                },
                {
                    "duration": 0.06944437500000333,
                    "durationTicks": 75,
                    "midi": 83,
                    "name": "B5",
                    "ticks": 136240,
                    "time": 126.342468,
                    "velocity": 0.6850393700787402
                },
                {
                    "duration": 0.08333324999999547,
                    "durationTicks": 90,
                    "midi": 84,
                    "name": "C6",
                    "ticks": 136320,
                    "time": 126.416542,
                    "velocity": 0.5669291338582677
                },
                {
                    "duration": 0.08333324999999547,
                    "durationTicks": 90,
                    "midi": 86,
                    "name": "D6",
                    "ticks": 136416,
                    "time": 126.5054308,
                    "velocity": 0.6299212598425197
                },
                {
                    "duration": 0.08333324999999547,
                    "durationTicks": 90,
                    "midi": 84,
                    "name": "C6",
                    "ticks": 136512,
                    "time": 126.59431959999999,
                    "velocity": 0.5354330708661418
                },
                {
                    "duration": 0.08333324999999547,
                    "durationTicks": 90,
                    "midi": 79,
                    "name": "G5",
                    "ticks": 136608,
                    "time": 126.68320840000001,
                    "velocity": 0.5196850393700787
                },
                {
                    "duration": 0.08333324999999547,
                    "durationTicks": 90,
                    "midi": 74,
                    "name": "D5",
                    "ticks": 136704,
                    "time": 126.7720972,
                    "velocity": 0.5433070866141733
                },
                {
                    "duration": 0.08333325000000968,
                    "durationTicks": 90,
                    "midi": 72,
                    "name": "C5",
                    "ticks": 136800,
                    "time": 126.860986,
                    "velocity": 0.8582677165354331
                },
                {
                    "duration": 0.08333324999999547,
                    "durationTicks": 90,
                    "midi": 74,
                    "name": "D5",
                    "ticks": 136896,
                    "time": 126.9498748,
                    "velocity": 0.6299212598425197
                },
                {
                    "duration": 0.08333324999999547,
                    "durationTicks": 90,
                    "midi": 72,
                    "name": "C5",
                    "ticks": 136992,
                    "time": 127.0387636,
                    "velocity": 0.5826771653543307
                },
                {
                    "duration": 0.08333324999999547,
                    "durationTicks": 90,
                    "midi": 67,
                    "name": "G4",
                    "ticks": 137088,
                    "time": 127.12765240000002,
                    "velocity": 0.5039370078740157
                },
                {
                    "duration": 0.08333324999999547,
                    "durationTicks": 90,
                    "midi": 62,
                    "name": "D4",
                    "ticks": 137184,
                    "time": 127.21654120000001,
                    "velocity": 0.48031496062992124
                },
                {
                    "duration": 0.08333324999999547,
                    "durationTicks": 90,
                    "midi": 71,
                    "name": "B4",
                    "ticks": 137280,
                    "time": 127.30543,
                    "velocity": 0.8740157480314961
                },
                {
                    "duration": 0.172222050000002,
                    "durationTicks": 186,
                    "midi": 67,
                    "name": "G4",
                    "ticks": 137280,
                    "time": 127.30543,
                    "velocity": 0.7401574803149606
                },
                {
                    "duration": 0.42129587500001264,
                    "durationTicks": 455,
                    "midi": 71,
                    "name": "B4",
                    "ticks": 137280,
                    "time": 127.30543,
                    "velocity": 0.7401574803149606
                },
                {
                    "duration": 0.26111084999999434,
                    "durationTicks": 282,
                    "midi": 62,
                    "name": "D4",
                    "ticks": 137280,
                    "time": 127.30543,
                    "velocity": 0.7401574803149606
                },
                {
                    "duration": 0.3324070750000203,
                    "durationTicks": 359,
                    "midi": 67,
                    "name": "G4",
                    "ticks": 137376,
                    "time": 127.3943188,
                    "velocity": 0.5275590551181102
                },
                {
                    "duration": 0.24351827500002798,
                    "durationTicks": 263,
                    "midi": 62,
                    "name": "D4",
                    "ticks": 137472,
                    "time": 127.48320759999999,
                    "velocity": 0.47244094488188976
                },
                {
                    "duration": 0.08333325000000968,
                    "durationTicks": 90,
                    "midi": 60,
                    "name": "C4",
                    "ticks": 137568,
                    "time": 127.5720964,
                    "velocity": 0.5433070866141733
                },
                {
                    "duration": 0.08333324999999547,
                    "durationTicks": 90,
                    "midi": 71,
                    "name": "B4",
                    "ticks": 137664,
                    "time": 127.66098520000001,
                    "velocity": 0.5905511811023622
                },
                {
                    "duration": 0.08333324999999547,
                    "durationTicks": 90,
                    "midi": 67,
                    "name": "G4",
                    "ticks": 137760,
                    "time": 127.749874,
                    "velocity": 0.5196850393700787
                },
                {
                    "duration": 0.08333324999999547,
                    "durationTicks": 90,
                    "midi": 74,
                    "name": "D5",
                    "ticks": 137856,
                    "time": 127.8387628,
                    "velocity": 0.4881889763779528
                },
                {
                    "duration": 0.08333325000000968,
                    "durationTicks": 90,
                    "midi": 72,
                    "name": "C5",
                    "ticks": 137952,
                    "time": 127.92765159999999,
                    "velocity": 0.5905511811023622
                },
                {
                    "duration": 0.08333325000000968,
                    "durationTicks": 90,
                    "midi": 71,
                    "name": "B4",
                    "ticks": 138048,
                    "time": 128.0165404,
                    "velocity": 0.5905511811023622
                },
                {
                    "duration": 0.6166660499999921,
                    "durationTicks": 666,
                    "midi": 64,
                    "name": "E4",
                    "ticks": 138240,
                    "time": 128.194318,
                    "velocity": 0.5433070866141733
                },
                {
                    "duration": 0.7055548499999986,
                    "durationTicks": 762,
                    "midi": 69,
                    "name": "A4",
                    "ticks": 138240,
                    "time": 128.194318,
                    "velocity": 0.5433070866141733
                },
                {
                    "duration": 1.3712949250000008,
                    "durationTicks": 1481,
                    "midi": 72,
                    "name": "C5",
                    "ticks": 138240,
                    "time": 128.194318,
                    "velocity": 0.5433070866141733
                },
                {
                    "duration": 1.476850374999998,
                    "durationTicks": 1595,
                    "midi": 76,
                    "name": "E5",
                    "ticks": 138240,
                    "time": 128.194318,
                    "velocity": 0.5433070866141733
                },
                {
                    "duration": 0.08333325000000968,
                    "durationTicks": 90,
                    "midi": 60,
                    "name": "C4",
                    "ticks": 138720,
                    "time": 128.63876199999999,
                    "velocity": 0.6220472440944882
                },
                {
                    "duration": 0.30925895000001447,
                    "durationTicks": 334,
                    "midi": 64,
                    "name": "E4",
                    "ticks": 138816,
                    "time": 128.7276508,
                    "velocity": 0.7165354330708661
                },
                {
                    "duration": 0.6435178749999864,
                    "durationTicks": 695,
                    "midi": 69,
                    "name": "A4",
                    "ticks": 138912,
                    "time": 128.8165396,
                    "velocity": 0.6850393700787402
                },
                {
                    "duration": 0.10462952499997868,
                    "durationTicks": 113,
                    "midi": 60,
                    "name": "C4",
                    "ticks": 139080,
                    "time": 128.972095,
                    "velocity": 0.6220472440944882
                },
                {
                    "duration": 0.3703699999999799,
                    "durationTicks": 400,
                    "midi": 64,
                    "name": "E4",
                    "ticks": 139200,
                    "time": 129.08320600000002,
                    "velocity": 0.6614173228346457
                },
                {
                    "duration": 0.36574037499997303,
                    "durationTicks": 395,
                    "midi": 60,
                    "name": "C4",
                    "ticks": 139200,
                    "time": 129.08320600000002,
                    "velocity": 0.7086614173228346
                },
                {
                    "duration": 0.12499987500001453,
                    "durationTicks": 135,
                    "midi": 60,
                    "name": "C4",
                    "ticks": 139520,
                    "time": 129.379502,
                    "velocity": 0.6220472440944882
                },
                {
                    "duration": 0.491666175000006,
                    "durationTicks": 531,
                    "midi": 64,
                    "name": "E4",
                    "ticks": 139600,
                    "time": 129.453576,
                    "velocity": 0.6771653543307087
                },
                {
                    "duration": 0.42129587500002685,
                    "durationTicks": 455,
                    "midi": 69,
                    "name": "A4",
                    "ticks": 139680,
                    "time": 129.52765,
                    "velocity": 0.48031496062992124
                },
                {
                    "duration": 0.06944437500001754,
                    "durationTicks": 75,
                    "midi": 83,
                    "name": "B5",
                    "ticks": 139760,
                    "time": 129.601724,
                    "velocity": 0.5905511811023622
                },
                {
                    "duration": 0.28055527500001176,
                    "durationTicks": 303,
                    "midi": 84,
                    "name": "C6",
                    "ticks": 139840,
                    "time": 129.675798,
                    "velocity": 0.6456692913385826
                },
                {
                    "duration": 0.21018497500000421,
                    "durationTicks": 227,
                    "midi": 76,
                    "name": "E5",
                    "ticks": 139920,
                    "time": 129.74987199999998,
                    "velocity": 0.6850393700787402
                },
                {
                    "duration": 0.06944437500001754,
                    "durationTicks": 75,
                    "midi": 81,
                    "name": "A5",
                    "ticks": 140000,
                    "time": 129.823946,
                    "velocity": 0.7244094488188977
                },
                {
                    "duration": 0.06944437499998912,
                    "durationTicks": 75,
                    "midi": 83,
                    "name": "B5",
                    "ticks": 140080,
                    "time": 129.89802,
                    "velocity": 0.6299212598425197
                },
                {
                    "duration": 0.08333325000000968,
                    "durationTicks": 90,
                    "midi": 86,
                    "name": "D6",
                    "ticks": 140160,
                    "time": 129.972094,
                    "velocity": 0.6535433070866141
                },
                {
                    "duration": 0.08333324999998126,
                    "durationTicks": 90,
                    "midi": 88,
                    "name": "E6",
                    "ticks": 140256,
                    "time": 130.0609828,
                    "velocity": 0.6377952755905512
                },
                {
                    "duration": 0.08333325000000968,
                    "durationTicks": 90,
                    "midi": 86,
                    "name": "D6",
                    "ticks": 140352,
                    "time": 130.14987159999998,
                    "velocity": 0.5826771653543307
                },
                {
                    "duration": 0.08333324999998126,
                    "durationTicks": 90,
                    "midi": 84,
                    "name": "C6",
                    "ticks": 140448,
                    "time": 130.23876040000002,
                    "velocity": 0.5433070866141733
                },
                {
                    "duration": 0.08333325000000968,
                    "durationTicks": 90,
                    "midi": 79,
                    "name": "G5",
                    "ticks": 140544,
                    "time": 130.3276492,
                    "velocity": 0.5196850393700787
                },
                {
                    "duration": 0.08333325000000968,
                    "durationTicks": 90,
                    "midi": 74,
                    "name": "D5",
                    "ticks": 140640,
                    "time": 130.416538,
                    "velocity": 0.8503937007874016
                },
                {
                    "duration": 0.08333324999998126,
                    "durationTicks": 90,
                    "midi": 76,
                    "name": "E5",
                    "ticks": 140736,
                    "time": 130.5054268,
                    "velocity": 0.6535433070866141
                },
                {
                    "duration": 0.08333325000000968,
                    "durationTicks": 90,
                    "midi": 74,
                    "name": "D5",
                    "ticks": 140832,
                    "time": 130.5943156,
                    "velocity": 0.5984251968503937
                },
                {
                    "duration": 0.08333324999998126,
                    "durationTicks": 90,
                    "midi": 72,
                    "name": "C5",
                    "ticks": 140928,
                    "time": 130.68320440000002,
                    "velocity": 0.5748031496062992
                },
                {
                    "duration": 0.08333325000000968,
                    "durationTicks": 90,
                    "midi": 67,
                    "name": "G4",
                    "ticks": 141024,
                    "time": 130.7720932,
                    "velocity": 0.5275590551181102
                },
                {
                    "duration": 0.08333324999998126,
                    "durationTicks": 90,
                    "midi": 74,
                    "name": "D5",
                    "ticks": 141120,
                    "time": 130.860982,
                    "velocity": 0.8661417322834646
                },
                {
                    "duration": 0.3499996500000009,
                    "durationTicks": 378,
                    "midi": 67,
                    "name": "G4",
                    "ticks": 141120,
                    "time": 130.860982,
                    "velocity": 0.7244094488188977
                },
                {
                    "duration": 0.26111084999999434,
                    "durationTicks": 282,
                    "midi": 71,
                    "name": "B4",
                    "ticks": 141120,
                    "time": 130.860982,
                    "velocity": 0.7244094488188977
                },
                {
                    "duration": 0.42129587499999843,
                    "durationTicks": 455,
                    "midi": 62,
                    "name": "D4",
                    "ticks": 141120,
                    "time": 130.860982,
                    "velocity": 0.7244094488188977
                },
                {
                    "duration": 0.08333325000000968,
                    "durationTicks": 90,
                    "midi": 72,
                    "name": "C5",
                    "ticks": 141216,
                    "time": 130.94987079999999,
                    "velocity": 0.5669291338582677
                },
                {
                    "duration": 0.24351827500001377,
                    "durationTicks": 263,
                    "midi": 71,
                    "name": "B4",
                    "ticks": 141312,
                    "time": 131.0387596,
                    "velocity": 0.5748031496062992
                },
                {
                    "duration": 0.15462947500000723,
                    "durationTicks": 167,
                    "midi": 67,
                    "name": "G4",
                    "ticks": 141408,
                    "time": 131.1276484,
                    "velocity": 0.5669291338582677
                },
                {
                    "duration": 0.08333325000000968,
                    "durationTicks": 90,
                    "midi": 62,
                    "name": "D4",
                    "ticks": 141504,
                    "time": 131.2165372,
                    "velocity": 0.5039370078740157
                },
                {
                    "duration": 0.08333324999998126,
                    "durationTicks": 90,
                    "midi": 60,
                    "name": "C4",
                    "ticks": 141600,
                    "time": 131.305426,
                    "velocity": 0.5433070866141733
                },
                {
                    "duration": 0.08333325000000968,
                    "durationTicks": 90,
                    "midi": 71,
                    "name": "B4",
                    "ticks": 141696,
                    "time": 131.3943148,
                    "velocity": 0.5826771653543307
                },
                {
                    "duration": 0.08333325000000968,
                    "durationTicks": 90,
                    "midi": 67,
                    "name": "G4",
                    "ticks": 141792,
                    "time": 131.4832036,
                    "velocity": 0.5118110236220472
                },
                {
                    "duration": 0.08333325000000968,
                    "durationTicks": 90,
                    "midi": 62,
                    "name": "D4",
                    "ticks": 141888,
                    "time": 131.5720924,
                    "velocity": 0.5669291338582677
                },
                {
                    "duration": 0.3157404250000013,
                    "durationTicks": 341,
                    "midi": 76,
                    "name": "E5",
                    "ticks": 142080,
                    "time": 131.74987000000002,
                    "velocity": 0.5433070866141733
                },
                {
                    "duration": 0.10462952499997868,
                    "durationTicks": 113,
                    "midi": 69,
                    "name": "A4",
                    "ticks": 142200,
                    "time": 131.860981,
                    "velocity": 0.5039370078740157
                },
                {
                    "duration": 0.11018507499997554,
                    "durationTicks": 119,
                    "midi": 64,
                    "name": "E4",
                    "ticks": 142320,
                    "time": 131.972092,
                    "velocity": 0.5196850393700787
                },
                {
                    "duration": 0.3157404250000013,
                    "durationTicks": 341,
                    "midi": 72,
                    "name": "C5",
                    "ticks": 142440,
                    "time": 132.083203,
                    "velocity": 0.5118110236220472
                },
                {
                    "duration": 0.1046295250000071,
                    "durationTicks": 113,
                    "midi": 69,
                    "name": "A4",
                    "ticks": 142560,
                    "time": 132.194314,
                    "velocity": 0.5590551181102362
                },
                {
                    "duration": 0.11018507499997554,
                    "durationTicks": 119,
                    "midi": 64,
                    "name": "E4",
                    "ticks": 142680,
                    "time": 132.305425,
                    "velocity": 0.5039370078740157
                },
                {
                    "duration": 0.21018497500000421,
                    "durationTicks": 227,
                    "midi": 69,
                    "name": "A4",
                    "ticks": 142800,
                    "time": 132.416536,
                    "velocity": 0.5275590551181102
                },
                {
                    "duration": 0.10462952499997868,
                    "durationTicks": 113,
                    "midi": 60,
                    "name": "C4",
                    "ticks": 142800,
                    "time": 132.416536,
                    "velocity": 0.6456692913385826
                },
                {
                    "duration": 0.1046295250000071,
                    "durationTicks": 113,
                    "midi": 64,
                    "name": "E4",
                    "ticks": 142920,
                    "time": 132.527647,
                    "velocity": 0.5118110236220472
                },
                {
                    "duration": 0.1046295250000071,
                    "durationTicks": 113,
                    "midi": 64,
                    "name": "E4",
                    "ticks": 142920,
                    "time": 132.527647,
                    "velocity": 0.6614173228346457
                },
                {
                    "duration": 0.3157404250000013,
                    "durationTicks": 341,
                    "midi": 76,
                    "name": "E5",
                    "ticks": 143040,
                    "time": 132.638758,
                    "velocity": 0.6692913385826772
                },
                {
                    "duration": 0.1046295250000071,
                    "durationTicks": 113,
                    "midi": 69,
                    "name": "A4",
                    "ticks": 143160,
                    "time": 132.749869,
                    "velocity": 0.5196850393700787
                },
                {
                    "duration": 0.11018507499997554,
                    "durationTicks": 119,
                    "midi": 64,
                    "name": "E4",
                    "ticks": 143280,
                    "time": 132.86098,
                    "velocity": 0.49606299212598426
                },
                {
                    "duration": 0.3157404250000013,
                    "durationTicks": 341,
                    "midi": 72,
                    "name": "C5",
                    "ticks": 143400,
                    "time": 132.972091,
                    "velocity": 0.5433070866141733
                },
                {
                    "duration": 0.1046295250000071,
                    "durationTicks": 113,
                    "midi": 69,
                    "name": "A4",
                    "ticks": 143520,
                    "time": 133.083202,
                    "velocity": 0.5984251968503937
                },
                {
                    "duration": 0.11018507500000396,
                    "durationTicks": 119,
                    "midi": 64,
                    "name": "E4",
                    "ticks": 143640,
                    "time": 133.194313,
                    "velocity": 0.5354330708661418
                },
                {
                    "duration": 0.21018497500000421,
                    "durationTicks": 227,
                    "midi": 69,
                    "name": "A4",
                    "ticks": 143760,
                    "time": 133.305424,
                    "velocity": 0.5354330708661418
                },
                {
                    "duration": 0.1046295250000071,
                    "durationTicks": 113,
                    "midi": 60,
                    "name": "C4",
                    "ticks": 143760,
                    "time": 133.305424,
                    "velocity": 0.6141732283464567
                },
                {
                    "duration": 0.10462952499997868,
                    "durationTicks": 113,
                    "midi": 64,
                    "name": "E4",
                    "ticks": 143880,
                    "time": 133.416535,
                    "velocity": 0.5433070866141733
                },
                {
                    "duration": 0.10462952499997868,
                    "durationTicks": 113,
                    "midi": 64,
                    "name": "E4",
                    "ticks": 143880,
                    "time": 133.416535,
                    "velocity": 0.6535433070866141
                },
                {
                    "duration": 0.3157404250000013,
                    "durationTicks": 341,
                    "midi": 74,
                    "name": "D5",
                    "ticks": 144000,
                    "time": 133.527646,
                    "velocity": 0.6850393700787402
                },
                {
                    "duration": 0.1046295250000071,
                    "durationTicks": 113,
                    "midi": 67,
                    "name": "G4",
                    "ticks": 144120,
                    "time": 133.638757,
                    "velocity": 0.5433070866141733
                },
                {
                    "duration": 0.11018507500000396,
                    "durationTicks": 119,
                    "midi": 62,
                    "name": "D4",
                    "ticks": 144240,
                    "time": 133.749868,
                    "velocity": 0.5039370078740157
                },
                {
                    "duration": 0.3157404250000013,
                    "durationTicks": 341,
                    "midi": 71,
                    "name": "B4",
                    "ticks": 144360,
                    "time": 133.86097900000001,
                    "velocity": 0.5669291338582677
                },
                {
                    "duration": 0.10462952499997868,
                    "durationTicks": 113,
                    "midi": 67,
                    "name": "G4",
                    "ticks": 144480,
                    "time": 133.97209,
                    "velocity": 0.5826771653543307
                },
                {
                    "duration": 0.11018507499997554,
                    "durationTicks": 119,
                    "midi": 62,
                    "name": "D4",
                    "ticks": 144600,
                    "time": 134.083201,
                    "velocity": 0.5275590551181102
                },
                {
                    "duration": 0.21018497500000421,
                    "durationTicks": 227,
                    "midi": 67,
                    "name": "G4",
                    "ticks": 144720,
                    "time": 134.194312,
                    "velocity": 0.5433070866141733
                },
                {
                    "duration": 0.1046295250000071,
                    "durationTicks": 113,
                    "midi": 60,
                    "name": "C4",
                    "ticks": 144720,
                    "time": 134.194312,
                    "velocity": 0.6377952755905512
                },
                {
                    "duration": 0.1046295250000071,
                    "durationTicks": 113,
                    "midi": 62,
                    "name": "D4",
                    "ticks": 144840,
                    "time": 134.305423,
                    "velocity": 0.5354330708661418
                },
                {
                    "duration": 0.1046295250000071,
                    "durationTicks": 113,
                    "midi": 62,
                    "name": "D4",
                    "ticks": 144840,
                    "time": 134.305423,
                    "velocity": 0.6535433070866141
                },
                {
                    "duration": 0.3157404250000013,
                    "durationTicks": 341,
                    "midi": 74,
                    "name": "D5",
                    "ticks": 144960,
                    "time": 134.416534,
                    "velocity": 0.6692913385826772
                },
                {
                    "duration": 0.10462952499997868,
                    "durationTicks": 113,
                    "midi": 67,
                    "name": "G4",
                    "ticks": 145080,
                    "time": 134.527645,
                    "velocity": 0.5196850393700787
                },
                {
                    "duration": 0.11018507499997554,
                    "durationTicks": 119,
                    "midi": 62,
                    "name": "D4",
                    "ticks": 145200,
                    "time": 134.638756,
                    "velocity": 0.5039370078740157
                },
                {
                    "duration": 0.3157404250000013,
                    "durationTicks": 341,
                    "midi": 71,
                    "name": "B4",
                    "ticks": 145320,
                    "time": 134.749867,
                    "velocity": 0.5669291338582677
                },
                {
                    "duration": 0.1046295250000071,
                    "durationTicks": 113,
                    "midi": 67,
                    "name": "G4",
                    "ticks": 145440,
                    "time": 134.860978,
                    "velocity": 0.5669291338582677
                },
                {
                    "duration": 0.11018507499997554,
                    "durationTicks": 119,
                    "midi": 62,
                    "name": "D4",
                    "ticks": 145560,
                    "time": 134.972089,
                    "velocity": 0.49606299212598426
                },
                {
                    "duration": 0.21018497500000421,
                    "durationTicks": 227,
                    "midi": 67,
                    "name": "G4",
                    "ticks": 145680,
                    "time": 135.0832,
                    "velocity": 0.5118110236220472
                },
                {
                    "duration": 0.10462952499997868,
                    "durationTicks": 113,
                    "midi": 60,
                    "name": "C4",
                    "ticks": 145680,
                    "time": 135.0832,
                    "velocity": 0.6220472440944882
                },
                {
                    "duration": 0.1046295250000071,
                    "durationTicks": 113,
                    "midi": 62,
                    "name": "D4",
                    "ticks": 145800,
                    "time": 135.194311,
                    "velocity": 0.5669291338582677
                },
                {
                    "duration": 0.1046295250000071,
                    "durationTicks": 113,
                    "midi": 62,
                    "name": "D4",
                    "ticks": 145800,
                    "time": 135.194311,
                    "velocity": 0.6299212598425197
                },
                {
                    "duration": 0.3157404250000013,
                    "durationTicks": 341,
                    "midi": 84,
                    "name": "C6",
                    "ticks": 145920,
                    "time": 135.305422,
                    "velocity": 0.6771653543307087
                },
                {
                    "duration": 0.10462952499997868,
                    "durationTicks": 113,
                    "midi": 76,
                    "name": "E5",
                    "ticks": 146040,
                    "time": 135.41653300000002,
                    "velocity": 0.5196850393700787
                },
                {
                    "duration": 0.11018507499997554,
                    "durationTicks": 119,
                    "midi": 72,
                    "name": "C5",
                    "ticks": 146160,
                    "time": 135.527644,
                    "velocity": 0.5196850393700787
                },
                {
                    "duration": 0.3157404250000013,
                    "durationTicks": 341,
                    "midi": 84,
                    "name": "C6",
                    "ticks": 146280,
                    "time": 135.638755,
                    "velocity": 0.5826771653543307
                },
                {
                    "duration": 0.1046295250000071,
                    "durationTicks": 113,
                    "midi": 76,
                    "name": "E5",
                    "ticks": 146400,
                    "time": 135.749866,
                    "velocity": 0.4881889763779528
                },
                {
                    "duration": 0.11018507500000396,
                    "durationTicks": 119,
                    "midi": 72,
                    "name": "C5",
                    "ticks": 146520,
                    "time": 135.860977,
                    "velocity": 0.5118110236220472
                },
                {
                    "duration": 0.1046295250000071,
                    "durationTicks": 113,
                    "midi": 60,
                    "name": "C4",
                    "ticks": 146520,
                    "time": 135.860977,
                    "velocity": 0.6299212598425197
                },
                {
                    "duration": 0.2101849749999758,
                    "durationTicks": 227,
                    "midi": 84,
                    "name": "C6",
                    "ticks": 146640,
                    "time": 135.972088,
                    "velocity": 0.5905511811023622
                },
                {
                    "duration": 0.10462952499997868,
                    "durationTicks": 113,
                    "midi": 62,
                    "name": "D4",
                    "ticks": 146640,
                    "time": 135.972088,
                    "velocity": 0.5826771653543307
                },
                {
                    "duration": 0.10462952499997868,
                    "durationTicks": 113,
                    "midi": 72,
                    "name": "C5",
                    "ticks": 146760,
                    "time": 136.083199,
                    "velocity": 0.44881889763779526
                },
                {
                    "duration": 0.10462952499997868,
                    "durationTicks": 113,
                    "midi": 64,
                    "name": "E4",
                    "ticks": 146760,
                    "time": 136.083199,
                    "velocity": 0.5984251968503937
                },
                {
                    "duration": 0.3157404250000013,
                    "durationTicks": 341,
                    "midi": 84,
                    "name": "C6",
                    "ticks": 146880,
                    "time": 136.19431,
                    "velocity": 0.5433070866141733
                },
                {
                    "duration": 0.1046295250000071,
                    "durationTicks": 113,
                    "midi": 76,
                    "name": "E5",
                    "ticks": 147000,
                    "time": 136.305421,
                    "velocity": 0.47244094488188976
                },
                {
                    "duration": 0.11018507500000396,
                    "durationTicks": 119,
                    "midi": 72,
                    "name": "C5",
                    "ticks": 147120,
                    "time": 136.416532,
                    "velocity": 0.5039370078740157
                },
                {
                    "duration": 0.3157404250000013,
                    "durationTicks": 341,
                    "midi": 83,
                    "name": "B5",
                    "ticks": 147240,
                    "time": 136.527643,
                    "velocity": 0.5984251968503937
                },
                {
                    "duration": 0.10462952499997868,
                    "durationTicks": 113,
                    "midi": 76,
                    "name": "E5",
                    "ticks": 147360,
                    "time": 136.638754,
                    "velocity": 0.5039370078740157
                },
                {
                    "duration": 0.11018507500000396,
                    "durationTicks": 119,
                    "midi": 72,
                    "name": "C5",
                    "ticks": 147480,
                    "time": 136.749865,
                    "velocity": 0.5196850393700787
                },
                {
                    "duration": 0.1046295250000071,
                    "durationTicks": 113,
                    "midi": 60,
                    "name": "C4",
                    "ticks": 147480,
                    "time": 136.749865,
                    "velocity": 0.6535433070866141
                },
                {
                    "duration": 0.21018497500000421,
                    "durationTicks": 227,
                    "midi": 79,
                    "name": "G5",
                    "ticks": 147600,
                    "time": 136.860976,
                    "velocity": 0.5669291338582677
                },
                {
                    "duration": 0.1046295250000071,
                    "durationTicks": 113,
                    "midi": 62,
                    "name": "D4",
                    "ticks": 147600,
                    "time": 136.860976,
                    "velocity": 0.6771653543307087
                },
                {
                    "duration": 0.1046295250000071,
                    "durationTicks": 113,
                    "midi": 72,
                    "name": "C5",
                    "ticks": 147720,
                    "time": 136.972087,
                    "velocity": 0.5039370078740157
                },
                {
                    "duration": 0.1046295250000071,
                    "durationTicks": 113,
                    "midi": 64,
                    "name": "E4",
                    "ticks": 147720,
                    "time": 136.972087,
                    "velocity": 0.6377952755905512
                },
                {
                    "duration": 0.3157404250000013,
                    "durationTicks": 341,
                    "midi": 76,
                    "name": "E5",
                    "ticks": 147840,
                    "time": 137.083198,
                    "velocity": 0.7165354330708661
                },
                {
                    "duration": 0.10462952499997868,
                    "durationTicks": 113,
                    "midi": 67,
                    "name": "G4",
                    "ticks": 147960,
                    "time": 137.194309,
                    "velocity": 0.5039370078740157
                },
                {
                    "duration": 0.11018507500000396,
                    "durationTicks": 119,
                    "midi": 64,
                    "name": "E4",
                    "ticks": 148080,
                    "time": 137.30542,
                    "velocity": 0.49606299212598426
                },
                {
                    "duration": 0.3157404250000013,
                    "durationTicks": 341,
                    "midi": 76,
                    "name": "E5",
                    "ticks": 148200,
                    "time": 137.416531,
                    "velocity": 0.6377952755905512
                },
                {
                    "duration": 0.10462952499997868,
                    "durationTicks": 113,
                    "midi": 67,
                    "name": "G4",
                    "ticks": 148320,
                    "time": 137.52764200000001,
                    "velocity": 0.5354330708661418
                },
                {
                    "duration": 0.11018507499997554,
                    "durationTicks": 119,
                    "midi": 64,
                    "name": "E4",
                    "ticks": 148440,
                    "time": 137.638753,
                    "velocity": 0.5669291338582677
                },
                {
                    "duration": 0.21018497500000421,
                    "durationTicks": 227,
                    "midi": 76,
                    "name": "E5",
                    "ticks": 148560,
                    "time": 137.749864,
                    "velocity": 0.6220472440944882
                },
                {
                    "duration": 0.1046295250000071,
                    "durationTicks": 113,
                    "midi": 64,
                    "name": "E4",
                    "ticks": 148680,
                    "time": 137.860975,
                    "velocity": 0.4645669291338583
                },
                {
                    "duration": 0.1046295250000071,
                    "durationTicks": 113,
                    "midi": 64,
                    "name": "E4",
                    "ticks": 148680,
                    "time": 137.860975,
                    "velocity": 0.6850393700787402
                },
                {
                    "duration": 0.3157404250000013,
                    "durationTicks": 341,
                    "midi": 76,
                    "name": "E5",
                    "ticks": 148800,
                    "time": 137.972086,
                    "velocity": 0.5984251968503937
                },
                {
                    "duration": 0.10462952499997868,
                    "durationTicks": 113,
                    "midi": 67,
                    "name": "G4",
                    "ticks": 148920,
                    "time": 138.083197,
                    "velocity": 0.5196850393700787
                },
                {
                    "duration": 0.11018507499997554,
                    "durationTicks": 119,
                    "midi": 64,
                    "name": "E4",
                    "ticks": 149040,
                    "time": 138.194308,
                    "velocity": 0.5196850393700787
                },
                {
                    "duration": 0.3157404250000013,
                    "durationTicks": 341,
                    "midi": 74,
                    "name": "D5",
                    "ticks": 149160,
                    "time": 138.305419,
                    "velocity": 0.5669291338582677
                },
                {
                    "duration": 0.1046295250000071,
                    "durationTicks": 113,
                    "midi": 67,
                    "name": "G4",
                    "ticks": 149280,
                    "time": 138.41653,
                    "velocity": 0.49606299212598426
                },
                {
                    "duration": 0.1046295250000071,
                    "durationTicks": 113,
                    "midi": 64,
                    "name": "E4",
                    "ticks": 149400,
                    "time": 138.527641,
                    "velocity": 0.5433070866141733
                },
                {
                    "duration": 0.2101849749999758,
                    "durationTicks": 227,
                    "midi": 76,
                    "name": "E5",
                    "ticks": 149520,
                    "time": 138.638752,
                    "velocity": 0.6377952755905512
                },
                {
                    "duration": 0.2101849749999758,
                    "durationTicks": 227,
                    "midi": 64,
                    "name": "E4",
                    "ticks": 149520,
                    "time": 138.638752,
                    "velocity": 0.6850393700787402
                },
                {
                    "duration": 0.05185180000000855,
                    "durationTicks": 56,
                    "midi": 72,
                    "name": "C5",
                    "ticks": 149760,
                    "time": 138.860974,
                    "velocity": 0.4409448818897638
                },
                {
                    "duration": 0.05185180000000855,
                    "durationTicks": 56,
                    "midi": 76,
                    "name": "E5",
                    "ticks": 149760,
                    "time": 138.860974,
                    "velocity": 0.4409448818897638
                },
                {
                    "duration": 0.21018497500000421,
                    "durationTicks": 227,
                    "midi": 77,
                    "name": "F5",
                    "ticks": 149760,
                    "time": 138.860974,
                    "velocity": 0.6299212598425197
                },
                {
                    "duration": 1.218517300000002,
                    "durationTicks": 1316,
                    "midi": 65,
                    "name": "F4",
                    "ticks": 149760,
                    "time": 138.860974,
                    "velocity": 0.6299212598425197
                },
                {
                    "duration": 0.05185180000000855,
                    "durationTicks": 56,
                    "midi": 84,
                    "name": "C6",
                    "ticks": 149820,
                    "time": 138.9165295,
                    "velocity": 0.4409448818897638
                },
                {
                    "duration": 0.05185180000000855,
                    "durationTicks": 56,
                    "midi": 76,
                    "name": "E5",
                    "ticks": 149880,
                    "time": 138.972085,
                    "velocity": 0.4409448818897638
                },
                {
                    "duration": 0.10740730000000553,
                    "durationTicks": 116,
                    "midi": 84,
                    "name": "C6",
                    "ticks": 149880,
                    "time": 138.972085,
                    "velocity": 0.4409448818897638
                },
                {
                    "duration": 0.055555500000025404,
                    "durationTicks": 60,
                    "midi": 84,
                    "name": "C6",
                    "ticks": 149940,
                    "time": 139.0276405,
                    "velocity": 0.4409448818897638
                },
                {
                    "duration": 0.05185179999998013,
                    "durationTicks": 56,
                    "midi": 76,
                    "name": "E5",
                    "ticks": 150000,
                    "time": 139.08319600000002,
                    "velocity": 0.4409448818897638
                },
                {
                    "duration": 0.09907397499998183,
                    "durationTicks": 107,
                    "midi": 72,
                    "name": "C5",
                    "ticks": 150000,
                    "time": 139.08319600000002,
                    "velocity": 0.4409448818897638
                },
                {
                    "duration": 0.2101849749999758,
                    "durationTicks": 227,
                    "midi": 77,
                    "name": "F5",
                    "ticks": 150000,
                    "time": 139.08319600000002,
                    "velocity": 0.5433070866141733
                },
                {
                    "duration": 0.2101849749999758,
                    "durationTicks": 227,
                    "midi": 89,
                    "name": "F6",
                    "ticks": 150000,
                    "time": 139.08319600000002,
                    "velocity": 0.5433070866141733
                },
                {
                    "duration": 0.05185179999998013,
                    "durationTicks": 56,
                    "midi": 84,
                    "name": "C6",
                    "ticks": 150060,
                    "time": 139.1387515,
                    "velocity": 0.4409448818897638
                },
                {
                    "duration": 0.05185180000000855,
                    "durationTicks": 56,
                    "midi": 76,
                    "name": "E5",
                    "ticks": 150120,
                    "time": 139.194307,
                    "velocity": 0.4409448818897638
                },
                {
                    "duration": 0.10462952499997868,
                    "durationTicks": 113,
                    "midi": 84,
                    "name": "C6",
                    "ticks": 150120,
                    "time": 139.194307,
                    "velocity": 0.4409448818897638
                },
                {
                    "duration": 0.05185180000000855,
                    "durationTicks": 56,
                    "midi": 84,
                    "name": "C6",
                    "ticks": 150180,
                    "time": 139.2498625,
                    "velocity": 0.4409448818897638
                },
                {
                    "duration": 0.05185180000000855,
                    "durationTicks": 56,
                    "midi": 72,
                    "name": "C5",
                    "ticks": 150240,
                    "time": 139.305418,
                    "velocity": 0.4409448818897638
                },
                {
                    "duration": 0.05185180000000855,
                    "durationTicks": 56,
                    "midi": 76,
                    "name": "E5",
                    "ticks": 150240,
                    "time": 139.305418,
                    "velocity": 0.4409448818897638
                },
                {
                    "duration": 0.21018497500000421,
                    "durationTicks": 227,
                    "midi": 77,
                    "name": "F5",
                    "ticks": 150240,
                    "time": 139.305418,
                    "velocity": 0.5590551181102362
                },
                {
                    "duration": 0.21018497500000421,
                    "durationTicks": 227,
                    "midi": 89,
                    "name": "F6",
                    "ticks": 150240,
                    "time": 139.305418,
                    "velocity": 0.5590551181102362
                },
                {
                    "duration": 0.05185180000000855,
                    "durationTicks": 56,
                    "midi": 84,
                    "name": "C6",
                    "ticks": 150300,
                    "time": 139.3609735,
                    "velocity": 0.4409448818897638
                },
                {
                    "duration": 0.05185180000000855,
                    "durationTicks": 56,
                    "midi": 76,
                    "name": "E5",
                    "ticks": 150360,
                    "time": 139.416529,
                    "velocity": 0.4409448818897638
                },
                {
                    "duration": 0.10740730000000553,
                    "durationTicks": 116,
                    "midi": 84,
                    "name": "C6",
                    "ticks": 150360,
                    "time": 139.416529,
                    "velocity": 0.4409448818897638
                },
                {
                    "duration": 0.05555549999999698,
                    "durationTicks": 60,
                    "midi": 84,
                    "name": "C6",
                    "ticks": 150420,
                    "time": 139.4720845,
                    "velocity": 0.4409448818897638
                },
                {
                    "duration": 0.05185180000000855,
                    "durationTicks": 56,
                    "midi": 76,
                    "name": "E5",
                    "ticks": 150480,
                    "time": 139.52764,
                    "velocity": 0.4409448818897638
                },
                {
                    "duration": 0.09907397500001025,
                    "durationTicks": 107,
                    "midi": 72,
                    "name": "C5",
                    "ticks": 150480,
                    "time": 139.52764,
                    "velocity": 0.4409448818897638
                },
                {
                    "duration": 0.21018497500000421,
                    "durationTicks": 227,
                    "midi": 77,
                    "name": "F5",
                    "ticks": 150480,
                    "time": 139.52764,
                    "velocity": 0.6220472440944882
                },
                {
                    "duration": 0.21018497500000421,
                    "durationTicks": 227,
                    "midi": 89,
                    "name": "F6",
                    "ticks": 150480,
                    "time": 139.52764,
                    "velocity": 0.6220472440944882
                },
                {
                    "duration": 0.05185180000000855,
                    "durationTicks": 56,
                    "midi": 84,
                    "name": "C6",
                    "ticks": 150540,
                    "time": 139.5831955,
                    "velocity": 0.4409448818897638
                },
                {
                    "duration": 0.05185179999998013,
                    "durationTicks": 56,
                    "midi": 76,
                    "name": "E5",
                    "ticks": 150600,
                    "time": 139.638751,
                    "velocity": 0.4409448818897638
                },
                {
                    "duration": 0.10462952499997868,
                    "durationTicks": 113,
                    "midi": 84,
                    "name": "C6",
                    "ticks": 150600,
                    "time": 139.638751,
                    "velocity": 0.4409448818897638
                },
                {
                    "duration": 0.05185180000000855,
                    "durationTicks": 56,
                    "midi": 84,
                    "name": "C6",
                    "ticks": 150660,
                    "time": 139.6943065,
                    "velocity": 0.4409448818897638
                },
                {
                    "duration": 0.05185180000000855,
                    "durationTicks": 56,
                    "midi": 84,
                    "name": "C6",
                    "ticks": 150720,
                    "time": 139.749862,
                    "velocity": 0.5984251968503937
                },
                {
                    "duration": 0.5518513000000098,
                    "durationTicks": 596,
                    "midi": 89,
                    "name": "F6",
                    "ticks": 150720,
                    "time": 139.749862,
                    "velocity": 0.6062992125984252
                },
                {
                    "duration": 0.10740730000000553,
                    "durationTicks": 116,
                    "midi": 77,
                    "name": "F5",
                    "ticks": 150720,
                    "time": 139.749862,
                    "velocity": 0.6062992125984252
                },
                {
                    "duration": 0.7879621749999899,
                    "durationTicks": 851,
                    "midi": 77,
                    "name": "F5",
                    "ticks": 150780,
                    "time": 139.8054175,
                    "velocity": 0.5275590551181102
                },
                {
                    "duration": 0.05185180000000855,
                    "durationTicks": 56,
                    "midi": 76,
                    "name": "E5",
                    "ticks": 150840,
                    "time": 139.860973,
                    "velocity": 0.5511811023622047
                },
                {
                    "duration": 0.05185180000000855,
                    "durationTicks": 56,
                    "midi": 60,
                    "name": "C4",
                    "ticks": 150900,
                    "time": 139.9165285,
                    "velocity": 0.5118110236220472
                },
                {
                    "duration": 0.05185180000000855,
                    "durationTicks": 56,
                    "midi": 72,
                    "name": "C5",
                    "ticks": 150960,
                    "time": 139.972084,
                    "velocity": 0.7559055118110236
                },
                {
                    "duration": 0.5212957749999987,
                    "durationTicks": 563,
                    "midi": 65,
                    "name": "F4",
                    "ticks": 151020,
                    "time": 140.0276395,
                    "velocity": 0.5118110236220472
                },
                {
                    "duration": 0.05185180000000855,
                    "durationTicks": 56,
                    "midi": 64,
                    "name": "E4",
                    "ticks": 151080,
                    "time": 140.083195,
                    "velocity": 0.5826771653543307
                },
                {
                    "duration": 0.05185179999998013,
                    "durationTicks": 56,
                    "midi": 60,
                    "name": "C4",
                    "ticks": 151140,
                    "time": 140.13875050000001,
                    "velocity": 0.5354330708661418
                },
                {
                    "duration": 0.05185179999998013,
                    "durationTicks": 56,
                    "midi": 60,
                    "name": "C4",
                    "ticks": 151200,
                    "time": 140.194306,
                    "velocity": 0.6141732283464567
                },
                {
                    "duration": 0.22222199999998793,
                    "durationTicks": 240,
                    "midi": 89,
                    "name": "F6",
                    "ticks": 151260,
                    "time": 140.2498615,
                    "velocity": 0.49606299212598426
                },
                {
                    "duration": 0.05185180000000855,
                    "durationTicks": 56,
                    "midi": 88,
                    "name": "E6",
                    "ticks": 151320,
                    "time": 140.305417,
                    "velocity": 0.5196850393700787
                },
                {
                    "duration": 0.05185180000000855,
                    "durationTicks": 56,
                    "midi": 84,
                    "name": "C6",
                    "ticks": 151380,
                    "time": 140.3609725,
                    "velocity": 0.5905511811023622
                },
                {
                    "duration": 0.05462957499997856,
                    "durationTicks": 59,
                    "midi": 84,
                    "name": "C6",
                    "ticks": 151440,
                    "time": 140.416528,
                    "velocity": 0.5590551181102362
                },
                {
                    "duration": 0.15740725000000566,
                    "durationTicks": 170,
                    "midi": 77,
                    "name": "F5",
                    "ticks": 151500,
                    "time": 140.4720835,
                    "velocity": 0.5511811023622047
                },
                {
                    "duration": 0.05185180000000855,
                    "durationTicks": 56,
                    "midi": 76,
                    "name": "E5",
                    "ticks": 151560,
                    "time": 140.527639,
                    "velocity": 0.5984251968503937
                },
                {
                    "duration": 0.05185180000000855,
                    "durationTicks": 56,
                    "midi": 72,
                    "name": "C5",
                    "ticks": 151620,
                    "time": 140.5831945,
                    "velocity": 0.5905511811023622
                },
                {
                    "duration": 0.05185179999998013,
                    "durationTicks": 56,
                    "midi": 72,
                    "name": "C5",
                    "ticks": 151680,
                    "time": 140.63875000000002,
                    "velocity": 0.7559055118110236
                },
                {
                    "duration": 0.05185179999998013,
                    "durationTicks": 56,
                    "midi": 76,
                    "name": "E5",
                    "ticks": 151680,
                    "time": 140.63875000000002,
                    "velocity": 0.7559055118110236
                },
                {
                    "duration": 0.2101849749999758,
                    "durationTicks": 227,
                    "midi": 79,
                    "name": "G5",
                    "ticks": 151680,
                    "time": 140.63875000000002,
                    "velocity": 0.5905511811023622
                },
                {
                    "duration": 1.6879612749999922,
                    "durationTicks": 1823,
                    "midi": 67,
                    "name": "G4",
                    "ticks": 151680,
                    "time": 140.63875000000002,
                    "velocity": 0.5905511811023622
                },
                {
                    "duration": 0.05185179999998013,
                    "durationTicks": 56,
                    "midi": 84,
                    "name": "C6",
                    "ticks": 151740,
                    "time": 140.6943055,
                    "velocity": 0.7559055118110236
                },
                {
                    "duration": 0.05185180000000855,
                    "durationTicks": 56,
                    "midi": 76,
                    "name": "E5",
                    "ticks": 151800,
                    "time": 140.749861,
                    "velocity": 0.7559055118110236
                },
                {
                    "duration": 0.10740730000000553,
                    "durationTicks": 116,
                    "midi": 84,
                    "name": "C6",
                    "ticks": 151800,
                    "time": 140.749861,
                    "velocity": 0.7559055118110236
                },
                {
                    "duration": 0.05555549999999698,
                    "durationTicks": 60,
                    "midi": 84,
                    "name": "C6",
                    "ticks": 151860,
                    "time": 140.8054165,
                    "velocity": 0.7559055118110236
                },
                {
                    "duration": 0.05185180000000855,
                    "durationTicks": 56,
                    "midi": 76,
                    "name": "E5",
                    "ticks": 151920,
                    "time": 140.860972,
                    "velocity": 0.7559055118110236
                },
                {
                    "duration": 0.09907397500001025,
                    "durationTicks": 107,
                    "midi": 72,
                    "name": "C5",
                    "ticks": 151920,
                    "time": 140.860972,
                    "velocity": 0.7559055118110236
                },
                {
                    "duration": 0.21018497500000421,
                    "durationTicks": 227,
                    "midi": 79,
                    "name": "G5",
                    "ticks": 151920,
                    "time": 140.860972,
                    "velocity": 0.5590551181102362
                },
                {
                    "duration": 0.21018497500000421,
                    "durationTicks": 227,
                    "midi": 91,
                    "name": "G6",
                    "ticks": 151920,
                    "time": 140.860972,
                    "velocity": 0.5590551181102362
                },
                {
                    "duration": 0.05185180000000855,
                    "durationTicks": 56,
                    "midi": 84,
                    "name": "C6",
                    "ticks": 151980,
                    "time": 140.9165275,
                    "velocity": 0.7559055118110236
                },
                {
                    "duration": 0.05185180000000855,
                    "durationTicks": 56,
                    "midi": 76,
                    "name": "E5",
                    "ticks": 152040,
                    "time": 140.972083,
                    "velocity": 0.7559055118110236
                },
                {
                    "duration": 0.1046295250000071,
                    "durationTicks": 113,
                    "midi": 84,
                    "name": "C6",
                    "ticks": 152040,
                    "time": 140.972083,
                    "velocity": 0.7559055118110236
                },
                {
                    "duration": 0.05185180000000855,
                    "durationTicks": 56,
                    "midi": 84,
                    "name": "C6",
                    "ticks": 152100,
                    "time": 141.0276385,
                    "velocity": 0.7559055118110236
                },
                {
                    "duration": 0.05185180000000855,
                    "durationTicks": 56,
                    "midi": 72,
                    "name": "C5",
                    "ticks": 152160,
                    "time": 141.083194,
                    "velocity": 0.7559055118110236
                },
                {
                    "duration": 0.05185180000000855,
                    "durationTicks": 56,
                    "midi": 76,
                    "name": "E5",
                    "ticks": 152160,
                    "time": 141.083194,
                    "velocity": 0.7559055118110236
                },
                {
                    "duration": 0.21018497500000421,
                    "durationTicks": 227,
                    "midi": 79,
                    "name": "G5",
                    "ticks": 152160,
                    "time": 141.083194,
                    "velocity": 0.5984251968503937
                },
                {
                    "duration": 0.21018497500000421,
                    "durationTicks": 227,
                    "midi": 91,
                    "name": "G6",
                    "ticks": 152160,
                    "time": 141.083194,
                    "velocity": 0.5984251968503937
                },
                {
                    "duration": 0.05185180000000855,
                    "durationTicks": 56,
                    "midi": 84,
                    "name": "C6",
                    "ticks": 152220,
                    "time": 141.1387495,
                    "velocity": 0.7559055118110236
                },
                {
                    "duration": 0.05185179999998013,
                    "durationTicks": 56,
                    "midi": 76,
                    "name": "E5",
                    "ticks": 152280,
                    "time": 141.194305,
                    "velocity": 0.7559055118110236
                },
                {
                    "duration": 0.10740729999997711,
                    "durationTicks": 116,
                    "midi": 84,
                    "name": "C6",
                    "ticks": 152280,
                    "time": 141.194305,
                    "velocity": 0.7559055118110236
                },
                {
                    "duration": 0.05555549999999698,
                    "durationTicks": 60,
                    "midi": 84,
                    "name": "C6",
                    "ticks": 152340,
                    "time": 141.2498605,
                    "velocity": 0.7559055118110236
                },
                {
                    "duration": 0.05185180000000855,
                    "durationTicks": 56,
                    "midi": 76,
                    "name": "E5",
                    "ticks": 152400,
                    "time": 141.305416,
                    "velocity": 0.7559055118110236
                },
                {
                    "duration": 0.09907397499998183,
                    "durationTicks": 107,
                    "midi": 72,
                    "name": "C5",
                    "ticks": 152400,
                    "time": 141.305416,
                    "velocity": 0.7559055118110236
                },
                {
                    "duration": 0.21018497500000421,
                    "durationTicks": 227,
                    "midi": 79,
                    "name": "G5",
                    "ticks": 152400,
                    "time": 141.305416,
                    "velocity": 0.5905511811023622
                },
                {
                    "duration": 0.21018497500000421,
                    "durationTicks": 227,
                    "midi": 91,
                    "name": "G6",
                    "ticks": 152400,
                    "time": 141.305416,
                    "velocity": 0.5905511811023622
                },
                {
                    "duration": 0.05185180000000855,
                    "durationTicks": 56,
                    "midi": 84,
                    "name": "C6",
                    "ticks": 152460,
                    "time": 141.3609715,
                    "velocity": 0.7559055118110236
                },
                {
                    "duration": 0.05185180000000855,
                    "durationTicks": 56,
                    "midi": 76,
                    "name": "E5",
                    "ticks": 152520,
                    "time": 141.416527,
                    "velocity": 0.7559055118110236
                },
                {
                    "duration": 0.1046295250000071,
                    "durationTicks": 113,
                    "midi": 84,
                    "name": "C6",
                    "ticks": 152520,
                    "time": 141.416527,
                    "velocity": 0.7559055118110236
                },
                {
                    "duration": 0.05185180000000855,
                    "durationTicks": 56,
                    "midi": 84,
                    "name": "C6",
                    "ticks": 152580,
                    "time": 141.4720825,
                    "velocity": 0.7559055118110236
                },
                {
                    "duration": 0.05185180000000855,
                    "durationTicks": 56,
                    "midi": 84,
                    "name": "C6",
                    "ticks": 152640,
                    "time": 141.527638,
                    "velocity": 0.6141732283464567
                },
                {
                    "duration": 0.8435176750000153,
                    "durationTicks": 911,
                    "midi": 79,
                    "name": "G5",
                    "ticks": 152640,
                    "time": 141.527638,
                    "velocity": 0.5669291338582677
                },
                {
                    "duration": 0.8435176750000153,
                    "durationTicks": 911,
                    "midi": 91,
                    "name": "G6",
                    "ticks": 152640,
                    "time": 141.527638,
                    "velocity": 0.5669291338582677
                },
                {
                    "duration": 0.05185180000000855,
                    "durationTicks": 56,
                    "midi": 77,
                    "name": "F5",
                    "ticks": 152700,
                    "time": 141.5831935,
                    "velocity": 0.48031496062992124
                },
                {
                    "duration": 0.05185180000000855,
                    "durationTicks": 56,
                    "midi": 76,
                    "name": "E5",
                    "ticks": 152760,
                    "time": 141.638749,
                    "velocity": 0.5905511811023622
                },
                {
                    "duration": 0.05185179999998013,
                    "durationTicks": 56,
                    "midi": 72,
                    "name": "C5",
                    "ticks": 152820,
                    "time": 141.69430450000002,
                    "velocity": 0.5275590551181102
                },
                {
                    "duration": 0.05185179999998013,
                    "durationTicks": 56,
                    "midi": 72,
                    "name": "C5",
                    "ticks": 152880,
                    "time": 141.74986,
                    "velocity": 0.7716535433070866
                },
                {
                    "duration": 0.05185180000000855,
                    "durationTicks": 56,
                    "midi": 65,
                    "name": "F4",
                    "ticks": 152940,
                    "time": 141.8054155,
                    "velocity": 0.5433070866141733
                },
                {
                    "duration": 0.05185180000000855,
                    "durationTicks": 56,
                    "midi": 64,
                    "name": "E4",
                    "ticks": 153000,
                    "time": 141.860971,
                    "velocity": 0.5590551181102362
                },
                {
                    "duration": 0.05185180000000855,
                    "durationTicks": 56,
                    "midi": 60,
                    "name": "C4",
                    "ticks": 153060,
                    "time": 141.9165265,
                    "velocity": 0.5748031496062992
                },
                {
                    "duration": 0.05185180000000855,
                    "durationTicks": 56,
                    "midi": 60,
                    "name": "C4",
                    "ticks": 153120,
                    "time": 141.972082,
                    "velocity": 0.5984251968503937
                },
                {
                    "duration": 0.05185180000000855,
                    "durationTicks": 56,
                    "midi": 89,
                    "name": "F6",
                    "ticks": 153180,
                    "time": 142.0276375,
                    "velocity": 0.48031496062992124
                },
                {
                    "duration": 0.05185180000000855,
                    "durationTicks": 56,
                    "midi": 88,
                    "name": "E6",
                    "ticks": 153240,
                    "time": 142.083193,
                    "velocity": 0.5826771653543307
                },
                {
                    "duration": 0.05185180000000855,
                    "durationTicks": 56,
                    "midi": 84,
                    "name": "C6",
                    "ticks": 153300,
                    "time": 142.1387485,
                    "velocity": 0.5275590551181102
                },
                {
                    "duration": 0.05185180000000855,
                    "durationTicks": 56,
                    "midi": 84,
                    "name": "C6",
                    "ticks": 153360,
                    "time": 142.194304,
                    "velocity": 0.5748031496062992
                },
                {
                    "duration": 0.05185179999998013,
                    "durationTicks": 56,
                    "midi": 77,
                    "name": "F5",
                    "ticks": 153420,
                    "time": 142.2498595,
                    "velocity": 0.5275590551181102
                },
                {
                    "duration": 0.05185180000000855,
                    "durationTicks": 56,
                    "midi": 76,
                    "name": "E5",
                    "ticks": 153480,
                    "time": 142.305415,
                    "velocity": 0.5433070866141733
                },
                {
                    "duration": 0.05185180000000855,
                    "durationTicks": 56,
                    "midi": 72,
                    "name": "C5",
                    "ticks": 153540,
                    "time": 142.3609705,
                    "velocity": 0.5433070866141733
                },
                {
                    "duration": 0.05185180000000855,
                    "durationTicks": 56,
                    "midi": 72,
                    "name": "C5",
                    "ticks": 153600,
                    "time": 142.416526,
                    "velocity": 0.7559055118110236
                },
                {
                    "duration": 0.05185180000000855,
                    "durationTicks": 56,
                    "midi": 76,
                    "name": "E5",
                    "ticks": 153600,
                    "time": 142.416526,
                    "velocity": 0.7559055118110236
                },
                {
                    "duration": 0.21018497500000421,
                    "durationTicks": 227,
                    "midi": 81,
                    "name": "A5",
                    "ticks": 153600,
                    "time": 142.416526,
                    "velocity": 0.6062992125984252
                },
                {
                    "duration": 1.6879612749999922,
                    "durationTicks": 1823,
                    "midi": 69,
                    "name": "A4",
                    "ticks": 153600,
                    "time": 142.416526,
                    "velocity": 0.6062992125984252
                },
                {
                    "duration": 0.05185180000000855,
                    "durationTicks": 56,
                    "midi": 84,
                    "name": "C6",
                    "ticks": 153660,
                    "time": 142.4720815,
                    "velocity": 0.7559055118110236
                },
                {
                    "duration": 0.05185180000000855,
                    "durationTicks": 56,
                    "midi": 76,
                    "name": "E5",
                    "ticks": 153720,
                    "time": 142.527637,
                    "velocity": 0.7559055118110236
                },
                {
                    "duration": 0.10740730000000553,
                    "durationTicks": 116,
                    "midi": 84,
                    "name": "C6",
                    "ticks": 153720,
                    "time": 142.527637,
                    "velocity": 0.7559055118110236
                },
                {
                    "duration": 0.05555549999999698,
                    "durationTicks": 60,
                    "midi": 84,
                    "name": "C6",
                    "ticks": 153780,
                    "time": 142.5831925,
                    "velocity": 0.7559055118110236
                },
                {
                    "duration": 0.05185180000000855,
                    "durationTicks": 56,
                    "midi": 76,
                    "name": "E5",
                    "ticks": 153840,
                    "time": 142.638748,
                    "velocity": 0.7559055118110236
                },
                {
                    "duration": 0.09907397500001025,
                    "durationTicks": 107,
                    "midi": 72,
                    "name": "C5",
                    "ticks": 153840,
                    "time": 142.638748,
                    "velocity": 0.7559055118110236
                },
                {
                    "duration": 0.21018497500000421,
                    "durationTicks": 227,
                    "midi": 81,
                    "name": "A5",
                    "ticks": 153840,
                    "time": 142.638748,
                    "velocity": 0.5039370078740157
                },
                {
                    "duration": 0.21018497500000421,
                    "durationTicks": 227,
                    "midi": 93,
                    "name": "A6",
                    "ticks": 153840,
                    "time": 142.638748,
                    "velocity": 0.5039370078740157
                },
                {
                    "duration": 0.05185180000000855,
                    "durationTicks": 56,
                    "midi": 84,
                    "name": "C6",
                    "ticks": 153900,
                    "time": 142.6943035,
                    "velocity": 0.7559055118110236
                },
                {
                    "duration": 0.05185179999998013,
                    "durationTicks": 56,
                    "midi": 76,
                    "name": "E5",
                    "ticks": 153960,
                    "time": 142.74985900000001,
                    "velocity": 0.7559055118110236
                },
                {
                    "duration": 0.10462952499997868,
                    "durationTicks": 113,
                    "midi": 84,
                    "name": "C6",
                    "ticks": 153960,
                    "time": 142.74985900000001,
                    "velocity": 0.7559055118110236
                },
                {
                    "duration": 0.05185179999998013,
                    "durationTicks": 56,
                    "midi": 84,
                    "name": "C6",
                    "ticks": 154020,
                    "time": 142.8054145,
                    "velocity": 0.7559055118110236
                },
                {
                    "duration": 0.05185180000000855,
                    "durationTicks": 56,
                    "midi": 72,
                    "name": "C5",
                    "ticks": 154080,
                    "time": 142.86097,
                    "velocity": 0.7559055118110236
                },
                {
                    "duration": 0.05185180000000855,
                    "durationTicks": 56,
                    "midi": 76,
                    "name": "E5",
                    "ticks": 154080,
                    "time": 142.86097,
                    "velocity": 0.7559055118110236
                },
                {
                    "duration": 0.21018497500000421,
                    "durationTicks": 227,
                    "midi": 81,
                    "name": "A5",
                    "ticks": 154080,
                    "time": 142.86097,
                    "velocity": 0.5984251968503937
                },
                {
                    "duration": 0.21018497500000421,
                    "durationTicks": 227,
                    "midi": 93,
                    "name": "A6",
                    "ticks": 154080,
                    "time": 142.86097,
                    "velocity": 0.5984251968503937
                },
                {
                    "duration": 0.05185180000000855,
                    "durationTicks": 56,
                    "midi": 84,
                    "name": "C6",
                    "ticks": 154140,
                    "time": 142.9165255,
                    "velocity": 0.7559055118110236
                },
                {
                    "duration": 0.05185180000000855,
                    "durationTicks": 56,
                    "midi": 76,
                    "name": "E5",
                    "ticks": 154200,
                    "time": 142.972081,
                    "velocity": 0.7559055118110236
                },
                {
                    "duration": 0.10740730000000553,
                    "durationTicks": 116,
                    "midi": 84,
                    "name": "C6",
                    "ticks": 154200,
                    "time": 142.972081,
                    "velocity": 0.7559055118110236
                },
                {
                    "duration": 0.05555549999999698,
                    "durationTicks": 60,
                    "midi": 84,
                    "name": "C6",
                    "ticks": 154260,
                    "time": 143.0276365,
                    "velocity": 0.7559055118110236
                },
                {
                    "duration": 0.05185180000000855,
                    "durationTicks": 56,
                    "midi": 76,
                    "name": "E5",
                    "ticks": 154320,
                    "time": 143.083192,
                    "velocity": 0.7559055118110236
                },
                {
                    "duration": 0.09907397500001025,
                    "durationTicks": 107,
                    "midi": 72,
                    "name": "C5",
                    "ticks": 154320,
                    "time": 143.083192,
                    "velocity": 0.7559055118110236
                },
                {
                    "duration": 0.21018497500000421,
                    "durationTicks": 227,
                    "midi": 81,
                    "name": "A5",
                    "ticks": 154320,
                    "time": 143.083192,
                    "velocity": 0.5826771653543307
                },
                {
                    "duration": 0.21018497500000421,
                    "durationTicks": 227,
                    "midi": 93,
                    "name": "A6",
                    "ticks": 154320,
                    "time": 143.083192,
                    "velocity": 0.5826771653543307
                },
                {
                    "duration": 0.05185180000000855,
                    "durationTicks": 56,
                    "midi": 84,
                    "name": "C6",
                    "ticks": 154380,
                    "time": 143.1387475,
                    "velocity": 0.7559055118110236
                },
                {
                    "duration": 0.05185180000000855,
                    "durationTicks": 56,
                    "midi": 76,
                    "name": "E5",
                    "ticks": 154440,
                    "time": 143.194303,
                    "velocity": 0.7559055118110236
                },
                {
                    "duration": 0.1046295250000071,
                    "durationTicks": 113,
                    "midi": 84,
                    "name": "C6",
                    "ticks": 154440,
                    "time": 143.194303,
                    "velocity": 0.7559055118110236
                },
                {
                    "duration": 0.05185180000000855,
                    "durationTicks": 56,
                    "midi": 84,
                    "name": "C6",
                    "ticks": 154500,
                    "time": 143.2498585,
                    "velocity": 0.7559055118110236
                },
                {
                    "duration": 0.05185179999998013,
                    "durationTicks": 56,
                    "midi": 84,
                    "name": "C6",
                    "ticks": 154560,
                    "time": 143.305414,
                    "velocity": 0.6299212598425197
                },
                {
                    "duration": 0.8435176749999869,
                    "durationTicks": 911,
                    "midi": 81,
                    "name": "A5",
                    "ticks": 154560,
                    "time": 143.305414,
                    "velocity": 0.5905511811023622
                },
                {
                    "duration": 0.8435176749999869,
                    "durationTicks": 911,
                    "midi": 93,
                    "name": "A6",
                    "ticks": 154560,
                    "time": 143.305414,
                    "velocity": 0.5905511811023622
                },
                {
                    "duration": 0.05185180000000855,
                    "durationTicks": 56,
                    "midi": 77,
                    "name": "F5",
                    "ticks": 154620,
                    "time": 143.3609695,
                    "velocity": 0.4881889763779528
                },
                {
                    "duration": 0.05185180000000855,
                    "durationTicks": 56,
                    "midi": 76,
                    "name": "E5",
                    "ticks": 154680,
                    "time": 143.416525,
                    "velocity": 0.5275590551181102
                },
                {
                    "duration": 0.05185180000000855,
                    "durationTicks": 56,
                    "midi": 72,
                    "name": "C5",
                    "ticks": 154740,
                    "time": 143.4720805,
                    "velocity": 0.5354330708661418
                },
                {
                    "duration": 0.05185180000000855,
                    "durationTicks": 56,
                    "midi": 72,
                    "name": "C5",
                    "ticks": 154800,
                    "time": 143.527636,
                    "velocity": 0.7637795275590551
                },
                {
                    "duration": 0.05185180000000855,
                    "durationTicks": 56,
                    "midi": 65,
                    "name": "F4",
                    "ticks": 154860,
                    "time": 143.5831915,
                    "velocity": 0.49606299212598426
                },
                {
                    "duration": 0.05185180000000855,
                    "durationTicks": 56,
                    "midi": 64,
                    "name": "E4",
                    "ticks": 154920,
                    "time": 143.638747,
                    "velocity": 0.5511811023622047
                },
                {
                    "duration": 0.05185180000000855,
                    "durationTicks": 56,
                    "midi": 60,
                    "name": "C4",
                    "ticks": 154980,
                    "time": 143.6943025,
                    "velocity": 0.5354330708661418
                },
                {
                    "duration": 0.05185180000000855,
                    "durationTicks": 56,
                    "midi": 60,
                    "name": "C4",
                    "ticks": 155040,
                    "time": 143.749858,
                    "velocity": 0.6377952755905512
                },
                {
                    "duration": 0.05185179999998013,
                    "durationTicks": 56,
                    "midi": 89,
                    "name": "F6",
                    "ticks": 155100,
                    "time": 143.80541350000001,
                    "velocity": 0.4881889763779528
                },
                {
                    "duration": 0.05185179999998013,
                    "durationTicks": 56,
                    "midi": 88,
                    "name": "E6",
                    "ticks": 155160,
                    "time": 143.860969,
                    "velocity": 0.5905511811023622
                },
                {
                    "duration": 0.05185180000000855,
                    "durationTicks": 56,
                    "midi": 84,
                    "name": "C6",
                    "ticks": 155220,
                    "time": 143.9165245,
                    "velocity": 0.5669291338582677
                },
                {
                    "duration": 0.05185180000000855,
                    "durationTicks": 56,
                    "midi": 84,
                    "name": "C6",
                    "ticks": 155280,
                    "time": 143.97208,
                    "velocity": 0.5905511811023622
                },
                {
                    "duration": 0.05185180000000855,
                    "durationTicks": 56,
                    "midi": 77,
                    "name": "F5",
                    "ticks": 155340,
                    "time": 144.0276355,
                    "velocity": 0.5511811023622047
                },
                {
                    "duration": 0.05185180000000855,
                    "durationTicks": 56,
                    "midi": 76,
                    "name": "E5",
                    "ticks": 155400,
                    "time": 144.083191,
                    "velocity": 0.5826771653543307
                },
                {
                    "duration": 0.05185180000000855,
                    "durationTicks": 56,
                    "midi": 72,
                    "name": "C5",
                    "ticks": 155460,
                    "time": 144.1387465,
                    "velocity": 0.6062992125984252
                },
                {
                    "duration": 0.05185180000000855,
                    "durationTicks": 56,
                    "midi": 74,
                    "name": "D5",
                    "ticks": 155520,
                    "time": 144.194302,
                    "velocity": 0.7559055118110236
                },
                {
                    "duration": 0.05185180000000855,
                    "durationTicks": 56,
                    "midi": 79,
                    "name": "G5",
                    "ticks": 155520,
                    "time": 144.194302,
                    "velocity": 0.7559055118110236
                },
                {
                    "duration": 0.21018497500000421,
                    "durationTicks": 227,
                    "midi": 76,
                    "name": "E5",
                    "ticks": 155520,
                    "time": 144.194302,
                    "velocity": 0.5196850393700787
                },
                {
                    "duration": 1.6879612749999922,
                    "durationTicks": 1823,
                    "midi": 64,
                    "name": "E4",
                    "ticks": 155520,
                    "time": 144.194302,
                    "velocity": 0.5196850393700787
                },
                {
                    "duration": 0.05185180000000855,
                    "durationTicks": 56,
                    "midi": 86,
                    "name": "D6",
                    "ticks": 155580,
                    "time": 144.2498575,
                    "velocity": 0.7559055118110236
                },
                {
                    "duration": 0.05185179999998013,
                    "durationTicks": 56,
                    "midi": 79,
                    "name": "G5",
                    "ticks": 155640,
                    "time": 144.30541300000002,
                    "velocity": 0.7559055118110236
                },
                {
                    "duration": 0.10740729999997711,
                    "durationTicks": 116,
                    "midi": 86,
                    "name": "D6",
                    "ticks": 155640,
                    "time": 144.30541300000002,
                    "velocity": 0.7559055118110236
                },
                {
                    "duration": 0.05555549999999698,
                    "durationTicks": 60,
                    "midi": 86,
                    "name": "D6",
                    "ticks": 155700,
                    "time": 144.3609685,
                    "velocity": 0.7559055118110236
                },
                {
                    "duration": 0.05185180000000855,
                    "durationTicks": 56,
                    "midi": 79,
                    "name": "G5",
                    "ticks": 155760,
                    "time": 144.416524,
                    "velocity": 0.7559055118110236
                },
                {
                    "duration": 0.09907397499998183,
                    "durationTicks": 107,
                    "midi": 74,
                    "name": "D5",
                    "ticks": 155760,
                    "time": 144.416524,
                    "velocity": 0.7559055118110236
                },
                {
                    "duration": 0.21018497500000421,
                    "durationTicks": 227,
                    "midi": 76,
                    "name": "E5",
                    "ticks": 155760,
                    "time": 144.416524,
                    "velocity": 0.5196850393700787
                },
                {
                    "duration": 0.21018497500000421,
                    "durationTicks": 227,
                    "midi": 88,
                    "name": "E6",
                    "ticks": 155760,
                    "time": 144.416524,
                    "velocity": 0.5196850393700787
                },
                {
                    "duration": 0.05185180000000855,
                    "durationTicks": 56,
                    "midi": 86,
                    "name": "D6",
                    "ticks": 155820,
                    "time": 144.4720795,
                    "velocity": 0.7559055118110236
                },
                {
                    "duration": 0.05185180000000855,
                    "durationTicks": 56,
                    "midi": 79,
                    "name": "G5",
                    "ticks": 155880,
                    "time": 144.527635,
                    "velocity": 0.7559055118110236
                },
                {
                    "duration": 0.10462952499997868,
                    "durationTicks": 113,
                    "midi": 86,
                    "name": "D6",
                    "ticks": 155880,
                    "time": 144.527635,
                    "velocity": 0.7559055118110236
                },
                {
                    "duration": 0.05185180000000855,
                    "durationTicks": 56,
                    "midi": 86,
                    "name": "D6",
                    "ticks": 155940,
                    "time": 144.5831905,
                    "velocity": 0.7559055118110236
                },
                {
                    "duration": 0.05185180000000855,
                    "durationTicks": 56,
                    "midi": 74,
                    "name": "D5",
                    "ticks": 156000,
                    "time": 144.638746,
                    "velocity": 0.7559055118110236
                },
                {
                    "duration": 0.05185180000000855,
                    "durationTicks": 56,
                    "midi": 79,
                    "name": "G5",
                    "ticks": 156000,
                    "time": 144.638746,
                    "velocity": 0.7559055118110236
                },
                {
                    "duration": 0.21018497500000421,
                    "durationTicks": 227,
                    "midi": 76,
                    "name": "E5",
                    "ticks": 156000,
                    "time": 144.638746,
                    "velocity": 0.5826771653543307
                },
                {
                    "duration": 0.21018497500000421,
                    "durationTicks": 227,
                    "midi": 88,
                    "name": "E6",
                    "ticks": 156000,
                    "time": 144.638746,
                    "velocity": 0.5826771653543307
                },
                {
                    "duration": 0.05185180000000855,
                    "durationTicks": 56,
                    "midi": 86,
                    "name": "D6",
                    "ticks": 156060,
                    "time": 144.6943015,
                    "velocity": 0.7559055118110236
                },
                {
                    "duration": 0.05185180000000855,
                    "durationTicks": 56,
                    "midi": 79,
                    "name": "G5",
                    "ticks": 156120,
                    "time": 144.749857,
                    "velocity": 0.7559055118110236
                },
                {
                    "duration": 0.10740730000000553,
                    "durationTicks": 116,
                    "midi": 86,
                    "name": "D6",
                    "ticks": 156120,
                    "time": 144.749857,
                    "velocity": 0.7559055118110236
                },
                {
                    "duration": 0.055555500000025404,
                    "durationTicks": 60,
                    "midi": 86,
                    "name": "D6",
                    "ticks": 156180,
                    "time": 144.8054125,
                    "velocity": 0.7559055118110236
                },
                {
                    "duration": 0.05185179999998013,
                    "durationTicks": 56,
                    "midi": 79,
                    "name": "G5",
                    "ticks": 156240,
                    "time": 144.860968,
                    "velocity": 0.7559055118110236
                },
                {
                    "duration": 0.09907397499998183,
                    "durationTicks": 107,
                    "midi": 74,
                    "name": "D5",
                    "ticks": 156240,
                    "time": 144.860968,
                    "velocity": 0.7559055118110236
                },
                {
                    "duration": 0.2101849749999758,
                    "durationTicks": 227,
                    "midi": 76,
                    "name": "E5",
                    "ticks": 156240,
                    "time": 144.860968,
                    "velocity": 0.6299212598425197
                },
                {
                    "duration": 0.2101849749999758,
                    "durationTicks": 227,
                    "midi": 88,
                    "name": "E6",
                    "ticks": 156240,
                    "time": 144.860968,
                    "velocity": 0.6299212598425197
                },
                {
                    "duration": 0.05185179999998013,
                    "durationTicks": 56,
                    "midi": 86,
                    "name": "D6",
                    "ticks": 156300,
                    "time": 144.9165235,
                    "velocity": 0.7559055118110236
                },
                {
                    "duration": 0.05185180000000855,
                    "durationTicks": 56,
                    "midi": 79,
                    "name": "G5",
                    "ticks": 156360,
                    "time": 144.972079,
                    "velocity": 0.7559055118110236
                },
                {
                    "duration": 0.10462952499997868,
                    "durationTicks": 113,
                    "midi": 86,
                    "name": "D6",
                    "ticks": 156360,
                    "time": 144.972079,
                    "velocity": 0.7559055118110236
                },
                {
                    "duration": 0.05185180000000855,
                    "durationTicks": 56,
                    "midi": 86,
                    "name": "D6",
                    "ticks": 156420,
                    "time": 145.0276345,
                    "velocity": 0.7559055118110236
                },
                {
                    "duration": 0.05185180000000855,
                    "durationTicks": 56,
                    "midi": 86,
                    "name": "D6",
                    "ticks": 156480,
                    "time": 145.08319,
                    "velocity": 0.6299212598425197
                },
                {
                    "duration": 0.8435176750000153,
                    "durationTicks": 911,
                    "midi": 76,
                    "name": "E5",
                    "ticks": 156480,
                    "time": 145.08319,
                    "velocity": 0.5984251968503937
                },
                {
                    "duration": 0.8435176750000153,
                    "durationTicks": 911,
                    "midi": 88,
                    "name": "E6",
                    "ticks": 156480,
                    "time": 145.08319,
                    "velocity": 0.5984251968503937
                },
                {
                    "duration": 0.05185180000000855,
                    "durationTicks": 56,
                    "midi": 84,
                    "name": "C6",
                    "ticks": 156540,
                    "time": 145.1387455,
                    "velocity": 0.5984251968503937
                },
                {
                    "duration": 0.05185180000000855,
                    "durationTicks": 56,
                    "midi": 79,
                    "name": "G5",
                    "ticks": 156600,
                    "time": 145.194301,
                    "velocity": 0.5433070866141733
                },
                {
                    "duration": 0.05185180000000855,
                    "durationTicks": 56,
                    "midi": 74,
                    "name": "D5",
                    "ticks": 156660,
                    "time": 145.2498565,
                    "velocity": 0.5118110236220472
                },
                {
                    "duration": 0.05185180000000855,
                    "durationTicks": 56,
                    "midi": 74,
                    "name": "D5",
                    "ticks": 156720,
                    "time": 145.305412,
                    "velocity": 0.7480314960629921
                },
                {
                    "duration": 0.05185179999998013,
                    "durationTicks": 56,
                    "midi": 72,
                    "name": "C5",
                    "ticks": 156780,
                    "time": 145.36096750000002,
                    "velocity": 0.5669291338582677
                },
                {
                    "duration": 0.05185179999998013,
                    "durationTicks": 56,
                    "midi": 67,
                    "name": "G4",
                    "ticks": 156840,
                    "time": 145.416523,
                    "velocity": 0.5275590551181102
                },
                {
                    "duration": 0.05185180000000855,
                    "durationTicks": 56,
                    "midi": 62,
                    "name": "D4",
                    "ticks": 156900,
                    "time": 145.4720785,
                    "velocity": 0.48031496062992124
                },
                {
                    "duration": 0.05185180000000855,
                    "durationTicks": 56,
                    "midi": 62,
                    "name": "D4",
                    "ticks": 156960,
                    "time": 145.527634,
                    "velocity": 0.5590551181102362
                },
                {
                    "duration": 0.05185180000000855,
                    "durationTicks": 56,
                    "midi": 60,
                    "name": "C4",
                    "ticks": 157020,
                    "time": 145.5831895,
                    "velocity": 0.5826771653543307
                },
                {
                    "duration": 0.05185180000000855,
                    "durationTicks": 56,
                    "midi": 91,
                    "name": "G6",
                    "ticks": 157080,
                    "time": 145.638745,
                    "velocity": 0.4645669291338583
                },
                {
                    "duration": 0.05185180000000855,
                    "durationTicks": 56,
                    "midi": 86,
                    "name": "D6",
                    "ticks": 157140,
                    "time": 145.6943005,
                    "velocity": 0.5039370078740157
                },
                {
                    "duration": 0.21018497500000421,
                    "durationTicks": 227,
                    "midi": 91,
                    "name": "G6",
                    "ticks": 157200,
                    "time": 145.749856,
                    "velocity": 0.5039370078740157
                },
                {
                    "duration": 0.21018497500000421,
                    "durationTicks": 227,
                    "midi": 62,
                    "name": "D4",
                    "ticks": 157200,
                    "time": 145.749856,
                    "velocity": 0.5511811023622047
                },
                {
                    "duration": 0.05185180000000855,
                    "durationTicks": 56,
                    "midi": 84,
                    "name": "C6",
                    "ticks": 157260,
                    "time": 145.8054115,
                    "velocity": 0.5905511811023622
                },
                {
                    "duration": 0.05185180000000855,
                    "durationTicks": 56,
                    "midi": 79,
                    "name": "G5",
                    "ticks": 157320,
                    "time": 145.860967,
                    "velocity": 0.5748031496062992
                },
                {
                    "duration": 0.2212960749999695,
                    "durationTicks": 239,
                    "midi": 79,
                    "name": "G5",
                    "ticks": 157440,
                    "time": 145.972078,
                    "velocity": 0.7952755905511811
                },
                {
                    "duration": 0.21574052499997265,
                    "durationTicks": 233,
                    "midi": 69,
                    "name": "A4",
                    "ticks": 157440,
                    "time": 145.972078,
                    "velocity": 0.6299212598425197
                },
                {
                    "duration": 0.31018487500000447,
                    "durationTicks": 335,
                    "midi": 69,
                    "name": "A4",
                    "ticks": 157560,
                    "time": 146.083189,
                    "velocity": 0.5196850393700787
                },
                {
                    "duration": 0.1046295250000071,
                    "durationTicks": 113,
                    "midi": 76,
                    "name": "E5",
                    "ticks": 157680,
                    "time": 146.1943,
                    "velocity": 0.5433070866141733
                },
                {
                    "duration": 0.1046295250000071,
                    "durationTicks": 113,
                    "midi": 79,
                    "name": "G5",
                    "ticks": 157680,
                    "time": 146.1943,
                    "velocity": 0.5748031496062992
                },
                {
                    "duration": 0.1046295250000071,
                    "durationTicks": 113,
                    "midi": 76,
                    "name": "E5",
                    "ticks": 157800,
                    "time": 146.305411,
                    "velocity": 0.6141732283464567
                },
                {
                    "duration": 0.1046295250000071,
                    "durationTicks": 113,
                    "midi": 81,
                    "name": "A5",
                    "ticks": 157800,
                    "time": 146.305411,
                    "velocity": 0.6220472440944882
                },
                {
                    "duration": 0.10462952499997868,
                    "durationTicks": 113,
                    "midi": 76,
                    "name": "E5",
                    "ticks": 157920,
                    "time": 146.41652200000001,
                    "velocity": 0.5511811023622047
                },
                {
                    "duration": 0.10462952499997868,
                    "durationTicks": 113,
                    "midi": 79,
                    "name": "G5",
                    "ticks": 158040,
                    "time": 146.527633,
                    "velocity": 0.6220472440944882
                },
                {
                    "duration": 0.21018497500000421,
                    "durationTicks": 227,
                    "midi": 76,
                    "name": "E5",
                    "ticks": 158160,
                    "time": 146.638744,
                    "velocity": 0.5275590551181102
                },
                {
                    "duration": 0.21018497500000421,
                    "durationTicks": 227,
                    "midi": 83,
                    "name": "B5",
                    "ticks": 158160,
                    "time": 146.638744,
                    "velocity": 0.5433070866141733
                },
                {
                    "duration": 0.10462952499997868,
                    "durationTicks": 113,
                    "midi": 81,
                    "name": "A5",
                    "ticks": 158160,
                    "time": 146.638744,
                    "velocity": 0.6062992125984252
                },
                {
                    "duration": 0.1046295250000071,
                    "durationTicks": 113,
                    "midi": 83,
                    "name": "B5",
                    "ticks": 158280,
                    "time": 146.749855,
                    "velocity": 0.6220472440944882
                },
                {
                    "duration": 0.21018497500000421,
                    "durationTicks": 227,
                    "midi": 74,
                    "name": "D5",
                    "ticks": 158400,
                    "time": 146.860966,
                    "velocity": 0.5669291338582677
                },
                {
                    "duration": 0.1046295250000071,
                    "durationTicks": 113,
                    "midi": 84,
                    "name": "C6",
                    "ticks": 158400,
                    "time": 146.860966,
                    "velocity": 0.6141732283464567
                },
                {
                    "duration": 0.21018497500000421,
                    "durationTicks": 227,
                    "midi": 84,
                    "name": "C6",
                    "ticks": 158400,
                    "time": 146.860966,
                    "velocity": 0.6141732283464567
                },
                {
                    "duration": 0.10462952499997868,
                    "durationTicks": 113,
                    "midi": 81,
                    "name": "A5",
                    "ticks": 158520,
                    "time": 146.972077,
                    "velocity": 0.5748031496062992
                },
                {
                    "duration": 0.10462952499997868,
                    "durationTicks": 113,
                    "midi": 76,
                    "name": "E5",
                    "ticks": 158640,
                    "time": 147.083188,
                    "velocity": 0.6299212598425197
                },
                {
                    "duration": 0.10462952499997868,
                    "durationTicks": 113,
                    "midi": 83,
                    "name": "B5",
                    "ticks": 158640,
                    "time": 147.083188,
                    "velocity": 0.5354330708661418
                },
                {
                    "duration": 0.10462952499997868,
                    "durationTicks": 113,
                    "midi": 79,
                    "name": "G5",
                    "ticks": 158640,
                    "time": 147.083188,
                    "velocity": 0.5590551181102362
                },
                {
                    "duration": 0.1046295250000071,
                    "durationTicks": 113,
                    "midi": 76,
                    "name": "E5",
                    "ticks": 158760,
                    "time": 147.194299,
                    "velocity": 0.6377952755905512
                },
                {
                    "duration": 0.1046295250000071,
                    "durationTicks": 113,
                    "midi": 83,
                    "name": "B5",
                    "ticks": 158760,
                    "time": 147.194299,
                    "velocity": 0.5905511811023622
                },
                {
                    "duration": 0.1046295250000071,
                    "durationTicks": 113,
                    "midi": 81,
                    "name": "A5",
                    "ticks": 158760,
                    "time": 147.194299,
                    "velocity": 0.5748031496062992
                },
                {
                    "duration": 0.1046295250000071,
                    "durationTicks": 113,
                    "midi": 76,
                    "name": "E5",
                    "ticks": 158880,
                    "time": 147.30541,
                    "velocity": 0.5984251968503937
                },
                {
                    "duration": 0.1046295250000071,
                    "durationTicks": 113,
                    "midi": 81,
                    "name": "A5",
                    "ticks": 159000,
                    "time": 147.416521,
                    "velocity": 0.6456692913385826
                },
                {
                    "duration": 0.10462952499997868,
                    "durationTicks": 113,
                    "midi": 79,
                    "name": "G5",
                    "ticks": 159120,
                    "time": 147.527632,
                    "velocity": 0.5118110236220472
                },
                {
                    "duration": 0.2101849749999758,
                    "durationTicks": 227,
                    "midi": 79,
                    "name": "G5",
                    "ticks": 159120,
                    "time": 147.527632,
                    "velocity": 0.6062992125984252
                },
                {
                    "duration": 0.10462952499997868,
                    "durationTicks": 113,
                    "midi": 81,
                    "name": "A5",
                    "ticks": 159240,
                    "time": 147.638743,
                    "velocity": 0.5905511811023622
                },
                {
                    "duration": 0.22129607499999793,
                    "durationTicks": 239,
                    "midi": 79,
                    "name": "G5",
                    "ticks": 159360,
                    "time": 147.749854,
                    "velocity": 0.5826771653543307
                },
                {
                    "duration": 0.42129587499999843,
                    "durationTicks": 455,
                    "midi": 65,
                    "name": "F4",
                    "ticks": 159360,
                    "time": 147.749854,
                    "velocity": 0.5511811023622047
                },
                {
                    "duration": 0.1046295250000071,
                    "durationTicks": 113,
                    "midi": 69,
                    "name": "A4",
                    "ticks": 159480,
                    "time": 147.860965,
                    "velocity": 0.5354330708661418
                },
                {
                    "duration": 0.10462952499997868,
                    "durationTicks": 113,
                    "midi": 76,
                    "name": "E5",
                    "ticks": 159600,
                    "time": 147.97207600000002,
                    "velocity": 0.5275590551181102
                },
                {
                    "duration": 0.10462952499997868,
                    "durationTicks": 113,
                    "midi": 79,
                    "name": "G5",
                    "ticks": 159600,
                    "time": 147.97207600000002,
                    "velocity": 0.5669291338582677
                },
                {
                    "duration": 0.10462952499997868,
                    "durationTicks": 113,
                    "midi": 76,
                    "name": "E5",
                    "ticks": 159720,
                    "time": 148.083187,
                    "velocity": 0.5905511811023622
                },
                {
                    "duration": 0.10462952499997868,
                    "durationTicks": 113,
                    "midi": 81,
                    "name": "A5",
                    "ticks": 159720,
                    "time": 148.083187,
                    "velocity": 0.5905511811023622
                },
                {
                    "duration": 0.10462952499997868,
                    "durationTicks": 113,
                    "midi": 76,
                    "name": "E5",
                    "ticks": 159840,
                    "time": 148.194298,
                    "velocity": 0.5511811023622047
                },
                {
                    "duration": 0.1046295250000071,
                    "durationTicks": 113,
                    "midi": 79,
                    "name": "G5",
                    "ticks": 159960,
                    "time": 148.305409,
                    "velocity": 0.6299212598425197
                },
                {
                    "duration": 0.21018497500000421,
                    "durationTicks": 227,
                    "midi": 76,
                    "name": "E5",
                    "ticks": 160080,
                    "time": 148.41652,
                    "velocity": 0.5511811023622047
                },
                {
                    "duration": 0.21018497500000421,
                    "durationTicks": 227,
                    "midi": 83,
                    "name": "B5",
                    "ticks": 160080,
                    "time": 148.41652,
                    "velocity": 0.5275590551181102
                },
                {
                    "duration": 0.1046295250000071,
                    "durationTicks": 113,
                    "midi": 81,
                    "name": "A5",
                    "ticks": 160080,
                    "time": 148.41652,
                    "velocity": 0.6377952755905512
                },
                {
                    "duration": 0.10462952499997868,
                    "durationTicks": 113,
                    "midi": 83,
                    "name": "B5",
                    "ticks": 160200,
                    "time": 148.527631,
                    "velocity": 0.6220472440944882
                },
                {
                    "duration": 0.21018497500000421,
                    "durationTicks": 227,
                    "midi": 74,
                    "name": "D5",
                    "ticks": 160320,
                    "time": 148.638742,
                    "velocity": 0.5433070866141733
                },
                {
                    "duration": 0.10462952499997868,
                    "durationTicks": 113,
                    "midi": 84,
                    "name": "C6",
                    "ticks": 160320,
                    "time": 148.638742,
                    "velocity": 0.6299212598425197
                },
                {
                    "duration": 0.21018497500000421,
                    "durationTicks": 227,
                    "midi": 84,
                    "name": "C6",
                    "ticks": 160320,
                    "time": 148.638742,
                    "velocity": 0.5984251968503937
                },
                {
                    "duration": 0.1046295250000071,
                    "durationTicks": 113,
                    "midi": 81,
                    "name": "A5",
                    "ticks": 160440,
                    "time": 148.749853,
                    "velocity": 0.5433070866141733
                },
                {
                    "duration": 0.1046295250000071,
                    "durationTicks": 113,
                    "midi": 76,
                    "name": "E5",
                    "ticks": 160560,
                    "time": 148.860964,
                    "velocity": 0.5984251968503937
                },
                {
                    "duration": 0.1046295250000071,
                    "durationTicks": 113,
                    "midi": 83,
                    "name": "B5",
                    "ticks": 160560,
                    "time": 148.860964,
                    "velocity": 0.5905511811023622
                },
                {
                    "duration": 0.1046295250000071,
                    "durationTicks": 113,
                    "midi": 79,
                    "name": "G5",
                    "ticks": 160560,
                    "time": 148.860964,
                    "velocity": 0.5826771653543307
                },
                {
                    "duration": 0.1046295250000071,
                    "durationTicks": 113,
                    "midi": 76,
                    "name": "E5",
                    "ticks": 160680,
                    "time": 148.972075,
                    "velocity": 0.5748031496062992
                },
                {
                    "duration": 0.1046295250000071,
                    "durationTicks": 113,
                    "midi": 83,
                    "name": "B5",
                    "ticks": 160680,
                    "time": 148.972075,
                    "velocity": 0.5905511811023622
                },
                {
                    "duration": 0.1046295250000071,
                    "durationTicks": 113,
                    "midi": 81,
                    "name": "A5",
                    "ticks": 160680,
                    "time": 148.972075,
                    "velocity": 0.6377952755905512
                },
                {
                    "duration": 0.10462952499997868,
                    "durationTicks": 113,
                    "midi": 76,
                    "name": "E5",
                    "ticks": 160800,
                    "time": 149.083186,
                    "velocity": 0.5669291338582677
                },
                {
                    "duration": 0.10462952499997868,
                    "durationTicks": 113,
                    "midi": 81,
                    "name": "A5",
                    "ticks": 160920,
                    "time": 149.194297,
                    "velocity": 0.5984251968503937
                },
                {
                    "duration": 0.1046295250000071,
                    "durationTicks": 113,
                    "midi": 79,
                    "name": "G5",
                    "ticks": 161040,
                    "time": 149.305408,
                    "velocity": 0.5748031496062992
                },
                {
                    "duration": 0.21018497500000421,
                    "durationTicks": 227,
                    "midi": 79,
                    "name": "G5",
                    "ticks": 161040,
                    "time": 149.305408,
                    "velocity": 0.6141732283464567
                },
                {
                    "duration": 0.1046295250000071,
                    "durationTicks": 113,
                    "midi": 81,
                    "name": "A5",
                    "ticks": 161160,
                    "time": 149.416519,
                    "velocity": 0.6614173228346457
                },
                {
                    "duration": 0.22129607499999793,
                    "durationTicks": 239,
                    "midi": 79,
                    "name": "G5",
                    "ticks": 161280,
                    "time": 149.52763,
                    "velocity": 0.5905511811023622
                },
                {
                    "duration": 0.42129587500002685,
                    "durationTicks": 455,
                    "midi": 67,
                    "name": "G4",
                    "ticks": 161280,
                    "time": 149.52763,
                    "velocity": 0.5196850393700787
                },
                {
                    "duration": 0.10462952499997868,
                    "durationTicks": 113,
                    "midi": 69,
                    "name": "A4",
                    "ticks": 161400,
                    "time": 149.638741,
                    "velocity": 0.5354330708661418
                },
                {
                    "duration": 0.10462952499997868,
                    "durationTicks": 113,
                    "midi": 76,
                    "name": "E5",
                    "ticks": 161520,
                    "time": 149.749852,
                    "velocity": 0.5511811023622047
                },
                {
                    "duration": 0.10462952499997868,
                    "durationTicks": 113,
                    "midi": 79,
                    "name": "G5",
                    "ticks": 161520,
                    "time": 149.749852,
                    "velocity": 0.5905511811023622
                },
                {
                    "duration": 0.1046295250000071,
                    "durationTicks": 113,
                    "midi": 76,
                    "name": "E5",
                    "ticks": 161640,
                    "time": 149.860963,
                    "velocity": 0.6141732283464567
                },
                {
                    "duration": 0.1046295250000071,
                    "durationTicks": 113,
                    "midi": 81,
                    "name": "A5",
                    "ticks": 161640,
                    "time": 149.860963,
                    "velocity": 0.6062992125984252
                },
                {
                    "duration": 0.1046295250000071,
                    "durationTicks": 113,
                    "midi": 76,
                    "name": "E5",
                    "ticks": 161760,
                    "time": 149.972074,
                    "velocity": 0.5590551181102362
                },
                {
                    "duration": 0.10462952499997868,
                    "durationTicks": 113,
                    "midi": 79,
                    "name": "G5",
                    "ticks": 161880,
                    "time": 150.08318500000001,
                    "velocity": 0.6062992125984252
                },
                {
                    "duration": 0.21018497500000421,
                    "durationTicks": 227,
                    "midi": 76,
                    "name": "E5",
                    "ticks": 162000,
                    "time": 150.194296,
                    "velocity": 0.5039370078740157
                },
                {
                    "duration": 0.21018497500000421,
                    "durationTicks": 227,
                    "midi": 83,
                    "name": "B5",
                    "ticks": 162000,
                    "time": 150.194296,
                    "velocity": 0.5039370078740157
                },
                {
                    "duration": 0.10462952499997868,
                    "durationTicks": 113,
                    "midi": 81,
                    "name": "A5",
                    "ticks": 162000,
                    "time": 150.194296,
                    "velocity": 0.6299212598425197
                },
                {
                    "duration": 0.10462952499997868,
                    "durationTicks": 113,
                    "midi": 83,
                    "name": "B5",
                    "ticks": 162120,
                    "time": 150.305407,
                    "velocity": 0.6062992125984252
                },
                {
                    "duration": 0.21018497500000421,
                    "durationTicks": 227,
                    "midi": 74,
                    "name": "D5",
                    "ticks": 162240,
                    "time": 150.416518,
                    "velocity": 0.5669291338582677
                },
                {
                    "duration": 0.1046295250000071,
                    "durationTicks": 113,
                    "midi": 84,
                    "name": "C6",
                    "ticks": 162240,
                    "time": 150.416518,
                    "velocity": 0.6141732283464567
                },
                {
                    "duration": 0.21018497500000421,
                    "durationTicks": 227,
                    "midi": 84,
                    "name": "C6",
                    "ticks": 162240,
                    "time": 150.416518,
                    "velocity": 0.6299212598425197
                },
                {
                    "duration": 0.1046295250000071,
                    "durationTicks": 113,
                    "midi": 81,
                    "name": "A5",
                    "ticks": 162360,
                    "time": 150.527629,
                    "velocity": 0.5984251968503937
                },
                {
                    "duration": 0.10462952499997868,
                    "durationTicks": 113,
                    "midi": 76,
                    "name": "E5",
                    "ticks": 162480,
                    "time": 150.63874,
                    "velocity": 0.6377952755905512
                },
                {
                    "duration": 0.10462952499997868,
                    "durationTicks": 113,
                    "midi": 83,
                    "name": "B5",
                    "ticks": 162480,
                    "time": 150.63874,
                    "velocity": 0.5590551181102362
                },
                {
                    "duration": 0.10462952499997868,
                    "durationTicks": 113,
                    "midi": 79,
                    "name": "G5",
                    "ticks": 162480,
                    "time": 150.63874,
                    "velocity": 0.6141732283464567
                },
                {
                    "duration": 0.10462952499997868,
                    "durationTicks": 113,
                    "midi": 76,
                    "name": "E5",
                    "ticks": 162600,
                    "time": 150.749851,
                    "velocity": 0.6062992125984252
                },
                {
                    "duration": 0.10462952499997868,
                    "durationTicks": 113,
                    "midi": 83,
                    "name": "B5",
                    "ticks": 162600,
                    "time": 150.749851,
                    "velocity": 0.6377952755905512
                },
                {
                    "duration": 0.10462952499997868,
                    "durationTicks": 113,
                    "midi": 81,
                    "name": "A5",
                    "ticks": 162600,
                    "time": 150.749851,
                    "velocity": 0.5826771653543307
                },
                {
                    "duration": 0.1046295250000071,
                    "durationTicks": 113,
                    "midi": 76,
                    "name": "E5",
                    "ticks": 162720,
                    "time": 150.860962,
                    "velocity": 0.5511811023622047
                },
                {
                    "duration": 0.1046295250000071,
                    "durationTicks": 113,
                    "midi": 81,
                    "name": "A5",
                    "ticks": 162840,
                    "time": 150.972073,
                    "velocity": 0.6456692913385826
                },
                {
                    "duration": 0.1046295250000071,
                    "durationTicks": 113,
                    "midi": 79,
                    "name": "G5",
                    "ticks": 162960,
                    "time": 151.083184,
                    "velocity": 0.5433070866141733
                },
                {
                    "duration": 0.21018497500000421,
                    "durationTicks": 227,
                    "midi": 79,
                    "name": "G5",
                    "ticks": 162960,
                    "time": 151.083184,
                    "velocity": 0.6141732283464567
                },
                {
                    "duration": 0.10462952499997868,
                    "durationTicks": 113,
                    "midi": 81,
                    "name": "A5",
                    "ticks": 163080,
                    "time": 151.194295,
                    "velocity": 0.5984251968503937
                },
                {
                    "duration": 0.22129607499999793,
                    "durationTicks": 239,
                    "midi": 79,
                    "name": "G5",
                    "ticks": 163200,
                    "time": 151.305406,
                    "velocity": 0.5984251968503937
                },
                {
                    "duration": 0.21574052500000107,
                    "durationTicks": 233,
                    "midi": 69,
                    "name": "A4",
                    "ticks": 163200,
                    "time": 151.305406,
                    "velocity": 0.5196850393700787
                },
                {
                    "duration": 0.31018487500000447,
                    "durationTicks": 335,
                    "midi": 69,
                    "name": "A4",
                    "ticks": 163320,
                    "time": 151.416517,
                    "velocity": 0.5511811023622047
                },
                {
                    "duration": 0.1046295250000071,
                    "durationTicks": 113,
                    "midi": 76,
                    "name": "E5",
                    "ticks": 163440,
                    "time": 151.527628,
                    "velocity": 0.5511811023622047
                },
                {
                    "duration": 0.1046295250000071,
                    "durationTicks": 113,
                    "midi": 79,
                    "name": "G5",
                    "ticks": 163440,
                    "time": 151.527628,
                    "velocity": 0.5984251968503937
                },
                {
                    "duration": 0.10462952499997868,
                    "durationTicks": 113,
                    "midi": 76,
                    "name": "E5",
                    "ticks": 163560,
                    "time": 151.63873900000002,
                    "velocity": 0.6062992125984252
                },
                {
                    "duration": 0.10462952499997868,
                    "durationTicks": 113,
                    "midi": 81,
                    "name": "A5",
                    "ticks": 163560,
                    "time": 151.63873900000002,
                    "velocity": 0.6535433070866141
                },
                {
                    "duration": 0.10462952499997868,
                    "durationTicks": 113,
                    "midi": 76,
                    "name": "E5",
                    "ticks": 163680,
                    "time": 151.74985,
                    "velocity": 0.5905511811023622
                },
                {
                    "duration": 0.10462952499997868,
                    "durationTicks": 113,
                    "midi": 79,
                    "name": "G5",
                    "ticks": 163800,
                    "time": 151.860961,
                    "velocity": 0.6299212598425197
                },
                {
                    "duration": 0.21018497500000421,
                    "durationTicks": 227,
                    "midi": 76,
                    "name": "E5",
                    "ticks": 163920,
                    "time": 151.972072,
                    "velocity": 0.5590551181102362
                },
                {
                    "duration": 0.21018497500000421,
                    "durationTicks": 227,
                    "midi": 83,
                    "name": "B5",
                    "ticks": 163920,
                    "time": 151.972072,
                    "velocity": 0.5590551181102362
                },
                {
                    "duration": 0.1046295250000071,
                    "durationTicks": 113,
                    "midi": 81,
                    "name": "A5",
                    "ticks": 163920,
                    "time": 151.972072,
                    "velocity": 0.5905511811023622
                },
                {
                    "duration": 0.1046295250000071,
                    "durationTicks": 113,
                    "midi": 83,
                    "name": "B5",
                    "ticks": 164040,
                    "time": 152.083183,
                    "velocity": 0.6141732283464567
                },
                {
                    "duration": 0.2101849749999758,
                    "durationTicks": 227,
                    "midi": 74,
                    "name": "D5",
                    "ticks": 164160,
                    "time": 152.194294,
                    "velocity": 0.5669291338582677
                },
                {
                    "duration": 0.10462952499997868,
                    "durationTicks": 113,
                    "midi": 84,
                    "name": "C6",
                    "ticks": 164160,
                    "time": 152.194294,
                    "velocity": 0.6299212598425197
                },
                {
                    "duration": 0.2101849749999758,
                    "durationTicks": 227,
                    "midi": 84,
                    "name": "C6",
                    "ticks": 164160,
                    "time": 152.194294,
                    "velocity": 0.6299212598425197
                },
                {
                    "duration": 0.10462952499997868,
                    "durationTicks": 113,
                    "midi": 81,
                    "name": "A5",
                    "ticks": 164280,
                    "time": 152.305405,
                    "velocity": 0.5669291338582677
                },
                {
                    "duration": 0.1046295250000071,
                    "durationTicks": 113,
                    "midi": 76,
                    "name": "E5",
                    "ticks": 164400,
                    "time": 152.416516,
                    "velocity": 0.5984251968503937
                },
                {
                    "duration": 0.1046295250000071,
                    "durationTicks": 113,
                    "midi": 83,
                    "name": "B5",
                    "ticks": 164400,
                    "time": 152.416516,
                    "velocity": 0.5748031496062992
                },
                {
                    "duration": 0.1046295250000071,
                    "durationTicks": 113,
                    "midi": 79,
                    "name": "G5",
                    "ticks": 164400,
                    "time": 152.416516,
                    "velocity": 0.5905511811023622
                },
                {
                    "duration": 0.1046295250000071,
                    "durationTicks": 113,
                    "midi": 76,
                    "name": "E5",
                    "ticks": 164520,
                    "time": 152.527627,
                    "velocity": 0.5905511811023622
                },
                {
                    "duration": 0.1046295250000071,
                    "durationTicks": 113,
                    "midi": 83,
                    "name": "B5",
                    "ticks": 164520,
                    "time": 152.527627,
                    "velocity": 0.5984251968503937
                },
                {
                    "duration": 0.1046295250000071,
                    "durationTicks": 113,
                    "midi": 81,
                    "name": "A5",
                    "ticks": 164520,
                    "time": 152.527627,
                    "velocity": 0.6456692913385826
                },
                {
                    "duration": 0.1046295250000071,
                    "durationTicks": 113,
                    "midi": 76,
                    "name": "E5",
                    "ticks": 164640,
                    "time": 152.638738,
                    "velocity": 0.5905511811023622
                },
                {
                    "duration": 0.10462952499997868,
                    "durationTicks": 113,
                    "midi": 81,
                    "name": "A5",
                    "ticks": 164760,
                    "time": 152.749849,
                    "velocity": 0.6062992125984252
                },
                {
                    "duration": 0.10462952499997868,
                    "durationTicks": 113,
                    "midi": 79,
                    "name": "G5",
                    "ticks": 164880,
                    "time": 152.86096,
                    "velocity": 0.5354330708661418
                },
                {
                    "duration": 0.21018497500000421,
                    "durationTicks": 227,
                    "midi": 79,
                    "name": "G5",
                    "ticks": 164880,
                    "time": 152.86096,
                    "velocity": 0.6299212598425197
                },
                {
                    "duration": 0.1046295250000071,
                    "durationTicks": 113,
                    "midi": 81,
                    "name": "A5",
                    "ticks": 165000,
                    "time": 152.972071,
                    "velocity": 0.6062992125984252
                },
                {
                    "duration": 0.1046295250000071,
                    "durationTicks": 113,
                    "midi": 88,
                    "name": "E6",
                    "ticks": 165120,
                    "time": 153.083182,
                    "velocity": 0.5354330708661418
                },
                {
                    "duration": 0.22129607499999793,
                    "durationTicks": 239,
                    "midi": 76,
                    "name": "E5",
                    "ticks": 165120,
                    "time": 153.083182,
                    "velocity": 0.5826771653543307
                },
                {
                    "duration": 0.22129607499999793,
                    "durationTicks": 239,
                    "midi": 79,
                    "name": "G5",
                    "ticks": 165120,
                    "time": 153.083182,
                    "velocity": 0.5826771653543307
                },
                {
                    "duration": 0.42129587500002685,
                    "durationTicks": 455,
                    "midi": 69,
                    "name": "A4",
                    "ticks": 165120,
                    "time": 153.083182,
                    "velocity": 0.5275590551181102
                },
                {
                    "duration": 0.10462952499997868,
                    "durationTicks": 113,
                    "midi": 83,
                    "name": "B5",
                    "ticks": 165240,
                    "time": 153.19429300000002,
                    "velocity": 0.5196850393700787
                },
                {
                    "duration": 0.10462952499997868,
                    "durationTicks": 113,
                    "midi": 81,
                    "name": "A5",
                    "ticks": 165240,
                    "time": 153.19429300000002,
                    "velocity": 0.5118110236220472
                },
                {
                    "duration": 0.10462952499997868,
                    "durationTicks": 113,
                    "midi": 84,
                    "name": "C6",
                    "ticks": 165360,
                    "time": 153.305404,
                    "velocity": 0.6141732283464567
                },
                {
                    "duration": 0.10462952499997868,
                    "durationTicks": 113,
                    "midi": 84,
                    "name": "C6",
                    "ticks": 165360,
                    "time": 153.305404,
                    "velocity": 0.6299212598425197
                },
                {
                    "duration": 0.10462952499997868,
                    "durationTicks": 113,
                    "midi": 88,
                    "name": "E6",
                    "ticks": 165360,
                    "time": 153.305404,
                    "velocity": 0.5275590551181102
                },
                {
                    "duration": 0.10462952499997868,
                    "durationTicks": 113,
                    "midi": 79,
                    "name": "G5",
                    "ticks": 165480,
                    "time": 153.416515,
                    "velocity": 0.5118110236220472
                },
                {
                    "duration": 0.10462952499997868,
                    "durationTicks": 113,
                    "midi": 84,
                    "name": "C6",
                    "ticks": 165480,
                    "time": 153.416515,
                    "velocity": 0.5905511811023622
                },
                {
                    "duration": 0.10462952499997868,
                    "durationTicks": 113,
                    "midi": 88,
                    "name": "E6",
                    "ticks": 165480,
                    "time": 153.416515,
                    "velocity": 0.6062992125984252
                },
                {
                    "duration": 0.1046295250000071,
                    "durationTicks": 113,
                    "midi": 69,
                    "name": "A4",
                    "ticks": 165600,
                    "time": 153.527626,
                    "velocity": 0.5905511811023622
                },
                {
                    "duration": 0.1046295250000071,
                    "durationTicks": 113,
                    "midi": 71,
                    "name": "B4",
                    "ticks": 165720,
                    "time": 153.638737,
                    "velocity": 0.6377952755905512
                },
                {
                    "duration": 0.10462952499997868,
                    "durationTicks": 113,
                    "midi": 88,
                    "name": "E6",
                    "ticks": 165840,
                    "time": 153.74984800000001,
                    "velocity": 0.5669291338582677
                },
                {
                    "duration": 0.11018507499997554,
                    "durationTicks": 119,
                    "midi": 84,
                    "name": "C6",
                    "ticks": 165840,
                    "time": 153.74984800000001,
                    "velocity": 0.6377952755905512
                },
                {
                    "duration": 0.2101849749999758,
                    "durationTicks": 227,
                    "midi": 88,
                    "name": "E6",
                    "ticks": 165840,
                    "time": 153.74984800000001,
                    "velocity": 0.5511811023622047
                },
                {
                    "duration": 0.10462952499997868,
                    "durationTicks": 113,
                    "midi": 83,
                    "name": "B5",
                    "ticks": 165960,
                    "time": 153.860959,
                    "velocity": 0.5039370078740157
                },
                {
                    "duration": 0.10462952499997868,
                    "durationTicks": 113,
                    "midi": 81,
                    "name": "A5",
                    "ticks": 165960,
                    "time": 153.860959,
                    "velocity": 0.5905511811023622
                },
                {
                    "duration": 0.1046295250000071,
                    "durationTicks": 113,
                    "midi": 84,
                    "name": "C6",
                    "ticks": 166080,
                    "time": 153.97207,
                    "velocity": 0.5984251968503937
                },
                {
                    "duration": 0.1046295250000071,
                    "durationTicks": 113,
                    "midi": 83,
                    "name": "B5",
                    "ticks": 166080,
                    "time": 153.97207,
                    "velocity": 0.6062992125984252
                },
                {
                    "duration": 0.22129607499999793,
                    "durationTicks": 239,
                    "midi": 86,
                    "name": "D6",
                    "ticks": 166080,
                    "time": 153.97207,
                    "velocity": 0.5905511811023622
                },
                {
                    "duration": 0.1046295250000071,
                    "durationTicks": 113,
                    "midi": 79,
                    "name": "G5",
                    "ticks": 166200,
                    "time": 154.083181,
                    "velocity": 0.5354330708661418
                },
                {
                    "duration": 0.1046295250000071,
                    "durationTicks": 113,
                    "midi": 81,
                    "name": "A5",
                    "ticks": 166200,
                    "time": 154.083181,
                    "velocity": 0.5433070866141733
                },
                {
                    "duration": 0.1046295250000071,
                    "durationTicks": 113,
                    "midi": 76,
                    "name": "E5",
                    "ticks": 166320,
                    "time": 154.194292,
                    "velocity": 0.6456692913385826
                },
                {
                    "duration": 0.1046295250000071,
                    "durationTicks": 113,
                    "midi": 84,
                    "name": "C6",
                    "ticks": 166320,
                    "time": 154.194292,
                    "velocity": 0.6377952755905512
                },
                {
                    "duration": 0.10462952499997868,
                    "durationTicks": 113,
                    "midi": 76,
                    "name": "E5",
                    "ticks": 166440,
                    "time": 154.305403,
                    "velocity": 0.6062992125984252
                },
                {
                    "duration": 0.10462952499997868,
                    "durationTicks": 113,
                    "midi": 84,
                    "name": "C6",
                    "ticks": 166440,
                    "time": 154.305403,
                    "velocity": 0.5590551181102362
                },
                {
                    "duration": 0.10462952499997868,
                    "durationTicks": 113,
                    "midi": 88,
                    "name": "E6",
                    "ticks": 166560,
                    "time": 154.416514,
                    "velocity": 0.5196850393700787
                },
                {
                    "duration": 0.10462952499997868,
                    "durationTicks": 113,
                    "midi": 81,
                    "name": "A5",
                    "ticks": 166560,
                    "time": 154.416514,
                    "velocity": 0.5511811023622047
                },
                {
                    "duration": 0.1046295250000071,
                    "durationTicks": 113,
                    "midi": 83,
                    "name": "B5",
                    "ticks": 166680,
                    "time": 154.527625,
                    "velocity": 0.5275590551181102
                },
                {
                    "duration": 0.1046295250000071,
                    "durationTicks": 113,
                    "midi": 83,
                    "name": "B5",
                    "ticks": 166680,
                    "time": 154.527625,
                    "velocity": 0.6614173228346457
                },
                {
                    "duration": 0.21018497500000421,
                    "durationTicks": 227,
                    "midi": 79,
                    "name": "G5",
                    "ticks": 166800,
                    "time": 154.638736,
                    "velocity": 0.5196850393700787
                },
                {
                    "duration": 0.21018497500000421,
                    "durationTicks": 227,
                    "midi": 84,
                    "name": "C6",
                    "ticks": 166800,
                    "time": 154.638736,
                    "velocity": 0.6220472440944882
                },
                {
                    "duration": 0.1046295250000071,
                    "durationTicks": 113,
                    "midi": 88,
                    "name": "E6",
                    "ticks": 166800,
                    "time": 154.638736,
                    "velocity": 0.6614173228346457
                },
                {
                    "duration": 0.1046295250000071,
                    "durationTicks": 113,
                    "midi": 81,
                    "name": "A5",
                    "ticks": 166920,
                    "time": 154.749847,
                    "velocity": 0.5590551181102362
                },
                {
                    "duration": 0.10462952499997868,
                    "durationTicks": 113,
                    "midi": 88,
                    "name": "E6",
                    "ticks": 167040,
                    "time": 154.860958,
                    "velocity": 0.6535433070866141
                },
                {
                    "duration": 0.2212960749999695,
                    "durationTicks": 239,
                    "midi": 76,
                    "name": "E5",
                    "ticks": 167040,
                    "time": 154.860958,
                    "velocity": 0.5826771653543307
                },
                {
                    "duration": 0.2212960749999695,
                    "durationTicks": 239,
                    "midi": 79,
                    "name": "G5",
                    "ticks": 167040,
                    "time": 154.860958,
                    "velocity": 0.5826771653543307
                },
                {
                    "duration": 0.42129587499999843,
                    "durationTicks": 455,
                    "midi": 65,
                    "name": "F4",
                    "ticks": 167040,
                    "time": 154.860958,
                    "velocity": 0.5275590551181102
                },
                {
                    "duration": 0.10462952499997868,
                    "durationTicks": 113,
                    "midi": 83,
                    "name": "B5",
                    "ticks": 167160,
                    "time": 154.972069,
                    "velocity": 0.5511811023622047
                },
                {
                    "duration": 0.10462952499997868,
                    "durationTicks": 113,
                    "midi": 77,
                    "name": "F5",
                    "ticks": 167160,
                    "time": 154.972069,
                    "velocity": 0.5590551181102362
                },
                {
                    "duration": 0.1046295250000071,
                    "durationTicks": 113,
                    "midi": 84,
                    "name": "C6",
                    "ticks": 167280,
                    "time": 155.08318,
                    "velocity": 0.6220472440944882
                },
                {
                    "duration": 0.1046295250000071,
                    "durationTicks": 113,
                    "midi": 84,
                    "name": "C6",
                    "ticks": 167280,
                    "time": 155.08318,
                    "velocity": 0.6377952755905512
                },
                {
                    "duration": 0.1046295250000071,
                    "durationTicks": 113,
                    "midi": 88,
                    "name": "E6",
                    "ticks": 167280,
                    "time": 155.08318,
                    "velocity": 0.5826771653543307
                },
                {
                    "duration": 0.1046295250000071,
                    "durationTicks": 113,
                    "midi": 79,
                    "name": "G5",
                    "ticks": 167400,
                    "time": 155.194291,
                    "velocity": 0.47244094488188976
                },
                {
                    "duration": 0.1046295250000071,
                    "durationTicks": 113,
                    "midi": 84,
                    "name": "C6",
                    "ticks": 167400,
                    "time": 155.194291,
                    "velocity": 0.6456692913385826
                },
                {
                    "duration": 0.1046295250000071,
                    "durationTicks": 113,
                    "midi": 88,
                    "name": "E6",
                    "ticks": 167400,
                    "time": 155.194291,
                    "velocity": 0.5905511811023622
                },
                {
                    "duration": 0.10462952499997868,
                    "durationTicks": 113,
                    "midi": 69,
                    "name": "A4",
                    "ticks": 167520,
                    "time": 155.30540200000002,
                    "velocity": 0.5275590551181102
                },
                {
                    "duration": 0.10462952499997868,
                    "durationTicks": 113,
                    "midi": 71,
                    "name": "B4",
                    "ticks": 167640,
                    "time": 155.416513,
                    "velocity": 0.6299212598425197
                },
                {
                    "duration": 0.10462952499997868,
                    "durationTicks": 113,
                    "midi": 88,
                    "name": "E6",
                    "ticks": 167760,
                    "time": 155.527624,
                    "velocity": 0.5275590551181102
                },
                {
                    "duration": 0.11018507499997554,
                    "durationTicks": 119,
                    "midi": 84,
                    "name": "C6",
                    "ticks": 167760,
                    "time": 155.527624,
                    "velocity": 0.6299212598425197
                },
                {
                    "duration": 0.21018497500000421,
                    "durationTicks": 227,
                    "midi": 88,
                    "name": "E6",
                    "ticks": 167760,
                    "time": 155.527624,
                    "velocity": 0.5511811023622047
                },
                {
                    "duration": 0.1046295250000071,
                    "durationTicks": 113,
                    "midi": 83,
                    "name": "B5",
                    "ticks": 167880,
                    "time": 155.638735,
                    "velocity": 0.4881889763779528
                },
                {
                    "duration": 0.1046295250000071,
                    "durationTicks": 113,
                    "midi": 81,
                    "name": "A5",
                    "ticks": 167880,
                    "time": 155.638735,
                    "velocity": 0.5511811023622047
                },
                {
                    "duration": 0.1046295250000071,
                    "durationTicks": 113,
                    "midi": 84,
                    "name": "C6",
                    "ticks": 168000,
                    "time": 155.749846,
                    "velocity": 0.6220472440944882
                },
                {
                    "duration": 0.1046295250000071,
                    "durationTicks": 113,
                    "midi": 83,
                    "name": "B5",
                    "ticks": 168000,
                    "time": 155.749846,
                    "velocity": 0.6456692913385826
                },
                {
                    "duration": 0.22129607499999793,
                    "durationTicks": 239,
                    "midi": 86,
                    "name": "D6",
                    "ticks": 168000,
                    "time": 155.749846,
                    "velocity": 0.5905511811023622
                },
                {
                    "duration": 0.10462952499997868,
                    "durationTicks": 113,
                    "midi": 79,
                    "name": "G5",
                    "ticks": 168120,
                    "time": 155.860957,
                    "velocity": 0.5196850393700787
                },
                {
                    "duration": 0.10462952499997868,
                    "durationTicks": 113,
                    "midi": 81,
                    "name": "A5",
                    "ticks": 168120,
                    "time": 155.860957,
                    "velocity": 0.5669291338582677
                },
                {
                    "duration": 0.10462952499997868,
                    "durationTicks": 113,
                    "midi": 76,
                    "name": "E5",
                    "ticks": 168240,
                    "time": 155.972068,
                    "velocity": 0.6299212598425197
                },
                {
                    "duration": 0.10462952499997868,
                    "durationTicks": 113,
                    "midi": 84,
                    "name": "C6",
                    "ticks": 168240,
                    "time": 155.972068,
                    "velocity": 0.6614173228346457
                },
                {
                    "duration": 0.1046295250000071,
                    "durationTicks": 113,
                    "midi": 76,
                    "name": "E5",
                    "ticks": 168360,
                    "time": 156.083179,
                    "velocity": 0.6299212598425197
                },
                {
                    "duration": 0.1046295250000071,
                    "durationTicks": 113,
                    "midi": 84,
                    "name": "C6",
                    "ticks": 168360,
                    "time": 156.083179,
                    "velocity": 0.5669291338582677
                },
                {
                    "duration": 0.1046295250000071,
                    "durationTicks": 113,
                    "midi": 88,
                    "name": "E6",
                    "ticks": 168480,
                    "time": 156.19429,
                    "velocity": 0.5433070866141733
                },
                {
                    "duration": 0.1046295250000071,
                    "durationTicks": 113,
                    "midi": 81,
                    "name": "A5",
                    "ticks": 168480,
                    "time": 156.19429,
                    "velocity": 0.5511811023622047
                },
                {
                    "duration": 0.1046295250000071,
                    "durationTicks": 113,
                    "midi": 83,
                    "name": "B5",
                    "ticks": 168600,
                    "time": 156.305401,
                    "velocity": 0.5039370078740157
                },
                {
                    "duration": 0.1046295250000071,
                    "durationTicks": 113,
                    "midi": 83,
                    "name": "B5",
                    "ticks": 168600,
                    "time": 156.305401,
                    "velocity": 0.6299212598425197
                },
                {
                    "duration": 0.2101849749999758,
                    "durationTicks": 227,
                    "midi": 79,
                    "name": "G5",
                    "ticks": 168720,
                    "time": 156.416512,
                    "velocity": 0.5511811023622047
                },
                {
                    "duration": 0.2101849749999758,
                    "durationTicks": 227,
                    "midi": 84,
                    "name": "C6",
                    "ticks": 168720,
                    "time": 156.416512,
                    "velocity": 0.5905511811023622
                },
                {
                    "duration": 0.10462952499997868,
                    "durationTicks": 113,
                    "midi": 88,
                    "name": "E6",
                    "ticks": 168720,
                    "time": 156.416512,
                    "velocity": 0.6692913385826772
                },
                {
                    "duration": 0.10462952499997868,
                    "durationTicks": 113,
                    "midi": 81,
                    "name": "A5",
                    "ticks": 168840,
                    "time": 156.527623,
                    "velocity": 0.5669291338582677
                },
                {
                    "duration": 0.1046295250000071,
                    "durationTicks": 113,
                    "midi": 88,
                    "name": "E6",
                    "ticks": 168960,
                    "time": 156.638734,
                    "velocity": 0.7244094488188977
                },
                {
                    "duration": 0.22129607499999793,
                    "durationTicks": 239,
                    "midi": 76,
                    "name": "E5",
                    "ticks": 168960,
                    "time": 156.638734,
                    "velocity": 0.5275590551181102
                },
                {
                    "duration": 0.21574052500000107,
                    "durationTicks": 233,
                    "midi": 79,
                    "name": "G5",
                    "ticks": 168960,
                    "time": 156.638734,
                    "velocity": 0.5275590551181102
                },
                {
                    "duration": 0.42129587499999843,
                    "durationTicks": 455,
                    "midi": 67,
                    "name": "G4",
                    "ticks": 168960,
                    "time": 156.638734,
                    "velocity": 0.5275590551181102
                },
                {
                    "duration": 0.1046295250000071,
                    "durationTicks": 113,
                    "midi": 83,
                    "name": "B5",
                    "ticks": 169080,
                    "time": 156.749845,
                    "velocity": 0.5275590551181102
                },
                {
                    "duration": 0.11018507500000396,
                    "durationTicks": 119,
                    "midi": 79,
                    "name": "G5",
                    "ticks": 169080,
                    "time": 156.749845,
                    "velocity": 0.5748031496062992
                },
                {
                    "duration": 0.10462952499997868,
                    "durationTicks": 113,
                    "midi": 76,
                    "name": "E5",
                    "ticks": 169200,
                    "time": 156.86095600000002,
                    "velocity": 0.5354330708661418
                },
                {
                    "duration": 0.10462952499997868,
                    "durationTicks": 113,
                    "midi": 84,
                    "name": "C6",
                    "ticks": 169200,
                    "time": 156.86095600000002,
                    "velocity": 0.6377952755905512
                },
                {
                    "duration": 0.10462952499997868,
                    "durationTicks": 113,
                    "midi": 84,
                    "name": "C6",
                    "ticks": 169200,
                    "time": 156.86095600000002,
                    "velocity": 0.6535433070866141
                },
                {
                    "duration": 0.10462952499997868,
                    "durationTicks": 113,
                    "midi": 76,
                    "name": "E5",
                    "ticks": 169320,
                    "time": 156.972067,
                    "velocity": 0.6220472440944882
                },
                {
                    "duration": 0.10462952499997868,
                    "durationTicks": 113,
                    "midi": 79,
                    "name": "G5",
                    "ticks": 169320,
                    "time": 156.972067,
                    "velocity": 0.49606299212598426
                },
                {
                    "duration": 0.10462952499997868,
                    "durationTicks": 113,
                    "midi": 84,
                    "name": "C6",
                    "ticks": 169320,
                    "time": 156.972067,
                    "velocity": 0.5826771653543307
                },
                {
                    "duration": 0.10462952499997868,
                    "durationTicks": 113,
                    "midi": 81,
                    "name": "A5",
                    "ticks": 169440,
                    "time": 157.083178,
                    "velocity": 0.5748031496062992
                },
                {
                    "duration": 0.1046295250000071,
                    "durationTicks": 113,
                    "midi": 83,
                    "name": "B5",
                    "ticks": 169560,
                    "time": 157.194289,
                    "velocity": 0.6299212598425197
                },
                {
                    "duration": 0.21018497500000421,
                    "durationTicks": 227,
                    "midi": 76,
                    "name": "E5",
                    "ticks": 169680,
                    "time": 157.3054,
                    "velocity": 0.5354330708661418
                },
                {
                    "duration": 0.21018497500000421,
                    "durationTicks": 227,
                    "midi": 88,
                    "name": "E6",
                    "ticks": 169680,
                    "time": 157.3054,
                    "velocity": 0.5354330708661418
                },
                {
                    "duration": 0.1046295250000071,
                    "durationTicks": 113,
                    "midi": 84,
                    "name": "C6",
                    "ticks": 169680,
                    "time": 157.3054,
                    "velocity": 0.5984251968503937
                },
                {
                    "duration": 0.10462952499997868,
                    "durationTicks": 113,
                    "midi": 83,
                    "name": "B5",
                    "ticks": 169800,
                    "time": 157.416511,
                    "velocity": 0.44881889763779526
                },
                {
                    "duration": 0.10462952499997868,
                    "durationTicks": 113,
                    "midi": 81,
                    "name": "A5",
                    "ticks": 169800,
                    "time": 157.416511,
                    "velocity": 0.5748031496062992
                },
                {
                    "duration": 0.16574057499997252,
                    "durationTicks": 179,
                    "midi": 74,
                    "name": "D5",
                    "ticks": 169920,
                    "time": 157.527622,
                    "velocity": 0.5118110236220472
                },
                {
                    "duration": 0.16574057499997252,
                    "durationTicks": 179,
                    "midi": 84,
                    "name": "C6",
                    "ticks": 169920,
                    "time": 157.527622,
                    "velocity": 0.5905511811023622
                },
                {
                    "duration": 0.16574057499997252,
                    "durationTicks": 179,
                    "midi": 86,
                    "name": "D6",
                    "ticks": 169920,
                    "time": 157.527622,
                    "velocity": 0.5590551181102362
                },
                {
                    "duration": 0.21018497500000421,
                    "durationTicks": 227,
                    "midi": 83,
                    "name": "B5",
                    "ticks": 169920,
                    "time": 157.527622,
                    "velocity": 0.5905511811023622
                },
                {
                    "duration": 0.5268513249999955,
                    "durationTicks": 569,
                    "midi": 91,
                    "name": "G6",
                    "ticks": 170040,
                    "time": 157.638733,
                    "velocity": 0.5118110236220472
                },
                {
                    "duration": 0.3157404250000013,
                    "durationTicks": 341,
                    "midi": 81,
                    "name": "A5",
                    "ticks": 170160,
                    "time": 157.749844,
                    "velocity": 0.5826771653543307
                },
                {
                    "duration": 0.3157404250000013,
                    "durationTicks": 341,
                    "midi": 76,
                    "name": "E5",
                    "ticks": 170280,
                    "time": 157.860955,
                    "velocity": 0.6692913385826772
                },
                {
                    "duration": 0.3157404250000013,
                    "durationTicks": 341,
                    "midi": 88,
                    "name": "E6",
                    "ticks": 170280,
                    "time": 157.860955,
                    "velocity": 0.6535433070866141
                },
                {
                    "duration": 0.21018497500000421,
                    "durationTicks": 227,
                    "midi": 84,
                    "name": "C6",
                    "ticks": 170280,
                    "time": 157.860955,
                    "velocity": 0.6220472440944882
                },
                {
                    "duration": 0.9490731250000124,
                    "durationTicks": 1025,
                    "midi": 69,
                    "name": "A4",
                    "ticks": 170520,
                    "time": 158.083177,
                    "velocity": 0.5196850393700787
                },
                {
                    "duration": 0.42129587499999843,
                    "durationTicks": 455,
                    "midi": 76,
                    "name": "E5",
                    "ticks": 170640,
                    "time": 158.194288,
                    "velocity": 0.5984251968503937
                },
                {
                    "duration": 0.42129587499999843,
                    "durationTicks": 455,
                    "midi": 79,
                    "name": "G5",
                    "ticks": 170640,
                    "time": 158.194288,
                    "velocity": 0.5984251968503937
                },
                {
                    "duration": 0.42129587499999843,
                    "durationTicks": 455,
                    "midi": 84,
                    "name": "C6",
                    "ticks": 170640,
                    "time": 158.194288,
                    "velocity": 0.5984251968503937
                },
                {
                    "duration": 0.42129587499999843,
                    "durationTicks": 455,
                    "midi": 88,
                    "name": "E6",
                    "ticks": 170640,
                    "time": 158.194288,
                    "velocity": 0.5984251968503937
                },
                {
                    "duration": 1.054628574999981,
                    "durationTicks": 1139,
                    "midi": 81,
                    "name": "A5",
                    "ticks": 170640,
                    "time": 158.194288,
                    "velocity": 0.5433070866141733
                },
                {
                    "duration": 0.21018497500000421,
                    "durationTicks": 227,
                    "midi": 77,
                    "name": "F5",
                    "ticks": 171120,
                    "time": 158.638732,
                    "velocity": 0.7795275590551181
                },
                {
                    "duration": 0.21018497500000421,
                    "durationTicks": 227,
                    "midi": 77,
                    "name": "F5",
                    "ticks": 171120,
                    "time": 158.638732,
                    "velocity": 0.7795275590551181
                },
                {
                    "duration": 0.42129587500002685,
                    "durationTicks": 455,
                    "midi": 76,
                    "name": "E5",
                    "ticks": 171360,
                    "time": 158.860954,
                    "velocity": 0.5275590551181102
                },
                {
                    "duration": 0.42129587500002685,
                    "durationTicks": 455,
                    "midi": 76,
                    "name": "E5",
                    "ticks": 171360,
                    "time": 158.860954,
                    "velocity": 0.5275590551181102
                },
                {
                    "duration": 0.9490731250000124,
                    "durationTicks": 1025,
                    "midi": 72,
                    "name": "C5",
                    "ticks": 171720,
                    "time": 159.194287,
                    "velocity": 0.8661417322834646
                },
                {
                    "duration": 0.42129587500002685,
                    "durationTicks": 455,
                    "midi": 76,
                    "name": "E5",
                    "ticks": 171840,
                    "time": 159.305398,
                    "velocity": 0.5748031496062992
                },
                {
                    "duration": 0.42129587500002685,
                    "durationTicks": 455,
                    "midi": 88,
                    "name": "E6",
                    "ticks": 171840,
                    "time": 159.305398,
                    "velocity": 0.5748031496062992
                },
                {
                    "duration": 0.8435176750000153,
                    "durationTicks": 911,
                    "midi": 76,
                    "name": "E5",
                    "ticks": 171840,
                    "time": 159.305398,
                    "velocity": 0.952755905511811
                },
                {
                    "duration": 0.42129587499999843,
                    "durationTicks": 455,
                    "midi": 86,
                    "name": "D6",
                    "ticks": 172320,
                    "time": 159.749842,
                    "velocity": 0.5590551181102362
                },
                {
                    "duration": 0.42129587499999843,
                    "durationTicks": 455,
                    "midi": 86,
                    "name": "D6",
                    "ticks": 172320,
                    "time": 159.749842,
                    "velocity": 0.5590551181102362
                },
                {
                    "duration": 0.3157404250000013,
                    "durationTicks": 341,
                    "midi": 88,
                    "name": "E6",
                    "ticks": 172800,
                    "time": 160.194286,
                    "velocity": 0.6299212598425197
                },
                {
                    "duration": 0.3333330000000103,
                    "durationTicks": 360,
                    "midi": 65,
                    "name": "F4",
                    "ticks": 172800,
                    "time": 160.194286,
                    "velocity": 0.5748031496062992
                },
                {
                    "duration": 1.6879612749999922,
                    "durationTicks": 1823,
                    "midi": 60,
                    "name": "C4",
                    "ticks": 172800,
                    "time": 160.194286,
                    "velocity": 0.5748031496062992
                },
                {
                    "duration": 0.1046295250000071,
                    "durationTicks": 113,
                    "midi": 81,
                    "name": "A5",
                    "ticks": 172920,
                    "time": 160.305397,
                    "velocity": 0.49606299212598426
                },
                {
                    "duration": 0.11018507500000396,
                    "durationTicks": 119,
                    "midi": 77,
                    "name": "F5",
                    "ticks": 173040,
                    "time": 160.416508,
                    "velocity": 0.5118110236220472
                },
                {
                    "duration": 0.3157404250000013,
                    "durationTicks": 341,
                    "midi": 86,
                    "name": "D6",
                    "ticks": 173160,
                    "time": 160.52761900000002,
                    "velocity": 0.5905511811023622
                },
                {
                    "duration": 0.3157404250000013,
                    "durationTicks": 341,
                    "midi": 65,
                    "name": "F4",
                    "ticks": 173160,
                    "time": 160.52761900000002,
                    "velocity": 0.5118110236220472
                },
                {
                    "duration": 0.10462952499997868,
                    "durationTicks": 113,
                    "midi": 81,
                    "name": "A5",
                    "ticks": 173280,
                    "time": 160.63873,
                    "velocity": 0.5196850393700787
                },
                {
                    "duration": 0.11018507499997554,
                    "durationTicks": 119,
                    "midi": 77,
                    "name": "F5",
                    "ticks": 173400,
                    "time": 160.749841,
                    "velocity": 0.5354330708661418
                },
                {
                    "duration": 0.21018497500000421,
                    "durationTicks": 227,
                    "midi": 86,
                    "name": "D6",
                    "ticks": 173520,
                    "time": 160.860952,
                    "velocity": 0.6377952755905512
                },
                {
                    "duration": 1.054628574999981,
                    "durationTicks": 1139,
                    "midi": 65,
                    "name": "F4",
                    "ticks": 173520,
                    "time": 160.860952,
                    "velocity": 0.5905511811023622
                },
                {
                    "duration": 0.1046295250000071,
                    "durationTicks": 113,
                    "midi": 77,
                    "name": "F5",
                    "ticks": 173640,
                    "time": 160.972063,
                    "velocity": 0.4881889763779528
                },
                {
                    "duration": 0.3157404250000013,
                    "durationTicks": 341,
                    "midi": 86,
                    "name": "D6",
                    "ticks": 173760,
                    "time": 161.083174,
                    "velocity": 0.5984251968503937
                },
                {
                    "duration": 0.8435176749999869,
                    "durationTicks": 911,
                    "midi": 72,
                    "name": "C5",
                    "ticks": 173760,
                    "time": 161.083174,
                    "velocity": 0.7322834645669292
                },
                {
                    "duration": 0.33240707499996347,
                    "durationTicks": 359,
                    "midi": 77,
                    "name": "F5",
                    "ticks": 173760,
                    "time": 161.083174,
                    "velocity": 0.7322834645669292
                },
                {
                    "duration": 0.21574052499997265,
                    "durationTicks": 233,
                    "midi": 81,
                    "name": "A5",
                    "ticks": 173760,
                    "time": 161.083174,
                    "velocity": 0.7322834645669292
                },
                {
                    "duration": 0.437962524999989,
                    "durationTicks": 473,
                    "midi": 81,
                    "name": "A5",
                    "ticks": 173880,
                    "time": 161.194285,
                    "velocity": 0.5354330708661418
                },
                {
                    "duration": 0.44351807499998586,
                    "durationTicks": 479,
                    "midi": 77,
                    "name": "F5",
                    "ticks": 174000,
                    "time": 161.305396,
                    "velocity": 0.5354330708661418
                },
                {
                    "duration": 0.3157404250000013,
                    "durationTicks": 341,
                    "midi": 84,
                    "name": "C6",
                    "ticks": 174120,
                    "time": 161.416507,
                    "velocity": 0.5905511811023622
                },
                {
                    "duration": 0.399073675000011,
                    "durationTicks": 431,
                    "midi": 81,
                    "name": "A5",
                    "ticks": 174240,
                    "time": 161.527618,
                    "velocity": 0.5511811023622047
                },
                {
                    "duration": 0.2879626749999886,
                    "durationTicks": 311,
                    "midi": 77,
                    "name": "F5",
                    "ticks": 174360,
                    "time": 161.638729,
                    "velocity": 0.49606299212598426
                },
                {
                    "duration": 0.21018497500000421,
                    "durationTicks": 227,
                    "midi": 84,
                    "name": "C6",
                    "ticks": 174480,
                    "time": 161.74984,
                    "velocity": 0.5826771653543307
                },
                {
                    "duration": 0.1046295250000071,
                    "durationTicks": 113,
                    "midi": 77,
                    "name": "F5",
                    "ticks": 174600,
                    "time": 161.860951,
                    "velocity": 0.47244094488188976
                },
                {
                    "duration": 0.3157404250000013,
                    "durationTicks": 341,
                    "midi": 83,
                    "name": "B5",
                    "ticks": 174720,
                    "time": 161.972062,
                    "velocity": 0.5590551181102362
                },
                {
                    "duration": 0.3157404250000013,
                    "durationTicks": 341,
                    "midi": 67,
                    "name": "G4",
                    "ticks": 174720,
                    "time": 161.972062,
                    "velocity": 0.6220472440944882
                },
                {
                    "duration": 1.6879612749999922,
                    "durationTicks": 1823,
                    "midi": 62,
                    "name": "D4",
                    "ticks": 174720,
                    "time": 161.972062,
                    "velocity": 0.6220472440944882
                },
                {
                    "duration": 0.1046295250000071,
                    "durationTicks": 113,
                    "midi": 79,
                    "name": "G5",
                    "ticks": 174840,
                    "time": 162.083173,
                    "velocity": 0.5275590551181102
                },
                {
                    "duration": 0.11018507499997554,
                    "durationTicks": 119,
                    "midi": 74,
                    "name": "D5",
                    "ticks": 174960,
                    "time": 162.194284,
                    "velocity": 0.5039370078740157
                },
                {
                    "duration": 0.3157404250000013,
                    "durationTicks": 341,
                    "midi": 84,
                    "name": "C6",
                    "ticks": 175080,
                    "time": 162.305395,
                    "velocity": 0.6062992125984252
                },
                {
                    "duration": 0.3157404250000013,
                    "durationTicks": 341,
                    "midi": 67,
                    "name": "G4",
                    "ticks": 175080,
                    "time": 162.305395,
                    "velocity": 0.5354330708661418
                },
                {
                    "duration": 0.1046295250000071,
                    "durationTicks": 113,
                    "midi": 79,
                    "name": "G5",
                    "ticks": 175200,
                    "time": 162.416506,
                    "velocity": 0.5354330708661418
                },
                {
                    "duration": 0.11018507500000396,
                    "durationTicks": 119,
                    "midi": 74,
                    "name": "D5",
                    "ticks": 175320,
                    "time": 162.527617,
                    "velocity": 0.5275590551181102
                },
                {
                    "duration": 0.42129587499999843,
                    "durationTicks": 455,
                    "midi": 83,
                    "name": "B5",
                    "ticks": 175440,
                    "time": 162.63872800000001,
                    "velocity": 0.5748031496062992
                },
                {
                    "duration": 1.054628574999981,
                    "durationTicks": 1139,
                    "midi": 67,
                    "name": "G4",
                    "ticks": 175440,
                    "time": 162.63872800000001,
                    "velocity": 0.6220472440944882
                },
                {
                    "duration": 0.10462952499997868,
                    "durationTicks": 113,
                    "midi": 74,
                    "name": "D5",
                    "ticks": 175560,
                    "time": 162.749839,
                    "velocity": 0.49606299212598426
                },
                {
                    "duration": 0.10462952499997868,
                    "durationTicks": 113,
                    "midi": 74,
                    "name": "D5",
                    "ticks": 175680,
                    "time": 162.86095,
                    "velocity": 0.5984251968503937
                },
                {
                    "duration": 0.22129607499999793,
                    "durationTicks": 239,
                    "midi": 74,
                    "name": "D5",
                    "ticks": 175680,
                    "time": 162.86095,
                    "velocity": 0.7637795275590551
                },
                {
                    "duration": 0.6435178750000148,
                    "durationTicks": 695,
                    "midi": 79,
                    "name": "G5",
                    "ticks": 175680,
                    "time": 162.86095,
                    "velocity": 0.7637795275590551
                },
                {
                    "duration": 0.8435176750000153,
                    "durationTicks": 911,
                    "midi": 83,
                    "name": "B5",
                    "ticks": 175680,
                    "time": 162.86095,
                    "velocity": 0.7637795275590551
                },
                {
                    "duration": 0.32685152499999504,
                    "durationTicks": 353,
                    "midi": 74,
                    "name": "D5",
                    "ticks": 175800,
                    "time": 162.972061,
                    "velocity": 0.5669291338582677
                },
                {
                    "duration": 0.6212956750000274,
                    "durationTicks": 671,
                    "midi": 79,
                    "name": "G5",
                    "ticks": 175920,
                    "time": 163.083172,
                    "velocity": 0.5511811023622047
                },
                {
                    "duration": 0.21574052499997265,
                    "durationTicks": 233,
                    "midi": 74,
                    "name": "D5",
                    "ticks": 176040,
                    "time": 163.194283,
                    "velocity": 0.5196850393700787
                },
                {
                    "duration": 0.2212960749999695,
                    "durationTicks": 239,
                    "midi": 74,
                    "name": "D5",
                    "ticks": 176160,
                    "time": 163.305394,
                    "velocity": 0.5511811023622047
                },
                {
                    "duration": 0.28796267500001704,
                    "durationTicks": 311,
                    "midi": 74,
                    "name": "D5",
                    "ticks": 176280,
                    "time": 163.416505,
                    "velocity": 0.6220472440944882
                },
                {
                    "duration": 0.21018497500000421,
                    "durationTicks": 227,
                    "midi": 79,
                    "name": "G5",
                    "ticks": 176400,
                    "time": 163.527616,
                    "velocity": 0.6929133858267716
                },
                {
                    "duration": 0.1046295250000071,
                    "durationTicks": 113,
                    "midi": 83,
                    "name": "B5",
                    "ticks": 176520,
                    "time": 163.638727,
                    "velocity": 0.6850393700787402
                },
                {
                    "duration": 0.3157404250000013,
                    "durationTicks": 341,
                    "midi": 88,
                    "name": "E6",
                    "ticks": 176640,
                    "time": 163.749838,
                    "velocity": 0.7165354330708661
                },
                {
                    "duration": 0.3157404250000013,
                    "durationTicks": 341,
                    "midi": 69,
                    "name": "A4",
                    "ticks": 176640,
                    "time": 163.749838,
                    "velocity": 0.6220472440944882
                },
                {
                    "duration": 1.6879612749999922,
                    "durationTicks": 1823,
                    "midi": 64,
                    "name": "E4",
                    "ticks": 176640,
                    "time": 163.749838,
                    "velocity": 0.6220472440944882
                },
                {
                    "duration": 0.10462952499997868,
                    "durationTicks": 113,
                    "midi": 81,
                    "name": "A5",
                    "ticks": 176760,
                    "time": 163.860949,
                    "velocity": 0.4881889763779528
                },
                {
                    "duration": 0.11018507500000396,
                    "durationTicks": 119,
                    "midi": 76,
                    "name": "E5",
                    "ticks": 176880,
                    "time": 163.97206,
                    "velocity": 0.49606299212598426
                },
                {
                    "duration": 0.3157404250000013,
                    "durationTicks": 341,
                    "midi": 86,
                    "name": "D6",
                    "ticks": 177000,
                    "time": 164.083171,
                    "velocity": 0.5826771653543307
                },
                {
                    "duration": 0.3157404250000013,
                    "durationTicks": 341,
                    "midi": 69,
                    "name": "A4",
                    "ticks": 177000,
                    "time": 164.083171,
                    "velocity": 0.5433070866141733
                },
                {
                    "duration": 0.10462952499997868,
                    "durationTicks": 113,
                    "midi": 81,
                    "name": "A5",
                    "ticks": 177120,
                    "time": 164.19428200000002,
                    "velocity": 0.5826771653543307
                },
                {
                    "duration": 0.11018507499997554,
                    "durationTicks": 119,
                    "midi": 76,
                    "name": "E5",
                    "ticks": 177240,
                    "time": 164.305393,
                    "velocity": 0.5196850393700787
                },
                {
                    "duration": 0.21018497500000421,
                    "durationTicks": 227,
                    "midi": 86,
                    "name": "D6",
                    "ticks": 177360,
                    "time": 164.416504,
                    "velocity": 0.6299212598425197
                },
                {
                    "duration": 1.054628574999981,
                    "durationTicks": 1139,
                    "midi": 69,
                    "name": "A4",
                    "ticks": 177360,
                    "time": 164.416504,
                    "velocity": 0.5590551181102362
                },
                {
                    "duration": 0.1046295250000071,
                    "durationTicks": 113,
                    "midi": 76,
                    "name": "E5",
                    "ticks": 177480,
                    "time": 164.527615,
                    "velocity": 0.49606299212598426
                },
                {
                    "duration": 0.3157404250000013,
                    "durationTicks": 341,
                    "midi": 86,
                    "name": "D6",
                    "ticks": 177600,
                    "time": 164.638726,
                    "velocity": 0.6141732283464567
                },
                {
                    "duration": 0.3324070749999919,
                    "durationTicks": 359,
                    "midi": 76,
                    "name": "E5",
                    "ticks": 177600,
                    "time": 164.638726,
                    "velocity": 0.8031496062992126
                },
                {
                    "duration": 0.21574052500000107,
                    "durationTicks": 233,
                    "midi": 81,
                    "name": "A5",
                    "ticks": 177600,
                    "time": 164.638726,
                    "velocity": 0.8031496062992126
                },
                {
                    "duration": 0.6490734250000116,
                    "durationTicks": 701,
                    "midi": 84,
                    "name": "C6",
                    "ticks": 177600,
                    "time": 164.638726,
                    "velocity": 0.8031496062992126
                },
                {
                    "duration": 0.437962524999989,
                    "durationTicks": 473,
                    "midi": 81,
                    "name": "A5",
                    "ticks": 177720,
                    "time": 164.749837,
                    "velocity": 0.5275590551181102
                },
                {
                    "duration": 0.44351807499998586,
                    "durationTicks": 479,
                    "midi": 76,
                    "name": "E5",
                    "ticks": 177840,
                    "time": 164.860948,
                    "velocity": 0.5118110236220472
                },
                {
                    "duration": 0.510184675000005,
                    "durationTicks": 551,
                    "midi": 84,
                    "name": "C6",
                    "ticks": 177960,
                    "time": 164.972059,
                    "velocity": 0.5748031496062992
                },
                {
                    "duration": 0.399073675000011,
                    "durationTicks": 431,
                    "midi": 81,
                    "name": "A5",
                    "ticks": 178080,
                    "time": 165.08317,
                    "velocity": 0.5905511811023622
                },
                {
                    "duration": 0.28796267500001704,
                    "durationTicks": 311,
                    "midi": 76,
                    "name": "E5",
                    "ticks": 178200,
                    "time": 165.194281,
                    "velocity": 0.5118110236220472
                },
                {
                    "duration": 0.2101849749999758,
                    "durationTicks": 227,
                    "midi": 84,
                    "name": "C6",
                    "ticks": 178320,
                    "time": 165.305392,
                    "velocity": 0.6141732283464567
                },
                {
                    "duration": 0.10462952499997868,
                    "durationTicks": 113,
                    "midi": 76,
                    "name": "E5",
                    "ticks": 178440,
                    "time": 165.416503,
                    "velocity": 0.5275590551181102
                },
                {
                    "duration": 0.3157404250000013,
                    "durationTicks": 341,
                    "midi": 83,
                    "name": "B5",
                    "ticks": 178560,
                    "time": 165.527614,
                    "velocity": 0.5748031496062992
                },
                {
                    "duration": 0.3157404250000013,
                    "durationTicks": 341,
                    "midi": 64,
                    "name": "E4",
                    "ticks": 178560,
                    "time": 165.527614,
                    "velocity": 0.4881889763779528
                },
                {
                    "duration": 0.1046295250000071,
                    "durationTicks": 113,
                    "midi": 79,
                    "name": "G5",
                    "ticks": 178680,
                    "time": 165.638725,
                    "velocity": 0.5669291338582677
                },
                {
                    "duration": 0.11018507499997554,
                    "durationTicks": 119,
                    "midi": 76,
                    "name": "E5",
                    "ticks": 178800,
                    "time": 165.74983600000002,
                    "velocity": 0.5590551181102362
                },
                {
                    "duration": 0.3157404250000013,
                    "durationTicks": 341,
                    "midi": 84,
                    "name": "C6",
                    "ticks": 178920,
                    "time": 165.860947,
                    "velocity": 0.5984251968503937
                },
                {
                    "duration": 0.3157404250000013,
                    "durationTicks": 341,
                    "midi": 64,
                    "name": "E4",
                    "ticks": 178920,
                    "time": 165.860947,
                    "velocity": 0.5511811023622047
                },
                {
                    "duration": 0.10462952499997868,
                    "durationTicks": 113,
                    "midi": 79,
                    "name": "G5",
                    "ticks": 179040,
                    "time": 165.972058,
                    "velocity": 0.5433070866141733
                },
                {
                    "duration": 0.11018507500000396,
                    "durationTicks": 119,
                    "midi": 76,
                    "name": "E5",
                    "ticks": 179160,
                    "time": 166.083169,
                    "velocity": 0.5354330708661418
                },
                {
                    "duration": 0.42129587500002685,
                    "durationTicks": 455,
                    "midi": 91,
                    "name": "G6",
                    "ticks": 179280,
                    "time": 166.19428,
                    "velocity": 0.7165354330708661
                },
                {
                    "duration": 1.0546285750000095,
                    "durationTicks": 1139,
                    "midi": 64,
                    "name": "E4",
                    "ticks": 179280,
                    "time": 166.19428,
                    "velocity": 0.5748031496062992
                },
                {
                    "duration": 0.10462952499997868,
                    "durationTicks": 113,
                    "midi": 76,
                    "name": "E5",
                    "ticks": 179400,
                    "time": 166.30539100000001,
                    "velocity": 0.4566929133858268
                },
                {
                    "duration": 0.10462952499997868,
                    "durationTicks": 113,
                    "midi": 76,
                    "name": "E5",
                    "ticks": 179520,
                    "time": 166.416502,
                    "velocity": 0.5748031496062992
                },
                {
                    "duration": 0.2212960749999695,
                    "durationTicks": 239,
                    "midi": 76,
                    "name": "E5",
                    "ticks": 179520,
                    "time": 166.416502,
                    "velocity": 0.7716535433070866
                },
                {
                    "duration": 0.7712955249999993,
                    "durationTicks": 833,
                    "midi": 79,
                    "name": "G5",
                    "ticks": 179520,
                    "time": 166.416502,
                    "velocity": 0.7716535433070866
                },
                {
                    "duration": 0.8435176749999869,
                    "durationTicks": 911,
                    "midi": 83,
                    "name": "B5",
                    "ticks": 179520,
                    "time": 166.416502,
                    "velocity": 0.7716535433070866
                },
                {
                    "duration": 0.32685152499999504,
                    "durationTicks": 353,
                    "midi": 76,
                    "name": "E5",
                    "ticks": 179640,
                    "time": 166.527613,
                    "velocity": 0.6062992125984252
                },
                {
                    "duration": 0.6324067749999926,
                    "durationTicks": 683,
                    "midi": 83,
                    "name": "B5",
                    "ticks": 179760,
                    "time": 166.638724,
                    "velocity": 0.5039370078740157
                },
                {
                    "duration": 0.21574052500000107,
                    "durationTicks": 233,
                    "midi": 76,
                    "name": "E5",
                    "ticks": 179880,
                    "time": 166.749835,
                    "velocity": 0.5118110236220472
                },
                {
                    "duration": 0.21574052499997265,
                    "durationTicks": 233,
                    "midi": 76,
                    "name": "E5",
                    "ticks": 180000,
                    "time": 166.860946,
                    "velocity": 0.5669291338582677
                },
                {
                    "duration": 0.2879626749999886,
                    "durationTicks": 311,
                    "midi": 76,
                    "name": "E5",
                    "ticks": 180120,
                    "time": 166.972057,
                    "velocity": 0.6141732283464567
                },
                {
                    "duration": 0.17685167499999466,
                    "durationTicks": 191,
                    "midi": 79,
                    "name": "G5",
                    "ticks": 180240,
                    "time": 167.083168,
                    "velocity": 0.6456692913385826
                },
                {
                    "duration": 0.1046295250000071,
                    "durationTicks": 113,
                    "midi": 84,
                    "name": "C6",
                    "ticks": 180360,
                    "time": 167.194279,
                    "velocity": 0.7007874015748031
                },
                {
                    "duration": 0.31574042500002975,
                    "durationTicks": 341,
                    "midi": 93,
                    "name": "A6",
                    "ticks": 180480,
                    "time": 167.30539,
                    "velocity": 0.7401574803149606
                },
                {
                    "duration": 0.31574042500002975,
                    "durationTicks": 341,
                    "midi": 65,
                    "name": "F4",
                    "ticks": 180480,
                    "time": 167.30539,
                    "velocity": 0.6220472440944882
                },
                {
                    "duration": 1.6879612750000206,
                    "durationTicks": 1823,
                    "midi": 60,
                    "name": "C4",
                    "ticks": 180480,
                    "time": 167.30539,
                    "velocity": 0.6220472440944882
                },
                {
                    "duration": 0.10462952499997868,
                    "durationTicks": 113,
                    "midi": 84,
                    "name": "C6",
                    "ticks": 180600,
                    "time": 167.416501,
                    "velocity": 0.4881889763779528
                },
                {
                    "duration": 0.11018507499997554,
                    "durationTicks": 119,
                    "midi": 81,
                    "name": "A5",
                    "ticks": 180720,
                    "time": 167.527612,
                    "velocity": 0.5039370078740157
                },
                {
                    "duration": 0.3157404250000013,
                    "durationTicks": 341,
                    "midi": 91,
                    "name": "G6",
                    "ticks": 180840,
                    "time": 167.638723,
                    "velocity": 0.5748031496062992
                },
                {
                    "duration": 0.3157404250000013,
                    "durationTicks": 341,
                    "midi": 65,
                    "name": "F4",
                    "ticks": 180840,
                    "time": 167.638723,
                    "velocity": 0.5275590551181102
                },
                {
                    "duration": 0.1046295250000071,
                    "durationTicks": 113,
                    "midi": 84,
                    "name": "C6",
                    "ticks": 180960,
                    "time": 167.749834,
                    "velocity": 0.5196850393700787
                },
                {
                    "duration": 0.11018507499997554,
                    "durationTicks": 119,
                    "midi": 81,
                    "name": "A5",
                    "ticks": 181080,
                    "time": 167.86094500000002,
                    "velocity": 0.5511811023622047
                },
                {
                    "duration": 0.42129587499999843,
                    "durationTicks": 455,
                    "midi": 88,
                    "name": "E6",
                    "ticks": 181200,
                    "time": 167.972056,
                    "velocity": 0.5826771653543307
                },
                {
                    "duration": 1.054628574999981,
                    "durationTicks": 1139,
                    "midi": 65,
                    "name": "F4",
                    "ticks": 181200,
                    "time": 167.972056,
                    "velocity": 0.5748031496062992
                },
                {
                    "duration": 0.10462952499997868,
                    "durationTicks": 113,
                    "midi": 77,
                    "name": "F5",
                    "ticks": 181320,
                    "time": 168.083167,
                    "velocity": 0.48031496062992124
                },
                {
                    "duration": 0.1046295250000071,
                    "durationTicks": 113,
                    "midi": 77,
                    "name": "F5",
                    "ticks": 181440,
                    "time": 168.194278,
                    "velocity": 0.5669291338582677
                },
                {
                    "duration": 0.8435176750000153,
                    "durationTicks": 911,
                    "midi": 72,
                    "name": "C5",
                    "ticks": 181440,
                    "time": 168.194278,
                    "velocity": 0.7716535433070866
                },
                {
                    "duration": 0.22129607499999793,
                    "durationTicks": 239,
                    "midi": 77,
                    "name": "F5",
                    "ticks": 181440,
                    "time": 168.194278,
                    "velocity": 0.7716535433070866
                },
                {
                    "duration": 0.8435176750000153,
                    "durationTicks": 911,
                    "midi": 81,
                    "name": "A5",
                    "ticks": 181440,
                    "time": 168.194278,
                    "velocity": 0.7716535433070866
                },
                {
                    "duration": 0.32685152499999504,
                    "durationTicks": 353,
                    "midi": 77,
                    "name": "F5",
                    "ticks": 181560,
                    "time": 168.305389,
                    "velocity": 0.5748031496062992
                },
                {
                    "duration": 0.42129587499999843,
                    "durationTicks": 455,
                    "midi": 84,
                    "name": "C6",
                    "ticks": 181680,
                    "time": 168.4165,
                    "velocity": 0.5669291338582677
                },
                {
                    "duration": 0.21574052500000107,
                    "durationTicks": 233,
                    "midi": 77,
                    "name": "F5",
                    "ticks": 181800,
                    "time": 168.527611,
                    "velocity": 0.5275590551181102
                },
                {
                    "duration": 0.22129607499999793,
                    "durationTicks": 239,
                    "midi": 77,
                    "name": "F5",
                    "ticks": 181920,
                    "time": 168.638722,
                    "velocity": 0.5905511811023622
                },
                {
                    "duration": 0.28796267500001704,
                    "durationTicks": 311,
                    "midi": 77,
                    "name": "F5",
                    "ticks": 182040,
                    "time": 168.749833,
                    "velocity": 0.6062992125984252
                },
                {
                    "duration": 0.21018497500000421,
                    "durationTicks": 227,
                    "midi": 84,
                    "name": "C6",
                    "ticks": 182160,
                    "time": 168.860944,
                    "velocity": 0.5748031496062992
                },
                {
                    "duration": 0.10462952499997868,
                    "durationTicks": 113,
                    "midi": 77,
                    "name": "F5",
                    "ticks": 182280,
                    "time": 168.972055,
                    "velocity": 0.5039370078740157
                },
                {
                    "duration": 0.42129587499999843,
                    "durationTicks": 455,
                    "midi": 84,
                    "name": "C6",
                    "ticks": 182400,
                    "time": 169.083166,
                    "velocity": 0.5748031496062992
                },
                {
                    "duration": 0.3157404250000013,
                    "durationTicks": 341,
                    "midi": 67,
                    "name": "G4",
                    "ticks": 182400,
                    "time": 169.083166,
                    "velocity": 0.6220472440944882
                },
                {
                    "duration": 1.6879612749999922,
                    "durationTicks": 1823,
                    "midi": 62,
                    "name": "D4",
                    "ticks": 182400,
                    "time": 169.083166,
                    "velocity": 0.6220472440944882
                },
                {
                    "duration": 0.1046295250000071,
                    "durationTicks": 113,
                    "midi": 79,
                    "name": "G5",
                    "ticks": 182520,
                    "time": 169.194277,
                    "velocity": 0.5039370078740157
                },
                {
                    "duration": 0.1046295250000071,
                    "durationTicks": 113,
                    "midi": 74,
                    "name": "D5",
                    "ticks": 182640,
                    "time": 169.305388,
                    "velocity": 0.4566929133858268
                },
                {
                    "duration": 0.10462952499997868,
                    "durationTicks": 113,
                    "midi": 74,
                    "name": "D5",
                    "ticks": 182760,
                    "time": 169.41649900000002,
                    "velocity": 0.5826771653543307
                },
                {
                    "duration": 0.3157404250000013,
                    "durationTicks": 341,
                    "midi": 67,
                    "name": "G4",
                    "ticks": 182760,
                    "time": 169.41649900000002,
                    "velocity": 0.5275590551181102
                },
                {
                    "duration": 0.21018497500000421,
                    "durationTicks": 227,
                    "midi": 83,
                    "name": "B5",
                    "ticks": 182880,
                    "time": 169.52761,
                    "velocity": 0.5433070866141733
                },
                {
                    "duration": 0.11018507499997554,
                    "durationTicks": 119,
                    "midi": 74,
                    "name": "D5",
                    "ticks": 183000,
                    "time": 169.638721,
                    "velocity": 0.47244094488188976
                },
                {
                    "duration": 0.42129587500002685,
                    "durationTicks": 455,
                    "midi": 81,
                    "name": "A5",
                    "ticks": 183120,
                    "time": 169.749832,
                    "velocity": 0.5669291338582677
                },
                {
                    "duration": 1.054628574999981,
                    "durationTicks": 1139,
                    "midi": 67,
                    "name": "G4",
                    "ticks": 183120,
                    "time": 169.749832,
                    "velocity": 0.5905511811023622
                },
                {
                    "duration": 0.1046295250000071,
                    "durationTicks": 113,
                    "midi": 74,
                    "name": "D5",
                    "ticks": 183240,
                    "time": 169.860943,
                    "velocity": 0.5118110236220472
                },
                {
                    "duration": 0.10462952499997868,
                    "durationTicks": 113,
                    "midi": 74,
                    "name": "D5",
                    "ticks": 183360,
                    "time": 169.972054,
                    "velocity": 0.5669291338582677
                },
                {
                    "duration": 0.2212960749999695,
                    "durationTicks": 239,
                    "midi": 74,
                    "name": "D5",
                    "ticks": 183360,
                    "time": 169.972054,
                    "velocity": 0.7952755905511811
                },
                {
                    "duration": 0.8435176749999869,
                    "durationTicks": 911,
                    "midi": 79,
                    "name": "G5",
                    "ticks": 183360,
                    "time": 169.972054,
                    "velocity": 0.7952755905511811
                },
                {
                    "duration": 0.6435178749999864,
                    "durationTicks": 695,
                    "midi": 83,
                    "name": "B5",
                    "ticks": 183360,
                    "time": 169.972054,
                    "velocity": 0.7952755905511811
                },
                {
                    "duration": 0.32685152499999504,
                    "durationTicks": 353,
                    "midi": 74,
                    "name": "D5",
                    "ticks": 183480,
                    "time": 170.083165,
                    "velocity": 0.5984251968503937
                },
                {
                    "duration": 0.6212956749999989,
                    "durationTicks": 671,
                    "midi": 83,
                    "name": "B5",
                    "ticks": 183600,
                    "time": 170.194276,
                    "velocity": 0.6220472440944882
                },
                {
                    "duration": 0.21574052500000107,
                    "durationTicks": 233,
                    "midi": 74,
                    "name": "D5",
                    "ticks": 183720,
                    "time": 170.305387,
                    "velocity": 0.4566929133858268
                },
                {
                    "duration": 0.2768515749999949,
                    "durationTicks": 299,
                    "midi": 74,
                    "name": "D5",
                    "ticks": 183840,
                    "time": 170.416498,
                    "velocity": 0.5826771653543307
                },
                {
                    "duration": 0.2879626749999886,
                    "durationTicks": 311,
                    "midi": 74,
                    "name": "D5",
                    "ticks": 183960,
                    "time": 170.527609,
                    "velocity": 0.5984251968503937
                },
                {
                    "duration": 0.549073524999983,
                    "durationTicks": 593,
                    "midi": 72,
                    "name": "C5",
                    "ticks": 184080,
                    "time": 170.63872,
                    "velocity": 0.7244094488188977
                },
                {
                    "duration": 1.2157395249999752,
                    "durationTicks": 1313,
                    "midi": 76,
                    "name": "E5",
                    "ticks": 184080,
                    "time": 170.63872,
                    "velocity": 0.7244094488188977
                },
                {
                    "duration": 1.476850374999998,
                    "durationTicks": 1595,
                    "midi": 84,
                    "name": "C6",
                    "ticks": 184080,
                    "time": 170.63872,
                    "velocity": 0.5984251968503937
                },
                {
                    "duration": 0.1046295250000071,
                    "durationTicks": 113,
                    "midi": 69,
                    "name": "A4",
                    "ticks": 184440,
                    "time": 170.972053,
                    "velocity": 0.5275590551181102
                },
                {
                    "duration": 1.0324063749999937,
                    "durationTicks": 1115,
                    "midi": 72,
                    "name": "C5",
                    "ticks": 184560,
                    "time": 171.083164,
                    "velocity": 0.6456692913385826
                },
                {
                    "duration": 0.3157404250000013,
                    "durationTicks": 341,
                    "midi": 64,
                    "name": "E4",
                    "ticks": 184680,
                    "time": 171.194275,
                    "velocity": 0.48031496062992124
                },
                {
                    "duration": 0.1046295250000071,
                    "durationTicks": 113,
                    "midi": 60,
                    "name": "C4",
                    "ticks": 184920,
                    "time": 171.416497,
                    "velocity": 0.6377952755905512
                },
                {
                    "duration": 0.10462952499997868,
                    "durationTicks": 113,
                    "midi": 69,
                    "name": "A4",
                    "ticks": 185160,
                    "time": 171.638719,
                    "velocity": 0.6850393700787402
                },
                {
                    "duration": 0.36574037500000145,
                    "durationTicks": 395,
                    "midi": 76,
                    "name": "E5",
                    "ticks": 185280,
                    "time": 171.74983,
                    "velocity": 0.6614173228346457
                },
                {
                    "duration": 0.3157404250000013,
                    "durationTicks": 341,
                    "midi": 64,
                    "name": "E4",
                    "ticks": 185400,
                    "time": 171.860941,
                    "velocity": 0.4566929133858268
                },
                {
                    "duration": 0.10462952499997868,
                    "durationTicks": 113,
                    "midi": 60,
                    "name": "C4",
                    "ticks": 185640,
                    "time": 172.083163,
                    "velocity": 0.6614173228346457
                },
                {
                    "duration": 0.11018507500000396,
                    "durationTicks": 119,
                    "midi": 72,
                    "name": "C5",
                    "ticks": 186000,
                    "time": 172.416496,
                    "velocity": 0.5196850393700787
                },
                {
                    "duration": 0.21018497500000421,
                    "durationTicks": 227,
                    "midi": 72,
                    "name": "C5",
                    "ticks": 186000,
                    "time": 172.416496,
                    "velocity": 0.6456692913385826
                },
                {
                    "duration": 0.3157404250000013,
                    "durationTicks": 341,
                    "midi": 64,
                    "name": "E4",
                    "ticks": 186240,
                    "time": 172.638718,
                    "velocity": 0.5826771653543307
                },
                {
                    "duration": 0.3157404250000013,
                    "durationTicks": 341,
                    "midi": 67,
                    "name": "G4",
                    "ticks": 186240,
                    "time": 172.638718,
                    "velocity": 0.5826771653543307
                },
                {
                    "duration": 0.3157404250000013,
                    "durationTicks": 341,
                    "midi": 71,
                    "name": "B4",
                    "ticks": 186240,
                    "time": 172.638718,
                    "velocity": 0.5826771653543307
                },
                {
                    "duration": 0.3157404250000013,
                    "durationTicks": 341,
                    "midi": 72,
                    "name": "C5",
                    "ticks": 186600,
                    "time": 172.972051,
                    "velocity": 0.6377952755905512
                },
                {
                    "duration": 0.42129587499999843,
                    "durationTicks": 455,
                    "midi": 71,
                    "name": "B4",
                    "ticks": 186960,
                    "time": 173.305384,
                    "velocity": 0.5984251968503937
                },
                {
                    "duration": 0.1046295250000071,
                    "durationTicks": 113,
                    "midi": 64,
                    "name": "E4",
                    "ticks": 187200,
                    "time": 173.527606,
                    "velocity": 0.7637795275590551
                },
                {
                    "duration": 0.11018507499997554,
                    "durationTicks": 119,
                    "midi": 67,
                    "name": "G4",
                    "ticks": 187440,
                    "time": 173.749828,
                    "velocity": 0.5354330708661418
                },
                {
                    "duration": 0.3324070749999919,
                    "durationTicks": 359,
                    "midi": 67,
                    "name": "G4",
                    "ticks": 187440,
                    "time": 173.749828,
                    "velocity": 0.5039370078740157
                },
                {
                    "duration": 0.2101849749999758,
                    "durationTicks": 227,
                    "midi": 64,
                    "name": "E4",
                    "ticks": 187920,
                    "time": 174.194272,
                    "velocity": 0.5354330708661418
                },
                {
                    "duration": 0.21018497500000421,
                    "durationTicks": 227,
                    "midi": 65,
                    "name": "F4",
                    "ticks": 188160,
                    "time": 174.416494,
                    "velocity": 0.7086614173228346
                },
                {
                    "duration": 0.21018497500000421,
                    "durationTicks": 227,
                    "midi": 69,
                    "name": "A4",
                    "ticks": 188160,
                    "time": 174.416494,
                    "velocity": 0.7086614173228346
                },
                {
                    "duration": 0.21018497500000421,
                    "durationTicks": 227,
                    "midi": 76,
                    "name": "E5",
                    "ticks": 188160,
                    "time": 174.416494,
                    "velocity": 0.7086614173228346
                },
                {
                    "duration": 0.1046295250000071,
                    "durationTicks": 113,
                    "midi": 89,
                    "name": "F6",
                    "ticks": 188160,
                    "time": 174.416494,
                    "velocity": 0.6141732283464567
                },
                {
                    "duration": 0.1046295250000071,
                    "durationTicks": 113,
                    "midi": 60,
                    "name": "C4",
                    "ticks": 188160,
                    "time": 174.416494,
                    "velocity": 0.6141732283464567
                },
                {
                    "duration": 0.1046295250000071,
                    "durationTicks": 113,
                    "midi": 65,
                    "name": "F4",
                    "ticks": 188280,
                    "time": 174.527605,
                    "velocity": 0.6614173228346457
                },
                {
                    "duration": 0.11018507500000396,
                    "durationTicks": 119,
                    "midi": 74,
                    "name": "D5",
                    "ticks": 188400,
                    "time": 174.638716,
                    "velocity": 0.5984251968503937
                },
                {
                    "duration": 0.1046295250000071,
                    "durationTicks": 113,
                    "midi": 65,
                    "name": "F4",
                    "ticks": 188400,
                    "time": 174.638716,
                    "velocity": 0.6141732283464567
                },
                {
                    "duration": 0.10462952499997868,
                    "durationTicks": 113,
                    "midi": 65,
                    "name": "F4",
                    "ticks": 188520,
                    "time": 174.749827,
                    "velocity": 0.5984251968503937
                },
                {
                    "duration": 0.21574052499997265,
                    "durationTicks": 233,
                    "midi": 69,
                    "name": "A4",
                    "ticks": 188520,
                    "time": 174.749827,
                    "velocity": 0.5984251968503937
                },
                {
                    "duration": 0.3157404250000013,
                    "durationTicks": 341,
                    "midi": 74,
                    "name": "D5",
                    "ticks": 188520,
                    "time": 174.749827,
                    "velocity": 0.5984251968503937
                },
                {
                    "duration": 0.3157404250000013,
                    "durationTicks": 341,
                    "midi": 65,
                    "name": "F4",
                    "ticks": 188520,
                    "time": 174.749827,
                    "velocity": 0.6062992125984252
                },
                {
                    "duration": 0.11018507499997554,
                    "durationTicks": 119,
                    "midi": 60,
                    "name": "C4",
                    "ticks": 188640,
                    "time": 174.860938,
                    "velocity": 0.7086614173228346
                },
                {
                    "duration": 0.20462942500000736,
                    "durationTicks": 221,
                    "midi": 69,
                    "name": "A4",
                    "ticks": 188640,
                    "time": 174.860938,
                    "velocity": 0.7086614173228346
                },
                {
                    "duration": 0.1046295250000071,
                    "durationTicks": 113,
                    "midi": 65,
                    "name": "F4",
                    "ticks": 188760,
                    "time": 174.972049,
                    "velocity": 0.5039370078740157
                },
                {
                    "duration": 0.21018497500000421,
                    "durationTicks": 227,
                    "midi": 74,
                    "name": "D5",
                    "ticks": 188880,
                    "time": 175.08316,
                    "velocity": 0.5748031496062992
                },
                {
                    "duration": 0.1046295250000071,
                    "durationTicks": 113,
                    "midi": 65,
                    "name": "F4",
                    "ticks": 188880,
                    "time": 175.08316,
                    "velocity": 0.5748031496062992
                },
                {
                    "duration": 0.10462952499997868,
                    "durationTicks": 113,
                    "midi": 65,
                    "name": "F4",
                    "ticks": 189000,
                    "time": 175.19427100000001,
                    "velocity": 0.5905511811023622
                },
                {
                    "duration": 0.21018497500000421,
                    "durationTicks": 227,
                    "midi": 65,
                    "name": "F4",
                    "ticks": 189120,
                    "time": 175.305382,
                    "velocity": 0.6141732283464567
                },
                {
                    "duration": 0.21018497500000421,
                    "durationTicks": 227,
                    "midi": 69,
                    "name": "A4",
                    "ticks": 189120,
                    "time": 175.305382,
                    "velocity": 0.6141732283464567
                },
                {
                    "duration": 0.21018497500000421,
                    "durationTicks": 227,
                    "midi": 74,
                    "name": "D5",
                    "ticks": 189120,
                    "time": 175.305382,
                    "velocity": 0.6141732283464567
                },
                {
                    "duration": 0.10462952499997868,
                    "durationTicks": 113,
                    "midi": 89,
                    "name": "F6",
                    "ticks": 189120,
                    "time": 175.305382,
                    "velocity": 0.6141732283464567
                },
                {
                    "duration": 0.10462952499997868,
                    "durationTicks": 113,
                    "midi": 60,
                    "name": "C4",
                    "ticks": 189120,
                    "time": 175.305382,
                    "velocity": 0.6141732283464567
                },
                {
                    "duration": 0.10462952499997868,
                    "durationTicks": 113,
                    "midi": 65,
                    "name": "F4",
                    "ticks": 189240,
                    "time": 175.416493,
                    "velocity": 0.6850393700787402
                },
                {
                    "duration": 0.11018507500000396,
                    "durationTicks": 119,
                    "midi": 72,
                    "name": "C5",
                    "ticks": 189360,
                    "time": 175.527604,
                    "velocity": 0.5905511811023622
                },
                {
                    "duration": 0.1046295250000071,
                    "durationTicks": 113,
                    "midi": 65,
                    "name": "F4",
                    "ticks": 189360,
                    "time": 175.527604,
                    "velocity": 0.6377952755905512
                },
                {
                    "duration": 0.1046295250000071,
                    "durationTicks": 113,
                    "midi": 65,
                    "name": "F4",
                    "ticks": 189480,
                    "time": 175.638715,
                    "velocity": 0.5984251968503937
                },
                {
                    "duration": 0.21574052500000107,
                    "durationTicks": 233,
                    "midi": 69,
                    "name": "A4",
                    "ticks": 189480,
                    "time": 175.638715,
                    "velocity": 0.5984251968503937
                },
                {
                    "duration": 0.3157404250000013,
                    "durationTicks": 341,
                    "midi": 72,
                    "name": "C5",
                    "ticks": 189480,
                    "time": 175.638715,
                    "velocity": 0.5984251968503937
                },
                {
                    "duration": 0.3157404250000013,
                    "durationTicks": 341,
                    "midi": 65,
                    "name": "F4",
                    "ticks": 189480,
                    "time": 175.638715,
                    "velocity": 0.6220472440944882
                },
                {
                    "duration": 0.11018507499997554,
                    "durationTicks": 119,
                    "midi": 60,
                    "name": "C4",
                    "ticks": 189600,
                    "time": 175.749826,
                    "velocity": 0.7401574803149606
                },
                {
                    "duration": 0.20462942499997894,
                    "durationTicks": 221,
                    "midi": 69,
                    "name": "A4",
                    "ticks": 189600,
                    "time": 175.749826,
                    "velocity": 0.7401574803149606
                },
                {
                    "duration": 0.10462952499997868,
                    "durationTicks": 113,
                    "midi": 65,
                    "name": "F4",
                    "ticks": 189720,
                    "time": 175.860937,
                    "velocity": 0.4881889763779528
                },
                {
                    "duration": 0.21018497500000421,
                    "durationTicks": 227,
                    "midi": 72,
                    "name": "C5",
                    "ticks": 189840,
                    "time": 175.972048,
                    "velocity": 0.6062992125984252
                },
                {
                    "duration": 0.1046295250000071,
                    "durationTicks": 113,
                    "midi": 65,
                    "name": "F4",
                    "ticks": 189840,
                    "time": 175.972048,
                    "velocity": 0.5905511811023622
                },
                {
                    "duration": 0.1046295250000071,
                    "durationTicks": 113,
                    "midi": 65,
                    "name": "F4",
                    "ticks": 189960,
                    "time": 176.083159,
                    "velocity": 0.5669291338582677
                },
                {
                    "duration": 0.1046295250000071,
                    "durationTicks": 113,
                    "midi": 62,
                    "name": "D4",
                    "ticks": 190080,
                    "time": 176.19427,
                    "velocity": 0.5748031496062992
                },
                {
                    "duration": 0.21574052500000107,
                    "durationTicks": 233,
                    "midi": 67,
                    "name": "G4",
                    "ticks": 190080,
                    "time": 176.19427,
                    "velocity": 0.5748031496062992
                },
                {
                    "duration": 0.42129587500002685,
                    "durationTicks": 455,
                    "midi": 71,
                    "name": "B4",
                    "ticks": 190080,
                    "time": 176.19427,
                    "velocity": 0.5748031496062992
                },
                {
                    "duration": 0.1046295250000071,
                    "durationTicks": 113,
                    "midi": 91,
                    "name": "G6",
                    "ticks": 190080,
                    "time": 176.19427,
                    "velocity": 0.5669291338582677
                },
                {
                    "duration": 0.42129587500002685,
                    "durationTicks": 455,
                    "midi": 62,
                    "name": "D4",
                    "ticks": 190080,
                    "time": 176.19427,
                    "velocity": 0.5669291338582677
                },
                {
                    "duration": 0.21574052499997265,
                    "durationTicks": 233,
                    "midi": 67,
                    "name": "G4",
                    "ticks": 190200,
                    "time": 176.305381,
                    "velocity": 0.6771653543307087
                },
                {
                    "duration": 0.1990738750000105,
                    "durationTicks": 215,
                    "midi": 67,
                    "name": "G4",
                    "ticks": 190320,
                    "time": 176.416492,
                    "velocity": 0.5748031496062992
                },
                {
                    "duration": 0.3157404250000013,
                    "durationTicks": 341,
                    "midi": 72,
                    "name": "C5",
                    "ticks": 190440,
                    "time": 176.527603,
                    "velocity": 0.6141732283464567
                },
                {
                    "duration": 0.1046295250000071,
                    "durationTicks": 113,
                    "midi": 67,
                    "name": "G4",
                    "ticks": 190440,
                    "time": 176.527603,
                    "velocity": 0.5826771653543307
                },
                {
                    "duration": 0.22129607499999793,
                    "durationTicks": 239,
                    "midi": 62,
                    "name": "D4",
                    "ticks": 190560,
                    "time": 176.638714,
                    "velocity": 0.7086614173228346
                },
                {
                    "duration": 0.1046295250000071,
                    "durationTicks": 113,
                    "midi": 71,
                    "name": "B4",
                    "ticks": 190560,
                    "time": 176.638714,
                    "velocity": 0.7086614173228346
                },
                {
                    "duration": 0.10462952499997868,
                    "durationTicks": 113,
                    "midi": 67,
                    "name": "G4",
                    "ticks": 190680,
                    "time": 176.74982500000002,
                    "velocity": 0.4881889763779528
                },
                {
                    "duration": 0.42129587499999843,
                    "durationTicks": 455,
                    "midi": 62,
                    "name": "D4",
                    "ticks": 190800,
                    "time": 176.860936,
                    "velocity": 0.5511811023622047
                },
                {
                    "duration": 0.10462952499997868,
                    "durationTicks": 113,
                    "midi": 67,
                    "name": "G4",
                    "ticks": 190800,
                    "time": 176.860936,
                    "velocity": 0.5511811023622047
                },
                {
                    "duration": 0.42129587499999843,
                    "durationTicks": 455,
                    "midi": 71,
                    "name": "B4",
                    "ticks": 190800,
                    "time": 176.860936,
                    "velocity": 0.5511811023622047
                },
                {
                    "duration": 0.21574052499997265,
                    "durationTicks": 233,
                    "midi": 67,
                    "name": "G4",
                    "ticks": 190800,
                    "time": 176.860936,
                    "velocity": 0.5826771653543307
                },
                {
                    "duration": 0.31018487500000447,
                    "durationTicks": 335,
                    "midi": 67,
                    "name": "G4",
                    "ticks": 190920,
                    "time": 176.972047,
                    "velocity": 0.5748031496062992
                },
                {
                    "duration": 0.22129607499999793,
                    "durationTicks": 239,
                    "midi": 86,
                    "name": "D6",
                    "ticks": 191040,
                    "time": 177.083158,
                    "velocity": 0.5275590551181102
                },
                {
                    "duration": 0.1046295250000071,
                    "durationTicks": 113,
                    "midi": 91,
                    "name": "G6",
                    "ticks": 191040,
                    "time": 177.083158,
                    "velocity": 0.5275590551181102
                },
                {
                    "duration": 0.1046295250000071,
                    "durationTicks": 113,
                    "midi": 67,
                    "name": "G4",
                    "ticks": 191160,
                    "time": 177.194269,
                    "velocity": 0.6299212598425197
                },
                {
                    "duration": 0.10462952499997868,
                    "durationTicks": 113,
                    "midi": 67,
                    "name": "G4",
                    "ticks": 191280,
                    "time": 177.30538,
                    "velocity": 0.5511811023622047
                },
                {
                    "duration": 0.21574052499997265,
                    "durationTicks": 233,
                    "midi": 67,
                    "name": "G4",
                    "ticks": 191280,
                    "time": 177.30538,
                    "velocity": 0.6141732283464567
                },
                {
                    "duration": 0.2212960749999695,
                    "durationTicks": 239,
                    "midi": 67,
                    "name": "G4",
                    "ticks": 191400,
                    "time": 177.416491,
                    "velocity": 0.6141732283464567
                },
                {
                    "duration": 0.11018507499997554,
                    "durationTicks": 119,
                    "midi": 62,
                    "name": "D4",
                    "ticks": 191520,
                    "time": 177.527602,
                    "velocity": 0.7244094488188977
                },
                {
                    "duration": 0.1046295250000071,
                    "durationTicks": 113,
                    "midi": 71,
                    "name": "B4",
                    "ticks": 191520,
                    "time": 177.527602,
                    "velocity": 0.7244094488188977
                },
                {
                    "duration": 0.1046295250000071,
                    "durationTicks": 113,
                    "midi": 67,
                    "name": "G4",
                    "ticks": 191640,
                    "time": 177.638713,
                    "velocity": 0.5275590551181102
                },
                {
                    "duration": 0.21018497500000421,
                    "durationTicks": 227,
                    "midi": 64,
                    "name": "E4",
                    "ticks": 191760,
                    "time": 177.749824,
                    "velocity": 0.5275590551181102
                },
                {
                    "duration": 0.1046295250000071,
                    "durationTicks": 113,
                    "midi": 67,
                    "name": "G4",
                    "ticks": 191760,
                    "time": 177.749824,
                    "velocity": 0.5905511811023622
                },
                {
                    "duration": 0.10462952499997868,
                    "durationTicks": 113,
                    "midi": 67,
                    "name": "G4",
                    "ticks": 191880,
                    "time": 177.860935,
                    "velocity": 0.5826771653543307
                },
                {
                    "duration": 0.21018497500000421,
                    "durationTicks": 227,
                    "midi": 67,
                    "name": "G4",
                    "ticks": 192000,
                    "time": 177.972046,
                    "velocity": 0.7401574803149606
                },
                {
                    "duration": 0.21018497500000421,
                    "durationTicks": 227,
                    "midi": 72,
                    "name": "C5",
                    "ticks": 192000,
                    "time": 177.972046,
                    "velocity": 0.7401574803149606
                },
                {
                    "duration": 0.21018497500000421,
                    "durationTicks": 227,
                    "midi": 76,
                    "name": "E5",
                    "ticks": 192000,
                    "time": 177.972046,
                    "velocity": 0.7401574803149606
                },
                {
                    "duration": 0.10462952499997868,
                    "durationTicks": 113,
                    "midi": 93,
                    "name": "A6",
                    "ticks": 192000,
                    "time": 177.972046,
                    "velocity": 0.5354330708661418
                },
                {
                    "duration": 0.10462952499997868,
                    "durationTicks": 113,
                    "midi": 64,
                    "name": "E4",
                    "ticks": 192000,
                    "time": 177.972046,
                    "velocity": 0.5354330708661418
                },
                {
                    "duration": 0.1046295250000071,
                    "durationTicks": 113,
                    "midi": 69,
                    "name": "A4",
                    "ticks": 192120,
                    "time": 178.083157,
                    "velocity": 0.7007874015748031
                },
                {
                    "duration": 0.11018507500000396,
                    "durationTicks": 119,
                    "midi": 74,
                    "name": "D5",
                    "ticks": 192240,
                    "time": 178.194268,
                    "velocity": 0.5748031496062992
                },
                {
                    "duration": 0.1046295250000071,
                    "durationTicks": 113,
                    "midi": 69,
                    "name": "A4",
                    "ticks": 192240,
                    "time": 178.194268,
                    "velocity": 0.6377952755905512
                },
                {
                    "duration": 0.3157404250000013,
                    "durationTicks": 341,
                    "midi": 67,
                    "name": "G4",
                    "ticks": 192360,
                    "time": 178.30537900000002,
                    "velocity": 0.6141732283464567
                },
                {
                    "duration": 0.21574052499997265,
                    "durationTicks": 233,
                    "midi": 72,
                    "name": "C5",
                    "ticks": 192360,
                    "time": 178.30537900000002,
                    "velocity": 0.6141732283464567
                },
                {
                    "duration": 0.3157404250000013,
                    "durationTicks": 341,
                    "midi": 74,
                    "name": "D5",
                    "ticks": 192360,
                    "time": 178.30537900000002,
                    "velocity": 0.6141732283464567
                },
                {
                    "duration": 0.10462952499997868,
                    "durationTicks": 113,
                    "midi": 69,
                    "name": "A4",
                    "ticks": 192360,
                    "time": 178.30537900000002,
                    "velocity": 0.6220472440944882
                },
                {
                    "duration": 0.11018507499997554,
                    "durationTicks": 119,
                    "midi": 64,
                    "name": "E4",
                    "ticks": 192480,
                    "time": 178.41649,
                    "velocity": 0.7165354330708661
                },
                {
                    "duration": 0.20462942500000736,
                    "durationTicks": 221,
                    "midi": 72,
                    "name": "C5",
                    "ticks": 192480,
                    "time": 178.41649,
                    "velocity": 0.7165354330708661
                },
                {
                    "duration": 0.10462952499997868,
                    "durationTicks": 113,
                    "midi": 69,
                    "name": "A4",
                    "ticks": 192600,
                    "time": 178.527601,
                    "velocity": 0.49606299212598426
                },
                {
                    "duration": 0.21018497500000421,
                    "durationTicks": 227,
                    "midi": 74,
                    "name": "D5",
                    "ticks": 192720,
                    "time": 178.638712,
                    "velocity": 0.6062992125984252
                },
                {
                    "duration": 0.1046295250000071,
                    "durationTicks": 113,
                    "midi": 69,
                    "name": "A4",
                    "ticks": 192720,
                    "time": 178.638712,
                    "velocity": 0.6141732283464567
                },
                {
                    "duration": 0.1046295250000071,
                    "durationTicks": 113,
                    "midi": 69,
                    "name": "A4",
                    "ticks": 192840,
                    "time": 178.749823,
                    "velocity": 0.5984251968503937
                },
                {
                    "duration": 0.2101849749999758,
                    "durationTicks": 227,
                    "midi": 67,
                    "name": "G4",
                    "ticks": 192960,
                    "time": 178.86093400000001,
                    "velocity": 0.5984251968503937
                },
                {
                    "duration": 0.2101849749999758,
                    "durationTicks": 227,
                    "midi": 72,
                    "name": "C5",
                    "ticks": 192960,
                    "time": 178.86093400000001,
                    "velocity": 0.5984251968503937
                },
                {
                    "duration": 0.2101849749999758,
                    "durationTicks": 227,
                    "midi": 74,
                    "name": "D5",
                    "ticks": 192960,
                    "time": 178.86093400000001,
                    "velocity": 0.5984251968503937
                },
                {
                    "duration": 0.10462952499997868,
                    "durationTicks": 113,
                    "midi": 93,
                    "name": "A6",
                    "ticks": 192960,
                    "time": 178.86093400000001,
                    "velocity": 0.5118110236220472
                },
                {
                    "duration": 0.10462952499997868,
                    "durationTicks": 113,
                    "midi": 64,
                    "name": "E4",
                    "ticks": 192960,
                    "time": 178.86093400000001,
                    "velocity": 0.5118110236220472
                },
                {
                    "duration": 0.10462952499997868,
                    "durationTicks": 113,
                    "midi": 69,
                    "name": "A4",
                    "ticks": 193080,
                    "time": 178.972045,
                    "velocity": 0.6929133858267716
                },
                {
                    "duration": 0.11018507499997554,
                    "durationTicks": 119,
                    "midi": 72,
                    "name": "C5",
                    "ticks": 193200,
                    "time": 179.083156,
                    "velocity": 0.5354330708661418
                },
                {
                    "duration": 0.1046295250000071,
                    "durationTicks": 113,
                    "midi": 69,
                    "name": "A4",
                    "ticks": 193200,
                    "time": 179.083156,
                    "velocity": 0.5984251968503937
                },
                {
                    "duration": 0.3157404250000013,
                    "durationTicks": 341,
                    "midi": 67,
                    "name": "G4",
                    "ticks": 193320,
                    "time": 179.194267,
                    "velocity": 0.6299212598425197
                },
                {
                    "duration": 0.21574052500000107,
                    "durationTicks": 233,
                    "midi": 72,
                    "name": "C5",
                    "ticks": 193320,
                    "time": 179.194267,
                    "velocity": 0.6299212598425197
                },
                {
                    "duration": 0.1046295250000071,
                    "durationTicks": 113,
                    "midi": 69,
                    "name": "A4",
                    "ticks": 193320,
                    "time": 179.194267,
                    "velocity": 0.6377952755905512
                },
                {
                    "duration": 0.11018507500000396,
                    "durationTicks": 119,
                    "midi": 64,
                    "name": "E4",
                    "ticks": 193440,
                    "time": 179.305378,
                    "velocity": 0.6692913385826772
                },
                {
                    "duration": 0.20462942500000736,
                    "durationTicks": 221,
                    "midi": 72,
                    "name": "C5",
                    "ticks": 193440,
                    "time": 179.305378,
                    "velocity": 0.6692913385826772
                },
                {
                    "duration": 0.10462952499997868,
                    "durationTicks": 113,
                    "midi": 69,
                    "name": "A4",
                    "ticks": 193560,
                    "time": 179.416489,
                    "velocity": 0.5433070866141733
                },
                {
                    "duration": 0.21018497500000421,
                    "durationTicks": 227,
                    "midi": 72,
                    "name": "C5",
                    "ticks": 193680,
                    "time": 179.5276,
                    "velocity": 0.5984251968503937
                },
                {
                    "duration": 0.10462952499997868,
                    "durationTicks": 113,
                    "midi": 69,
                    "name": "A4",
                    "ticks": 193680,
                    "time": 179.5276,
                    "velocity": 0.5748031496062992
                },
                {
                    "duration": 0.1046295250000071,
                    "durationTicks": 113,
                    "midi": 69,
                    "name": "A4",
                    "ticks": 193800,
                    "time": 179.638711,
                    "velocity": 0.6220472440944882
                },
                {
                    "duration": 0.21574052500000107,
                    "durationTicks": 233,
                    "midi": 64,
                    "name": "E4",
                    "ticks": 193920,
                    "time": 179.749822,
                    "velocity": 0.5669291338582677
                },
                {
                    "duration": 0.42129587500002685,
                    "durationTicks": 455,
                    "midi": 67,
                    "name": "G4",
                    "ticks": 193920,
                    "time": 179.749822,
                    "velocity": 0.5669291338582677
                },
                {
                    "duration": 0.42129587500002685,
                    "durationTicks": 455,
                    "midi": 71,
                    "name": "B4",
                    "ticks": 193920,
                    "time": 179.749822,
                    "velocity": 0.5669291338582677
                },
                {
                    "duration": 0.1046295250000071,
                    "durationTicks": 113,
                    "midi": 88,
                    "name": "E6",
                    "ticks": 193920,
                    "time": 179.749822,
                    "velocity": 0.5354330708661418
                },
                {
                    "duration": 0.1046295250000071,
                    "durationTicks": 113,
                    "midi": 95,
                    "name": "B6",
                    "ticks": 193920,
                    "time": 179.749822,
                    "velocity": 0.5354330708661418
                },
                {
                    "duration": 0.21574052500000107,
                    "durationTicks": 233,
                    "midi": 64,
                    "name": "E4",
                    "ticks": 194040,
                    "time": 179.860933,
                    "velocity": 0.6377952755905512
                },
                {
                    "duration": 0.1990738750000105,
                    "durationTicks": 215,
                    "midi": 64,
                    "name": "E4",
                    "ticks": 194160,
                    "time": 179.972044,
                    "velocity": 0.6220472440944882
                },
                {
                    "duration": 0.3157404250000013,
                    "durationTicks": 341,
                    "midi": 72,
                    "name": "C5",
                    "ticks": 194280,
                    "time": 180.083155,
                    "velocity": 0.6692913385826772
                },
                {
                    "duration": 0.10462952499997868,
                    "durationTicks": 113,
                    "midi": 64,
                    "name": "E4",
                    "ticks": 194280,
                    "time": 180.083155,
                    "velocity": 0.5905511811023622
                },
                {
                    "duration": 0.22129607499999793,
                    "durationTicks": 239,
                    "midi": 95,
                    "name": "B6",
                    "ticks": 194400,
                    "time": 180.194266,
                    "velocity": 0.7244094488188977
                },
                {
                    "duration": 0.1046295250000071,
                    "durationTicks": 113,
                    "midi": 67,
                    "name": "G4",
                    "ticks": 194400,
                    "time": 180.194266,
                    "velocity": 0.7244094488188977
                },
                {
                    "duration": 0.1046295250000071,
                    "durationTicks": 113,
                    "midi": 64,
                    "name": "E4",
                    "ticks": 194520,
                    "time": 180.305377,
                    "velocity": 0.4881889763779528
                },
                {
                    "duration": 0.42129587499999843,
                    "durationTicks": 455,
                    "midi": 71,
                    "name": "B4",
                    "ticks": 194640,
                    "time": 180.41648800000002,
                    "velocity": 0.7401574803149606
                },
                {
                    "duration": 0.42129587499999843,
                    "durationTicks": 455,
                    "midi": 76,
                    "name": "E5",
                    "ticks": 194640,
                    "time": 180.41648800000002,
                    "velocity": 0.7401574803149606
                },
                {
                    "duration": 0.42129587499999843,
                    "durationTicks": 455,
                    "midi": 79,
                    "name": "G5",
                    "ticks": 194640,
                    "time": 180.41648800000002,
                    "velocity": 0.7401574803149606
                },
                {
                    "duration": 0.10462952499997868,
                    "durationTicks": 113,
                    "midi": 64,
                    "name": "E4",
                    "ticks": 194640,
                    "time": 180.41648800000002,
                    "velocity": 0.5590551181102362
                },
                {
                    "duration": 0.10462952499997868,
                    "durationTicks": 113,
                    "midi": 64,
                    "name": "E4",
                    "ticks": 194760,
                    "time": 180.527599,
                    "velocity": 0.5748031496062992
                },
                {
                    "duration": 0.22129607499999793,
                    "durationTicks": 239,
                    "midi": 83,
                    "name": "B5",
                    "ticks": 194880,
                    "time": 180.63871,
                    "velocity": 0.5748031496062992
                },
                {
                    "duration": 0.10462952499997868,
                    "durationTicks": 113,
                    "midi": 88,
                    "name": "E6",
                    "ticks": 194880,
                    "time": 180.63871,
                    "velocity": 0.5748031496062992
                },
                {
                    "duration": 0.1046295250000071,
                    "durationTicks": 113,
                    "midi": 64,
                    "name": "E4",
                    "ticks": 195000,
                    "time": 180.749821,
                    "velocity": 0.6929133858267716
                },
                {
                    "duration": 0.3324070749999919,
                    "durationTicks": 359,
                    "midi": 71,
                    "name": "B4",
                    "ticks": 195120,
                    "time": 180.860932,
                    "velocity": 0.48031496062992124
                },
                {
                    "duration": 0.1046295250000071,
                    "durationTicks": 113,
                    "midi": 64,
                    "name": "E4",
                    "ticks": 195120,
                    "time": 180.860932,
                    "velocity": 0.5905511811023622
                },
                {
                    "duration": 0.10462952499997868,
                    "durationTicks": 113,
                    "midi": 64,
                    "name": "E4",
                    "ticks": 195240,
                    "time": 180.972043,
                    "velocity": 0.5748031496062992
                },
                {
                    "duration": 0.11018507499997554,
                    "durationTicks": 119,
                    "midi": 95,
                    "name": "B6",
                    "ticks": 195360,
                    "time": 181.083154,
                    "velocity": 0.7086614173228346
                },
                {
                    "duration": 0.10462952499997868,
                    "durationTicks": 113,
                    "midi": 67,
                    "name": "G4",
                    "ticks": 195360,
                    "time": 181.083154,
                    "velocity": 0.7086614173228346
                },
                {
                    "duration": 0.1046295250000071,
                    "durationTicks": 113,
                    "midi": 64,
                    "name": "E4",
                    "ticks": 195480,
                    "time": 181.194265,
                    "velocity": 0.5118110236220472
                },
                {
                    "duration": 0.21018497500000421,
                    "durationTicks": 227,
                    "midi": 72,
                    "name": "C5",
                    "ticks": 195600,
                    "time": 181.305376,
                    "velocity": 0.5984251968503937
                },
                {
                    "duration": 0.1046295250000071,
                    "durationTicks": 113,
                    "midi": 64,
                    "name": "E4",
                    "ticks": 195600,
                    "time": 181.305376,
                    "velocity": 0.5590551181102362
                },
                {
                    "duration": 0.1046295250000071,
                    "durationTicks": 113,
                    "midi": 64,
                    "name": "E4",
                    "ticks": 195720,
                    "time": 181.416487,
                    "velocity": 0.5984251968503937
                },
                {
                    "duration": 0.42129587499999843,
                    "durationTicks": 455,
                    "midi": 72,
                    "name": "C5",
                    "ticks": 195840,
                    "time": 181.527598,
                    "velocity": 0.7165354330708661
                },
                {
                    "duration": 0.42129587499999843,
                    "durationTicks": 455,
                    "midi": 77,
                    "name": "F5",
                    "ticks": 195840,
                    "time": 181.527598,
                    "velocity": 0.7165354330708661
                },
                {
                    "duration": 0.42129587499999843,
                    "durationTicks": 455,
                    "midi": 81,
                    "name": "A5",
                    "ticks": 195840,
                    "time": 181.527598,
                    "velocity": 0.7165354330708661
                },
                {
                    "duration": 0.10462952499997868,
                    "durationTicks": 113,
                    "midi": 89,
                    "name": "F6",
                    "ticks": 195840,
                    "time": 181.527598,
                    "velocity": 0.5984251968503937
                },
                {
                    "duration": 0.10462952499997868,
                    "durationTicks": 113,
                    "midi": 60,
                    "name": "C4",
                    "ticks": 195840,
                    "time": 181.527598,
                    "velocity": 0.5984251968503937
                },
                {
                    "duration": 0.10462952499997868,
                    "durationTicks": 113,
                    "midi": 65,
                    "name": "F4",
                    "ticks": 195960,
                    "time": 181.638709,
                    "velocity": 0.6929133858267716
                },
                {
                    "duration": 0.1046295250000071,
                    "durationTicks": 113,
                    "midi": 65,
                    "name": "F4",
                    "ticks": 196080,
                    "time": 181.74982,
                    "velocity": 0.6299212598425197
                },
                {
                    "duration": 0.3157404250000013,
                    "durationTicks": 341,
                    "midi": 79,
                    "name": "G5",
                    "ticks": 196200,
                    "time": 181.860931,
                    "velocity": 0.5669291338582677
                },
                {
                    "duration": 0.1046295250000071,
                    "durationTicks": 113,
                    "midi": 65,
                    "name": "F4",
                    "ticks": 196200,
                    "time": 181.860931,
                    "velocity": 0.5748031496062992
                },
                {
                    "duration": 0.2212960749999695,
                    "durationTicks": 239,
                    "midi": 60,
                    "name": "C4",
                    "ticks": 196320,
                    "time": 181.97204200000002,
                    "velocity": 0.7244094488188977
                },
                {
                    "duration": 0.10462952499997868,
                    "durationTicks": 113,
                    "midi": 69,
                    "name": "A4",
                    "ticks": 196320,
                    "time": 181.97204200000002,
                    "velocity": 0.7244094488188977
                },
                {
                    "duration": 0.10462952499997868,
                    "durationTicks": 113,
                    "midi": 65,
                    "name": "F4",
                    "ticks": 196440,
                    "time": 182.083153,
                    "velocity": 0.5275590551181102
                },
                {
                    "duration": 0.42129587499999843,
                    "durationTicks": 455,
                    "midi": 72,
                    "name": "C5",
                    "ticks": 196560,
                    "time": 182.194264,
                    "velocity": 0.5275590551181102
                },
                {
                    "duration": 0.42129587499999843,
                    "durationTicks": 455,
                    "midi": 76,
                    "name": "E5",
                    "ticks": 196560,
                    "time": 182.194264,
                    "velocity": 0.5275590551181102
                },
                {
                    "duration": 0.10462952499997868,
                    "durationTicks": 113,
                    "midi": 65,
                    "name": "F4",
                    "ticks": 196560,
                    "time": 182.194264,
                    "velocity": 0.5905511811023622
                },
                {
                    "duration": 0.1046295250000071,
                    "durationTicks": 113,
                    "midi": 65,
                    "name": "F4",
                    "ticks": 196680,
                    "time": 182.305375,
                    "velocity": 0.5669291338582677
                },
                {
                    "duration": 0.22129607499999793,
                    "durationTicks": 239,
                    "midi": 84,
                    "name": "C6",
                    "ticks": 196800,
                    "time": 182.416486,
                    "velocity": 0.5275590551181102
                },
                {
                    "duration": 0.1046295250000071,
                    "durationTicks": 113,
                    "midi": 89,
                    "name": "F6",
                    "ticks": 196800,
                    "time": 182.416486,
                    "velocity": 0.5275590551181102
                },
                {
                    "duration": 0.10462952499997868,
                    "durationTicks": 113,
                    "midi": 65,
                    "name": "F4",
                    "ticks": 196920,
                    "time": 182.52759700000001,
                    "velocity": 0.6850393700787402
                },
                {
                    "duration": 0.32685152499999504,
                    "durationTicks": 353,
                    "midi": 69,
                    "name": "A4",
                    "ticks": 197040,
                    "time": 182.638708,
                    "velocity": 0.5354330708661418
                },
                {
                    "duration": 0.3324070749999919,
                    "durationTicks": 359,
                    "midi": 72,
                    "name": "C5",
                    "ticks": 197040,
                    "time": 182.638708,
                    "velocity": 0.5354330708661418
                },
                {
                    "duration": 0.10462952499997868,
                    "durationTicks": 113,
                    "midi": 65,
                    "name": "F4",
                    "ticks": 197040,
                    "time": 182.638708,
                    "velocity": 0.6220472440944882
                },
                {
                    "duration": 0.1046295250000071,
                    "durationTicks": 113,
                    "midi": 65,
                    "name": "F4",
                    "ticks": 197160,
                    "time": 182.749819,
                    "velocity": 0.6062992125984252
                },
                {
                    "duration": 0.11018507500000396,
                    "durationTicks": 119,
                    "midi": 60,
                    "name": "C4",
                    "ticks": 197280,
                    "time": 182.86093,
                    "velocity": 0.7401574803149606
                },
                {
                    "duration": 0.11018507500000396,
                    "durationTicks": 119,
                    "midi": 69,
                    "name": "A4",
                    "ticks": 197280,
                    "time": 182.86093,
                    "velocity": 0.7401574803149606
                },
                {
                    "duration": 0.1046295250000071,
                    "durationTicks": 113,
                    "midi": 65,
                    "name": "F4",
                    "ticks": 197400,
                    "time": 182.972041,
                    "velocity": 0.49606299212598426
                },
                {
                    "duration": 0.2101849749999758,
                    "durationTicks": 227,
                    "midi": 72,
                    "name": "C5",
                    "ticks": 197520,
                    "time": 183.083152,
                    "velocity": 0.5511811023622047
                },
                {
                    "duration": 0.10462952499997868,
                    "durationTicks": 113,
                    "midi": 65,
                    "name": "F4",
                    "ticks": 197520,
                    "time": 183.083152,
                    "velocity": 0.6062992125984252
                },
                {
                    "duration": 0.10462952499997868,
                    "durationTicks": 113,
                    "midi": 65,
                    "name": "F4",
                    "ticks": 197640,
                    "time": 183.194263,
                    "velocity": 0.6062992125984252
                },
                {
                    "duration": 0.21574052500000107,
                    "durationTicks": 233,
                    "midi": 62,
                    "name": "D4",
                    "ticks": 197760,
                    "time": 183.305374,
                    "velocity": 0.6141732283464567
                },
                {
                    "duration": 0.32685152499999504,
                    "durationTicks": 353,
                    "midi": 67,
                    "name": "G4",
                    "ticks": 197760,
                    "time": 183.305374,
                    "velocity": 0.6141732283464567
                },
                {
                    "duration": 0.42129587499999843,
                    "durationTicks": 455,
                    "midi": 72,
                    "name": "C5",
                    "ticks": 197760,
                    "time": 183.305374,
                    "velocity": 0.6141732283464567
                },
                {
                    "duration": 0.1046295250000071,
                    "durationTicks": 113,
                    "midi": 91,
                    "name": "G6",
                    "ticks": 197760,
                    "time": 183.305374,
                    "velocity": 0.5590551181102362
                },
                {
                    "duration": 0.31018487500000447,
                    "durationTicks": 335,
                    "midi": 62,
                    "name": "D4",
                    "ticks": 197880,
                    "time": 183.416485,
                    "velocity": 0.7007874015748031
                },
                {
                    "duration": 0.1990738750000105,
                    "durationTicks": 215,
                    "midi": 67,
                    "name": "G4",
                    "ticks": 198000,
                    "time": 183.527596,
                    "velocity": 0.6850393700787402
                },
                {
                    "duration": 0.10462952499997868,
                    "durationTicks": 113,
                    "midi": 69,
                    "name": "A4",
                    "ticks": 198120,
                    "time": 183.638707,
                    "velocity": 0.6377952755905512
                },
                {
                    "duration": 0.10462952499997868,
                    "durationTicks": 113,
                    "midi": 71,
                    "name": "B4",
                    "ticks": 198240,
                    "time": 183.749818,
                    "velocity": 0.5748031496062992
                },
                {
                    "duration": 0.21018497500000421,
                    "durationTicks": 227,
                    "midi": 71,
                    "name": "B4",
                    "ticks": 198240,
                    "time": 183.749818,
                    "velocity": 0.6062992125984252
                },
                {
                    "duration": 0.1046295250000071,
                    "durationTicks": 113,
                    "midi": 74,
                    "name": "D5",
                    "ticks": 198360,
                    "time": 183.860929,
                    "velocity": 0.6692913385826772
                },
                {
                    "duration": 0.42129587500002685,
                    "durationTicks": 455,
                    "midi": 69,
                    "name": "A4",
                    "ticks": 198480,
                    "time": 183.97204,
                    "velocity": 0.5590551181102362
                },
                {
                    "duration": 0.1046295250000071,
                    "durationTicks": 113,
                    "midi": 79,
                    "name": "G5",
                    "ticks": 198480,
                    "time": 183.97204,
                    "velocity": 0.7322834645669292
                },
                {
                    "duration": 0.10462952499997868,
                    "durationTicks": 113,
                    "midi": 74,
                    "name": "D5",
                    "ticks": 198600,
                    "time": 184.08315100000002,
                    "velocity": 0.5669291338582677
                },
                {
                    "duration": 0.10462952499997868,
                    "durationTicks": 113,
                    "midi": 71,
                    "name": "B4",
                    "ticks": 198720,
                    "time": 184.194262,
                    "velocity": 0.5275590551181102
                },
                {
                    "duration": 0.10462952499997868,
                    "durationTicks": 113,
                    "midi": 69,
                    "name": "A4",
                    "ticks": 198840,
                    "time": 184.305373,
                    "velocity": 0.5748031496062992
                },
                {
                    "duration": 0.42129587500002685,
                    "durationTicks": 455,
                    "midi": 71,
                    "name": "B4",
                    "ticks": 198960,
                    "time": 184.416484,
                    "velocity": 0.6220472440944882
                },
                {
                    "duration": 0.1046295250000071,
                    "durationTicks": 113,
                    "midi": 67,
                    "name": "G4",
                    "ticks": 198960,
                    "time": 184.416484,
                    "velocity": 0.5590551181102362
                },
                {
                    "duration": 0.1046295250000071,
                    "durationTicks": 113,
                    "midi": 62,
                    "name": "D4",
                    "ticks": 199080,
                    "time": 184.527595,
                    "velocity": 0.5118110236220472
                },
                {
                    "duration": 1.054628574999981,
                    "durationTicks": 1139,
                    "midi": 64,
                    "name": "E4",
                    "ticks": 199440,
                    "time": 184.860928,
                    "velocity": 0.6299212598425197
                },
                {
                    "duration": 1.8990721750000148,
                    "durationTicks": 2051,
                    "midi": 69,
                    "name": "A4",
                    "ticks": 199440,
                    "time": 184.860928,
                    "velocity": 0.6299212598425197
                },
                {
                    "duration": 0.5555549999999982,
                    "durationTicks": 600,
                    "midi": 72,
                    "name": "C5",
                    "ticks": 199440,
                    "time": 184.860928,
                    "velocity": 0.6299212598425197
                },
                {
                    "duration": 1.8990721750000148,
                    "durationTicks": 2051,
                    "midi": 72,
                    "name": "C5",
                    "ticks": 199440,
                    "time": 184.860928,
                    "velocity": 0.6299212598425197
                },
                {
                    "duration": 0.3157404250000013,
                    "durationTicks": 341,
                    "midi": 60,
                    "name": "C4",
                    "ticks": 200040,
                    "time": 185.416483,
                    "velocity": 0.6692913385826772
                },
                {
                    "duration": 0.5268513249999671,
                    "durationTicks": 569,
                    "midi": 60,
                    "name": "C4",
                    "ticks": 200400,
                    "time": 185.749816,
                    "velocity": 0.6692913385826772
                },
                {
                    "duration": 0.8435176750000153,
                    "durationTicks": 911,
                    "midi": 64,
                    "name": "E4",
                    "ticks": 200640,
                    "time": 185.972038,
                    "velocity": 0.84251968503937
                },
                {
                    "duration": 0.6490734250000116,
                    "durationTicks": 701,
                    "midi": 60,
                    "name": "C4",
                    "ticks": 200640,
                    "time": 185.972038,
                    "velocity": 0.6456692913385826
                },
                {
                    "duration": 0.510184675000005,
                    "durationTicks": 551,
                    "midi": 60,
                    "name": "C4",
                    "ticks": 201000,
                    "time": 186.305371,
                    "velocity": 0.6692913385826772
                },
                {
                    "duration": 0.21018497500000421,
                    "durationTicks": 227,
                    "midi": 60,
                    "name": "C4",
                    "ticks": 201360,
                    "time": 186.638704,
                    "velocity": 0.6614173228346457
                },
                {
                    "duration": 0.10462952499997868,
                    "durationTicks": 113,
                    "midi": 62,
                    "name": "D4",
                    "ticks": 201600,
                    "time": 186.860926,
                    "velocity": 0.5196850393700787
                },
                {
                    "duration": 0.1046295250000071,
                    "durationTicks": 113,
                    "midi": 60,
                    "name": "C4",
                    "ticks": 201960,
                    "time": 187.194259,
                    "velocity": 0.7165354330708661
                },
                {
                    "duration": 0.1046295250000071,
                    "durationTicks": 113,
                    "midi": 60,
                    "name": "C4",
                    "ticks": 202320,
                    "time": 187.527592,
                    "velocity": 0.7007874015748031
                },
                {
                    "duration": 0.11018507499997554,
                    "durationTicks": 119,
                    "midi": 62,
                    "name": "D4",
                    "ticks": 202560,
                    "time": 187.74981400000001,
                    "velocity": 0.8031496062992126
                },
                {
                    "duration": 0.11111099999999396,
                    "durationTicks": 120,
                    "midi": 62,
                    "name": "D4",
                    "ticks": 202560,
                    "time": 187.74981400000001,
                    "velocity": 0.7007874015748031
                },
                {
                    "duration": 0.1046295250000071,
                    "durationTicks": 113,
                    "midi": 60,
                    "name": "C4",
                    "ticks": 202920,
                    "time": 188.083147,
                    "velocity": 0.7007874015748031
                },
                {
                    "duration": 0.21018497500000421,
                    "durationTicks": 227,
                    "midi": 72,
                    "name": "C5",
                    "ticks": 203280,
                    "time": 188.41648,
                    "velocity": 0.5669291338582677
                },
                {
                    "duration": 0.21018497500000421,
                    "durationTicks": 227,
                    "midi": 72,
                    "name": "C5",
                    "ticks": 203280,
                    "time": 188.41648,
                    "velocity": 0.6692913385826772
                },
                {
                    "duration": 0.3157404250000013,
                    "durationTicks": 341,
                    "midi": 74,
                    "name": "D5",
                    "ticks": 203520,
                    "time": 188.638702,
                    "velocity": 0.8031496062992126
                },
                {
                    "duration": 0.1046295250000071,
                    "durationTicks": 113,
                    "midi": 67,
                    "name": "G4",
                    "ticks": 203640,
                    "time": 188.749813,
                    "velocity": 0.4881889763779528
                },
                {
                    "duration": 0.11018507499997554,
                    "durationTicks": 119,
                    "midi": 64,
                    "name": "E4",
                    "ticks": 203760,
                    "time": 188.860924,
                    "velocity": 0.5196850393700787
                },
                {
                    "duration": 0.3157404250000013,
                    "durationTicks": 341,
                    "midi": 72,
                    "name": "C5",
                    "ticks": 203880,
                    "time": 188.972035,
                    "velocity": 0.5826771653543307
                },
                {
                    "duration": 0.1046295250000071,
                    "durationTicks": 113,
                    "midi": 67,
                    "name": "G4",
                    "ticks": 204000,
                    "time": 189.083146,
                    "velocity": 0.5275590551181102
                },
                {
                    "duration": 0.11018507500000396,
                    "durationTicks": 119,
                    "midi": 64,
                    "name": "E4",
                    "ticks": 204120,
                    "time": 189.194257,
                    "velocity": 0.5196850393700787
                },
                {
                    "duration": 0.42129587499999843,
                    "durationTicks": 455,
                    "midi": 74,
                    "name": "D5",
                    "ticks": 204240,
                    "time": 189.30536800000002,
                    "velocity": 0.6377952755905512
                },
                {
                    "duration": 0.10462952499997868,
                    "durationTicks": 113,
                    "midi": 67,
                    "name": "G4",
                    "ticks": 204360,
                    "time": 189.416479,
                    "velocity": 0.5590551181102362
                },
                {
                    "duration": 0.10462952499997868,
                    "durationTicks": 113,
                    "midi": 64,
                    "name": "E4",
                    "ticks": 204480,
                    "time": 189.52759,
                    "velocity": 0.5275590551181102
                },
                {
                    "duration": 0.8435176750000153,
                    "durationTicks": 911,
                    "midi": 60,
                    "name": "C4",
                    "ticks": 204480,
                    "time": 189.52759,
                    "velocity": 0.7401574803149606
                },
                {
                    "duration": 0.549073524999983,
                    "durationTicks": 593,
                    "midi": 64,
                    "name": "E4",
                    "ticks": 204480,
                    "time": 189.52759,
                    "velocity": 0.7401574803149606
                },
                {
                    "duration": 0.11018507500000396,
                    "durationTicks": 119,
                    "midi": 67,
                    "name": "G4",
                    "ticks": 204600,
                    "time": 189.638701,
                    "velocity": 0.6299212598425197
                },
                {
                    "duration": 0.42129587500002685,
                    "durationTicks": 455,
                    "midi": 72,
                    "name": "C5",
                    "ticks": 204720,
                    "time": 189.749812,
                    "velocity": 0.5826771653543307
                },
                {
                    "duration": 0.10462952499997868,
                    "durationTicks": 113,
                    "midi": 67,
                    "name": "G4",
                    "ticks": 204840,
                    "time": 189.860923,
                    "velocity": 0.5039370078740157
                },
                {
                    "duration": 0.399073675000011,
                    "durationTicks": 431,
                    "midi": 64,
                    "name": "E4",
                    "ticks": 204960,
                    "time": 189.972034,
                    "velocity": 0.5433070866141733
                },
                {
                    "duration": 0.11018507499997554,
                    "durationTicks": 119,
                    "midi": 67,
                    "name": "G4",
                    "ticks": 205080,
                    "time": 190.083145,
                    "velocity": 0.6456692913385826
                },
                {
                    "duration": 0.42129587500002685,
                    "durationTicks": 455,
                    "midi": 74,
                    "name": "D5",
                    "ticks": 205200,
                    "time": 190.194256,
                    "velocity": 0.6377952755905512
                },
                {
                    "duration": 0.1046295250000071,
                    "durationTicks": 113,
                    "midi": 67,
                    "name": "G4",
                    "ticks": 205320,
                    "time": 190.305367,
                    "velocity": 0.5511811023622047
                },
                {
                    "duration": 0.10462952499997868,
                    "durationTicks": 113,
                    "midi": 64,
                    "name": "E4",
                    "ticks": 205440,
                    "time": 190.416478,
                    "velocity": 0.5275590551181102
                },
                {
                    "duration": 0.11018507499997554,
                    "durationTicks": 119,
                    "midi": 67,
                    "name": "G4",
                    "ticks": 205560,
                    "time": 190.527589,
                    "velocity": 0.6377952755905512
                },
                {
                    "duration": 1.2657394750000037,
                    "durationTicks": 1367,
                    "midi": 76,
                    "name": "E5",
                    "ticks": 205680,
                    "time": 190.6387,
                    "velocity": 0.6456692913385826
                },
                {
                    "duration": 0.1046295250000071,
                    "durationTicks": 113,
                    "midi": 67,
                    "name": "G4",
                    "ticks": 205800,
                    "time": 190.749811,
                    "velocity": 0.4251968503937008
                },
                {
                    "duration": 0.10462952499997868,
                    "durationTicks": 113,
                    "midi": 64,
                    "name": "E4",
                    "ticks": 205920,
                    "time": 190.86092200000002,
                    "velocity": 0.49606299212598426
                },
                {
                    "duration": 0.10462952499997868,
                    "durationTicks": 113,
                    "midi": 67,
                    "name": "G4",
                    "ticks": 206040,
                    "time": 190.972033,
                    "velocity": 0.6220472440944882
                },
                {
                    "duration": 0.10462952499997868,
                    "durationTicks": 113,
                    "midi": 64,
                    "name": "E4",
                    "ticks": 206160,
                    "time": 191.083144,
                    "velocity": 0.5826771653543307
                },
                {
                    "duration": 0.1046295250000071,
                    "durationTicks": 113,
                    "midi": 67,
                    "name": "G4",
                    "ticks": 206280,
                    "time": 191.194255,
                    "velocity": 0.6377952755905512
                },
                {
                    "duration": 0.1046295250000071,
                    "durationTicks": 113,
                    "midi": 64,
                    "name": "E4",
                    "ticks": 206400,
                    "time": 191.305366,
                    "velocity": 0.5826771653543307
                },
                {
                    "duration": 0.32685152499999504,
                    "durationTicks": 353,
                    "midi": 64,
                    "name": "E4",
                    "ticks": 206400,
                    "time": 191.305366,
                    "velocity": 0.7716535433070866
                },
                {
                    "duration": 0.10462952499997868,
                    "durationTicks": 113,
                    "midi": 67,
                    "name": "G4",
                    "ticks": 206520,
                    "time": 191.41647700000001,
                    "velocity": 0.6377952755905512
                },
                {
                    "duration": 0.32685152499999504,
                    "durationTicks": 353,
                    "midi": 64,
                    "name": "E4",
                    "ticks": 206640,
                    "time": 191.527588,
                    "velocity": 0.5354330708661418
                },
                {
                    "duration": 0.1046295250000071,
                    "durationTicks": 113,
                    "midi": 67,
                    "name": "G4",
                    "ticks": 206760,
                    "time": 191.638699,
                    "velocity": 0.6456692913385826
                },
                {
                    "duration": 0.399073675000011,
                    "durationTicks": 431,
                    "midi": 64,
                    "name": "E4",
                    "ticks": 206880,
                    "time": 191.74981,
                    "velocity": 0.5354330708661418
                },
                {
                    "duration": 0.1046295250000071,
                    "durationTicks": 113,
                    "midi": 67,
                    "name": "G4",
                    "ticks": 207000,
                    "time": 191.860921,
                    "velocity": 0.6377952755905512
                },
                {
                    "duration": 0.2101849749999758,
                    "durationTicks": 227,
                    "midi": 72,
                    "name": "C5",
                    "ticks": 207120,
                    "time": 191.972032,
                    "velocity": 0.5354330708661418
                },
                {
                    "duration": 0.3157404250000013,
                    "durationTicks": 341,
                    "midi": 72,
                    "name": "C5",
                    "ticks": 207360,
                    "time": 192.194254,
                    "velocity": 0.7244094488188977
                },
                {
                    "duration": 0.3157404250000013,
                    "durationTicks": 341,
                    "midi": 76,
                    "name": "E5",
                    "ticks": 207360,
                    "time": 192.194254,
                    "velocity": 0.7244094488188977
                },
                {
                    "duration": 0.21574052500000107,
                    "durationTicks": 233,
                    "midi": 81,
                    "name": "A5",
                    "ticks": 207360,
                    "time": 192.194254,
                    "velocity": 0.7244094488188977
                },
                {
                    "duration": 0.20462942500000736,
                    "durationTicks": 221,
                    "midi": 81,
                    "name": "A5",
                    "ticks": 207480,
                    "time": 192.305365,
                    "velocity": 0.5433070866141733
                },
                {
                    "duration": 0.21018497500000421,
                    "durationTicks": 227,
                    "midi": 81,
                    "name": "A5",
                    "ticks": 207600,
                    "time": 192.416476,
                    "velocity": 0.5984251968503937
                },
                {
                    "duration": 0.3157404250000013,
                    "durationTicks": 341,
                    "midi": 72,
                    "name": "C5",
                    "ticks": 207720,
                    "time": 192.527587,
                    "velocity": 0.6062992125984252
                },
                {
                    "duration": 0.3157404250000013,
                    "durationTicks": 341,
                    "midi": 76,
                    "name": "E5",
                    "ticks": 207720,
                    "time": 192.527587,
                    "velocity": 0.6062992125984252
                },
                {
                    "duration": 0.21574052499997265,
                    "durationTicks": 233,
                    "midi": 79,
                    "name": "G5",
                    "ticks": 207720,
                    "time": 192.527587,
                    "velocity": 0.6062992125984252
                },
                {
                    "duration": 0.20462942500000736,
                    "durationTicks": 221,
                    "midi": 79,
                    "name": "G5",
                    "ticks": 207840,
                    "time": 192.638698,
                    "velocity": 0.5433070866141733
                },
                {
                    "duration": 0.11111099999999396,
                    "durationTicks": 120,
                    "midi": 79,
                    "name": "G5",
                    "ticks": 207960,
                    "time": 192.749809,
                    "velocity": 0.5905511811023622
                },
                {
                    "duration": 0.42129587500002685,
                    "durationTicks": 455,
                    "midi": 67,
                    "name": "G4",
                    "ticks": 208080,
                    "time": 192.86092,
                    "velocity": 0.5354330708661418
                },
                {
                    "duration": 0.42129587500002685,
                    "durationTicks": 455,
                    "midi": 72,
                    "name": "C5",
                    "ticks": 208080,
                    "time": 192.86092,
                    "velocity": 0.5354330708661418
                },
                {
                    "duration": 0.42129587500002685,
                    "durationTicks": 455,
                    "midi": 76,
                    "name": "E5",
                    "ticks": 208080,
                    "time": 192.86092,
                    "velocity": 0.5354330708661418
                },
                {
                    "duration": 0.10462952499997868,
                    "durationTicks": 113,
                    "midi": 64,
                    "name": "E4",
                    "ticks": 208200,
                    "time": 192.97203100000002,
                    "velocity": 0.5275590551181102
                },
                {
                    "duration": 0.10462952499997868,
                    "durationTicks": 113,
                    "midi": 64,
                    "name": "E4",
                    "ticks": 208320,
                    "time": 193.083142,
                    "velocity": 0.5826771653543307
                },
                {
                    "duration": 0.21018497500000421,
                    "durationTicks": 227,
                    "midi": 60,
                    "name": "C4",
                    "ticks": 208320,
                    "time": 193.083142,
                    "velocity": 0.7559055118110236
                },
                {
                    "duration": 0.21018497500000421,
                    "durationTicks": 227,
                    "midi": 65,
                    "name": "F4",
                    "ticks": 208320,
                    "time": 193.083142,
                    "velocity": 0.7559055118110236
                },
                {
                    "duration": 0.21018497500000421,
                    "durationTicks": 227,
                    "midi": 69,
                    "name": "A4",
                    "ticks": 208320,
                    "time": 193.083142,
                    "velocity": 0.7559055118110236
                },
                {
                    "duration": 0.11018507499997554,
                    "durationTicks": 119,
                    "midi": 64,
                    "name": "E4",
                    "ticks": 208440,
                    "time": 193.194253,
                    "velocity": 0.6535433070866141
                },
                {
                    "duration": 0.3324070749999919,
                    "durationTicks": 359,
                    "midi": 64,
                    "name": "E4",
                    "ticks": 208560,
                    "time": 193.305364,
                    "velocity": 0.5433070866141733
                },
                {
                    "duration": 0.3324070749999919,
                    "durationTicks": 359,
                    "midi": 67,
                    "name": "G4",
                    "ticks": 208560,
                    "time": 193.305364,
                    "velocity": 0.5433070866141733
                },
                {
                    "duration": 0.3324070749999919,
                    "durationTicks": 359,
                    "midi": 72,
                    "name": "C5",
                    "ticks": 208560,
                    "time": 193.305364,
                    "velocity": 0.5433070866141733
                },
                {
                    "duration": 0.1046295250000071,
                    "durationTicks": 113,
                    "midi": 65,
                    "name": "F4",
                    "ticks": 208560,
                    "time": 193.305364,
                    "velocity": 0.5590551181102362
                },
                {
                    "duration": 0.1046295250000071,
                    "durationTicks": 113,
                    "midi": 60,
                    "name": "C4",
                    "ticks": 208680,
                    "time": 193.416475,
                    "velocity": 0.5354330708661418
                },
                {
                    "duration": 0.1046295250000071,
                    "durationTicks": 113,
                    "midi": 60,
                    "name": "C4",
                    "ticks": 208680,
                    "time": 193.416475,
                    "velocity": 0.5669291338582677
                },
                {
                    "duration": 0.10462952499997868,
                    "durationTicks": 113,
                    "midi": 60,
                    "name": "C4",
                    "ticks": 208800,
                    "time": 193.527586,
                    "velocity": 0.5826771653543307
                },
                {
                    "duration": 0.10462952499997868,
                    "durationTicks": 113,
                    "midi": 60,
                    "name": "C4",
                    "ticks": 208920,
                    "time": 193.638697,
                    "velocity": 0.5826771653543307
                },
                {
                    "duration": 0.21018497500000421,
                    "durationTicks": 227,
                    "midi": 64,
                    "name": "E4",
                    "ticks": 209040,
                    "time": 193.749808,
                    "velocity": 0.5748031496062992
                },
                {
                    "duration": 0.21018497500000421,
                    "durationTicks": 227,
                    "midi": 67,
                    "name": "G4",
                    "ticks": 209040,
                    "time": 193.749808,
                    "velocity": 0.5748031496062992
                },
                {
                    "duration": 0.21018497500000421,
                    "durationTicks": 227,
                    "midi": 72,
                    "name": "C5",
                    "ticks": 209040,
                    "time": 193.749808,
                    "velocity": 0.5748031496062992
                },
                {
                    "duration": 0.31574042500002975,
                    "durationTicks": 341,
                    "midi": 72,
                    "name": "C5",
                    "ticks": 209280,
                    "time": 193.97203,
                    "velocity": 0.7480314960629921
                },
                {
                    "duration": 0.31574042500002975,
                    "durationTicks": 341,
                    "midi": 76,
                    "name": "E5",
                    "ticks": 209280,
                    "time": 193.97203,
                    "velocity": 0.7480314960629921
                },
                {
                    "duration": 0.21574052500000107,
                    "durationTicks": 233,
                    "midi": 81,
                    "name": "A5",
                    "ticks": 209280,
                    "time": 193.97203,
                    "velocity": 0.7480314960629921
                },
                {
                    "duration": 0.20462942500000736,
                    "durationTicks": 221,
                    "midi": 81,
                    "name": "A5",
                    "ticks": 209400,
                    "time": 194.083141,
                    "velocity": 0.5511811023622047
                },
                {
                    "duration": 0.21018497500000421,
                    "durationTicks": 227,
                    "midi": 81,
                    "name": "A5",
                    "ticks": 209520,
                    "time": 194.194252,
                    "velocity": 0.6062992125984252
                },
                {
                    "duration": 0.3157404250000013,
                    "durationTicks": 341,
                    "midi": 72,
                    "name": "C5",
                    "ticks": 209640,
                    "time": 194.305363,
                    "velocity": 0.5669291338582677
                },
                {
                    "duration": 0.3157404250000013,
                    "durationTicks": 341,
                    "midi": 76,
                    "name": "E5",
                    "ticks": 209640,
                    "time": 194.305363,
                    "velocity": 0.5669291338582677
                },
                {
                    "duration": 0.21574052500000107,
                    "durationTicks": 233,
                    "midi": 79,
                    "name": "G5",
                    "ticks": 209640,
                    "time": 194.305363,
                    "velocity": 0.5669291338582677
                },
                {
                    "duration": 0.20462942500000736,
                    "durationTicks": 221,
                    "midi": 79,
                    "name": "G5",
                    "ticks": 209760,
                    "time": 194.416474,
                    "velocity": 0.5433070866141733
                },
                {
                    "duration": 0.11111099999999396,
                    "durationTicks": 120,
                    "midi": 79,
                    "name": "G5",
                    "ticks": 209880,
                    "time": 194.52758500000002,
                    "velocity": 0.5748031496062992
                },
                {
                    "duration": 0.42129587499999843,
                    "durationTicks": 455,
                    "midi": 67,
                    "name": "G4",
                    "ticks": 210000,
                    "time": 194.638696,
                    "velocity": 0.5275590551181102
                },
                {
                    "duration": 0.42129587499999843,
                    "durationTicks": 455,
                    "midi": 72,
                    "name": "C5",
                    "ticks": 210000,
                    "time": 194.638696,
                    "velocity": 0.5275590551181102
                },
                {
                    "duration": 0.42129587499999843,
                    "durationTicks": 455,
                    "midi": 76,
                    "name": "E5",
                    "ticks": 210000,
                    "time": 194.638696,
                    "velocity": 0.5275590551181102
                },
                {
                    "duration": 0.10462952499997868,
                    "durationTicks": 113,
                    "midi": 64,
                    "name": "E4",
                    "ticks": 210120,
                    "time": 194.749807,
                    "velocity": 0.5275590551181102
                },
                {
                    "duration": 0.1046295250000071,
                    "durationTicks": 113,
                    "midi": 64,
                    "name": "E4",
                    "ticks": 210240,
                    "time": 194.860918,
                    "velocity": 0.5826771653543307
                },
                {
                    "duration": 0.21018497500000421,
                    "durationTicks": 227,
                    "midi": 62,
                    "name": "D4",
                    "ticks": 210240,
                    "time": 194.860918,
                    "velocity": 0.7716535433070866
                },
                {
                    "duration": 0.21018497500000421,
                    "durationTicks": 227,
                    "midi": 67,
                    "name": "G4",
                    "ticks": 210240,
                    "time": 194.860918,
                    "velocity": 0.7716535433070866
                },
                {
                    "duration": 0.21018497500000421,
                    "durationTicks": 227,
                    "midi": 71,
                    "name": "B4",
                    "ticks": 210240,
                    "time": 194.860918,
                    "velocity": 0.7716535433070866
                },
                {
                    "duration": 0.11018507500000396,
                    "durationTicks": 119,
                    "midi": 64,
                    "name": "E4",
                    "ticks": 210360,
                    "time": 194.972029,
                    "velocity": 0.6062992125984252
                },
                {
                    "duration": 0.33240707499996347,
                    "durationTicks": 359,
                    "midi": 64,
                    "name": "E4",
                    "ticks": 210480,
                    "time": 195.08314000000001,
                    "velocity": 0.5433070866141733
                },
                {
                    "duration": 0.10462952499997868,
                    "durationTicks": 113,
                    "midi": 67,
                    "name": "G4",
                    "ticks": 210480,
                    "time": 195.08314000000001,
                    "velocity": 0.5433070866141733
                },
                {
                    "duration": 0.33240707499996347,
                    "durationTicks": 359,
                    "midi": 72,
                    "name": "C5",
                    "ticks": 210480,
                    "time": 195.08314000000001,
                    "velocity": 0.5433070866141733
                },
                {
                    "duration": 0.33240707499996347,
                    "durationTicks": 359,
                    "midi": 67,
                    "name": "G4",
                    "ticks": 210480,
                    "time": 195.08314000000001,
                    "velocity": 0.5748031496062992
                },
                {
                    "duration": 0.10462952499997868,
                    "durationTicks": 113,
                    "midi": 60,
                    "name": "C4",
                    "ticks": 210600,
                    "time": 195.194251,
                    "velocity": 0.5275590551181102
                },
                {
                    "duration": 0.10462952499997868,
                    "durationTicks": 113,
                    "midi": 62,
                    "name": "D4",
                    "ticks": 210600,
                    "time": 195.194251,
                    "velocity": 0.5118110236220472
                },
                {
                    "duration": 0.1046295250000071,
                    "durationTicks": 113,
                    "midi": 60,
                    "name": "C4",
                    "ticks": 210720,
                    "time": 195.305362,
                    "velocity": 0.5590551181102362
                },
                {
                    "duration": 0.1046295250000071,
                    "durationTicks": 113,
                    "midi": 60,
                    "name": "C4",
                    "ticks": 210840,
                    "time": 195.416473,
                    "velocity": 0.5984251968503937
                },
                {
                    "duration": 0.21018497500000421,
                    "durationTicks": 227,
                    "midi": 64,
                    "name": "E4",
                    "ticks": 210960,
                    "time": 195.527584,
                    "velocity": 0.6062992125984252
                },
                {
                    "duration": 0.21018497500000421,
                    "durationTicks": 227,
                    "midi": 67,
                    "name": "G4",
                    "ticks": 210960,
                    "time": 195.527584,
                    "velocity": 0.6062992125984252
                },
                {
                    "duration": 0.21018497500000421,
                    "durationTicks": 227,
                    "midi": 72,
                    "name": "C5",
                    "ticks": 210960,
                    "time": 195.527584,
                    "velocity": 0.6062992125984252
                },
                {
                    "duration": 0.3157404250000013,
                    "durationTicks": 341,
                    "midi": 72,
                    "name": "C5",
                    "ticks": 211200,
                    "time": 195.749806,
                    "velocity": 0.7480314960629921
                },
                {
                    "duration": 0.3157404250000013,
                    "durationTicks": 341,
                    "midi": 76,
                    "name": "E5",
                    "ticks": 211200,
                    "time": 195.749806,
                    "velocity": 0.7480314960629921
                },
                {
                    "duration": 0.21574052500000107,
                    "durationTicks": 233,
                    "midi": 81,
                    "name": "A5",
                    "ticks": 211200,
                    "time": 195.749806,
                    "velocity": 0.7480314960629921
                },
                {
                    "duration": 0.20462942500000736,
                    "durationTicks": 221,
                    "midi": 81,
                    "name": "A5",
                    "ticks": 211320,
                    "time": 195.860917,
                    "velocity": 0.5433070866141733
                },
                {
                    "duration": 0.21018497500000421,
                    "durationTicks": 227,
                    "midi": 81,
                    "name": "A5",
                    "ticks": 211440,
                    "time": 195.972028,
                    "velocity": 0.6062992125984252
                },
                {
                    "duration": 0.31574042500002975,
                    "durationTicks": 341,
                    "midi": 72,
                    "name": "C5",
                    "ticks": 211560,
                    "time": 196.083139,
                    "velocity": 0.5826771653543307
                },
                {
                    "duration": 0.31574042500002975,
                    "durationTicks": 341,
                    "midi": 76,
                    "name": "E5",
                    "ticks": 211560,
                    "time": 196.083139,
                    "velocity": 0.5826771653543307
                },
                {
                    "duration": 0.21574052500000107,
                    "durationTicks": 233,
                    "midi": 79,
                    "name": "G5",
                    "ticks": 211560,
                    "time": 196.083139,
                    "velocity": 0.5826771653543307
                },
                {
                    "duration": 0.20462942500000736,
                    "durationTicks": 221,
                    "midi": 79,
                    "name": "G5",
                    "ticks": 211680,
                    "time": 196.19425,
                    "velocity": 0.5511811023622047
                },
                {
                    "duration": 0.11111099999999396,
                    "durationTicks": 120,
                    "midi": 79,
                    "name": "G5",
                    "ticks": 211800,
                    "time": 196.305361,
                    "velocity": 0.5984251968503937
                },
                {
                    "duration": 0.42129587499999843,
                    "durationTicks": 455,
                    "midi": 67,
                    "name": "G4",
                    "ticks": 211920,
                    "time": 196.416472,
                    "velocity": 0.5196850393700787
                },
                {
                    "duration": 0.42129587499999843,
                    "durationTicks": 455,
                    "midi": 72,
                    "name": "C5",
                    "ticks": 211920,
                    "time": 196.416472,
                    "velocity": 0.5196850393700787
                },
                {
                    "duration": 0.42129587499999843,
                    "durationTicks": 455,
                    "midi": 76,
                    "name": "E5",
                    "ticks": 211920,
                    "time": 196.416472,
                    "velocity": 0.5196850393700787
                },
                {
                    "duration": 0.1046295250000071,
                    "durationTicks": 113,
                    "midi": 64,
                    "name": "E4",
                    "ticks": 212040,
                    "time": 196.527583,
                    "velocity": 0.5669291338582677
                },
                {
                    "duration": 0.10462952499997868,
                    "durationTicks": 113,
                    "midi": 64,
                    "name": "E4",
                    "ticks": 212160,
                    "time": 196.63869400000002,
                    "velocity": 0.5826771653543307
                },
                {
                    "duration": 0.2101849749999758,
                    "durationTicks": 227,
                    "midi": 64,
                    "name": "E4",
                    "ticks": 212160,
                    "time": 196.63869400000002,
                    "velocity": 0.7716535433070866
                },
                {
                    "duration": 0.2101849749999758,
                    "durationTicks": 227,
                    "midi": 69,
                    "name": "A4",
                    "ticks": 212160,
                    "time": 196.63869400000002,
                    "velocity": 0.7716535433070866
                },
                {
                    "duration": 0.2101849749999758,
                    "durationTicks": 227,
                    "midi": 72,
                    "name": "C5",
                    "ticks": 212160,
                    "time": 196.63869400000002,
                    "velocity": 0.7716535433070866
                },
                {
                    "duration": 0.11018507499997554,
                    "durationTicks": 119,
                    "midi": 64,
                    "name": "E4",
                    "ticks": 212280,
                    "time": 196.749805,
                    "velocity": 0.6062992125984252
                },
                {
                    "duration": 0.21574052500000107,
                    "durationTicks": 233,
                    "midi": 64,
                    "name": "E4",
                    "ticks": 212400,
                    "time": 196.860916,
                    "velocity": 0.5118110236220472
                },
                {
                    "duration": 0.3324070749999919,
                    "durationTicks": 359,
                    "midi": 67,
                    "name": "G4",
                    "ticks": 212400,
                    "time": 196.860916,
                    "velocity": 0.5118110236220472
                },
                {
                    "duration": 0.3324070749999919,
                    "durationTicks": 359,
                    "midi": 72,
                    "name": "C5",
                    "ticks": 212400,
                    "time": 196.860916,
                    "velocity": 0.5118110236220472
                },
                {
                    "duration": 0.10462952499997868,
                    "durationTicks": 113,
                    "midi": 69,
                    "name": "A4",
                    "ticks": 212400,
                    "time": 196.860916,
                    "velocity": 0.5826771653543307
                },
                {
                    "duration": 0.1046295250000071,
                    "durationTicks": 113,
                    "midi": 60,
                    "name": "C4",
                    "ticks": 212520,
                    "time": 196.972027,
                    "velocity": 0.5275590551181102
                },
                {
                    "duration": 0.22129607499999793,
                    "durationTicks": 239,
                    "midi": 64,
                    "name": "E4",
                    "ticks": 212520,
                    "time": 196.972027,
                    "velocity": 0.5354330708661418
                },
                {
                    "duration": 0.1046295250000071,
                    "durationTicks": 113,
                    "midi": 60,
                    "name": "C4",
                    "ticks": 212640,
                    "time": 197.083138,
                    "velocity": 0.5905511811023622
                },
                {
                    "duration": 0.21018497500000421,
                    "durationTicks": 227,
                    "midi": 60,
                    "name": "C4",
                    "ticks": 212640,
                    "time": 197.083138,
                    "velocity": 0.5433070866141733
                },
                {
                    "duration": 0.10462952499997868,
                    "durationTicks": 113,
                    "midi": 60,
                    "name": "C4",
                    "ticks": 212760,
                    "time": 197.194249,
                    "velocity": 0.6062992125984252
                },
                {
                    "duration": 0.21018497500000421,
                    "durationTicks": 227,
                    "midi": 64,
                    "name": "E4",
                    "ticks": 212880,
                    "time": 197.30536,
                    "velocity": 0.6220472440944882
                },
                {
                    "duration": 0.21018497500000421,
                    "durationTicks": 227,
                    "midi": 67,
                    "name": "G4",
                    "ticks": 212880,
                    "time": 197.30536,
                    "velocity": 0.6220472440944882
                },
                {
                    "duration": 0.21018497500000421,
                    "durationTicks": 227,
                    "midi": 72,
                    "name": "C5",
                    "ticks": 212880,
                    "time": 197.30536,
                    "velocity": 0.6220472440944882
                },
                {
                    "duration": 0.3157404250000013,
                    "durationTicks": 341,
                    "midi": 72,
                    "name": "C5",
                    "ticks": 213120,
                    "time": 197.527582,
                    "velocity": 0.7401574803149606
                },
                {
                    "duration": 0.3157404250000013,
                    "durationTicks": 341,
                    "midi": 76,
                    "name": "E5",
                    "ticks": 213120,
                    "time": 197.527582,
                    "velocity": 0.7401574803149606
                },
                {
                    "duration": 0.21574052500000107,
                    "durationTicks": 233,
                    "midi": 81,
                    "name": "A5",
                    "ticks": 213120,
                    "time": 197.527582,
                    "velocity": 0.7401574803149606
                },
                {
                    "duration": 0.20462942500000736,
                    "durationTicks": 221,
                    "midi": 81,
                    "name": "A5",
                    "ticks": 213240,
                    "time": 197.638693,
                    "velocity": 0.5511811023622047
                },
                {
                    "duration": 0.2101849749999758,
                    "durationTicks": 227,
                    "midi": 81,
                    "name": "A5",
                    "ticks": 213360,
                    "time": 197.749804,
                    "velocity": 0.5905511811023622
                },
                {
                    "duration": 0.3157404250000013,
                    "durationTicks": 341,
                    "midi": 72,
                    "name": "C5",
                    "ticks": 213480,
                    "time": 197.860915,
                    "velocity": 0.5669291338582677
                },
                {
                    "duration": 0.3157404250000013,
                    "durationTicks": 341,
                    "midi": 76,
                    "name": "E5",
                    "ticks": 213480,
                    "time": 197.860915,
                    "velocity": 0.5669291338582677
                },
                {
                    "duration": 0.21574052500000107,
                    "durationTicks": 233,
                    "midi": 79,
                    "name": "G5",
                    "ticks": 213480,
                    "time": 197.860915,
                    "velocity": 0.5669291338582677
                },
                {
                    "duration": 0.20462942500000736,
                    "durationTicks": 221,
                    "midi": 79,
                    "name": "G5",
                    "ticks": 213600,
                    "time": 197.972026,
                    "velocity": 0.5354330708661418
                },
                {
                    "duration": 0.11111100000002239,
                    "durationTicks": 120,
                    "midi": 79,
                    "name": "G5",
                    "ticks": 213720,
                    "time": 198.083137,
                    "velocity": 0.5354330708661418
                },
                {
                    "duration": 0.42129587499999843,
                    "durationTicks": 455,
                    "midi": 67,
                    "name": "G4",
                    "ticks": 213840,
                    "time": 198.19424800000002,
                    "velocity": 0.5590551181102362
                },
                {
                    "duration": 0.42129587499999843,
                    "durationTicks": 455,
                    "midi": 72,
                    "name": "C5",
                    "ticks": 213840,
                    "time": 198.19424800000002,
                    "velocity": 0.5590551181102362
                },
                {
                    "duration": 0.42129587499999843,
                    "durationTicks": 455,
                    "midi": 76,
                    "name": "E5",
                    "ticks": 213840,
                    "time": 198.19424800000002,
                    "velocity": 0.5590551181102362
                },
                {
                    "duration": 0.10462952499997868,
                    "durationTicks": 113,
                    "midi": 64,
                    "name": "E4",
                    "ticks": 213960,
                    "time": 198.305359,
                    "velocity": 0.5196850393700787
                },
                {
                    "duration": 0.10462952499997868,
                    "durationTicks": 113,
                    "midi": 64,
                    "name": "E4",
                    "ticks": 214080,
                    "time": 198.41647,
                    "velocity": 0.6535433070866141
                },
                {
                    "duration": 0.21018497500000421,
                    "durationTicks": 227,
                    "midi": 64,
                    "name": "E4",
                    "ticks": 214080,
                    "time": 198.41647,
                    "velocity": 0.7637795275590551
                },
                {
                    "duration": 0.1046295250000071,
                    "durationTicks": 113,
                    "midi": 64,
                    "name": "E4",
                    "ticks": 214200,
                    "time": 198.527581,
                    "velocity": 0.6220472440944882
                },
                {
                    "duration": 0.1046295250000071,
                    "durationTicks": 113,
                    "midi": 64,
                    "name": "E4",
                    "ticks": 214320,
                    "time": 198.638692,
                    "velocity": 0.5118110236220472
                },
                {
                    "duration": 0.42129587500002685,
                    "durationTicks": 455,
                    "midi": 67,
                    "name": "G4",
                    "ticks": 214320,
                    "time": 198.638692,
                    "velocity": 0.5118110236220472
                },
                {
                    "duration": 0.42129587500002685,
                    "durationTicks": 455,
                    "midi": 72,
                    "name": "C5",
                    "ticks": 214320,
                    "time": 198.638692,
                    "velocity": 0.5118110236220472
                },
                {
                    "duration": 0.42129587500002685,
                    "durationTicks": 455,
                    "midi": 64,
                    "name": "E4",
                    "ticks": 214320,
                    "time": 198.638692,
                    "velocity": 0.6062992125984252
                },
                {
                    "duration": 0.21018497500000421,
                    "durationTicks": 227,
                    "midi": 64,
                    "name": "E4",
                    "ticks": 214800,
                    "time": 199.083136,
                    "velocity": 0.4881889763779528
                },
                {
                    "duration": 0.3157404250000013,
                    "durationTicks": 341,
                    "midi": 64,
                    "name": "E4",
                    "ticks": 215040,
                    "time": 199.305358,
                    "velocity": 0.6929133858267716
                },
                {
                    "duration": 0.3157404250000013,
                    "durationTicks": 341,
                    "midi": 69,
                    "name": "A4",
                    "ticks": 215040,
                    "time": 199.305358,
                    "velocity": 0.6929133858267716
                },
                {
                    "duration": 0.3157404250000013,
                    "durationTicks": 341,
                    "midi": 72,
                    "name": "C5",
                    "ticks": 215040,
                    "time": 199.305358,
                    "velocity": 0.6929133858267716
                },
                {
                    "duration": 0.3157404250000013,
                    "durationTicks": 341,
                    "midi": 76,
                    "name": "E5",
                    "ticks": 215040,
                    "time": 199.305358,
                    "velocity": 0.6929133858267716
                },
                {
                    "duration": 0.21018497500000421,
                    "durationTicks": 227,
                    "midi": 60,
                    "name": "C4",
                    "ticks": 215280,
                    "time": 199.52758,
                    "velocity": 0.5669291338582677
                },
                {
                    "duration": 0.21018497500000421,
                    "durationTicks": 227,
                    "midi": 65,
                    "name": "F4",
                    "ticks": 215280,
                    "time": 199.52758,
                    "velocity": 0.5669291338582677
                },
                {
                    "duration": 0.3157404250000013,
                    "durationTicks": 341,
                    "midi": 74,
                    "name": "D5",
                    "ticks": 215400,
                    "time": 199.638691,
                    "velocity": 0.5590551181102362
                },
                {
                    "duration": 0.3157404250000013,
                    "durationTicks": 341,
                    "midi": 74,
                    "name": "D5",
                    "ticks": 215400,
                    "time": 199.638691,
                    "velocity": 0.5590551181102362
                },
                {
                    "duration": 0.3157404250000013,
                    "durationTicks": 341,
                    "midi": 77,
                    "name": "F5",
                    "ticks": 215400,
                    "time": 199.638691,
                    "velocity": 0.5590551181102362
                },
                {
                    "duration": 0.3157404250000013,
                    "durationTicks": 341,
                    "midi": 81,
                    "name": "A5",
                    "ticks": 215400,
                    "time": 199.638691,
                    "velocity": 0.5590551181102362
                },
                {
                    "duration": 0.21018497500000421,
                    "durationTicks": 227,
                    "midi": 62,
                    "name": "D4",
                    "ticks": 215760,
                    "time": 199.972024,
                    "velocity": 0.5748031496062992
                },
                {
                    "duration": 0.21018497500000421,
                    "durationTicks": 227,
                    "midi": 65,
                    "name": "F4",
                    "ticks": 215760,
                    "time": 199.972024,
                    "velocity": 0.5748031496062992
                },
                {
                    "duration": 0.21018497500000421,
                    "durationTicks": 227,
                    "midi": 69,
                    "name": "A4",
                    "ticks": 215760,
                    "time": 199.972024,
                    "velocity": 0.5748031496062992
                },
                {
                    "duration": 0.21018497500000421,
                    "durationTicks": 227,
                    "midi": 74,
                    "name": "D5",
                    "ticks": 215760,
                    "time": 199.972024,
                    "velocity": 0.5748031496062992
                },
                {
                    "duration": 0.21018497500000421,
                    "durationTicks": 227,
                    "midi": 60,
                    "name": "C4",
                    "ticks": 215760,
                    "time": 199.972024,
                    "velocity": 0.7716535433070866
                },
                {
                    "duration": 0.21018497500000421,
                    "durationTicks": 227,
                    "midi": 65,
                    "name": "F4",
                    "ticks": 215760,
                    "time": 199.972024,
                    "velocity": 0.7716535433070866
                },
                {
                    "duration": 0.21018497500000421,
                    "durationTicks": 227,
                    "midi": 69,
                    "name": "A4",
                    "ticks": 215760,
                    "time": 199.972024,
                    "velocity": 0.7716535433070866
                },
                {
                    "duration": 0.3157404250000013,
                    "durationTicks": 341,
                    "midi": 62,
                    "name": "D4",
                    "ticks": 216000,
                    "time": 200.194246,
                    "velocity": 0.5905511811023622
                },
                {
                    "duration": 0.3157404250000013,
                    "durationTicks": 341,
                    "midi": 65,
                    "name": "F4",
                    "ticks": 216000,
                    "time": 200.194246,
                    "velocity": 0.5905511811023622
                },
                {
                    "duration": 0.3157404250000013,
                    "durationTicks": 341,
                    "midi": 69,
                    "name": "A4",
                    "ticks": 216000,
                    "time": 200.194246,
                    "velocity": 0.5905511811023622
                },
                {
                    "duration": 0.3157404250000013,
                    "durationTicks": 341,
                    "midi": 74,
                    "name": "D5",
                    "ticks": 216000,
                    "time": 200.194246,
                    "velocity": 0.5905511811023622
                },
                {
                    "duration": 0.3157404250000013,
                    "durationTicks": 341,
                    "midi": 60,
                    "name": "C4",
                    "ticks": 216360,
                    "time": 200.527579,
                    "velocity": 0.5433070866141733
                },
                {
                    "duration": 0.3157404250000013,
                    "durationTicks": 341,
                    "midi": 65,
                    "name": "F4",
                    "ticks": 216360,
                    "time": 200.527579,
                    "velocity": 0.5433070866141733
                },
                {
                    "duration": 0.3157404250000013,
                    "durationTicks": 341,
                    "midi": 69,
                    "name": "A4",
                    "ticks": 216360,
                    "time": 200.527579,
                    "velocity": 0.5433070866141733
                },
                {
                    "duration": 0.3157404250000013,
                    "durationTicks": 341,
                    "midi": 72,
                    "name": "C5",
                    "ticks": 216360,
                    "time": 200.527579,
                    "velocity": 0.5433070866141733
                },
                {
                    "duration": 0.2101849749999758,
                    "durationTicks": 227,
                    "midi": 65,
                    "name": "F4",
                    "ticks": 216720,
                    "time": 200.860912,
                    "velocity": 0.6220472440944882
                },
                {
                    "duration": 0.2101849749999758,
                    "durationTicks": 227,
                    "midi": 69,
                    "name": "A4",
                    "ticks": 216720,
                    "time": 200.860912,
                    "velocity": 0.6220472440944882
                },
                {
                    "duration": 0.2101849749999758,
                    "durationTicks": 227,
                    "midi": 72,
                    "name": "C5",
                    "ticks": 216720,
                    "time": 200.860912,
                    "velocity": 0.6220472440944882
                },
                {
                    "duration": 0.2101849749999758,
                    "durationTicks": 227,
                    "midi": 60,
                    "name": "C4",
                    "ticks": 216720,
                    "time": 200.860912,
                    "velocity": 0.7716535433070866
                },
                {
                    "duration": 0.2101849749999758,
                    "durationTicks": 227,
                    "midi": 65,
                    "name": "F4",
                    "ticks": 216720,
                    "time": 200.860912,
                    "velocity": 0.7716535433070866
                },
                {
                    "duration": 0.2101849749999758,
                    "durationTicks": 227,
                    "midi": 69,
                    "name": "A4",
                    "ticks": 216720,
                    "time": 200.860912,
                    "velocity": 0.7716535433070866
                },
                {
                    "duration": 0.2101849749999758,
                    "durationTicks": 227,
                    "midi": 72,
                    "name": "C5",
                    "ticks": 216720,
                    "time": 200.860912,
                    "velocity": 0.6220472440944882
                },
                {
                    "duration": 0.3157404250000013,
                    "durationTicks": 341,
                    "midi": 62,
                    "name": "D4",
                    "ticks": 216960,
                    "time": 201.083134,
                    "velocity": 0.5905511811023622
                },
                {
                    "duration": 0.3157404250000013,
                    "durationTicks": 341,
                    "midi": 67,
                    "name": "G4",
                    "ticks": 216960,
                    "time": 201.083134,
                    "velocity": 0.5905511811023622
                },
                {
                    "duration": 0.3157404250000013,
                    "durationTicks": 341,
                    "midi": 71,
                    "name": "B4",
                    "ticks": 216960,
                    "time": 201.083134,
                    "velocity": 0.5905511811023622
                },
                {
                    "duration": 0.21018497500000421,
                    "durationTicks": 227,
                    "midi": 62,
                    "name": "D4",
                    "ticks": 217200,
                    "time": 201.305356,
                    "velocity": 0.5433070866141733
                },
                {
                    "duration": 0.3157404250000013,
                    "durationTicks": 341,
                    "midi": 72,
                    "name": "C5",
                    "ticks": 217320,
                    "time": 201.416467,
                    "velocity": 0.6220472440944882
                },
                {
                    "duration": 0.3157404250000013,
                    "durationTicks": 341,
                    "midi": 72,
                    "name": "C5",
                    "ticks": 217320,
                    "time": 201.416467,
                    "velocity": 0.6220472440944882
                },
                {
                    "duration": 0.21018497500000421,
                    "durationTicks": 227,
                    "midi": 62,
                    "name": "D4",
                    "ticks": 217680,
                    "time": 201.7498,
                    "velocity": 0.5590551181102362
                },
                {
                    "duration": 0.21018497500000421,
                    "durationTicks": 227,
                    "midi": 67,
                    "name": "G4",
                    "ticks": 217680,
                    "time": 201.7498,
                    "velocity": 0.5590551181102362
                },
                {
                    "duration": 0.42129587500002685,
                    "durationTicks": 455,
                    "midi": 71,
                    "name": "B4",
                    "ticks": 217680,
                    "time": 201.7498,
                    "velocity": 0.5590551181102362
                },
                {
                    "duration": 0.42129587500002685,
                    "durationTicks": 455,
                    "midi": 62,
                    "name": "D4",
                    "ticks": 217680,
                    "time": 201.7498,
                    "velocity": 0.7401574803149606
                },
                {
                    "duration": 0.42129587500002685,
                    "durationTicks": 455,
                    "midi": 67,
                    "name": "G4",
                    "ticks": 217680,
                    "time": 201.7498,
                    "velocity": 0.7401574803149606
                },
                {
                    "duration": 0.21018497500000421,
                    "durationTicks": 227,
                    "midi": 62,
                    "name": "D4",
                    "ticks": 218160,
                    "time": 202.194244,
                    "velocity": 0.5275590551181102
                },
                {
                    "duration": 0.21018497500000421,
                    "durationTicks": 227,
                    "midi": 67,
                    "name": "G4",
                    "ticks": 218160,
                    "time": 202.194244,
                    "velocity": 0.5275590551181102
                },
                {
                    "duration": 0.3324070749999919,
                    "durationTicks": 359,
                    "midi": 62,
                    "name": "D4",
                    "ticks": 218160,
                    "time": 202.194244,
                    "velocity": 0.7480314960629921
                },
                {
                    "duration": 0.3324070749999919,
                    "durationTicks": 359,
                    "midi": 67,
                    "name": "G4",
                    "ticks": 218160,
                    "time": 202.194244,
                    "velocity": 0.7480314960629921
                },
                {
                    "duration": 0.21018497500000421,
                    "durationTicks": 227,
                    "midi": 64,
                    "name": "E4",
                    "ticks": 218640,
                    "time": 202.638688,
                    "velocity": 0.5039370078740157
                },
                {
                    "duration": 0.21018497500000421,
                    "durationTicks": 227,
                    "midi": 62,
                    "name": "D4",
                    "ticks": 218640,
                    "time": 202.638688,
                    "velocity": 0.7480314960629921
                },
                {
                    "duration": 0.21018497500000421,
                    "durationTicks": 227,
                    "midi": 67,
                    "name": "G4",
                    "ticks": 218640,
                    "time": 202.638688,
                    "velocity": 0.7480314960629921
                },
                {
                    "duration": 0.31574042500002975,
                    "durationTicks": 341,
                    "midi": 64,
                    "name": "E4",
                    "ticks": 218880,
                    "time": 202.86091,
                    "velocity": 0.7795275590551181
                },
                {
                    "duration": 0.31574042500002975,
                    "durationTicks": 341,
                    "midi": 69,
                    "name": "A4",
                    "ticks": 218880,
                    "time": 202.86091,
                    "velocity": 0.7795275590551181
                },
                {
                    "duration": 0.31574042500002975,
                    "durationTicks": 341,
                    "midi": 72,
                    "name": "C5",
                    "ticks": 218880,
                    "time": 202.86091,
                    "velocity": 0.7795275590551181
                },
                {
                    "duration": 0.31574042500002975,
                    "durationTicks": 341,
                    "midi": 76,
                    "name": "E5",
                    "ticks": 218880,
                    "time": 202.86091,
                    "velocity": 0.7795275590551181
                },
                {
                    "duration": 0.21018497500000421,
                    "durationTicks": 227,
                    "midi": 60,
                    "name": "C4",
                    "ticks": 219120,
                    "time": 203.083132,
                    "velocity": 0.5433070866141733
                },
                {
                    "duration": 0.21018497500000421,
                    "durationTicks": 227,
                    "midi": 64,
                    "name": "E4",
                    "ticks": 219120,
                    "time": 203.083132,
                    "velocity": 0.5433070866141733
                },
                {
                    "duration": 0.3157404250000013,
                    "durationTicks": 341,
                    "midi": 74,
                    "name": "D5",
                    "ticks": 219240,
                    "time": 203.194243,
                    "velocity": 0.6062992125984252
                },
                {
                    "duration": 0.3157404250000013,
                    "durationTicks": 341,
                    "midi": 74,
                    "name": "D5",
                    "ticks": 219240,
                    "time": 203.194243,
                    "velocity": 0.6062992125984252
                },
                {
                    "duration": 0.3157404250000013,
                    "durationTicks": 341,
                    "midi": 79,
                    "name": "G5",
                    "ticks": 219240,
                    "time": 203.194243,
                    "velocity": 0.6062992125984252
                },
                {
                    "duration": 0.3157404250000013,
                    "durationTicks": 341,
                    "midi": 83,
                    "name": "B5",
                    "ticks": 219240,
                    "time": 203.194243,
                    "velocity": 0.6062992125984252
                },
                {
                    "duration": 0.21018497500000421,
                    "durationTicks": 227,
                    "midi": 62,
                    "name": "D4",
                    "ticks": 219600,
                    "time": 203.527576,
                    "velocity": 0.5826771653543307
                },
                {
                    "duration": 0.21018497500000421,
                    "durationTicks": 227,
                    "midi": 67,
                    "name": "G4",
                    "ticks": 219600,
                    "time": 203.527576,
                    "velocity": 0.5826771653543307
                },
                {
                    "duration": 0.21018497500000421,
                    "durationTicks": 227,
                    "midi": 71,
                    "name": "B4",
                    "ticks": 219600,
                    "time": 203.527576,
                    "velocity": 0.5826771653543307
                },
                {
                    "duration": 0.21018497500000421,
                    "durationTicks": 227,
                    "midi": 74,
                    "name": "D5",
                    "ticks": 219600,
                    "time": 203.527576,
                    "velocity": 0.5826771653543307
                },
                {
                    "duration": 0.21018497500000421,
                    "durationTicks": 227,
                    "midi": 60,
                    "name": "C4",
                    "ticks": 219600,
                    "time": 203.527576,
                    "velocity": 0.7401574803149606
                },
                {
                    "duration": 0.21018497500000421,
                    "durationTicks": 227,
                    "midi": 64,
                    "name": "E4",
                    "ticks": 219600,
                    "time": 203.527576,
                    "velocity": 0.7401574803149606
                },
                {
                    "duration": 0.21018497500000421,
                    "durationTicks": 227,
                    "midi": 69,
                    "name": "A4",
                    "ticks": 219600,
                    "time": 203.527576,
                    "velocity": 0.7401574803149606
                },
                {
                    "duration": 0.3157404250000013,
                    "durationTicks": 341,
                    "midi": 62,
                    "name": "D4",
                    "ticks": 219840,
                    "time": 203.749798,
                    "velocity": 0.6299212598425197
                },
                {
                    "duration": 0.3157404250000013,
                    "durationTicks": 341,
                    "midi": 67,
                    "name": "G4",
                    "ticks": 219840,
                    "time": 203.749798,
                    "velocity": 0.6299212598425197
                },
                {
                    "duration": 0.3157404250000013,
                    "durationTicks": 341,
                    "midi": 71,
                    "name": "B4",
                    "ticks": 219840,
                    "time": 203.749798,
                    "velocity": 0.6299212598425197
                },
                {
                    "duration": 0.3157404250000013,
                    "durationTicks": 341,
                    "midi": 74,
                    "name": "D5",
                    "ticks": 219840,
                    "time": 203.749798,
                    "velocity": 0.6299212598425197
                },
                {
                    "duration": 0.3157404250000013,
                    "durationTicks": 341,
                    "midi": 60,
                    "name": "C4",
                    "ticks": 220200,
                    "time": 204.083131,
                    "velocity": 0.5511811023622047
                },
                {
                    "duration": 0.3157404250000013,
                    "durationTicks": 341,
                    "midi": 64,
                    "name": "E4",
                    "ticks": 220200,
                    "time": 204.083131,
                    "velocity": 0.5511811023622047
                },
                {
                    "duration": 0.3157404250000013,
                    "durationTicks": 341,
                    "midi": 69,
                    "name": "A4",
                    "ticks": 220200,
                    "time": 204.083131,
                    "velocity": 0.5511811023622047
                },
                {
                    "duration": 0.3157404250000013,
                    "durationTicks": 341,
                    "midi": 72,
                    "name": "C5",
                    "ticks": 220200,
                    "time": 204.083131,
                    "velocity": 0.5511811023622047
                },
                {
                    "duration": 0.21018497500000421,
                    "durationTicks": 227,
                    "midi": 64,
                    "name": "E4",
                    "ticks": 220560,
                    "time": 204.416464,
                    "velocity": 0.5669291338582677
                },
                {
                    "duration": 0.21018497500000421,
                    "durationTicks": 227,
                    "midi": 69,
                    "name": "A4",
                    "ticks": 220560,
                    "time": 204.416464,
                    "velocity": 0.5669291338582677
                },
                {
                    "duration": 0.21018497500000421,
                    "durationTicks": 227,
                    "midi": 72,
                    "name": "C5",
                    "ticks": 220560,
                    "time": 204.416464,
                    "velocity": 0.5669291338582677
                },
                {
                    "duration": 0.21018497500000421,
                    "durationTicks": 227,
                    "midi": 60,
                    "name": "C4",
                    "ticks": 220560,
                    "time": 204.416464,
                    "velocity": 0.7559055118110236
                },
                {
                    "duration": 0.21018497500000421,
                    "durationTicks": 227,
                    "midi": 64,
                    "name": "E4",
                    "ticks": 220560,
                    "time": 204.416464,
                    "velocity": 0.7559055118110236
                },
                {
                    "duration": 0.21018497500000421,
                    "durationTicks": 227,
                    "midi": 69,
                    "name": "A4",
                    "ticks": 220560,
                    "time": 204.416464,
                    "velocity": 0.7559055118110236
                },
                {
                    "duration": 0.21018497500000421,
                    "durationTicks": 227,
                    "midi": 72,
                    "name": "C5",
                    "ticks": 220560,
                    "time": 204.416464,
                    "velocity": 0.5669291338582677
                },
                {
                    "duration": 0.3157404250000013,
                    "durationTicks": 341,
                    "midi": 59,
                    "name": "B3",
                    "ticks": 220800,
                    "time": 204.638686,
                    "velocity": 0.5669291338582677
                },
                {
                    "duration": 0.3157404250000013,
                    "durationTicks": 341,
                    "midi": 64,
                    "name": "E4",
                    "ticks": 220800,
                    "time": 204.638686,
                    "velocity": 0.5669291338582677
                },
                {
                    "duration": 0.3157404250000013,
                    "durationTicks": 341,
                    "midi": 67,
                    "name": "G4",
                    "ticks": 220800,
                    "time": 204.638686,
                    "velocity": 0.5669291338582677
                },
                {
                    "duration": 0.3157404250000013,
                    "durationTicks": 341,
                    "midi": 71,
                    "name": "B4",
                    "ticks": 220800,
                    "time": 204.638686,
                    "velocity": 0.5669291338582677
                },
                {
                    "duration": 0.21018497500000421,
                    "durationTicks": 227,
                    "midi": 59,
                    "name": "B3",
                    "ticks": 221040,
                    "time": 204.860908,
                    "velocity": 0.5354330708661418
                },
                {
                    "duration": 0.21018497500000421,
                    "durationTicks": 227,
                    "midi": 64,
                    "name": "E4",
                    "ticks": 221040,
                    "time": 204.860908,
                    "velocity": 0.5354330708661418
                },
                {
                    "duration": 0.31574042500002975,
                    "durationTicks": 341,
                    "midi": 72,
                    "name": "C5",
                    "ticks": 221160,
                    "time": 204.972019,
                    "velocity": 0.6456692913385826
                },
                {
                    "duration": 0.31574042500002975,
                    "durationTicks": 341,
                    "midi": 72,
                    "name": "C5",
                    "ticks": 221160,
                    "time": 204.972019,
                    "velocity": 0.6456692913385826
                },
                {
                    "duration": 0.21018497500000421,
                    "durationTicks": 227,
                    "midi": 67,
                    "name": "G4",
                    "ticks": 221520,
                    "time": 205.305352,
                    "velocity": 0.7244094488188977
                },
                {
                    "duration": 0.42129587499999843,
                    "durationTicks": 455,
                    "midi": 71,
                    "name": "B4",
                    "ticks": 221520,
                    "time": 205.305352,
                    "velocity": 0.7244094488188977
                },
                {
                    "duration": 0.42129587499999843,
                    "durationTicks": 455,
                    "midi": 76,
                    "name": "E5",
                    "ticks": 221520,
                    "time": 205.305352,
                    "velocity": 0.7244094488188977
                },
                {
                    "duration": 0.42129587499999843,
                    "durationTicks": 455,
                    "midi": 79,
                    "name": "G5",
                    "ticks": 221520,
                    "time": 205.305352,
                    "velocity": 0.7244094488188977
                },
                {
                    "duration": 0.21018497500000421,
                    "durationTicks": 227,
                    "midi": 59,
                    "name": "B3",
                    "ticks": 221520,
                    "time": 205.305352,
                    "velocity": 0.7401574803149606
                },
                {
                    "duration": 0.21018497500000421,
                    "durationTicks": 227,
                    "midi": 64,
                    "name": "E4",
                    "ticks": 221520,
                    "time": 205.305352,
                    "velocity": 0.7401574803149606
                },
                {
                    "duration": 0.42129587499999843,
                    "durationTicks": 455,
                    "midi": 67,
                    "name": "G4",
                    "ticks": 221520,
                    "time": 205.305352,
                    "velocity": 0.7401574803149606
                },
                {
                    "duration": 0.21018497500000421,
                    "durationTicks": 227,
                    "midi": 59,
                    "name": "B3",
                    "ticks": 222000,
                    "time": 205.749796,
                    "velocity": 0.44881889763779526
                },
                {
                    "duration": 0.21018497500000421,
                    "durationTicks": 227,
                    "midi": 64,
                    "name": "E4",
                    "ticks": 222000,
                    "time": 205.749796,
                    "velocity": 0.44881889763779526
                },
                {
                    "duration": 0.21018497500000421,
                    "durationTicks": 227,
                    "midi": 67,
                    "name": "G4",
                    "ticks": 222000,
                    "time": 205.749796,
                    "velocity": 0.44881889763779526
                },
                {
                    "duration": 0.3324070749999919,
                    "durationTicks": 359,
                    "midi": 71,
                    "name": "B4",
                    "ticks": 222000,
                    "time": 205.749796,
                    "velocity": 0.44881889763779526
                },
                {
                    "duration": 0.3324070749999919,
                    "durationTicks": 359,
                    "midi": 59,
                    "name": "B3",
                    "ticks": 222000,
                    "time": 205.749796,
                    "velocity": 0.7559055118110236
                },
                {
                    "duration": 0.3324070749999919,
                    "durationTicks": 359,
                    "midi": 64,
                    "name": "E4",
                    "ticks": 222000,
                    "time": 205.749796,
                    "velocity": 0.7559055118110236
                },
                {
                    "duration": 0.3324070749999919,
                    "durationTicks": 359,
                    "midi": 67,
                    "name": "G4",
                    "ticks": 222000,
                    "time": 205.749796,
                    "velocity": 0.7559055118110236
                },
                {
                    "duration": 0.21018497500000421,
                    "durationTicks": 227,
                    "midi": 60,
                    "name": "C4",
                    "ticks": 222480,
                    "time": 206.19424,
                    "velocity": 0.5748031496062992
                },
                {
                    "duration": 0.21018497500000421,
                    "durationTicks": 227,
                    "midi": 72,
                    "name": "C5",
                    "ticks": 222480,
                    "time": 206.19424,
                    "velocity": 0.5748031496062992
                },
                {
                    "duration": 0.21018497500000421,
                    "durationTicks": 227,
                    "midi": 59,
                    "name": "B3",
                    "ticks": 222480,
                    "time": 206.19424,
                    "velocity": 0.7559055118110236
                },
                {
                    "duration": 0.21018497500000421,
                    "durationTicks": 227,
                    "midi": 64,
                    "name": "E4",
                    "ticks": 222480,
                    "time": 206.19424,
                    "velocity": 0.7559055118110236
                },
                {
                    "duration": 0.21018497500000421,
                    "durationTicks": 227,
                    "midi": 67,
                    "name": "G4",
                    "ticks": 222480,
                    "time": 206.19424,
                    "velocity": 0.7559055118110236
                },
                {
                    "duration": 0.3157404250000013,
                    "durationTicks": 341,
                    "midi": 69,
                    "name": "A4",
                    "ticks": 222720,
                    "time": 206.416462,
                    "velocity": 0.7244094488188977
                },
                {
                    "duration": 0.3157404250000013,
                    "durationTicks": 341,
                    "midi": 72,
                    "name": "C5",
                    "ticks": 222720,
                    "time": 206.416462,
                    "velocity": 0.7244094488188977
                },
                {
                    "duration": 0.3157404250000013,
                    "durationTicks": 341,
                    "midi": 77,
                    "name": "F5",
                    "ticks": 222720,
                    "time": 206.416462,
                    "velocity": 0.7244094488188977
                },
                {
                    "duration": 0.3157404250000013,
                    "durationTicks": 341,
                    "midi": 81,
                    "name": "A5",
                    "ticks": 222720,
                    "time": 206.416462,
                    "velocity": 0.7244094488188977
                },
                {
                    "duration": 0.3157404250000013,
                    "durationTicks": 341,
                    "midi": 79,
                    "name": "G5",
                    "ticks": 223080,
                    "time": 206.749795,
                    "velocity": 0.5826771653543307
                },
                {
                    "duration": 0.3157404250000013,
                    "durationTicks": 341,
                    "midi": 79,
                    "name": "G5",
                    "ticks": 223080,
                    "time": 206.749795,
                    "velocity": 0.5826771653543307
                },
                {
                    "duration": 0.3157404250000013,
                    "durationTicks": 341,
                    "midi": 84,
                    "name": "C6",
                    "ticks": 223080,
                    "time": 206.749795,
                    "velocity": 0.5826771653543307
                },
                {
                    "duration": 0.3157404250000013,
                    "durationTicks": 341,
                    "midi": 88,
                    "name": "E6",
                    "ticks": 223080,
                    "time": 206.749795,
                    "velocity": 0.5826771653543307
                },
                {
                    "duration": 0.2101849749999758,
                    "durationTicks": 227,
                    "midi": 64,
                    "name": "E4",
                    "ticks": 223440,
                    "time": 207.08312800000002,
                    "velocity": 0.5590551181102362
                },
                {
                    "duration": 0.2101849749999758,
                    "durationTicks": 227,
                    "midi": 76,
                    "name": "E5",
                    "ticks": 223440,
                    "time": 207.08312800000002,
                    "velocity": 0.5590551181102362
                },
                {
                    "duration": 0.42129587499999843,
                    "durationTicks": 455,
                    "midi": 60,
                    "name": "C4",
                    "ticks": 223680,
                    "time": 207.30535,
                    "velocity": 0.5196850393700787
                },
                {
                    "duration": 0.6666659999999922,
                    "durationTicks": 720,
                    "midi": 72,
                    "name": "C5",
                    "ticks": 223680,
                    "time": 207.30535,
                    "velocity": 0.5196850393700787
                },
                {
                    "duration": 0.8435176750000153,
                    "durationTicks": 911,
                    "midi": 64,
                    "name": "E4",
                    "ticks": 223680,
                    "time": 207.30535,
                    "velocity": 0.5196850393700787
                },
                {
                    "duration": 0.8435176750000153,
                    "durationTicks": 911,
                    "midi": 67,
                    "name": "G4",
                    "ticks": 223680,
                    "time": 207.30535,
                    "velocity": 0.5196850393700787
                },
                {
                    "duration": 0.6666659999999922,
                    "durationTicks": 720,
                    "midi": 60,
                    "name": "C4",
                    "ticks": 223680,
                    "time": 207.30535,
                    "velocity": 0.7952755905511811
                },
                {
                    "duration": 0.42129587499999843,
                    "durationTicks": 455,
                    "midi": 65,
                    "name": "F4",
                    "ticks": 223680,
                    "time": 207.30535,
                    "velocity": 0.7952755905511811
                },
                {
                    "duration": 0.42129587499999843,
                    "durationTicks": 455,
                    "midi": 69,
                    "name": "A4",
                    "ticks": 223680,
                    "time": 207.30535,
                    "velocity": 0.7952755905511811
                },
                {
                    "duration": 0.21018497500000421,
                    "durationTicks": 227,
                    "midi": 60,
                    "name": "C4",
                    "ticks": 224400,
                    "time": 207.972016,
                    "velocity": 0.5984251968503937
                },
                {
                    "duration": 0.21018497500000421,
                    "durationTicks": 227,
                    "midi": 72,
                    "name": "C5",
                    "ticks": 224400,
                    "time": 207.972016,
                    "velocity": 0.5984251968503937
                },
                {
                    "duration": 0.42129587499999843,
                    "durationTicks": 455,
                    "midi": 60,
                    "name": "C4",
                    "ticks": 224640,
                    "time": 208.194238,
                    "velocity": 0.5984251968503937
                },
                {
                    "duration": 0.42129587499999843,
                    "durationTicks": 455,
                    "midi": 62,
                    "name": "D4",
                    "ticks": 224640,
                    "time": 208.194238,
                    "velocity": 0.5984251968503937
                },
                {
                    "duration": 0.42129587499999843,
                    "durationTicks": 455,
                    "midi": 67,
                    "name": "G4",
                    "ticks": 224640,
                    "time": 208.194238,
                    "velocity": 0.5984251968503937
                },
                {
                    "duration": 0.42129587499999843,
                    "durationTicks": 455,
                    "midi": 72,
                    "name": "C5",
                    "ticks": 224640,
                    "time": 208.194238,
                    "velocity": 0.5984251968503937
                },
                {
                    "duration": 0.21018497500000421,
                    "durationTicks": 227,
                    "midi": 83,
                    "name": "B5",
                    "ticks": 225120,
                    "time": 208.638682,
                    "velocity": 0.5354330708661418
                },
                {
                    "duration": 0.21018497500000421,
                    "durationTicks": 227,
                    "midi": 71,
                    "name": "B4",
                    "ticks": 225120,
                    "time": 208.638682,
                    "velocity": 0.5354330708661418
                },
                {
                    "duration": 0.42129587499999843,
                    "durationTicks": 455,
                    "midi": 81,
                    "name": "A5",
                    "ticks": 225360,
                    "time": 208.860904,
                    "velocity": 0.5511811023622047
                },
                {
                    "duration": 0.42129587499999843,
                    "durationTicks": 455,
                    "midi": 62,
                    "name": "D4",
                    "ticks": 225360,
                    "time": 208.860904,
                    "velocity": 0.5511811023622047
                },
                {
                    "duration": 0.42129587499999843,
                    "durationTicks": 455,
                    "midi": 67,
                    "name": "G4",
                    "ticks": 225360,
                    "time": 208.860904,
                    "velocity": 0.5511811023622047
                },
                {
                    "duration": 0.42129587499999843,
                    "durationTicks": 455,
                    "midi": 69,
                    "name": "A4",
                    "ticks": 225360,
                    "time": 208.860904,
                    "velocity": 0.5511811023622047
                },
                {
                    "duration": 0.6324067749999926,
                    "durationTicks": 683,
                    "midi": 83,
                    "name": "B5",
                    "ticks": 225360,
                    "time": 208.860904,
                    "velocity": 0.5511811023622047
                },
                {
                    "duration": 0.6324067749999926,
                    "durationTicks": 683,
                    "midi": 62,
                    "name": "D4",
                    "ticks": 225360,
                    "time": 208.860904,
                    "velocity": 0.5511811023622047
                },
                {
                    "duration": 0.6324067749999926,
                    "durationTicks": 683,
                    "midi": 67,
                    "name": "G4",
                    "ticks": 225360,
                    "time": 208.860904,
                    "velocity": 0.5511811023622047
                },
                {
                    "duration": 0.42129587499999843,
                    "durationTicks": 455,
                    "midi": 83,
                    "name": "B5",
                    "ticks": 225840,
                    "time": 209.305348,
                    "velocity": 0.6377952755905512
                },
                {
                    "duration": 0.42129587499999843,
                    "durationTicks": 455,
                    "midi": 71,
                    "name": "B4",
                    "ticks": 225840,
                    "time": 209.305348,
                    "velocity": 0.6377952755905512
                },
                {
                    "duration": 0.6324067749999926,
                    "durationTicks": 683,
                    "midi": 60,
                    "name": "C4",
                    "ticks": 226320,
                    "time": 209.749792,
                    "velocity": 0.6377952755905512
                },
                {
                    "duration": 0.8435176749999869,
                    "durationTicks": 911,
                    "midi": 64,
                    "name": "E4",
                    "ticks": 226320,
                    "time": 209.749792,
                    "velocity": 0.6377952755905512
                },
                {
                    "duration": 0.6546289749999801,
                    "durationTicks": 707,
                    "midi": 69,
                    "name": "A4",
                    "ticks": 226320,
                    "time": 209.749792,
                    "velocity": 0.6377952755905512
                },
                {
                    "duration": 1.2990727749999849,
                    "durationTicks": 1403,
                    "midi": 72,
                    "name": "C5",
                    "ticks": 226320,
                    "time": 209.749792,
                    "velocity": 0.6377952755905512
                },
                {
                    "duration": 0.8879620749999901,
                    "durationTicks": 959,
                    "midi": 69,
                    "name": "A4",
                    "ticks": 226800,
                    "time": 210.194236,
                    "velocity": 0.5433070866141733
                },
                {
                    "duration": 1.2324061749999942,
                    "durationTicks": 1331,
                    "midi": 72,
                    "name": "C5",
                    "ticks": 227040,
                    "time": 210.416458,
                    "velocity": 0.6220472440944882
                },
                {
                    "duration": 0.6324067749999926,
                    "durationTicks": 683,
                    "midi": 64,
                    "name": "E4",
                    "ticks": 227280,
                    "time": 210.63868,
                    "velocity": 0.6929133858267716
                },
                {
                    "duration": 0.6324067749999926,
                    "durationTicks": 683,
                    "midi": 60,
                    "name": "C4",
                    "ticks": 227280,
                    "time": 210.63868,
                    "velocity": 0.5590551181102362
                },
                {
                    "duration": 0.7879621749999899,
                    "durationTicks": 851,
                    "midi": 69,
                    "name": "A4",
                    "ticks": 227520,
                    "time": 210.860902,
                    "velocity": 0.4881889763779528
                },
                {
                    "duration": 0.6324067749999926,
                    "durationTicks": 683,
                    "midi": 72,
                    "name": "C5",
                    "ticks": 227760,
                    "time": 211.083124,
                    "velocity": 0.6456692913385826
                },
                {
                    "duration": 0.42129587499999843,
                    "durationTicks": 455,
                    "midi": 64,
                    "name": "E4",
                    "ticks": 228000,
                    "time": 211.30534600000001,
                    "velocity": 0.6377952755905512
                },
                {
                    "duration": 0.42129587499999843,
                    "durationTicks": 455,
                    "midi": 60,
                    "name": "C4",
                    "ticks": 228000,
                    "time": 211.30534600000001,
                    "velocity": 0.5511811023622047
                },
                {
                    "duration": 0.42129587499999843,
                    "durationTicks": 455,
                    "midi": 64,
                    "name": "E4",
                    "ticks": 228000,
                    "time": 211.30534600000001,
                    "velocity": 0.5511811023622047
                },
                {
                    "duration": 0.21018497500000421,
                    "durationTicks": 227,
                    "midi": 81,
                    "name": "A5",
                    "ticks": 228240,
                    "time": 211.527568,
                    "velocity": 0.4881889763779528
                },
                {
                    "duration": 0.21018497500000421,
                    "durationTicks": 227,
                    "midi": 62,
                    "name": "D4",
                    "ticks": 228480,
                    "time": 211.74979,
                    "velocity": 0.47244094488188976
                },
                {
                    "duration": 1.6879612749999922,
                    "durationTicks": 1823,
                    "midi": 69,
                    "name": "A4",
                    "ticks": 228480,
                    "time": 211.74979,
                    "velocity": 0.6377952755905512
                },
                {
                    "duration": 0.43240697500002057,
                    "durationTicks": 467,
                    "midi": 81,
                    "name": "A5",
                    "ticks": 228480,
                    "time": 211.74979,
                    "velocity": 0.6377952755905512
                },
                {
                    "duration": 0.8768509749999964,
                    "durationTicks": 947,
                    "midi": 81,
                    "name": "A5",
                    "ticks": 228720,
                    "time": 211.972012,
                    "velocity": 0.48031496062992124
                },
                {
                    "duration": 0.21018497500000421,
                    "durationTicks": 227,
                    "midi": 60,
                    "name": "C4",
                    "ticks": 228960,
                    "time": 212.194234,
                    "velocity": 0.6299212598425197
                },
                {
                    "duration": 0.21018497500000421,
                    "durationTicks": 227,
                    "midi": 62,
                    "name": "D4",
                    "ticks": 229200,
                    "time": 212.416456,
                    "velocity": 0.6220472440944882
                },
                {
                    "duration": 0.6324067749999926,
                    "durationTicks": 683,
                    "midi": 60,
                    "name": "C4",
                    "ticks": 229200,
                    "time": 212.416456,
                    "velocity": 0.5354330708661418
                },
                {
                    "duration": 0.6324067749999926,
                    "durationTicks": 683,
                    "midi": 64,
                    "name": "E4",
                    "ticks": 229200,
                    "time": 212.416456,
                    "velocity": 0.5354330708661418
                },
                {
                    "duration": 0.7990732749999836,
                    "durationTicks": 863,
                    "midi": 81,
                    "name": "A5",
                    "ticks": 229440,
                    "time": 212.638678,
                    "velocity": 0.5354330708661418
                },
                {
                    "duration": 0.2101849749999758,
                    "durationTicks": 227,
                    "midi": 60,
                    "name": "C4",
                    "ticks": 229680,
                    "time": 212.86090000000002,
                    "velocity": 0.6456692913385826
                },
                {
                    "duration": 0.21018497500000421,
                    "durationTicks": 227,
                    "midi": 62,
                    "name": "D4",
                    "ticks": 229920,
                    "time": 213.083122,
                    "velocity": 0.6535433070866141
                },
                {
                    "duration": 0.42129587499999843,
                    "durationTicks": 455,
                    "midi": 60,
                    "name": "C4",
                    "ticks": 229920,
                    "time": 213.083122,
                    "velocity": 0.6141732283464567
                },
                {
                    "duration": 0.42129587499999843,
                    "durationTicks": 455,
                    "midi": 64,
                    "name": "E4",
                    "ticks": 229920,
                    "time": 213.083122,
                    "velocity": 0.6141732283464567
                },
                {
                    "duration": 0.21018497500000421,
                    "durationTicks": 227,
                    "midi": 81,
                    "name": "A5",
                    "ticks": 230160,
                    "time": 213.305344,
                    "velocity": 0.5275590551181102
                },
                {
                    "duration": 0.21018497500000421,
                    "durationTicks": 227,
                    "midi": 62,
                    "name": "D4",
                    "ticks": 230400,
                    "time": 213.527566,
                    "velocity": 0.6535433070866141
                },
                {
                    "duration": 1.6879612749999922,
                    "durationTicks": 1823,
                    "midi": 67,
                    "name": "G4",
                    "ticks": 230400,
                    "time": 213.527566,
                    "velocity": 0.5433070866141733
                },
                {
                    "duration": 0.43240697499999214,
                    "durationTicks": 467,
                    "midi": 79,
                    "name": "G5",
                    "ticks": 230400,
                    "time": 213.527566,
                    "velocity": 0.5433070866141733
                },
                {
                    "duration": 0.8768509749999964,
                    "durationTicks": 947,
                    "midi": 79,
                    "name": "G5",
                    "ticks": 230640,
                    "time": 213.749788,
                    "velocity": 0.5039370078740157
                },
                {
                    "duration": 0.2101849749999758,
                    "durationTicks": 227,
                    "midi": 59,
                    "name": "B3",
                    "ticks": 230880,
                    "time": 213.97201,
                    "velocity": 0.6614173228346457
                },
                {
                    "duration": 0.6324067749999926,
                    "durationTicks": 683,
                    "midi": 59,
                    "name": "B3",
                    "ticks": 231120,
                    "time": 214.194232,
                    "velocity": 0.5590551181102362
                },
                {
                    "duration": 0.6324067749999926,
                    "durationTicks": 683,
                    "midi": 62,
                    "name": "D4",
                    "ticks": 231120,
                    "time": 214.194232,
                    "velocity": 0.5590551181102362
                },
                {
                    "duration": 0.7990732749999836,
                    "durationTicks": 863,
                    "midi": 79,
                    "name": "G5",
                    "ticks": 231360,
                    "time": 214.41645400000002,
                    "velocity": 0.5354330708661418
                },
                {
                    "duration": 0.21018497500000421,
                    "durationTicks": 227,
                    "midi": 59,
                    "name": "B3",
                    "ticks": 231600,
                    "time": 214.638676,
                    "velocity": 0.6692913385826772
                },
                {
                    "duration": 0.42129587500002685,
                    "durationTicks": 455,
                    "midi": 59,
                    "name": "B3",
                    "ticks": 231840,
                    "time": 214.860898,
                    "velocity": 0.5511811023622047
                },
                {
                    "duration": 0.42129587500002685,
                    "durationTicks": 455,
                    "midi": 62,
                    "name": "D4",
                    "ticks": 231840,
                    "time": 214.860898,
                    "velocity": 0.5511811023622047
                },
                {
                    "duration": 0.21018497500000421,
                    "durationTicks": 227,
                    "midi": 79,
                    "name": "G5",
                    "ticks": 232080,
                    "time": 215.08312,
                    "velocity": 0.4881889763779528
                },
                {
                    "duration": 0.21018497500000421,
                    "durationTicks": 227,
                    "midi": 62,
                    "name": "D4",
                    "ticks": 232320,
                    "time": 215.305342,
                    "velocity": 0.6614173228346457
                },
                {
                    "duration": 1.6879612749999922,
                    "durationTicks": 1823,
                    "midi": 69,
                    "name": "A4",
                    "ticks": 232320,
                    "time": 215.305342,
                    "velocity": 0.6062992125984252
                },
                {
                    "duration": 0.43240697499999214,
                    "durationTicks": 467,
                    "midi": 81,
                    "name": "A5",
                    "ticks": 232320,
                    "time": 215.305342,
                    "velocity": 0.6062992125984252
                },
                {
                    "duration": 0.8768509749999964,
                    "durationTicks": 947,
                    "midi": 81,
                    "name": "A5",
                    "ticks": 232560,
                    "time": 215.527564,
                    "velocity": 0.5354330708661418
                },
                {
                    "duration": 0.21018497500000421,
                    "durationTicks": 227,
                    "midi": 59,
                    "name": "B3",
                    "ticks": 232800,
                    "time": 215.749786,
                    "velocity": 0.6220472440944882
                },
                {
                    "duration": 0.2101849749999758,
                    "durationTicks": 227,
                    "midi": 62,
                    "name": "D4",
                    "ticks": 233040,
                    "time": 215.97200800000002,
                    "velocity": 0.6614173228346457
                },
                {
                    "duration": 0.6324067749999926,
                    "durationTicks": 683,
                    "midi": 60,
                    "name": "C4",
                    "ticks": 233040,
                    "time": 215.97200800000002,
                    "velocity": 0.5669291338582677
                },
                {
                    "duration": 0.6324067749999926,
                    "durationTicks": 683,
                    "midi": 64,
                    "name": "E4",
                    "ticks": 233040,
                    "time": 215.97200800000002,
                    "velocity": 0.5669291338582677
                },
                {
                    "duration": 0.7990732749999836,
                    "durationTicks": 863,
                    "midi": 81,
                    "name": "A5",
                    "ticks": 233280,
                    "time": 216.19423,
                    "velocity": 0.4881889763779528
                },
                {
                    "duration": 0.21018497500000421,
                    "durationTicks": 227,
                    "midi": 60,
                    "name": "C4",
                    "ticks": 233520,
                    "time": 216.416452,
                    "velocity": 0.6220472440944882
                },
                {
                    "duration": 0.21018497500000421,
                    "durationTicks": 227,
                    "midi": 64,
                    "name": "E4",
                    "ticks": 233760,
                    "time": 216.638674,
                    "velocity": 0.6850393700787402
                },
                {
                    "duration": 0.42129587499999843,
                    "durationTicks": 455,
                    "midi": 60,
                    "name": "C4",
                    "ticks": 233760,
                    "time": 216.638674,
                    "velocity": 0.5984251968503937
                },
                {
                    "duration": 0.42129587499999843,
                    "durationTicks": 455,
                    "midi": 64,
                    "name": "E4",
                    "ticks": 233760,
                    "time": 216.638674,
                    "velocity": 0.5984251968503937
                },
                {
                    "duration": 0.21018497500000421,
                    "durationTicks": 227,
                    "midi": 72,
                    "name": "C5",
                    "ticks": 234000,
                    "time": 216.860896,
                    "velocity": 0.5511811023622047
                },
                {
                    "duration": 0.42129587499999843,
                    "durationTicks": 455,
                    "midi": 64,
                    "name": "E4",
                    "ticks": 234240,
                    "time": 217.083118,
                    "velocity": 0.6141732283464567
                },
                {
                    "duration": 0.42129587499999843,
                    "durationTicks": 455,
                    "midi": 67,
                    "name": "G4",
                    "ticks": 234240,
                    "time": 217.083118,
                    "velocity": 0.6141732283464567
                },
                {
                    "duration": 0.42129587499999843,
                    "durationTicks": 455,
                    "midi": 74,
                    "name": "D5",
                    "ticks": 234240,
                    "time": 217.083118,
                    "velocity": 0.6141732283464567
                },
                {
                    "duration": 0.21018497500000421,
                    "durationTicks": 227,
                    "midi": 60,
                    "name": "C4",
                    "ticks": 234480,
                    "time": 217.30534,
                    "velocity": 0.6377952755905512
                },
                {
                    "duration": 0.42129587500002685,
                    "durationTicks": 455,
                    "midi": 72,
                    "name": "C5",
                    "ticks": 234720,
                    "time": 217.527562,
                    "velocity": 0.5748031496062992
                },
                {
                    "duration": 0.21018497500000421,
                    "durationTicks": 227,
                    "midi": 69,
                    "name": "A4",
                    "ticks": 234720,
                    "time": 217.527562,
                    "velocity": 0.7086614173228346
                },
                {
                    "duration": 0.21018497500000421,
                    "durationTicks": 227,
                    "midi": 65,
                    "name": "F4",
                    "ticks": 234960,
                    "time": 217.749784,
                    "velocity": 0.5511811023622047
                },
                {
                    "duration": 0.8435176750000153,
                    "durationTicks": 911,
                    "midi": 71,
                    "name": "B4",
                    "ticks": 235200,
                    "time": 217.972006,
                    "velocity": 0.6062992125984252
                },
                {
                    "duration": 0.21018497500000421,
                    "durationTicks": 227,
                    "midi": 60,
                    "name": "C4",
                    "ticks": 235200,
                    "time": 217.972006,
                    "velocity": 0.6141732283464567
                },
                {
                    "duration": 0.21018497500000421,
                    "durationTicks": 227,
                    "midi": 69,
                    "name": "A4",
                    "ticks": 235440,
                    "time": 218.194228,
                    "velocity": 0.5275590551181102
                },
                {
                    "duration": 0.21018497500000421,
                    "durationTicks": 227,
                    "midi": 60,
                    "name": "C4",
                    "ticks": 235680,
                    "time": 218.41645,
                    "velocity": 0.6535433070866141
                },
                {
                    "duration": 0.21018497500000421,
                    "durationTicks": 227,
                    "midi": 65,
                    "name": "F4",
                    "ticks": 235680,
                    "time": 218.41645,
                    "velocity": 0.5748031496062992
                },
                {
                    "duration": 0.2101849749999758,
                    "durationTicks": 227,
                    "midi": 64,
                    "name": "E4",
                    "ticks": 235920,
                    "time": 218.638672,
                    "velocity": 0.6771653543307087
                },
                {
                    "duration": 0.2101849749999758,
                    "durationTicks": 227,
                    "midi": 60,
                    "name": "C4",
                    "ticks": 235920,
                    "time": 218.638672,
                    "velocity": 0.6771653543307087
                },
                {
                    "duration": 0.21018497500000421,
                    "durationTicks": 227,
                    "midi": 69,
                    "name": "A4",
                    "ticks": 236160,
                    "time": 218.860894,
                    "velocity": 0.5669291338582677
                },
                {
                    "duration": 0.21018497500000421,
                    "durationTicks": 227,
                    "midi": 62,
                    "name": "D4",
                    "ticks": 236400,
                    "time": 219.083116,
                    "velocity": 0.6929133858267716
                },
                {
                    "duration": 0.21018497500000421,
                    "durationTicks": 227,
                    "midi": 64,
                    "name": "E4",
                    "ticks": 236400,
                    "time": 219.083116,
                    "velocity": 0.7086614173228346
                },
                {
                    "duration": 0.21018497500000421,
                    "durationTicks": 227,
                    "midi": 64,
                    "name": "E4",
                    "ticks": 236640,
                    "time": 219.305338,
                    "velocity": 0.6456692913385826
                },
                {
                    "duration": 0.21018497500000421,
                    "durationTicks": 227,
                    "midi": 72,
                    "name": "C5",
                    "ticks": 236640,
                    "time": 219.305338,
                    "velocity": 0.7244094488188977
                },
                {
                    "duration": 0.21018497500000421,
                    "durationTicks": 227,
                    "midi": 69,
                    "name": "A4",
                    "ticks": 236880,
                    "time": 219.52756,
                    "velocity": 0.5748031496062992
                },
                {
                    "duration": 0.21018497500000421,
                    "durationTicks": 227,
                    "midi": 62,
                    "name": "D4",
                    "ticks": 237120,
                    "time": 219.749782,
                    "velocity": 0.6929133858267716
                },
                {
                    "duration": 0.21018497500000421,
                    "durationTicks": 227,
                    "midi": 64,
                    "name": "E4",
                    "ticks": 237120,
                    "time": 219.749782,
                    "velocity": 0.6850393700787402
                },
                {
                    "duration": 0.21018497500000421,
                    "durationTicks": 227,
                    "midi": 64,
                    "name": "E4",
                    "ticks": 237360,
                    "time": 219.972004,
                    "velocity": 0.6614173228346457
                },
                {
                    "duration": 0.21018497500000421,
                    "durationTicks": 227,
                    "midi": 72,
                    "name": "C5",
                    "ticks": 237360,
                    "time": 219.972004,
                    "velocity": 0.7480314960629921
                },
                {
                    "duration": 0.2101849749999758,
                    "durationTicks": 227,
                    "midi": 69,
                    "name": "A4",
                    "ticks": 237600,
                    "time": 220.19422600000001,
                    "velocity": 0.5118110236220472
                },
                {
                    "duration": 0.21018497500000421,
                    "durationTicks": 227,
                    "midi": 72,
                    "name": "C5",
                    "ticks": 237840,
                    "time": 220.416448,
                    "velocity": 0.5669291338582677
                },
                {
                    "duration": 0.21018497500000421,
                    "durationTicks": 227,
                    "midi": 64,
                    "name": "E4",
                    "ticks": 237840,
                    "time": 220.416448,
                    "velocity": 0.7480314960629921
                },
                {
                    "duration": 0.42129587500002685,
                    "durationTicks": 455,
                    "midi": 62,
                    "name": "D4",
                    "ticks": 238080,
                    "time": 220.63867,
                    "velocity": 0.6299212598425197
                },
                {
                    "duration": 0.21018497500000421,
                    "durationTicks": 227,
                    "midi": 67,
                    "name": "G4",
                    "ticks": 238080,
                    "time": 220.63867,
                    "velocity": 0.6299212598425197
                },
                {
                    "duration": 0.42129587500002685,
                    "durationTicks": 455,
                    "midi": 74,
                    "name": "D5",
                    "ticks": 238080,
                    "time": 220.63867,
                    "velocity": 0.6299212598425197
                },
                {
                    "duration": 0.42129587500002685,
                    "durationTicks": 455,
                    "midi": 67,
                    "name": "G4",
                    "ticks": 238080,
                    "time": 220.63867,
                    "velocity": 0.5511811023622047
                },
                {
                    "duration": 0.21018497500000421,
                    "durationTicks": 227,
                    "midi": 62,
                    "name": "D4",
                    "ticks": 238320,
                    "time": 220.860892,
                    "velocity": 0.6771653543307087
                },
                {
                    "duration": 0.42129587500002685,
                    "durationTicks": 455,
                    "midi": 72,
                    "name": "C5",
                    "ticks": 238560,
                    "time": 221.083114,
                    "velocity": 0.5748031496062992
                },
                {
                    "duration": 0.21018497500000421,
                    "durationTicks": 227,
                    "midi": 71,
                    "name": "B4",
                    "ticks": 238560,
                    "time": 221.083114,
                    "velocity": 0.7322834645669292
                },
                {
                    "duration": 0.2101849749999758,
                    "durationTicks": 227,
                    "midi": 67,
                    "name": "G4",
                    "ticks": 238800,
                    "time": 221.305336,
                    "velocity": 0.5433070866141733
                },
                {
                    "duration": 0.43240697499999214,
                    "durationTicks": 467,
                    "midi": 71,
                    "name": "B4",
                    "ticks": 239040,
                    "time": 221.527558,
                    "velocity": 0.5748031496062992
                },
                {
                    "duration": 0.21018497500000421,
                    "durationTicks": 227,
                    "midi": 62,
                    "name": "D4",
                    "ticks": 239040,
                    "time": 221.527558,
                    "velocity": 0.7244094488188977
                },
                {
                    "duration": 0.6212956749999989,
                    "durationTicks": 671,
                    "midi": 71,
                    "name": "B4",
                    "ticks": 239280,
                    "time": 221.74978000000002,
                    "velocity": 0.5511811023622047
                },
                {
                    "duration": 0.21018497500000421,
                    "durationTicks": 227,
                    "midi": 60,
                    "name": "C4",
                    "ticks": 239520,
                    "time": 221.972002,
                    "velocity": 0.6535433070866141
                },
                {
                    "duration": 0.21018497500000421,
                    "durationTicks": 227,
                    "midi": 67,
                    "name": "G4",
                    "ticks": 239520,
                    "time": 221.972002,
                    "velocity": 0.5669291338582677
                },
                {
                    "duration": 0.21018497500000421,
                    "durationTicks": 227,
                    "midi": 62,
                    "name": "D4",
                    "ticks": 239760,
                    "time": 222.194224,
                    "velocity": 0.6535433070866141
                },
                {
                    "duration": 0.21018497500000421,
                    "durationTicks": 227,
                    "midi": 62,
                    "name": "D4",
                    "ticks": 239760,
                    "time": 222.194224,
                    "velocity": 0.7007874015748031
                },
                {
                    "duration": 0.21018497500000421,
                    "durationTicks": 227,
                    "midi": 67,
                    "name": "G4",
                    "ticks": 240000,
                    "time": 222.416446,
                    "velocity": 0.4881889763779528
                },
                {
                    "duration": 0.21018497500000421,
                    "durationTicks": 227,
                    "midi": 69,
                    "name": "A4",
                    "ticks": 240000,
                    "time": 222.416446,
                    "velocity": 0.5669291338582677
                },
                {
                    "duration": 0.21018497500000421,
                    "durationTicks": 227,
                    "midi": 71,
                    "name": "B4",
                    "ticks": 240240,
                    "time": 222.638668,
                    "velocity": 0.6299212598425197
                },
                {
                    "duration": 0.21018497500000421,
                    "durationTicks": 227,
                    "midi": 64,
                    "name": "E4",
                    "ticks": 240240,
                    "time": 222.638668,
                    "velocity": 0.6771653543307087
                },
                {
                    "duration": 0.2101849749999758,
                    "durationTicks": 227,
                    "midi": 60,
                    "name": "C4",
                    "ticks": 240480,
                    "time": 222.86089,
                    "velocity": 0.5984251968503937
                },
                {
                    "duration": 0.2101849749999758,
                    "durationTicks": 227,
                    "midi": 69,
                    "name": "A4",
                    "ticks": 240480,
                    "time": 222.86089,
                    "velocity": 0.7007874015748031
                },
                {
                    "duration": 0.21018497500000421,
                    "durationTicks": 227,
                    "midi": 67,
                    "name": "G4",
                    "ticks": 240720,
                    "time": 223.083112,
                    "velocity": 0.5354330708661418
                },
                {
                    "duration": 0.21018497500000421,
                    "durationTicks": 227,
                    "midi": 69,
                    "name": "A4",
                    "ticks": 240720,
                    "time": 223.083112,
                    "velocity": 0.5118110236220472
                },
                {
                    "duration": 0.2101849749999758,
                    "durationTicks": 227,
                    "midi": 71,
                    "name": "B4",
                    "ticks": 240960,
                    "time": 223.30533400000002,
                    "velocity": 0.6614173228346457
                },
                {
                    "duration": 0.2101849749999758,
                    "durationTicks": 227,
                    "midi": 64,
                    "name": "E4",
                    "ticks": 240960,
                    "time": 223.30533400000002,
                    "velocity": 0.6929133858267716
                },
                {
                    "duration": 0.21018497500000421,
                    "durationTicks": 227,
                    "midi": 60,
                    "name": "C4",
                    "ticks": 241200,
                    "time": 223.527556,
                    "velocity": 0.6535433070866141
                },
                {
                    "duration": 0.21018497500000421,
                    "durationTicks": 227,
                    "midi": 69,
                    "name": "A4",
                    "ticks": 241200,
                    "time": 223.527556,
                    "velocity": 0.7086614173228346
                },
                {
                    "duration": 0.21018497500000421,
                    "durationTicks": 227,
                    "midi": 67,
                    "name": "G4",
                    "ticks": 241440,
                    "time": 223.749778,
                    "velocity": 0.5196850393700787
                },
                {
                    "duration": 0.21018497500000421,
                    "durationTicks": 227,
                    "midi": 69,
                    "name": "A4",
                    "ticks": 241440,
                    "time": 223.749778,
                    "velocity": 0.5196850393700787
                },
                {
                    "duration": 0.21018497500000421,
                    "durationTicks": 227,
                    "midi": 64,
                    "name": "E4",
                    "ticks": 241680,
                    "time": 223.972,
                    "velocity": 0.5275590551181102
                },
                {
                    "duration": 0.21018497500000421,
                    "durationTicks": 227,
                    "midi": 64,
                    "name": "E4",
                    "ticks": 241680,
                    "time": 223.972,
                    "velocity": 0.7086614173228346
                },
                {
                    "duration": 0.42129587500002685,
                    "durationTicks": 455,
                    "midi": 60,
                    "name": "C4",
                    "ticks": 241920,
                    "time": 224.194222,
                    "velocity": 0.5984251968503937
                },
                {
                    "duration": 0.42129587500002685,
                    "durationTicks": 455,
                    "midi": 64,
                    "name": "E4",
                    "ticks": 241920,
                    "time": 224.194222,
                    "velocity": 0.5984251968503937
                },
                {
                    "duration": 0.2101849749999758,
                    "durationTicks": 227,
                    "midi": 60,
                    "name": "C4",
                    "ticks": 242160,
                    "time": 224.416444,
                    "velocity": 0.6299212598425197
                },
                {
                    "duration": 0.21018497500000421,
                    "durationTicks": 227,
                    "midi": 64,
                    "name": "E4",
                    "ticks": 242400,
                    "time": 224.638666,
                    "velocity": 0.5748031496062992
                },
                {
                    "duration": 0.21018497500000421,
                    "durationTicks": 227,
                    "midi": 69,
                    "name": "A4",
                    "ticks": 242400,
                    "time": 224.638666,
                    "velocity": 0.7480314960629921
                },
                {
                    "duration": 0.42129587499999843,
                    "durationTicks": 455,
                    "midi": 64,
                    "name": "E4",
                    "ticks": 242640,
                    "time": 224.86088800000002,
                    "velocity": 0.6062992125984252
                },
                {
                    "duration": 0.21018497500000421,
                    "durationTicks": 227,
                    "midi": 60,
                    "name": "C4",
                    "ticks": 242880,
                    "time": 225.08311,
                    "velocity": 0.6377952755905512
                },
                {
                    "duration": 0.21018497500000421,
                    "durationTicks": 227,
                    "midi": 76,
                    "name": "E5",
                    "ticks": 243120,
                    "time": 225.305332,
                    "velocity": 0.7874015748031497
                },
                {
                    "duration": 0.21018497500000421,
                    "durationTicks": 227,
                    "midi": 69,
                    "name": "A4",
                    "ticks": 243120,
                    "time": 225.305332,
                    "velocity": 0.7795275590551181
                },
                {
                    "duration": 1.2657394750000037,
                    "durationTicks": 1367,
                    "midi": 76,
                    "name": "E5",
                    "ticks": 243360,
                    "time": 225.527554,
                    "velocity": 0.5984251968503937
                },
                {
                    "duration": 0.21018497500000421,
                    "durationTicks": 227,
                    "midi": 60,
                    "name": "C4",
                    "ticks": 243600,
                    "time": 225.749776,
                    "velocity": 0.6456692913385826
                },
                {
                    "duration": 0.2101849749999758,
                    "durationTicks": 227,
                    "midi": 69,
                    "name": "A4",
                    "ticks": 243840,
                    "time": 225.971998,
                    "velocity": 0.5669291338582677
                },
                {
                    "duration": 0.21018497500000421,
                    "durationTicks": 227,
                    "midi": 62,
                    "name": "D4",
                    "ticks": 244080,
                    "time": 226.19422,
                    "velocity": 0.7244094488188977
                },
                {
                    "duration": 0.21018497500000421,
                    "durationTicks": 227,
                    "midi": 64,
                    "name": "E4",
                    "ticks": 244080,
                    "time": 226.19422,
                    "velocity": 0.6929133858267716
                },
                {
                    "duration": 0.21018497500000421,
                    "durationTicks": 227,
                    "midi": 64,
                    "name": "E4",
                    "ticks": 244320,
                    "time": 226.416442,
                    "velocity": 0.6299212598425197
                },
                {
                    "duration": 0.21018497500000421,
                    "durationTicks": 227,
                    "midi": 72,
                    "name": "C5",
                    "ticks": 244320,
                    "time": 226.416442,
                    "velocity": 0.7165354330708661
                },
                {
                    "duration": 0.21018497500000421,
                    "durationTicks": 227,
                    "midi": 69,
                    "name": "A4",
                    "ticks": 244560,
                    "time": 226.638664,
                    "velocity": 0.5275590551181102
                },
                {
                    "duration": 0.21018497500000421,
                    "durationTicks": 227,
                    "midi": 62,
                    "name": "D4",
                    "ticks": 244800,
                    "time": 226.860886,
                    "velocity": 0.6929133858267716
                },
                {
                    "duration": 0.21018497500000421,
                    "durationTicks": 227,
                    "midi": 64,
                    "name": "E4",
                    "ticks": 244800,
                    "time": 226.860886,
                    "velocity": 0.7086614173228346
                },
                {
                    "duration": 0.21018497500000421,
                    "durationTicks": 227,
                    "midi": 64,
                    "name": "E4",
                    "ticks": 245040,
                    "time": 227.083108,
                    "velocity": 0.6299212598425197
                },
                {
                    "duration": 0.21018497500000421,
                    "durationTicks": 227,
                    "midi": 72,
                    "name": "C5",
                    "ticks": 245040,
                    "time": 227.083108,
                    "velocity": 0.7007874015748031
                },
                {
                    "duration": 0.21018497500000421,
                    "durationTicks": 227,
                    "midi": 69,
                    "name": "A4",
                    "ticks": 245280,
                    "time": 227.30533,
                    "velocity": 0.5511811023622047
                },
                {
                    "duration": 0.2101849749999758,
                    "durationTicks": 227,
                    "midi": 72,
                    "name": "C5",
                    "ticks": 245520,
                    "time": 227.52755200000001,
                    "velocity": 0.5590551181102362
                },
                {
                    "duration": 0.2101849749999758,
                    "durationTicks": 227,
                    "midi": 64,
                    "name": "E4",
                    "ticks": 245520,
                    "time": 227.52755200000001,
                    "velocity": 0.6850393700787402
                },
                {
                    "duration": 0.42129587499999843,
                    "durationTicks": 455,
                    "midi": 71,
                    "name": "B4",
                    "ticks": 245760,
                    "time": 227.749774,
                    "velocity": 0.5590551181102362
                },
                {
                    "duration": 0.21018497500000421,
                    "durationTicks": 227,
                    "midi": 71,
                    "name": "B4",
                    "ticks": 246240,
                    "time": 228.194218,
                    "velocity": 0.6141732283464567
                },
                {
                    "duration": 0.42129587500002685,
                    "durationTicks": 455,
                    "midi": 71,
                    "name": "B4",
                    "ticks": 246480,
                    "time": 228.41644,
                    "velocity": 0.6220472440944882
                },
                {
                    "duration": 0.21018497500000421,
                    "durationTicks": 227,
                    "midi": 72,
                    "name": "C5",
                    "ticks": 246960,
                    "time": 228.860884,
                    "velocity": 0.6456692913385826
                },
                {
                    "duration": 0.42129587499997,
                    "durationTicks": 455,
                    "midi": 72,
                    "name": "C5",
                    "ticks": 247200,
                    "time": 229.08310600000002,
                    "velocity": 0.6141732283464567
                },
                {
                    "duration": 0.3157404250000013,
                    "durationTicks": 341,
                    "midi": 88,
                    "name": "E6",
                    "ticks": 247680,
                    "time": 229.52755,
                    "velocity": 0.6850393700787402
                },
                {
                    "duration": 0.10462952499997868,
                    "durationTicks": 113,
                    "midi": 81,
                    "name": "A5",
                    "ticks": 247800,
                    "time": 229.638661,
                    "velocity": 0.48031496062992124
                },
                {
                    "duration": 0.10462952499997868,
                    "durationTicks": 113,
                    "midi": 64,
                    "name": "E4",
                    "ticks": 247800,
                    "time": 229.638661,
                    "velocity": 0.5511811023622047
                },
                {
                    "duration": 0.11018507500000396,
                    "durationTicks": 119,
                    "midi": 76,
                    "name": "E5",
                    "ticks": 247920,
                    "time": 229.749772,
                    "velocity": 0.4881889763779528
                },
                {
                    "duration": 0.10462952499997868,
                    "durationTicks": 113,
                    "midi": 69,
                    "name": "A4",
                    "ticks": 247920,
                    "time": 229.749772,
                    "velocity": 0.6220472440944882
                },
                {
                    "duration": 0.3157404250000013,
                    "durationTicks": 341,
                    "midi": 86,
                    "name": "D6",
                    "ticks": 248040,
                    "time": 229.860883,
                    "velocity": 0.5118110236220472
                },
                {
                    "duration": 0.1046295250000071,
                    "durationTicks": 113,
                    "midi": 71,
                    "name": "B4",
                    "ticks": 248040,
                    "time": 229.860883,
                    "velocity": 0.6850393700787402
                },
                {
                    "duration": 0.1046295250000071,
                    "durationTicks": 113,
                    "midi": 81,
                    "name": "A5",
                    "ticks": 248160,
                    "time": 229.971994,
                    "velocity": 0.5748031496062992
                },
                {
                    "duration": 0.1046295250000071,
                    "durationTicks": 113,
                    "midi": 69,
                    "name": "A4",
                    "ticks": 248160,
                    "time": 229.971994,
                    "velocity": 0.5669291338582677
                },
                {
                    "duration": 0.11018507500003238,
                    "durationTicks": 119,
                    "midi": 76,
                    "name": "E5",
                    "ticks": 248280,
                    "time": 230.083105,
                    "velocity": 0.47244094488188976
                },
                {
                    "duration": 0.1046295250000071,
                    "durationTicks": 113,
                    "midi": 71,
                    "name": "B4",
                    "ticks": 248280,
                    "time": 230.083105,
                    "velocity": 0.6456692913385826
                },
                {
                    "duration": 1.0546285750000095,
                    "durationTicks": 1139,
                    "midi": 84,
                    "name": "C6",
                    "ticks": 248400,
                    "time": 230.194216,
                    "velocity": 0.5669291338582677
                },
                {
                    "duration": 0.11018507500000396,
                    "durationTicks": 119,
                    "midi": 72,
                    "name": "C5",
                    "ticks": 248400,
                    "time": 230.194216,
                    "velocity": 0.6614173228346457
                },
                {
                    "duration": 0.10462952499997868,
                    "durationTicks": 113,
                    "midi": 64,
                    "name": "E4",
                    "ticks": 248520,
                    "time": 230.305327,
                    "velocity": 0.6535433070866141
                },
                {
                    "duration": 0.1046295250000071,
                    "durationTicks": 113,
                    "midi": 69,
                    "name": "A4",
                    "ticks": 248640,
                    "time": 230.416438,
                    "velocity": 0.7165354330708661
                },
                {
                    "duration": 0.1046295250000071,
                    "durationTicks": 113,
                    "midi": 72,
                    "name": "C5",
                    "ticks": 248760,
                    "time": 230.527549,
                    "velocity": 0.6850393700787402
                },
                {
                    "duration": 0.10462952499997868,
                    "durationTicks": 113,
                    "midi": 71,
                    "name": "B4",
                    "ticks": 248880,
                    "time": 230.63866000000002,
                    "velocity": 0.5748031496062992
                },
                {
                    "duration": 0.10462952499997868,
                    "durationTicks": 113,
                    "midi": 72,
                    "name": "C5",
                    "ticks": 249000,
                    "time": 230.749771,
                    "velocity": 0.6220472440944882
                },
                {
                    "duration": 0.10462952499997868,
                    "durationTicks": 113,
                    "midi": 74,
                    "name": "D5",
                    "ticks": 249120,
                    "time": 230.860882,
                    "velocity": 0.6535433070866141
                },
                {
                    "duration": 0.1046295250000071,
                    "durationTicks": 113,
                    "midi": 72,
                    "name": "C5",
                    "ticks": 249240,
                    "time": 230.971993,
                    "velocity": 0.5826771653543307
                },
                {
                    "duration": 0.1046295250000071,
                    "durationTicks": 113,
                    "midi": 71,
                    "name": "B4",
                    "ticks": 249360,
                    "time": 231.083104,
                    "velocity": 0.5748031496062992
                },
                {
                    "duration": 0.10462952499997868,
                    "durationTicks": 113,
                    "midi": 72,
                    "name": "C5",
                    "ticks": 249480,
                    "time": 231.194215,
                    "velocity": 0.5826771653543307
                },
                {
                    "duration": 0.3157404250000013,
                    "durationTicks": 341,
                    "midi": 88,
                    "name": "E6",
                    "ticks": 249600,
                    "time": 231.305326,
                    "velocity": 0.6535433070866141
                },
                {
                    "duration": 0.1046295250000071,
                    "durationTicks": 113,
                    "midi": 81,
                    "name": "A5",
                    "ticks": 249720,
                    "time": 231.416437,
                    "velocity": 0.47244094488188976
                },
                {
                    "duration": 0.1046295250000071,
                    "durationTicks": 113,
                    "midi": 64,
                    "name": "E4",
                    "ticks": 249720,
                    "time": 231.416437,
                    "velocity": 0.5590551181102362
                },
                {
                    "duration": 0.11018507500003238,
                    "durationTicks": 119,
                    "midi": 76,
                    "name": "E5",
                    "ticks": 249840,
                    "time": 231.527548,
                    "velocity": 0.5196850393700787
                },
                {
                    "duration": 0.1046295250000071,
                    "durationTicks": 113,
                    "midi": 69,
                    "name": "A4",
                    "ticks": 249840,
                    "time": 231.527548,
                    "velocity": 0.6692913385826772
                },
                {
                    "duration": 0.31574042500002975,
                    "durationTicks": 341,
                    "midi": 86,
                    "name": "D6",
                    "ticks": 249960,
                    "time": 231.638659,
                    "velocity": 0.5433070866141733
                },
                {
                    "duration": 0.1046295250000071,
                    "durationTicks": 113,
                    "midi": 71,
                    "name": "B4",
                    "ticks": 249960,
                    "time": 231.638659,
                    "velocity": 0.6929133858267716
                },
                {
                    "duration": 0.10462952499997868,
                    "durationTicks": 113,
                    "midi": 81,
                    "name": "A5",
                    "ticks": 250080,
                    "time": 231.74977,
                    "velocity": 0.5275590551181102
                },
                {
                    "duration": 0.10462952499997868,
                    "durationTicks": 113,
                    "midi": 69,
                    "name": "A4",
                    "ticks": 250080,
                    "time": 231.74977,
                    "velocity": 0.5748031496062992
                },
                {
                    "duration": 0.11018507500000396,
                    "durationTicks": 119,
                    "midi": 76,
                    "name": "E5",
                    "ticks": 250200,
                    "time": 231.860881,
                    "velocity": 0.49606299212598426
                },
                {
                    "duration": 0.10462952499997868,
                    "durationTicks": 113,
                    "midi": 71,
                    "name": "B4",
                    "ticks": 250200,
                    "time": 231.860881,
                    "velocity": 0.6299212598425197
                },
                {
                    "duration": 1.0546285750000095,
                    "durationTicks": 1139,
                    "midi": 84,
                    "name": "C6",
                    "ticks": 250320,
                    "time": 231.971992,
                    "velocity": 0.5433070866141733
                },
                {
                    "duration": 0.11018507500000396,
                    "durationTicks": 119,
                    "midi": 72,
                    "name": "C5",
                    "ticks": 250320,
                    "time": 231.971992,
                    "velocity": 0.6377952755905512
                },
                {
                    "duration": 0.1046295250000071,
                    "durationTicks": 113,
                    "midi": 64,
                    "name": "E4",
                    "ticks": 250440,
                    "time": 232.083103,
                    "velocity": 0.6771653543307087
                },
                {
                    "duration": 0.10462952499997868,
                    "durationTicks": 113,
                    "midi": 69,
                    "name": "A4",
                    "ticks": 250560,
                    "time": 232.19421400000002,
                    "velocity": 0.7165354330708661
                },
                {
                    "duration": 0.10462952499997868,
                    "durationTicks": 113,
                    "midi": 72,
                    "name": "C5",
                    "ticks": 250680,
                    "time": 232.305325,
                    "velocity": 0.6692913385826772
                },
                {
                    "duration": 0.10462952499997868,
                    "durationTicks": 113,
                    "midi": 71,
                    "name": "B4",
                    "ticks": 250800,
                    "time": 232.416436,
                    "velocity": 0.5748031496062992
                },
                {
                    "duration": 0.1046295250000071,
                    "durationTicks": 113,
                    "midi": 72,
                    "name": "C5",
                    "ticks": 250920,
                    "time": 232.527547,
                    "velocity": 0.6377952755905512
                },
                {
                    "duration": 0.1046295250000071,
                    "durationTicks": 113,
                    "midi": 74,
                    "name": "D5",
                    "ticks": 251040,
                    "time": 232.638658,
                    "velocity": 0.6614173228346457
                },
                {
                    "duration": 0.10462952499997868,
                    "durationTicks": 113,
                    "midi": 72,
                    "name": "C5",
                    "ticks": 251160,
                    "time": 232.74976900000001,
                    "velocity": 0.5433070866141733
                },
                {
                    "duration": 0.10462952499997868,
                    "durationTicks": 113,
                    "midi": 71,
                    "name": "B4",
                    "ticks": 251280,
                    "time": 232.86088,
                    "velocity": 0.5748031496062992
                },
                {
                    "duration": 4.326847525000005,
                    "durationTicks": 4673,
                    "midi": 72,
                    "name": "C5",
                    "ticks": 251400,
                    "time": 232.971991,
                    "velocity": 0.6377952755905512
                }
            ],
            "endOfTrackTicks": 256073
        }
    ]
}
